<?xml version="1.0" encoding="UTF-8"?>
<svg xmlns="http://www.w3.org/2000/svg" xmlns:xlink="http://www.w3.org/1999/xlink" width="2056pt" height="296pt" viewBox="0 0 2056 296" version="1.1">
<g id="surface1">
<path style=" stroke:none;fill-rule:nonzero;fill:rgb(76.078431%,15.294118%,17.647059%);fill-opacity:1;" d="M 2056 41.800781 L 0 41.800781 L 0 0 L 2056 0 L 2056 41.800781 "/>
<path style=" stroke:none;fill-rule:nonzero;fill:rgb(94.117647%,36.078431%,15.294118%);fill-opacity:1;" d="M 2056 83.601562 L 0 83.601562 L 0 41.800781 L 2056 41.800781 L 2056 83.601562 "/>
<path style=" stroke:none;fill-rule:nonzero;fill:rgb(100%,94.509804%,0%);fill-opacity:1;" d="M 2056 125.398438 L 0 125.398438 L 0 83.601562 L 2056 83.601562 L 2056 125.398438 "/>
<path style=" stroke:none;fill-rule:nonzero;fill:rgb(0%,40.784314%,21.568627%);fill-opacity:1;" d="M 2056 167.199219 L 0 167.199219 L 0 125.398438 L 2056 125.398438 L 2056 167.199219 "/>
<path style=" stroke:none;fill-rule:nonzero;fill:rgb(54.509804%,77.254902%,25.098039%);fill-opacity:1;" d="M 2056 209 L 0 209 L 0 167.199219 L 2056 167.199219 L 2056 209 "/>
<path style=" stroke:none;fill-rule:nonzero;fill:rgb(14.901961%,13.333333%,38.039216%);fill-opacity:1;" d="M 2056 250.800781 L 0 250.800781 L 0 209 L 2056 209 L 2056 250.800781 "/>
<path style=" stroke:none;fill-rule:nonzero;fill:rgb(57.254902%,16.078431%,55.294118%);fill-opacity:1;" d="M 2056 292.601562 L 0 292.601562 L 0 250.800781 L 2056 250.800781 L 2056 292.601562 "/>
</g>
</svg>
