<?xml version="1.0" encoding="utf-8"?>
<svg version="1.1" id="Layer_1"
xmlns="http://www.w3.org/2000/svg"
xmlns:xlink="http://www.w3.org/1999/xlink"
xmlns:author="http://www.sothink.com"
width="800px" height="601px"
xml:space="preserve">
<g id="377" transform="matrix(1, 0, 0, 1, 400, 300)">
<path style="fill:#6666FF;fill-opacity:1" d="M-390.05,300L-334.4 300L-334.4 -299.95L-290 -299.95L-290 300L-230 300L-230 -299.95L-185.6 -299.95L-185.6 300L-125.6 300L-125.6 -299.95L-81.2 -299.95L-81.2 300L-21.2 300L-21.2 -299.95L23.2 -299.95L23.2 300L83.2 300L83.2 -299.95L127.6 -299.95L127.6 300L187.6 300L187.6 -299.95L232 -299.95L232 300L292 300L292 -299.95L336.4 -299.95L336.4 300L377.7 300L377.7 300.05L-390.05 300.05L-390.05 300" />
<path style="fill:#9999FF;fill-opacity:1" d="M292,300L232 300L232 -299.95L232 -300L292 -300L292 -299.95L292 300M336.4,-299.95L336.4 -300L396.4 -300L396.4 -299.95L400 -299.95L400 300.05L377.7 300.05L377.7 300L336.4 300L336.4 -299.95M-390.05,300.05L-400 300.05L-400 -299.95L-394.4 -299.95L-394.4 -300L-334.4 -300L-334.4 -299.95L-334.4 300L-390.05 300L-390.05 300.05M-290,-299.95L-290 -300L-230 -300L-230 -299.95L-230 300L-290 300L-290 -299.95M-185.6,-299.95L-185.6 -300L-125.6 -300L-125.6 -299.95L-125.6 300L-185.6 300L-185.6 -299.95M-81.2,-299.95L-81.2 -300L-21.2 -300L-21.2 -299.95L-21.2 300L-81.2 300L-81.2 -299.95M23.2,-299.95L23.2 -300L83.2 -300L83.2 -299.95L83.2 300L23.2 300L23.2 -299.95M127.6,-299.95L127.6 -300L187.6 -300L187.6 -299.95L187.6 300L127.6 300L127.6 -299.95" />
</g>
</svg>
