<?xml version="1.0" encoding="UTF-8"?>
<svg xmlns="http://www.w3.org/2000/svg" xmlns:xlink="http://www.w3.org/1999/xlink" width="232pt" height="320pt" viewBox="0 0 232 320" version="1.1">
<g id="surface1">
<path style=" stroke:none;fill-rule:nonzero;fill:rgb(0%,0%,0%);fill-opacity:1;" d="M 175.800781 21.199219 C 184.066406 29.601562 190.132812 39.667969 194 51.398438 C 197.867188 63.132812 199.132812 75.601562 197.800781 88.800781 C 209.667969 96.265625 218.464844 105.265625 224.199219 115.800781 C 230.066406 126.199219 232.332031 137.332031 231 149.199219 C 229 166.667969 221.332031 182.867188 208 197.800781 C 196.132812 211 182.132812 220.933594 166 227.601562 L 149.199219 232.601562 L 135.800781 236.601562 C 134.601562 237.265625 133.199219 238.398438 131.601562 240 C 131.332031 245.867188 128.933594 251.066406 124.398438 255.601562 C 120 259.734375 115 262.132812 109.398438 262.800781 L 109.398438 264.199219 L 108.199219 273.800781 C 107.132812 278.199219 104.933594 282 101.601562 285.199219 L 94.398438 290.199219 L 94.199219 290.199219 L 94 290.601562 L 87.199219 299.199219 L 87 299.398438 L 86.800781 300.398438 L 85.199219 304.398438 C 83.464844 308.800781 80.800781 312.398438 77.199219 315.199219 C 74 317.734375 70.464844 319 66.601562 319 C 61.132812 319 56.734375 316.933594 53.398438 312.800781 C 50.867188 309.601562 49.601562 306 49.601562 302 C 49.601562 297.867188 50.867188 294.265625 53.398438 291.199219 L 54.199219 288.800781 L 54.601562 288.199219 L 54.601562 286 C 55 280.265625 55.867188 275.535156 57.199219 271.800781 L 58.601562 268.800781 L 57.601562 268.199219 C 54.398438 265.398438 52.199219 262.066406 51 258.199219 C 49.800781 254.332031 49.800781 250.398438 51 246.398438 L 51.398438 245.398438 L 48 243 C 37.066406 234.464844 27.667969 224.464844 19.800781 213 C 11.800781 201.398438 6.199219 189.667969 3 177.800781 C -3.265625 153.398438 0.265625 131.332031 13.601562 111.601562 C 19.867188 102.132812 28.132812 95.199219 38.398438 90.800781 C 36.800781 75.464844 39.667969 61.066406 47 47.601562 C 51.265625 39.734375 57.132812 32.199219 64.601562 25 C 73.132812 17.132812 82.667969 11 93.199219 6.601562 C 103.867188 2.199219 114.601562 0 125.398438 0 C 145.265625 0 162.066406 7.066406 175.800781 21.199219 "/>
<path style=" stroke:none;fill-rule:nonzero;fill:rgb(100%,100%,100%);fill-opacity:1;" d="M 54.398438 51.601562 C 58.535156 44.132812 63.867188 37.332031 70.398438 31.199219 C 78.132812 24 86.800781 18.464844 96.398438 14.601562 C 105.867188 10.601562 115.535156 8.601562 125.398438 8.601562 C 142.734375 8.601562 157.535156 14.734375 169.800781 27 C 178.199219 35.667969 184 46.066406 187.199219 58.199219 C 190 69.265625 190.464844 81 188.601562 93.398438 C 200.734375 99.933594 209.667969 108 215.398438 117.601562 C 221.398438 127.199219 223.800781 137.398438 222.601562 148.199219 C 220.734375 164.066406 213.667969 178.800781 201.398438 192.398438 C 190.464844 204.398438 177.601562 213.464844 162.800781 219.601562 L 147 224.398438 C 140.332031 225.867188 135.398438 227.398438 132.199219 229 C 129.398438 230.199219 126.332031 232.867188 123 237 L 123.199219 239.199219 C 123.066406 242.800781 121.398438 246.332031 118.199219 249.800781 C 114.867188 252.867188 111.132812 254.398438 107 254.398438 L 103.601562 254.199219 L 100.800781 255 L 100.601562 257.398438 L 100.800781 264.398438 C 100.800781 270.933594 99.066406 275.867188 95.601562 279.199219 L 90.398438 282.601562 L 88.800781 283.398438 L 85.398438 287.800781 L 79.199219 296.199219 L 77.398438 301.199219 C 76.199219 304.132812 74.332031 306.601562 71.800781 308.601562 C 70.464844 309.800781 68.734375 310.398438 66.601562 310.398438 C 63.800781 310.398438 61.601562 309.398438 60 307.398438 C 58.535156 305.667969 57.867188 303.667969 58 301.398438 C 58.132812 299.132812 59.066406 297.199219 60.800781 295.601562 L 63 289.398438 L 63.398438 283.199219 C 63.667969 280.265625 64.265625 277.535156 65.199219 275 L 69.601562 265.398438 L 69.398438 265.199219 L 63.199219 261.601562 C 59.066406 258.265625 57.734375 254.066406 59.199219 249 C 59.867188 246.867188 61.199219 244.867188 63.199219 243 L 53.199219 236.199219 C 43.066406 228.199219 34.332031 218.933594 27 208.398438 C 19.535156 197.601562 14.332031 186.667969 11.398438 175.601562 C 5.535156 153.734375 8.601562 134 20.601562 116.398438 C 27.667969 106 36.734375 99.398438 47.800781 96.601562 C 44.734375 80.734375 46.933594 65.734375 54.398438 51.601562 "/>
<path style=" stroke:none;fill-rule:nonzero;fill:rgb(100%,100%,100%);fill-opacity:1;" d="M 92.601562 227.800781 L 92.800781 227.800781 L 93.199219 228.398438 L 91.800781 229.199219 L 92.601562 227.800781 "/>
<path style=" stroke:none;fill-rule:nonzero;fill:rgb(94.117647%,83.921569%,67.058824%);fill-opacity:1;" d="M 93.800781 226.398438 L 94 226.601562 L 92.601562 230.800781 C 90.464844 232.398438 89.398438 234.464844 89.398438 237 L 89.800781 239 L 88 243.800781 L 87.601562 243.800781 L 87.199219 241.199219 L 86.601562 236.800781 L 87.601562 233 L 91.800781 225.601562 L 93.800781 226.398438 "/>
<path style=" stroke:none;fill-rule:nonzero;fill:rgb(87.843137%,80%,58.039216%);fill-opacity:1;" d="M 97.601562 227 L 95.601562 231.398438 C 93.734375 233.265625 93 235.132812 93.398438 237 L 93.398438 239 L 92 243.398438 C 91.199219 245.265625 89.398438 246.199219 86.601562 246.199219 L 86.199219 246 C 84.734375 246 83.933594 245.601562 83.800781 244.800781 L 82.800781 240.199219 C 82.398438 238.332031 82.398438 236.800781 82.800781 235.601562 L 88.199219 225.398438 C 89 224.199219 90.601562 223.535156 93 223.398438 L 95 223.601562 L 97.199219 224.800781 C 97.867188 225.199219 98 225.933594 97.601562 227 "/>
<path style=" stroke:none;fill-rule:nonzero;fill:rgb(64.705882%,48.627451%,32.156863%);fill-opacity:1;" d="M 95.601562 219.800781 L 98 220.199219 L 101.199219 227.601562 C 102.535156 230.800781 102.800781 233.332031 102 235.199219 L 96.800781 245 L 91.398438 254.800781 C 91 255.734375 90.464844 258.933594 89.800781 264.398438 C 89.265625 268.535156 88.066406 271.398438 86.199219 273 C 79.933594 278.601562 75.265625 286.132812 72.199219 295.601562 C 71.933594 296.265625 71.132812 296.667969 69.800781 296.800781 C 68.601562 296.933594 68.066406 296.667969 68.199219 296 C 70.332031 289.464844 72.800781 284.332031 75.601562 280.601562 L 80.601562 274.601562 C 84.332031 270.066406 86.066406 265.066406 85.800781 259.601562 C 89 252.132812 91.933594 246.265625 94.601562 242 C 97 238.265625 98 234.800781 97.601562 231.601562 L 94.199219 221.199219 C 93.933594 220.535156 94.398438 220.066406 95.601562 219.800781 "/>
<path style=" stroke:none;fill-rule:nonzero;fill:rgb(92.54902%,10.980392%,14.117647%);fill-opacity:1;" d="M 163.800781 33 C 176.199219 45.667969 182.066406 62.066406 181.398438 82.199219 C 180.734375 101.132812 174.734375 117.800781 163.398438 132.199219 C 160.066406 136.601562 154.734375 141.601562 147.398438 147.199219 L 130.601562 161.398438 C 125.535156 166.734375 121.535156 174 118.601562 183.199219 L 115.398438 194 C 114.199219 198.398438 113.734375 202.132812 114 205.199219 C 114.667969 210.800781 113.867188 216.265625 111.601562 221.601562 C 108.933594 228.398438 104.933594 230.132812 99.601562 226.800781 C 96.398438 225.066406 94.535156 221.535156 94 216.199219 L 93.601562 206.199219 L 92 195.800781 L 91.199219 185 L 91 174.199219 C 90.464844 165.667969 89.066406 158.332031 86.800781 152.199219 C 84.398438 145.535156 80.601562 139.132812 75.398438 133 C 65 120.734375 58.535156 108 56 94.800781 C 53.332031 81.066406 55.332031 68.066406 62 55.800781 C 65.464844 49.398438 70.199219 43.265625 76.199219 37.398438 C 88.867188 25.667969 103.265625 19 119.398438 17.398438 C 137 15.667969 151.800781 20.867188 163.800781 33 "/>
<path style=" stroke:none;fill-rule:nonzero;fill:rgb(76.078431%,15.294118%,17.647059%);fill-opacity:1;" d="M 127 20 C 115 19.464844 103.332031 22.265625 92 28.398438 C 80.265625 34.800781 70.867188 43.933594 63.800781 55.800781 C 58.199219 67.667969 56.265625 79.933594 58 92.601562 C 59.601562 105.132812 64.667969 116.601562 73.199219 127 C 79.464844 135 84.066406 142.199219 87 148.601562 C 90.601562 156.464844 92.601562 164.800781 93 173.601562 C 93.132812 180.398438 94 191.066406 95.601562 205.601562 L 95.601562 212.199219 C 95.734375 215.933594 96.066406 218.464844 96.601562 219.800781 C 106.464844 223.398438 111.464844 221.734375 111.601562 214.800781 C 112.535156 204.933594 113.398438 197.535156 114.199219 192.601562 C 115.667969 184.332031 118.132812 177.332031 121.601562 171.601562 C 125.332031 165.464844 132.464844 158.132812 143 149.601562 C 153.667969 140.933594 160.867188 133.734375 164.601562 128 C 170.601562 118.535156 174.867188 108.734375 177.398438 98.601562 C 180.199219 87.265625 180.535156 76.601562 178.398438 66.601562 C 175.199219 52.066406 168.734375 40.667969 159 32.398438 C 150.066406 24.800781 139.398438 20.667969 127 20 M 182 65.800781 C 184.535156 78.464844 183.800781 91 179.800781 103.398438 C 175.535156 116.464844 170.601562 126.199219 165 132.601562 L 148.398438 147.199219 C 140.800781 153.066406 135.398438 157.933594 132.199219 161.800781 C 126.601562 168.734375 122.601562 176.535156 120.199219 185.199219 C 119 189.734375 117.601562 198.265625 116 210.800781 C 114.800781 220.265625 112.601562 225.867188 109.398438 227.601562 C 104.066406 230.535156 99.734375 230 96.398438 226 C 93.734375 222.535156 92.199219 217.734375 91.800781 211.601562 L 90.800781 187.398438 L 87.800781 163.199219 C 86.332031 156.535156 83.265625 149.601562 78.601562 142.398438 L 65.800781 123.398438 C 51.800781 100.199219 49.867188 77.734375 60 56 L 60.199219 55.601562 L 60.398438 55.398438 C 71.332031 37.265625 87.398438 24.933594 108.601562 18.398438 C 131.933594 11.332031 150.867188 15.933594 165.398438 32.199219 C 173.933594 41.800781 179.464844 53 182 65.800781 "/>
<path style=" stroke:none;fill-rule:nonzero;fill:rgb(94.117647%,83.921569%,67.058824%);fill-opacity:1;" d="M 113.601562 221.199219 L 106 222.199219 L 99.800781 223.199219 L 93.800781 222.601562 C 92.601562 222.199219 91.667969 221.265625 91 219.800781 C 90.066406 218.332031 89.867188 217 90.398438 215.800781 L 92.601562 214 L 94.398438 212.601562 C 94.535156 214.867188 94.867188 216.535156 95.398438 217.601562 C 96.199219 218.933594 97.667969 219.800781 99.800781 220.199219 L 110.398438 219.199219 C 110 217.734375 108.867188 216.734375 107 216.199219 C 108.066406 214.066406 109.734375 213.066406 112 213.199219 C 114.398438 213.199219 116.132812 214.332031 117.199219 216.601562 C 118.132812 218.867188 116.933594 220.398438 113.601562 221.199219 "/>
<path style="fill:none;stroke-width:0.5;stroke-linecap:butt;stroke-linejoin:miter;stroke:rgb(87.843137%,80%,58.039216%);stroke-opacity:1;stroke-miterlimit:4;" d="M 29.299805 54.150391 C 29.033203 53.583008 28.599609 53.299805 28 53.299805 C 27.433594 53.266602 27.016602 53.516602 26.75 54.049805 C 27.216797 54.183594 27.5 54.433594 27.599609 54.799805 L 24.950195 55.049805 C 24.416992 54.950195 24.049805 54.733398 23.849609 54.400391 C 23.716797 54.133789 23.633789 53.716797 23.599609 53.150391 L 23.150391 53.5 L 22.599609 53.950195 C 22.466797 54.25 22.516602 54.583008 22.75 54.950195 C 22.916992 55.316406 23.150391 55.549805 23.450195 55.650391 L 24.950195 55.799805 L 26.5 55.549805 L 28.400391 55.299805 C 29.233398 55.099609 29.533203 54.716797 29.299805 54.150391 Z M 29.299805 54.150391 " transform="matrix(4,0,0,4,0,0)"/>
<path style=" stroke:none;fill-rule:nonzero;fill:rgb(23.921569%,70.588235%,29.019608%);fill-opacity:1;" d="M 108 139 C 113.734375 154.601562 111.066406 175.734375 100 202.398438 C 97.199219 209.464844 92.066406 219.132812 84.601562 231.398438 C 83.398438 233.667969 82.867188 235.867188 83 238 L 84.398438 245.199219 C 85.332031 255.734375 85.265625 261.066406 84.199219 261.199219 C 79.398438 262 76.398438 261.066406 75.199219 258.398438 C 74.667969 257.332031 74.332031 253.933594 74.199219 248.199219 C 74.066406 243.535156 72.332031 239.800781 69 237 L 58.398438 229.601562 C 49.332031 222.398438 41.398438 214.066406 34.601562 204.601562 C 27.398438 194.332031 22.398438 183.933594 19.601562 173.398438 C 14.398438 154.332031 17.066406 136.933594 27.601562 121.199219 C 38.535156 105.332031 53.199219 99.933594 71.601562 105 C 89.332031 109.800781 101.464844 121.132812 108 139 "/>
<path style=" stroke:none;fill-rule:nonzero;fill:rgb(0%,57.254902%,27.058824%);fill-opacity:1;" d="M 93.398438 119.601562 C 84.199219 111.199219 74 106.398438 62.800781 105.199219 C 50 103.734375 39.867188 107.867188 32.398438 117.601562 C 20.265625 133.464844 16.601562 151.867188 21.398438 172.800781 C 28.066406 194.265625 39.332031 211.535156 55.199219 224.601562 L 65.199219 231.199219 C 69.601562 234.132812 72.398438 236.867188 73.601562 239.398438 C 75.066406 242.464844 75.933594 246.667969 76.199219 252 C 81.667969 259.332031 83.933594 259.933594 83 253.800781 L 82.398438 245.601562 C 81.464844 240.535156 81.601562 236.132812 82.800781 232.398438 C 83.464844 230.265625 85.601562 226.066406 89.199219 219.800781 C 99.601562 201.535156 105.933594 184.601562 108.199219 169 C 111.265625 147.933594 106.332031 131.464844 93.398438 119.601562 M 93.199219 114.601562 C 104.132812 123.132812 110.464844 134.933594 112.199219 150 C 113.667969 162.667969 111.734375 176.265625 106.398438 190.800781 L 93.199219 217.398438 C 87.734375 228.199219 85.398438 237.265625 86.199219 244.601562 L 87.199219 253.199219 C 87.464844 256.667969 87.066406 259.398438 86 261.398438 C 85.601562 262.199219 84.933594 262.601562 84 262.601562 L 78 262.601562 L 73.398438 259.398438 C 72.601562 258.464844 72.199219 256.132812 72.199219 252.398438 C 72.199219 247.867188 71.265625 244.132812 69.398438 241.199219 L 60.800781 233.199219 C 39.601562 218.398438 25.199219 198.667969 17.601562 174 L 17.601562 173.800781 C 14.933594 162.199219 15.265625 150.800781 18.601562 139.601562 C 21.800781 128.933594 27.132812 120.199219 34.601562 113.398438 C 52.199219 97.535156 71.734375 97.933594 93.199219 114.601562 "/>
<path style=" stroke:none;fill-rule:nonzero;fill:rgb(96.470588%,57.254902%,12.941176%);fill-opacity:1;" d="M 184.398438 100.800781 C 194.132812 106.132812 201.601562 112.464844 206.800781 119.800781 C 212.667969 128.199219 215.066406 137.332031 214 147.199219 C 212.535156 161.066406 206.265625 174.132812 195.199219 186.398438 C 185.066406 197.734375 173.132812 206.199219 159.398438 211.800781 L 143.800781 216.398438 C 137 218 131.933594 219.601562 128.601562 221.199219 C 124.734375 223.066406 121.066406 226.132812 117.601562 230.398438 L 108.199219 241 C 100.734375 247.667969 96.332031 248.398438 95 243.199219 C 94.601562 241.601562 95.199219 239.535156 96.800781 237 L 100 231.199219 L 100.800781 224.199219 L 103.398438 220 C 105 217.332031 106.132812 213.933594 106.800781 209.800781 C 108.265625 202.332031 108.601562 191.867188 107.800781 178.398438 C 107 160.398438 107.199219 148.132812 108.398438 141.601562 C 110.667969 128.535156 117 117.800781 127.398438 109.398438 C 135.667969 102.601562 144.800781 98.265625 154.800781 96.398438 C 165.734375 94.398438 175.601562 95.867188 184.398438 100.800781 "/>
<path style=" stroke:none;fill-rule:nonzero;fill:rgb(64.705882%,48.627451%,32.156863%);fill-opacity:1;" d="M 76.398438 251.800781 C 77.734375 251.398438 78.464844 251.398438 78.601562 251.800781 C 80.601562 255.933594 81.265625 259.933594 80.601562 263.800781 L 76.199219 275.199219 C 75 277.867188 73.933594 281.800781 73 287 L 70.398438 299.199219 C 70.265625 299.734375 69.601562 300.066406 68.398438 300.199219 L 66.601562 299.800781 L 69.199219 287.601562 C 70 282.535156 71.066406 278.601562 72.398438 275.800781 C 74.800781 270.734375 76.199219 267 76.601562 264.601562 C 77.398438 260.601562 76.800781 256.667969 74.800781 252.800781 C 74.535156 252.535156 75.066406 252.199219 76.398438 251.800781 "/>
<path style=" stroke:none;fill-rule:nonzero;fill:rgb(64.705882%,48.627451%,32.156863%);fill-opacity:1;" d="M 100.800781 245.199219 C 101.464844 245.464844 101.199219 245.800781 100 246.199219 C 95.601562 247.800781 93.601562 251.933594 94 258.601562 C 94.535156 266.199219 93.734375 271 91.601562 273 L 82.199219 280.601562 C 78.601562 283.667969 76.066406 286.734375 74.601562 289.800781 L 71.800781 296.199219 L 68.199219 301.800781 L 66 302.601562 C 64.800781 302.734375 64.398438 302.601562 64.800781 302.199219 L 68 296.398438 L 70.800781 290.601562 L 79 280.199219 C 79.535156 279.398438 81.867188 277.398438 86 274.199219 C 88.800781 272.066406 90.265625 269.535156 90.398438 266.601562 L 90.800781 254 C 91.734375 249.867188 94.332031 247 98.601562 245.398438 L 100.800781 245.199219 "/>
<path style=" stroke:none;fill-rule:nonzero;fill:rgb(94.117647%,83.921569%,67.058824%);fill-opacity:1;" d="M 67.398438 251.398438 L 69 249.398438 C 69.933594 248.601562 70.734375 248.464844 71.398438 249 L 72.199219 250.601562 L 73 252.199219 C 73.535156 253 74.601562 253.535156 76.199219 253.800781 L 79.800781 254.199219 L 82 253.199219 L 85.199219 251.199219 L 86.601562 247.398438 C 87.933594 247.398438 88.601562 247.734375 88.601562 248.398438 L 88.199219 252.800781 L 85.800781 255.800781 L 82 258 L 78.199219 258.398438 L 74.398438 258 C 72 257.332031 70.132812 256.398438 68.800781 255.199219 C 67.332031 254 66.867188 252.734375 67.398438 251.398438 "/>
<path style="fill:none;stroke-width:0.5;stroke-linecap:butt;stroke-linejoin:miter;stroke:rgb(87.843137%,80%,58.039216%);stroke-opacity:1;stroke-miterlimit:4;" d="M 17.200195 63.799805 C 17.533203 64.099609 18 64.333008 18.599609 64.5 L 19.549805 64.599609 L 20.5 64.5 L 21.450195 63.950195 L 22.049805 63.200195 L 22.150391 62.099609 C 22.150391 61.933594 21.983398 61.849609 21.650391 61.849609 L 21.299805 62.799805 L 20.5 63.299805 L 19.950195 63.549805 L 19.049805 63.450195 C 18.650391 63.383789 18.383789 63.25 18.25 63.049805 L 18.049805 62.650391 L 17.849609 62.25 C 17.683594 62.116211 17.483398 62.150391 17.25 62.349609 L 16.849609 62.849609 C 16.716797 63.183594 16.833008 63.5 17.200195 63.799805 Z M 17.200195 63.799805 " transform="matrix(4,0,0,4,0,0)"/>
<path style=" stroke:none;fill-rule:nonzero;fill:rgb(94.117647%,83.921569%,67.058824%);fill-opacity:1;" d="M 111.199219 237.199219 C 114.667969 236.800781 115.667969 238.199219 114.199219 241.398438 C 112.601562 244.464844 110.199219 246 107 246 L 101.398438 245 C 98.867188 244.332031 97.066406 243.464844 96 242.398438 C 93.066406 240 92.132812 237.667969 93.199219 235.398438 C 94.265625 233.132812 96.535156 232 100 232 L 99.601562 232.398438 L 98.199219 236.398438 L 101.800781 239.199219 C 103.667969 240.535156 104.933594 241.199219 105.601562 241.199219 C 106.933594 241.332031 108 240.734375 108.800781 239.398438 C 109.601562 237.933594 110.398438 237.199219 111.199219 237.199219 "/>
<path style=" stroke:none;fill-rule:nonzero;fill:rgb(87.843137%,80%,58.039216%);fill-opacity:1;" d="M 112.398438 245.398438 C 109.867188 246.867188 106.734375 247.398438 103 247 C 99.398438 246.601562 96.464844 245.332031 94.199219 243.199219 C 91 240 90.265625 237.066406 92 234.398438 C 93.464844 232 96.199219 230.800781 100.199219 230.800781 C 101.398438 230.667969 101.933594 231.066406 101.800781 232 L 101.398438 232.800781 L 100.199219 235.800781 L 103.398438 238.199219 C 105.265625 239.667969 106.464844 240 107 239.199219 C 108.601562 236.667969 110.667969 235.601562 113.199219 236 C 116 236.398438 117.066406 237.800781 116.398438 240.199219 C 115.867188 242.332031 114.535156 244.066406 112.398438 245.398438 M 110 240.199219 L 106.199219 242.398438 C 104.734375 242.667969 103.066406 242.132812 101.199219 240.800781 L 96.800781 237.398438 L 96.398438 236.199219 L 97.398438 233.800781 C 96.601562 234.199219 96 234.667969 95.601562 235.199219 C 94.535156 236.398438 94.601562 237.800781 95.800781 239.398438 C 97.398438 241.535156 99.601562 243 102.398438 243.800781 L 109.800781 244 C 111.800781 242.535156 112.800781 241.066406 112.800781 239.601562 C 112.800781 238.800781 112.199219 238.398438 111 238.398438 L 110 240.199219 "/>
<path style=" stroke:none;fill-rule:nonzero;fill:rgb(100%,30.980392%,27.843137%);fill-opacity:1;" d="M 122.398438 39 C 122.265625 40.332031 120.734375 41.332031 117.800781 42 L 111 43.199219 C 95.398438 47.601562 83.800781 54.734375 76.199219 64.601562 C 75.132812 66.066406 74.464844 67.601562 74.199219 69.199219 L 73.800781 74.398438 L 72 79 L 68.199219 82.398438 C 66.734375 78.933594 66.800781 74.398438 68.398438 68.800781 C 69.601562 64.398438 71.464844 60.132812 74 56 C 76.535156 51.867188 79.667969 48.464844 83.398438 45.800781 C 86.066406 43.800781 90.199219 41.535156 95.800781 39 L 103.800781 35 L 112.601562 33.398438 C 119.800781 33.398438 123.066406 35.265625 122.398438 39 "/>
<path style=" stroke:none;fill-rule:nonzero;fill:rgb(54.509804%,77.254902%,25.098039%);fill-opacity:1;" d="M 46.601562 117 L 59.398438 118.199219 L 53.601562 122.601562 L 48.199219 127.601562 L 41.398438 140.199219 C 36.332031 150.066406 35 158 37.398438 164 C 37.933594 165.464844 39.132812 167.265625 41 169.398438 L 45 174.800781 C 46.332031 177.332031 46.734375 181.132812 46.199219 186.199219 C 42.867188 185.535156 39.535156 183.066406 36.199219 178.800781 C 33.265625 174.933594 31.398438 171.132812 30.601562 167.398438 C 30.066406 164.734375 30.066406 161.601562 30.601562 158 L 32 148.601562 L 31.800781 143 L 31.398438 137.398438 C 31.132812 132.066406 32.332031 127.601562 35 124 C 37.800781 120.132812 41.667969 117.800781 46.601562 117 "/>
<path style=" stroke:none;fill-rule:nonzero;fill:rgb(98.039216%,68.627451%,23.137255%);fill-opacity:1;" d="M 171.800781 109.199219 C 177.265625 112.800781 178.800781 115.601562 176.398438 117.601562 L 173.800781 118.199219 L 170.800781 118.199219 L 167.199219 119.601562 L 163.601562 121 L 156.800781 120.398438 C 152.132812 120.535156 147.464844 122.199219 142.800781 125.398438 L 134.601562 133.398438 C 131.265625 136.734375 128.132812 138.332031 125.199219 138.199219 C 124.933594 134.601562 125.667969 130.800781 127.398438 126.800781 C 129.132812 122.933594 131.464844 119.734375 134.398438 117.199219 C 144.535156 108.535156 153.066406 104.199219 160 104.199219 C 162.667969 104.066406 166.601562 105.734375 171.800781 109.199219 "/>
</g>
</svg>
