<?xml version="1.0" encoding="UTF-8"?>
<svg xmlns="http://www.w3.org/2000/svg" xmlns:xlink="http://www.w3.org/1999/xlink" width="276pt" height="308pt" viewBox="0 0 276 308" version="1.1">
<g id="surface1">
<path style=" stroke:none;fill-rule:nonzero;fill:rgb(100%,100%,100%);fill-opacity:1;" d="M 177.199219 180.199219 L 177.199219 298.800781 L 106.800781 298.800781 L 106.800781 180.199219 L 177.199219 180.199219 "/>
<path style=" stroke:none;fill-rule:nonzero;fill:rgb(0%,0%,0%);fill-opacity:1;" d="M 175.398438 182.398438 L 110.800781 182.398438 L 110.800781 285.398438 L 111.199219 293 C 111.199219 295.535156 110.398438 296.800781 108.800781 296.800781 L 173.199219 296.800781 L 173.199219 193.601562 L 172.800781 186.199219 C 172.933594 183.667969 173.800781 182.398438 175.398438 182.398438 M 105 178.800781 L 108.398438 178 L 178.601562 178 C 180.199219 178 181 178.398438 181 179.199219 L 181 297.800781 C 181 299.265625 179.734375 300.265625 177.199219 300.800781 L 177 301 L 105.398438 301 C 103.800781 301 103 300.667969 103 300 L 103 181.199219 C 103 180.132812 103.667969 179.332031 105 178.800781 "/>
<path style=" stroke:none;fill-rule:nonzero;fill:rgb(80%,80%,80%);fill-opacity:1;" d="M 172.398438 185 L 172.398438 303.800781 L 102 303.800781 L 102 185 L 172.398438 185 "/>
<path style=" stroke:none;fill-rule:nonzero;fill:rgb(0%,0%,0%);fill-opacity:1;" d="M 106 187.800781 L 106 301 L 168.398438 301 L 168.398438 187.800781 L 106 187.800781 M 99.800781 183.199219 C 100.734375 182.535156 101.601562 182.199219 102.398438 182.199219 L 172.601562 182.199219 C 175 182.199219 176.199219 183.066406 176.199219 184.800781 L 176.199219 303.398438 C 176.199219 304.601562 175.535156 305.464844 174.199219 306 L 172.398438 306.398438 L 101.601562 306.398438 C 99.332031 306.398438 98.199219 305.601562 98.199219 304 L 98.199219 185.398438 C 98.199219 184.601562 98.734375 183.867188 99.800781 183.199219 "/>
<path style=" stroke:none;fill-rule:nonzero;fill:rgb(100%,100%,100%);fill-opacity:1;" d="M 242.800781 137 C 242.800781 166.332031 232.464844 191.332031 211.800781 212 C 191.265625 232.667969 166.398438 243 137.199219 243 C 107.867188 243 82.867188 232.667969 62.199219 212 C 41.535156 191.332031 31.199219 166.332031 31.199219 137 C 31.199219 107.800781 41.535156 82.867188 62.199219 62.199219 C 82.867188 41.535156 107.867188 31.199219 137.199219 31.199219 C 166.398438 31.199219 191.265625 41.535156 211.800781 62.199219 C 232.464844 82.867188 242.800781 107.800781 242.800781 137 "/>
<path style=" stroke:none;fill-rule:nonzero;fill:rgb(100%,100%,0%);fill-opacity:1;" d="M 137.199219 0 C 165.601562 0 191.398438 8 214.601562 24 C 233.265625 36.800781 247.800781 53.199219 258.199219 73.199219 C 268.734375 93.199219 274 114.464844 274 137 L 274 143.199219 C 272.933594 167.332031 265.867188 189.734375 252.800781 210.398438 C 239.601562 230.933594 222.332031 246.867188 201 258.199219 C 181 268.867188 159.734375 274.199219 137.199219 274.199219 C 116.398438 274.199219 96.667969 269.734375 78 260.800781 C 59.464844 251.867188 43.601562 239.265625 30.398438 223 C 20.535156 210.734375 13 197.265625 7.800781 182.601562 C 2.601562 167.800781 0 152.601562 0 137 C 0 123.398438 2 110.199219 6 97.398438 C 12.667969 75.132812 24.199219 55.933594 40.601562 39.800781 C 56.867188 23.535156 76.132812 12.132812 98.398438 5.601562 C 110.800781 1.867188 123.734375 0 137.199219 0 "/>
<path style=" stroke:none;fill-rule:nonzero;fill:rgb(0%,0%,0%);fill-opacity:1;" d="M 137.199219 11.199219 C 163.066406 11.199219 186.734375 18.601562 208.199219 33.398438 C 225.265625 45.132812 238.601562 60.132812 248.199219 78.398438 C 257.933594 96.800781 262.800781 116.332031 262.800781 137 L 262.601562 142.601562 C 261.667969 164.734375 255.199219 185.265625 243.199219 204.199219 C 231.199219 223.132812 215.398438 237.800781 195.800781 248.199219 C 177.667969 257.933594 158.132812 262.800781 137.199219 262.800781 C 118.132812 262.800781 100 258.667969 82.800781 250.398438 C 65.734375 242.265625 51.199219 230.734375 39.199219 215.800781 C 30.265625 204.734375 23.398438 192.398438 18.601562 178.800781 C 13.800781 165.199219 11.398438 151.265625 11.398438 137 C 11.398438 124.601562 13.199219 112.464844 16.800781 100.601562 C 22.933594 80.332031 33.464844 62.734375 48.398438 47.800781 C 63.464844 32.867188 81.199219 22.398438 101.601562 16.398438 C 113.464844 12.933594 125.332031 11.199219 137.199219 11.199219 "/>
<path style=" stroke:none;fill-rule:nonzero;fill:rgb(100%,100%,100%);fill-opacity:1;" d="M 240.800781 82.398438 C 249.734375 99.464844 254.199219 117.667969 254.199219 137 L 254 142.398438 C 253.066406 163.066406 247.066406 182.132812 236 199.601562 C 224.800781 217.199219 210.066406 230.867188 191.800781 240.601562 C 175 249.667969 156.800781 254.199219 137.199219 254.199219 C 119.332031 254.199219 102.464844 250.398438 86.601562 242.800781 C 70.601562 235.199219 57 224.398438 45.800781 210.398438 C 37.535156 200.132812 31.132812 188.667969 26.601562 176 C 22.199219 163.332031 20 150.332031 20 137 C 20 125.265625 21.667969 114 25 103.199219 C 30.734375 84.265625 40.601562 67.800781 54.601562 53.800781 C 68.464844 39.933594 84.933594 30.199219 104 24.601562 C 114.800781 21.398438 125.867188 19.800781 137.199219 19.800781 C 161.332031 19.800781 183.398438 26.667969 203.398438 40.398438 C 219.265625 51.332031 231.734375 65.332031 240.800781 82.398438 "/>
<path style=" stroke:none;fill-rule:nonzero;fill:rgb(92.54902%,10.980392%,14.117647%);fill-opacity:1;" d="M 90.199219 114.398438 C 72.867188 143.332031 61 173 54.601562 203.398438 C 39 183.933594 31.199219 161.800781 31.199219 137 C 31.199219 126.464844 32.734375 116.265625 35.800781 106.398438 C 46.464844 88 61.933594 74.398438 82.199219 65.601562 C 98.464844 58.667969 113.800781 55.933594 128.199219 57.398438 L 127.800781 59.601562 C 127.800781 61.867188 128.734375 64.066406 130.601562 66.199219 C 118.734375 73.132812 105.265625 89.199219 90.199219 114.398438 "/>
<path style=" stroke:none;fill-rule:nonzero;fill:rgb(100%,50.196078%,0%);fill-opacity:1;" d="M 126.601562 40 C 131.265625 42.667969 134.535156 46.132812 136.398438 50.398438 C 134.398438 50.667969 132.667969 51.398438 131.199219 52.601562 C 129.601562 53.933594 128.601562 55.535156 128.199219 57.398438 C 113.800781 55.933594 98.464844 58.667969 82.199219 65.601562 C 61.933594 74.398438 46.464844 88 35.800781 106.398438 C 40.867188 89.464844 49.800781 74.667969 62.601562 62 C 75.265625 49.332031 90.132812 40.464844 107.199219 35.398438 C 114.800781 35.398438 121.265625 36.933594 126.601562 40 "/>
<path style=" stroke:none;fill-rule:nonzero;fill:rgb(92.54902%,10.980392%,14.117647%);fill-opacity:1;" d="M 126.601562 40 C 121.265625 36.933594 114.800781 35.398438 107.199219 35.398438 C 116.800781 32.601562 126.800781 31.199219 137.199219 31.199219 C 159.199219 31.199219 179.066406 37.398438 196.800781 49.800781 C 187.734375 47.132812 177.601562 46.132812 166.398438 46.800781 C 155.734375 47.601562 148 49.535156 143.199219 52.601562 C 141.332031 51 139.332031 50.199219 137.199219 50.199219 L 136.398438 50.398438 C 134.535156 46.132812 131.265625 42.667969 126.601562 40 "/>
<path style=" stroke:none;fill-rule:nonzero;fill:rgb(100%,50.196078%,0%);fill-opacity:1;" d="M 142.199219 67.398438 C 152.066406 80.867188 161.265625 100.667969 169.800781 126.800781 C 180.867188 161.066406 186.398438 195.667969 186.398438 230.601562 C 171.066406 238.867188 154.667969 243 137.199219 243 C 120.800781 243 105.265625 239.398438 90.601562 232.199219 C 76.464844 225.265625 64.464844 215.667969 54.601562 203.398438 C 61 173 72.867188 143.332031 90.199219 114.398438 C 105.265625 89.199219 118.734375 73.132812 130.601562 66.199219 C 132.601562 67.933594 134.800781 68.800781 137.199219 68.800781 C 139.199219 68.800781 140.867188 68.332031 142.199219 67.398438 "/>
<path style=" stroke:none;fill-rule:nonzero;fill:rgb(92.54902%,10.980392%,14.117647%);fill-opacity:1;" d="M 199.199219 80.601562 C 220.535156 96.199219 235.066406 116.601562 242.800781 141.800781 C 241.867188 160.867188 236.265625 178.398438 226 194.398438 C 216 209.867188 202.800781 221.933594 186.398438 230.601562 C 186.398438 195.667969 180.867188 161.066406 169.800781 126.800781 C 161.265625 100.667969 152.066406 80.867188 142.199219 67.398438 C 145 65.667969 146.398438 63.066406 146.398438 59.601562 C 163.867188 60.398438 181.464844 67.398438 199.199219 80.601562 "/>
<path style=" stroke:none;fill-rule:nonzero;fill:rgb(100%,50.196078%,0%);fill-opacity:1;" d="M 230.199219 87 C 238.601562 102.601562 242.800781 119.265625 242.800781 137 L 242.800781 141.800781 C 235.066406 116.601562 220.535156 96.199219 199.199219 80.601562 C 181.464844 67.398438 163.867188 60.398438 146.398438 59.601562 C 146.398438 56.667969 145.332031 54.332031 143.199219 52.601562 C 148 49.535156 155.734375 47.601562 166.398438 46.800781 C 177.601562 46.132812 187.734375 47.132812 196.800781 49.800781 C 210.933594 59.535156 222.066406 71.933594 230.199219 87 "/>
<path style=" stroke:none;fill-rule:nonzero;fill:rgb(76.078431%,15.294118%,17.647059%);fill-opacity:1;" d="M 137.199219 50.199219 C 139.332031 50.199219 141.332031 51 143.199219 52.601562 C 145.332031 54.332031 146.398438 56.667969 146.398438 59.601562 C 146.398438 63.066406 145 65.667969 142.199219 67.398438 C 140.867188 68.332031 139.199219 68.800781 137.199219 68.800781 C 134.800781 68.800781 132.601562 67.933594 130.601562 66.199219 C 128.734375 64.066406 127.800781 61.867188 127.800781 59.601562 L 128.199219 57.398438 C 128.601562 55.535156 129.601562 53.933594 131.199219 52.601562 C 132.667969 51.398438 134.398438 50.667969 136.398438 50.398438 L 137.199219 50.199219 "/>
</g>
</svg>
