<?xml version="1.0" encoding="UTF-8"?>
<svg xmlns="http://www.w3.org/2000/svg" xmlns:xlink="http://www.w3.org/1999/xlink" width="312pt" height="316pt" viewBox="0 0 312 316" version="1.1">
<g id="surface1">
<path style=" stroke:none;fill-rule:nonzero;fill:rgb(100%,100%,100%);fill-opacity:1;" d="M 201 189.800781 L 201 308.398438 L 130.800781 308.398438 L 130.800781 189.800781 L 201 189.800781 "/>
<path style=" stroke:none;fill-rule:nonzero;fill:rgb(0%,0%,0%);fill-opacity:1;" d="M 134.601562 192 L 134.601562 306.199219 L 197.199219 306.199219 L 197.199219 192 L 134.601562 192 M 204.800781 189.398438 L 204.800781 308 C 204.800781 309.332031 203.535156 310.199219 201 310.601562 L 200.601562 310.800781 L 129.199219 310.800781 C 127.601562 310.800781 126.800781 310.199219 126.800781 309 L 126.800781 190.199219 C 126.800781 188.464844 128.601562 187.601562 132.199219 187.601562 L 202.398438 187.601562 C 204 187.601562 204.800781 188.199219 204.800781 189.398438 "/>
<path style=" stroke:none;fill-rule:nonzero;fill:rgb(80%,80%,80%);fill-opacity:1;" d="M 196.199219 194.601562 L 196.199219 313.398438 L 125.800781 313.398438 L 125.800781 194.601562 L 196.199219 194.601562 "/>
<path style=" stroke:none;fill-rule:nonzero;fill:rgb(0%,0%,0%);fill-opacity:1;" d="M 129.800781 197.199219 L 129.800781 310.800781 L 192.199219 310.800781 L 192.199219 197.199219 L 129.800781 197.199219 M 200 194.199219 L 200 313 C 200 314.601562 198.734375 315.535156 196.199219 315.800781 L 124.398438 315.800781 C 122.800781 315.800781 122 315.132812 122 313.800781 L 122 195 C 122 193.132812 123.734375 192.199219 127.199219 192.199219 L 197.601562 192.199219 C 199.199219 192.199219 200 192.867188 200 194.199219 "/>
<path style=" stroke:none;fill-rule:nonzero;fill:rgb(100%,94.509804%,0%);fill-opacity:1;" d="M 192.398438 50.601562 C 209.601562 68.066406 222.066406 79.066406 229.800781 83.601562 C 233.535156 85.734375 237.199219 87.199219 240.800781 88 L 253.398438 89 L 280 89 C 285.734375 89.265625 290.933594 90.933594 295.601562 94 C 300.265625 97.199219 303.800781 101.332031 306.199219 106.398438 C 310.601562 115.867188 310.132812 128.199219 304.800781 143.398438 L 295.199219 163.601562 L 288 173.199219 C 276.398438 188.800781 266.867188 200.132812 259.398438 207.199219 C 246.867188 219.066406 233.066406 227.398438 218 232.199219 L 218.199219 240.398438 C 218.199219 247.867188 215.667969 254.332031 210.601562 259.800781 C 205.535156 265.132812 199.265625 268.066406 191.800781 268.601562 L 189 268.800781 L 179.800781 271.601562 L 171 272.800781 L 161 271 L 153.601562 272.199219 L 144.199219 274.800781 L 135.601562 276.199219 C 129.332031 276.199219 123.734375 274.398438 118.800781 270.800781 C 113.867188 267.199219 110.464844 262.464844 108.601562 256.601562 C 107.265625 252.332031 106.933594 247.933594 107.601562 243.398438 C 108.265625 239 109.933594 235 112.601562 231.398438 L 114.398438 225.398438 C 94.265625 217.265625 77.867188 206.132812 65.199219 192 C 58.132812 184.132812 52.265625 174.535156 47.601562 163.199219 C 44.800781 156.667969 41.734375 147.265625 38.398438 135 L 38.199219 134.601562 L 33.601562 118.800781 C 18.265625 116.132812 7.800781 108.066406 2.199219 94.601562 C -0.867188 87 -0.601562 79.398438 3 71.800781 C 6.601562 64.332031 12.332031 59.332031 20.199219 56.800781 L 24.800781 55.800781 C 26 50.332031 27.535156 46 29.398438 42.800781 C 44.066406 17.464844 64.132812 3.398438 89.601562 0.601562 L 100.601562 0 C 124.734375 0 147.667969 9.535156 169.398438 28.601562 L 192.398438 50.601562 "/>
<path style=" stroke:none;fill-rule:nonzero;fill:rgb(0%,0%,0%);fill-opacity:1;" d="M 253.601562 100.199219 L 279.601562 100.199219 C 283.066406 100.464844 286.265625 101.535156 289.199219 103.398438 C 292.132812 105.398438 294.332031 108 295.800781 111.199219 C 299 118 298.332031 127.601562 293.800781 140 L 286 156.800781 L 278.800781 166.398438 C 266.667969 182.667969 256.800781 194.199219 249.199219 201 C 236.535156 212.464844 222.265625 220 206.398438 223.601562 L 206.800781 240.398438 C 206.800781 244.933594 205.199219 248.867188 202 252.199219 C 198.933594 255.535156 195.066406 257.265625 190.398438 257.398438 L 188.601562 257.601562 L 187.601562 257.601562 L 176.199219 260.800781 L 171 261.601562 C 167.667969 261.601562 164.535156 260.601562 161.601562 258.601562 C 158.933594 260.066406 156.132812 260.800781 153.199219 260.800781 L 152.398438 260.800781 L 140.800781 264 L 135.601562 264.800781 C 131.867188 264.800781 128.535156 263.734375 125.601562 261.601562 C 122.535156 259.464844 120.464844 256.601562 119.398438 253 C 118.464844 250.066406 118.332031 247.066406 119 244 C 119.800781 240.933594 121.265625 238.265625 123.398438 236 L 125 229.398438 C 127.398438 224.734375 130.933594 221.800781 135.601562 220.601562 C 109.867188 213.535156 89.199219 201.464844 73.601562 184.398438 C 67.332031 177.332031 62.132812 168.734375 58 158.601562 C 55.332031 152.332031 52.464844 143.398438 49.398438 131.800781 L 42.800781 111 L 42.398438 110 L 39 108.398438 L 36 107.800781 C 31.066406 106.734375 27.199219 105.398438 24.398438 103.800781 C 19.066406 100.867188 15.199219 96.398438 12.800781 90.398438 C 10.933594 85.867188 11.066406 81.265625 13.199219 76.601562 C 15.332031 72.066406 18.800781 69.066406 23.601562 67.601562 L 34 66.199219 L 34.199219 66.199219 L 34.601562 64.601562 C 35.933594 57 37.535156 51.535156 39.398438 48.199219 C 51.933594 26.601562 69.132812 14.464844 91 11.800781 L 100.601562 11.398438 C 121.535156 11.398438 142 20 162 37.199219 L 184.398438 58.601562 C 202.265625 76.734375 215.464844 88.332031 224 93.398438 C 228.667969 96.066406 233.398438 97.933594 238.199219 99 L 253.601562 100.199219 "/>
<path style=" stroke:none;fill-rule:nonzero;fill:rgb(100%,100%,100%);fill-opacity:1;" d="M 178.398438 64.601562 L 199.199219 84.800781 C 206.933594 91.867188 213.800781 97.132812 219.800781 100.601562 C 225.132812 103.800781 230.601562 106 236.199219 107.199219 L 253.398438 108.800781 L 279.199219 108.800781 C 283.332031 109.066406 286.332031 111.066406 288.199219 114.800781 C 291.398438 121.867188 288.464844 134.132812 279.398438 151.601562 L 272 161.398438 C 259.464844 178.199219 249.398438 189.867188 241.800781 196.398438 C 229.132812 207.332031 214.535156 214.066406 198 216.601562 L 198.199219 240.398438 C 198.199219 242.667969 197.398438 244.667969 195.800781 246.398438 C 194.066406 248 192.066406 248.800781 189.800781 248.800781 L 189.601562 248.800781 L 188.601562 249 L 187.199219 249 L 173.601562 252.601562 L 171 253 C 167 253 164.332031 251.066406 163 247.199219 L 162.601562 245.800781 L 160.199219 248.398438 C 158.464844 251.066406 156.132812 252.398438 153.199219 252.398438 L 151.800781 252.199219 L 138.199219 256 L 135.601562 256.398438 C 133.734375 256.398438 132.066406 255.867188 130.601562 254.800781 C 129.132812 253.601562 128.132812 252.132812 127.601562 250.398438 C 126.933594 248.265625 127.066406 246.199219 128 244.199219 C 128.933594 242.199219 130.464844 240.800781 132.601562 240 C 131.535156 237.601562 131.601562 235.332031 132.800781 233.199219 C 133.867188 231.066406 135.464844 229.601562 137.601562 228.800781 L 144 229.199219 L 147.199219 230.800781 L 148.199219 214.800781 C 118.867188 208.800781 96.132812 196.800781 80 178.800781 C 74.265625 172.265625 69.535156 164.398438 65.800781 155.199219 C 63.398438 149.332031 60.667969 140.800781 57.601562 129.601562 L 50.601562 107.800781 L 49.199219 104.398438 L 49 103.601562 L 42.199219 100.601562 L 37.398438 99.398438 L 28.601562 96.601562 C 25 94.464844 22.332031 91.332031 20.601562 87.199219 C 19.667969 84.800781 19.734375 82.535156 20.800781 80.398438 C 21.734375 78.265625 23.464844 76.734375 26 75.800781 L 34.601562 74.601562 L 41.199219 74 L 43 66.199219 C 43.933594 59.800781 45.199219 55.199219 46.800781 52.398438 C 58 33.066406 73 22.398438 91.800781 20.398438 L 100.601562 19.800781 C 119.535156 19.800781 138.132812 27.734375 156.398438 43.601562 L 178.398438 64.601562 M 181 218 L 179.199219 218 L 165 217.199219 L 164 239.800781 L 168 236.601562 C 166.933594 234.332031 167 232.066406 168.199219 229.800781 C 169.265625 227.667969 170.867188 226.199219 173 225.398438 L 179.398438 225.800781 L 180.800781 226.601562 L 181 218 "/>
<path style=" stroke:none;fill-rule:nonzero;fill:rgb(98.039216%,68.627451%,23.137255%);fill-opacity:1;" d="M 156.800781 243.398438 L 155.398438 244.601562 L 150 245.601562 C 148.265625 244.933594 146.132812 243.800781 143.601562 242.199219 L 137.199219 238.398438 C 135.867188 237.867188 136.332031 237.066406 138.601562 236 C 140.867188 234.933594 142.535156 234.667969 143.601562 235.199219 L 149.800781 238.800781 L 156.398438 242.199219 C 157.066406 242.464844 157.199219 242.867188 156.800781 243.398438 "/>
<path style=" stroke:none;fill-rule:nonzero;fill:rgb(98.039216%,68.627451%,23.137255%);fill-opacity:1;" d="M 154.601562 240.601562 L 156.398438 242.199219 C 156.667969 243 156.398438 243.800781 155.601562 244.601562 L 153.398438 246 C 148.332031 247.066406 142.667969 248.601562 136.398438 250.601562 C 133.734375 251.265625 132.199219 250.667969 131.800781 248.800781 C 131.265625 247.066406 132.332031 245.867188 135 245.199219 C 141.265625 243.199219 146.933594 241.667969 152 240.601562 L 154.601562 240.601562 "/>
<path style=" stroke:none;fill-rule:nonzero;fill:rgb(98.039216%,68.627451%,23.137255%);fill-opacity:1;" d="M 172 233.800781 L 173.199219 231.800781 L 178.800781 231.398438 L 184.800781 234.800781 C 187.199219 236.398438 189.199219 237.464844 190.800781 238 C 192.933594 238.800781 193.132812 240 191.398438 241.601562 C 189.667969 243.199219 188 243.667969 186.398438 243 L 179.601562 239.601562 L 172.800781 235.601562 C 172 235.199219 171.734375 234.601562 172 233.800781 "/>
<path style=" stroke:none;fill-rule:nonzero;fill:rgb(98.039216%,68.627451%,23.137255%);fill-opacity:1;" d="M 191.800781 239.199219 C 192.332031 241.066406 191.332031 242.265625 188.800781 242.800781 C 183.734375 243.867188 178.066406 245.398438 171.800781 247.398438 C 169.398438 248.066406 167.933594 247.464844 167.398438 245.601562 C 167 243.734375 167.933594 242.464844 170.199219 241.800781 L 187.199219 237.199219 C 189.734375 236.667969 191.265625 237.332031 191.800781 239.199219 "/>
<path style=" stroke:none;fill-rule:nonzero;fill:rgb(98.039216%,68.627451%,23.137255%);fill-opacity:1;" d="M 192.601562 202.199219 C 195.132812 201.933594 196.199219 202.332031 195.800781 203.398438 C 193.933594 207.933594 193 213.867188 193 221.199219 L 193.601562 239.398438 C 193.601562 240.734375 192.332031 241.667969 189.800781 242.199219 C 187.265625 242.867188 186 242.601562 186 241.398438 L 185.199219 222.800781 C 185.199219 215.332031 186.132812 209.199219 188 204.398438 C 188.535156 203.199219 190.066406 202.464844 192.601562 202.199219 "/>
<path style=" stroke:none;fill-rule:nonzero;fill:rgb(100%,94.901961%,18.823529%);fill-opacity:1;" d="M 150.800781 50 L 182 80.398438 C 195.601562 93.734375 206.734375 102.933594 215.398438 108 C 224.734375 113.464844 235 116.535156 246.199219 117.199219 L 278.800781 117.199219 C 283.199219 117.464844 281.132812 127.199219 272.601562 146.398438 C 255.398438 168.933594 244.398438 182.464844 239.601562 187 C 226.265625 199.667969 210.667969 206.933594 192.800781 208.800781 C 173.867188 210.800781 154.800781 208.800781 135.601562 202.800781 C 114.800781 196.265625 98.398438 186.332031 86.398438 173 C 79.601562 165.398438 73.933594 154.464844 69.398438 140.199219 L 58.601562 104.601562 L 54.800781 97 L 45.601562 92.800781 L 35.601562 90.199219 C 32.265625 89.265625 29.933594 87.199219 28.601562 84 L 38 82.800781 L 46.800781 81 C 48.398438 79.933594 49.734375 76.199219 50.800781 69.800781 C 52.132812 62.464844 53.265625 58 54.199219 56.398438 C 63.800781 39.867188 76.667969 30.667969 92.800781 28.800781 C 103.867188 27.601562 114.398438 29.066406 124.398438 33.199219 C 132.933594 36.667969 141.734375 42.265625 150.800781 50 "/>
<path style=" stroke:none;fill-rule:nonzero;fill:rgb(98.039216%,68.627451%,23.137255%);fill-opacity:1;" d="M 160.199219 194 C 162.867188 193.734375 164 194.398438 163.601562 196 C 160.800781 208.933594 159.398438 223.933594 159.398438 241 C 159.398438 242.601562 158.132812 243.535156 155.601562 243.800781 C 152.933594 244.199219 151.601562 243.535156 151.601562 241.800781 C 151.601562 224.734375 153 209.734375 155.800781 196.800781 C 156.066406 195.332031 157.535156 194.398438 160.199219 194 "/>
<path style=" stroke:none;fill-rule:nonzero;fill:rgb(100%,87.058824%,0%);fill-opacity:1;" d="M 153.199219 192.398438 L 160.601562 192 L 164.800781 194.199219 L 167.199219 195.601562 L 169.601562 196.199219 L 171.601562 197 L 174.398438 198.398438 C 175.199219 199.464844 175.199219 200.734375 174.398438 202.199219 L 171.800781 205.398438 L 169.199219 207 L 166.398438 205 L 164.398438 202.601562 L 162.800781 202.800781 L 161.199219 203 L 160.199219 201.601562 L 159.199219 200.199219 L 157.601562 199.601562 L 155.800781 200 L 149.199219 203.199219 C 146.132812 204.398438 144.464844 203.535156 144.199219 200.601562 C 144.066406 198.464844 145.066406 196.667969 147.199219 195.199219 L 153.199219 192.398438 "/>
<path style=" stroke:none;fill-rule:nonzero;fill:rgb(100%,78.431373%,0%);fill-opacity:1;" d="M 106.800781 64.199219 C 106.800781 70.332031 102.332031 73.398438 93.398438 73.398438 C 84.464844 73.398438 80 70.332031 80 64.199219 C 80 60.464844 81.332031 57.332031 84 54.800781 C 86.535156 52.132812 89.667969 50.800781 93.398438 50.800781 C 97.132812 50.800781 100.332031 52.132812 103 54.800781 C 105.535156 57.332031 106.800781 60.464844 106.800781 64.199219 "/>
<path style=" stroke:none;fill-rule:nonzero;fill:rgb(100%,94.901961%,18.823529%);fill-opacity:1;" d="M 211.398438 173.601562 C 200.867188 177.066406 190.667969 178.199219 180.800781 177 C 164.535156 175.132812 150.867188 171.933594 139.800781 167.398438 C 123.132812 160.601562 113.601562 151.398438 111.199219 139.800781 C 108.265625 125 114.132812 114.265625 128.800781 107.601562 C 141.601562 101.734375 154.933594 100.667969 168.800781 104.398438 C 176.667969 106.535156 185 109.867188 193.800781 114.398438 C 205.667969 120.398438 211.398438 125.734375 211 130.398438 L 219 136 L 214.398438 139.199219 L 226.398438 146.800781 C 225.332031 150.132812 224.265625 152.066406 223.199219 152.601562 C 229.734375 154.199219 234.867188 156.199219 238.601562 158.601562 C 230.601562 165.265625 221.535156 170.265625 211.398438 173.601562 "/>
<path style=" stroke:none;fill-rule:nonzero;fill:rgb(100%,72.156863%,0%);fill-opacity:1;" d="M 172.800781 103.398438 C 186.667969 107.800781 197 112.398438 203.800781 117.199219 L 212.601562 125.800781 C 215.933594 129.933594 218.800781 132.800781 221.199219 134.398438 C 222.398438 135.199219 222.265625 136.066406 220.800781 137 C 219.332031 138.066406 220.132812 139.667969 223.199219 141.800781 L 228.800781 145.199219 L 229.199219 147 C 228 149.667969 228.933594 151.800781 232 153.398438 L 240.800781 157 C 242 157.667969 241.867188 158.535156 240.398438 159.601562 C 222 173.867188 201.867188 180.265625 180 178.800781 L 179.199219 178.800781 C 164.535156 176.933594 153.332031 174.867188 145.601562 172.601562 C 132.265625 168.601562 122.464844 162.933594 116.199219 155.601562 C 110.332031 148.535156 107.601562 140.601562 108 131.800781 C 108.398438 122.464844 112.464844 115.332031 120.199219 110.398438 C 127.800781 105.601562 136.265625 102.535156 145.601562 101.199219 C 155.199219 99.867188 164.265625 100.601562 172.800781 103.398438 M 212.398438 138.199219 C 216.132812 135.535156 206.398438 126.800781 183.199219 112 C 161.332031 103.066406 143.601562 102.066406 130 109 C 118.667969 114.734375 113.332031 123.398438 114 135 C 114.667969 146.199219 120.535156 154.800781 131.601562 160.800781 C 144.535156 167.867188 161.265625 172.601562 181.800781 175 C 197 176.066406 210.332031 173.535156 221.800781 167.398438 C 227.933594 163.933594 230.933594 161.265625 230.800781 159.398438 C 230.667969 157.667969 227.535156 156 221.398438 154.398438 C 220.066406 154.132812 219.734375 153.464844 220.398438 152.398438 C 222.265625 149.601562 222.066406 147.199219 219.800781 145.199219 L 212 140.800781 C 210.933594 140.132812 211.066406 139.265625 212.398438 138.199219 "/>
</g>
</svg>
