<?xml version="1.0" encoding="UTF-8"?>
<svg xmlns="http://www.w3.org/2000/svg" xmlns:xlink="http://www.w3.org/1999/xlink" width="264pt" height="324pt" viewBox="0 0 264 324" version="1.1">
<g id="surface1">
<path style=" stroke:none;fill-rule:nonzero;fill:rgb(100%,100%,100%);fill-opacity:1;" d="M 170.800781 195.199219 L 170.800781 314 L 100.601562 314 L 100.601562 195.199219 L 170.800781 195.199219 "/>
<path style=" stroke:none;fill-rule:nonzero;fill:rgb(0%,0%,0%);fill-opacity:1;" d="M 168 196.601562 L 104.398438 196.601562 L 104.398438 300.601562 L 104.800781 307.601562 C 104.800781 310.933594 104.332031 312.601562 103.398438 312.601562 L 167 312.601562 L 167 208.800781 L 166.601562 201.800781 C 166.601562 198.332031 167.066406 196.601562 168 196.601562 M 99.398438 194.398438 L 103.199219 193.800781 L 173.398438 193.800781 L 174.800781 194.199219 L 174.800781 313 C 174.800781 313.933594 173.535156 314.667969 171 315.199219 L 168.398438 315.601562 L 98 315.601562 L 96.800781 315.199219 L 96.800781 196.199219 C 96.800781 195.398438 97.667969 194.800781 99.398438 194.398438 "/>
<path style=" stroke:none;fill-rule:nonzero;fill:rgb(80%,80%,80%);fill-opacity:1;" d="M 166 200 L 166 319 L 95.800781 319 L 95.800781 200 L 166 200 "/>
<path style=" stroke:none;fill-rule:nonzero;fill:rgb(0%,0%,0%);fill-opacity:1;" d="M 164.199219 202.199219 L 99.601562 202.199219 L 99.601562 305.601562 L 100 313 C 100 315.535156 99.265625 316.800781 97.800781 316.800781 L 162.199219 316.800781 L 162.199219 213.601562 L 161.800781 206 C 161.800781 203.464844 162.601562 202.199219 164.199219 202.199219 M 93.800781 198.601562 L 97.199219 197.800781 L 167.398438 197.800781 C 169 197.800781 169.800781 198.199219 169.800781 199 L 169.800781 318 C 169.800781 319.332031 168.535156 320.332031 166 321 L 165.199219 321.199219 L 94.199219 321.199219 C 92.601562 321.199219 91.800781 320.800781 91.800781 320 L 91.800781 201 C 91.800781 200.066406 92.464844 199.265625 93.800781 198.601562 "/>
<path style=" stroke:none;fill-rule:nonzero;fill:rgb(100%,100%,0%);fill-opacity:1;" d="M 67 25.199219 C 67.667969 18.933594 70.199219 13.464844 74.601562 8.800781 C 79 4.265625 84.332031 1.464844 90.601562 0.398438 L 95.199219 0 C 105.066406 0 112.933594 4.199219 118.800781 12.601562 C 125.867188 17.265625 130.535156 23.199219 132.800781 30.398438 L 135.601562 25.398438 C 136.265625 19 138.800781 13.535156 143.199219 9 C 147.601562 4.199219 153 1.332031 159.398438 0.398438 L 163.800781 0 C 168.601562 0 173.066406 1.132812 177.199219 3.398438 C 181.332031 5.667969 184.734375 8.734375 187.398438 12.601562 C 193.667969 16.734375 198.066406 21.933594 200.601562 28.199219 C 203.265625 34.332031 203.667969 40.867188 201.800781 47.800781 L 201.398438 49.601562 C 203.667969 54.933594 204.800781 59.734375 204.800781 64 L 204.800781 71.398438 L 205.199219 76.199219 C 209.332031 79.265625 212.535156 82.734375 214.800781 86.601562 C 222.933594 95.535156 225.667969 108.265625 223 124.800781 C 226.601562 128.535156 229.332031 132.332031 231.199219 136.199219 C 236.535156 142.601562 239.332031 151.199219 239.601562 162 C 254.535156 174.933594 262 190.066406 262 207.398438 C 262 230.199219 249.667969 248.933594 225 263.601562 C 200.332031 278.265625 169 285.601562 131 285.601562 C 93.132812 285.601562 61.800781 278.265625 37 263.601562 C 12.332031 248.933594 0 230.199219 0 207.398438 C 0 189.933594 7.867188 174.464844 23.601562 161 L 26.800781 147.800781 C 28.265625 140.332031 31.464844 133.601562 36.398438 127.601562 L 36.601562 126.199219 L 36.398438 125.398438 C 34.800781 120.332031 34.535156 114.535156 35.601562 108 C 36.535156 101.601562 39.464844 95.464844 44.398438 89.601562 L 44.601562 89.199219 L 52 80.398438 L 58.398438 75 L 58.800781 73 L 59.800781 66 L 60 61.601562 C 60.132812 58.933594 60.734375 56.265625 61.800781 53.601562 C 59.535156 43.601562 60.933594 34.601562 66 26.601562 L 67 25.199219 "/>
<path style=" stroke:none;fill-rule:nonzero;fill:rgb(0%,0%,0%);fill-opacity:1;" d="M 110.398438 20.800781 C 115.332031 23.464844 118.867188 26.933594 121 31.199219 C 123 35.464844 123.398438 40.066406 122.199219 45 L 120 50.199219 L 121.800781 53.601562 L 121.800781 53.800781 C 123.667969 56.734375 124.667969 60.132812 124.800781 64 L 124.601562 66.398438 L 124.800781 67.601562 L 124.800781 69.398438 L 139.398438 69.601562 L 139.800781 67.800781 L 140 62.601562 C 140.398438 59.265625 141.265625 56.601562 142.601562 54.601562 C 139.535156 46.601562 140.132812 39.265625 144.398438 32.601562 L 146.800781 29.398438 L 146.800781 28.398438 C 146.800781 24.265625 148.132812 20.601562 150.800781 17.398438 C 153.601562 14.199219 157.066406 12.265625 161.199219 11.601562 L 163.800781 11.398438 C 170.734375 11.398438 175.867188 14.535156 179.199219 20.800781 C 184.265625 23.601562 187.800781 27.132812 189.800781 31.398438 C 191.800781 35.535156 192.132812 40.066406 190.800781 45 L 188.601562 50.199219 L 190.601562 53.601562 L 190.601562 53.800781 C 192.464844 57.132812 193.398438 60.535156 193.398438 64 L 193.398438 66.398438 L 193.601562 67.800781 L 193.601562 72.398438 L 194 81.199219 L 194 82 C 199.332031 85.332031 203.265625 89.132812 205.800781 93.398438 C 209.933594 97.667969 212.199219 103.132812 212.601562 109.800781 L 211.601562 124.601562 L 211 128.601562 L 211 129 C 215.800781 133 219.332031 137.464844 221.601562 142.398438 C 226 147.332031 228.199219 154.933594 228.199219 165.199219 L 228.199219 167.398438 C 243.132812 178.867188 250.601562 192.199219 250.601562 207.398438 C 250.601562 226.867188 239.332031 242.867188 216.800781 255.398438 C 194.265625 267.933594 165.667969 274.199219 131 274.199219 C 96.464844 274.199219 67.867188 267.933594 45.199219 255.398438 C 22.667969 242.867188 11.398438 226.867188 11.398438 207.398438 C 11.398438 191.933594 19.066406 178.464844 34.398438 167 C 34.667969 163.398438 35.066406 160.800781 35.601562 159.199219 L 37.800781 150.398438 C 39 143.867188 42.199219 137.867188 47.398438 132.398438 L 48.398438 125.199219 L 48.398438 125 L 47.199219 122 C 46.398438 118.933594 46.199219 114.867188 46.601562 109.800781 C 47.398438 105.398438 49.535156 101.066406 53 96.800781 L 53.800781 95.800781 C 55.800781 92.734375 57.867188 90.332031 60 88.601562 L 69.199219 81.398438 L 69.398438 78.199219 L 70.199219 74.398438 C 70.199219 71.734375 70.535156 69.464844 71.199219 67.601562 L 71.398438 62.601562 C 71.535156 59.535156 72.332031 56.800781 73.800781 54.398438 C 70.867188 46.265625 71.464844 39 75.601562 32.601562 L 78.199219 29.398438 L 78 28.398438 C 78.132812 24.265625 79.535156 20.601562 82.199219 17.398438 C 84.867188 14.199219 88.265625 12.265625 92.398438 11.601562 L 95.199219 11.398438 C 98.398438 11.398438 101.398438 12.265625 104.199219 14 C 106.867188 15.734375 108.933594 18 110.398438 20.800781 "/>
<path style=" stroke:none;fill-rule:nonzero;fill:rgb(100%,100%,100%);fill-opacity:1;" d="M 86.800781 31.398438 L 86.601562 28.398438 C 86.601562 26.265625 87.265625 24.398438 88.601562 22.800781 C 89.933594 21.199219 91.667969 20.265625 93.800781 20 L 95.199219 19.800781 C 99.199219 19.800781 101.867188 21.800781 103.199219 25.800781 L 104.800781 27.601562 C 112.535156 31.199219 115.535156 36.265625 113.800781 42.800781 C 113.535156 44.667969 112.464844 46.601562 110.601562 48.601562 L 109.800781 50.601562 C 109.800781 51.535156 110.132812 52.199219 110.800781 52.601562 L 114.199219 57.199219 L 114.398438 57.601562 L 116.199219 64.199219 L 116.199219 70.601562 L 116.601562 75.601562 C 116.867188 77.332031 117.800781 78.199219 119.398438 78.199219 L 131 77.800781 L 144.199219 78.398438 L 144.398438 78.398438 C 146 78.398438 146.933594 77.535156 147.199219 75.800781 L 147.398438 75 L 148.199219 69.800781 L 148.601562 63.199219 C 148.734375 61.066406 149.535156 59 151 57 C 151.800781 55.800781 151.933594 54.734375 151.398438 53.800781 C 150.199219 51.265625 149.535156 48.601562 149.398438 45.800781 C 149.265625 42.601562 150 39.734375 151.601562 37.199219 L 154.601562 33.601562 L 155.601562 31.398438 L 155.398438 28.398438 C 155.398438 26.265625 156.066406 24.398438 157.398438 22.800781 C 158.734375 21.199219 160.464844 20.265625 162.601562 20 L 163.800781 19.800781 C 167.933594 19.800781 170.667969 21.800781 172 25.800781 L 173.398438 27.601562 C 181.265625 31.199219 184.332031 36.265625 182.601562 42.800781 L 179.398438 48.601562 L 178.601562 50.601562 L 179.601562 52.601562 L 182.800781 57.199219 L 183.199219 57.601562 L 185 64.199219 L 184.800781 66.199219 L 184.800781 67 L 185 68 L 185 73.199219 L 185.398438 80.800781 L 185.398438 85 C 185.132812 86.464844 185.601562 87.398438 186.800781 87.800781 C 192.667969 90.867188 196.667969 94.332031 198.800781 98.199219 L 199.398438 99 C 204.066406 103.535156 205.332031 111.601562 203.199219 123.199219 L 202.398438 128.398438 L 202.398438 131.800781 C 202.398438 132.867188 202.800781 133.601562 203.601562 134 C 208.667969 137.867188 212.199219 142.066406 214.199219 146.601562 L 214.800781 147.601562 C 218.398438 151.199219 220 157.066406 219.601562 165.199219 L 219.601562 167.601562 L 220.199219 171.199219 L 221.398438 173 C 235.265625 183 242.199219 194.464844 242.199219 207.398438 C 242.199219 224.199219 231.601562 238.132812 210.398438 249.199219 C 189.199219 260.265625 162.734375 265.800781 131 265.800781 C 99.398438 265.800781 72.933594 260.265625 51.601562 249.199219 C 30.398438 238 19.800781 224.066406 19.800781 207.398438 C 19.800781 194.199219 27.066406 182.464844 41.601562 172.199219 L 42.800781 169.800781 C 42.800781 166.464844 43.132812 163.601562 43.800781 161.199219 L 45.398438 155.800781 L 45.398438 155.398438 L 46 152.800781 L 46.199219 152.199219 C 47 146.734375 49.933594 141.667969 55 137 L 56 134.800781 L 56 134 C 55.867188 132.535156 56.199219 130.066406 57 126.601562 L 57 126 L 57.398438 124.398438 L 57 122.800781 L 55.398438 119.398438 C 55 118.066406 54.800781 116.464844 54.800781 114.601562 L 55 111.199219 C 55.535156 108.535156 57.132812 105.535156 59.800781 102.199219 L 60.800781 101 L 61.199219 100.199219 L 65.601562 94.800781 L 66 94.601562 C 68.265625 92.066406 71.734375 89.601562 76.398438 87.199219 C 78 86.667969 78.535156 85.601562 78 84 C 77.601562 82.667969 77.601562 81.132812 78 79.398438 L 78.398438 76 L 78.601562 75 L 79.398438 69.800781 L 79.800781 63.199219 C 79.933594 61.066406 80.734375 59 82.199219 57 C 83.132812 56.066406 83.332031 55 82.800781 53.800781 C 81.464844 51.398438 80.734375 48.734375 80.601562 45.800781 C 80.464844 42.601562 81.199219 39.734375 82.800781 37.199219 L 85.800781 33.601562 L 86.800781 31.398438 "/>
<path style=" stroke:none;fill-rule:nonzero;fill:rgb(90.196078%,90.196078%,90.196078%);fill-opacity:1;" d="M 233.601562 207.398438 C 233.601562 221.265625 223.601562 233 203.601562 242.601562 C 183.601562 252.332031 159.398438 257.199219 131 257.199219 C 102.734375 257.199219 78.601562 252.332031 58.601562 242.601562 C 38.464844 233 28.398438 221.265625 28.398438 207.398438 C 28.398438 193.667969 38.464844 182 58.601562 172.398438 C 78.601562 162.667969 102.734375 157.800781 131 157.800781 C 159.398438 157.800781 183.601562 162.667969 203.601562 172.398438 C 223.601562 182 233.601562 193.667969 233.601562 207.398438 "/>
<path style=" stroke:none;fill-rule:nonzero;fill:rgb(100%,100%,100%);fill-opacity:1;" d="M 59.800781 190.199219 C 56.734375 190.867188 54.199219 192.867188 52.199219 196.199219 C 50.199219 199.398438 49.199219 203.132812 49.199219 207.398438 C 49.199219 211.800781 50.199219 215.601562 52.199219 218.800781 C 54.199219 222 56.734375 223.933594 59.800781 224.601562 L 57 225 C 52.066406 225 47.933594 223.332031 44.601562 220 C 41.132812 216.535156 39.398438 212.332031 39.398438 207.398438 C 39.398438 202.601562 41.132812 198.535156 44.601562 195.199219 C 47.933594 191.734375 52.066406 190 57 190 L 59.800781 190.199219 "/>
<path style=" stroke:none;fill-rule:nonzero;fill:rgb(100%,100%,100%);fill-opacity:1;" d="M 202.398438 190.199219 L 205.199219 190 C 210 190 214.132812 191.734375 217.601562 195.199219 C 220.933594 198.535156 222.601562 202.601562 222.601562 207.398438 C 222.601562 212.332031 220.933594 216.535156 217.601562 220 C 214.132812 223.332031 210 225 205.199219 225 L 202.398438 224.601562 C 205.332031 223.933594 207.800781 222 209.800781 218.800781 C 211.800781 215.601562 212.800781 211.800781 212.800781 207.398438 C 212.800781 203.132812 211.800781 199.398438 209.800781 196.199219 C 207.800781 192.867188 205.332031 190.867188 202.398438 190.199219 "/>
<path style=" stroke:none;fill-rule:nonzero;fill:rgb(100%,100%,100%);fill-opacity:1;" d="M 107.601562 170.398438 C 100.933594 171.332031 96.867188 172.464844 95.398438 173.800781 L 94.800781 172.398438 C 94.800781 170.265625 98.332031 168.398438 105.398438 166.800781 L 131 164.398438 L 156.800781 166.800781 C 163.867188 168.265625 167.398438 170.132812 167.398438 172.398438 L 166.800781 173.800781 C 165.464844 172.464844 161.398438 171.332031 154.601562 170.398438 L 131 169 L 107.601562 170.398438 "/>
<path style=" stroke:none;fill-rule:nonzero;fill:rgb(100%,100%,100%);fill-opacity:1;" d="M 166.800781 241.199219 L 167.398438 242.398438 C 167.398438 244.667969 163.867188 246.601562 156.800781 248.199219 L 131 250.601562 L 105.398438 248.199219 C 98.332031 246.601562 94.800781 244.667969 94.800781 242.398438 L 95.398438 241.199219 C 96.867188 242.667969 100.933594 243.800781 107.601562 244.601562 L 131 246 L 154.601562 244.601562 C 161.398438 243.800781 165.464844 242.667969 166.800781 241.199219 "/>
<path style=" stroke:none;fill-rule:nonzero;fill:rgb(83.921569%,72.156863%,54.901961%);fill-opacity:1;" d="M 207.601562 207.398438 C 207.601562 215.800781 200.132812 223 185.199219 229 C 170.265625 234.867188 152.199219 237.800781 131 237.800781 C 109.933594 237.800781 91.933594 234.867188 77 229 C 61.933594 223 54.398438 215.800781 54.398438 207.398438 L 54.398438 155.199219 L 207.601562 155.199219 L 207.601562 207.398438 "/>
<path style=" stroke:none;fill-rule:nonzero;fill:rgb(100%,100%,100%);fill-opacity:1;" d="M 207.601562 194 C 207.601562 202.265625 200.132812 209.464844 185.199219 215.601562 C 170.265625 221.464844 152.199219 224.398438 131 224.398438 C 109.933594 224.398438 91.933594 221.464844 77 215.601562 C 61.933594 209.464844 54.398438 202.265625 54.398438 194 L 54.398438 181.601562 L 207.601562 181.601562 L 207.601562 194 "/>
<path style=" stroke:none;fill-rule:nonzero;fill:rgb(83.921569%,72.156863%,54.901961%);fill-opacity:1;" d="M 207.601562 190.199219 C 207.601562 198.601562 200.132812 205.800781 185.199219 211.800781 C 170.265625 217.667969 152.199219 220.601562 131 220.601562 C 109.933594 220.601562 91.933594 217.667969 77 211.800781 C 61.933594 205.800781 54.398438 198.601562 54.398438 190.199219 L 54.398438 177.601562 L 207.601562 177.601562 L 207.601562 190.199219 "/>
<path style=" stroke:none;fill-rule:nonzero;fill:rgb(100%,90.196078%,58.039216%);fill-opacity:1;" d="M 207.601562 155.199219 C 207.601562 161.734375 203.867188 167.265625 196.398438 171.800781 C 192 174.464844 185.464844 177 176.800781 179.398438 C 149.734375 187.265625 122 187.933594 93.601562 181.398438 C 83.332031 179 75.332031 176.398438 69.601562 173.601562 C 59.464844 168.667969 54.398438 162.535156 54.398438 155.199219 C 54.398438 146.800781 61.933594 139.667969 77 133.800781 C 91.933594 127.933594 109.933594 125 131 125 C 152.199219 125 170.265625 127.933594 185.199219 133.800781 C 200.132812 139.667969 207.601562 146.800781 207.601562 155.199219 "/>
<path style=" stroke:none;fill-rule:nonzero;fill:rgb(96.470588%,81.176471%,12.941176%);fill-opacity:1;" d="M 92.601562 129.398438 C 82.734375 132.066406 75.535156 134.464844 71 136.601562 C 61.667969 140.867188 56.601562 146.066406 55.800781 152.199219 C 54.601562 162.867188 62.066406 171.132812 78.199219 177 C 88.066406 180.734375 100.265625 183.199219 114.800781 184.398438 L 167.601562 182.601562 C 191.734375 178.199219 204.734375 169.066406 206.601562 155.199219 C 205.398438 145.867188 197.867188 138.601562 184 133.398438 C 174.800781 129.933594 163.734375 127.667969 150.800781 126.601562 C 128.265625 124.464844 108.867188 125.398438 92.601562 129.398438 M 124.601562 124.601562 L 173 128.199219 C 195.132812 133 207 141.867188 208.601562 154.800781 L 208.601562 155 C 206.867188 167.667969 195.601562 176.601562 174.800781 181.800781 C 160.535156 185.398438 144.867188 186.867188 127.800781 186.199219 C 111 185.398438 95.933594 183.199219 82.601562 179.601562 C 59.265625 173.464844 49.667969 164.464844 53.800781 152.601562 C 57.535156 142.066406 67.867188 134.464844 84.800781 129.800781 C 95.867188 126.601562 109.132812 124.867188 124.601562 124.601562 "/>
<path style=" stroke:none;fill-rule:nonzero;fill:rgb(83.921569%,72.156863%,54.901961%);fill-opacity:1;" d="M 192.199219 150.800781 C 192.199219 156.132812 186.199219 160.667969 174.199219 164.398438 C 162.332031 168.132812 147.933594 170 131 170 C 114.199219 170 99.867188 168.132812 88 164.398438 C 76 160.667969 70 156.132812 70 150.800781 L 70 105.398438 L 192.199219 105.398438 L 192.199219 150.800781 "/>
<path style=" stroke:none;fill-rule:nonzero;fill:rgb(100%,100%,100%);fill-opacity:1;" d="M 192.199219 138 C 192.199219 143.332031 186.199219 147.867188 174.199219 151.601562 C 162.332031 155.332031 147.933594 157.199219 131 157.199219 C 114.199219 157.199219 99.867188 155.332031 88 151.601562 C 76 147.867188 70 143.332031 70 138 L 70 126 L 192.199219 126 L 192.199219 138 "/>
<path style=" stroke:none;fill-rule:nonzero;fill:rgb(83.921569%,72.156863%,54.901961%);fill-opacity:1;" d="M 192.199219 134.398438 C 192.199219 139.734375 186.199219 144.265625 174.199219 148 C 162.332031 151.734375 147.933594 153.601562 131 153.601562 C 114.199219 153.601562 99.867188 151.734375 88 148 C 76 144.265625 70 139.734375 70 134.398438 L 70 122.398438 L 192.199219 122.398438 L 192.199219 134.398438 "/>
<path style=" stroke:none;fill-rule:nonzero;fill:rgb(100%,90.196078%,58.039216%);fill-opacity:1;" d="M 192.199219 105.398438 C 192.199219 117.265625 179 123.867188 152.601562 125.199219 L 102.199219 122.398438 L 83.199219 117.800781 C 74.398438 114.601562 70 110.464844 70 105.398438 C 70 100.199219 76 95.734375 88 92 C 99.867188 88.265625 114.199219 86.398438 131 86.398438 C 147.933594 86.398438 162.332031 88.265625 174.199219 92 C 186.199219 95.734375 192.199219 100.199219 192.199219 105.398438 "/>
<path style=" stroke:none;fill-rule:nonzero;fill:rgb(96.470588%,81.176471%,12.941176%);fill-opacity:1;" d="M 176.800781 122 C 185.734375 118.667969 190.535156 113.265625 191.199219 105.800781 L 193.199219 105.398438 C 192.398438 113.265625 186.933594 118.800781 176.800781 122 M 77.199219 98.398438 C 85.066406 93.199219 94.132812 89.734375 104.398438 88 C 122.800781 84.800781 140.398438 84.667969 157.199219 87.601562 C 144.535156 86 131 85.867188 116.601562 87.199219 C 105.800781 88.265625 94.933594 90.933594 84 95.199219 L 77.199219 98.398438 M 80.398438 117.601562 C 68.800781 113.332031 65.734375 108.398438 71.199219 102.800781 C 68.535156 106.265625 69.933594 109.734375 75.398438 113.199219 C 81.265625 116.800781 88.601562 119.398438 97.398438 121 C 115.132812 124.199219 130.867188 125.867188 144.601562 126 C 119.535156 126.800781 98.132812 124 80.398438 117.601562 "/>
<path style=" stroke:none;fill-rule:nonzero;fill:rgb(76.078431%,15.294118%,17.647059%);fill-opacity:1;" d="M 106.199219 62.199219 L 106.199219 104.199219 L 106 104.199219 L 103.199219 107 C 100.265625 108.867188 97 109.667969 93.398438 109.398438 C 89.398438 109 88.066406 106.800781 89.398438 102.800781 L 89.398438 62.199219 L 106.199219 62.199219 "/>
<path style=" stroke:none;fill-rule:nonzero;fill:rgb(76.078431%,15.294118%,17.647059%);fill-opacity:1;" d="M 103.398438 57.199219 C 105.933594 59.734375 106.800781 61.867188 106 63.601562 L 103.800781 65 L 102.800781 65.398438 L 100 66.199219 L 98.398438 65.601562 L 95.800781 65.398438 L 91.398438 66.800781 L 89.199219 64.800781 L 89.398438 61.800781 C 90.332031 59.265625 92.398438 57.398438 95.601562 56.199219 C 98.933594 54.867188 101.535156 55.199219 103.398438 57.199219 "/>
<path style=" stroke:none;fill-rule:nonzero;fill:rgb(60%,15.294118%,17.647059%);fill-opacity:1;" d="M 103 58 C 104.464844 58 105.601562 59 106.398438 61 L 107.800781 64.199219 L 107.601562 66.199219 L 107.800781 68.398438 L 108 84.398438 L 107.398438 86.398438 L 105.601562 87.601562 L 105.601562 82.800781 L 105.199219 79.199219 L 104.601562 77.601562 L 103.800781 75 L 104 74 L 103 72.398438 L 101 70.601562 L 101 69.601562 L 101.199219 68.398438 L 99.398438 67.199219 C 98.332031 66.800781 97.535156 67.265625 97 68.601562 L 96.398438 70.199219 L 95.601562 71.601562 L 94.199219 70.601562 C 93.535156 69.800781 93 69.464844 92.601562 69.601562 C 92.199219 69.734375 92 70.398438 92 71.601562 L 92.199219 74 L 92 79.800781 C 92 81.800781 91.601562 82.734375 90.800781 82.601562 L 90.199219 80.199219 C 89.667969 79.265625 89.398438 79.464844 89.398438 80.800781 L 89.398438 84 C 87.933594 84 86.933594 83.535156 86.398438 82.601562 L 86.398438 80 L 87.199219 76 L 87.398438 72.800781 L 88.199219 68.398438 L 88.199219 64 L 89 62.199219 L 91 61.199219 L 95 60.398438 L 96.398438 59.800781 L 97.601562 58 L 100.601562 57.800781 L 102 58.199219 L 103 58 "/>
<path style=" stroke:none;fill-rule:nonzero;fill:rgb(100%,100%,63.137255%);fill-opacity:1;" d="M 97 52 L 97 47 C 97 44.332031 97.332031 43.066406 98 43.199219 L 98.199219 49.199219 L 99.398438 56.398438 C 99.398438 59.867188 98.734375 60.734375 97.398438 59 C 97 58.601562 96.800781 57.464844 96.800781 55.601562 L 97 52 "/>
<path style=" stroke:none;fill-rule:nonzero;fill:rgb(96.470588%,57.254902%,12.941176%);fill-opacity:1;" d="M 95.199219 28.398438 C 96.132812 31.601562 97.535156 33.667969 99.398438 34.601562 L 103.800781 36.601562 C 105.398438 37.667969 106 39 105.601562 40.601562 L 103.398438 43.800781 L 100.398438 46.601562 L 100 51.199219 C 100.265625 53.332031 100.066406 54.734375 99.398438 55.398438 C 98.464844 56.332031 97 56.132812 95 54.800781 C 93.265625 53.734375 92 52.601562 91.199219 51.398438 L 89.199219 46.800781 C 88.933594 44.800781 89.199219 43.132812 90 41.800781 L 95 36 L 95.398438 32.398438 L 95.199219 28.398438 "/>
<path style=" stroke:none;fill-rule:nonzero;fill:rgb(98.039216%,68.627451%,23.137255%);fill-opacity:1;" d="M 96.601562 45 L 96 47.199219 L 94.800781 48.800781 C 94.398438 49.734375 94.464844 50.800781 95 52 L 97 54.601562 L 93.199219 53 C 91.867188 52.066406 91 51 90.601562 49.800781 C 90.199219 48.464844 90.601562 47.199219 91.800781 46 L 95.398438 43.398438 L 96 40.800781 L 96 38 L 97.601562 41 L 100.398438 42.800781 C 100.800781 43.867188 100.667969 44.867188 100 45.800781 L 98.398438 48 L 98.800781 54.398438 C 97.066406 53.464844 96.332031 52.132812 96.601562 50.398438 L 97.398438 45.199219 L 96.601562 45 "/>
<path style=" stroke:none;fill-rule:nonzero;fill:rgb(76.078431%,15.294118%,17.647059%);fill-opacity:1;" d="M 175 62.199219 L 175 104.199219 L 174.800781 104.199219 L 172 107 C 169.066406 108.867188 165.800781 109.667969 162.199219 109.398438 C 158.199219 109 156.867188 106.800781 158.199219 102.800781 L 158.199219 62.199219 L 175 62.199219 "/>
<path style=" stroke:none;fill-rule:nonzero;fill:rgb(76.078431%,15.294118%,17.647059%);fill-opacity:1;" d="M 172.199219 57.199219 C 174.601562 59.867188 175.398438 62 174.601562 63.601562 L 172.601562 65 L 171.601562 65.398438 L 168.800781 66.199219 L 167.199219 65.601562 L 164.601562 65.398438 C 162.734375 66.464844 161.199219 66.933594 160 66.800781 C 159.199219 66.800781 158.464844 66.132812 157.800781 64.800781 L 158.199219 61.800781 C 159.132812 59.265625 161.199219 57.398438 164.398438 56.199219 C 167.734375 54.867188 170.332031 55.199219 172.199219 57.199219 "/>
<path style=" stroke:none;fill-rule:nonzero;fill:rgb(60%,15.294118%,17.647059%);fill-opacity:1;" d="M 171.800781 58 C 173.265625 58 174.398438 59 175.199219 61 L 176.398438 64.199219 L 176.199219 66.199219 L 176.601562 74.601562 L 177 80.601562 L 176.800781 84.398438 C 176.398438 86.535156 175.601562 87.601562 174.398438 87.601562 L 174.398438 82.800781 L 174 79.199219 L 173.398438 77.601562 C 172.734375 76.535156 172.464844 75.667969 172.601562 75 L 172.800781 74 L 171.800781 72.398438 L 169.800781 70.601562 L 169.800781 68.398438 L 168.199219 67.199219 C 167.132812 66.800781 166.332031 67.265625 165.800781 68.601562 L 165.199219 70.199219 L 164.398438 71.601562 C 164 71.867188 163.535156 71.535156 163 70.601562 C 162.332031 69.800781 161.800781 69.464844 161.398438 69.601562 C 161 69.734375 160.800781 70.398438 160.800781 71.601562 L 161 74 L 160.800781 79.800781 C 160.800781 81.800781 160.398438 82.734375 159.601562 82.601562 L 159 80.199219 C 158.601562 79.535156 158.265625 79.734375 158 80.800781 L 158 84 C 156.667969 84 155.734375 83.535156 155.199219 82.601562 L 155.199219 80 L 155.800781 76 L 156.199219 72.800781 L 157 68.398438 L 157 64 L 157.800781 62.199219 L 159.800781 61.199219 L 163.800781 60.398438 L 165.199219 59.800781 L 166.398438 58 L 169.398438 57.800781 L 170.800781 58.199219 L 171.800781 58 "/>
<path style=" stroke:none;fill-rule:nonzero;fill:rgb(100%,100%,63.137255%);fill-opacity:1;" d="M 165.800781 52 L 165.800781 47 C 165.800781 44.332031 166.132812 43.066406 166.800781 43.199219 L 167 49.199219 L 168.199219 56.398438 C 168.199219 59.867188 167.535156 60.734375 166.199219 59 C 165.800781 58.601562 165.601562 57.464844 165.601562 55.601562 L 165.800781 52 "/>
<path style=" stroke:none;fill-rule:nonzero;fill:rgb(96.470588%,57.254902%,12.941176%);fill-opacity:1;" d="M 163.800781 28.398438 C 165 31.601562 166.464844 33.667969 168.199219 34.601562 L 172.601562 36.601562 C 174.199219 37.667969 174.800781 39 174.398438 40.601562 L 172.199219 43.800781 L 169.199219 46.601562 L 168.800781 51.199219 C 169.066406 53.332031 168.867188 54.734375 168.199219 55.398438 L 163.800781 54.800781 L 160 51.398438 L 158 46.800781 C 157.734375 44.800781 158 43.132812 158.800781 41.800781 L 161.398438 39 L 163.800781 36 L 164.199219 32.398438 L 163.800781 28.398438 "/>
<path style=" stroke:none;fill-rule:nonzero;fill:rgb(98.039216%,68.627451%,23.137255%);fill-opacity:1;" d="M 165.398438 45 L 164.800781 47.199219 L 163.601562 48.800781 C 162.800781 50.933594 163.535156 52.867188 165.800781 54.601562 L 162 53 C 160.667969 52.066406 159.800781 51 159.398438 49.800781 C 159 48.464844 159.398438 47.199219 160.601562 46 L 164.199219 43.398438 L 164.800781 40.800781 L 164.800781 38 L 166.398438 41 L 169 42.800781 L 168.800781 45.800781 L 167.199219 48 C 166.800781 49.199219 166.867188 51.332031 167.398438 54.398438 C 165.667969 53.464844 165 52.132812 165.398438 50.398438 L 166.199219 45.199219 L 165.398438 45 "/>
<path style=" stroke:none;fill-rule:nonzero;fill:rgb(100%,90.196078%,58.039216%);fill-opacity:1;" d="M 170.800781 119 C 174.933594 119 178.332031 118.066406 181 116.199219 L 187.199219 110.601562 L 192 104.199219 C 195.066406 105.800781 196.332031 109.464844 195.800781 115.199219 L 194 128.398438 C 194 136.265625 193.332031 141.398438 192 143.800781 C 190.265625 142.066406 188.800781 141 187.601562 140.601562 L 187 143.601562 L 184.601562 145.199219 L 180.601562 142.199219 L 176.199219 138.601562 L 173.601562 143.601562 L 170.601562 147.800781 L 167.601562 148.398438 C 166.667969 147.601562 165.535156 146.933594 164.199219 146.398438 C 161.667969 145.464844 159.199219 146.265625 156.800781 148.800781 C 154 151.601562 151.667969 152.933594 149.800781 152.800781 L 146.199219 150 C 144.734375 148.265625 143.398438 147.332031 142.199219 147.199219 C 141.265625 147.066406 140.132812 147.464844 138.800781 148.398438 L 135.398438 150.398438 C 133.398438 150.933594 131.398438 150.332031 129.398438 148.601562 C 127.132812 146.601562 125.199219 145.601562 123.601562 145.601562 L 119 150.800781 C 116.867188 152.132812 114.800781 152.464844 112.800781 151.800781 L 107.398438 148.601562 C 105.535156 147.398438 103.667969 147.066406 101.800781 147.601562 L 95.800781 150.398438 C 94.066406 150.933594 92.332031 150.199219 90.601562 148.199219 C 88.734375 145.933594 87.066406 145.199219 85.601562 146 L 80 147.800781 C 78.800781 146.066406 77.464844 143.066406 76 138.800781 L 74.800781 135.199219 L 72.398438 133.199219 C 73.734375 138.265625 73.398438 142 71.398438 144.398438 L 68.398438 146.601562 C 67.199219 146.734375 66.265625 146.132812 65.601562 144.800781 C 64.933594 143.332031 64.601562 139.667969 64.601562 133.800781 L 65.199219 128.800781 L 66 123.800781 L 65.199219 120 L 63.601562 116.800781 L 63.601562 112.601562 L 65.199219 109 L 67.601562 106 L 69.398438 103.398438 L 71.398438 101.199219 C 71 101.734375 71.132812 103.132812 71.800781 105.398438 L 73.601562 109.800781 C 74.535156 110.734375 76.464844 111.464844 79.398438 112 L 91.199219 112.800781 L 103 114 C 107.800781 114.933594 114.867188 117 124.199219 120.199219 C 132.734375 123 140.800781 123.667969 148.398438 122.199219 L 159.601562 120.199219 L 170.800781 119 "/>
<path style=" stroke:none;fill-rule:nonzero;fill:rgb(96.470588%,81.176471%,12.941176%);fill-opacity:1;" d="M 191.199219 104.199219 C 191.332031 103.933594 191.601562 103.800781 192 103.800781 L 192.800781 103.800781 C 196.398438 107.398438 197.800781 113.867188 197 123.199219 C 196.601562 130.132812 195.199219 136.933594 192.800781 143.601562 L 192 144.199219 L 191 144.199219 L 187.800781 143.601562 L 185.199219 145.398438 L 183.601562 145.398438 C 179.464844 142.867188 177.066406 142.066406 176.398438 143 L 170.800781 148.199219 L 168.398438 149.199219 L 166 148.199219 C 163.734375 146.867188 160.933594 147.265625 157.601562 149.398438 C 153.601562 151.933594 150.933594 153.199219 149.601562 153.199219 C 147.601562 153.332031 145.867188 152.535156 144.398438 150.800781 C 143.332031 149.464844 140.332031 149.464844 135.398438 150.800781 C 133.800781 151.199219 131.535156 150.667969 128.601562 149.199219 L 121.601562 149.398438 L 117.199219 152 L 112.199219 152.199219 L 102.800781 151.601562 L 93.601562 151 C 92.265625 150.867188 90 150.199219 86.800781 149 L 79.800781 148.199219 L 79 148 L 76.199219 140.800781 L 72.601562 134.398438 C 73.667969 135.601562 74.199219 137.066406 74.199219 138.800781 L 72.601562 144 L 69.199219 146.601562 L 67.398438 146.800781 C 64.601562 145.066406 63 139.734375 62.601562 130.800781 L 62.800781 113 L 62.800781 112.800781 C 64.398438 108.933594 67.066406 105 70.800781 101 L 71.800781 100.601562 L 72.601562 101 C 71.667969 106.734375 77.667969 110.800781 90.601562 113.199219 L 118 117.398438 C 130.265625 121.535156 143.199219 122.667969 156.800781 120.800781 C 172.132812 118.800781 183.601562 113.265625 191.199219 104.199219 M 194 110.398438 L 188 110.601562 L 181.800781 116.398438 C 178.199219 119.332031 171.800781 121.265625 162.601562 122.199219 L 142 123.398438 C 137.199219 123.933594 131 123 123.398438 120.601562 C 117.265625 118.601562 109.867188 116.933594 101.199219 115.601562 L 78.800781 112.398438 C 76.398438 112 73.667969 109.667969 70.601562 105.398438 C 69.398438 103.535156 67.398438 105.933594 64.601562 112.601562 C 64.601562 113.800781 65.066406 115.601562 66 118 C 66.800781 120.398438 67.066406 122.265625 66.800781 123.601562 C 66 128.800781 65.601562 134 65.601562 139.199219 L 71.398438 133.398438 L 72 132.800781 L 73.199219 132.800781 L 78 141.601562 C 80 145.464844 82.464844 146.800781 85.398438 145.601562 L 88.398438 145.398438 L 94.601562 148.199219 L 101.398438 147.199219 L 102.199219 147 L 112.800781 149.398438 C 117.066406 150.066406 120.332031 148.800781 122.601562 145.601562 L 124.199219 145.199219 L 137 147.199219 C 141.265625 147.734375 145 149 148.199219 151 C 150.332031 152.199219 159.332031 148.132812 175.199219 138.800781 L 176 138.199219 L 177 138.199219 L 182 142.398438 C 184.667969 144.132812 186.265625 143.601562 186.800781 140.800781 L 187.601562 140.199219 L 188.601562 140.199219 C 190.734375 141.800781 192.199219 139.464844 193 133.199219 L 194.199219 120.199219 C 194.601562 115.933594 194.535156 112.667969 194 110.398438 "/>
<path style=" stroke:none;fill-rule:nonzero;fill:rgb(100%,90.196078%,58.039216%);fill-opacity:1;" d="M 150.398438 174.398438 L 160.398438 171.398438 L 170.398438 169.199219 L 177.199219 169.398438 L 183.800781 168.601562 C 187.800781 167.132812 192.199219 164.398438 197 160.398438 L 201.199219 155.199219 C 203.066406 152.667969 204.867188 151.667969 206.601562 152.199219 C 209 153 210.464844 155.265625 211 159 L 211.199219 168 L 212.800781 177.398438 L 213 183.601562 L 212.800781 189.601562 L 214 194.199219 L 214.398438 198.800781 L 213 203.601562 C 212.734375 205.601562 213.066406 207.199219 214 208.398438 L 218.398438 210.800781 C 220.398438 211.464844 221.601562 212.535156 222 214 C 222.398438 215.332031 221.800781 216.933594 220.199219 218.800781 L 218 220.601562 L 215.800781 221.601562 L 212.398438 224.398438 L 209.800781 225.398438 L 207.398438 226.398438 L 205 226.199219 L 201.601562 226.398438 L 198.199219 227.601562 L 196.398438 227.601562 L 194 228 L 193.199219 226.800781 L 193.199219 225.398438 L 195.398438 223.800781 L 197 221 L 199 219.199219 L 199.800781 217 L 200.800781 211.398438 C 201.066406 208.464844 200.800781 206.535156 200 205.601562 C 198.398438 203.734375 194.867188 202.601562 189.398438 202.199219 C 187.265625 202.066406 184.933594 203.398438 182.398438 206.199219 C 179.734375 209.265625 177.535156 210.933594 175.800781 211.199219 C 174.464844 211.464844 172.800781 211.066406 170.800781 210 L 166 208 C 163.734375 207.601562 160.933594 208.332031 157.601562 210.199219 L 150.398438 214.199219 L 142.601562 213.800781 C 135.800781 211 130.464844 210.464844 126.601562 212.199219 L 121.398438 215 C 119.535156 215.800781 117.734375 215.800781 116 215 L 111.800781 212.601562 C 110.066406 211.398438 108.667969 210.667969 107.601562 210.398438 C 106.265625 210 104.734375 210 103 210.398438 L 98.398438 211.199219 L 93.601562 210.601562 C 91.464844 210.199219 90.066406 210.464844 89.398438 211.398438 C 88.867188 212.066406 88.800781 213.265625 89.199219 215 L 89.601562 218.800781 L 87.199219 221 C 85.867188 221.933594 85.265625 222.734375 85.398438 223.398438 L 88 225.601562 L 91.199219 227 L 101 229.199219 L 107.800781 230.398438 C 112.734375 232.398438 115.667969 234.199219 116.601562 235.800781 C 117.398438 237.398438 117.066406 238.535156 115.601562 239.199219 L 111.199219 239.800781 L 100 238.800781 L 93.601562 238.199219 C 91.332031 236.464844 89.535156 235.464844 88.199219 235.199219 L 85.800781 235 L 83.199219 234.800781 L 79 233.398438 L 76.601562 233.398438 L 74.601562 232 L 72.601562 228.199219 C 71.800781 225.398438 72.132812 222.265625 73.601562 218.800781 C 74.398438 216.800781 74.535156 214.265625 74 211.199219 C 72.933594 206.398438 70.867188 201.867188 67.800781 197.601562 L 63.398438 193.800781 C 61 192.601562 59.332031 193 58.398438 195 L 58.398438 198.398438 L 59.398438 201.800781 L 59.199219 209.601562 L 57.800781 212.601562 C 57 213.667969 56 214.066406 54.800781 213.800781 L 54.199219 212 L 53.601562 210.199219 L 52 209.199219 C 51.199219 208.933594 50.667969 208.464844 50.398438 207.800781 C 48.667969 204.601562 49.066406 198.734375 51.601562 190.199219 C 52.667969 186.601562 52.667969 181.332031 51.601562 174.398438 C 51.199219 170.265625 51.332031 166.601562 52 163.398438 C 53.867188 158.199219 54.464844 155.601562 53.800781 155.601562 L 57.398438 155.398438 L 60.398438 156.800781 C 65.734375 160.398438 71.601562 163 78 164.601562 C 82.132812 165.667969 86.734375 167.332031 91.800781 169.601562 L 98.601562 171.398438 L 105.800781 171.601562 L 133.199219 174.800781 L 150.398438 174.398438 "/>
<path style=" stroke:none;fill-rule:nonzero;fill:rgb(96.470588%,81.176471%,12.941176%);fill-opacity:1;" d="M 140.199219 174.800781 L 153.800781 172.800781 L 171 169 C 181.667969 167.933594 188.800781 166.132812 192.398438 163.601562 L 202.800781 152.800781 L 203.800781 152.398438 C 209.265625 151.464844 212.066406 154.199219 212.199219 160.601562 C 212.199219 191.800781 214 208.199219 217.601562 209.800781 C 220.535156 211 222.199219 212.667969 222.601562 214.800781 C 222.867188 217.066406 221.601562 219 218.800781 220.601562 C 214.800781 222.867188 210.734375 224.601562 206.601562 225.800781 L 193.800781 228.398438 L 193 228.398438 C 191.933594 226.800781 192.867188 223.933594 195.800781 219.800781 C 199.132812 215.265625 200.464844 211.800781 199.800781 209.398438 C 198.199219 202.867188 194.601562 201 189 203.800781 C 182.464844 208.464844 178.066406 211.066406 175.800781 211.601562 C 172.734375 212.398438 170.667969 211.601562 169.601562 209.199219 C 168.800781 207.066406 163.332031 208.398438 153.199219 213.199219 L 150.601562 214.398438 L 147.199219 215 C 141.066406 214.066406 132.332031 214.199219 121 215.398438 L 109.800781 213.800781 L 97.800781 211.601562 C 94.734375 211.601562 92.199219 213.800781 90.199219 218.199219 C 88.066406 222.601562 88.734375 225.398438 92.199219 226.601562 L 107 229.398438 C 113.933594 231.132812 117.464844 234.066406 117.601562 238.199219 L 117.398438 238.398438 L 95 239.800781 C 85.800781 238.199219 78.734375 235.734375 73.800781 232.398438 C 71.800781 231.066406 70.933594 228.933594 71.199219 226 L 72.601562 219 C 73.800781 213 72.667969 207.332031 69.199219 202 C 67.199219 194.398438 63.933594 193.066406 59.398438 198 C 60.332031 202.132812 60.734375 205.199219 60.601562 207.199219 C 60.199219 210.398438 58.464844 212.667969 55.398438 214 L 53.800781 214.199219 L 49.800781 207.398438 C 48.332031 205.398438 47.933594 202.734375 48.601562 199.398438 L 50.601562 187 L 50.800781 174.601562 C 50.535156 172.199219 50.800781 169.066406 51.601562 165.199219 L 52.800781 155.800781 C 52.800781 155.398438 53.332031 155.199219 54.398438 155.199219 L 60.800781 156.398438 L 66.800781 159.800781 C 74.535156 163.265625 81.734375 165.933594 88.398438 167.800781 L 103.398438 171 L 106.601562 171.199219 L 120.398438 172.800781 L 134 174.398438 L 135 174.601562 L 140.199219 174.800781 "/>
</g>
</svg>
