<?xml version="1.0" encoding="UTF-8"?>
<svg xmlns="http://www.w3.org/2000/svg" xmlns:xlink="http://www.w3.org/1999/xlink" width="240pt" height="264pt" viewBox="0 0 240 264" version="1.1">
<g id="surface1">
<path style=" stroke:none;fill-rule:nonzero;fill:rgb(0%,0%,0%);fill-opacity:1;" d="M 99 9.398438 C 103.933594 12.066406 107.464844 15.535156 109.601562 19.800781 C 111.601562 24.066406 112 28.667969 110.800781 33.601562 L 108.601562 38.800781 L 110.398438 42.199219 L 110.398438 42.398438 C 112.265625 45.332031 113.265625 48.734375 113.398438 52.601562 L 113.199219 55 L 113.398438 56.199219 L 113.398438 58 L 128 58.199219 L 128.398438 56.398438 L 128.601562 51.199219 C 129 47.867188 129.867188 45.199219 131.199219 43.199219 C 128.132812 35.199219 128.734375 27.867188 133 21.199219 L 135.398438 18 L 135.398438 17 C 135.398438 12.867188 136.734375 9.199219 139.398438 6 C 142.199219 2.800781 145.667969 0.867188 149.800781 0.199219 L 152.398438 0 C 159.332031 0 164.464844 3.132812 167.800781 9.398438 C 172.867188 12.199219 176.398438 15.734375 178.398438 20 C 180.398438 24.132812 180.734375 28.667969 179.398438 33.601562 L 177.199219 38.800781 L 179.199219 42.199219 L 179.199219 42.398438 C 181.066406 45.734375 182 49.132812 182 52.601562 L 182 55 L 182.199219 56.398438 L 182.199219 61 L 182.601562 69.800781 L 182.601562 70.601562 C 187.933594 73.933594 191.867188 77.734375 194.398438 82 C 198.535156 86.265625 200.800781 91.734375 201.199219 98.398438 L 200.199219 113.199219 L 199.601562 117.199219 L 199.601562 117.601562 C 204.398438 121.601562 207.933594 126.066406 210.199219 131 C 214.601562 135.933594 216.800781 143.535156 216.800781 153.800781 L 216.800781 156 C 231.734375 167.464844 239.199219 180.800781 239.199219 196 C 239.199219 215.464844 227.933594 231.464844 205.398438 244 C 182.867188 256.535156 154.265625 262.800781 119.601562 262.800781 C 85.066406 262.800781 56.464844 256.535156 33.800781 244 C 11.265625 231.464844 0 215.464844 0 196 C 0 180.535156 7.667969 167.066406 23 155.601562 C 23.265625 152 23.667969 149.398438 24.199219 147.800781 L 26.398438 139 C 27.601562 132.464844 30.800781 126.464844 36 121 L 37 113.800781 L 37 113.601562 L 35.800781 110.601562 C 35 107.535156 34.800781 103.464844 35.199219 98.398438 C 36 94 38.132812 89.667969 41.601562 85.398438 L 42.398438 84.398438 L 48.601562 77.199219 L 57.800781 70 L 58 66.800781 L 58.800781 63 C 58.800781 60.332031 59.132812 58.066406 59.800781 56.199219 L 60 51.199219 C 60.132812 48.132812 60.933594 45.398438 62.398438 43 C 59.464844 34.867188 60.066406 27.601562 64.199219 21.199219 L 66.800781 18 L 66.601562 17 C 66.734375 12.867188 68.132812 9.199219 70.800781 6 C 73.464844 2.800781 76.867188 0.867188 81 0.199219 L 83.800781 0 C 87 0 90 0.867188 92.800781 2.601562 C 95.464844 4.332031 97.535156 6.601562 99 9.398438 "/>
<path style=" stroke:none;fill-rule:nonzero;fill:rgb(100%,100%,100%);fill-opacity:1;" d="M 75.398438 20 L 75.199219 17 C 75.199219 14.867188 75.867188 13 77.199219 11.398438 C 78.535156 9.800781 80.265625 8.867188 82.398438 8.601562 L 83.800781 8.398438 C 87.800781 8.398438 90.464844 10.398438 91.800781 14.398438 L 93.398438 16.199219 C 101.132812 19.800781 104.132812 24.867188 102.398438 31.398438 C 102.132812 33.265625 101.066406 35.199219 99.199219 37.199219 L 98.398438 39.199219 C 98.398438 40.132812 98.734375 40.800781 99.398438 41.199219 L 102.800781 45.800781 L 103 46.199219 L 104.800781 52.800781 L 104.800781 59.199219 L 105.199219 64.199219 C 105.464844 65.933594 106.398438 66.800781 108 66.800781 L 119.601562 66.398438 L 132.800781 67 L 133 67 C 134.601562 67 135.535156 66.132812 135.800781 64.398438 L 136 63.601562 L 136.800781 58.398438 L 137.199219 51.800781 C 137.332031 49.667969 138.132812 47.601562 139.601562 45.601562 C 140.398438 44.398438 140.535156 43.332031 140 42.398438 C 138.800781 39.867188 138.132812 37.199219 138 34.398438 C 137.867188 31.199219 138.601562 28.332031 140.199219 25.800781 L 143.199219 22.199219 L 144.199219 20 L 144 17 C 144 14.867188 144.667969 13 146 11.398438 C 147.332031 9.800781 149.066406 8.867188 151.199219 8.601562 L 152.398438 8.398438 C 156.535156 8.398438 159.265625 10.398438 160.601562 14.398438 L 162 16.199219 C 169.867188 19.800781 172.933594 24.867188 171.199219 31.398438 C 170.800781 33.265625 169.734375 35.199219 168 37.199219 L 167.199219 39.199219 L 168.199219 41.199219 L 171.398438 45.800781 L 171.800781 46.199219 L 173.601562 52.800781 L 173.398438 54.800781 L 173.398438 55.601562 L 173.601562 56.601562 L 173.601562 61.800781 L 174 69.398438 L 174 73.601562 C 173.734375 75.066406 174.199219 76 175.398438 76.398438 C 181.265625 79.464844 185.265625 82.933594 187.398438 86.800781 L 188 87.601562 C 192.667969 92.132812 193.933594 100.199219 191.800781 111.800781 L 191 117 L 191 120.398438 C 191 121.464844 191.398438 122.199219 192.199219 122.601562 C 197.265625 126.464844 200.800781 130.667969 202.800781 135.199219 L 203.398438 136.199219 C 207 139.800781 208.601562 145.667969 208.199219 153.800781 L 208.199219 156.199219 L 208.800781 159.800781 L 210 161.601562 C 223.867188 171.601562 230.800781 183.066406 230.800781 196 C 230.800781 212.800781 220.199219 226.734375 199 237.800781 C 177.800781 248.867188 151.332031 254.398438 119.601562 254.398438 C 88 254.398438 61.535156 248.867188 40.199219 237.800781 C 19 226.601562 8.398438 212.667969 8.398438 196 C 8.398438 182.800781 15.667969 171.066406 30.199219 160.800781 L 31.398438 158.398438 C 31.398438 155.066406 31.734375 152.199219 32.398438 149.800781 L 34 144.398438 L 34 144 L 34.601562 141.398438 L 34.800781 140.800781 C 35.601562 135.332031 38.535156 130.265625 43.601562 125.601562 L 44.601562 123.398438 L 44.601562 122.601562 C 44.464844 121.132812 44.800781 118.667969 45.601562 115.199219 L 45.601562 114.601562 L 46 113 L 45.601562 111.398438 L 44 108 C 43.601562 106.667969 43.398438 105.066406 43.398438 103.199219 L 43.601562 99.800781 C 44.132812 97.132812 45.734375 94.132812 48.398438 90.800781 L 49.398438 89.601562 L 49.800781 88.800781 C 51.132812 86.667969 52.601562 84.867188 54.199219 83.398438 L 54.601562 83.199219 C 56.867188 80.667969 60.332031 78.199219 65 75.800781 C 66.601562 75.265625 67.132812 74.199219 66.601562 72.601562 C 66.199219 71.265625 66.199219 69.734375 66.601562 68 L 67 64.601562 L 67.199219 63.601562 L 68 58.398438 L 68.398438 51.800781 C 68.535156 49.667969 69.332031 47.601562 70.800781 45.601562 C 71.734375 44.667969 71.933594 43.601562 71.398438 42.398438 C 70.066406 40 69.332031 37.332031 69.199219 34.398438 C 69.066406 31.199219 69.800781 28.332031 71.398438 25.800781 L 74.398438 22.199219 L 75.398438 20 "/>
<path style=" stroke:none;fill-rule:nonzero;fill:rgb(90.196078%,90.196078%,90.196078%);fill-opacity:1;" d="M 222.199219 196 C 222.199219 209.867188 212.199219 221.601562 192.199219 231.199219 C 172.199219 240.933594 148 245.800781 119.601562 245.800781 C 91.332031 245.800781 67.199219 240.933594 47.199219 231.199219 C 27.066406 221.601562 17 209.867188 17 196 C 17 182.265625 27.066406 170.601562 47.199219 161 C 67.199219 151.265625 91.332031 146.398438 119.601562 146.398438 C 148 146.398438 172.199219 151.265625 192.199219 161 C 212.199219 170.601562 222.199219 182.265625 222.199219 196 "/>
<path style=" stroke:none;fill-rule:nonzero;fill:rgb(100%,100%,100%);fill-opacity:1;" d="M 48.398438 178.800781 C 45.332031 179.464844 42.800781 181.464844 40.800781 184.800781 C 38.800781 188 37.800781 191.734375 37.800781 196 C 37.800781 200.398438 38.800781 204.199219 40.800781 207.398438 C 42.800781 210.601562 45.332031 212.535156 48.398438 213.199219 L 45.601562 213.601562 C 40.667969 213.601562 36.535156 211.933594 33.199219 208.601562 C 29.734375 205.132812 28 200.933594 28 196 C 28 191.199219 29.734375 187.132812 33.199219 183.800781 C 36.535156 180.332031 40.667969 178.601562 45.601562 178.601562 L 48.398438 178.800781 "/>
<path style=" stroke:none;fill-rule:nonzero;fill:rgb(100%,100%,100%);fill-opacity:1;" d="M 191 178.800781 L 193.800781 178.601562 C 198.601562 178.601562 202.734375 180.332031 206.199219 183.800781 C 209.535156 187.132812 211.199219 191.199219 211.199219 196 C 211.199219 200.933594 209.535156 205.132812 206.199219 208.601562 C 202.734375 211.933594 198.601562 213.601562 193.800781 213.601562 L 191 213.199219 C 193.933594 212.535156 196.398438 210.601562 198.398438 207.398438 C 200.398438 204.199219 201.398438 200.398438 201.398438 196 C 201.398438 191.734375 200.398438 188 198.398438 184.800781 C 196.398438 181.464844 193.933594 179.464844 191 178.800781 "/>
<path style=" stroke:none;fill-rule:nonzero;fill:rgb(100%,100%,100%);fill-opacity:1;" d="M 96.199219 159 C 89.535156 159.933594 85.464844 161.066406 84 162.398438 L 83.398438 161 C 83.398438 158.867188 86.933594 157 94 155.398438 L 119.601562 153 L 145.398438 155.398438 C 152.464844 156.867188 156 158.734375 156 161 L 155.398438 162.398438 C 154.066406 161.066406 150 159.933594 143.199219 159 L 119.601562 157.601562 L 96.199219 159 "/>
<path style=" stroke:none;fill-rule:nonzero;fill:rgb(100%,100%,100%);fill-opacity:1;" d="M 155.398438 229.800781 L 156 231 C 156 233.265625 152.464844 235.199219 145.398438 236.800781 L 119.601562 239.199219 L 94 236.800781 C 86.933594 235.199219 83.398438 233.265625 83.398438 231 L 84 229.800781 C 85.464844 231.265625 89.535156 232.398438 96.199219 233.199219 L 119.601562 234.601562 L 143.199219 233.199219 C 150 232.398438 154.066406 231.265625 155.398438 229.800781 "/>
<path style=" stroke:none;fill-rule:nonzero;fill:rgb(83.921569%,72.156863%,54.901961%);fill-opacity:1;" d="M 196.199219 196 C 196.199219 204.398438 188.734375 211.601562 173.800781 217.601562 C 158.867188 223.464844 140.800781 226.398438 119.601562 226.398438 C 98.535156 226.398438 80.535156 223.464844 65.601562 217.601562 C 50.535156 211.601562 43 204.398438 43 196 L 43 143.800781 L 196.199219 143.800781 L 196.199219 196 "/>
<path style=" stroke:none;fill-rule:nonzero;fill:rgb(100%,100%,100%);fill-opacity:1;" d="M 196.199219 182.601562 C 196.199219 190.867188 188.734375 198.066406 173.800781 204.199219 C 158.867188 210.066406 140.800781 213 119.601562 213 C 98.535156 213 80.535156 210.066406 65.601562 204.199219 C 50.535156 198.066406 43 190.867188 43 182.601562 L 43 170.199219 L 196.199219 170.199219 L 196.199219 182.601562 "/>
<path style=" stroke:none;fill-rule:nonzero;fill:rgb(83.921569%,72.156863%,54.901961%);fill-opacity:1;" d="M 196.199219 178.800781 C 196.199219 187.199219 188.734375 194.398438 173.800781 200.398438 C 158.867188 206.265625 140.800781 209.199219 119.601562 209.199219 C 98.535156 209.199219 80.535156 206.265625 65.601562 200.398438 C 50.535156 194.398438 43 187.199219 43 178.800781 L 43 166.199219 L 196.199219 166.199219 L 196.199219 178.800781 "/>
<path style=" stroke:none;fill-rule:nonzero;fill:rgb(100%,90.196078%,58.039216%);fill-opacity:1;" d="M 196.199219 143.800781 C 196.199219 150.332031 192.464844 155.867188 185 160.398438 C 180.601562 163.066406 174.066406 165.601562 165.398438 168 C 138.332031 175.867188 110.601562 176.535156 82.199219 170 C 71.933594 167.601562 63.933594 165 58.199219 162.199219 C 48.066406 157.265625 43 151.132812 43 143.800781 C 43 135.398438 50.535156 128.265625 65.601562 122.398438 C 80.535156 116.535156 98.535156 113.601562 119.601562 113.601562 C 140.800781 113.601562 158.867188 116.535156 173.800781 122.398438 C 188.734375 128.265625 196.199219 135.398438 196.199219 143.800781 "/>
<path style=" stroke:none;fill-rule:nonzero;fill:rgb(96.470588%,81.176471%,12.941176%);fill-opacity:1;" d="M 81.199219 118 C 71.332031 120.667969 64.132812 123.066406 59.601562 125.199219 C 50.265625 129.464844 45.199219 134.667969 44.398438 140.800781 C 43.199219 151.464844 50.667969 159.734375 66.800781 165.601562 C 76.667969 169.332031 88.867188 171.800781 103.398438 173 L 156.199219 171.199219 C 180.332031 166.800781 193.332031 157.667969 195.199219 143.800781 C 194 134.464844 186.464844 127.199219 172.601562 122 C 163.398438 118.535156 152.332031 116.265625 139.398438 115.199219 C 116.867188 113.066406 97.464844 114 81.199219 118 M 113.199219 113.199219 C 132.398438 112.800781 148.535156 114 161.601562 116.800781 C 183.734375 121.601562 195.601562 130.464844 197.199219 143.398438 L 197.199219 143.601562 C 195.464844 156.265625 184.199219 165.199219 163.398438 170.398438 C 149.132812 174 133.464844 175.464844 116.398438 174.800781 C 99.601562 174 84.535156 171.800781 71.199219 168.199219 C 47.867188 162.066406 38.265625 153.066406 42.398438 141.199219 C 46.132812 130.667969 56.464844 123.066406 73.398438 118.398438 C 84.464844 115.199219 97.734375 113.464844 113.199219 113.199219 "/>
<path style=" stroke:none;fill-rule:nonzero;fill:rgb(83.921569%,72.156863%,54.901961%);fill-opacity:1;" d="M 180.800781 139.398438 C 180.800781 144.734375 174.800781 149.265625 162.800781 153 C 150.933594 156.734375 136.535156 158.601562 119.601562 158.601562 C 102.800781 158.601562 88.464844 156.734375 76.601562 153 C 64.601562 149.265625 58.601562 144.734375 58.601562 139.398438 L 58.601562 94 L 180.800781 94 L 180.800781 139.398438 "/>
<path style=" stroke:none;fill-rule:nonzero;fill:rgb(100%,100%,100%);fill-opacity:1;" d="M 180.800781 126.601562 C 180.800781 131.933594 174.800781 136.464844 162.800781 140.199219 C 150.933594 143.933594 136.535156 145.800781 119.601562 145.800781 C 102.800781 145.800781 88.464844 143.933594 76.601562 140.199219 C 64.601562 136.464844 58.601562 131.933594 58.601562 126.601562 L 58.601562 114.601562 L 180.800781 114.601562 L 180.800781 126.601562 "/>
<path style=" stroke:none;fill-rule:nonzero;fill:rgb(83.921569%,72.156863%,54.901961%);fill-opacity:1;" d="M 180.800781 123 C 180.800781 128.332031 174.800781 132.867188 162.800781 136.601562 C 150.933594 140.332031 136.535156 142.199219 119.601562 142.199219 C 102.800781 142.199219 88.464844 140.332031 76.601562 136.601562 C 64.601562 132.867188 58.601562 128.332031 58.601562 123 L 58.601562 111 L 180.800781 111 L 180.800781 123 "/>
<path style=" stroke:none;fill-rule:nonzero;fill:rgb(100%,90.196078%,58.039216%);fill-opacity:1;" d="M 180.800781 94 C 180.800781 105.867188 167.601562 112.464844 141.199219 113.800781 L 90.800781 111 L 71.800781 106.398438 C 63 103.199219 58.601562 99.066406 58.601562 94 C 58.601562 88.800781 64.601562 84.332031 76.601562 80.601562 C 88.464844 76.867188 102.800781 75 119.601562 75 C 136.535156 75 150.933594 76.867188 162.800781 80.601562 C 174.800781 84.332031 180.800781 88.800781 180.800781 94 "/>
<path style=" stroke:none;fill-rule:nonzero;fill:rgb(96.470588%,81.176471%,12.941176%);fill-opacity:1;" d="M 165.398438 110.601562 C 174.332031 107.265625 179.132812 101.867188 179.800781 94.398438 L 181.800781 94 C 181 101.867188 175.535156 107.398438 165.398438 110.601562 M 65.800781 87 C 73.667969 81.800781 82.734375 78.332031 93 76.601562 C 111.398438 73.398438 129 73.265625 145.800781 76.199219 C 133.132812 74.601562 119.601562 74.464844 105.199219 75.800781 C 94.398438 76.867188 83.535156 79.535156 72.601562 83.800781 L 65.800781 87 M 69 106.199219 C 57.398438 101.933594 54.332031 97 59.800781 91.398438 C 57.132812 94.867188 58.535156 98.332031 64 101.800781 C 69.867188 105.398438 77.199219 108 86 109.601562 C 103.734375 112.800781 119.464844 114.464844 133.199219 114.601562 C 108.132812 115.398438 86.734375 112.601562 69 106.199219 "/>
<path style=" stroke:none;fill-rule:nonzero;fill:rgb(76.078431%,15.294118%,17.647059%);fill-opacity:1;" d="M 94.800781 50.800781 L 94.800781 92.800781 L 94.601562 92.800781 L 91.800781 95.601562 C 88.867188 97.464844 85.601562 98.265625 82 98 C 78 97.601562 76.667969 95.398438 78 91.398438 L 78 50.800781 L 94.800781 50.800781 "/>
<path style=" stroke:none;fill-rule:nonzero;fill:rgb(76.078431%,15.294118%,17.647059%);fill-opacity:1;" d="M 92 45.800781 C 94.535156 48.332031 95.398438 50.464844 94.601562 52.199219 L 92.398438 53.601562 L 91.398438 54 L 88.601562 54.800781 L 87 54.199219 L 84.398438 54 L 80 55.398438 C 79.199219 55.398438 78.464844 54.734375 77.800781 53.398438 L 78 50.398438 C 78.933594 47.867188 81 46 84.199219 44.800781 C 87.535156 43.464844 90.132812 43.800781 92 45.800781 "/>
<path style=" stroke:none;fill-rule:nonzero;fill:rgb(60%,15.294118%,17.647059%);fill-opacity:1;" d="M 91.601562 46.601562 C 93.066406 46.601562 94.199219 47.601562 95 49.601562 L 96.398438 52.800781 L 96.199219 54.800781 L 96.398438 57 L 96.601562 73 L 96 75 L 94.199219 76.199219 L 94.199219 71.398438 L 93.800781 67.800781 L 93.199219 66.199219 L 92.398438 63.601562 L 92.601562 62.601562 L 91.601562 61 L 89.601562 59.199219 L 89.601562 58.199219 L 89.800781 57 C 89.667969 56.734375 89.066406 56.332031 88 55.800781 C 86.933594 55.398438 86.132812 55.867188 85.601562 57.199219 L 85 58.800781 L 84.199219 60.199219 L 82.800781 59.199219 L 81.199219 58.199219 C 80.800781 58.332031 80.601562 59 80.601562 60.199219 L 80.800781 62.601562 L 80.601562 68.398438 C 80.601562 70.398438 80.199219 71.332031 79.398438 71.199219 L 78.800781 68.800781 C 78.265625 67.867188 78 68.066406 78 69.398438 L 78 72.601562 C 76.535156 72.601562 75.535156 72.132812 75 71.199219 L 75 68.601562 L 75.800781 64.601562 L 76 61.398438 L 76.800781 57 L 76.800781 52.601562 L 77.601562 50.800781 L 79.601562 49.800781 L 83.601562 49 L 85 48.398438 L 86.199219 46.601562 L 89.199219 46.398438 L 90.601562 46.800781 L 91.601562 46.601562 "/>
<path style=" stroke:none;fill-rule:nonzero;fill:rgb(100%,100%,63.137255%);fill-opacity:1;" d="M 85.601562 40.601562 L 85.601562 35.601562 C 85.601562 32.933594 85.933594 31.667969 86.601562 31.800781 L 86.800781 37.800781 L 88 45 C 88 48.464844 87.332031 49.332031 86 47.601562 C 85.601562 47.199219 85.398438 46.066406 85.398438 44.199219 L 85.601562 40.601562 "/>
<path style=" stroke:none;fill-rule:nonzero;fill:rgb(96.470588%,57.254902%,12.941176%);fill-opacity:1;" d="M 83.800781 17 C 84.734375 20.199219 86.132812 22.265625 88 23.199219 L 92.398438 25.199219 C 94 26.265625 94.601562 27.601562 94.199219 29.199219 L 92 32.398438 L 89 35.199219 L 88.601562 39.800781 C 88.867188 41.933594 88.667969 43.332031 88 44 L 83.601562 43.398438 L 79.800781 40 L 77.800781 35.398438 C 77.535156 33.398438 77.800781 31.734375 78.601562 30.398438 L 83.601562 24.601562 L 84 21 L 83.800781 17 "/>
<path style=" stroke:none;fill-rule:nonzero;fill:rgb(98.039216%,68.627451%,23.137255%);fill-opacity:1;" d="M 85.199219 33.601562 L 84.601562 35.800781 L 83.398438 37.398438 C 83 38.332031 83.066406 39.398438 83.601562 40.601562 L 85.601562 43.199219 L 81.800781 41.601562 L 79.199219 38.398438 C 78.800781 37.066406 79.199219 35.800781 80.398438 34.601562 L 84 32 L 84.601562 29.398438 L 84.601562 26.601562 L 86.199219 29.601562 L 89 31.398438 C 89.398438 32.464844 89.265625 33.464844 88.601562 34.398438 L 87 36.601562 L 87.398438 43 C 85.667969 42.066406 84.933594 40.734375 85.199219 39 L 86 33.800781 L 85.199219 33.601562 "/>
<path style=" stroke:none;fill-rule:nonzero;fill:rgb(76.078431%,15.294118%,17.647059%);fill-opacity:1;" d="M 163.601562 50.800781 L 163.601562 92.800781 L 163.398438 92.800781 L 160.601562 95.601562 C 157.667969 97.464844 154.398438 98.265625 150.800781 98 C 146.800781 97.601562 145.464844 95.398438 146.800781 91.398438 L 146.800781 50.800781 L 163.601562 50.800781 "/>
<path style=" stroke:none;fill-rule:nonzero;fill:rgb(76.078431%,15.294118%,17.647059%);fill-opacity:1;" d="M 160.800781 45.800781 C 163.199219 48.464844 164 50.601562 163.199219 52.199219 L 161.199219 53.601562 L 160.199219 54 L 157.398438 54.800781 L 155.800781 54.199219 L 153.199219 54 L 148.601562 55.398438 L 146.398438 53.398438 L 146.800781 50.398438 C 147.734375 47.867188 149.800781 46 153 44.800781 C 156.332031 43.464844 158.933594 43.800781 160.800781 45.800781 "/>
<path style=" stroke:none;fill-rule:nonzero;fill:rgb(60%,15.294118%,17.647059%);fill-opacity:1;" d="M 160.398438 46.601562 C 161.867188 46.601562 163 47.601562 163.800781 49.601562 L 165 52.800781 L 164.800781 54.800781 L 165.199219 63.199219 L 165.601562 69.199219 L 165.398438 73 C 165 75.132812 164.199219 76.199219 163 76.199219 L 163 71.398438 L 162.601562 67.800781 L 162 66.199219 C 161.332031 65.132812 161.066406 64.265625 161.199219 63.601562 L 161.398438 62.601562 L 160.398438 61 L 158.398438 59.199219 L 158.398438 57 L 156.800781 55.800781 C 155.734375 55.398438 154.933594 55.867188 154.398438 57.199219 L 153.800781 58.800781 L 153 60.199219 L 151.601562 59.199219 C 150.933594 58.398438 150.398438 58.066406 150 58.199219 C 149.601562 58.332031 149.398438 59 149.398438 60.199219 L 149.601562 62.601562 L 149.398438 68.398438 C 149.398438 70.398438 149 71.332031 148.199219 71.199219 L 147.601562 68.800781 C 147.199219 68.132812 146.867188 68.332031 146.601562 69.398438 L 146.601562 72.601562 C 145.265625 72.601562 144.332031 72.132812 143.800781 71.199219 L 143.800781 68.601562 L 144.398438 64.601562 L 144.800781 61.398438 L 145.601562 57 L 145.601562 52.601562 L 146.398438 50.800781 C 146.667969 50.398438 147.332031 50.066406 148.398438 49.800781 L 152.398438 49 L 153.800781 48.398438 L 155 46.601562 L 158 46.398438 L 159.398438 46.800781 L 160.398438 46.601562 "/>
<path style=" stroke:none;fill-rule:nonzero;fill:rgb(100%,100%,63.137255%);fill-opacity:1;" d="M 154.398438 40.601562 L 154.398438 35.601562 C 154.398438 32.933594 154.734375 31.667969 155.398438 31.800781 L 155.601562 37.800781 L 156.800781 45 C 156.800781 48.464844 156.132812 49.332031 154.800781 47.601562 C 154.398438 47.199219 154.199219 46.066406 154.199219 44.199219 L 154.398438 40.601562 "/>
<path style=" stroke:none;fill-rule:nonzero;fill:rgb(96.470588%,57.254902%,12.941176%);fill-opacity:1;" d="M 152.398438 17 C 153.601562 20.199219 155.066406 22.265625 156.800781 23.199219 L 161.199219 25.199219 C 162.800781 26.265625 163.398438 27.601562 163 29.199219 L 160.800781 32.398438 L 157.800781 35.199219 L 157.398438 39.800781 C 157.667969 41.933594 157.464844 43.332031 156.800781 44 L 152.398438 43.398438 L 148.601562 40 L 146.601562 35.398438 C 146.332031 33.398438 146.601562 31.734375 147.398438 30.398438 L 150 27.601562 L 152.398438 24.601562 L 152.800781 21 L 152.398438 17 "/>
<path style=" stroke:none;fill-rule:nonzero;fill:rgb(98.039216%,68.627451%,23.137255%);fill-opacity:1;" d="M 154 33.601562 L 153.398438 35.800781 L 152.199219 37.398438 C 151.398438 39.535156 152.132812 41.464844 154.398438 43.199219 C 153.199219 43.066406 151.933594 42.535156 150.601562 41.601562 C 149.265625 40.667969 148.398438 39.601562 148 38.398438 C 147.601562 37.066406 148 35.800781 149.199219 34.601562 L 152.800781 32 L 153.398438 29.398438 L 153.398438 26.601562 L 155 29.601562 L 157.601562 31.398438 L 157.398438 34.398438 L 155.800781 36.601562 C 155.398438 37.800781 155.464844 39.933594 156 43 C 154.265625 42.066406 153.601562 40.734375 154 39 L 154.800781 33.800781 L 154 33.601562 "/>
<path style=" stroke:none;fill-rule:nonzero;fill:rgb(100%,90.196078%,58.039216%);fill-opacity:1;" d="M 159.398438 107.601562 C 163.535156 107.601562 166.933594 106.667969 169.601562 104.800781 L 175.800781 99.199219 L 180.601562 92.800781 C 183.667969 94.398438 184.933594 98.066406 184.398438 103.800781 L 182.601562 117 C 182.601562 124.867188 181.933594 130 180.601562 132.398438 L 176.199219 129.199219 L 175.601562 132.199219 C 175.066406 133.265625 174.265625 133.800781 173.199219 133.800781 L 169.199219 130.800781 L 164.800781 127.199219 L 162.199219 132.199219 L 159.199219 136.398438 L 156.199219 137 C 155.265625 136.199219 154.132812 135.535156 152.800781 135 C 150.265625 134.066406 147.800781 134.867188 145.398438 137.398438 C 142.601562 140.199219 140.265625 141.535156 138.398438 141.398438 C 137.464844 141.398438 136.265625 140.464844 134.800781 138.601562 L 130.800781 135.800781 C 129.867188 135.667969 128.734375 136.066406 127.398438 137 L 124 139 C 122 139.535156 120 138.933594 118 137.199219 C 115.734375 135.199219 113.800781 134.199219 112.199219 134.199219 L 107.601562 139.398438 C 105.464844 140.734375 103.398438 141.066406 101.398438 140.398438 L 96 137.199219 L 90.398438 136.199219 L 84.398438 139 C 82.667969 139.535156 80.933594 138.800781 79.199219 136.800781 C 77.332031 134.535156 75.667969 133.800781 74.199219 134.601562 C 71.800781 135.933594 69.933594 136.535156 68.601562 136.398438 C 67.398438 134.667969 66.066406 131.667969 64.601562 127.398438 L 63.398438 123.800781 L 61 121.800781 C 62.332031 126.867188 62 130.601562 60 133 L 57 135.199219 L 54.199219 133.398438 C 53.535156 131.933594 53.199219 128.265625 53.199219 122.398438 L 53.800781 117.398438 L 54.601562 112.398438 L 53.800781 108.601562 L 52.199219 105.398438 L 52.199219 101.199219 L 53.800781 97.601562 L 56.199219 94.601562 L 58 92 L 60 89.800781 C 59.601562 90.332031 59.734375 91.734375 60.398438 94 L 62.199219 98.398438 C 63.132812 99.332031 65.066406 100.066406 68 100.601562 L 79.800781 101.398438 L 91.601562 102.601562 L 112.800781 108.800781 C 121.332031 111.601562 129.398438 112.265625 137 110.800781 L 148.199219 108.800781 L 159.398438 107.601562 "/>
<path style=" stroke:none;fill-rule:nonzero;fill:rgb(96.470588%,81.176471%,12.941176%);fill-opacity:1;" d="M 179.800781 92.800781 L 180.601562 92.398438 L 181.398438 92.398438 C 185 96 186.398438 102.464844 185.601562 111.800781 C 185.199219 118.734375 183.800781 125.535156 181.398438 132.199219 L 180.601562 132.800781 L 179.601562 132.800781 L 176.398438 132.199219 L 173.800781 134 L 172.199219 134 C 168.066406 131.464844 165.667969 130.667969 165 131.601562 C 162.867188 134.398438 161 136.132812 159.398438 136.800781 L 157 137.800781 L 154.601562 136.800781 C 152.332031 135.464844 149.535156 135.867188 146.199219 138 C 142.199219 140.535156 139.535156 141.800781 138.199219 141.800781 C 136.199219 141.933594 134.464844 141.132812 133 139.398438 C 131.933594 138.066406 128.933594 138.066406 124 139.398438 C 122.398438 139.800781 120.132812 139.265625 117.199219 137.800781 L 110.199219 138 L 105.800781 140.601562 L 100.800781 140.800781 L 91.398438 140.199219 L 82.199219 139.601562 L 75.398438 137.601562 L 68.398438 136.800781 L 67.601562 136.601562 L 64.800781 129.398438 L 61.199219 123 C 62.265625 124.199219 62.800781 125.667969 62.800781 127.398438 L 61.199219 132.601562 L 57.800781 135.199219 L 56 135.398438 C 53.199219 133.667969 51.601562 128.332031 51.199219 119.398438 L 51.398438 101.601562 L 51.398438 101.398438 C 53 97.535156 55.667969 93.601562 59.398438 89.601562 L 60.398438 89.199219 C 61.066406 89.066406 61.332031 89.199219 61.199219 89.601562 C 60.265625 95.332031 66.265625 99.398438 79.199219 101.800781 L 106.601562 106 C 118.867188 110.132812 131.800781 111.265625 145.398438 109.398438 C 160.734375 107.398438 172.199219 101.867188 179.800781 92.800781 M 182.601562 99 L 176.601562 99.199219 L 170.398438 105 C 166.800781 107.933594 160.398438 109.867188 151.199219 110.800781 L 130.601562 112 C 125.800781 112.535156 119.601562 111.601562 112 109.199219 C 105.867188 107.199219 98.464844 105.535156 89.800781 104.199219 L 67.398438 101 C 65 100.601562 62.265625 98.265625 59.199219 94 C 58 92.132812 56 94.535156 53.199219 101.199219 C 53.199219 102.398438 53.667969 104.199219 54.601562 106.601562 C 55.398438 109 55.667969 110.867188 55.398438 112.199219 C 54.601562 117.398438 54.199219 122.601562 54.199219 127.800781 L 60.601562 121.398438 L 61.800781 121.398438 L 66.601562 130.199219 C 68.601562 134.066406 71.066406 135.398438 74 134.199219 L 77 134 L 83.199219 136.800781 L 90 135.800781 L 90.800781 135.601562 L 101.398438 138 C 105.667969 138.667969 108.933594 137.398438 111.199219 134.199219 L 112.800781 133.800781 L 125.601562 135.800781 C 129.867188 136.332031 133.601562 137.601562 136.800781 139.601562 C 138.933594 140.800781 147.933594 136.734375 163.800781 127.398438 L 164.601562 126.800781 L 165.601562 126.800781 L 170.601562 131 C 173.265625 132.734375 174.867188 132.199219 175.398438 129.398438 L 176.199219 128.800781 L 177.199219 128.800781 C 179.332031 130.398438 180.800781 128.066406 181.601562 121.800781 L 182.800781 108.800781 C 183.199219 104.535156 183.132812 101.265625 182.601562 99 "/>
<path style=" stroke:none;fill-rule:nonzero;fill:rgb(100%,90.196078%,58.039216%);fill-opacity:1;" d="M 139 163 L 149 160 L 159 157.800781 L 165.800781 158 L 172.398438 157.199219 C 176.398438 155.734375 180.800781 153 185.601562 149 L 189.800781 143.800781 C 191.667969 141.265625 193.464844 140.265625 195.199219 140.800781 C 197.601562 141.601562 199.066406 143.867188 199.601562 147.601562 L 199.800781 156.601562 L 201.398438 166 L 201.601562 172.199219 L 201.398438 178.199219 L 202.601562 182.800781 L 203 187.398438 L 201.601562 192.199219 C 201.332031 194.199219 201.667969 195.800781 202.601562 197 C 203.132812 197.667969 204.601562 198.464844 207 199.398438 C 209 200.066406 210.199219 201.132812 210.601562 202.601562 C 211 203.933594 210.398438 205.535156 208.800781 207.398438 L 206.601562 209.199219 L 204.398438 210.199219 L 201 213 L 198.398438 214 L 196 215 L 193.601562 214.800781 L 190.199219 215 L 186.800781 216.199219 L 185 216.199219 L 182.601562 216.601562 C 182.199219 216.464844 181.933594 216.066406 181.800781 215.398438 L 181.800781 214 L 184 212.398438 L 185.601562 209.601562 L 187.601562 207.800781 L 188.398438 205.601562 L 189.398438 200 C 189.667969 197.066406 189.398438 195.132812 188.601562 194.199219 C 187 192.332031 183.464844 191.199219 178 190.800781 C 175.867188 190.667969 173.535156 192 171 194.800781 C 168.332031 197.867188 166.132812 199.535156 164.398438 199.800781 L 159.398438 198.601562 L 154.601562 196.601562 C 152.332031 196.199219 149.535156 196.933594 146.199219 198.800781 L 139 202.800781 L 131.199219 202.398438 C 124.398438 199.601562 119.066406 199.066406 115.199219 200.800781 L 110 203.601562 C 108.132812 204.398438 106.332031 204.398438 104.601562 203.601562 L 100.398438 201.199219 L 96.199219 199 C 94.867188 198.601562 93.332031 198.601562 91.601562 199 L 87 199.800781 L 82.199219 199.199219 C 80.066406 198.800781 78.667969 199.066406 78 200 C 77.464844 200.667969 77.398438 201.867188 77.800781 203.601562 L 78.199219 207.398438 L 75.800781 209.601562 C 74.464844 210.535156 73.867188 211.332031 74 212 L 76.601562 214.199219 L 79.800781 215.601562 C 83.933594 217.066406 87.199219 217.800781 89.601562 217.800781 L 96.398438 219 C 101.332031 221 104.265625 222.800781 105.199219 224.398438 C 106 226 105.667969 227.132812 104.199219 227.800781 L 99.800781 228.398438 L 88.601562 227.398438 L 82.199219 226.800781 C 79.933594 225.066406 78.132812 224.066406 76.800781 223.800781 L 74.398438 223.601562 L 71.800781 223.398438 L 67.601562 222 L 65.199219 222 L 63.199219 220.601562 L 61.199219 216.800781 C 60.398438 214 60.734375 210.867188 62.199219 207.398438 C 63 205.398438 63.132812 202.867188 62.601562 199.800781 C 61.535156 195 59.464844 190.464844 56.398438 186.199219 L 52 182.398438 C 49.601562 181.199219 47.933594 181.601562 47 183.601562 L 47 187 L 48 190.398438 L 47.800781 198.199219 L 46.398438 201.199219 C 45.601562 202.265625 44.601562 202.667969 43.398438 202.398438 L 42.800781 200.601562 L 42.199219 198.800781 L 40.601562 197.800781 L 39 196.398438 C 37.265625 193.199219 37.667969 187.332031 40.199219 178.800781 C 41.265625 175.199219 41.265625 169.933594 40.199219 163 C 39.800781 158.867188 39.933594 155.199219 40.601562 152 C 42.464844 146.800781 43.066406 144.199219 42.398438 144.199219 L 46 144 L 49 145.398438 C 54.332031 149 60.199219 151.601562 66.601562 153.199219 C 70.734375 154.265625 75.332031 155.933594 80.398438 158.199219 L 87.199219 160 L 94.398438 160.199219 L 121.800781 163.398438 L 139 163 "/>
<path style=" stroke:none;fill-rule:nonzero;fill:rgb(96.470588%,81.176471%,12.941176%);fill-opacity:1;" d="M 128.800781 163.398438 L 142.398438 161.398438 L 159.601562 157.601562 C 170.265625 156.535156 177.398438 154.734375 181 152.199219 L 191.398438 141.398438 L 192.398438 141 C 197.867188 140.066406 200.667969 142.800781 200.800781 149.199219 C 200.800781 180.398438 202.601562 196.800781 206.199219 198.398438 C 209.132812 199.601562 210.800781 201.265625 211.199219 203.398438 C 211.464844 205.667969 210.199219 207.601562 207.398438 209.199219 C 203.398438 211.464844 199.332031 213.199219 195.199219 214.398438 L 182.398438 217 L 181.601562 217 C 180.535156 215.398438 181.464844 212.535156 184.398438 208.398438 C 187.734375 203.867188 189.066406 200.398438 188.398438 198 C 186.800781 191.464844 183.199219 189.601562 177.601562 192.398438 L 164.398438 200.199219 C 161.332031 201 159.265625 200.199219 158.199219 197.800781 C 157.398438 195.667969 151.933594 197 141.800781 201.800781 L 139.199219 203 L 135.800781 203.601562 C 129.667969 202.667969 120.933594 202.800781 109.601562 204 L 98.398438 202.398438 C 93.464844 200.933594 89.464844 200.199219 86.398438 200.199219 C 83.332031 200.199219 80.800781 202.398438 78.800781 206.800781 C 76.667969 211.199219 77.332031 214 80.800781 215.199219 L 95.601562 218 C 102.535156 219.734375 106.066406 222.667969 106.199219 226.800781 L 106 227 C 101.199219 229.667969 93.734375 230.132812 83.601562 228.398438 C 74.398438 226.800781 67.332031 224.332031 62.398438 221 C 60.398438 219.667969 59.535156 217.535156 59.800781 214.601562 L 61.199219 207.601562 C 62.398438 201.601562 61.265625 195.933594 57.800781 190.601562 C 55.800781 183 52.535156 181.667969 48 186.601562 L 49.199219 195.800781 C 48.800781 199 47.066406 201.265625 44 202.601562 L 42.398438 202.800781 L 38.398438 196 C 36.933594 194 36.535156 191.332031 37.199219 188 L 39.199219 175.601562 L 39.398438 163.199219 C 39.132812 160.800781 39.398438 157.667969 40.199219 153.800781 L 41.398438 144.398438 C 41.398438 144 41.933594 143.800781 43 143.800781 C 45.535156 143.667969 47.667969 144.066406 49.398438 145 L 55.398438 148.398438 C 63.132812 151.867188 70.332031 154.535156 77 156.398438 L 92 159.601562 L 95.199219 159.800781 L 109 161.398438 L 122.601562 163 L 123.601562 163.199219 L 128.800781 163.398438 "/>
</g>
</svg>
