<?xml version="1.0" encoding="UTF-8"?>
<svg xmlns="http://www.w3.org/2000/svg" xmlns:xlink="http://www.w3.org/1999/xlink" width="40pt" height="36pt" viewBox="0 0 40 36" version="1.1">
<g id="surface1">
<path style=" stroke:none;fill-rule:nonzero;fill:rgb(52.156863%,52.941176%,53.72549%);fill-opacity:1;" d="M 34.601562 17.199219 C 34.601562 21.734375 33 25.535156 29.800781 28.601562 C 26.601562 31.800781 22.734375 33.398438 18.199219 33.398438 C 13.667969 33.398438 9.867188 31.800781 6.800781 28.601562 C 3.601562 25.535156 2 21.734375 2 17.199219 C 2 12.667969 3.601562 8.800781 6.800781 5.601562 C 9.867188 2.398438 13.667969 0.800781 18.199219 0.800781 C 22.734375 0.800781 26.601562 2.398438 29.800781 5.601562 C 33 8.800781 34.601562 12.667969 34.601562 17.199219 "/>
<path style=" stroke:none;fill-rule:nonzero;fill:rgb(30.196078%,29.803922%,30.588235%);fill-opacity:1;" d="M 28.800781 7.398438 C 26.132812 4.199219 23 2.535156 19.398438 2.398438 C 15.265625 2.132812 11.601562 3.398438 8.398438 6.199219 C 5.199219 9.132812 3.734375 12.734375 4 17 C 4.132812 20.734375 5.398438 24.066406 7.800781 27 C 10.332031 30.199219 13.464844 31.867188 17.199219 32 C 21.601562 32.132812 25.265625 30.800781 28.199219 28 C 30.867188 25.199219 32.332031 21.667969 32.601562 17.398438 C 32.332031 13.667969 31.066406 10.332031 28.800781 7.398438 M 36.398438 17.601562 C 36.132812 22.398438 34.265625 26.398438 30.800781 29.601562 C 27.332031 32.800781 23.066406 34.535156 18 34.800781 C 13.199219 35.066406 8.933594 33.398438 5.199219 29.800781 C 1.464844 26.199219 -0.265625 22.066406 0 17.398438 C 0.667969 5.933594 6.734375 0.132812 18.199219 0 C 29.667969 -0.265625 35.734375 5.199219 36.398438 16.398438 L 36.398438 17.601562 "/>
<path style=" stroke:none;fill-rule:nonzero;fill:rgb(21.568627%,20.784314%,20.784314%);fill-opacity:1;" d="M 25.398438 11 L 24 8.199219 C 25.199219 8.066406 26.132812 9.066406 26.800781 11.199219 L 27.199219 13 L 27 14.199219 L 26.199219 14.601562 L 25.398438 11 "/>
<path style=" stroke:none;fill-rule:nonzero;fill:rgb(21.568627%,20.784314%,20.784314%);fill-opacity:1;" d="M 28.601562 11.601562 L 27.800781 9 L 29.800781 11.199219 L 31 14.398438 L 30.601562 15.398438 L 30 15 L 28.601562 11.601562 "/>
<path style=" stroke:none;fill-rule:nonzero;fill:rgb(82.352941%,83.137255%,83.529412%);fill-opacity:1;" d="M 9.601562 24.601562 C 9.199219 23.398438 9.464844 22.601562 10.398438 22.199219 C 11.734375 21.667969 12.601562 22.265625 13 24 C 13.398438 25.867188 12.867188 26.667969 11.398438 26.398438 C 10.601562 26.265625 10 25.667969 9.601562 24.601562 "/>
</g>
</svg>
