<?xml version="1.0" encoding="UTF-8"?>
<svg xmlns="http://www.w3.org/2000/svg" xmlns:xlink="http://www.w3.org/1999/xlink" width="164pt" height="324pt" viewBox="0 0 164 324" version="1.1">
<g id="surface1">
<path style=" stroke:none;fill-rule:nonzero;fill:rgb(45.098039%,45.882353%,46.666667%);fill-opacity:1;" d="M 109.199219 153.398438 L 56.199219 287 C 54.464844 292.199219 52.398438 295.398438 50 296.601562 L 41.601562 295.601562 L 29 291.398438 C 23.933594 289.800781 19.933594 287.933594 17 285.800781 C 12.199219 282.199219 10.398438 278.066406 11.601562 273.398438 C 12.265625 270.601562 30.132812 225.867188 65.199219 139.199219 C 100.398438 52 118.800781 7.199219 120.398438 4.800781 L 124.601562 3.601562 C 128.332031 2.265625 131.867188 1.601562 135.199219 1.601562 C 140.132812 1.464844 144.933594 2.933594 149.601562 6 C 154.132812 8.800781 157.464844 12.398438 159.601562 16.800781 L 161.199219 20.601562 L 109.199219 153.398438 "/>
<path style=" stroke:none;fill-rule:nonzero;fill:rgb(30.196078%,29.803922%,30.588235%);fill-opacity:1;" d="M 163.199219 20.398438 L 163 21.199219 C 161.800781 26.933594 159.464844 34 156 42.398438 L 146.800781 63.601562 L 109.601562 157.398438 L 83.199219 222 C 72.667969 247.601562 64.332031 269.265625 58.199219 287 C 56.464844 291.933594 54.332031 295.199219 51.800781 296.800781 L 40.601562 297 C 31.667969 294.601562 24.800781 292.199219 20 289.800781 C 11.066406 285.398438 7.601562 279.933594 9.601562 273.398438 C 11.332031 267.800781 13.800781 261.066406 17 253.199219 L 25.398438 233.398438 L 95.800781 59.199219 C 106.601562 32.265625 113.800781 14.867188 117.398438 7 C 118.601562 4.199219 121.199219 2.332031 125.199219 1.398438 L 135.398438 0.199219 C 141.265625 -0.464844 146.933594 1.332031 152.398438 5.601562 C 157.066406 9.332031 160.601562 13.933594 163 19.398438 L 163.199219 20 L 163.199219 20.398438 M 121 7.398438 L 117.398438 16 C 101.667969 53.332031 80.132812 106.265625 52.800781 174.800781 L 14.199219 271.199219 C 11.132812 279.601562 16.332031 286.265625 29.800781 291.199219 C 43.132812 296.132812 51.464844 294.332031 54.800781 285.800781 L 81.601562 217.398438 L 108.800781 149.398438 L 143 63.199219 L 152 42.199219 C 155.601562 33.800781 158 26.800781 159.199219 21.199219 C 156.398438 14.535156 150.332031 8.867188 141 4.199219 C 130.867188 -0.867188 124.199219 0.199219 121 7.398438 "/>
<path style=" stroke:none;fill-rule:nonzero;fill:rgb(52.156863%,52.941176%,53.72549%);fill-opacity:1;" d="M 100 176 L 47.199219 309.601562 C 45.464844 314.800781 43.398438 317.933594 41 319 L 32.601562 318.199219 L 20 314 C 14.800781 312.398438 10.800781 310.535156 8 308.398438 C 3.066406 304.933594 1.199219 300.800781 2.398438 296 C 3.066406 293.332031 20.933594 248.601562 56 161.800781 C 91.332031 74.601562 109.734375 29.800781 111.199219 27.398438 L 115.601562 26.199219 C 119.199219 24.867188 122.667969 24.199219 126 24.199219 C 131.066406 24.066406 135.933594 25.535156 140.601562 28.601562 C 145.132812 31.398438 148.464844 35 150.601562 39.398438 L 152 43.199219 L 100 176 "/>
<path style=" stroke:none;fill-rule:nonzero;fill:rgb(37.647059%,38.039216%,38.823529%);fill-opacity:1;" d="M 126.199219 22.800781 C 132.066406 22.132812 137.734375 23.933594 143.199219 28.199219 C 147.867188 31.800781 151.398438 36.398438 153.800781 42 L 154 42.601562 L 154 43.601562 C 152.667969 49.332031 150.265625 56.464844 146.800781 65 L 137.601562 86.199219 L 100.398438 180 L 74 244.601562 C 63.332031 270.464844 55 292.132812 49 309.601562 C 47.398438 314.535156 45.265625 317.800781 42.601562 319.398438 C 39.800781 321 36.066406 321 31.398438 319.398438 C 22.464844 317 15.601562 314.667969 10.800781 312.398438 C 2 308.132812 -1.398438 302.667969 0.601562 296 L 8 275.800781 L 16.199219 255.800781 L 86.601562 81.800781 L 108.199219 29.601562 C 109.535156 26.800781 112.132812 24.933594 116 24 L 126.199219 22.800781 M 132 26.800781 C 121.734375 21.734375 115.066406 22.800781 112 30 L 108.199219 38.398438 L 43.601562 197.199219 L 13 273.800781 L 5.199219 293.800781 C 2.132812 302.199219 7.265625 308.867188 20.601562 313.800781 C 33.933594 318.734375 42.265625 316.867188 45.601562 308.199219 L 99.800781 172 L 134 85.601562 L 143 64.800781 C 146.601562 56.398438 149 49.332031 150.199219 43.601562 C 147.398438 37.066406 141.332031 31.464844 132 26.800781 "/>
</g>
</svg>
