<?xml version="1.0" encoding="UTF-8"?>
<svg xmlns="http://www.w3.org/2000/svg" xmlns:xlink="http://www.w3.org/1999/xlink" width="260pt" height="404pt" viewBox="0 0 260 404" version="1.1">
<g id="surface1">
<path style=" stroke:none;fill-rule:nonzero;fill:rgb(0%,0%,0%);fill-opacity:1;" d="M 169.601562 142 L 169.601562 147.800781 L 169.199219 148.601562 L 167.800781 148.601562 L 169.601562 142 "/>
<path style=" stroke:none;fill-rule:nonzero;fill:rgb(100%,100%,100%);fill-opacity:1;" d="M 100 236 L 170.199219 236 L 170.199219 394.601562 L 100 394.601562 L 100 236 "/>
<path style=" stroke:none;fill-rule:nonzero;fill:rgb(0%,0%,0%);fill-opacity:1;" d="M 101.601562 234.199219 L 172 234.199219 C 173.464844 234.199219 174.199219 234.464844 174.199219 235 L 174.199219 393.601562 C 174.199219 394.800781 172.933594 395.667969 170.398438 396.199219 L 167.199219 396.398438 L 98.398438 396.398438 C 96.933594 396.398438 96.199219 396.132812 96.199219 395.601562 L 96.199219 237 C 96.199219 236.066406 96.933594 235.332031 98.398438 234.800781 L 101.601562 234.199219 M 110.601562 393 L 166.398438 393 L 166.398438 237.199219 L 159.800781 237.601562 L 103.800781 237.601562 L 103.800781 393.601562 L 110.601562 393 "/>
<path style=" stroke:none;fill-rule:nonzero;fill:rgb(80%,80%,80%);fill-opacity:1;" d="M 95.199219 240.800781 L 165.398438 240.800781 L 165.398438 399.601562 L 95.199219 399.601562 L 95.199219 240.800781 "/>
<path style=" stroke:none;fill-rule:nonzero;fill:rgb(0%,0%,0%);fill-opacity:1;" d="M 93.398438 238.800781 L 96.601562 238.199219 L 166.800781 238.199219 C 168.535156 238.199219 169.398438 238.933594 169.398438 240.398438 L 169.398438 399.199219 C 169.398438 400.800781 168.132812 401.734375 165.601562 402 L 93.800781 402 C 92.066406 402 91.199219 401.265625 91.199219 399.800781 L 91.199219 241.199219 C 91.199219 240.265625 91.933594 239.464844 93.398438 238.800781 M 99 397 L 161.601562 397 L 161.601562 243.398438 L 99 243.398438 L 99 397 "/>
<path style=" stroke:none;fill-rule:nonzero;fill:rgb(100%,100%,0%);fill-opacity:1;" d="M 153.800781 9 L 156.199219 12.800781 C 161.535156 20.933594 166.667969 30.933594 171.601562 42.800781 L 182.800781 72.601562 L 183.199219 73.199219 L 185.199219 79 L 185.601562 79.601562 L 189.398438 89.800781 C 194.332031 85.535156 200.265625 83.398438 207.199219 83.398438 L 211.800781 83.398438 C 218.734375 83.398438 224.265625 86.398438 228.398438 92.398438 L 230.800781 96.199219 C 237.332031 106.199219 243.933594 121 250.601562 140.601562 L 250.800781 141 L 252 144.199219 L 252.398438 144.800781 L 252.398438 145.199219 C 254.933594 151.332031 256.464844 156.601562 257 161 C 257.933594 168.867188 256.332031 176.066406 252.199219 182.601562 L 251.800781 183.199219 L 250.398438 192.398438 C 252.800781 195.601562 254 199.398438 254 203.800781 L 254 239.601562 L 254.601562 255.398438 L 254.601562 256.601562 C 255.132812 271.933594 255.132812 283 254.601562 289.800781 L 254 297.398438 C 253.734375 302.464844 251.800781 306.734375 248.199219 310.199219 C 244.464844 313.800781 240.066406 315.667969 235 315.800781 L 227.398438 316 L 174 317 L 82.199219 317 L 27.398438 316 L 19.800781 315.800781 C 14.601562 315.667969 10.199219 313.800781 6.601562 310.199219 C 2.867188 306.601562 0.867188 302.265625 0.601562 297.199219 L 0.199219 289.398438 C -0.332031 281.398438 0.332031 271.398438 2.199219 259.398438 L 3.601562 246.800781 L 3.800781 227 L 3.398438 203.800781 C 3.398438 198.066406 5.464844 193.265625 9.601562 189.398438 L 9 180.199219 C 6.867188 176.734375 5.535156 173 5 169 L 4.800781 168.601562 L 4.800781 168 C 4 162.132812 4.667969 156.332031 6.800781 150.601562 C 7.867188 147.265625 9.933594 143.132812 13 138.199219 L 15.601562 133.398438 L 15.800781 132.800781 L 17 130.398438 L 19 125.199219 C 20.332031 120.398438 21.867188 116.199219 23.601562 112.601562 L 30.199219 102.199219 C 34.332031 95.933594 37.867188 91.667969 40.800781 89.398438 C 45.464844 85.398438 51.199219 83.398438 58 83.398438 L 62.601562 83.398438 C 65.933594 83.398438 69.066406 84.199219 72 85.800781 C 73.734375 81.265625 76.734375 75.199219 81 67.601562 L 81.199219 67 L 85 59.800781 L 85.398438 59.199219 L 88.398438 50.601562 C 91.066406 43.132812 93.132812 37.800781 94.601562 34.601562 L 103 21.199219 C 108.332031 13.464844 112.398438 8.398438 115.199219 6 C 119.867188 2 125.667969 0 132.601562 0 L 137.199219 0 C 144.132812 0 149.667969 3 153.800781 9 "/>
<path style=" stroke:none;fill-rule:nonzero;fill:rgb(0%,0%,0%);fill-opacity:1;" d="M 132.601562 11.398438 L 137.199219 11.398438 C 140.132812 11.398438 142.464844 12.667969 144.199219 15.199219 L 146.800781 19 C 154.667969 30.734375 163.132812 49.867188 172.199219 76.398438 L 172.398438 77.199219 L 174.800781 83.199219 L 175.199219 84 C 177.734375 90.535156 179.265625 95.535156 179.800781 99 C 180.734375 105.265625 179.667969 110.800781 176.601562 115.601562 L 172.601562 120.199219 L 172.601562 124.199219 C 172.464844 129.933594 171.265625 136.601562 169 144.199219 L 167.800781 148.601562 L 169.199219 148.601562 L 169.601562 147.800781 C 169.867188 145.265625 171 143.199219 173 141.601562 L 175.398438 137.199219 L 176 135.800781 L 176.398438 135.199219 L 178.800781 128.800781 L 183 117.601562 L 188.800781 108.398438 C 192.398438 103.332031 195.066406 100 196.800781 98.398438 C 199.601562 96 203.066406 94.800781 207.199219 94.800781 L 211.800781 94.800781 C 214.734375 94.800781 217.066406 96.066406 218.800781 98.601562 L 221.398438 102.398438 C 226.867188 110.667969 233.066406 124.667969 240 144.398438 L 240.199219 144.800781 L 242 149.601562 L 245.800781 161.800781 C 246.464844 167.265625 245.398438 172.132812 242.601562 176.398438 L 240.601562 179.199219 L 240.601562 180 C 240.464844 184.667969 239.535156 189.867188 237.800781 195.601562 L 237.601562 196 C 241.066406 197.601562 242.800781 200.199219 242.800781 203.800781 L 243.199219 257 L 243.398438 289 L 242.800781 296.601562 C 242.667969 298.734375 241.800781 300.535156 240.199219 302 C 238.601562 303.464844 236.734375 304.265625 234.601562 304.398438 L 227 304.800781 L 174 305.601562 L 142.800781 305.398438 L 141.800781 305.199219 L 101.199219 305.398438 L 100.800781 305.601562 L 82 305.601562 L 27.800781 304.800781 L 20.199219 304.398438 C 18.066406 304.398438 16.199219 303.601562 14.601562 302 C 13 300.535156 12.132812 298.667969 12 296.398438 L 11.398438 288.800781 C 11 282.667969 11.667969 273.398438 13.398438 261 L 15 247.398438 L 15 226.199219 L 14.800781 203.800781 C 14.800781 201.535156 15.601562 199.601562 17.199219 198 C 18.667969 196.398438 20.535156 195.535156 22.800781 195.398438 L 22.199219 193 C 20.734375 188.464844 20.132812 183.066406 20.398438 176.800781 C 18.132812 174 16.734375 170.734375 16.199219 167 L 16 166.398438 C 15.464844 162.398438 16 158.265625 17.601562 154 L 22.601562 144.199219 L 26.199219 137.398438 L 26.398438 136.800781 L 27 135.800781 L 29.800781 128.601562 L 33.800781 117.601562 L 39.601562 108.398438 L 47.601562 98.398438 C 50.398438 96 53.867188 94.800781 58 94.800781 L 62.601562 94.800781 C 65.667969 94.800781 68.066406 96.066406 69.800781 98.601562 L 72.199219 102.398438 C 76.867188 109.464844 81.867188 120 87.199219 134 C 86.667969 130.398438 86.535156 124.867188 86.800781 117.398438 C 83.332031 113.667969 81.199219 109.535156 80.398438 105 L 80.199219 104 C 79.800781 99.601562 80.601562 94.800781 82.601562 89.601562 C 84.066406 85.867188 86.800781 80.398438 90.800781 73.199219 L 91.199219 72.601562 L 94.398438 66.800781 L 94.398438 66.398438 L 95 65.199219 L 95.199219 64.601562 L 99.199219 54.199219 L 104.800781 39.601562 L 112.398438 27.601562 L 122 15 C 124.667969 12.601562 128.199219 11.398438 132.601562 11.398438 "/>
<path style=" stroke:none;fill-rule:nonzero;fill:rgb(100%,100%,100%);fill-opacity:1;" d="M 112.398438 43.398438 L 119.601562 32.398438 L 127 22 C 128.332031 20.667969 130.199219 20 132.601562 20 L 137.199219 20 L 139.601562 23.800781 C 144.398438 30.867188 149.066406 39.933594 153.601562 51 L 164.199219 79.199219 L 164.398438 80 L 167.199219 87.199219 L 171.398438 99.398438 C 172.066406 103.933594 171.398438 107.800781 169.398438 111 L 164 115.800781 L 164 124 C 164 128.132812 162.933594 134.132812 160.800781 142 C 158.933594 148.933594 158.066406 153.800781 158.199219 156.601562 L 158.199219 157 L 174.800781 157 L 178.199219 150 L 178.199219 148.398438 L 179 148.398438 L 183.398438 140.398438 L 183.601562 139.800781 L 183.800781 139.398438 L 187 131.199219 L 190.601562 121.398438 L 195.800781 113.199219 L 201.800781 105.398438 C 203.265625 104.066406 205.066406 103.398438 207.199219 103.398438 L 211.800781 103.398438 L 214.199219 107.199219 C 219.535156 114.933594 225.464844 128.265625 232 147.199219 L 232.199219 147.601562 L 234.199219 152.800781 L 237.199219 162.199219 C 237.734375 165.933594 237.132812 169.132812 235.398438 171.800781 L 232 175.398438 L 232 179.800781 C 232 183.535156 231.199219 188.066406 229.601562 193.398438 C 228.398438 197.535156 227.800781 200.734375 227.800781 203 L 227.800781 203.800781 L 234.199219 203.800781 L 234.199219 239.601562 C 234.199219 245.734375 234.398438 251.667969 234.800781 257.398438 C 235.332031 270.867188 235.332031 281.199219 234.800781 288.398438 L 234.398438 296 L 226.601562 296.199219 L 174 297.199219 L 82 297.199219 L 28.199219 296.199219 L 20.398438 296 L 20 288.199219 C 19.601562 281.933594 20.199219 273.265625 21.800781 262.199219 L 23.398438 248 L 23.601562 225.800781 L 23.398438 203.800781 L 33 203.800781 L 33 201.199219 L 30.199219 190.199219 C 29.132812 186.734375 28.734375 181.667969 29 175 L 29.199219 173.601562 C 26.535156 171.332031 24.933594 168.667969 24.398438 165.601562 L 24.398438 165 C 23.867188 161.398438 25 157.132812 27.800781 152.199219 L 34.199219 140.398438 L 34.398438 139.800781 L 34.601562 139.398438 L 37.800781 131.199219 C 39.132812 126.933594 40.398438 123.667969 41.601562 121.398438 L 46.800781 113.199219 L 52.800781 105.398438 C 54.132812 104.066406 55.867188 103.398438 58 103.398438 L 62.601562 103.398438 L 65.199219 107.199219 C 70.398438 114.933594 76.265625 128.265625 82.800781 147.199219 L 83 147.601562 L 86.800781 157 L 100.800781 157 L 100.800781 153.800781 C 100.667969 150.734375 99.332031 145.332031 96.800781 137.601562 C 95.464844 133.464844 94.933594 126.667969 95.199219 117.199219 L 95.398438 113.601562 C 91.800781 111.066406 89.601562 107.667969 88.800781 103.398438 L 88.800781 103 C 88.398438 99.800781 89.132812 96 91 91.601562 L 98.199219 77.398438 L 102.199219 69.800781 L 102.398438 69.199219 L 102.800781 68.800781 L 107.398438 56.601562 C 109.535156 50.199219 111.199219 45.800781 112.398438 43.398438 "/>
<path style=" stroke:none;fill-rule:nonzero;fill:rgb(80%,80%,80%);fill-opacity:1;" d="M 133.199219 91.800781 L 140.601562 91.800781 L 140.601562 99.800781 L 148 99.800781 L 148 91.800781 L 155.398438 91.800781 L 155.601562 123.800781 C 155.601562 127.667969 154.535156 133.132812 152.398438 140.199219 C 150.535156 147.132812 149.601562 152.667969 149.601562 156.800781 L 150 178.601562 L 149 239.800781 C 149 243.800781 148.734375 246.464844 148.199219 247.800781 C 147.667969 249.132812 145.800781 249.867188 142.601562 250 L 135.398438 250 C 128.332031 249.601562 123 249.667969 119.398438 250.199219 C 114.601562 250.734375 111.933594 246.867188 111.398438 238.601562 L 111.800781 219.398438 L 110.199219 199.199219 L 109.199219 178.800781 L 109.199219 153 L 104.800781 135 C 103.867188 131.933594 103.535156 126.132812 103.800781 117.601562 L 103.601562 91.800781 L 111 91.800781 L 111 99.800781 L 118.398438 99.800781 L 118.398438 91.800781 L 125.800781 91.800781 L 125.800781 99.800781 L 133.199219 99.800781 L 133.199219 91.800781 "/>
<path style=" stroke:none;fill-rule:nonzero;fill:rgb(70.196078%,70.196078%,70.196078%);fill-opacity:1;" d="M 103.800781 90.398438 L 111.199219 90.398438 C 112.398438 90.398438 113 90.867188 113 91.800781 C 113 95.800781 113.601562 97.867188 114.800781 98 C 116 98.132812 116.601562 96.132812 116.601562 92 C 116.601562 90.933594 117.265625 90.398438 118.601562 90.398438 L 126 90.398438 C 127.199219 90.398438 127.800781 90.867188 127.800781 91.800781 C 127.800781 95.535156 128.398438 97.464844 129.601562 97.601562 C 130.800781 97.867188 131.398438 96 131.398438 92 C 131.398438 90.933594 132.066406 90.398438 133.398438 90.398438 L 140.800781 90.398438 L 142.601562 91.800781 C 142.601562 95.667969 143.199219 97.667969 144.398438 97.800781 C 145.601562 97.933594 146.199219 96 146.199219 92 C 146.199219 90.933594 146.867188 90.398438 148.199219 90.398438 L 155.601562 90.398438 C 156.800781 90.398438 157.398438 90.867188 157.398438 91.800781 L 157.398438 111.199219 C 157.535156 117.734375 156.601562 127.132812 154.601562 139.398438 C 152.734375 151.800781 151.800781 161.199219 151.800781 167.601562 L 151.601562 214.800781 L 152.398438 232 C 152.535156 240.667969 151.667969 246.132812 149.800781 248.398438 C 147.667969 251.066406 143.667969 252.332031 137.800781 252.199219 L 124.601562 251.398438 L 115 250.601562 C 112.066406 249.535156 110.398438 247 110 243 L 108.800781 221.199219 L 108.199219 199.199219 L 107.800781 169 C 107.535156 156.867188 106.265625 147 104 139.398438 C 102.132812 133.132812 101.199219 125.332031 101.199219 116 L 101.800781 92 C 101.800781 90.933594 102.464844 90.398438 103.800781 90.398438 "/>
<path style=" stroke:none;fill-rule:nonzero;fill:rgb(92.54902%,10.980392%,14.117647%);fill-opacity:1;" d="M 115.199219 60 L 120 47.199219 L 132.601562 28.398438 C 137.132812 35.332031 141.601562 44.132812 146 54.800781 L 156.398438 82.800781 L 163.199219 102 C 163.601562 107.199219 159.265625 110 150.199219 110.398438 L 120.199219 111 C 105.800781 110.464844 98.132812 107.464844 97.199219 102 C 96.933594 99.199219 98.734375 94.199219 102.601562 87 L 110.199219 72.800781 L 115.199219 60 "/>
<path style=" stroke:none;fill-rule:nonzero;fill:rgb(76.078431%,15.294118%,17.647059%);fill-opacity:1;" d="M 122 50 L 112.199219 72.398438 L 106.601562 83 C 104.066406 87.398438 102.265625 90.933594 101.199219 93.601562 C 97.199219 103.601562 103.199219 109.066406 119.199219 110 L 143.800781 109.601562 L 154 109 C 158.535156 108.199219 160.867188 106.734375 161 104.601562 C 161.132812 101.265625 160.332031 97.734375 158.601562 94 L 147.199219 63.199219 L 138.601562 45.800781 C 134.199219 36.464844 132.667969 30.800781 134 28.800781 C 129.867188 34.535156 125.867188 41.601562 122 50 M 130.800781 28.398438 L 132.601562 27.398438 L 134.398438 27.601562 C 141.199219 38.667969 147.398438 51.867188 153 67.199219 L 159.398438 82.800781 C 162.199219 89.332031 163.933594 94.734375 164.601562 99 C 165.535156 103.933594 164.066406 107.332031 160.199219 109.199219 C 157.535156 110.535156 153.265625 111.332031 147.398438 111.601562 L 122.800781 112.800781 C 113.066406 112.667969 105.199219 111 99.199219 107.800781 C 94.265625 105.265625 93.933594 99.535156 98.199219 90.601562 L 108.199219 73 L 118 49.800781 C 121.734375 41 126 33.867188 130.800781 28.398438 "/>
<path style=" stroke:none;fill-rule:nonzero;fill:rgb(60%,60%,60%);fill-opacity:1;" d="M 120.199219 127.601562 L 120 138 C 120 140.667969 119.601562 142.332031 118.800781 143 L 116.199219 143.398438 L 114.601562 140.601562 L 114 138 L 114 117.398438 L 119.800781 117.199219 L 120.199219 127.601562 "/>
<path style=" stroke:none;fill-rule:nonzero;fill:rgb(60%,60%,60%);fill-opacity:1;" d="M 127.800781 117.199219 L 133.398438 117.199219 L 132.800781 140.199219 L 131.800781 143.800781 C 131 144.867188 130.066406 145.199219 129 144.800781 C 127.800781 144.398438 127.132812 143.398438 127 141.800781 L 127.199219 137.601562 C 127.199219 127.332031 127.398438 120.535156 127.800781 117.199219 "/>
<path style=" stroke:none;fill-rule:nonzero;fill:rgb(60%,60%,60%);fill-opacity:1;" d="M 141.199219 121.601562 L 141.398438 117.800781 C 141.800781 117 142.800781 116.667969 144.398438 116.800781 L 147.800781 117.398438 L 148 132.398438 L 147.199219 141.800781 L 146.398438 143.601562 L 144.601562 143.800781 L 142 142.800781 C 141.066406 141.734375 140.667969 139.265625 140.800781 135.398438 L 141.199219 127.398438 L 141.199219 121.601562 "/>
<path style=" stroke:none;fill-rule:nonzero;fill:rgb(70.196078%,70.196078%,70.196078%);fill-opacity:1;" d="M 111.199219 161.199219 C 110.933594 158.933594 110.199219 156.933594 109 155.199219 L 115.398438 160 L 119.398438 164.199219 C 121.265625 166.332031 124 167.535156 127.601562 167.800781 C 131.199219 168.066406 134.535156 167.398438 137.601562 165.800781 L 143.601562 161.398438 L 150.199219 157.398438 L 149.398438 163.398438 L 148.199219 165.601562 L 147.398438 167.601562 L 147.601562 171.601562 C 147.464844 173.601562 145.398438 175.398438 141.398438 177 L 127 178.199219 L 114.199219 176.601562 L 112.199219 176.398438 L 111 175.601562 C 110.332031 174.535156 110.132812 173.132812 110.398438 171.398438 L 111.199219 167.199219 L 111.199219 161.199219 "/>
<path style=" stroke:none;fill-rule:nonzero;fill:rgb(80%,80%,80%);fill-opacity:1;" d="M 191.800781 157 L 191.800781 162.601562 L 197.199219 162.601562 L 197.199219 157 L 202.398438 157 L 202.398438 162.601562 L 207.601562 162.601562 L 207.601562 157 L 213 157 L 213 162.601562 L 218.199219 162.601562 L 218.199219 157 L 223.398438 157 L 223.601562 179.601562 C 223.601562 182.398438 222.867188 186.332031 221.398438 191.398438 C 220.066406 196.332031 219.398438 200.265625 219.398438 203.199219 L 219.601562 218.800781 L 219 229.800781 L 218.398438 235.601562 C 218 236.667969 216.667969 237.265625 214.398438 237.398438 L 209.199219 237.199219 L 200.398438 238 C 196.667969 237.867188 194.199219 236.734375 193 234.601562 L 192.398438 231 L 192.800781 227.199219 L 191.601562 220.800781 L 190.199219 214.398438 L 190.398438 207.398438 L 190.601562 200.398438 C 190.332031 197.199219 189.265625 192.933594 187.398438 187.601562 C 186.867188 186 186.601562 181.867188 186.601562 175.199219 L 186.601562 157 L 191.800781 157 "/>
<path style=" stroke:none;fill-rule:nonzero;fill:rgb(70.196078%,70.196078%,70.196078%);fill-opacity:1;" d="M 185.398438 156 C 185.933594 155.601562 186.398438 155.398438 186.800781 155.398438 L 192 155.398438 C 193.199219 155.398438 193.800781 155.867188 193.800781 156.800781 C 193.800781 159.464844 194.066406 160.867188 194.601562 161 L 195.199219 157 L 196 156 C 196.535156 155.601562 197 155.398438 197.398438 155.398438 L 202.601562 155.398438 C 203.800781 155.398438 204.398438 155.867188 204.398438 156.800781 C 204.398438 159.464844 204.667969 160.867188 205.199219 161 L 205.800781 157 C 205.800781 155.933594 206.464844 155.398438 207.800781 155.398438 L 213 155.398438 C 214.332031 155.398438 215 155.867188 215 156.800781 C 215 159.464844 215.199219 160.867188 215.601562 161 L 216.199219 157 L 217 156 C 217.535156 155.601562 218 155.398438 218.398438 155.398438 L 223.601562 155.398438 C 224.800781 155.398438 225.398438 155.867188 225.398438 156.800781 L 225.398438 170.601562 C 225.535156 174.734375 224.867188 180.734375 223.398438 188.601562 C 222.066406 196.601562 221.398438 202.601562 221.398438 206.601562 L 221 226.398438 C 220.601562 232.667969 219.066406 236.535156 216.398438 238 L 202.199219 239.398438 L 196.199219 238.800781 C 194.066406 238.265625 192.398438 237.132812 191.199219 235.398438 C 190.667969 234.734375 190.332031 232.535156 190.199219 228.800781 L 190.199219 223.398438 L 188.199219 214.601562 C 188.199219 206.332031 187.066406 196.199219 184.800781 184.199219 C 184.132812 180.867188 183.933594 176.332031 184.199219 170.601562 L 184.601562 157 L 185.398438 156 M 211 162.601562 L 210.398438 158.199219 C 209.867188 158.066406 209.601562 159.464844 209.601562 162.398438 C 209.601562 163.464844 208.933594 164 207.601562 164 L 202.199219 164 C 201 164 200.398438 163.535156 200.398438 162.601562 L 199.800781 158.199219 C 199.398438 158.066406 199.199219 159.464844 199.199219 162.398438 C 199.199219 163.464844 198.464844 164 197 164 L 191.800781 164 C 190.601562 164 190 163.535156 190 162.601562 L 189.800781 160.199219 C 189.667969 159 189.867188 158.398438 190.398438 158.398438 C 188.667969 158.398438 187.867188 159.199219 188 160.800781 L 188.800781 166 L 188.601562 178 C 188.734375 182.535156 189.265625 186.464844 190.199219 189.800781 L 192.601562 216.398438 C 194.332031 230.265625 197.601562 236.933594 202.398438 236.398438 L 212.601562 235.800781 C 215.132812 235.667969 216.601562 234.535156 217 232.398438 L 217.199219 226.601562 L 217.601562 215.199219 C 217.601562 210.132812 218.265625 202.734375 219.601562 193 C 221.066406 183.398438 221.734375 176.066406 221.601562 171 L 221.601562 158.601562 C 221.601562 157.667969 221.398438 157.734375 221 158.800781 L 220.199219 162.398438 C 220.199219 163.464844 219.464844 164 218 164 L 212.800781 164 C 211.601562 164 211 163.535156 211 162.601562 "/>
<path style=" stroke:none;fill-rule:nonzero;fill:rgb(92.54902%,10.980392%,14.117647%);fill-opacity:1;" d="M 194.800781 134.398438 L 198.199219 125.199219 L 207.199219 111.800781 C 212 119 217.667969 131.867188 224.199219 150.398438 L 229 164.199219 C 229.265625 167.933594 226.199219 169.933594 219.800781 170.199219 L 198.398438 170.601562 C 188.132812 170.199219 182.667969 168.066406 182 164.199219 C 181.734375 162.199219 183 158.667969 185.800781 153.601562 L 191.199219 143.398438 L 194.800781 134.398438 "/>
<path style=" stroke:none;fill-rule:nonzero;fill:rgb(76.078431%,15.294118%,17.647059%);fill-opacity:1;" d="M 200 126.800781 L 193.398438 142.800781 L 193.199219 143 L 193.199219 143.199219 L 186.199219 155.398438 C 183.265625 161.535156 183.332031 165.398438 186.398438 167 C 190 169 194.734375 170.066406 200.601562 170.199219 L 215.398438 169.601562 C 224.464844 168.933594 228 166 226 160.800781 L 221 147.601562 C 215.800781 133.199219 211.066406 122.265625 206.800781 114.800781 C 204.265625 118.132812 202 122.132812 200 126.800781 M 209.199219 111.398438 C 213.734375 118.601562 218.535156 129.132812 223.601562 143 L 228.199219 153.199219 C 230.066406 157.734375 230.933594 161.265625 230.800781 163.800781 C 230.667969 167 228.800781 169.132812 225.199219 170.199219 L 215.800781 171.199219 L 199.800781 172 C 193.132812 172.132812 187.933594 171.199219 184.199219 169.199219 C 179.933594 166.933594 179.132812 162.867188 181.800781 157 L 189.398438 143.800781 L 189.398438 143.601562 L 189.601562 143.398438 L 196.199219 127.199219 C 199 120.933594 202.066406 115.867188 205.398438 112 L 207.398438 111 L 209.199219 111.398438 "/>
<path style=" stroke:none;fill-rule:nonzero;fill:rgb(60%,60%,60%);fill-opacity:1;" d="M 198.398438 182.398438 L 198.199219 189.800781 C 198.199219 191.800781 197.933594 193 197.398438 193.398438 L 195.601562 193.601562 L 194.398438 191.601562 L 194 189.800781 L 194 175 L 198.199219 175 L 198.398438 182.398438 "/>
<path style=" stroke:none;fill-rule:nonzero;fill:rgb(60%,60%,60%);fill-opacity:1;" d="M 203.800781 175 L 207.800781 175 L 207.398438 191.398438 L 206.601562 194 L 204.601562 194.601562 L 203.398438 192.398438 L 203.398438 189.601562 L 203.800781 175 "/>
<path style=" stroke:none;fill-rule:nonzero;fill:rgb(60%,60%,60%);fill-opacity:1;" d="M 213.398438 182.199219 L 213.398438 175.398438 L 215.601562 174.800781 L 218 175 L 218.199219 185.800781 L 217.601562 192.398438 C 217.332031 193.464844 216.734375 194 215.800781 194 L 213.800781 193.199219 C 213.132812 192.398438 212.867188 190.667969 213 188 L 213.398438 182.199219 "/>
<path style=" stroke:none;fill-rule:nonzero;fill:rgb(70.196078%,70.196078%,70.196078%);fill-opacity:1;" d="M 220.800781 202.800781 L 219.199219 210.800781 L 218.601562 214.800781 L 217.800781 217.398438 L 214 219.601562 C 212 220.132812 210.933594 219.667969 210.800781 218.199219 L 210.800781 210.398438 C 211.066406 207.464844 212.601562 204.535156 215.398438 201.601562 L 219 197 L 220 192.800781 L 220.398438 190.800781 L 221.398438 190 L 221 192.601562 L 220.800781 202.800781 "/>
<path style=" stroke:none;fill-rule:nonzero;fill:rgb(80%,80%,80%);fill-opacity:1;" d="M 53.199219 157 L 53.199219 162.601562 L 58.601562 162.601562 L 58.601562 157 L 63.800781 157 L 63.800781 162.601562 L 69 162.601562 L 69 157 L 74.398438 157 L 74.398438 179.601562 C 74.398438 182.398438 73.667969 186.332031 72.199219 191.398438 C 70.867188 196.332031 70.199219 200.265625 70.199219 203.199219 L 70.398438 218.800781 L 69.800781 229.800781 L 69.199219 235.601562 C 68.933594 236.667969 67.601562 237.265625 65.199219 237.398438 L 60 237.199219 L 51.398438 238 C 47.535156 237.867188 45 236.734375 43.800781 234.601562 C 43.265625 233.535156 43.132812 232.332031 43.398438 231 L 43.800781 227.199219 L 42.601562 220.800781 L 41 214.398438 L 41.398438 200.398438 L 38.398438 187.601562 C 37.601562 185.066406 37.332031 180.933594 37.601562 175.199219 L 37.398438 157 L 42.800781 157 L 42.800781 162.601562 L 48 162.601562 L 48 157 L 53.199219 157 "/>
<path style=" stroke:none;fill-rule:nonzero;fill:rgb(70.196078%,70.196078%,70.196078%);fill-opacity:1;" d="M 53.398438 155.398438 C 54.601562 155.398438 55.199219 155.867188 55.199219 156.800781 C 55.199219 159.464844 55.464844 160.867188 56 161 L 56.601562 157 L 57.398438 156 C 57.933594 155.601562 58.398438 155.398438 58.800781 155.398438 L 64 155.398438 C 65.199219 155.398438 65.800781 155.867188 65.800781 156.800781 C 65.800781 159.464844 66.066406 160.867188 66.601562 161 L 67.199219 157 C 67.199219 155.933594 67.867188 155.398438 69.199219 155.398438 L 74.398438 155.398438 C 75.734375 155.398438 76.398438 155.867188 76.398438 156.800781 L 76.398438 170.601562 C 76.398438 174.601562 75.667969 180.601562 74.199219 188.601562 C 72.867188 196.464844 72.199219 202.464844 72.199219 206.601562 L 72 226.398438 C 71.601562 232.667969 70 236.535156 67.199219 238 L 53 239.398438 L 47 238.800781 L 42.199219 235.398438 C 41.667969 234.734375 41.332031 232.535156 41.199219 228.800781 L 41.199219 223.398438 C 39.734375 219 39 216.066406 39 214.601562 C 39 206.332031 37.867188 196.199219 35.601562 184.199219 C 34.933594 180.867188 34.734375 176.332031 35 170.601562 L 35.601562 157 C 35.601562 155.933594 36.265625 155.398438 37.601562 155.398438 L 43 155.398438 C 44.199219 155.398438 44.800781 155.867188 44.800781 156.800781 C 44.800781 159.464844 45 160.867188 45.398438 161 L 46 157 L 46.800781 156 C 47.332031 155.601562 47.800781 155.398438 48.199219 155.398438 L 53.398438 155.398438 M 51.398438 162.601562 L 50.800781 158.199219 C 50.265625 158.066406 50 159.464844 50 162.398438 C 50 163.464844 49.265625 164 47.800781 164 L 42.601562 164 C 41.398438 164 40.800781 163.535156 40.800781 162.601562 L 40.601562 160.199219 C 40.464844 159 40.667969 158.398438 41.199219 158.398438 C 39.464844 158.398438 38.667969 159.199219 38.800781 160.800781 L 39.601562 166 L 39.601562 178 C 39.734375 182.535156 40.199219 186.464844 41 189.800781 C 41.800781 192.332031 42.667969 201.199219 43.601562 216.398438 C 45.199219 230.132812 48.398438 236.800781 53.199219 236.398438 L 63.398438 235.800781 C 65.933594 235.667969 67.398438 234.535156 67.800781 232.398438 L 68 226.601562 L 68.398438 215.199219 C 68.398438 210.132812 69.066406 202.734375 70.398438 193 C 71.867188 183.398438 72.535156 176.066406 72.398438 171 L 72.398438 158.601562 C 72.398438 157.667969 72.199219 157.734375 71.800781 158.800781 L 71 162.398438 C 71 163.464844 70.332031 164 69 164 L 63.601562 164 C 62.398438 164 61.800781 163.535156 61.800781 162.601562 L 61.199219 158.199219 C 60.800781 158.066406 60.601562 159.464844 60.601562 162.398438 C 60.601562 163.464844 59.867188 164 58.398438 164 L 53.199219 164 C 52 164 51.398438 163.535156 51.398438 162.601562 "/>
<path style=" stroke:none;fill-rule:nonzero;fill:rgb(92.54902%,10.980392%,14.117647%);fill-opacity:1;" d="M 45.800781 134.398438 L 49.199219 125.199219 L 58 111.800781 C 62.800781 119 68.464844 131.867188 75 150.398438 L 79.800781 164.199219 C 80.066406 167.933594 77 169.933594 70.601562 170.199219 L 49.398438 170.601562 C 39.132812 170.199219 33.601562 168.066406 32.800781 164.199219 C 32.667969 162.199219 34 158.667969 36.800781 153.601562 L 42.199219 143.398438 L 45.800781 134.398438 "/>
<path style=" stroke:none;fill-rule:nonzero;fill:rgb(76.078431%,15.294118%,17.647059%);fill-opacity:1;" d="M 40.398438 143.601562 L 40.398438 143.199219 L 40.601562 142.800781 L 47.199219 126.601562 C 50 120.332031 53.066406 115.199219 56.398438 111.199219 L 58.199219 110.398438 C 59 110.265625 59.535156 110.464844 59.800781 111 C 64.734375 118.601562 69.199219 128.066406 73.199219 139.398438 L 77.800781 150.398438 L 81.398438 161.800781 C 82.199219 166.199219 80.667969 169.066406 76.800781 170.398438 L 65.199219 171.800781 L 48.398438 172.601562 C 41.464844 172.332031 36.265625 170.734375 32.800781 167.800781 C 30 165.535156 30.132812 161.398438 33.199219 155.398438 L 40.398438 143.601562 M 36.800781 156.800781 C 34.265625 162.933594 35.265625 166.601562 39.800781 167.800781 L 52.601562 169.199219 L 65.601562 168.800781 C 75.066406 168.398438 78.867188 165.734375 77 160.800781 L 71.800781 147.601562 C 67.132812 133.734375 62.464844 122.867188 57.800781 115 C 55.265625 118.332031 52.933594 122.464844 50.800781 127.398438 L 44.199219 143.199219 L 44 143.601562 L 36.800781 156.800781 "/>
<path style=" stroke:none;fill-rule:nonzero;fill:rgb(60%,60%,60%);fill-opacity:1;" d="M 45 189.800781 L 45 185.601562 L 44.800781 175 L 49 175 L 49.398438 182.398438 L 49 189.800781 L 48.398438 193.398438 C 47.066406 194.464844 46 193.867188 45.199219 191.601562 L 45 189.800781 "/>
<path style=" stroke:none;fill-rule:nonzero;fill:rgb(60%,60%,60%);fill-opacity:1;" d="M 54.601562 175 L 58.601562 175 L 58.199219 191.398438 L 57.398438 194 L 55.398438 194.601562 C 54.601562 194.199219 54.199219 193.464844 54.199219 192.398438 L 54.199219 189.601562 L 54.601562 175 "/>
<path style=" stroke:none;fill-rule:nonzero;fill:rgb(60%,60%,60%);fill-opacity:1;" d="M 64.199219 178.199219 L 64.398438 175.398438 L 66.601562 174.800781 L 68.800781 175 L 69 185.800781 L 68.601562 192.398438 L 68 193.800781 L 66.601562 194 L 64.800781 193.199219 C 64 192.398438 63.667969 190.667969 63.800781 188 L 64.199219 182.199219 L 64.199219 178.199219 "/>
<path style=" stroke:none;fill-rule:nonzero;fill:rgb(70.196078%,70.196078%,70.196078%);fill-opacity:1;" d="M 42 190.199219 C 42.132812 192.332031 42.734375 194.867188 43.800781 197.800781 L 46.601562 205 C 48.332031 209.535156 49.398438 214.601562 49.800781 220.199219 L 50 232.199219 C 47.199219 232.867188 45.132812 229.464844 43.800781 222 C 43 217.332031 42.601562 212.535156 42.601562 207.601562 C 42.601562 204.800781 42.066406 201.535156 41 197.800781 L 38.199219 188.199219 L 36.800781 182.199219 C 36.265625 179 36.800781 177.398438 38.398438 177.398438 L 41 183 L 42 190.199219 "/>
<path style=" stroke:none;fill-rule:nonzero;fill:rgb(80%,80%,80%);fill-opacity:1;" d="M 79 193 L 79 165.601562 L 86.601562 165.601562 L 86.601562 174 L 94.199219 174 L 94.199219 165.601562 L 101.800781 165.601562 L 101.800781 174 L 109.398438 174 L 109.398438 165.601562 L 116.800781 165.601562 L 116.800781 174 L 124.398438 174 L 124.199219 165.601562 L 132 165.601562 L 132 174 L 139.398438 174 L 139.398438 165.601562 L 147 165.601562 L 147 174 L 154.601562 174 L 154.601562 165.601562 L 162.199219 165.601562 L 162.199219 174 L 169.800781 174 L 169.800781 165.601562 L 177.398438 165.601562 L 177.398438 186.199219 L 177.800781 204.398438 L 177.601562 222.398438 C 161.601562 223.332031 144.867188 223.398438 127.398438 222.601562 C 112.066406 223.398438 95.332031 223.332031 77.199219 222.398438 L 77.800781 207.601562 L 79 193 "/>
<path style=" stroke:none;fill-rule:nonzero;fill:rgb(70.196078%,70.196078%,70.196078%);fill-opacity:1;" d="M 88.398438 165 C 88.398438 169.398438 89.066406 171.933594 90.398438 172.601562 C 91.601562 173.265625 92.199219 171.132812 92.199219 166.199219 C 92.199219 165.265625 93.265625 164.800781 95.398438 164.800781 L 103 164.800781 L 103.601562 165 C 103.601562 169.265625 104.265625 171.734375 105.601562 172.398438 C 106.800781 172.933594 107.398438 170.867188 107.398438 166.199219 C 107.398438 165.265625 108.464844 164.800781 110.601562 164.800781 L 118.199219 164.800781 L 118.800781 165 C 118.800781 169.132812 119.398438 171.601562 120.601562 172.398438 C 121.800781 173.199219 122.398438 171.132812 122.398438 166.199219 C 122.398438 165.265625 123.464844 164.800781 125.601562 164.800781 L 133.398438 164.800781 L 134 165 C 134 169.398438 134.601562 171.933594 135.800781 172.601562 C 136.867188 173.265625 137.398438 171.132812 137.398438 166.199219 C 137.398438 165.265625 138.464844 164.800781 140.601562 164.800781 L 148.199219 164.800781 L 149 165 C 149 169.265625 149.601562 171.734375 150.800781 172.398438 C 152 172.933594 152.601562 170.867188 152.601562 166.199219 C 152.601562 165.265625 153.667969 164.800781 155.800781 164.800781 L 163.398438 164.800781 L 164.199219 165 C 164.199219 169.398438 164.800781 171.933594 166 172.601562 C 167.199219 173.265625 167.800781 171.132812 167.800781 166.199219 C 167.800781 165.265625 168.867188 164.800781 171 164.800781 L 178.601562 164.800781 L 179.199219 165 L 179.199219 185.601562 L 179.601562 222 C 179.601562 222.800781 178.535156 223.199219 176.398438 223.199219 C 145.199219 224.667969 111.734375 224.667969 76 223.199219 L 75.398438 223 L 76.199219 194.601562 L 77 166.199219 C 77 165.265625 78.066406 164.800781 80.199219 164.800781 L 87.800781 164.800781 L 88.398438 165 M 83.398438 166.398438 C 81 166.398438 79.933594 168.800781 80.199219 173.601562 L 81.199219 185.398438 L 80.199219 200 L 79.199219 214.398438 C 79.199219 218.933594 82 221.601562 87.601562 222.398438 L 157.601562 222.398438 L 171.398438 220.800781 C 174.464844 219.199219 175.933594 215.066406 175.800781 208.398438 L 175.398438 170.398438 C 175.398438 168.398438 174.800781 167.066406 173.601562 166.398438 C 172.398438 165.867188 171.800781 165.867188 171.800781 166.398438 L 171.800781 173.398438 C 171.800781 174.332031 170.734375 174.800781 168.601562 174.800781 L 161 174.800781 L 160.199219 174.398438 L 160.199219 168.398438 C 159.800781 167.066406 158.265625 166.398438 155.601562 166.398438 C 156.535156 166.398438 157 167.332031 157 169.199219 L 156.601562 173.398438 C 156.601562 174.332031 155.535156 174.800781 153.398438 174.800781 L 145.800781 174.800781 L 145 174.398438 L 145 168.398438 C 144.601562 167.066406 143.066406 166.398438 140.398438 166.398438 C 141.332031 166.398438 141.800781 167.332031 141.800781 169.199219 L 141.398438 173.398438 C 141.398438 174.332031 140.332031 174.800781 138.199219 174.800781 L 130.800781 174.800781 L 130.199219 174.398438 L 130.601562 169.199219 C 130.601562 167.332031 129.933594 166.398438 128.601562 166.398438 C 125.398438 166.398438 123.933594 166.734375 124.199219 167.398438 L 126.199219 173.398438 C 126.332031 174.332031 125.265625 174.800781 123 174.800781 L 115.601562 174.800781 L 115 174.398438 L 115 168.398438 C 114.464844 167.066406 112.867188 166.398438 110.199219 166.398438 C 111.132812 166.398438 111.601562 167.332031 111.601562 169.199219 L 111.199219 173.398438 C 111.199219 174.332031 110.132812 174.800781 108 174.800781 L 100.398438 174.800781 L 99.800781 174.398438 L 99.800781 168.398438 C 99.265625 167.066406 97.667969 166.398438 95 166.398438 C 95.933594 166.398438 96.398438 167.332031 96.398438 169.199219 L 96 173.398438 C 96 174.332031 94.933594 174.800781 92.800781 174.800781 L 85.199219 174.800781 L 84.601562 174.398438 L 85 169.800781 C 85 167.535156 84.464844 166.398438 83.398438 166.398438 "/>
<path style=" stroke:none;fill-rule:nonzero;fill:rgb(80%,80%,80%);fill-opacity:1;" d="M 106.601562 223.398438 L 121.199219 223.398438 L 121 212.398438 L 136.398438 212.398438 L 136.398438 223.398438 L 151 223.398438 L 151 212.398438 L 166 212.398438 L 166 223.398438 L 180.800781 223.398438 L 180.800781 212.398438 L 195.800781 212.398438 L 195.800781 223.398438 L 210.800781 223.398438 L 210.800781 212.398438 L 225.800781 212.398438 L 225.800781 239.601562 L 226.601562 263.601562 C 227 273.464844 226.933594 281.535156 226.398438 287.800781 C 194.800781 288.734375 161.800781 288.800781 127.398438 288 C 96.601562 288.933594 63.601562 288.867188 28.398438 287.800781 C 28.132812 282.464844 28.535156 275.933594 29.601562 268.199219 L 32 248.601562 L 32.199219 230.601562 L 31.800781 212.398438 L 46.800781 212.398438 L 46.800781 223.398438 L 61.800781 223.398438 L 61.800781 212.398438 L 76.601562 212.398438 L 76.601562 223.398438 L 91.601562 223.398438 L 91.601562 212.398438 L 106.601562 212.398438 L 106.601562 223.398438 "/>
<path style=" stroke:none;fill-rule:nonzero;fill:rgb(70.196078%,70.196078%,70.196078%);fill-opacity:1;" d="M 134.601562 224 L 135.199219 216.398438 C 135.066406 214.132812 133.667969 213 131 213 L 122 213.800781 L 123.199219 222.800781 C 123.199219 223.734375 122.132812 224.199219 120 224.199219 L 105.199219 224.199219 L 104.601562 224 L 104.601562 215.398438 C 104.066406 213.800781 101.800781 213 97.800781 213 C 94.332031 213 92.601562 213.464844 92.601562 214.398438 L 93.601562 222.800781 C 93.601562 223.734375 92.535156 224.199219 90.398438 224.199219 L 75.398438 224.199219 L 74.800781 224 L 74.800781 215.398438 C 74.132812 213.800781 71.867188 213 68 213 C 64.535156 213 62.734375 213.464844 62.601562 214.398438 L 63.601562 222.800781 C 63.601562 223.734375 62.535156 224.199219 60.398438 224.199219 L 45.398438 224.199219 L 44.800781 224 L 44.800781 215.398438 C 44.265625 213.800781 42 213 38 213 L 32.601562 213.199219 L 33.800781 219.398438 L 34.199219 240.398438 L 30.800781 266.398438 C 29.867188 280.132812 32 287.066406 37.199219 287.199219 L 83 287.800781 L 182.199219 287.800781 L 206 288.601562 C 218.535156 288.199219 224.800781 285.800781 224.800781 281.398438 L 223.800781 240.199219 L 223.800781 214 C 223.800781 213.199219 221.800781 212.800781 217.800781 212.800781 L 210.800781 213 C 212.265625 213 213.066406 214.199219 213.199219 216.601562 L 212.800781 222.800781 C 212.800781 223.734375 211.734375 224.199219 209.601562 224.199219 L 194.601562 224.199219 L 193.800781 224 L 193.800781 215.398438 C 193.265625 213.800781 191 213 187 213 C 183.535156 213 181.800781 213.464844 181.800781 214.398438 L 182.800781 222.800781 C 182.800781 223.734375 181.734375 224.199219 179.601562 224.199219 L 164.601562 224.199219 L 164 224 L 164 215.398438 C 163.332031 213.800781 161.066406 213 157.199219 213 C 153.734375 213 152 213.464844 152 214.398438 L 153 222.800781 C 153 223.734375 151.933594 224.199219 149.800781 224.199219 L 135.199219 224.199219 L 134.601562 224 M 119.199219 212.800781 C 119.199219 212 120.265625 211.601562 122.398438 211.601562 L 137.800781 211.601562 L 138.398438 211.800781 L 138.199219 219.601562 C 138.734375 221.601562 140.867188 222.601562 144.601562 222.601562 C 147.535156 222.601562 149.132812 221.734375 149.398438 220 L 149 212.800781 C 149 212 150.066406 211.601562 152.199219 211.601562 L 167.199219 211.601562 L 167.800781 211.800781 L 167.601562 220 C 168.132812 221.734375 170.464844 222.601562 174.601562 222.601562 C 177.535156 222.601562 179.132812 221.667969 179.398438 219.800781 L 179 212.800781 C 179 212 180.066406 211.601562 182.199219 211.601562 L 197 211.601562 L 197.800781 211.800781 C 197.800781 216.867188 198.132812 219.800781 198.800781 220.601562 C 199.601562 221.933594 202.464844 222.601562 207.398438 222.601562 C 208.601562 222.601562 209.199219 221.265625 209.199219 218.601562 L 208.800781 212.800781 C 208.800781 212 209.867188 211.601562 212 211.601562 L 227 211.601562 L 227.601562 211.800781 L 227.601562 239.199219 L 228.398438 263.199219 L 228.398438 287.199219 C 228.265625 288 227.199219 288.398438 225.199219 288.398438 C 159.199219 290.667969 93.199219 290.667969 27.199219 288.398438 L 26.601562 288.199219 C 26.464844 279.933594 27 267.398438 28.199219 250.601562 L 29.800781 212.800781 C 29.800781 212 30.867188 211.601562 33 211.601562 L 48 211.601562 L 48.601562 211.800781 C 48.601562 216.867188 48.867188 219.800781 49.398438 220.601562 C 50.199219 221.933594 52.933594 222.601562 57.601562 222.601562 C 59.332031 222.601562 60.199219 221.398438 60.199219 219 L 59.800781 212.800781 C 59.800781 212 60.867188 211.601562 63 211.601562 L 78 211.601562 L 78.601562 211.800781 L 78.398438 220 C 78.933594 221.734375 81.265625 222.601562 85.398438 222.601562 C 88.199219 222.601562 89.734375 221.667969 90 219.800781 L 89.601562 212.800781 C 89.601562 212 90.667969 211.601562 92.800781 211.601562 L 107.800781 211.601562 L 108.398438 211.800781 L 108.398438 221.800781 L 118 222.601562 C 119.464844 219.535156 119.867188 216.265625 119.199219 212.800781 "/>
<path style=" stroke:none;fill-rule:nonzero;fill:rgb(80%,80%,80%);fill-opacity:1;" d="M 100.601562 288.601562 C 100.199219 286.066406 100 281.132812 100 273.800781 C 99.734375 264.601562 100.734375 257.332031 103 252 C 106.601562 243.464844 111.132812 237.867188 116.601562 235.199219 C 122.601562 232.265625 128.734375 230.867188 135 231 C 141.800781 231.265625 147.734375 233.265625 152.800781 237 C 156.933594 240.066406 159.734375 244.800781 161.199219 251.199219 L 163.199219 268 L 164.398438 283 L 165 288.601562 L 127.398438 288 L 100.601562 288.601562 "/>
<path style=" stroke:none;fill-rule:nonzero;fill:rgb(70.196078%,70.196078%,70.196078%);fill-opacity:1;" d="M 104.800781 251.800781 C 102.398438 258.601562 101.464844 268.199219 102 280.601562 C 102.132812 284.734375 104.265625 287.132812 108.398438 287.800781 L 119.800781 287.398438 C 129.535156 287.132812 143.933594 287.265625 163 287.800781 L 162 268.398438 C 161.464844 260 160.265625 253.332031 158.398438 248.398438 C 153.867188 236.800781 144.800781 231.464844 131.199219 232.398438 C 117.734375 233.332031 108.933594 239.800781 104.800781 251.800781 M 98.601562 289 C 97 274.332031 98.066406 262.132812 101.800781 252.398438 C 106.464844 239.734375 115.332031 232.601562 128.398438 231 L 145.601562 231.800781 C 152.132812 233.535156 156.734375 236.734375 159.398438 241.398438 C 162.464844 247 164.464844 254.601562 165.398438 264.199219 L 167 288 C 167 288.535156 166.199219 288.867188 164.601562 289 L 163.800781 289.199219 L 99.199219 289.199219 L 98.601562 289 "/>
<path style=" stroke:none;fill-rule:nonzero;fill:rgb(70.196078%,70.196078%,70.196078%);fill-opacity:1;" d="M 134.800781 231 C 141.734375 231.265625 147.734375 233.265625 152.800781 237 C 156.933594 240.066406 159.734375 244.800781 161.199219 251.199219 L 163.199219 268 L 164.398438 283 L 165 288.601562 L 134.398438 288.199219 L 134.800781 231 "/>
<path style=" stroke:none;fill-rule:nonzero;fill:rgb(60%,60%,60%);fill-opacity:1;" d="M 136.800781 233 L 134.199219 232.601562 L 136.800781 231 L 136.800781 233 M 163 289 L 163 287 L 165.199219 287 L 163 289 "/>
<path style=" stroke:none;fill-rule:nonzero;fill:rgb(70.196078%,70.196078%,70.196078%);fill-opacity:1;" d="M 116.601562 235.199219 C 122.199219 232.398438 128.265625 231 134.800781 231 L 134.398438 288.199219 L 100.601562 288.601562 C 100.199219 286.066406 100 281.132812 100 273.800781 C 99.734375 264.601562 100.734375 257.332031 103 252 C 106.601562 243.464844 111.132812 237.867188 116.601562 235.199219 "/>
<path style=" stroke:none;fill-rule:nonzero;fill:rgb(60%,60%,60%);fill-opacity:1;" d="M 122 235.398438 C 114.667969 238.734375 110.398438 241.464844 109.199219 243.601562 C 104.535156 251.332031 102.132812 258.867188 102 266.199219 L 101.601562 280 C 102.398438 284.933594 105.265625 287.332031 110.199219 287.199219 L 132.601562 287 L 132.800781 233.800781 C 132.933594 231.535156 129.332031 232.066406 122 235.398438 M 135.601562 230 C 136.398438 230 136.800781 230.265625 136.800781 230.800781 L 136.398438 287.800781 C 136.398438 288.734375 135.464844 289.199219 133.601562 289.199219 L 99.800781 289.601562 C 99 289.601562 98.601562 289.398438 98.601562 289 C 96.734375 272.464844 98.332031 259.132812 103.398438 249 C 109.398438 236.734375 120.132812 230.398438 135.601562 230 "/>
<path style=" stroke:none;fill-rule:nonzero;fill:rgb(70.196078%,70.196078%,70.196078%);fill-opacity:1;" d="M 225.398438 232 L 225.199219 237.601562 L 225.601562 248 L 225.199219 258.199219 L 225.199219 265.800781 L 225.800781 273.199219 L 226.398438 278.800781 L 225.601562 284.398438 L 220.601562 287.199219 L 216 286.800781 C 215.464844 286 215.464844 284.800781 216 283.199219 L 217 279.601562 L 217.199219 254.601562 L 217.601562 234.398438 L 217.601562 225 L 218.601562 216.199219 L 218.800781 213.601562 C 219.066406 212.667969 219.933594 212.265625 221.398438 212.398438 L 224.601562 213 L 224 222.199219 L 224.800781 226.601562 L 225.398438 232 "/>
<path style=" stroke:none;fill-rule:nonzero;fill:rgb(70.196078%,70.196078%,70.196078%);fill-opacity:1;" d="M 38.199219 224.199219 C 38.734375 227.132812 38.601562 230.734375 37.800781 235 L 36 245.800781 C 35.332031 252.867188 35.667969 258.734375 37 263.398438 L 39.398438 271.800781 L 39.601562 280.601562 C 39.332031 282.332031 38.332031 284.332031 36.601562 286.601562 C 35.535156 288.464844 34.199219 288.800781 32.601562 287.601562 C 30.199219 285.734375 28.867188 283 28.601562 279.398438 L 28.800781 270 L 30 224.398438 L 30.199219 220.601562 C 31.800781 217 33.535156 216.265625 35.398438 218.398438 C 37.132812 220.398438 38.066406 222.332031 38.199219 224.199219 "/>
</g>
</svg>
