<?xml version="1.0" encoding="UTF-8"?>
<svg xmlns="http://www.w3.org/2000/svg" xmlns:xlink="http://www.w3.org/1999/xlink" width="284pt" height="264pt" viewBox="0 0 284 264" version="1.1">
<g id="surface1">
<path style=" stroke:none;fill-rule:nonzero;fill:rgb(0%,0%,0%);fill-opacity:1;" d="M 168.199219 54.398438 C 175.800781 60 182.066406 66.132812 187 72.800781 C 192.734375 73.601562 198.734375 75.132812 205 77.398438 C 209.398438 79.398438 212.800781 81.066406 215.199219 82.398438 L 227.398438 90.800781 L 227.800781 91 L 228.398438 91.601562 C 238.265625 94.265625 246.535156 100.398438 253.199219 110 L 260.199219 124.800781 L 262.398438 130.398438 L 266.398438 134.398438 C 272 139.734375 275.867188 144.601562 278 149 L 278.800781 151.199219 C 282.265625 161.601562 281.332031 170.535156 276 178 C 271.867188 183.867188 266.265625 186.800781 259.199219 186.800781 L 254.199219 186.199219 L 254.601562 202 C 255.667969 215.601562 252 226.933594 243.601562 236 C 236.132812 244.132812 226.800781 248.199219 215.601562 248.199219 L 204 246.601562 C 192.800781 243.667969 186.199219 235.667969 184.199219 222.601562 L 178 223 L 169.800781 222.601562 L 164.398438 222.398438 L 153 221.800781 L 153 222.398438 L 153.199219 224.398438 L 153.199219 239.800781 C 152.667969 244.734375 151.199219 248.734375 148.800781 251.800781 C 144.132812 257.800781 136 260.800781 124.398438 260.800781 L 105.398438 259.398438 L 104.199219 259.398438 L 100.601562 259 C 97 258.867188 93.800781 257.667969 91 255.398438 C 88.199219 253.265625 86.265625 250.601562 85.199219 247.398438 C 81.734375 251.132812 76.332031 253.667969 69 255 L 58.199219 255.601562 C 44.199219 255.601562 34.199219 252.867188 28.199219 247.398438 C 22.066406 242.199219 17.933594 232.601562 15.800781 218.601562 C 15 213.265625 15.199219 207.667969 16.398438 201.800781 C 17.066406 198.601562 18.398438 194 20.398438 188 L 23.398438 176.398438 C 15.265625 168.800781 9.933594 159.132812 7.398438 147.398438 C 5.800781 140.332031 5.667969 133.066406 7 125.601562 L 8.800781 119.601562 L 9.398438 117.800781 L 13.199219 109.398438 L 13.601562 108.800781 L 14.199219 107.601562 L 14.601562 107 L 14.398438 95 C 14.132812 91 14.199219 87.199219 14.601562 83.601562 C 9.132812 82.800781 5 79.933594 2.199219 75 C -0.734375 69.667969 -0.800781 64.199219 2 58.601562 C 5.464844 52.199219 11.199219 46.867188 19.199219 42.601562 C 23.601562 40.199219 30.265625 37.535156 39.199219 34.601562 L 44.398438 32.800781 L 59.398438 29.601562 L 64.800781 30 L 64.800781 29.800781 C 66.535156 23.933594 68.199219 19.398438 69.800781 16.199219 C 72.332031 11 75.535156 6.867188 79.398438 3.800781 C 82.601562 1.265625 86.132812 0 90 0 C 93.464844 0 96.800781 1.066406 100 3.199219 C 106.800781 8.265625 110.199219 16.132812 110.199219 26.800781 L 111.601562 24 L 111.601562 23.800781 C 113.066406 15.398438 117.199219 9.667969 124 6.601562 C 126.667969 5.398438 129.464844 4.800781 132.398438 4.800781 C 137.601562 4.800781 142.398438 6.667969 146.800781 10.398438 C 150.667969 13.734375 153.265625 17.601562 154.601562 22 C 156.332031 27.601562 156.734375 35.535156 155.800781 45.800781 L 155.800781 46.398438 L 155.601562 48.398438 L 156.601562 48.601562 L 160.199219 50 L 161 50.199219 L 163.398438 51.398438 L 168.199219 54.398438 "/>
<path style=" stroke:none;fill-rule:nonzero;fill:rgb(100%,100%,100%);fill-opacity:1;" d="M 151.398438 56.199219 L 154.199219 56.800781 L 156.199219 57.601562 L 157.199219 57.800781 L 157.398438 58 L 163.199219 61.199219 C 171.464844 67.464844 177.800781 74 182.199219 80.800781 C 188.601562 81.332031 195.132812 82.867188 201.800781 85.398438 L 211 89.800781 L 222 97.199219 L 224.398438 99.398438 C 232.800781 101.132812 240.066406 106.265625 246.199219 114.800781 C 248.332031 118.132812 250.332031 122.464844 252.199219 127.800781 L 255.199219 134.800781 L 260.601562 140.601562 C 265.265625 145 268.464844 149 270.199219 152.601562 L 270.601562 153.601562 C 273.265625 161.464844 272.800781 167.933594 269.199219 173 C 266.800781 176.464844 263.464844 178.199219 259.199219 178.199219 C 256.265625 178.199219 253.132812 177.066406 249.800781 174.800781 L 245.800781 171 L 245.800781 176.199219 C 245.535156 188.066406 245.667969 196.867188 246.199219 202.601562 C 247 213.933594 244.066406 223.132812 237.398438 230.199219 C 231.535156 236.464844 224.265625 239.601562 215.601562 239.601562 L 206.199219 238.398438 C 201.132812 237.066406 197.464844 234.265625 195.199219 230 C 194 227.867188 193 224.464844 192.199219 219.800781 L 192.199219 219 L 190.398438 213.398438 L 190.398438 213 L 178 214.398438 L 164.398438 214 L 146 211.398438 L 143.800781 210.601562 L 144.800781 225.800781 L 144.800781 238.398438 C 144.535156 242 143.667969 244.734375 142.199219 246.601562 C 139.132812 250.464844 133.199219 252.398438 124.398438 252.398438 L 106.199219 251 L 101 250.601562 C 98.734375 250.464844 96.867188 249.601562 95.398438 248 C 93.933594 246.398438 93.132812 244.535156 93 242.398438 L 93.398438 230.199219 C 93.933594 222.734375 93.734375 217.464844 92.800781 214.398438 L 89.800781 210.398438 C 88.332031 209.199219 86.933594 208.601562 85.601562 208.601562 L 84.601562 208.601562 L 84.601562 220 C 84.734375 226.535156 84.132812 231.601562 82.800781 235.199219 C 80.398438 241.734375 75.398438 245.535156 67.800781 246.601562 L 58.199219 247.199219 C 46.734375 247.199219 38.601562 245.132812 33.800781 241 C 31 238.601562 28.601562 234.332031 26.601562 228.199219 C 25.398438 224.464844 24.601562 220.867188 24.199219 217.398438 C 23.535156 212.867188 23.734375 208.132812 24.800781 203.199219 L 28.398438 190.800781 C 30.800781 184.265625 32 179.132812 32 175.398438 L 30.800781 171.398438 C 22.933594 165 17.867188 156.398438 15.601562 145.601562 C 14.398438 139.464844 14.332031 133.265625 15.398438 127 L 18.199219 118.601562 L 20.800781 113.601562 L 22.601562 109.800781 L 23 102.398438 L 22.800781 94.601562 C 22.535156 87.132812 23.066406 81.398438 24.398438 77.398438 L 25.199219 75.398438 L 16.601562 75.199219 C 13.398438 74.933594 11.066406 73.464844 9.601562 70.800781 C 8.132812 68.132812 8.132812 65.398438 9.601562 62.601562 C 12.265625 57.535156 17.066406 53.199219 24 49.601562 C 27.734375 47.601562 33.667969 45.265625 41.800781 42.601562 L 47.199219 40.800781 C 52.132812 38.933594 56.199219 38 59.398438 38 L 66.601562 39.601562 L 69.601562 41.800781 L 70.800781 38.398438 L 73 32.199219 C 74.734375 26.734375 76.132812 22.800781 77.199219 20.398438 C 79.199219 16 81.667969 12.667969 84.601562 10.398438 C 86.199219 9.199219 88 8.601562 90 8.601562 C 92.132812 8.601562 93.800781 9.132812 95 10.199219 C 98.464844 12.601562 100.601562 16.398438 101.398438 21.601562 L 101.398438 34.398438 L 100.199219 52.800781 L 106.601562 54.800781 L 115.601562 35.601562 L 120 26 L 120 25.398438 C 120.933594 19.800781 123.398438 16.132812 127.398438 14.398438 L 132.398438 13.398438 C 135.601562 13.398438 138.601562 14.601562 141.398438 17 C 143.933594 19.132812 145.667969 21.667969 146.601562 24.601562 C 147.933594 29.132812 148.199219 36 147.398438 45.199219 L 146.800781 52.601562 L 147 55.398438 L 147 55.800781 L 150.601562 56.199219 L 151.398438 56.199219 "/>
<path style=" stroke:none;fill-rule:nonzero;fill:rgb(94.901961%,94.901961%,94.901961%);fill-opacity:1;" d="M 203.601562 108.601562 L 223.800781 107.800781 C 229.667969 109.265625 234.800781 113.199219 239.199219 119.601562 L 243.800781 129.601562 L 248 139.398438 L 255.601562 147.800781 C 259.066406 151.132812 261.398438 154 262.601562 156.398438 C 264.066406 160.933594 264.066406 164.601562 262.601562 167.398438 C 261.132812 170.464844 258.464844 170.601562 254.601562 167.800781 C 252.464844 166.464844 250.398438 163.132812 248.398438 157.800781 L 244.199219 146 L 237 131.199219 C 234.066406 126 230.265625 122.265625 225.601562 120 L 219.398438 118 C 218.066406 117.867188 215.933594 118.464844 213 119.800781 L 206.601562 123.601562 L 199.800781 124 L 203.601562 108.601562 "/>
<path style=" stroke:none;fill-rule:nonzero;fill:rgb(70.196078%,70.196078%,70.196078%);fill-opacity:1;" d="M 203.800781 107.398438 C 224.734375 103.800781 238.265625 109.867188 244.398438 125.601562 L 248.601562 135.601562 C 250.332031 139.066406 252.398438 141.933594 254.800781 144.199219 L 260.398438 149.398438 L 264.601562 155.800781 C 266.464844 163 265.800781 167.601562 262.601562 169.601562 C 257.800781 172.933594 253.464844 171.132812 249.601562 164.199219 L 243.199219 148.601562 C 238.667969 138.199219 235 131.132812 232.199219 127.398438 C 225.800781 119.132812 219.066406 117.265625 212 121.800781 L 205.601562 125.398438 L 198.601562 125.199219 C 197.535156 124.800781 197.464844 124.199219 198.398438 123.398438 C 199.199219 122.734375 200 122.535156 200.800781 122.800781 L 209.800781 120.398438 L 219.601562 116.800781 C 222.800781 116.398438 227.132812 118.398438 232.601562 122.800781 C 236.332031 125.601562 239.667969 130.199219 242.601562 136.601562 L 248.800781 152.800781 L 251.199219 159.601562 L 254.800781 165.601562 C 258.800781 169.199219 260.867188 168.601562 261 163.800781 C 261.132812 159.265625 260.464844 156 259 154 L 251 146 C 247.800781 142.667969 245.667969 139.601562 244.601562 136.800781 L 238.601562 122.800781 C 235.933594 117.464844 232.601562 113.734375 228.601562 111.601562 C 224.867188 109.601562 220.734375 108.601562 216.199219 108.601562 L 203.398438 110 C 202.066406 110.132812 201.535156 109.800781 201.800781 109 L 203.800781 107.398438 "/>
<path style=" stroke:none;fill-rule:nonzero;fill:rgb(94.901961%,94.901961%,94.901961%);fill-opacity:1;" d="M 158 68.199219 C 167.332031 75 173.734375 81.933594 177.199219 89 C 184.398438 89.132812 191.601562 90.601562 198.800781 93.398438 C 206.800781 96.464844 213.933594 101 220.199219 107 C 227 113.535156 231.332031 120.398438 233.199219 127.601562 C 236 137.199219 237.398438 149.734375 237.398438 165.199219 L 237.601562 203.199219 C 238.398438 212.265625 236.066406 219.535156 230.601562 225 C 224.867188 230.734375 217.398438 232.464844 208.199219 230.199219 C 205.398438 229.398438 203.464844 227.734375 202.398438 225.199219 L 200.601562 217.800781 L 197.800781 209 C 196.464844 205.398438 195.867188 202.464844 196 200.199219 C 193.066406 203.535156 188.132812 205.398438 181.199219 205.800781 L 164.398438 205.398438 L 148.800781 203.398438 L 141.601562 200.199219 C 139.066406 199.398438 137.199219 200.199219 136 202.601562 C 135.199219 204.066406 135 207.132812 135.398438 211.800781 L 136 221.601562 L 136.601562 231.601562 C 136.734375 236.933594 136.332031 240.199219 135.398438 241.398438 C 133.800781 243.535156 128.464844 244.332031 119.398438 243.800781 L 101.398438 242 L 102.199219 227 C 102.464844 220.867188 102.066406 215.933594 101 212.199219 C 99.667969 207.667969 96.734375 204.199219 92.199219 201.800781 L 78.601562 202.199219 C 77.398438 203.132812 76.601562 204.933594 76.199219 207.601562 L 76 214.199219 L 75.800781 229.199219 C 74.867188 234.398438 71.800781 237.398438 66.601562 238.199219 C 62.066406 238.734375 57.332031 238.800781 52.398438 238.398438 C 46 237.867188 41.667969 236.601562 39.398438 234.601562 C 36.734375 232.332031 34.464844 226.199219 32.601562 216.199219 C 31.800781 210.867188 32.867188 203.933594 35.800781 195.398438 C 39 186.199219 40.601562 179.464844 40.601562 175.199219 C 40.464844 172 39.199219 168.464844 36.800781 164.601562 L 30.199219 155.199219 C 23.535156 143.601562 21.933594 133 25.398438 123.398438 C 25.800781 122.199219 26.667969 120.398438 28 118 L 30.601562 112.601562 L 31.601562 105.800781 L 31.398438 98.800781 L 31.199219 89.398438 C 31.199219 85.667969 31.601562 82.535156 32.398438 80 C 33.199219 77.734375 34.667969 75.199219 36.800781 72.398438 C 39.066406 69.332031 41.132812 67.398438 43 66.601562 L 37.601562 66.199219 L 32 66.800781 L 17 66.601562 C 19.265625 62.464844 23.933594 58.800781 31 55.601562 L 48.199219 49.601562 L 55.398438 47.199219 C 58.601562 46.398438 61.066406 46.398438 62.800781 47.199219 C 64.132812 47.867188 65.199219 49.199219 66 51.199219 L 67.398438 56 L 69.601562 58.398438 L 71.199219 60.601562 L 81.800781 61.398438 L 92.800781 60 L 104 62.800781 L 115.398438 66.199219 L 125 68.398438 L 129.398438 67.800781 L 133.601562 66.199219 L 142 64.601562 C 148.667969 63.933594 154 65.132812 158 68.199219 M 154.800781 88.398438 L 157.601562 89.199219 L 165.199219 88.199219 L 169.601562 88.601562 L 161.800781 84.398438 C 155.667969 81.199219 150.734375 80.332031 147 81.800781 L 152.800781 86.199219 L 154.800781 88.398438 "/>
<path style=" stroke:none;fill-rule:nonzero;fill:rgb(70.196078%,70.196078%,70.196078%);fill-opacity:1;" d="M 173.199219 87.601562 L 170.398438 83.601562 L 164.800781 76 C 159.601562 71.332031 153.332031 68.601562 146 67.800781 L 124.800781 69.199219 L 119.199219 68.601562 L 113.800781 67 C 101.265625 63.933594 89.464844 62.464844 78.398438 62.601562 L 73.601562 62.601562 C 71.332031 62.464844 69.867188 61.933594 69.199219 61 C 62.132812 51.132812 52.667969 48.332031 40.800781 52.601562 C 36.800781 53.933594 34 56.535156 32.398438 60.398438 C 30.800781 64.265625 32.800781 65.933594 38.398438 65.398438 L 44.199219 65.800781 C 45 65.800781 45.066406 66.132812 44.398438 66.800781 C 38.265625 71.199219 34.867188 77.132812 34.199219 84.601562 L 33.601562 105.601562 C 32.800781 110.667969 30.800781 117.734375 27.601562 126.800781 C 25.464844 134.933594 26 142.265625 29.199219 148.800781 L 38 164 C 41.066406 169.601562 42.398438 175.132812 42 180.601562 L 37 197.800781 C 34.464844 204.734375 33.667969 210.667969 34.601562 215.601562 C 35.933594 223.066406 37.867188 228.332031 40.398438 231.398438 C 43.734375 235.535156 48.933594 237.667969 56 237.800781 C 65.066406 237.933594 70.535156 235.265625 72.398438 229.800781 L 74.199219 210.398438 C 74.867188 203.601562 78.132812 199.933594 84 199.398438 C 92.132812 198.867188 97.800781 201.933594 101 208.601562 C 103.535156 213.800781 104.464844 220.800781 103.800781 229.601562 C 103.398438 235.734375 104.601562 239.601562 107.398438 241.199219 L 120.601562 242.800781 C 127.398438 243.066406 131.667969 241.132812 133.398438 237 C 134.199219 234.867188 134.464844 229.867188 134.199219 222 L 133 209 C 133 203.535156 135.132812 200.265625 139.398438 199.199219 C 141.132812 198.667969 143.265625 199.132812 145.800781 200.601562 C 151.933594 203.398438 160.132812 205 170.398438 205.398438 C 181.734375 205.800781 189.734375 204.132812 194.398438 200.398438 C 194.667969 200.132812 195.265625 199.800781 196.199219 199.398438 L 198 199.601562 L 200 212.601562 C 201.199219 218.464844 202.601562 222.535156 204.199219 224.800781 C 209.800781 232.535156 216.332031 234.066406 223.800781 229.398438 C 230.332031 225.398438 234.066406 220.066406 235 213.398438 C 235.800781 207.667969 235.933594 202.132812 235.398438 196.800781 L 235.199219 162.398438 C 234.933594 148.933594 233.667969 137.464844 231.398438 128 L 233.601562 128.199219 L 235.398438 127.398438 C 237.800781 137.800781 239.199219 150.199219 239.601562 164.601562 L 239.601562 202.601562 C 239.601562 215.800781 234.535156 224.933594 224.398438 230 C 218 233.199219 210.734375 232.800781 202.601562 228.800781 C 199.667969 227.332031 197.933594 222 197.398438 212.800781 C 197 205.601562 194.199219 203.066406 189 205.199219 L 171 207.398438 L 152.800781 205.601562 L 147 204.199219 C 141.398438 201.535156 138.199219 202.535156 137.398438 207.199219 C 137 209.734375 137.132812 213.265625 137.800781 217.800781 L 138.398438 235.199219 C 137.867188 242 132.667969 245.398438 122.800781 245.398438 L 100.199219 242.800781 L 99.601562 242.601562 L 100.800781 227.398438 C 101.199219 220.867188 100.601562 215.933594 99 212.601562 C 95.933594 205.800781 91.601562 203.265625 86 205 C 80.398438 206.734375 77.734375 211.066406 78 218 L 77.800781 228.601562 C 77.132812 232.734375 75.265625 235.535156 72.199219 237 C 65.800781 240.066406 58.535156 241 50.398438 239.800781 C 41.332031 238.601562 35.800781 234.867188 33.800781 228.601562 C 31.535156 221.535156 30.933594 214.601562 32 207.800781 L 36.800781 187.199219 C 38.667969 179.332031 36.867188 169.867188 31.398438 158.800781 C 25.132812 146.398438 22 136.933594 22 130.398438 C 22 126.800781 23.265625 121.800781 25.800781 115.398438 C 28.464844 109.132812 29.734375 103.800781 29.601562 99.398438 L 29.199219 90 C 29.066406 85.867188 29.535156 82.667969 30.601562 80.398438 C 33.535156 74.398438 36.132812 70.535156 38.398438 68.800781 L 27.800781 68.601562 L 15.800781 67.398438 L 15.199219 67 C 21.332031 58.464844 33.800781 51.867188 52.601562 47.199219 L 58.601562 45.800781 L 64.601562 46.601562 L 73.398438 57.601562 C 76.199219 60.132812 81.398438 60.734375 89 59.398438 L 100.199219 60.601562 L 111.398438 64 L 126.800781 65.601562 L 142.199219 64 C 150.601562 62.667969 158.601562 65.332031 166.199219 72 C 171.132812 76.265625 175.199219 81.535156 178.398438 87.800781 L 179.800781 90.601562 L 181 93.601562 L 179.601562 94.800781 L 177.398438 94.800781 C 174.601562 92.800781 171.667969 91 168.601562 89.398438 L 156 88.800781 C 153.332031 88.398438 149.734375 86.332031 145.199219 82.601562 L 146 81.601562 L 147.398438 81.199219 L 153.398438 80.601562 L 159.199219 81.800781 L 171 87.601562 L 173.199219 87.601562 M 165.398438 87.800781 C 160.601562 85 155.535156 83.132812 150.199219 82.199219 L 155.800781 86.199219 C 158.066406 87.535156 160.199219 88.132812 162.199219 88 L 165.398438 87.800781 "/>
<path style=" stroke:none;fill-rule:nonzero;fill:rgb(80%,80%,80%);fill-opacity:1;" d="M 159.800781 136.398438 L 158.601562 130.601562 C 158.066406 128.332031 158.332031 126.535156 159.398438 125.199219 C 161.667969 122 164.933594 120.867188 169.199219 121.800781 C 173.734375 122.734375 177.867188 125.332031 181.601562 129.601562 C 185.332031 134 186.933594 138.066406 186.398438 141.800781 L 183.398438 151.199219 C 182.601562 154.132812 183.398438 157.066406 185.800781 160 L 192.800781 166 C 195.601562 168.265625 197.464844 170.601562 198.398438 173 C 201.332031 180.199219 200.535156 186.066406 196 190.601562 C 191.464844 195 185.535156 196.066406 178.199219 193.800781 L 169 190 L 159 188.800781 C 157.265625 189.199219 155.265625 190.332031 153 192.199219 C 150.601562 194.066406 148.734375 195.199219 147.398438 195.601562 C 142.734375 197.066406 138.066406 195 133.398438 189.398438 C 129.535156 185 126.800781 180.132812 125.199219 174.800781 C 122.667969 166.132812 126.332031 159.933594 136.199219 156.199219 L 152.800781 151.199219 C 157.734375 148.800781 160.066406 143.867188 159.800781 136.398438 "/>
<path style=" stroke:none;fill-rule:nonzero;fill:rgb(94.901961%,94.901961%,94.901961%);fill-opacity:1;" d="M 140.601562 157.800781 L 135.601562 167.800781 L 131.800781 172 C 130.601562 173.199219 129.132812 174 127.398438 174.398438 L 125.601562 174.800781 L 122.800781 175.398438 L 120.398438 176 L 114.601562 177.199219 L 143.398438 81.199219 C 147.933594 85.332031 151.601562 90.265625 154.398438 96 C 157.601562 102.667969 158.535156 108.601562 157.199219 113.800781 C 156.398438 116.867188 154.066406 120.464844 150.199219 124.601562 C 146.066406 128.867188 143.535156 132.265625 142.601562 134.800781 C 141.667969 137.199219 141.398438 141 141.800781 146.199219 C 142.199219 151.265625 141.800781 155.132812 140.601562 157.800781 "/>
<path style=" stroke:none;fill-rule:nonzero;fill:rgb(70.196078%,70.196078%,70.196078%);fill-opacity:1;" d="M 143 80.800781 L 145.199219 80.601562 C 150.265625 85.667969 154.132812 90.667969 156.800781 95.601562 C 160.535156 102.535156 161.265625 108.464844 159 113.398438 L 153.199219 121.800781 C 150.132812 125.132812 148.066406 127.867188 147 130 C 144.867188 133.601562 143.933594 137.265625 144.199219 141 L 143.800781 151.601562 C 141.667969 160.667969 138.265625 167.066406 133.601562 170.800781 C 130 173.601562 123.535156 175.933594 114.199219 177.800781 L 113 177.601562 C 113.398438 177.066406 114 176.734375 114.800781 176.601562 L 127.398438 173 C 131.265625 171.132812 134.265625 167.867188 136.398438 163.199219 C 137.734375 160.398438 138.398438 155.601562 138.398438 148.800781 C 138.398438 142.265625 139.132812 137.667969 140.601562 135 L 150.398438 123 C 154.535156 117.800781 156.332031 113.199219 155.800781 109.199219 C 154.601562 99.332031 149.867188 90.265625 141.601562 82 C 141.332031 81.734375 141.800781 81.332031 143 80.800781 "/>
<path style=" stroke:none;fill-rule:nonzero;fill:rgb(100%,0%,0%);fill-opacity:1;" d="M 60 163 L 64.800781 162.601562 L 81.199219 166.601562 L 89.601562 170 L 92.800781 170.800781 C 93.867188 171.199219 94.332031 171.933594 94.199219 173 C 94.066406 174.601562 92.734375 176 90.199219 177.199219 L 84.398438 179.398438 L 80.199219 181.199219 C 78.464844 181.734375 77 181.734375 75.800781 181.199219 C 73.933594 180.535156 70.867188 178.066406 66.601562 173.800781 L 62.398438 170.800781 L 58.800781 167 C 58 165.132812 58.398438 163.800781 60 163 "/>
<path style=" stroke:none;fill-rule:nonzero;fill:rgb(80%,80%,80%);fill-opacity:1;" d="M 108.601562 105 C 108.601562 106.734375 107.933594 108.265625 106.601562 109.601562 L 102 111.398438 C 100.265625 111.398438 98.800781 110.800781 97.601562 109.601562 C 96.265625 108.265625 95.601562 106.734375 95.601562 105 C 95.601562 103.265625 96.265625 101.734375 97.601562 100.398438 C 98.800781 99.199219 100.265625 98.601562 102 98.601562 C 103.867188 98.601562 105.398438 99.199219 106.601562 100.398438 C 107.933594 101.734375 108.601562 103.265625 108.601562 105 "/>
<path style=" stroke:none;fill-rule:nonzero;fill:rgb(80%,80%,80%);fill-opacity:1;" d="M 89.199219 101.800781 C 89.199219 103.667969 88.601562 105.199219 87.398438 106.398438 C 86.066406 107.734375 84.535156 108.398438 82.800781 108.398438 C 81.066406 108.398438 79.535156 107.734375 78.199219 106.398438 C 76.867188 105.199219 76.199219 103.667969 76.199219 101.800781 C 76.199219 100.066406 76.867188 98.535156 78.199219 97.199219 C 79.398438 96 80.933594 95.398438 82.800781 95.398438 C 84.667969 95.398438 86.199219 96 87.398438 97.199219 C 88.601562 98.535156 89.199219 100.066406 89.199219 101.800781 "/>
<path style=" stroke:none;fill-rule:nonzero;fill:rgb(80%,80%,80%);fill-opacity:1;" d="M 74.601562 69 C 75.667969 71.933594 73.933594 74.667969 69.398438 77.199219 L 59.199219 82 C 55.734375 84.132812 53 88.867188 51 96.199219 L 50.601562 103.199219 L 50.199219 110.199219 L 46.199219 118.398438 C 44.066406 120.933594 41.667969 122.867188 39 124.199219 C 35.667969 125.667969 33.132812 126.265625 31.398438 126 L 28.199219 124.199219 L 26.199219 121.601562 L 30.601562 112.601562 L 31.601562 105.800781 L 31.398438 98.800781 L 31.199219 89.398438 C 31.199219 85.667969 31.601562 82.535156 32.398438 80 C 33.199219 77.734375 34.667969 75.199219 36.800781 72.398438 C 39.066406 69.332031 41.132812 67.398438 43 66.601562 L 37.601562 66.199219 L 32 66.800781 L 22.601562 66.800781 L 29.398438 62.601562 C 31.265625 61.535156 33.734375 60.398438 36.800781 59.199219 L 49.800781 57.398438 L 54.800781 58.398438 L 59.800781 58.601562 L 63 57 C 66.464844 55.800781 68.535156 56.667969 69.199219 59.601562 C 69.601562 61.464844 70.199219 62.867188 71 63.800781 L 72.800781 65.800781 L 74.601562 69 "/>
<path style=" stroke:none;fill-rule:nonzero;fill:rgb(70.196078%,70.196078%,70.196078%);fill-opacity:1;" d="M 217 102.199219 C 225.535156 108.867188 231.601562 117.132812 235.199219 127 L 233 126.601562 C 231.800781 127 231.265625 127.464844 231.398438 128 C 226.332031 114.398438 216.933594 104.066406 203.199219 97 C 195.601562 93.132812 187.667969 90.734375 179.398438 89.800781 L 181 93.601562 C 181.398438 94.398438 180.265625 94.867188 177.601562 95 C 175.464844 93.535156 171.464844 91.667969 165.601562 89.398438 L 161 89.800781 L 152.601562 88.398438 L 145.199219 82.601562 C 144.933594 82.332031 145.667969 81.734375 147.398438 80.800781 C 153.132812 80 158.464844 80.933594 163.398438 83.601562 L 170.199219 87.199219 L 174 87.199219 L 178.199219 87.398438 L 188.800781 89 C 199.867188 91.800781 209.265625 96.199219 217 102.199219 M 155.398438 86 C 157.667969 87.332031 159.734375 87.933594 161.601562 87.800781 C 156.535156 85.800781 152.867188 84 150.601562 82.398438 L 155.398438 86 "/>
<path style=" stroke:none;fill-rule:nonzero;fill:rgb(94.901961%,94.901961%,94.901961%);fill-opacity:1;" d="M 23.800781 128.601562 C 25 121.933594 29.398438 117.464844 37 115.199219 L 56.800781 114.398438 C 60.132812 114.933594 66.535156 118.132812 76 124 C 86 130.132812 90 134.066406 88 135.800781 C 94.132812 130.867188 99.199219 127.933594 103.199219 127 C 108.535156 125.800781 114.332031 126.800781 120.601562 130 C 126.066406 132.800781 131 137.535156 135.398438 144.199219 C 140.464844 151.667969 141.867188 158 139.601562 163.199219 C 138.265625 166.398438 134.332031 169.667969 127.800781 173 C 121.933594 175.933594 117 177.535156 113 177.800781 C 102.199219 178.332031 93.535156 176.933594 87 173.601562 L 78 166.800781 C 75.332031 164.667969 72.066406 164.199219 68.199219 165.398438 L 58.199219 170 L 46.800781 170.199219 C 40.933594 168.867188 35.933594 165.667969 31.800781 160.601562 C 27.933594 155.933594 25.332031 150.332031 24 143.800781 C 22.933594 138.464844 22.867188 133.398438 23.800781 128.601562 "/>
<path style=" stroke:none;fill-rule:nonzero;fill:rgb(70.196078%,70.196078%,70.196078%);fill-opacity:1;" d="M 67.601562 117.601562 L 78.800781 123.398438 C 83.332031 125.933594 86.601562 128.535156 88.601562 131.199219 L 90.800781 133.398438 C 91.734375 131.800781 93.332031 130.464844 95.601562 129.398438 C 107.464844 124.066406 117.535156 124.734375 125.800781 131.398438 C 132.601562 136.734375 137.464844 142.734375 140.398438 149.398438 C 144.398438 158.066406 142.867188 164.667969 135.800781 169.199219 C 125.132812 176.132812 113.601562 179.199219 101.199219 178.398438 C 92.933594 177.734375 85.066406 174.464844 77.601562 168.601562 C 74 165.800781 70.132812 165.265625 66 167 L 55.601562 171.199219 C 47.199219 172.265625 39.933594 170.132812 33.800781 164.800781 C 28.464844 160 24.535156 153.199219 22 144.398438 C 20.800781 135.066406 22.332031 127.667969 26.601562 122.199219 C 29.265625 114.199219 35.667969 111 45.800781 112.601562 C 41.933594 112.867188 38.199219 113.933594 34.601562 115.800781 C 31.265625 117.535156 28.601562 119.667969 26.601562 122.199219 C 24.867188 127.265625 24.667969 134.332031 26 143.398438 C 28.933594 154.066406 33.867188 161.132812 40.800781 164.601562 C 47.601562 167.800781 56.734375 167.867188 68.199219 164.800781 L 78.398438 165 L 87.601562 171.800781 C 91.199219 173.933594 94.800781 175.265625 98.398438 175.800781 C 108.535156 177.265625 118.199219 175.933594 127.398438 171.800781 C 138.199219 167 141.398438 160.066406 137 151 C 131.800781 140.601562 125.265625 133.800781 117.398438 130.601562 C 108.332031 127 99 128.800781 89.398438 136 L 87.398438 136.398438 L 86 136.199219 C 86.800781 134.734375 83.667969 131.464844 76.601562 126.398438 C 69 120.933594 61.332031 116.933594 53.601562 114.398438 L 45.800781 112.601562 C 52.601562 111.933594 59.867188 113.601562 67.601562 117.601562 "/>
<path style=" stroke:none;fill-rule:nonzero;fill:rgb(80%,80%,80%);fill-opacity:1;" d="M 58.398438 156.398438 C 53.734375 154.800781 51.464844 152.332031 51.601562 149 C 51.734375 145.398438 53.933594 143.398438 58.199219 143 C 62.199219 142.464844 65.535156 143.332031 68.199219 145.601562 C 71.132812 148.132812 71.265625 151.199219 68.601562 154.800781 C 66.464844 157.601562 63.066406 158.132812 58.398438 156.398438 "/>
<path style=" stroke:none;fill-rule:nonzero;fill:rgb(80%,80%,80%);fill-opacity:1;" d="M 93.800781 157.199219 C 94.066406 155.464844 95.132812 154 97 152.800781 C 98.867188 151.601562 101 151.132812 103.398438 151.398438 C 105.800781 151.667969 107.667969 152.667969 109 154.398438 C 110.601562 156 111.464844 157.667969 111.601562 159.398438 C 111.734375 161.398438 110.867188 163 109 164.199219 L 106 165.199219 L 101.199219 164.800781 C 98.667969 164.265625 96.800781 163.464844 95.601562 162.398438 C 94 160.933594 93.398438 159.199219 93.800781 157.199219 "/>
<path style=" stroke:none;fill-rule:nonzero;fill:rgb(94.901961%,94.901961%,94.901961%);fill-opacity:1;" d="M 139.398438 39.800781 L 138.398438 52.601562 C 138.398438 61 138.132812 66.332031 137.601562 68.601562 C 137.199219 70.332031 137.265625 72.066406 137.800781 73.800781 C 138.199219 75.667969 139.132812 76.800781 140.601562 77.199219 L 104.601562 68.601562 C 107.132812 68.734375 110.199219 65.734375 113.800781 59.601562 L 119.800781 45.800781 C 124.066406 38.199219 126.800781 32.464844 128 28.601562 L 128.800781 25 C 129.199219 23.535156 129.867188 22.601562 130.800781 22.199219 C 132.265625 21.535156 133.867188 21.867188 135.601562 23.199219 C 137.066406 24.265625 138 25.535156 138.398438 27 C 139.332031 30.066406 139.667969 34.332031 139.398438 39.800781 "/>
<path style=" stroke:none;fill-rule:nonzero;fill:rgb(70.196078%,70.196078%,70.196078%);fill-opacity:1;" d="M 142.199219 77.800781 L 139.601562 78.199219 L 136.398438 75.398438 L 135.601562 71 L 135.800781 62.199219 L 136.398438 53.199219 L 137.398438 37 L 136.398438 27.601562 C 132.132812 24.535156 130 24.800781 130 28.398438 C 124.933594 41.332031 119.867188 52.199219 114.800781 61 C 112 65.800781 108.667969 68.601562 104.800781 69.398438 L 102.800781 69 L 104.398438 67.800781 C 107.199219 67.265625 109.800781 64.734375 112.199219 60.199219 L 116.398438 49.601562 L 121.800781 39.398438 L 126.199219 29 C 126.734375 26.066406 127.464844 24.066406 128.398438 23 C 129.464844 21.933594 131.332031 21.265625 134 21 C 140.132812 20.464844 142.464844 28.933594 141 46.398438 C 139.398438 65.199219 140 75.265625 142.800781 76.601562 C 143.464844 76.867188 143.265625 77.265625 142.199219 77.800781 "/>
<path style=" stroke:none;fill-rule:nonzero;fill:rgb(100%,100%,100%);fill-opacity:1;" d="M 158 68.199219 C 169.464844 76.601562 176.535156 85.199219 179.199219 94 L 161.800781 84.398438 C 155.667969 81.199219 150.734375 80.332031 147 81.800781 L 138.199219 65.199219 L 149.601562 64.601562 C 152.667969 65 155.464844 66.199219 158 68.199219 "/>
<path style=" stroke:none;fill-rule:nonzero;fill:rgb(70.196078%,70.196078%,70.196078%);fill-opacity:1;" d="M 157.398438 65.800781 C 162.601562 68.332031 167.398438 72.265625 171.800781 77.601562 C 175.933594 82.535156 179 87.800781 181 93.398438 L 181 93.601562 L 179.601562 95 L 177.398438 94.800781 C 163.265625 85.066406 153.265625 81.066406 147.398438 82.800781 L 145.398438 82.398438 C 145.265625 81.734375 145.734375 81.265625 146.800781 81 C 151.734375 79.535156 157.734375 80.398438 164.800781 83.601562 L 175.199219 89.398438 C 171.199219 81.535156 164.867188 74.667969 156.199219 68.800781 C 153.535156 67.066406 150.535156 66.066406 147.199219 65.800781 L 137.398438 66.199219 C 136.199219 66.332031 136 66 136.800781 65.199219 C 137.464844 64.535156 138.199219 64.199219 139 64.199219 L 148.398438 63.800781 C 151.734375 63.800781 154.734375 64.464844 157.398438 65.800781 "/>
<path style=" stroke:none;fill-rule:nonzero;fill:rgb(94.901961%,94.901961%,94.901961%);fill-opacity:1;" d="M 63 62 C 67.800781 60.800781 71.332031 58.199219 73.601562 54.199219 L 78.800781 41.601562 L 83 28.398438 C 85 22.933594 87.332031 19.132812 90 17 C 92.132812 18.464844 93.199219 21.734375 93.199219 26.800781 L 92.800781 38 L 91.800781 53.199219 C 91.667969 59.734375 93.332031 64.132812 96.800781 66.398438 L 63 62 "/>
<path style=" stroke:none;fill-rule:nonzero;fill:rgb(70.196078%,70.196078%,70.196078%);fill-opacity:1;" d="M 91.800781 16.199219 C 95.667969 20.199219 96.535156 28.464844 94.398438 41 C 92.265625 53.265625 93.601562 61.332031 98.398438 65.199219 C 99.199219 65.867188 99.066406 66.535156 98 67.199219 L 95.398438 67.398438 C 92.601562 65.132812 90.867188 61.933594 90.199219 57.800781 C 89.667969 55.132812 89.667969 51.332031 90.199219 46.398438 L 91.800781 31.398438 C 91.933594 26.332031 91.265625 22.535156 89.800781 20 C 86.867188 24.132812 83.667969 31.734375 80.199219 42.800781 C 76.734375 54.132812 71.066406 60.933594 63.199219 63.199219 C 62.132812 63.601562 61.464844 63.398438 61.199219 62.601562 C 60.933594 61.667969 61.398438 61 62.601562 60.601562 C 69.265625 58.601562 74.265625 52 77.601562 40.800781 C 81.734375 27.464844 85.332031 19.332031 88.398438 16.398438 L 91.800781 16.199219 "/>
<path style=" stroke:none;fill-rule:nonzero;fill:rgb(80%,80%,80%);fill-opacity:1;" d="M 201 122.199219 C 196.734375 109.535156 197 100.332031 201.800781 94.601562 C 209.265625 97.933594 215.800781 102.464844 221.398438 108.199219 C 227.398438 114.332031 231.332031 120.800781 233.199219 127.601562 C 235.734375 136.132812 237.132812 147.933594 237.398438 163 C 228.464844 159.535156 220.933594 154.199219 214.800781 147 C 209.199219 141 204.601562 132.734375 201 122.199219 "/>
</g>
</svg>
