<?xml version="1.0" encoding="UTF-8"?>
<svg xmlns="http://www.w3.org/2000/svg" xmlns:xlink="http://www.w3.org/1999/xlink" width="296pt" height="292pt" viewBox="0 0 296 292" version="1.1">
<g id="surface1">
<path style=" stroke:none;fill-rule:nonzero;fill:rgb(0%,0%,0%);fill-opacity:1;" d="M 249.398438 42.800781 C 257.933594 51.199219 262.199219 61.464844 262.199219 73.601562 C 262.199219 84.535156 258.601562 94.132812 251.398438 102.398438 C 262.734375 103.066406 272.332031 107.601562 280.199219 116 C 288.199219 124.398438 292.199219 134.398438 292.199219 146 C 292.199219 157.464844 288.199219 167.398438 280.199219 175.800781 C 272.332031 184.199219 262.734375 188.800781 251.398438 189.601562 C 258.601562 197.601562 262.199219 207.199219 262.199219 218.398438 C 262.199219 229.601562 258.464844 239.332031 251 247.601562 C 243.535156 255.867188 234.332031 260.601562 223.398438 261.800781 L 223.800781 263 C 225.667969 268.601562 224.933594 273.800781 221.601562 278.601562 C 218.132812 283.398438 213.535156 285.800781 207.800781 285.800781 L 168.601562 285.800781 C 161.535156 289.933594 154.066406 292 146.199219 292 C 138.199219 292 130.667969 289.933594 123.601562 285.800781 L 84.398438 285.800781 C 78.667969 285.800781 74.066406 283.398438 70.601562 278.601562 C 67.265625 273.800781 66.535156 268.601562 68.398438 263 L 68.800781 261.800781 C 57.867188 260.601562 48.667969 255.867188 41.199219 247.601562 C 33.734375 239.332031 30 229.601562 30 218.398438 C 30 207.199219 33.601562 197.601562 40.800781 189.601562 C 29.464844 188.800781 19.867188 184.199219 12 175.800781 C 4 167.398438 0 157.464844 0 146 C 0 134.398438 4 124.398438 12 116 C 19.867188 107.601562 29.464844 103.066406 40.800781 102.398438 C 33.601562 94.132812 30 84.535156 30 73.601562 C 30 61.464844 34.265625 51.199219 42.800781 42.800781 C 51.332031 34.265625 61.601562 30 73.601562 30 C 84.667969 30 94.332031 33.601562 102.601562 40.800781 C 103.265625 29.332031 107.800781 19.667969 116.199219 11.800781 C 124.601562 3.933594 134.601562 0 146.199219 0 C 157.667969 0 167.601562 3.933594 176 11.800781 C 184.398438 19.667969 188.933594 29.332031 189.601562 40.800781 C 197.867188 33.601562 207.535156 30 218.601562 30 C 230.601562 30 240.867188 34.265625 249.398438 42.800781 "/>
<path style=" stroke:none;fill-rule:nonzero;fill:rgb(100%,100%,100%);fill-opacity:1;" d="M 174.800781 64 L 176.601562 63.800781 L 179.800781 64.398438 C 181.667969 65.066406 183 66.199219 183.800781 67.800781 C 185.265625 59.398438 189.265625 52.398438 195.800781 46.800781 C 202.332031 41.199219 209.933594 38.398438 218.601562 38.398438 C 228.332031 38.398438 236.601562 41.867188 243.398438 48.800781 C 250.199219 55.601562 253.601562 63.867188 253.601562 73.601562 C 253.601562 82.265625 250.800781 89.867188 245.199219 96.398438 C 239.734375 102.800781 232.800781 106.734375 224.398438 108.199219 L 227.601562 112.199219 C 228.398438 113.800781 228.601562 115.535156 228.199219 117.398438 C 234.066406 113 240.867188 110.800781 248.601562 110.800781 C 258.199219 110.800781 266.464844 114.265625 273.398438 121.199219 C 280.199219 128 283.601562 136.265625 283.601562 146 C 283.601562 155.734375 280.199219 164 273.398438 170.800781 C 266.464844 177.734375 258.199219 181.199219 248.601562 181.199219 C 241.132812 181.199219 234.332031 179 228.199219 174.601562 L 227.601562 179.800781 C 227.066406 181.398438 226 182.734375 224.398438 183.800781 C 232.800781 185.265625 239.734375 189.199219 245.199219 195.601562 C 250.800781 202.132812 253.601562 209.734375 253.601562 218.398438 C 253.601562 228.132812 250.199219 236.398438 243.398438 243.199219 C 236.601562 250.132812 228.332031 253.601562 218.601562 253.601562 L 211.199219 252.800781 L 215.800781 266 C 216.867188 268.667969 216.535156 271.199219 214.800781 273.601562 C 213.199219 276 210.867188 277.199219 207.800781 277.199219 L 166.199219 277.199219 C 160.066406 281.464844 153.398438 283.601562 146.199219 283.601562 C 139 283.601562 132.332031 281.464844 126.199219 277.199219 L 84.398438 277.199219 C 81.332031 277.199219 79.066406 276 77.601562 273.601562 C 76 271.332031 75.601562 268.800781 76.398438 266 L 81 252.800781 L 73.601562 253.601562 C 64 253.601562 55.800781 250.132812 49 243.199219 C 42.066406 236.398438 38.601562 228.132812 38.601562 218.398438 C 38.601562 209.734375 41.398438 202.132812 47 195.601562 C 52.464844 189.199219 59.398438 185.265625 67.800781 183.800781 C 66.199219 182.734375 65.132812 181.398438 64.601562 179.800781 C 63.800781 178.066406 63.601562 176.332031 64 174.601562 C 57.867188 179 51.066406 181.199219 43.601562 181.199219 C 34 181.199219 25.800781 177.734375 19 170.800781 C 12.066406 164 8.601562 155.734375 8.601562 146 C 8.601562 136.265625 12.066406 128 19 121.199219 C 25.800781 114.265625 34 110.800781 43.601562 110.800781 C 51.332031 110.800781 58.132812 113 64 117.398438 C 63.601562 115.535156 63.800781 113.800781 64.601562 112.199219 C 65.132812 110.734375 66.199219 109.398438 67.800781 108.199219 C 59.398438 106.734375 52.464844 102.800781 47 96.398438 C 41.398438 89.867188 38.601562 82.265625 38.601562 73.601562 C 38.601562 63.867188 42.066406 55.601562 49 48.800781 C 55.800781 41.867188 64 38.398438 73.601562 38.398438 C 82.265625 38.398438 89.867188 41.199219 96.398438 46.800781 C 102.933594 52.398438 106.933594 59.398438 108.398438 67.800781 C 109.199219 66.199219 110.535156 65.066406 112.398438 64.398438 L 115.601562 63.800781 L 117.601562 64 C 113.199219 57.867188 111 51.066406 111 43.601562 C 111 33.867188 114.464844 25.601562 121.398438 18.800781 C 128.199219 11.867188 136.464844 8.398438 146.199219 8.398438 C 155.800781 8.398438 164.066406 11.867188 171 18.800781 C 177.800781 25.601562 181.199219 33.867188 181.199219 43.601562 C 181.199219 51.066406 179.066406 57.867188 174.800781 64 "/>
<path style=" stroke:none;fill-rule:nonzero;fill:rgb(90.196078%,96.078431%,34.117647%);fill-opacity:1;" d="M 217 119.398438 L 215 114.601562 L 219.800781 115.398438 L 217 119.398438 "/>
<path style="fill:none;stroke-width:1;stroke-linecap:butt;stroke-linejoin:miter;stroke:rgb(80%,83.921569%,10.196078%);stroke-opacity:1;stroke-miterlimit:4;" d="M 54.25 29.849609 L 53.75 28.650391 L 54.950195 28.849609 Z M 54.25 29.849609 " transform="matrix(4,0,0,4,0,0)"/>
<path style=" stroke:none;fill-rule:nonzero;fill:rgb(90.196078%,96.078431%,34.117647%);fill-opacity:1;" d="M 119.601562 75.199219 L 114.800781 77.199219 L 115.601562 72.199219 L 119.601562 75.199219 "/>
<path style="fill:none;stroke-width:1;stroke-linecap:butt;stroke-linejoin:miter;stroke:rgb(80%,83.921569%,10.196078%);stroke-opacity:1;stroke-miterlimit:4;" d="M 29.900391 18.799805 L 28.700195 19.299805 L 28.900391 18.049805 Z M 29.900391 18.799805 " transform="matrix(4,0,0,4,0,0)"/>
<path style=" stroke:none;fill-rule:nonzero;fill:rgb(90.196078%,96.078431%,34.117647%);fill-opacity:1;" d="M 75.199219 172.398438 L 77.199219 177.398438 L 72.398438 176.601562 L 75.199219 172.398438 "/>
<path style="fill:none;stroke-width:1;stroke-linecap:butt;stroke-linejoin:miter;stroke:rgb(80%,83.921569%,10.196078%);stroke-opacity:1;stroke-miterlimit:4;" d="M 18.799805 43.099609 L 19.299805 44.349609 L 18.099609 44.150391 Z M 18.799805 43.099609 " transform="matrix(4,0,0,4,0,0)"/>
<path style=" stroke:none;fill-rule:nonzero;fill:rgb(90.196078%,96.078431%,34.117647%);fill-opacity:1;" d="M 172.601562 216.800781 L 177.398438 214.800781 L 176.601562 219.800781 L 172.601562 216.800781 "/>
<path style="fill:none;stroke-width:1;stroke-linecap:butt;stroke-linejoin:miter;stroke:rgb(80%,83.921569%,10.196078%);stroke-opacity:1;stroke-miterlimit:4;" d="M 43.150391 54.200195 L 44.349609 53.700195 L 44.150391 54.950195 Z M 43.150391 54.200195 " transform="matrix(4,0,0,4,0,0)"/>
<path style=" stroke:none;fill-rule:nonzero;fill:rgb(90.196078%,96.078431%,34.117647%);fill-opacity:1;" d="M 177.398438 77.199219 L 172.601562 75.199219 L 176.601562 72.199219 L 177.398438 77.199219 "/>
<path style="fill:none;stroke-width:1;stroke-linecap:butt;stroke-linejoin:miter;stroke:rgb(80%,83.921569%,10.196078%);stroke-opacity:1;stroke-miterlimit:4;" d="M 44.349609 19.299805 L 43.150391 18.799805 L 44.150391 18.049805 Z M 44.349609 19.299805 " transform="matrix(4,0,0,4,0,0)"/>
<path style=" stroke:none;fill-rule:nonzero;fill:rgb(90.196078%,96.078431%,34.117647%);fill-opacity:1;" d="M 77.199219 114.601562 L 75.199219 119.398438 L 72.398438 115.398438 L 77.199219 114.601562 "/>
<path style="fill:none;stroke-width:1;stroke-linecap:butt;stroke-linejoin:miter;stroke:rgb(80%,83.921569%,10.196078%);stroke-opacity:1;stroke-miterlimit:4;" d="M 19.299805 28.650391 L 18.799805 29.849609 L 18.099609 28.849609 Z M 19.299805 28.650391 " transform="matrix(4,0,0,4,0,0)"/>
<path style=" stroke:none;fill-rule:nonzero;fill:rgb(90.196078%,96.078431%,34.117647%);fill-opacity:1;" d="M 114.800781 214.800781 L 119.601562 216.800781 L 115.601562 219.800781 L 114.800781 214.800781 "/>
<path style="fill:none;stroke-width:1;stroke-linecap:butt;stroke-linejoin:miter;stroke:rgb(80%,83.921569%,10.196078%);stroke-opacity:1;stroke-miterlimit:4;" d="M 28.700195 53.700195 L 29.900391 54.200195 L 28.900391 54.950195 Z M 28.700195 53.700195 " transform="matrix(4,0,0,4,0,0)"/>
<path style=" stroke:none;fill-rule:nonzero;fill:rgb(90.196078%,96.078431%,34.117647%);fill-opacity:1;" d="M 215 177.398438 L 217 172.398438 L 219.800781 176.601562 L 215 177.398438 "/>
<path style="fill:none;stroke-width:1;stroke-linecap:butt;stroke-linejoin:miter;stroke:rgb(80%,83.921569%,10.196078%);stroke-opacity:1;stroke-miterlimit:4;" d="M 53.75 44.349609 L 54.25 43.099609 L 54.950195 44.150391 Z M 53.75 44.349609 " transform="matrix(4,0,0,4,0,0)"/>
<path style=" stroke:none;fill-rule:nonzero;fill:rgb(90.196078%,96.078431%,34.117647%);fill-opacity:1;" d="M 207.800781 268.800781 L 84.398438 268.800781 L 110 196.398438 L 182.199219 196.398438 L 207.800781 268.800781 "/>
<path style=" stroke:none;fill-rule:nonzero;fill:rgb(80%,83.921569%,10.196078%);fill-opacity:1;" d="M 82.601562 268.601562 L 108.199219 196.199219 C 108.464844 195.398438 109.132812 195 110.199219 195 L 182.398438 195 L 184.199219 196 L 209.800781 268.199219 L 209.199219 269.601562 L 207.601562 270.199219 L 84.199219 270.199219 C 82.734375 270.199219 82.199219 269.667969 82.601562 268.601562 M 176 197.800781 L 111.398438 197.800781 L 86.800781 267.398438 L 205.199219 267.398438 L 181.601562 200.800781 L 180.601562 197.601562 L 176 197.800781 "/>
<path style=" stroke:none;fill-rule:nonzero;fill:rgb(90.196078%,96.078431%,34.117647%);fill-opacity:1;" d="M 113 179.199219 C 122.199219 188.398438 133.265625 193 146.199219 193 C 159.132812 193 170.132812 188.398438 179.199219 179.199219 C 188.398438 170 193 158.933594 193 146 C 193 133.066406 188.398438 122 179.199219 112.800781 C 170.132812 103.601562 159.132812 99 146.199219 99 C 133.265625 99 122.199219 103.601562 113 112.800781 C 103.800781 122 99.199219 133.066406 99.199219 146 C 99.199219 158.933594 103.800781 170 113 179.199219 M 214.800781 146 C 214.800781 164.933594 208.066406 181.132812 194.601562 194.601562 C 181.265625 207.933594 165.132812 214.601562 146.199219 214.601562 C 127.132812 214.601562 110.933594 207.933594 97.601562 194.601562 C 84.132812 181.132812 77.398438 164.933594 77.398438 146 C 77.398438 127.066406 84.132812 110.867188 97.601562 97.398438 C 111.066406 83.933594 127.265625 77.199219 146.199219 77.199219 C 165.132812 77.199219 181.265625 83.933594 194.601562 97.398438 C 208.066406 110.867188 214.800781 127.066406 214.800781 146 "/>
<path style=" stroke:none;fill-rule:nonzero;fill:rgb(80%,83.921569%,10.196078%);fill-opacity:1;" d="M 189 95 C 176.867188 84.464844 162.332031 78.867188 145.398438 78.199219 C 125.265625 79 108.535156 87.132812 95.199219 102.601562 C 81.332031 118.464844 76.332031 136.265625 80.199219 156 C 83.265625 172.398438 90.867188 186.132812 103 197.199219 C 115.800781 208.800781 130.398438 214.265625 146.800781 213.601562 C 166.933594 212.933594 183.734375 204.867188 197.199219 189.398438 C 210.933594 173.535156 215.867188 155.667969 212 135.800781 C 208.800781 119.132812 201.132812 105.535156 189 95 M 147.199219 76.199219 C 167.199219 77.132812 184.132812 84.667969 198 98.800781 C 212.667969 113.601562 218.867188 131 216.601562 151 C 214.464844 169.132812 206.734375 184.535156 193.398438 197.199219 C 179.535156 210.265625 163.535156 216.398438 145.398438 215.601562 C 125.265625 214.933594 108.199219 207.464844 94.199219 193.199219 C 79.535156 178.265625 73.332031 160.800781 75.601562 140.800781 C 77.734375 122.132812 85.535156 106.867188 99 95 C 112.066406 83.132812 128 76.867188 146.800781 76.199219 L 147.199219 76.199219 "/>
<path style=" stroke:none;fill-rule:nonzero;fill:rgb(80%,83.921569%,10.196078%);fill-opacity:1;" d="M 102.199219 146 C 102.734375 157.867188 106.734375 168.132812 114.199219 176.800781 C 122.601562 186.132812 133.464844 191.199219 146.800781 192 C 160.933594 191.199219 171.933594 185.800781 179.800781 175.800781 C 187 166.867188 190.398438 156.132812 190 143.601562 C 189.464844 131.199219 185.464844 120.867188 178 112.601562 C 169.734375 103.535156 158.867188 99.332031 145.398438 100 C 131.132812 100.800781 120.066406 105.867188 112.199219 115.199219 C 105.132812 123.734375 101.800781 134 102.199219 146 M 114.199219 110.199219 C 123.667969 101.398438 134.535156 97.332031 146.800781 98 C 160.933594 98.800781 172.867188 104.132812 182.601562 114 C 193 124.535156 197.066406 136.800781 194.800781 150.800781 C 192.800781 163.464844 187.199219 173.734375 178 181.601562 C 169.199219 189.199219 158.398438 193.332031 145.601562 194 L 144.800781 194 C 130.933594 193.066406 119.199219 187.667969 109.601562 177.800781 C 99.332031 167.265625 95.332031 155.066406 97.601562 141.199219 C 99.601562 128.933594 105.132812 118.601562 114.199219 110.199219 "/>
<path style=" stroke:none;fill-rule:nonzero;fill:rgb(84.705882%,87.45098%,15.294118%);fill-opacity:1;" d="M 205.601562 180.398438 L 180.398438 180.398438 L 180.398438 205.398438 L 158.601562 192.800781 L 146.199219 214.601562 L 133.601562 192.800781 L 111.800781 205.398438 L 111.800781 180.398438 L 86.601562 180.398438 L 99.199219 158.601562 L 77.398438 146 L 99.199219 133.398438 L 86.601562 111.601562 L 111.800781 111.601562 L 111.800781 86.398438 L 133.601562 99 L 146.199219 77.199219 L 158.601562 99 L 180.398438 86.398438 L 180.398438 111.601562 L 205.601562 111.601562 L 193 133.398438 L 214.800781 146 L 193 158.601562 L 205.601562 180.398438 "/>
<path style=" stroke:none;fill-rule:nonzero;fill:rgb(80%,83.921569%,10.196078%);fill-opacity:1;" d="M 181.398438 86.199219 L 181.601562 111.199219 L 206 111.199219 L 206.601562 111.398438 C 198.199219 125.800781 194.199219 133.132812 194.601562 133.398438 L 215.800781 145.601562 L 215.398438 146.199219 L 194.199219 158.601562 L 206.601562 180 C 206.867188 180.535156 206.398438 180.800781 205.199219 180.800781 L 181.398438 180.800781 L 181.398438 205.199219 L 180.601562 205.800781 L 179.601562 205.800781 C 165.734375 198.066406 158.933594 193.933594 159.199219 193.398438 L 147 214.601562 L 146.199219 215.199219 L 145.199219 215 L 138.398438 203.398438 C 134.667969 197 133.066406 193.667969 133.601562 193.398438 L 112.398438 205.601562 L 111.601562 206 L 110.800781 205.800781 L 110.601562 180.800781 L 86.199219 180.800781 L 85.601562 180.398438 L 92.601562 168.800781 L 97.601562 158.601562 L 76.601562 146.398438 L 76.800781 145.800781 L 88.398438 139.199219 L 97.800781 133 L 85.601562 111.800781 C 85.464844 111.398438 85.933594 111.199219 87 111.199219 L 110.800781 111.199219 L 110.800781 86.800781 L 111.601562 86 L 112.601562 86.199219 C 126.464844 93.933594 133.265625 98.066406 133 98.601562 L 145.199219 77.398438 L 146.199219 76.800781 L 147 77 C 155.535156 90.867188 159.464844 98 158.800781 98.398438 L 179.800781 86.199219 L 181.398438 86.199219 M 157.800781 99.398438 L 150.601562 88 C 147.265625 82.667969 146 79.332031 146.800781 78 L 134.398438 98.800781 L 133.601562 99.398438 L 132.601562 99.398438 L 121 93 C 115.535156 89.933594 112.800781 87.933594 112.800781 87 L 112.800781 111.398438 L 111.398438 112 L 98 112.398438 L 88 112 L 100.199219 133.199219 L 99.800781 133.601562 L 88.601562 140.800781 C 82.601562 144.535156 79.398438 146.265625 79 146 L 100 158.199219 L 100.199219 158.398438 L 94.199219 170.199219 C 90.867188 176.601562 88.734375 179.800781 87.800781 179.800781 L 112.199219 179.800781 L 112.800781 180 L 113.601562 193.398438 C 113.734375 200.332031 113.132812 204.199219 111.800781 205 L 133 192.601562 C 133.535156 192.066406 134.066406 192.066406 134.601562 192.601562 L 141.800781 204 C 145.132812 209.464844 146.398438 212.867188 145.601562 214.199219 L 157.800781 193 L 158.601562 192.601562 L 159.601562 192.601562 L 171.398438 199 C 176.734375 202.066406 179.398438 204.066406 179.398438 205 L 179.398438 180.601562 C 179.398438 180.066406 179.867188 179.800781 180.800781 179.800781 L 194.199219 179.601562 L 204.199219 180 L 192 158.800781 L 192.398438 158.601562 L 192.398438 158.398438 L 203.601562 151.398438 C 209.601562 147.535156 212.800781 145.734375 213.199219 146 L 192.199219 133.800781 L 192 133.601562 L 198 121.800781 C 201.464844 115.265625 203.667969 112 204.601562 112 L 180 112 L 179.398438 111.800781 L 178.800781 98.601562 C 178.535156 91.667969 179.066406 87.800781 180.398438 87 L 159.199219 99.199219 L 157.800781 99.398438 "/>
<path style=" stroke:none;fill-rule:nonzero;fill:rgb(90.196078%,96.078431%,34.117647%);fill-opacity:1;" d="M 193 146 C 193 158.933594 188.398438 170 179.199219 179.199219 C 170.132812 188.398438 159.132812 193 146.199219 193 C 133.265625 193 122.199219 188.398438 113 179.199219 C 103.800781 170 99.199219 158.933594 99.199219 146 C 99.199219 133.066406 103.800781 122 113 112.800781 C 122.199219 103.601562 133.265625 99 146.199219 99 C 159.132812 99 170.132812 103.601562 179.199219 112.800781 C 188.398438 122 193 133.066406 193 146 "/>
<path style=" stroke:none;fill-rule:nonzero;fill:rgb(80%,83.921569%,10.196078%);fill-opacity:1;" d="M 103.398438 150 C 104.734375 159.066406 108 167.066406 113.199219 174 C 118.933594 181.601562 126 186.535156 134.398438 188.800781 C 149.332031 192.933594 162.199219 190.464844 173 181.398438 C 183 173 188.398438 161.535156 189.199219 147 L 189.199219 146.601562 C 188.535156 136.601562 185.601562 127.734375 180.398438 120 C 174.667969 111.332031 167.132812 105.734375 157.800781 103.199219 C 143.132812 99.066406 129.800781 102.066406 117.800781 112.199219 C 105.667969 122.464844 100.867188 135.066406 103.398438 150 M 112.199219 111 C 121.535156 102.867188 132.800781 98.667969 146 98.398438 C 159.332031 98 170.667969 101.667969 180 109.398438 C 190.535156 117.933594 196.199219 129.800781 197 145 L 196.800781 145.800781 C 195.867188 160.464844 190 172.199219 179.199219 181 C 169.199219 189 157.332031 193.132812 143.601562 193.398438 C 129.734375 193.800781 118.265625 190.066406 109.199219 182.199219 C 99.199219 173.667969 94.601562 161.800781 95.398438 146.601562 C 96.199219 131.800781 101.800781 119.933594 112.199219 111 "/>
<path style=" stroke:none;fill-rule:nonzero;fill:rgb(80%,83.921569%,10.196078%);fill-opacity:1;" d="M 146.199219 62 L 148 62.199219 L 148 228.800781 L 146.199219 230 L 144.199219 229.800781 L 144.199219 63.199219 C 144.199219 62.667969 144.867188 62.265625 146.199219 62 "/>
<path style=" stroke:none;fill-rule:nonzero;fill:rgb(80%,83.921569%,10.196078%);fill-opacity:1;" d="M 86.601562 86.601562 L 89 86.398438 L 206.800781 204.199219 C 207.199219 204.601562 206.800781 205.066406 205.601562 205.601562 L 203.199219 205.601562 L 85.398438 87.800781 C 85 87.398438 85.398438 87 86.601562 86.601562 "/>
<path style=" stroke:none;fill-rule:nonzero;fill:rgb(80%,83.921569%,10.196078%);fill-opacity:1;" d="M 228.601562 146.800781 L 62 146.800781 C 60.800781 146.800781 60.601562 146.535156 61.398438 146 L 63.601562 145.199219 L 230.199219 145 C 231.933594 145 231.398438 145.601562 228.601562 146.800781 "/>
<path style=" stroke:none;fill-rule:nonzero;fill:rgb(80%,83.921569%,10.196078%);fill-opacity:1;" d="M 205.601562 86.398438 C 206.800781 86.265625 207.199219 86.464844 206.800781 87 L 89 204.800781 L 85.398438 205 L 203.199219 87.199219 C 203.601562 86.800781 204.398438 86.535156 205.601562 86.398438 "/>
<path style=" stroke:none;fill-rule:nonzero;fill:rgb(98.039216%,68.627451%,23.137255%);fill-opacity:1;" d="M 172.800781 43.601562 C 172.800781 50.933594 170.199219 57.199219 165 62.398438 C 159.800781 67.601562 153.535156 70.199219 146.199219 70.199219 C 138.867188 70.199219 132.535156 67.601562 127.199219 62.398438 C 122 57.199219 119.398438 50.933594 119.398438 43.601562 C 119.398438 36.265625 122 30 127.199219 24.800781 C 132.398438 19.601562 138.734375 17 146.199219 17 C 153.535156 17 159.800781 19.601562 165 24.800781 C 170.199219 30 172.800781 36.265625 172.800781 43.601562 "/>
<path style=" stroke:none;fill-rule:nonzero;fill:rgb(96.470588%,57.254902%,12.941176%);fill-opacity:1;" d="M 148.601562 17.800781 C 141.132812 17.398438 134.535156 19.667969 128.800781 24.601562 C 122.800781 29.667969 120 35.933594 120.398438 43.398438 C 120.800781 50.066406 123.066406 55.867188 127.199219 60.800781 C 131.601562 66.132812 137.066406 69 143.601562 69.398438 C 151.464844 69.800781 158.066406 67.535156 163.398438 62.601562 C 168.601562 57.667969 171.398438 51.332031 171.800781 43.601562 C 171.398438 37.066406 169.132812 31.332031 165 26.398438 C 160.601562 21.066406 155.132812 18.199219 148.601562 17.800781 M 164.601562 23.601562 C 170.199219 28.398438 173.265625 35 173.800781 43.398438 L 173.800781 43.601562 C 173.265625 51.332031 170.464844 57.734375 165.398438 62.800781 C 160.332031 67.734375 153.867188 70.398438 146 70.800781 C 138.800781 71.199219 132.332031 68.601562 126.601562 63 C 120.867188 57.265625 118.199219 50.800781 118.601562 43.601562 C 119 35.332031 122.066406 28.734375 127.800781 23.800781 C 132.867188 19.265625 139 17 146.199219 17 C 153.398438 17 159.535156 19.199219 164.601562 23.601562 "/>
<path style=" stroke:none;fill-rule:nonzero;fill:rgb(70.980392%,100%,100%);fill-opacity:1;" d="M 164.800781 33.601562 C 166.933594 36.667969 168.265625 40 168.800781 43.601562 L 156.601562 43.601562 L 156.601562 26.601562 C 159.800781 28.199219 162.535156 30.535156 164.800781 33.601562 M 146.199219 24 L 152.199219 24.800781 L 152.199219 43.601562 L 140 43.601562 L 140 24.800781 L 146.199219 24 M 127.398438 33.601562 C 129.667969 30.535156 132.398438 28.199219 135.601562 26.601562 L 135.601562 43.601562 L 123.398438 43.601562 C 123.933594 40 125.265625 36.667969 127.398438 33.601562 "/>
<path style=" stroke:none;fill-rule:nonzero;fill:rgb(98.039216%,68.627451%,23.137255%);fill-opacity:1;" d="M 92.601562 54.800781 C 97.800781 60 100.398438 66.265625 100.398438 73.601562 C 100.398438 80.933594 97.800781 87.199219 92.601562 92.398438 C 87.265625 97.601562 80.933594 100.199219 73.601562 100.199219 C 66.265625 100.199219 60 97.601562 54.800781 92.398438 C 49.601562 87.199219 47 80.933594 47 73.601562 C 47 66.265625 49.601562 60 54.800781 54.800781 C 60 49.601562 66.265625 47 73.601562 47 C 81.066406 47 87.398438 49.601562 92.601562 54.800781 "/>
<path style=" stroke:none;fill-rule:nonzero;fill:rgb(96.470588%,57.254902%,12.941176%);fill-opacity:1;" d="M 101.398438 73.601562 C 100.867188 81.332031 98.066406 87.734375 93 92.800781 C 87.800781 97.734375 81.332031 100.398438 73.601562 100.800781 C 66.398438 101.199219 59.933594 98.601562 54.199219 93 C 48.464844 87.265625 45.734375 80.800781 46 73.601562 C 46.535156 65.332031 49.601562 58.734375 55.199219 53.800781 C 60.398438 49.265625 66.601562 47 73.800781 47 C 81 47 87.132812 49.199219 92.199219 53.601562 C 97.800781 58.398438 100.867188 65 101.398438 73.398438 L 101.398438 73.601562 M 48 73.398438 C 48.398438 80.066406 50.667969 85.867188 54.800781 90.800781 C 59.199219 96.132812 64.667969 99 71.199219 99.398438 C 79.066406 99.800781 85.667969 97.535156 91 92.601562 C 96.199219 87.667969 99 81.332031 99.398438 73.601562 C 99 67.066406 96.734375 61.332031 92.601562 56.398438 C 88.199219 51.066406 82.734375 48.199219 76.199219 47.800781 C 68.734375 47.398438 62.132812 49.667969 56.398438 54.601562 C 50.398438 59.667969 47.601562 65.933594 48 73.398438 "/>
<path style=" stroke:none;fill-rule:nonzero;fill:rgb(70.980392%,100%,100%);fill-opacity:1;" d="M 79.800781 54.800781 L 79.800781 73.601562 L 67.601562 73.601562 L 67.601562 54.800781 L 73.601562 54 L 79.800781 54.800781 M 63.199219 56.601562 L 63.199219 73.601562 L 51 73.601562 C 51.535156 70 52.867188 66.667969 55 63.601562 C 57.265625 60.535156 60 58.199219 63.199219 56.601562 M 92.398438 63.601562 C 94.535156 66.667969 95.867188 70 96.398438 73.601562 L 84.199219 73.601562 L 84.199219 56.601562 C 87.398438 58.199219 90.132812 60.535156 92.398438 63.601562 "/>
<path style=" stroke:none;fill-rule:nonzero;fill:rgb(98.039216%,68.627451%,23.137255%);fill-opacity:1;" d="M 92.601562 199.601562 C 97.800781 204.800781 100.398438 211.066406 100.398438 218.398438 C 100.398438 225.734375 97.800781 232 92.601562 237.199219 C 87.265625 242.398438 80.933594 245 73.601562 245 C 66.265625 245 60 242.398438 54.800781 237.199219 C 49.601562 232 47 225.734375 47 218.398438 C 47 211.066406 49.601562 204.800781 54.800781 199.601562 C 60 194.398438 66.265625 191.800781 73.601562 191.800781 C 81.066406 191.800781 87.398438 194.398438 92.601562 199.601562 "/>
<path style=" stroke:none;fill-rule:nonzero;fill:rgb(96.470588%,57.254902%,12.941176%);fill-opacity:1;" d="M 76.199219 192.601562 C 68.734375 192.199219 62.132812 194.464844 56.398438 199.398438 C 50.398438 204.464844 47.601562 210.800781 48 218.398438 C 48.398438 224.933594 50.667969 230.667969 54.800781 235.601562 C 59.199219 240.933594 64.667969 243.800781 71.199219 244.199219 C 79.066406 244.601562 85.667969 242.332031 91 237.398438 C 96.199219 232.464844 99 226.132812 99.398438 218.398438 C 99 211.867188 96.734375 206.132812 92.601562 201.199219 C 88.199219 195.867188 82.734375 193 76.199219 192.601562 M 73.800781 191.800781 C 80.867188 191.800781 87 194 92.199219 198.398438 C 97.800781 203.332031 100.867188 210 101.398438 218.398438 L 101.398438 218.601562 C 100.867188 226.199219 98.066406 232.535156 93 237.601562 C 87.933594 242.535156 81.464844 245.265625 73.601562 245.800781 C 66.398438 246.066406 59.933594 243.398438 54.199219 237.800781 C 48.464844 232.199219 45.734375 225.734375 46 218.398438 C 46.535156 210.132812 49.601562 203.535156 55.199219 198.601562 C 60.398438 194.066406 66.601562 191.800781 73.800781 191.800781 "/>
<path style=" stroke:none;fill-rule:nonzero;fill:rgb(70.980392%,100%,100%);fill-opacity:1;" d="M 92.398438 208.398438 C 94.535156 211.464844 95.867188 214.800781 96.398438 218.398438 L 84.199219 218.398438 L 84.199219 201.398438 C 87.398438 203 90.132812 205.332031 92.398438 208.398438 M 79.800781 199.601562 L 79.800781 218.398438 L 67.601562 218.398438 L 67.601562 199.601562 L 73.601562 198.800781 L 79.800781 199.601562 M 63.199219 201.398438 L 63.199219 218.398438 L 51 218.398438 C 51.535156 214.800781 52.867188 211.464844 55 208.398438 C 57.265625 205.332031 60 203 63.199219 201.398438 "/>
<path style=" stroke:none;fill-rule:nonzero;fill:rgb(98.039216%,68.627451%,23.137255%);fill-opacity:1;" d="M 199.601562 54.800781 C 204.800781 49.601562 211.132812 47 218.601562 47 C 225.933594 47 232.199219 49.601562 237.398438 54.800781 C 242.601562 60 245.199219 66.265625 245.199219 73.601562 C 245.199219 80.933594 242.601562 87.199219 237.398438 92.398438 C 232.199219 97.601562 225.933594 100.199219 218.601562 100.199219 C 211.265625 100.199219 204.933594 97.601562 199.601562 92.398438 C 194.398438 87.199219 191.800781 80.933594 191.800781 73.601562 C 191.800781 66.265625 194.398438 60 199.601562 54.800781 "/>
<path style=" stroke:none;fill-rule:nonzero;fill:rgb(96.470588%,57.254902%,12.941176%);fill-opacity:1;" d="M 192.800781 73.398438 C 193.199219 80.066406 195.464844 85.867188 199.601562 90.800781 C 204 96.132812 209.464844 99 216 99.398438 C 223.464844 99.800781 230.066406 97.535156 235.800781 92.601562 C 241.800781 87.535156 244.601562 81.199219 244.199219 73.601562 C 243.933594 67.066406 241.667969 61.332031 237.398438 56.398438 C 233 51.066406 227.535156 48.199219 221 47.800781 C 213.132812 47.398438 206.601562 49.667969 201.398438 54.601562 C 196.199219 59.398438 193.332031 65.667969 192.800781 73.398438 M 191 73.601562 L 191 73.199219 C 191.535156 65.601562 194.332031 59.332031 199.398438 54.398438 C 204.464844 49.332031 210.867188 46.601562 218.601562 46.199219 C 225.800781 45.800781 232.332031 48.464844 238.199219 54.199219 C 243.933594 59.800781 246.601562 66.199219 246.199219 73.398438 C 245.667969 81.800781 242.601562 88.398438 237 93.199219 C 231.800781 97.734375 225.667969 100 218.601562 100 C 211.398438 100.132812 205.265625 98 200.199219 93.601562 C 194.601562 88.800781 191.535156 82.332031 191 74.199219 L 191 73.601562 "/>
<path style=" stroke:none;fill-rule:nonzero;fill:rgb(70.980392%,100%,100%);fill-opacity:1;" d="M 208.199219 56.601562 L 208.199219 73.601562 L 195.800781 73.601562 C 197.132812 65.601562 201.265625 59.933594 208.199219 56.601562 M 212.398438 54.800781 L 218.601562 54 L 224.800781 54.800781 L 224.800781 73.601562 L 212.398438 73.601562 L 212.398438 54.800781 M 241.398438 73.601562 L 229 73.601562 L 229 56.601562 C 235.933594 60.066406 240.066406 65.734375 241.398438 73.601562 "/>
<path style=" stroke:none;fill-rule:nonzero;fill:rgb(98.039216%,68.627451%,23.137255%);fill-opacity:1;" d="M 199.601562 199.601562 C 204.800781 194.398438 211.132812 191.800781 218.601562 191.800781 C 225.933594 191.800781 232.199219 194.398438 237.398438 199.601562 C 242.601562 204.800781 245.199219 211.066406 245.199219 218.398438 C 245.199219 225.734375 242.601562 232 237.398438 237.199219 C 232.199219 242.398438 225.933594 245 218.601562 245 C 211.265625 245 204.933594 242.398438 199.601562 237.199219 C 194.398438 232 191.800781 225.734375 191.800781 218.398438 C 191.800781 211.066406 194.398438 204.800781 199.601562 199.601562 "/>
<path style=" stroke:none;fill-rule:nonzero;fill:rgb(96.470588%,57.254902%,12.941176%);fill-opacity:1;" d="M 238.199219 199 C 243.933594 204.734375 246.601562 211.199219 246.199219 218.398438 C 245.667969 226.667969 242.601562 233.265625 237 238.199219 C 231.800781 242.601562 225.667969 244.800781 218.601562 244.800781 C 211.398438 244.933594 205.265625 242.800781 200.199219 238.398438 C 194.601562 233.601562 191.535156 227.132812 191 219 L 191 218 C 191.535156 210.398438 194.332031 204.132812 199.398438 199.199219 C 204.464844 194.132812 210.867188 191.398438 218.601562 191 C 225.800781 190.601562 232.332031 193.265625 238.199219 199 M 237.398438 201.199219 C 233 195.867188 227.535156 193 221 192.601562 C 213.132812 192.199219 206.601562 194.464844 201.398438 199.398438 C 196.199219 204.199219 193.332031 210.535156 192.800781 218.398438 C 193.199219 224.933594 195.464844 230.667969 199.601562 235.601562 C 204 240.933594 209.464844 243.800781 216 244.199219 C 223.464844 244.601562 230.066406 242.332031 235.800781 237.398438 C 241.800781 232.332031 244.601562 226 244.199219 218.398438 C 243.933594 211.867188 241.667969 206.132812 237.398438 201.199219 "/>
<path style=" stroke:none;fill-rule:nonzero;fill:rgb(70.980392%,100%,100%);fill-opacity:1;" d="M 241.398438 218.398438 L 229 218.398438 L 229 201.398438 C 235.933594 204.867188 240.066406 210.535156 241.398438 218.398438 M 224.800781 199.601562 L 224.800781 218.398438 L 212.398438 218.398438 L 212.398438 199.601562 L 218.601562 198.800781 L 224.800781 199.601562 M 208.199219 201.398438 L 208.199219 218.398438 L 195.800781 218.398438 C 197.132812 210.398438 201.265625 204.734375 208.199219 201.398438 "/>
<path style=" stroke:none;fill-rule:nonzero;fill:rgb(98.039216%,68.627451%,23.137255%);fill-opacity:1;" d="M 172.800781 248.398438 C 172.800781 255.734375 170.199219 262 165 267.199219 C 159.800781 272.398438 153.535156 275 146.199219 275 C 138.867188 275 132.535156 272.398438 127.199219 267.199219 C 122 262 119.398438 255.734375 119.398438 248.398438 C 119.398438 241.066406 122 234.800781 127.199219 229.601562 C 132.398438 224.398438 138.734375 221.800781 146.199219 221.800781 C 153.535156 221.800781 159.800781 224.398438 165 229.601562 C 170.199219 234.800781 172.800781 241.066406 172.800781 248.398438 "/>
<path style=" stroke:none;fill-rule:nonzero;fill:rgb(96.470588%,57.254902%,12.941176%);fill-opacity:1;" d="M 148.601562 222.601562 C 141.132812 222.199219 134.535156 224.464844 128.800781 229.398438 C 122.800781 234.464844 120 240.800781 120.398438 248.398438 C 120.800781 254.933594 123.066406 260.667969 127.199219 265.601562 C 131.601562 270.933594 137.066406 273.800781 143.601562 274.199219 C 151.464844 274.601562 158.066406 272.332031 163.398438 267.398438 C 168.601562 262.464844 171.398438 256.132812 171.800781 248.398438 C 171.398438 241.867188 169.132812 236.132812 165 231.199219 C 160.601562 225.867188 155.132812 223 148.601562 222.601562 M 164.601562 228.398438 C 170.199219 233.332031 173.265625 240 173.800781 248.398438 L 173.800781 248.601562 C 173.265625 256.199219 170.464844 262.535156 165.398438 267.601562 C 160.332031 272.535156 153.867188 275.265625 146 275.800781 C 138.800781 276.066406 132.332031 273.398438 126.601562 267.800781 C 120.867188 262.066406 118.199219 255.601562 118.601562 248.398438 C 119 240.132812 122.066406 233.535156 127.800781 228.601562 C 132.867188 224.066406 139 221.800781 146.199219 221.800781 C 153.265625 221.800781 159.398438 224 164.601562 228.398438 "/>
<path style=" stroke:none;fill-rule:nonzero;fill:rgb(70.980392%,100%,100%);fill-opacity:1;" d="M 146.199219 228.800781 L 152.199219 229.601562 L 152.199219 248.398438 L 140 248.398438 L 140 229.601562 L 146.199219 228.800781 M 127.398438 238.398438 C 129.667969 235.332031 132.398438 233 135.601562 231.398438 L 135.601562 248.398438 L 123.398438 248.398438 C 123.933594 244.800781 125.265625 241.464844 127.398438 238.398438 M 168.800781 248.398438 L 156.601562 248.398438 L 156.601562 231.398438 C 159.800781 233 162.535156 235.332031 164.800781 238.398438 C 166.933594 241.464844 168.265625 244.800781 168.800781 248.398438 "/>
<path style=" stroke:none;fill-rule:nonzero;fill:rgb(98.039216%,68.627451%,23.137255%);fill-opacity:1;" d="M 70.398438 146 C 70.398438 153.332031 67.800781 159.601562 62.601562 164.800781 C 57.398438 170 51.132812 172.601562 43.800781 172.601562 C 36.464844 172.601562 30.132812 170 24.800781 164.800781 C 19.601562 159.601562 17 153.332031 17 146 C 17 138.667969 19.601562 132.398438 24.800781 127.199219 C 30 122 36.332031 119.398438 43.800781 119.398438 C 51.132812 119.398438 57.398438 122 62.601562 127.199219 C 67.800781 132.398438 70.398438 138.667969 70.398438 146 "/>
<path style=" stroke:none;fill-rule:nonzero;fill:rgb(96.470588%,57.254902%,12.941176%);fill-opacity:1;" d="M 26.398438 127 C 20.398438 132.066406 17.601562 138.332031 18 145.800781 C 18.398438 152.464844 20.667969 158.265625 24.800781 163.199219 C 29.199219 168.535156 34.667969 171.398438 41.199219 171.800781 C 49.066406 172.199219 55.667969 169.933594 61 165 C 66.199219 160.066406 69 153.734375 69.398438 146 C 69 139.464844 66.734375 133.734375 62.601562 128.800781 C 58.199219 123.464844 52.734375 120.601562 46.199219 120.199219 C 38.734375 119.800781 32.132812 122.066406 26.398438 127 M 43.800781 119.398438 C 51 119.398438 57.132812 121.601562 62.199219 126 C 67.800781 130.800781 70.867188 137.398438 71.398438 145.800781 L 71.398438 146 C 70.867188 153.734375 68.066406 160.132812 63 165.199219 C 57.800781 170.132812 51.332031 172.867188 43.601562 173.398438 C 36.398438 173.667969 29.933594 171 24.199219 165.398438 C 18.464844 159.667969 15.734375 153.199219 16 146 C 16.535156 137.734375 19.601562 131.132812 25.199219 126.199219 C 30.398438 121.667969 36.601562 119.398438 43.800781 119.398438 "/>
<path style=" stroke:none;fill-rule:nonzero;fill:rgb(70.980392%,100%,100%);fill-opacity:1;" d="M 62.398438 136 C 64.535156 139.066406 65.867188 142.398438 66.398438 146 L 54.199219 146 L 54.199219 129 C 57.398438 130.601562 60.132812 132.933594 62.398438 136 M 33.199219 129 L 33.199219 146 L 21 146 C 21.535156 142.398438 22.867188 139.066406 25 136 C 27.265625 132.933594 30 130.601562 33.199219 129 M 43.800781 126.398438 L 49.800781 127.199219 L 49.800781 146 L 37.601562 146 L 37.601562 127.199219 L 43.800781 126.398438 "/>
<path style=" stroke:none;fill-rule:nonzero;fill:rgb(98.039216%,68.627451%,23.137255%);fill-opacity:1;" d="M 229.601562 127.199219 C 234.800781 122 241.132812 119.398438 248.601562 119.398438 C 255.933594 119.398438 262.199219 122 267.398438 127.199219 C 272.601562 132.398438 275.199219 138.667969 275.199219 146 C 275.199219 153.332031 272.601562 159.601562 267.398438 164.800781 C 262.199219 170 255.933594 172.601562 248.601562 172.601562 C 241.265625 172.601562 234.933594 170 229.601562 164.800781 C 224.398438 159.601562 221.800781 153.332031 221.800781 146 C 221.800781 138.667969 224.398438 132.398438 229.601562 127.199219 "/>
<path style=" stroke:none;fill-rule:nonzero;fill:rgb(96.470588%,57.254902%,12.941176%);fill-opacity:1;" d="M 248.601562 118.601562 C 255.800781 118.199219 262.332031 120.867188 268.199219 126.601562 C 273.933594 132.199219 276.601562 138.601562 276.199219 145.800781 C 275.667969 154.199219 272.601562 160.800781 267 165.601562 C 261.800781 170.132812 255.667969 172.398438 248.601562 172.398438 C 241.398438 172.535156 235.265625 170.398438 230.199219 166 C 224.601562 161.199219 221.535156 154.734375 221 146.601562 L 221 145.601562 C 221.535156 138 224.332031 131.734375 229.398438 126.800781 C 234.464844 121.734375 240.867188 119 248.601562 118.601562 M 231.199219 127 C 226 131.800781 223.199219 138.066406 222.800781 145.800781 C 223.199219 152.464844 225.464844 158.265625 229.601562 163.199219 C 234 168.535156 239.464844 171.398438 246 171.800781 C 253.464844 172.199219 260.066406 169.933594 265.800781 165 C 271.800781 159.933594 274.601562 153.601562 274.199219 146 C 273.800781 139.464844 271.535156 133.734375 267.398438 128.800781 C 263 123.464844 257.535156 120.601562 251 120.199219 C 243.132812 119.800781 236.535156 122.066406 231.199219 127 "/>
<path style=" stroke:none;fill-rule:nonzero;fill:rgb(70.980392%,100%,100%);fill-opacity:1;" d="M 238 129 L 238 146 L 225.800781 146 C 226.332031 142.398438 227.667969 139.066406 229.800781 136 C 232.066406 132.933594 234.800781 130.601562 238 129 M 254.601562 127.199219 L 254.601562 146 L 242.398438 146 L 242.398438 127.199219 L 248.601562 126.398438 L 254.601562 127.199219 M 267.199219 136 C 269.332031 139.066406 270.667969 142.398438 271.199219 146 L 259 146 L 259 129 C 262.199219 130.601562 264.933594 132.933594 267.199219 136 "/>
</g>
</svg>
