<?xml version="1.0" encoding="UTF-8"?>
<svg xmlns="http://www.w3.org/2000/svg" xmlns:xlink="http://www.w3.org/1999/xlink" width="312pt" height="392pt" viewBox="0 0 312 392" version="1.1">
<g id="surface1">
<path style=" stroke:none;fill-rule:nonzero;fill:rgb(100%,100%,100%);fill-opacity:1;" d="M 194.398438 382.199219 L 124.199219 382.199219 L 124.199219 223.601562 L 194.398438 223.601562 L 194.398438 382.199219 "/>
<path style=" stroke:none;fill-rule:nonzero;fill:rgb(0%,0%,0%);fill-opacity:1;" d="M 198.398438 223.199219 L 198.398438 381.800781 C 198.398438 383.398438 197.132812 384.332031 194.601562 384.601562 L 122.800781 384.601562 C 121.199219 384.601562 120.398438 383.933594 120.398438 382.601562 L 120.398438 224 C 120.398438 222.132812 122.132812 221.199219 125.601562 221.199219 L 195.800781 221.199219 C 197.535156 221.199219 198.398438 221.867188 198.398438 223.199219 M 190.601562 226 L 128 226 L 128 377.398438 L 128.199219 379.800781 L 190.601562 379.800781 L 190.601562 226 "/>
<path style=" stroke:none;fill-rule:nonzero;fill:rgb(80%,80%,80%);fill-opacity:1;" d="M 189.601562 387.199219 L 119.398438 387.199219 L 119.398438 228.398438 L 189.601562 228.398438 L 189.601562 387.199219 "/>
<path style=" stroke:none;fill-rule:nonzero;fill:rgb(0%,0%,0%);fill-opacity:1;" d="M 193.398438 227.398438 L 193.398438 386 C 193.398438 387.066406 192.132812 387.867188 189.601562 388.398438 L 188 388.800781 L 116.800781 388.800781 C 115.867188 388.800781 115.398438 388.601562 115.398438 388.199219 L 115.398438 229.398438 C 115.398438 228.601562 116.265625 227.933594 118 227.398438 L 121.800781 226.800781 L 192 226.800781 C 192.933594 226.800781 193.398438 227 193.398438 227.398438 M 178.199219 230 L 123.199219 230 L 123.199219 381.601562 C 123.199219 384.398438 123.464844 385.867188 124 386 L 130.601562 385.601562 L 185.800781 385.601562 L 185.800781 233.800781 C 185.800781 231.132812 185.535156 229.734375 185 229.601562 L 178.199219 230 "/>
<path style=" stroke:none;fill-rule:nonzero;fill:rgb(100%,100%,0%);fill-opacity:1;" d="M 299 185.199219 C 292.464844 194.132812 284 200.398438 273.601562 204 C 277.199219 211.066406 279 218.734375 279 227 C 279 238.734375 275.464844 249.199219 268.398438 258.398438 C 261.601562 267.601562 252.667969 273.800781 241.601562 277 C 241.601562 282.464844 240.066406 287.535156 237 292.199219 C 234.601562 295.535156 231.535156 298.132812 227.800781 300 C 224.199219 302 220.332031 303 216.199219 303 L 179.199219 303 C 171.332031 307.132812 163.066406 309.199219 154.398438 309.199219 C 145.601562 309.199219 137.398438 307.132812 129.800781 303 L 92.800781 303 C 88.800781 303 84.933594 302 81.199219 300 C 77.464844 298.132812 74.398438 295.535156 72 292.199219 C 68.800781 287.800781 67.199219 282.734375 67.199219 277 C 56.265625 273.800781 47.332031 267.601562 40.398438 258.398438 C 33.332031 249.199219 29.800781 238.734375 29.800781 227 C 29.800781 219.132812 31.601562 211.464844 35.199219 204 C 24.800781 200.535156 16.332031 194.265625 9.800781 185.199219 C 3.265625 176.132812 0 165.933594 0 154.601562 C 0 143.398438 3.265625 133.265625 9.800781 124.199219 C 16.332031 115.132812 24.800781 108.800781 35.199219 105.199219 C 31.601562 97.734375 29.800781 90.066406 29.800781 82.199219 C 29.800781 67.800781 34.933594 55.535156 45.199219 45.398438 C 55.332031 35.132812 67.601562 30 82 30 C 89.867188 30 97.535156 31.800781 105 35.398438 C 108.601562 25 114.933594 16.535156 124 10 C 133.066406 3.332031 143.199219 0 154.398438 0 C 165.734375 0 175.933594 3.332031 185 10 C 193.933594 16.535156 200.199219 25 203.800781 35.398438 C 211.398438 31.800781 219.066406 30 226.800781 30 C 241.199219 30 253.535156 35.132812 263.800781 45.398438 C 273.933594 55.535156 279 67.800781 279 82.199219 C 279 90.601562 277.199219 98.265625 273.601562 105.199219 C 284 108.800781 292.464844 115.066406 299 124 C 305.667969 133.199219 309 143.398438 309 154.601562 C 309 165.933594 305.667969 176.132812 299 185.199219 "/>
<path style=" stroke:none;fill-rule:nonzero;fill:rgb(0%,0%,0%);fill-opacity:1;" d="M 288.601562 184.601562 C 280.734375 193 271.066406 197.535156 259.601562 198.199219 C 266.933594 206.601562 270.601562 216.199219 270.601562 227 C 270.601562 238.199219 266.867188 247.933594 259.398438 256.199219 C 251.933594 264.464844 242.667969 269.199219 231.601562 270.398438 L 232.199219 271.800781 C 234.199219 277.398438 233.464844 282.535156 230 287.199219 C 226.667969 292 222.066406 294.398438 216.199219 294.398438 L 177 294.398438 C 170.332031 298.535156 162.800781 300.601562 154.398438 300.601562 C 146.132812 300.601562 138.667969 298.535156 132 294.398438 L 92.800781 294.398438 C 86.933594 294.398438 82.332031 292 79 287.199219 C 75.667969 282.535156 74.933594 277.398438 76.800781 271.800781 L 77.199219 270.398438 C 66.265625 269.199219 57.066406 264.464844 49.601562 256.199219 C 42.132812 247.933594 38.398438 238.199219 38.398438 227 C 38.398438 216.066406 42 206.464844 49.199219 198.199219 C 37.734375 197.535156 28.066406 193 20.199219 184.601562 C 12.332031 176.199219 8.398438 166.199219 8.398438 154.601562 C 8.398438 143.132812 12.332031 133.199219 20.199219 124.800781 C 28.066406 116.398438 37.734375 111.800781 49.199219 111 C 42 103 38.398438 93.398438 38.398438 82.199219 C 38.398438 70.199219 42.667969 59.933594 51.199219 51.398438 C 59.734375 42.867188 70 38.601562 82 38.601562 C 93.066406 38.601562 102.734375 42.199219 111 49.398438 C 111.667969 37.933594 116.199219 28.265625 124.601562 20.398438 C 133 12.535156 142.933594 8.601562 154.398438 8.601562 C 166 8.601562 176 12.535156 184.398438 20.398438 C 192.800781 28.265625 197.332031 37.933594 198 49.398438 C 206.265625 42.199219 215.867188 38.601562 226.800781 38.601562 C 238.933594 38.601562 249.265625 42.867188 257.800781 51.398438 C 266.332031 59.933594 270.601562 70.199219 270.601562 82.199219 C 270.601562 93.265625 266.933594 102.867188 259.601562 111 C 271.066406 111.800781 280.734375 116.398438 288.601562 124.800781 C 296.601562 133.199219 300.601562 143.132812 300.601562 154.601562 C 300.601562 166.199219 296.601562 176.199219 288.601562 184.601562 "/>
<path style=" stroke:none;fill-rule:nonzero;fill:rgb(100%,100%,100%);fill-opacity:1;" d="M 262 82.199219 C 262 90.867188 259.199219 98.464844 253.601562 105 C 248 111.398438 241 115.332031 232.601562 116.800781 C 234.199219 117.867188 235.332031 119.199219 236 120.800781 C 236.667969 122.398438 236.800781 124.132812 236.398438 126 C 242.800781 121.601562 249.601562 119.398438 256.800781 119.398438 C 266.535156 119.398438 274.800781 122.867188 281.601562 129.800781 C 288.535156 136.601562 292 144.867188 292 154.601562 C 292 164.332031 288.535156 172.601562 281.601562 179.398438 C 274.800781 186.332031 266.535156 189.800781 256.800781 189.800781 C 249.332031 189.800781 242.535156 187.601562 236.398438 183.199219 C 236.800781 185.199219 236.667969 186.933594 236 188.398438 L 232.800781 192.398438 C 241.199219 193.867188 248.132812 197.800781 253.601562 204.199219 C 259.199219 210.734375 262 218.332031 262 227 C 262 236.734375 258.535156 245 251.601562 251.800781 C 244.800781 258.734375 236.535156 262.199219 226.800781 262.199219 L 219.601562 261.398438 L 224.199219 274.601562 C 225 277.398438 224.601562 280 223 282.398438 C 221.398438 284.667969 219.132812 285.800781 216.199219 285.800781 L 174.398438 285.800781 C 168.535156 290.066406 161.867188 292.199219 154.398438 292.199219 C 147.199219 292.199219 140.535156 290.066406 134.398438 285.800781 L 92.800781 285.800781 C 89.734375 285.800781 87.398438 284.667969 85.800781 282.398438 C 84.066406 279.867188 83.734375 277.265625 84.800781 274.601562 L 89.398438 261.398438 L 82 262.199219 C 72.265625 262.199219 64 258.734375 57.199219 251.800781 C 50.398438 245 47 236.734375 47 227 C 47 218.332031 49.800781 210.734375 55.398438 204.199219 C 60.867188 197.800781 67.800781 193.867188 76.199219 192.398438 L 72.800781 188.398438 C 72.132812 186.667969 72 184.933594 72.398438 183.199219 C 66.265625 187.601562 59.464844 189.800781 52 189.800781 C 42.265625 189.800781 34 186.332031 27.199219 179.398438 C 20.398438 172.601562 17 164.332031 17 154.601562 C 17 144.867188 20.398438 136.601562 27.199219 129.800781 C 34 122.867188 42.265625 119.398438 52 119.398438 C 59.199219 119.398438 66 121.601562 72.398438 126 C 72 124.398438 72.132812 122.667969 72.800781 120.800781 L 76.199219 116.800781 C 67.800781 115.332031 60.867188 111.398438 55.398438 105 C 49.800781 98.464844 47 90.867188 47 82.199219 C 47 72.464844 50.398438 64.199219 57.199219 57.398438 C 64 50.464844 72.265625 47 82 47 C 90.667969 47 98.265625 49.800781 104.800781 55.398438 C 111.332031 61 115.332031 68 116.800781 76.398438 C 117.601562 75.066406 118.867188 73.933594 120.601562 73 L 124 72.398438 L 125.800781 72.601562 C 121.535156 66.464844 119.398438 59.667969 119.398438 52.199219 C 119.398438 42.464844 122.800781 34.199219 129.601562 27.398438 C 136.398438 20.464844 144.667969 17 154.398438 17 C 164.132812 17 172.398438 20.464844 179.199219 27.398438 C 186.132812 34.199219 189.601562 42.464844 189.601562 52.199219 C 189.601562 59.667969 187.398438 66.464844 183 72.601562 L 185 72.398438 L 188.199219 73 C 189.800781 73.667969 191.132812 74.800781 192.199219 76.398438 C 193.667969 68 197.601562 61 204 55.398438 C 210.535156 49.800781 218.132812 47 226.800781 47 C 236.535156 47 244.800781 50.464844 251.601562 57.398438 C 258.535156 64.199219 262 72.464844 262 82.199219 "/>
<path style=" stroke:none;fill-rule:nonzero;fill:rgb(90.196078%,96.078431%,34.117647%);fill-opacity:1;" d="M 225.398438 128.199219 L 223.199219 123.199219 L 228.199219 124 L 225.398438 128.199219 "/>
<path style="fill:none;stroke-width:1;stroke-linecap:butt;stroke-linejoin:miter;stroke:rgb(80%,83.921569%,10.196078%);stroke-opacity:1;stroke-miterlimit:4;" d="M 56.349609 32.049805 L 55.799805 30.799805 L 57.049805 31 Z M 56.349609 32.049805 " transform="matrix(4,0,0,4,0,0)"/>
<path style=" stroke:none;fill-rule:nonzero;fill:rgb(90.196078%,96.078431%,34.117647%);fill-opacity:1;" d="M 128 83.800781 L 123 85.800781 L 124 81 L 128 83.800781 "/>
<path style="fill:none;stroke-width:1;stroke-linecap:butt;stroke-linejoin:miter;stroke:rgb(80%,83.921569%,10.196078%);stroke-opacity:1;stroke-miterlimit:4;" d="M 32 20.950195 L 30.75 21.450195 L 31 20.25 Z M 32 20.950195 " transform="matrix(4,0,0,4,0,0)"/>
<path style=" stroke:none;fill-rule:nonzero;fill:rgb(90.196078%,96.078431%,34.117647%);fill-opacity:1;" d="M 83.601562 181.199219 L 85.601562 186 L 80.800781 185.199219 L 83.601562 181.199219 "/>
<path style="fill:none;stroke-width:1;stroke-linecap:butt;stroke-linejoin:miter;stroke:rgb(80%,83.921569%,10.196078%);stroke-opacity:1;stroke-miterlimit:4;" d="M 20.900391 45.299805 L 21.400391 46.5 L 20.200195 46.299805 Z M 20.900391 45.299805 " transform="matrix(4,0,0,4,0,0)"/>
<path style=" stroke:none;fill-rule:nonzero;fill:rgb(90.196078%,96.078431%,34.117647%);fill-opacity:1;" d="M 181 225.398438 L 185.800781 223.398438 L 185 228.398438 L 181 225.398438 "/>
<path style="fill:none;stroke-width:1;stroke-linecap:butt;stroke-linejoin:miter;stroke:rgb(80%,83.921569%,10.196078%);stroke-opacity:1;stroke-miterlimit:4;" d="M 45.25 56.349609 L 46.450195 55.849609 L 46.25 57.099609 Z M 45.25 56.349609 " transform="matrix(4,0,0,4,0,0)"/>
<path style=" stroke:none;fill-rule:nonzero;fill:rgb(90.196078%,96.078431%,34.117647%);fill-opacity:1;" d="M 185.800781 85.800781 L 181 83.800781 L 185 81 L 185.800781 85.800781 "/>
<path style="fill:none;stroke-width:1;stroke-linecap:butt;stroke-linejoin:miter;stroke:rgb(80%,83.921569%,10.196078%);stroke-opacity:1;stroke-miterlimit:4;" d="M 46.450195 21.450195 L 45.25 20.950195 L 46.25 20.25 Z M 46.450195 21.450195 " transform="matrix(4,0,0,4,0,0)"/>
<path style=" stroke:none;fill-rule:nonzero;fill:rgb(90.196078%,96.078431%,34.117647%);fill-opacity:1;" d="M 85.601562 123.199219 L 83.601562 128.199219 L 80.800781 124 L 85.601562 123.199219 "/>
<path style="fill:none;stroke-width:1;stroke-linecap:butt;stroke-linejoin:miter;stroke:rgb(80%,83.921569%,10.196078%);stroke-opacity:1;stroke-miterlimit:4;" d="M 21.400391 30.799805 L 20.900391 32.049805 L 20.200195 31 Z M 21.400391 30.799805 " transform="matrix(4,0,0,4,0,0)"/>
<path style=" stroke:none;fill-rule:nonzero;fill:rgb(90.196078%,96.078431%,34.117647%);fill-opacity:1;" d="M 123 223.398438 L 128 225.398438 L 124 228.398438 L 123 223.398438 "/>
<path style="fill:none;stroke-width:1;stroke-linecap:butt;stroke-linejoin:miter;stroke:rgb(80%,83.921569%,10.196078%);stroke-opacity:1;stroke-miterlimit:4;" d="M 30.75 55.849609 L 32 56.349609 L 31 57.099609 Z M 30.75 55.849609 " transform="matrix(4,0,0,4,0,0)"/>
<path style=" stroke:none;fill-rule:nonzero;fill:rgb(90.196078%,96.078431%,34.117647%);fill-opacity:1;" d="M 223.199219 186 L 225.199219 181.199219 L 228.199219 185.199219 L 223.199219 186 "/>
<path style="fill:none;stroke-width:1;stroke-linecap:butt;stroke-linejoin:miter;stroke:rgb(80%,83.921569%,10.196078%);stroke-opacity:1;stroke-miterlimit:4;" d="M 55.799805 46.5 L 56.299805 45.299805 L 57.049805 46.299805 Z M 55.799805 46.5 " transform="matrix(4,0,0,4,0,0)"/>
<path style=" stroke:none;fill-rule:nonzero;fill:rgb(90.196078%,96.078431%,34.117647%);fill-opacity:1;" d="M 216.199219 277.398438 L 92.800781 277.398438 L 118.398438 205 L 190.601562 205 L 216.199219 277.398438 "/>
<path style=" stroke:none;fill-rule:nonzero;fill:rgb(80%,83.921569%,10.196078%);fill-opacity:1;" d="M 192.601562 204.601562 L 218 276.800781 L 217.601562 278.199219 L 217 278.800781 L 92.601562 278.800781 C 91.132812 278.800781 90.601562 278.265625 91 277.199219 L 116.398438 204.800781 L 118.398438 203.601562 L 190.800781 203.601562 C 191.734375 203.601562 192.332031 203.933594 192.601562 204.601562 M 189 206.199219 L 184.398438 206.601562 L 119.800781 206.601562 L 95.199219 276 L 213.601562 276 L 190 209.398438 L 189 206.199219 "/>
<path style=" stroke:none;fill-rule:nonzero;fill:rgb(90.196078%,96.078431%,34.117647%);fill-opacity:1;" d="M 223.199219 154.601562 C 223.199219 173.667969 216.464844 189.867188 203 203.199219 C 189.667969 216.667969 173.464844 223.398438 154.398438 223.398438 C 135.464844 223.398438 119.332031 216.667969 106 203.199219 C 92.535156 189.734375 85.800781 173.535156 85.800781 154.601562 C 85.800781 135.667969 92.535156 119.464844 106 106 C 119.332031 92.667969 135.464844 86 154.398438 86 C 173.464844 86 189.667969 92.667969 203 106 C 216.464844 119.464844 223.199219 135.667969 223.199219 154.601562 M 201.398438 154.601562 C 201.398438 141.667969 196.800781 130.601562 187.601562 121.398438 C 178.535156 112.199219 167.464844 107.601562 154.398438 107.601562 C 141.464844 107.601562 130.464844 112.199219 121.398438 121.398438 C 112.199219 130.601562 107.601562 141.667969 107.601562 154.601562 C 107.601562 167.535156 112.199219 178.601562 121.398438 187.800781 C 130.464844 197 141.464844 201.601562 154.398438 201.601562 C 167.464844 201.601562 178.535156 197 187.601562 187.800781 C 196.800781 178.734375 201.398438 167.667969 201.398438 154.601562 "/>
<path style=" stroke:none;fill-rule:nonzero;fill:rgb(80%,83.921569%,10.196078%);fill-opacity:1;" d="M 197.398438 103.800781 C 185.265625 93.265625 170.667969 87.667969 153.601562 87 C 133.601562 87.667969 116.867188 95.734375 103.398438 111.199219 C 89.667969 127.199219 84.734375 145.066406 88.601562 164.800781 C 91.667969 181.066406 99.265625 194.734375 111.398438 205.800781 C 124.199219 217.398438 138.800781 222.933594 155.199219 222.398438 C 175.332031 221.601562 192.132812 213.464844 205.601562 198 C 219.332031 182.132812 224.265625 164.332031 220.398438 144.601562 C 217.199219 127.800781 209.535156 114.199219 197.398438 103.800781 M 224.800781 159.800781 C 222.800781 177.933594 215.066406 193.265625 201.601562 205.800781 C 187.734375 218.867188 171.734375 225.066406 153.601562 224.398438 C 133.601562 223.601562 116.601562 216.066406 102.601562 201.800781 C 87.933594 187 81.734375 169.601562 84 149.601562 C 86.132812 130.933594 93.933594 115.667969 107.398438 103.800781 C 120.199219 92.066406 135.867188 85.800781 154.398438 85 L 156.199219 85 C 175.933594 85.933594 192.667969 93.398438 206.398438 107.398438 C 221.066406 122.332031 227.199219 139.800781 224.800781 159.800781 "/>
<path style=" stroke:none;fill-rule:nonzero;fill:rgb(80%,83.921569%,10.196078%);fill-opacity:1;" d="M 203 159.398438 C 200.867188 172.199219 195.332031 182.464844 186.398438 190.199219 C 177.601562 197.800781 166.800781 201.933594 154 202.601562 L 152.800781 202.601562 C 138.933594 201.667969 127.332031 196.332031 118 186.601562 C 107.601562 176.066406 103.535156 163.800781 105.800781 149.800781 C 107.933594 137.535156 113.535156 127.199219 122.601562 118.800781 C 132.199219 110 143.066406 105.933594 155.199219 106.601562 C 169.332031 107.398438 181.265625 112.800781 191 122.800781 C 201.265625 133.332031 205.265625 145.535156 203 159.398438 M 198.199219 152.199219 C 197.800781 139.800781 193.867188 129.464844 186.398438 121.199219 C 178 112.132812 167.066406 107.933594 153.601562 108.601562 C 139.332031 109.398438 128.265625 114.535156 120.398438 124 C 113.332031 132.535156 110.066406 142.800781 110.601562 154.800781 C 111.132812 166.667969 115.132812 176.867188 122.601562 185.398438 C 131 194.867188 141.867188 199.933594 155.199219 200.601562 C 169.332031 199.800781 180.332031 194.398438 188.199219 184.398438 C 195.398438 175.464844 198.734375 164.734375 198.199219 152.199219 "/>
<path style=" stroke:none;fill-rule:nonzero;fill:rgb(84.705882%,87.45098%,15.294118%);fill-opacity:1;" d="M 214 189 L 188.800781 189 L 188.800781 214.199219 L 167 201.601562 L 154.398438 223.398438 L 141.800781 201.601562 L 120.199219 214.199219 L 120.199219 189 L 95 189 L 107.601562 167.199219 L 85.800781 154.601562 L 107.601562 142 L 95 120.199219 L 120.199219 120.199219 L 120.199219 95.199219 L 141.800781 107.601562 L 154.398438 86 L 167 107.601562 L 188.800781 95.199219 L 188.800781 120.199219 L 214 120.199219 L 201.398438 142 L 223.199219 154.601562 L 201.398438 167.199219 L 214 189 "/>
<path style=" stroke:none;fill-rule:nonzero;fill:rgb(80%,83.921569%,10.196078%);fill-opacity:1;" d="M 189 94.601562 L 189.800781 94.800781 L 190 119.800781 L 214.398438 119.800781 L 215 120.199219 L 208.199219 131.800781 C 204.332031 138.332031 202.601562 141.734375 203 142 L 224 154.199219 L 223.800781 154.800781 L 202.601562 167.199219 L 215 188.800781 L 213.601562 189.398438 L 189.800781 189.398438 L 189.800781 213.800781 L 189 214.601562 L 188 214.398438 C 174.132812 206.667969 167.332031 202.535156 167.601562 202 L 155.398438 223.199219 L 154.398438 223.800781 L 153.398438 223.601562 L 146.800781 212.199219 C 143.066406 205.800781 141.398438 202.398438 141.800781 202 L 120.601562 214.398438 L 119.199219 214.398438 L 119 189.398438 L 94.601562 189.398438 L 94 189.199219 L 106 167.199219 L 84.800781 155 C 84.398438 154.601562 84.535156 154.398438 85.199219 154.398438 L 96.800781 147.800781 L 106.199219 141.601562 L 94 120.601562 C 93.734375 120.066406 94.199219 119.800781 95.398438 119.800781 L 119.199219 119.800781 L 119.199219 95.398438 L 120 94.800781 L 121 94.800781 C 134.867188 102.535156 141.601562 106.667969 141.199219 107.199219 L 153.601562 86 L 154.398438 85.398438 L 155.398438 85.601562 L 162.199219 97.199219 C 165.933594 103.601562 167.535156 106.933594 167 107.199219 L 188.199219 95 L 189 94.601562 "/>
<path style=" stroke:none;fill-rule:nonzero;fill:rgb(90.196078%,96.078431%,34.117647%);fill-opacity:1;" d="M 201.398438 154.601562 C 201.398438 167.667969 196.800781 178.734375 187.601562 187.800781 C 178.535156 197 167.464844 201.601562 154.398438 201.601562 C 141.464844 201.601562 130.464844 197 121.398438 187.800781 C 112.199219 178.601562 107.601562 167.535156 107.601562 154.601562 C 107.601562 141.667969 112.199219 130.601562 121.398438 121.398438 C 130.464844 112.199219 141.464844 107.601562 154.398438 107.601562 C 167.464844 107.601562 178.535156 112.199219 187.601562 121.398438 C 196.800781 130.601562 201.398438 141.667969 201.398438 154.601562 "/>
<path style=" stroke:none;fill-rule:nonzero;fill:rgb(80%,83.921569%,10.196078%);fill-opacity:1;" d="M 166.199219 111.800781 C 151.535156 107.800781 138.199219 110.867188 126.199219 121 C 114.066406 131.132812 109.199219 143.734375 111.601562 158.800781 C 113.066406 167.867188 116.398438 175.800781 121.601562 182.601562 C 127.332031 190.199219 134.398438 195.132812 142.800781 197.398438 C 157.734375 201.535156 170.535156 199.066406 181.199219 190 C 191.199219 181.601562 196.667969 170.132812 197.601562 155.601562 L 197.601562 155.199219 C 196.933594 145.332031 194 136.464844 188.800781 128.601562 C 183.066406 119.933594 175.535156 114.332031 166.199219 111.800781 M 187.398438 189.601562 C 177.398438 197.601562 165.535156 201.734375 151.800781 202 C 138.066406 202.398438 126.667969 198.667969 117.601562 190.800781 C 107.464844 182.265625 102.800781 170.398438 103.601562 155.199219 C 104.398438 140.398438 110 128.535156 120.398438 119.601562 C 129.867188 111.464844 141.199219 107.265625 154.398438 107 C 167.601562 106.601562 178.933594 110.265625 188.398438 118 C 198.800781 126.535156 204.398438 138.398438 205.199219 153.601562 L 205.199219 154 C 204.398438 168.800781 198.464844 180.667969 187.398438 189.601562 "/>
<path style=" stroke:none;fill-rule:nonzero;fill:rgb(80%,83.921569%,10.196078%);fill-opacity:1;" d="M 154.601562 70.601562 L 156.398438 70.800781 L 156.398438 237.398438 L 154.601562 238.601562 L 152.601562 238.398438 L 152.601562 71.800781 C 152.601562 71.265625 153.265625 70.867188 154.601562 70.601562 "/>
<path style=" stroke:none;fill-rule:nonzero;fill:rgb(80%,83.921569%,10.196078%);fill-opacity:1;" d="M 214 214.199219 L 211.601562 214.199219 L 93.800781 96.398438 C 93.398438 96 93.800781 95.601562 95 95.199219 L 97.398438 95 L 215.199219 212.800781 C 215.601562 213.199219 215.199219 213.667969 214 214.199219 "/>
<path style=" stroke:none;fill-rule:nonzero;fill:rgb(80%,83.921569%,10.196078%);fill-opacity:1;" d="M 237 155.398438 L 70.398438 155.398438 C 69.199219 155.398438 69 155.132812 69.800781 154.601562 L 72 153.800781 L 238.601562 153.800781 C 240.332031 153.800781 239.800781 154.332031 237 155.398438 "/>
<path style=" stroke:none;fill-rule:nonzero;fill:rgb(80%,83.921569%,10.196078%);fill-opacity:1;" d="M 215.199219 95.601562 L 97.398438 213.398438 L 95 214.199219 C 93.667969 214.332031 93.265625 214.132812 93.800781 213.601562 L 211.601562 95.800781 L 215.199219 95.601562 "/>
<path style=" stroke:none;fill-rule:nonzero;fill:rgb(98.039216%,68.627451%,23.137255%);fill-opacity:1;" d="M 181 52.199219 C 181 59.667969 178.398438 65.933594 173.199219 71 C 168.132812 76.199219 161.867188 78.800781 154.398438 78.800781 C 147.066406 78.800781 140.800781 76.199219 135.601562 71 C 130.398438 65.800781 127.800781 59.535156 127.800781 52.199219 C 127.800781 44.867188 130.398438 38.601562 135.601562 33.398438 C 140.800781 28.199219 147.066406 25.601562 154.398438 25.601562 C 161.734375 25.601562 168 28.199219 173.199219 33.398438 C 178.398438 38.601562 181 44.867188 181 52.199219 "/>
<path style=" stroke:none;fill-rule:nonzero;fill:rgb(96.470588%,57.254902%,12.941176%);fill-opacity:1;" d="M 182 52.199219 L 182 52.601562 C 181.464844 60.199219 178.667969 66.464844 173.601562 71.398438 C 168.535156 76.464844 162.132812 79.199219 154.398438 79.601562 C 147.199219 80 140.734375 77.332031 135 71.601562 C 129.132812 66 126.398438 59.535156 126.800781 52.199219 C 127.332031 43.933594 130.398438 37.332031 136 32.398438 C 141.199219 28 147.332031 25.800781 154.398438 25.800781 C 161.601562 25.667969 167.734375 27.800781 172.800781 32.199219 C 178.398438 37 181.464844 43.535156 182 51.800781 L 182 52.199219 M 180.199219 52.199219 C 179.800781 45.667969 177.535156 39.933594 173.398438 35 C 169 29.667969 163.535156 26.800781 157 26.398438 C 149.535156 26 142.933594 28.265625 137.199219 33.199219 C 131.199219 38.265625 128.398438 44.601562 128.800781 52.199219 C 129.066406 58.734375 131.332031 64.464844 135.601562 69.398438 C 140 74.734375 145.398438 77.601562 151.800781 78 C 159.667969 78.398438 166.265625 76.132812 171.601562 71.199219 C 176.800781 66.398438 179.667969 60.066406 180.199219 52.199219 "/>
<path style=" stroke:none;fill-rule:nonzero;fill:rgb(70.980392%,100%,100%);fill-opacity:1;" d="M 177.199219 52.199219 L 164.800781 52.199219 L 164.800781 35.199219 C 171.734375 38.535156 175.867188 44.199219 177.199219 52.199219 M 154.398438 32.601562 L 160.601562 33.601562 L 160.601562 52.199219 L 148.199219 52.199219 L 148.199219 33.601562 L 154.398438 32.601562 M 144 35.199219 L 144 52.199219 L 131.601562 52.199219 C 132.933594 44.332031 137.066406 38.667969 144 35.199219 "/>
<path style=" stroke:none;fill-rule:nonzero;fill:rgb(98.039216%,68.627451%,23.137255%);fill-opacity:1;" d="M 108.601562 82.199219 C 108.601562 89.667969 106 95.933594 100.800781 101 C 95.734375 106.199219 89.464844 108.800781 82 108.800781 C 74.667969 108.800781 68.398438 106.199219 63.199219 101 C 58 95.800781 55.398438 89.535156 55.398438 82.199219 C 55.398438 74.867188 58 68.601562 63.199219 63.398438 C 68.398438 58.199219 74.667969 55.601562 82 55.601562 C 89.332031 55.601562 95.601562 58.199219 100.800781 63.398438 C 106 68.601562 108.601562 74.867188 108.601562 82.199219 "/>
<path style=" stroke:none;fill-rule:nonzero;fill:rgb(96.470588%,57.254902%,12.941176%);fill-opacity:1;" d="M 101 65 C 96.601562 59.667969 91.132812 56.800781 84.601562 56.398438 C 77.132812 56 70.535156 58.265625 64.800781 63.199219 C 58.800781 68.265625 56 74.601562 56.398438 82.199219 C 56.667969 88.734375 58.933594 94.464844 63.199219 99.398438 C 67.601562 104.734375 73 107.601562 79.398438 108 C 87.265625 108.398438 93.867188 106.132812 99.199219 101.199219 C 104.398438 96.398438 107.265625 90.066406 107.800781 82.199219 C 107.398438 75.667969 105.132812 69.933594 101 65 M 109.601562 82.199219 L 109.601562 82.601562 C 109.066406 90.199219 106.265625 96.464844 101.199219 101.398438 C 96.132812 106.464844 89.734375 109.199219 82 109.601562 C 74.800781 110 68.332031 107.332031 62.601562 101.601562 C 56.734375 96 54 89.535156 54.398438 82.199219 C 54.933594 73.933594 58 67.332031 63.601562 62.398438 C 68.800781 58 74.933594 55.800781 82 55.800781 C 89.199219 55.667969 95.332031 57.800781 100.398438 62.199219 C 106 67 109.066406 73.535156 109.601562 81.800781 L 109.601562 82.199219 "/>
<path style=" stroke:none;fill-rule:nonzero;fill:rgb(70.980392%,100%,100%);fill-opacity:1;" d="M 92.398438 65.199219 C 99.332031 68.535156 103.464844 74.199219 104.800781 82.199219 L 92.398438 82.199219 L 92.398438 65.199219 M 88.199219 82.199219 L 75.800781 82.199219 L 75.800781 63.601562 L 82 62.601562 L 88.199219 63.601562 L 88.199219 82.199219 M 59.199219 82.199219 C 60.535156 74.332031 64.667969 68.667969 71.601562 65.199219 L 71.601562 82.199219 L 59.199219 82.199219 "/>
<path style=" stroke:none;fill-rule:nonzero;fill:rgb(98.039216%,68.627451%,23.137255%);fill-opacity:1;" d="M 108.601562 227 C 108.601562 234.464844 106 240.734375 100.800781 245.800781 C 95.734375 251 89.464844 253.601562 82 253.601562 C 74.667969 253.601562 68.398438 251 63.199219 245.800781 C 58 240.601562 55.398438 234.332031 55.398438 227 C 55.398438 219.667969 58 213.398438 63.199219 208.199219 C 68.398438 203 74.667969 200.398438 82 200.398438 C 89.332031 200.398438 95.601562 203 100.800781 208.199219 C 106 213.398438 108.601562 219.667969 108.601562 227 "/>
<path style=" stroke:none;fill-rule:nonzero;fill:rgb(96.470588%,57.254902%,12.941176%);fill-opacity:1;" d="M 84.601562 201.199219 C 77.132812 200.800781 70.535156 203.066406 64.800781 208 C 58.800781 213.066406 56 219.398438 56.398438 227 C 56.667969 233.535156 58.933594 239.265625 63.199219 244.199219 C 67.601562 249.535156 73 252.398438 79.398438 252.800781 C 87.265625 253.199219 93.867188 250.933594 99.199219 246 C 104.398438 241.199219 107.265625 234.933594 107.800781 227.199219 C 107.398438 220.535156 105.132812 214.734375 101 209.800781 C 96.601562 204.464844 91.132812 201.601562 84.601562 201.199219 M 109.601562 227 L 109.601562 227.398438 C 109.066406 235 106.265625 241.265625 101.199219 246.199219 C 96.132812 251.265625 89.734375 254 82 254.398438 C 74.800781 254.800781 68.332031 252.199219 62.601562 246.601562 C 56.734375 240.867188 54 234.398438 54.398438 227.199219 C 54.933594 218.933594 58 212.332031 63.601562 207.398438 C 68.800781 202.867188 74.933594 200.601562 82 200.601562 C 89.199219 200.464844 95.332031 202.601562 100.398438 207 C 106 211.800781 109.066406 218.332031 109.601562 226.601562 L 109.601562 227 "/>
<path style=" stroke:none;fill-rule:nonzero;fill:rgb(70.980392%,100%,100%);fill-opacity:1;" d="M 92.398438 210 C 99.464844 213.601562 103.601562 219.265625 104.800781 227 L 92.398438 227 L 92.398438 210 M 88.199219 227 L 75.800781 227 L 75.800781 208.398438 L 82 207.601562 L 88.199219 208.398438 L 88.199219 227 M 59.199219 227 C 60.398438 219.398438 64.535156 213.734375 71.601562 210 L 71.601562 227 L 59.199219 227 "/>
<path style=" stroke:none;fill-rule:nonzero;fill:rgb(98.039216%,68.627451%,23.137255%);fill-opacity:1;" d="M 208 63.398438 C 213.199219 58.199219 219.464844 55.601562 226.800781 55.601562 C 234.132812 55.601562 240.464844 58.199219 245.800781 63.398438 C 251 68.601562 253.601562 74.867188 253.601562 82.199219 C 253.601562 89.535156 251 95.800781 245.800781 101 C 240.601562 106.199219 234.265625 108.800781 226.800781 108.800781 C 219.464844 108.800781 213.199219 106.199219 208 101 C 202.800781 95.800781 200.199219 89.535156 200.199219 82.199219 C 200.199219 74.867188 202.800781 68.601562 208 63.398438 "/>
<path style=" stroke:none;fill-rule:nonzero;fill:rgb(96.470588%,57.254902%,12.941176%);fill-opacity:1;" d="M 245.800781 65 C 241.398438 59.667969 235.933594 56.800781 229.398438 56.398438 C 221.535156 56 214.933594 58.265625 209.601562 63.199219 C 204.398438 68.132812 201.601562 74.464844 201.199219 82.199219 C 201.464844 88.734375 203.734375 94.464844 208 99.398438 C 212.398438 104.734375 217.867188 107.601562 224.398438 108 C 231.867188 108.398438 238.464844 106.132812 244.199219 101.199219 C 250.199219 96.132812 253 89.800781 252.601562 82.199219 C 252.199219 75.667969 249.933594 69.933594 245.800781 65 M 254.398438 82.199219 C 254 90.601562 250.933594 97.199219 245.199219 102 C 240.132812 106.535156 234 108.800781 226.800781 108.800781 C 219.601562 108.800781 213.464844 106.601562 208.398438 102.199219 C 202.800781 97.265625 199.734375 90.667969 199.199219 82.398438 L 199.199219 82.199219 C 199.734375 74.464844 202.535156 68.066406 207.601562 63 C 212.667969 58.066406 219.132812 55.332031 227 54.800781 C 234.199219 54.398438 240.667969 57.066406 246.398438 62.800781 C 252.132812 68.398438 254.800781 74.867188 254.398438 82.199219 "/>
<path style=" stroke:none;fill-rule:nonzero;fill:rgb(70.980392%,100%,100%);fill-opacity:1;" d="M 245.601562 72.199219 C 247.734375 75.265625 249.066406 78.601562 249.601562 82.199219 L 237.398438 82.199219 L 237.398438 65.199219 C 240.601562 66.800781 243.332031 69.132812 245.601562 72.199219 M 233 63.601562 L 233 82.199219 L 220.800781 82.199219 L 220.800781 63.601562 L 226.800781 62.601562 L 233 63.601562 M 216.398438 65.199219 L 216.398438 82.199219 L 204.199219 82.199219 C 204.734375 78.601562 206.066406 75.265625 208.199219 72.199219 C 210.464844 69.132812 213.199219 66.800781 216.398438 65.199219 "/>
<path style=" stroke:none;fill-rule:nonzero;fill:rgb(98.039216%,68.627451%,23.137255%);fill-opacity:1;" d="M 208 208.199219 C 213.199219 203 219.464844 200.398438 226.800781 200.398438 C 234.132812 200.398438 240.464844 203 245.800781 208.199219 C 251 213.398438 253.601562 219.667969 253.601562 227 C 253.601562 234.332031 251 240.601562 245.800781 245.800781 C 240.601562 251 234.265625 253.601562 226.800781 253.601562 C 219.464844 253.601562 213.199219 251 208 245.800781 C 202.800781 240.601562 200.199219 234.332031 200.199219 227 C 200.199219 219.667969 202.800781 213.398438 208 208.199219 "/>
<path style=" stroke:none;fill-rule:nonzero;fill:rgb(96.470588%,57.254902%,12.941176%);fill-opacity:1;" d="M 245.800781 209.800781 C 241.398438 204.464844 235.933594 201.601562 229.398438 201.199219 C 221.535156 200.800781 214.933594 203.066406 209.601562 208 C 204.398438 212.933594 201.601562 219.265625 201.199219 227 C 201.464844 233.535156 203.734375 239.265625 208 244.199219 C 212.398438 249.535156 217.867188 252.398438 224.398438 252.800781 C 231.867188 253.199219 238.464844 250.933594 244.199219 246 C 250.199219 240.933594 253 234.667969 252.601562 227.199219 C 252.199219 220.535156 249.933594 214.734375 245.800781 209.800781 M 254.398438 227 C 254 235.398438 250.933594 242 245.199219 246.800781 C 240.132812 251.332031 234 253.601562 226.800781 253.601562 C 219.734375 253.601562 213.601562 251.398438 208.398438 247 C 202.800781 242.199219 199.734375 235.667969 199.199219 227.398438 L 199.199219 227.199219 C 199.734375 219.332031 202.535156 212.867188 207.601562 207.800781 C 212.667969 202.867188 219.132812 200.132812 227 199.601562 C 234.199219 199.332031 240.667969 202 246.398438 207.601562 C 252.132812 213.332031 254.800781 219.800781 254.398438 227 "/>
<path style=" stroke:none;fill-rule:nonzero;fill:rgb(70.980392%,100%,100%);fill-opacity:1;" d="M 220.800781 227 L 220.800781 208.398438 L 226.800781 207.601562 L 233 208.398438 L 233 227 L 220.800781 227 M 216.398438 227 L 204.199219 227 C 205.265625 219.398438 209.332031 213.734375 216.398438 210 L 216.398438 227 M 237.398438 210 C 244.464844 213.734375 248.535156 219.398438 249.601562 227 L 237.398438 227 L 237.398438 210 "/>
<path style=" stroke:none;fill-rule:nonzero;fill:rgb(98.039216%,68.627451%,23.137255%);fill-opacity:1;" d="M 181 257 C 181 264.464844 178.398438 270.734375 173.199219 275.800781 C 168.132812 281 161.867188 283.601562 154.398438 283.601562 C 147.066406 283.601562 140.800781 281 135.601562 275.800781 C 130.398438 270.601562 127.800781 264.332031 127.800781 257 C 127.800781 249.667969 130.398438 243.398438 135.601562 238.199219 C 140.800781 233 147.066406 230.398438 154.398438 230.398438 C 161.734375 230.398438 168 233 173.199219 238.199219 C 178.398438 243.398438 181 249.667969 181 257 "/>
<path style=" stroke:none;fill-rule:nonzero;fill:rgb(96.470588%,57.254902%,12.941176%);fill-opacity:1;" d="M 182 257 L 182 257.398438 C 181.464844 265 178.667969 271.265625 173.601562 276.199219 C 168.535156 281.265625 162.132812 284 154.398438 284.398438 C 147.199219 284.800781 140.734375 282.199219 135 276.601562 C 129.132812 270.867188 126.398438 264.398438 126.800781 257.199219 C 127.332031 248.933594 130.398438 242.332031 136 237.398438 C 141.199219 232.867188 147.332031 230.601562 154.398438 230.601562 C 161.601562 230.464844 167.734375 232.601562 172.800781 237 C 178.398438 241.800781 181.464844 248.332031 182 256.601562 L 182 257 M 180.199219 257.199219 C 179.800781 250.535156 177.535156 244.734375 173.398438 239.800781 C 169 234.464844 163.535156 231.601562 157 231.199219 C 149.535156 230.800781 142.933594 233.066406 137.199219 238 C 131.199219 243.066406 128.398438 249.398438 128.800781 257 C 129.066406 263.535156 131.332031 269.265625 135.601562 274.199219 C 140 279.535156 145.398438 282.398438 151.800781 282.800781 C 159.667969 283.199219 166.265625 280.933594 171.601562 276 C 176.800781 271.199219 179.667969 264.933594 180.199219 257.199219 "/>
<path style=" stroke:none;fill-rule:nonzero;fill:rgb(70.980392%,100%,100%);fill-opacity:1;" d="M 177.199219 257 L 164.800781 257 L 164.800781 240 C 171.867188 243.601562 176 249.265625 177.199219 257 M 154.398438 237.398438 L 160.601562 238.398438 L 160.601562 257 L 148.199219 257 L 148.199219 238.398438 L 154.398438 237.398438 M 144 240 L 144 257 L 131.601562 257 C 132.800781 249.398438 136.933594 243.734375 144 240 "/>
<path style=" stroke:none;fill-rule:nonzero;fill:rgb(98.039216%,68.627451%,23.137255%);fill-opacity:1;" d="M 78.601562 154.601562 C 78.601562 162.066406 76 168.332031 70.800781 173.398438 C 65.734375 178.601562 59.464844 181.199219 52 181.199219 C 44.667969 181.199219 38.398438 178.601562 33.199219 173.398438 C 28 168.199219 25.398438 161.933594 25.398438 154.601562 C 25.398438 147.265625 28 141 33.199219 135.800781 C 38.398438 130.601562 44.667969 128 52 128 C 59.332031 128 65.601562 130.601562 70.800781 135.800781 C 76 141 78.601562 147.265625 78.601562 154.601562 "/>
<path style=" stroke:none;fill-rule:nonzero;fill:rgb(96.470588%,57.254902%,12.941176%);fill-opacity:1;" d="M 70.398438 134.601562 C 76 139.398438 79.066406 145.933594 79.601562 154.199219 L 79.601562 155 C 79.066406 162.601562 76.265625 168.867188 71.199219 173.800781 C 66.132812 178.867188 59.734375 181.601562 52 182 C 44.800781 182.398438 38.332031 179.734375 32.601562 174 C 26.734375 168.398438 24 161.933594 24.398438 154.601562 C 24.933594 146.332031 28 139.734375 33.601562 134.800781 C 38.800781 130.398438 44.933594 128.199219 52 128.199219 C 59.199219 128.066406 65.332031 130.199219 70.398438 134.601562 M 54.601562 128.800781 C 47.132812 128.398438 40.535156 130.667969 34.800781 135.601562 C 28.800781 140.667969 26 147 26.398438 154.601562 C 26.667969 161.132812 28.933594 166.867188 33.199219 171.800781 C 37.601562 177.132812 43 180 49.398438 180.398438 C 57.265625 180.800781 63.867188 178.535156 69.199219 173.601562 C 74.398438 168.800781 77.265625 162.464844 77.800781 154.601562 C 77.398438 148.066406 75.132812 142.332031 71 137.398438 C 66.601562 132.066406 61.132812 129.199219 54.601562 128.800781 "/>
<path style=" stroke:none;fill-rule:nonzero;fill:rgb(70.980392%,100%,100%);fill-opacity:1;" d="M 52 135 L 58.199219 136 L 58.199219 154.601562 L 45.800781 154.601562 L 45.800781 136 L 52 135 M 29.199219 154.601562 C 30.398438 147 34.535156 141.332031 41.601562 137.601562 L 41.601562 154.601562 L 29.199219 154.601562 M 62.398438 154.601562 L 62.398438 137.601562 C 69.464844 141.199219 73.601562 146.867188 74.800781 154.601562 L 62.398438 154.601562 "/>
<path style=" stroke:none;fill-rule:nonzero;fill:rgb(98.039216%,68.627451%,23.137255%);fill-opacity:1;" d="M 238 135.800781 C 243.199219 130.601562 249.464844 128 256.800781 128 C 264.132812 128 270.398438 130.601562 275.601562 135.800781 C 280.800781 141 283.398438 147.265625 283.398438 154.601562 C 283.398438 162.066406 280.800781 168.332031 275.601562 173.398438 C 270.535156 178.601562 264.265625 181.199219 256.800781 181.199219 C 249.464844 181.199219 243.199219 178.601562 238 173.398438 C 232.800781 168.199219 230.199219 161.933594 230.199219 154.601562 C 230.199219 147.265625 232.800781 141 238 135.800781 "/>
<path style=" stroke:none;fill-rule:nonzero;fill:rgb(96.470588%,57.254902%,12.941176%);fill-opacity:1;" d="M 229.199219 154.601562 C 229.734375 146.867188 232.535156 140.464844 237.601562 135.398438 C 242.667969 130.464844 249.132812 127.734375 257 127.199219 C 264.199219 126.933594 270.667969 129.601562 276.398438 135.199219 C 282.132812 140.933594 284.800781 147.398438 284.398438 154.601562 C 284 163 280.933594 169.601562 275.199219 174.398438 C 270.132812 178.933594 264 181.199219 256.800781 181.199219 C 249.601562 181.199219 243.464844 179 238.398438 174.601562 C 232.800781 169.667969 229.734375 163.066406 229.199219 154.800781 L 229.199219 154.601562 M 231.199219 154.601562 C 231.464844 161.132812 233.734375 166.867188 238 171.800781 C 242.398438 177.132812 247.867188 180 254.398438 180.398438 C 261.867188 180.800781 268.464844 178.535156 274.199219 173.601562 C 280.199219 168.535156 283 162.199219 282.601562 154.601562 C 282.199219 148.066406 279.933594 142.332031 275.800781 137.398438 C 271.398438 132.066406 265.933594 129.199219 259.398438 128.800781 C 251.535156 128.398438 244.933594 130.667969 239.601562 135.601562 C 234.398438 140.535156 231.601562 146.867188 231.199219 154.601562 "/>
<path style=" stroke:none;fill-rule:nonzero;fill:rgb(70.980392%,100%,100%);fill-opacity:1;" d="M 256.800781 135 L 263 136 L 263 154.601562 L 250.601562 154.601562 L 250.601562 136 L 256.800781 135 M 267.199219 154.601562 L 267.199219 137.601562 C 274.265625 141.199219 278.398438 146.867188 279.601562 154.601562 L 267.199219 154.601562 M 246.398438 154.601562 L 234 154.601562 C 235.199219 147 239.332031 141.332031 246.398438 137.601562 L 246.398438 154.601562 "/>
</g>
</svg>
