<?xml version="1.0" encoding="UTF-8"?>
<svg xmlns="http://www.w3.org/2000/svg" xmlns:xlink="http://www.w3.org/1999/xlink" width="312pt" height="352pt" viewBox="0 0 312 352" version="1.1">
<g id="surface1">
<path style=" stroke:none;fill-rule:nonzero;fill:rgb(100%,100%,100%);fill-opacity:1;" d="M 194.601562 342.199219 L 124.199219 342.199219 L 124.199219 223.601562 L 194.601562 223.601562 L 194.601562 342.199219 "/>
<path style=" stroke:none;fill-rule:nonzero;fill:rgb(0%,0%,0%);fill-opacity:1;" d="M 190.199219 229.601562 C 190.199219 226.800781 191 225.398438 192.601562 225.398438 L 128.199219 225.398438 L 128.199219 328.800781 L 128.601562 336.199219 C 128.464844 339 127.734375 340.398438 126.398438 340.398438 L 190.601562 340.398438 L 190.601562 236.800781 L 190.199219 229.601562 M 198.398438 222.398438 L 198.398438 341.199219 C 198.398438 342.398438 197.132812 343.265625 194.601562 343.800781 L 191.398438 344 L 122.601562 344 C 121.132812 344 120.398438 343.734375 120.398438 343.199219 L 120.398438 224.601562 C 120.398438 223.667969 121.132812 222.867188 122.601562 222.199219 L 125.800781 221.601562 L 196 221.601562 L 198.398438 222.398438 "/>
<path style=" stroke:none;fill-rule:nonzero;fill:rgb(80%,80%,80%);fill-opacity:1;" d="M 189.601562 347 L 119.398438 347 L 119.398438 228.398438 L 189.601562 228.398438 L 189.601562 347 "/>
<path style=" stroke:none;fill-rule:nonzero;fill:rgb(0%,0%,0%);fill-opacity:1;" d="M 193.601562 228 L 193.601562 346.601562 C 193.601562 348.199219 192.332031 349.199219 189.800781 349.601562 L 118 349.601562 C 116.265625 349.601562 115.398438 348.867188 115.398438 347.398438 L 115.398438 228.800781 C 115.398438 227.867188 116.132812 227.066406 117.601562 226.398438 L 120.800781 225.800781 L 191 225.800781 C 192.734375 225.800781 193.601562 226.535156 193.601562 228 M 123.199219 344.601562 L 185.800781 344.601562 L 185.800781 230.800781 L 123.199219 230.800781 L 123.199219 344.601562 "/>
<path style=" stroke:none;fill-rule:nonzero;fill:rgb(100%,100%,0%);fill-opacity:1;" d="M 227 30 C 241.265625 30 253.535156 35.132812 263.800781 45.398438 C 273.933594 55.535156 279 67.800781 279 82.199219 C 279 90.332031 277.265625 98 273.800781 105.199219 C 284.199219 108.800781 292.667969 115.066406 299.199219 124 C 305.734375 133.066406 309 143.265625 309 154.601562 C 309 165.933594 305.734375 176.132812 299.199219 185.199219 C 292.667969 194.132812 284.199219 200.398438 273.800781 204 C 277.265625 211.199219 279 218.867188 279 227 C 279 238.601562 275.535156 249.066406 268.601562 258.398438 C 261.667969 267.601562 252.667969 273.800781 241.601562 277 C 241.867188 282.464844 240.332031 287.464844 237 292 C 231.933594 299.199219 225 302.800781 216.199219 302.800781 L 179.199219 302.800781 C 171.734375 307.066406 163.535156 309.199219 154.601562 309.199219 C 145.800781 309.199219 137.535156 307.066406 129.800781 302.800781 L 92.800781 302.800781 C 84.132812 302.800781 77.199219 299.265625 72 292.199219 C 68.800781 287.535156 67.265625 282.464844 67.398438 277 C 56.332031 273.800781 47.332031 267.601562 40.398438 258.398438 C 33.464844 249.066406 30 238.601562 30 227 C 30 218.867188 31.734375 211.199219 35.199219 204 C 24.800781 200.398438 16.332031 194.132812 9.800781 185.199219 C 3.265625 176.132812 0 165.933594 0 154.601562 C 0 143.265625 3.265625 133.066406 9.800781 124 C 16.332031 115.066406 24.800781 108.800781 35.199219 105.199219 C 31.734375 98 30 90.332031 30 82.199219 C 30 67.800781 35.066406 55.535156 45.199219 45.398438 C 55.464844 35.132812 67.734375 30 82 30 C 90.265625 30 98 31.800781 105.199219 35.398438 C 108.800781 25 115.066406 16.535156 124 10 C 133.066406 3.332031 143.265625 0 154.601562 0 C 165.800781 0 175.933594 3.332031 185 10 C 193.933594 16.535156 200.199219 25 203.800781 35.398438 C 211 31.800781 218.734375 30 227 30 "/>
<path style=" stroke:none;fill-rule:nonzero;fill:rgb(0%,0%,0%);fill-opacity:1;" d="M 257.800781 51.398438 C 266.332031 59.800781 270.601562 70.066406 270.601562 82.199219 C 270.601562 93.132812 267 102.734375 259.800781 111 C 271.132812 111.667969 280.734375 116.199219 288.601562 124.601562 C 296.601562 133 300.601562 143 300.601562 154.601562 C 300.601562 166.066406 296.601562 176 288.601562 184.398438 C 280.734375 192.800781 271.132812 197.398438 259.800781 198.199219 C 267 206.199219 270.601562 215.800781 270.601562 227 C 270.601562 238.199219 266.867188 247.933594 259.398438 256.199219 C 251.933594 264.464844 242.734375 269.199219 231.800781 270.398438 L 232.199219 271.601562 C 234.066406 277.199219 233.332031 282.398438 230 287.199219 C 226.535156 292 221.933594 294.398438 216.199219 294.398438 L 177 294.398438 C 169.933594 298.535156 162.464844 300.601562 154.601562 300.601562 C 146.601562 300.601562 139.066406 298.535156 132 294.398438 L 92.800781 294.398438 C 87.066406 294.398438 82.464844 292 79 287.199219 C 75.667969 282.398438 74.933594 277.199219 76.800781 271.601562 L 77.199219 270.398438 C 66.265625 269.199219 57.066406 264.464844 49.601562 256.199219 C 42.132812 247.933594 38.398438 238.199219 38.398438 227 C 38.398438 215.800781 42 206.199219 49.199219 198.199219 C 37.867188 197.398438 28.265625 192.800781 20.398438 184.398438 C 12.398438 176 8.398438 166.066406 8.398438 154.601562 C 8.398438 143 12.398438 133 20.398438 124.601562 C 28.265625 116.199219 37.867188 111.667969 49.199219 111 C 42 102.734375 38.398438 93.132812 38.398438 82.199219 C 38.398438 70.066406 42.667969 59.800781 51.199219 51.398438 C 59.734375 42.867188 70 38.601562 82 38.601562 C 93.066406 38.601562 102.734375 42.199219 111 49.398438 C 111.667969 37.933594 116.199219 28.265625 124.601562 20.398438 C 133 12.535156 143 8.601562 154.601562 8.601562 C 166.066406 8.601562 176 12.535156 184.398438 20.398438 C 192.800781 28.265625 197.332031 37.933594 198 49.398438 C 206.265625 42.199219 215.933594 38.601562 227 38.601562 C 239 38.601562 249.265625 42.867188 257.800781 51.398438 "/>
<path style=" stroke:none;fill-rule:nonzero;fill:rgb(100%,100%,100%);fill-opacity:1;" d="M 183.199219 72.601562 L 185 72.398438 L 188.199219 73 C 190.066406 73.667969 191.398438 74.800781 192.199219 76.398438 C 193.667969 68 197.667969 61 204.199219 55.398438 C 210.734375 49.800781 218.332031 47 227 47 C 236.734375 47 245 50.464844 251.800781 57.398438 C 258.601562 64.199219 262 72.464844 262 82.199219 C 262 90.867188 259.199219 98.464844 253.601562 105 C 248.132812 111.398438 241.199219 115.332031 232.800781 116.800781 C 234.398438 117.867188 235.464844 119.199219 236 120.800781 C 236.800781 122.398438 237 124.132812 236.601562 126 C 242.464844 121.601562 249.265625 119.398438 257 119.398438 C 266.601562 119.398438 274.867188 122.867188 281.800781 129.800781 C 288.601562 136.601562 292 144.867188 292 154.601562 C 292 164.332031 288.601562 172.601562 281.800781 179.398438 C 274.867188 186.332031 266.601562 189.800781 257 189.800781 C 249.535156 189.800781 242.734375 187.601562 236.601562 183.199219 L 236 188.398438 C 235.464844 190 234.398438 191.332031 232.800781 192.398438 C 241.199219 193.867188 248.132812 197.800781 253.601562 204.199219 C 259.199219 210.734375 262 218.332031 262 227 C 262 236.734375 258.601562 245 251.800781 251.800781 C 245 258.734375 236.734375 262.199219 227 262.199219 L 219.601562 261.398438 L 224.199219 274.601562 C 225.265625 277.265625 224.933594 279.800781 223.199219 282.199219 C 221.601562 284.601562 219.265625 285.800781 216.199219 285.800781 L 174.601562 285.800781 C 168.464844 290.066406 161.800781 292.199219 154.601562 292.199219 C 147.398438 292.199219 140.734375 290.066406 134.601562 285.800781 L 92.800781 285.800781 C 89.734375 285.800781 87.464844 284.601562 86 282.199219 C 84.398438 279.933594 84 277.398438 84.800781 274.601562 L 89.398438 261.398438 L 82 262.199219 C 72.398438 262.199219 64.199219 258.734375 57.398438 251.800781 C 50.464844 245 47 236.734375 47 227 C 47 218.332031 49.800781 210.734375 55.398438 204.199219 C 60.867188 197.800781 67.800781 193.867188 76.199219 192.398438 C 74.601562 191.332031 73.535156 190 73 188.398438 C 72.199219 186.667969 72 184.933594 72.398438 183.199219 C 66.265625 187.601562 59.464844 189.800781 52 189.800781 C 42.398438 189.800781 34.199219 186.332031 27.398438 179.398438 C 20.464844 172.601562 17 164.332031 17 154.601562 C 17 144.867188 20.464844 136.601562 27.398438 129.800781 C 34.199219 122.867188 42.398438 119.398438 52 119.398438 C 59.734375 119.398438 66.535156 121.601562 72.398438 126 C 72 124.132812 72.199219 122.398438 73 120.800781 C 73.535156 119.332031 74.601562 118 76.199219 116.800781 C 67.800781 115.332031 60.867188 111.398438 55.398438 105 C 49.800781 98.464844 47 90.867188 47 82.199219 C 47 72.464844 50.464844 64.199219 57.398438 57.398438 C 64.199219 50.464844 72.398438 47 82 47 C 90.667969 47 98.265625 49.800781 104.800781 55.398438 C 111.332031 61 115.332031 68 116.800781 76.398438 C 117.601562 74.800781 118.933594 73.667969 120.800781 73 L 124 72.398438 L 126 72.601562 C 121.601562 66.464844 119.398438 59.667969 119.398438 52.199219 C 119.398438 42.464844 122.867188 34.199219 129.800781 27.398438 C 136.601562 20.464844 144.867188 17 154.601562 17 C 164.199219 17 172.464844 20.464844 179.398438 27.398438 C 186.199219 34.199219 189.601562 42.464844 189.601562 52.199219 C 189.601562 59.667969 187.464844 66.464844 183.199219 72.601562 "/>
<path style=" stroke:none;fill-rule:nonzero;fill:rgb(90.196078%,96.078431%,34.117647%);fill-opacity:1;" d="M 225.398438 128 L 223.398438 123.199219 L 228.199219 124 L 225.398438 128 "/>
<path style="fill:none;stroke-width:1;stroke-linecap:butt;stroke-linejoin:miter;stroke:rgb(80%,83.921569%,10.196078%);stroke-opacity:1;stroke-miterlimit:4;" d="M 56.349609 35.2 L 55.849609 33.999805 L 57.049805 34.2 Z M 56.349609 35.2 " transform="matrix(4,0,0,4,0,-12.8)"/>
<path style=" stroke:none;fill-rule:nonzero;fill:rgb(90.196078%,96.078431%,34.117647%);fill-opacity:1;" d="M 128 83.800781 L 123.199219 85.800781 L 124 80.800781 L 128 83.800781 "/>
<path style="fill:none;stroke-width:1;stroke-linecap:butt;stroke-linejoin:miter;stroke:rgb(80%,83.921569%,10.196078%);stroke-opacity:1;stroke-miterlimit:4;" d="M 32 24.150195 L 30.799805 24.650195 L 31 23.400195 Z M 32 24.150195 " transform="matrix(4,0,0,4,0,-12.8)"/>
<path style=" stroke:none;fill-rule:nonzero;fill:rgb(90.196078%,96.078431%,34.117647%);fill-opacity:1;" d="M 83.601562 181 L 85.601562 186 L 80.800781 185.199219 L 83.601562 181 "/>
<path style="fill:none;stroke-width:1;stroke-linecap:butt;stroke-linejoin:miter;stroke:rgb(80%,83.921569%,10.196078%);stroke-opacity:1;stroke-miterlimit:4;" d="M 20.900391 48.45 L 21.400391 49.7 L 20.200195 49.499805 Z M 20.900391 48.45 " transform="matrix(4,0,0,4,0,-12.8)"/>
<path style=" stroke:none;fill-rule:nonzero;fill:rgb(90.196078%,96.078431%,34.117647%);fill-opacity:1;" d="M 181 225.398438 L 185.800781 223.398438 L 185 228.398438 L 181 225.398438 "/>
<path style="fill:none;stroke-width:1;stroke-linecap:butt;stroke-linejoin:miter;stroke:rgb(80%,83.921569%,10.196078%);stroke-opacity:1;stroke-miterlimit:4;" d="M 45.25 59.549609 L 46.450195 59.049609 L 46.25 60.299609 Z M 45.25 59.549609 " transform="matrix(4,0,0,4,0,-12.8)"/>
<path style=" stroke:none;fill-rule:nonzero;fill:rgb(90.196078%,96.078431%,34.117647%);fill-opacity:1;" d="M 185.800781 85.800781 L 181 83.800781 L 185 80.800781 L 185.800781 85.800781 "/>
<path style="fill:none;stroke-width:1;stroke-linecap:butt;stroke-linejoin:miter;stroke:rgb(80%,83.921569%,10.196078%);stroke-opacity:1;stroke-miterlimit:4;" d="M 46.450195 24.650195 L 45.25 24.150195 L 46.25 23.400195 Z M 46.450195 24.650195 " transform="matrix(4,0,0,4,0,-12.8)"/>
<path style=" stroke:none;fill-rule:nonzero;fill:rgb(90.196078%,96.078431%,34.117647%);fill-opacity:1;" d="M 85.601562 123.199219 L 83.601562 128 L 80.800781 124 L 85.601562 123.199219 "/>
<path style="fill:none;stroke-width:1;stroke-linecap:butt;stroke-linejoin:miter;stroke:rgb(80%,83.921569%,10.196078%);stroke-opacity:1;stroke-miterlimit:4;" d="M 21.400391 33.999805 L 20.900391 35.2 L 20.200195 34.2 Z M 21.400391 33.999805 " transform="matrix(4,0,0,4,0,-12.8)"/>
<path style=" stroke:none;fill-rule:nonzero;fill:rgb(90.196078%,96.078431%,34.117647%);fill-opacity:1;" d="M 123.199219 223.398438 L 128 225.398438 L 124 228.398438 L 123.199219 223.398438 "/>
<path style="fill:none;stroke-width:1;stroke-linecap:butt;stroke-linejoin:miter;stroke:rgb(80%,83.921569%,10.196078%);stroke-opacity:1;stroke-miterlimit:4;" d="M 30.799805 59.049609 L 32 59.549609 L 31 60.299609 Z M 30.799805 59.049609 " transform="matrix(4,0,0,4,0,-12.8)"/>
<path style=" stroke:none;fill-rule:nonzero;fill:rgb(90.196078%,96.078431%,34.117647%);fill-opacity:1;" d="M 223.398438 186 L 225.398438 181 L 228.199219 185.199219 L 223.398438 186 "/>
<path style="fill:none;stroke-width:1;stroke-linecap:butt;stroke-linejoin:miter;stroke:rgb(80%,83.921569%,10.196078%);stroke-opacity:1;stroke-miterlimit:4;" d="M 55.849609 49.7 L 56.349609 48.45 L 57.049805 49.499805 Z M 55.849609 49.7 " transform="matrix(4,0,0,4,0,-12.8)"/>
<path style=" stroke:none;fill-rule:nonzero;fill:rgb(90.196078%,96.078431%,34.117647%);fill-opacity:1;" d="M 216.199219 277.398438 L 92.800781 277.398438 L 118.398438 205 L 190.601562 205 L 216.199219 277.398438 "/>
<path style=" stroke:none;fill-rule:nonzero;fill:rgb(80%,83.921569%,10.196078%);fill-opacity:1;" d="M 91 277.199219 L 116.601562 204.800781 C 116.867188 204 117.535156 203.601562 118.601562 203.601562 L 190.800781 203.601562 C 191.867188 203.601562 192.464844 203.933594 192.601562 204.601562 L 218.199219 276.800781 L 217.601562 278.199219 L 216 278.800781 L 92.601562 278.800781 C 91.132812 278.800781 90.601562 278.265625 91 277.199219 M 184.398438 206.398438 L 119.800781 206.398438 L 95.199219 276 L 213.601562 276 L 190 209.398438 L 189 206.199219 L 184.398438 206.398438 "/>
<path style=" stroke:none;fill-rule:nonzero;fill:rgb(90.196078%,96.078431%,34.117647%);fill-opacity:1;" d="M 121.398438 121.398438 C 112.199219 130.601562 107.601562 141.667969 107.601562 154.601562 C 107.601562 167.535156 112.199219 178.601562 121.398438 187.800781 C 130.601562 197 141.667969 201.601562 154.601562 201.601562 C 167.535156 201.601562 178.535156 197 187.601562 187.800781 C 196.800781 178.601562 201.398438 167.535156 201.398438 154.601562 C 201.398438 141.667969 196.800781 130.601562 187.601562 121.398438 C 178.535156 112.199219 167.535156 107.601562 154.601562 107.601562 C 141.667969 107.601562 130.601562 112.199219 121.398438 121.398438 M 223.199219 154.601562 C 223.199219 173.535156 216.464844 189.734375 203 203.199219 C 189.667969 216.535156 173.535156 223.199219 154.601562 223.199219 C 135.535156 223.199219 119.332031 216.535156 106 203.199219 C 92.535156 189.734375 85.800781 173.535156 85.800781 154.601562 C 85.800781 135.667969 92.535156 119.464844 106 106 C 119.464844 92.535156 135.667969 85.800781 154.601562 85.800781 C 173.535156 85.800781 189.667969 92.535156 203 106 C 216.464844 119.464844 223.199219 135.667969 223.199219 154.601562 "/>
<path style=" stroke:none;fill-rule:nonzero;fill:rgb(80%,83.921569%,10.196078%);fill-opacity:1;" d="M 155.601562 84.800781 C 175.601562 85.734375 192.535156 93.265625 206.398438 107.398438 C 221.066406 122.199219 227.265625 139.601562 225 159.601562 C 222.867188 177.734375 215.132812 193.132812 201.800781 205.800781 C 187.933594 218.867188 171.933594 225 153.800781 224.199219 C 133.667969 223.535156 116.601562 216.066406 102.601562 201.800781 C 87.933594 186.867188 81.734375 169.398438 84 149.398438 C 86.132812 130.734375 93.933594 115.464844 107.398438 103.601562 C 120.464844 91.734375 136.398438 85.464844 155.199219 84.800781 L 155.601562 84.800781 M 197.398438 103.601562 C 185.265625 93.066406 170.734375 87.464844 153.800781 86.800781 C 133.667969 87.601562 116.933594 95.734375 103.601562 111.199219 C 89.734375 127.066406 84.734375 144.867188 88.601562 164.601562 C 91.667969 181 99.265625 194.734375 111.398438 205.800781 C 124.199219 217.398438 138.800781 222.867188 155.199219 222.199219 C 175.332031 221.535156 192.132812 213.464844 205.601562 198 C 219.332031 182.132812 224.265625 164.265625 220.398438 144.398438 C 217.199219 127.734375 209.535156 114.132812 197.398438 103.601562 "/>
<path style=" stroke:none;fill-rule:nonzero;fill:rgb(80%,83.921569%,10.196078%);fill-opacity:1;" d="M 155.199219 106.601562 C 169.332031 107.398438 181.265625 112.734375 191 122.601562 C 201.398438 133.132812 205.464844 145.398438 203.199219 159.398438 C 201.199219 172.066406 195.601562 182.332031 186.398438 190.199219 C 177.601562 197.800781 166.800781 201.933594 154 202.601562 L 153.199219 202.601562 C 139.332031 201.667969 127.601562 196.265625 118 186.398438 C 107.734375 175.867188 103.734375 163.667969 106 149.800781 C 108 137.535156 113.535156 127.199219 122.601562 118.800781 C 132.066406 110 142.933594 105.933594 155.199219 106.601562 M 110.601562 154.601562 C 111.132812 166.464844 115.132812 176.734375 122.601562 185.398438 C 131 194.734375 141.867188 199.800781 155.199219 200.601562 C 169.332031 199.800781 180.332031 194.398438 188.199219 184.398438 C 195.398438 175.464844 198.800781 164.734375 198.398438 152.199219 C 197.867188 139.800781 193.867188 129.464844 186.398438 121.199219 C 178.132812 112.132812 167.265625 107.933594 153.800781 108.601562 C 139.535156 109.398438 128.464844 114.464844 120.601562 123.800781 C 113.535156 132.332031 110.199219 142.601562 110.601562 154.601562 "/>
<path style=" stroke:none;fill-rule:nonzero;fill:rgb(84.705882%,87.45098%,15.294118%);fill-opacity:1;" d="M 214 189 L 188.800781 189 L 188.800781 214 L 167 201.398438 L 154.601562 223.199219 L 142 201.398438 L 120.199219 214 L 120.199219 189 L 95 189 L 107.601562 167.199219 L 85.800781 154.601562 L 107.601562 142 L 95 120.199219 L 120.199219 120.199219 L 120.199219 95 L 142 107.601562 L 154.601562 85.800781 L 167 107.601562 L 188.800781 95 L 188.800781 120.199219 L 214 120.199219 L 201.398438 142 L 223.199219 154.601562 L 201.398438 167.199219 L 214 189 "/>
<path style=" stroke:none;fill-rule:nonzero;fill:rgb(80%,83.921569%,10.196078%);fill-opacity:1;" d="M 189.800781 94.800781 L 190 119.800781 L 214.398438 119.800781 L 215 120 C 206.601562 134.398438 202.601562 141.734375 203 142 L 224.199219 154.199219 L 223.800781 154.800781 L 202.601562 167.199219 L 215 188.601562 L 213.601562 189.398438 L 189.800781 189.398438 L 189.800781 213.800781 L 189 214.398438 L 188 214.398438 C 174.132812 206.667969 167.332031 202.535156 167.601562 202 L 155.398438 223.199219 L 154.601562 223.800781 L 153.601562 223.601562 L 146.800781 212 C 143.066406 205.601562 141.464844 202.265625 142 202 L 120.800781 214.199219 L 120 214.601562 L 119.199219 214.398438 L 119 189.398438 L 94.601562 189.398438 L 94 189 L 101 177.398438 L 106 167.199219 L 85 155 L 85.199219 154.398438 L 96.800781 147.800781 L 106.199219 141.601562 L 94 120.398438 C 93.867188 120 94.332031 119.800781 95.398438 119.800781 L 119.199219 119.800781 L 119.199219 95.398438 L 120 94.601562 L 121 94.800781 C 134.867188 102.535156 141.667969 106.667969 141.398438 107.199219 L 153.601562 86 L 154.601562 85.398438 L 155.398438 85.601562 C 163.933594 99.464844 167.867188 106.601562 167.199219 107 L 188.199219 94.800781 L 189.800781 94.800781 M 166.199219 108 L 159 96.601562 C 155.667969 91.265625 154.398438 87.933594 155.199219 86.601562 L 142.800781 107.398438 L 142 108 L 141 108 L 129.398438 101.601562 C 123.933594 98.535156 121.199219 96.535156 121.199219 95.601562 L 121.199219 120 L 119.800781 120.601562 L 106.398438 121 L 96.398438 120.601562 L 108.601562 141.800781 L 108.199219 142.199219 L 97 149.398438 L 87.398438 154.601562 L 108.398438 166.800781 L 108.601562 167 L 102.601562 178.800781 C 99.265625 185.199219 97.132812 188.398438 96.199219 188.398438 L 120.601562 188.398438 L 121.199219 188.601562 L 122 202 C 122.132812 208.933594 121.535156 212.800781 120.199219 213.601562 L 141.398438 201.199219 C 141.933594 200.667969 142.464844 200.667969 143 201.199219 L 150.199219 212.601562 C 153.535156 218.066406 154.800781 221.464844 154 222.800781 L 166.199219 201.601562 L 167 201.199219 L 168 201.199219 L 179.800781 207.601562 C 185.132812 210.667969 187.800781 212.667969 187.800781 213.601562 L 187.800781 189.199219 C 187.800781 188.667969 188.265625 188.398438 189.199219 188.398438 L 202.601562 188.199219 L 212.601562 188.601562 L 200.398438 167.398438 L 200.800781 167.199219 L 200.800781 167 L 212 160 C 218 156.132812 221.199219 154.332031 221.601562 154.601562 L 200.601562 142.398438 L 200.398438 142.199219 L 206.398438 130.398438 C 209.867188 123.867188 212.066406 120.601562 213 120.601562 L 188.398438 120.601562 L 187.800781 120.398438 L 187.199219 107.199219 C 186.933594 100.265625 187.464844 96.398438 188.800781 95.601562 L 167.601562 107.800781 L 166.199219 108 "/>
<path style=" stroke:none;fill-rule:nonzero;fill:rgb(90.196078%,96.078431%,34.117647%);fill-opacity:1;" d="M 201.398438 154.601562 C 201.398438 167.535156 196.800781 178.601562 187.601562 187.800781 C 178.535156 197 167.535156 201.601562 154.601562 201.601562 C 141.667969 201.601562 130.601562 197 121.398438 187.800781 C 112.199219 178.601562 107.601562 167.535156 107.601562 154.601562 C 107.601562 141.667969 112.199219 130.601562 121.398438 121.398438 C 130.601562 112.199219 141.667969 107.601562 154.601562 107.601562 C 167.535156 107.601562 178.535156 112.199219 187.601562 121.398438 C 196.800781 130.601562 201.398438 141.667969 201.398438 154.601562 "/>
<path style=" stroke:none;fill-rule:nonzero;fill:rgb(80%,83.921569%,10.196078%);fill-opacity:1;" d="M 154.398438 107 C 167.734375 106.601562 179.066406 110.265625 188.398438 118 C 198.933594 126.535156 204.601562 138.398438 205.398438 153.601562 L 205.199219 154.398438 C 204.265625 169.066406 198.398438 180.800781 187.601562 189.601562 C 177.601562 197.601562 165.734375 201.734375 152 202 C 138.132812 202.398438 126.667969 198.667969 117.601562 190.800781 C 107.601562 182.265625 103 170.398438 103.800781 155.199219 C 104.601562 140.398438 110.199219 128.535156 120.601562 119.601562 C 129.933594 111.464844 141.199219 107.265625 154.398438 107 M 111.800781 158.601562 C 113.132812 167.667969 116.398438 175.667969 121.601562 182.601562 C 127.332031 190.199219 134.398438 195.132812 142.800781 197.398438 C 157.734375 201.535156 170.601562 199.066406 181.398438 190 C 191.398438 181.601562 196.800781 170.132812 197.601562 155.601562 L 197.601562 155.199219 C 196.933594 145.199219 194 136.332031 188.800781 128.601562 C 183.066406 119.933594 175.535156 114.332031 166.199219 111.800781 C 151.535156 107.667969 138.199219 110.667969 126.199219 120.800781 C 114.066406 131.066406 109.265625 143.667969 111.800781 158.601562 "/>
<path style=" stroke:none;fill-rule:nonzero;fill:rgb(80%,83.921569%,10.196078%);fill-opacity:1;" d="M 154.601562 70.601562 L 156.398438 70.800781 L 156.398438 237.398438 L 154.601562 238.601562 L 152.601562 238.398438 L 152.601562 71.800781 C 152.601562 71.265625 153.265625 70.867188 154.601562 70.601562 "/>
<path style=" stroke:none;fill-rule:nonzero;fill:rgb(80%,83.921569%,10.196078%);fill-opacity:1;" d="M 95 95.199219 L 97.398438 95 L 215.199219 212.800781 C 215.601562 213.199219 215.199219 213.667969 214 214.199219 L 211.601562 214.199219 L 93.800781 96.398438 C 93.398438 96 93.800781 95.601562 95 95.199219 "/>
<path style=" stroke:none;fill-rule:nonzero;fill:rgb(80%,83.921569%,10.196078%);fill-opacity:1;" d="M 237 155.398438 L 70.398438 155.398438 C 69.199219 155.398438 69 155.132812 69.800781 154.601562 L 72 153.800781 L 238.601562 153.601562 C 240.332031 153.601562 239.800781 154.199219 237 155.398438 "/>
<path style=" stroke:none;fill-rule:nonzero;fill:rgb(80%,83.921569%,10.196078%);fill-opacity:1;" d="M 214 95 C 215.199219 94.867188 215.601562 95.066406 215.199219 95.601562 L 97.398438 213.398438 L 93.800781 213.601562 L 211.601562 95.800781 C 212 95.398438 212.800781 95.132812 214 95 "/>
<path style=" stroke:none;fill-rule:nonzero;fill:rgb(98.039216%,68.627451%,23.137255%);fill-opacity:1;" d="M 181.199219 52.199219 C 181.199219 59.535156 178.601562 65.800781 173.398438 71 C 168.199219 76.199219 161.933594 78.800781 154.601562 78.800781 C 147.265625 78.800781 140.933594 76.199219 135.601562 71 C 130.398438 65.800781 127.800781 59.535156 127.800781 52.199219 C 127.800781 44.867188 130.398438 38.601562 135.601562 33.398438 C 140.800781 28.199219 147.132812 25.601562 154.601562 25.601562 C 161.933594 25.601562 168.199219 28.199219 173.398438 33.398438 C 178.601562 38.601562 181.199219 44.867188 181.199219 52.199219 "/>
<path style=" stroke:none;fill-rule:nonzero;fill:rgb(96.470588%,57.254902%,12.941176%);fill-opacity:1;" d="M 173 32.199219 C 178.601562 37 181.667969 43.601562 182.199219 52 L 182.199219 52.199219 C 181.667969 59.933594 178.867188 66.332031 173.800781 71.398438 C 168.734375 76.332031 162.265625 79 154.398438 79.398438 C 147.199219 79.800781 140.734375 77.199219 135 71.601562 C 129.265625 65.867188 126.601562 59.398438 127 52.199219 C 127.398438 43.933594 130.464844 37.332031 136.199219 32.398438 C 141.265625 27.867188 147.398438 25.601562 154.601562 25.601562 C 161.800781 25.601562 167.933594 27.800781 173 32.199219 M 157 26.398438 C 149.535156 26 142.933594 28.265625 137.199219 33.199219 C 131.199219 38.265625 128.398438 44.535156 128.800781 52 C 129.199219 58.667969 131.464844 64.464844 135.601562 69.398438 C 140 74.734375 145.464844 77.601562 152 78 C 159.867188 78.398438 166.464844 76.132812 171.800781 71.199219 C 177 66.265625 179.800781 59.933594 180.199219 52.199219 C 179.800781 45.667969 177.535156 39.933594 173.398438 35 C 169 29.667969 163.535156 26.800781 157 26.398438 "/>
<path style=" stroke:none;fill-rule:nonzero;fill:rgb(70.980392%,100%,100%);fill-opacity:1;" d="M 154.601562 32.601562 L 160.601562 33.398438 L 160.601562 52.199219 L 148.398438 52.199219 L 148.398438 33.398438 L 154.601562 32.601562 M 173.199219 42.199219 C 175.332031 45.265625 176.667969 48.601562 177.199219 52.199219 L 165 52.199219 L 165 35.199219 C 168.199219 36.800781 170.933594 39.132812 173.199219 42.199219 M 135.800781 42.199219 C 138.066406 39.132812 140.800781 36.800781 144 35.199219 L 144 52.199219 L 131.800781 52.199219 C 132.332031 48.601562 133.667969 45.265625 135.800781 42.199219 "/>
<path style=" stroke:none;fill-rule:nonzero;fill:rgb(98.039216%,68.627451%,23.137255%);fill-opacity:1;" d="M 101 63.398438 C 106.199219 68.601562 108.800781 74.867188 108.800781 82.199219 C 108.800781 89.535156 106.199219 95.800781 101 101 C 95.667969 106.199219 89.332031 108.800781 82 108.800781 C 74.667969 108.800781 68.398438 106.199219 63.199219 101 C 58 95.800781 55.398438 89.535156 55.398438 82.199219 C 55.398438 74.867188 58 68.601562 63.199219 63.398438 C 68.398438 58.199219 74.667969 55.601562 82 55.601562 C 89.464844 55.601562 95.800781 58.199219 101 63.398438 "/>
<path style=" stroke:none;fill-rule:nonzero;fill:rgb(96.470588%,57.254902%,12.941176%);fill-opacity:1;" d="M 109.800781 82.199219 C 109.265625 89.933594 106.464844 96.332031 101.398438 101.398438 C 96.199219 106.332031 89.734375 109 82 109.398438 C 74.800781 109.800781 68.332031 107.199219 62.601562 101.601562 C 56.867188 95.867188 54.132812 89.398438 54.398438 82.199219 C 54.933594 73.933594 58 67.332031 63.601562 62.398438 C 68.800781 57.867188 75 55.601562 82.199219 55.601562 C 89.398438 55.601562 95.535156 57.800781 100.601562 62.199219 C 106.199219 67 109.265625 73.601562 109.800781 82 L 109.800781 82.199219 M 56.398438 82 C 56.800781 88.667969 59.066406 94.464844 63.199219 99.398438 C 67.601562 104.734375 73.066406 107.601562 79.601562 108 C 87.464844 108.398438 94.066406 106.132812 99.398438 101.199219 C 104.601562 96.265625 107.398438 89.933594 107.800781 82.199219 C 107.398438 75.667969 105.132812 69.933594 101 65 C 96.601562 59.667969 91.132812 56.800781 84.601562 56.398438 C 77.132812 56 70.535156 58.265625 64.800781 63.199219 C 58.800781 68.265625 56 74.535156 56.398438 82 "/>
<path style=" stroke:none;fill-rule:nonzero;fill:rgb(70.980392%,100%,100%);fill-opacity:1;" d="M 88.199219 63.398438 L 88.199219 82.199219 L 76 82.199219 L 76 63.398438 L 82 62.601562 L 88.199219 63.398438 M 71.601562 82.199219 L 59.398438 82.199219 C 59.933594 78.601562 61.265625 75.265625 63.398438 72.199219 C 65.667969 69.132812 68.398438 66.800781 71.601562 65.199219 L 71.601562 82.199219 M 92.601562 65.199219 C 95.800781 66.800781 98.535156 69.132812 100.800781 72.199219 C 102.933594 75.265625 104.265625 78.601562 104.800781 82.199219 L 92.601562 82.199219 L 92.601562 65.199219 "/>
<path style=" stroke:none;fill-rule:nonzero;fill:rgb(98.039216%,68.627451%,23.137255%);fill-opacity:1;" d="M 101 208.199219 C 106.199219 213.398438 108.800781 219.667969 108.800781 227 C 108.800781 234.332031 106.199219 240.601562 101 245.800781 C 95.667969 251 89.332031 253.601562 82 253.601562 C 74.667969 253.601562 68.398438 251 63.199219 245.800781 C 58 240.601562 55.398438 234.332031 55.398438 227 C 55.398438 219.667969 58 213.398438 63.199219 208.199219 C 68.398438 203 74.667969 200.398438 82 200.398438 C 89.464844 200.398438 95.800781 203 101 208.199219 "/>
<path style=" stroke:none;fill-rule:nonzero;fill:rgb(96.470588%,57.254902%,12.941176%);fill-opacity:1;" d="M 82.199219 200.398438 C 89.265625 200.398438 95.398438 202.601562 100.601562 207 C 106.199219 211.933594 109.265625 218.601562 109.800781 227 L 109.800781 227.199219 C 109.265625 234.800781 106.464844 241.132812 101.398438 246.199219 C 96.332031 251.132812 89.867188 253.867188 82 254.398438 C 74.800781 254.667969 68.332031 252 62.601562 246.398438 C 56.867188 240.800781 54.132812 234.332031 54.398438 227 C 54.933594 218.734375 58 212.132812 63.601562 207.199219 C 68.800781 202.667969 75 200.398438 82.199219 200.398438 M 84.601562 201.199219 C 77.132812 200.800781 70.535156 203.066406 64.800781 208 C 58.800781 213.066406 56 219.398438 56.398438 227 C 56.800781 233.535156 59.066406 239.265625 63.199219 244.199219 C 67.601562 249.535156 73.066406 252.398438 79.601562 252.800781 C 87.464844 253.199219 94.066406 250.933594 99.398438 246 C 104.601562 241.066406 107.398438 234.734375 107.800781 227 C 107.398438 220.464844 105.132812 214.734375 101 209.800781 C 96.601562 204.464844 91.132812 201.601562 84.601562 201.199219 "/>
<path style=" stroke:none;fill-rule:nonzero;fill:rgb(70.980392%,100%,100%);fill-opacity:1;" d="M 100.800781 217 C 102.933594 220.066406 104.265625 223.398438 104.800781 227 L 92.601562 227 L 92.601562 210 C 95.800781 211.601562 98.535156 213.933594 100.800781 217 M 88.199219 208.199219 L 88.199219 227 L 76 227 L 76 208.199219 L 82 207.398438 L 88.199219 208.199219 M 71.601562 210 L 71.601562 227 L 59.398438 227 C 59.933594 223.398438 61.265625 220.066406 63.398438 217 C 65.667969 213.933594 68.398438 211.601562 71.601562 210 "/>
<path style=" stroke:none;fill-rule:nonzero;fill:rgb(98.039216%,68.627451%,23.137255%);fill-opacity:1;" d="M 208 63.398438 C 213.199219 58.199219 219.535156 55.601562 227 55.601562 C 234.332031 55.601562 240.601562 58.199219 245.800781 63.398438 C 251 68.601562 253.601562 74.867188 253.601562 82.199219 C 253.601562 89.535156 251 95.800781 245.800781 101 C 240.601562 106.199219 234.332031 108.800781 227 108.800781 C 219.667969 108.800781 213.332031 106.199219 208 101 C 202.800781 95.800781 200.199219 89.535156 200.199219 82.199219 C 200.199219 74.867188 202.800781 68.601562 208 63.398438 "/>
<path style=" stroke:none;fill-rule:nonzero;fill:rgb(96.470588%,57.254902%,12.941176%);fill-opacity:1;" d="M 207.800781 63 C 212.867188 57.933594 219.265625 55.199219 227 54.800781 C 234.199219 54.398438 240.734375 57.066406 246.601562 62.800781 C 252.332031 68.398438 255 74.800781 254.601562 82 C 254.066406 90.398438 251 97 245.398438 101.800781 C 240.199219 106.332031 234.066406 108.601562 227 108.601562 C 219.800781 108.734375 213.667969 106.601562 208.601562 102.199219 C 203 97.398438 199.933594 90.933594 199.398438 82.800781 L 199.398438 81.800781 C 199.933594 74.199219 202.734375 67.933594 207.800781 63 M 201.199219 82 C 201.601562 88.667969 203.867188 94.464844 208 99.398438 C 212.398438 104.734375 217.867188 107.601562 224.398438 108 C 231.867188 108.398438 238.464844 106.132812 244.199219 101.199219 C 250.199219 96.132812 253 89.800781 252.601562 82.199219 C 252.332031 75.667969 250.066406 69.933594 245.800781 65 C 241.398438 59.667969 235.933594 56.800781 229.398438 56.398438 C 221.535156 56 215 58.265625 209.800781 63.199219 C 204.601562 68 201.734375 74.265625 201.199219 82 "/>
<path style=" stroke:none;fill-rule:nonzero;fill:rgb(70.980392%,100%,100%);fill-opacity:1;" d="M 220.800781 63.398438 L 227 62.601562 L 233.199219 63.398438 L 233.199219 82.199219 L 220.800781 82.199219 L 220.800781 63.398438 M 216.601562 65.199219 L 216.601562 82.199219 L 204.199219 82.199219 C 205.535156 74.199219 209.667969 68.535156 216.601562 65.199219 M 249.800781 82.199219 L 237.398438 82.199219 L 237.398438 65.199219 C 244.332031 68.667969 248.464844 74.332031 249.800781 82.199219 "/>
<path style=" stroke:none;fill-rule:nonzero;fill:rgb(98.039216%,68.627451%,23.137255%);fill-opacity:1;" d="M 208 208.199219 C 213.199219 203 219.535156 200.398438 227 200.398438 C 234.332031 200.398438 240.601562 203 245.800781 208.199219 C 251 213.398438 253.601562 219.667969 253.601562 227 C 253.601562 234.332031 251 240.601562 245.800781 245.800781 C 240.601562 251 234.332031 253.601562 227 253.601562 C 219.667969 253.601562 213.332031 251 208 245.800781 C 202.800781 240.601562 200.199219 234.332031 200.199219 227 C 200.199219 219.667969 202.800781 213.398438 208 208.199219 "/>
<path style=" stroke:none;fill-rule:nonzero;fill:rgb(96.470588%,57.254902%,12.941176%);fill-opacity:1;" d="M 245.800781 209.800781 C 241.398438 204.464844 235.933594 201.601562 229.398438 201.199219 C 221.535156 200.800781 215 203.066406 209.800781 208 C 204.601562 212.800781 201.734375 219.132812 201.199219 227 C 201.601562 233.535156 203.867188 239.265625 208 244.199219 C 212.398438 249.535156 217.867188 252.398438 224.398438 252.800781 C 231.867188 253.199219 238.464844 250.933594 244.199219 246 C 250.199219 240.933594 253 234.601562 252.601562 227 C 252.332031 220.464844 250.066406 214.734375 245.800781 209.800781 M 246.601562 207.601562 C 252.332031 213.332031 255 219.800781 254.601562 227 C 254.066406 235.265625 251 241.867188 245.398438 246.800781 C 240.199219 251.199219 234.066406 253.398438 227 253.398438 C 219.800781 253.535156 213.667969 251.398438 208.601562 247 C 203 242.199219 199.933594 235.734375 199.398438 227.601562 L 199.398438 226.601562 C 199.933594 219 202.734375 212.734375 207.800781 207.800781 C 212.867188 202.734375 219.265625 200 227 199.601562 C 234.199219 199.199219 240.734375 201.867188 246.601562 207.601562 "/>
<path style=" stroke:none;fill-rule:nonzero;fill:rgb(70.980392%,100%,100%);fill-opacity:1;" d="M 233.199219 208.199219 L 233.199219 227 L 220.800781 227 L 220.800781 208.199219 L 227 207.398438 L 233.199219 208.199219 M 249.800781 227 L 237.398438 227 L 237.398438 210 C 244.332031 213.464844 248.464844 219.132812 249.800781 227 M 216.601562 210 L 216.601562 227 L 204.199219 227 C 205.535156 219 209.667969 213.332031 216.601562 210 "/>
<path style=" stroke:none;fill-rule:nonzero;fill:rgb(98.039216%,68.627451%,23.137255%);fill-opacity:1;" d="M 181.199219 257 C 181.199219 264.332031 178.601562 270.601562 173.398438 275.800781 C 168.199219 281 161.933594 283.601562 154.601562 283.601562 C 147.265625 283.601562 140.933594 281 135.601562 275.800781 C 130.398438 270.601562 127.800781 264.332031 127.800781 257 C 127.800781 249.667969 130.398438 243.398438 135.601562 238.199219 C 140.800781 233 147.132812 230.398438 154.601562 230.398438 C 161.933594 230.398438 168.199219 233 173.398438 238.199219 C 178.601562 243.398438 181.199219 249.667969 181.199219 257 "/>
<path style=" stroke:none;fill-rule:nonzero;fill:rgb(96.470588%,57.254902%,12.941176%);fill-opacity:1;" d="M 173 237 C 178.601562 241.933594 181.667969 248.601562 182.199219 257 L 182.199219 257.199219 C 181.667969 264.800781 178.867188 271.132812 173.800781 276.199219 C 168.734375 281.132812 162.265625 283.867188 154.398438 284.398438 C 147.199219 284.667969 140.734375 282 135 276.398438 C 129.265625 270.667969 126.601562 264.199219 127 257 C 127.398438 248.734375 130.464844 242.132812 136.199219 237.199219 C 141.265625 232.667969 147.398438 230.398438 154.601562 230.398438 C 161.667969 230.398438 167.800781 232.601562 173 237 M 157 231.199219 C 149.535156 230.800781 142.933594 233.066406 137.199219 238 C 131.199219 243.066406 128.398438 249.398438 128.800781 257 C 129.199219 263.535156 131.464844 269.265625 135.601562 274.199219 C 140 279.535156 145.464844 282.398438 152 282.800781 C 159.867188 283.199219 166.464844 280.933594 171.800781 276 C 177 271.066406 179.800781 264.734375 180.199219 257 C 179.800781 250.464844 177.535156 244.734375 173.398438 239.800781 C 169 234.464844 163.535156 231.601562 157 231.199219 "/>
<path style=" stroke:none;fill-rule:nonzero;fill:rgb(70.980392%,100%,100%);fill-opacity:1;" d="M 154.601562 237.398438 L 160.601562 238.199219 L 160.601562 257 L 148.398438 257 L 148.398438 238.199219 L 154.601562 237.398438 M 135.800781 247 C 138.066406 243.933594 140.800781 241.601562 144 240 L 144 257 L 131.800781 257 C 132.332031 253.398438 133.667969 250.066406 135.800781 247 M 177.199219 257 L 165 257 L 165 240 C 168.199219 241.601562 170.933594 243.933594 173.199219 247 C 175.332031 250.066406 176.667969 253.398438 177.199219 257 "/>
<path style=" stroke:none;fill-rule:nonzero;fill:rgb(98.039216%,68.627451%,23.137255%);fill-opacity:1;" d="M 78.800781 154.601562 C 78.800781 161.933594 76.199219 168.199219 71 173.398438 C 65.800781 178.601562 59.535156 181.199219 52.199219 181.199219 C 44.867188 181.199219 38.535156 178.601562 33.199219 173.398438 C 28 168.199219 25.398438 161.933594 25.398438 154.601562 C 25.398438 147.265625 28 141 33.199219 135.800781 C 38.398438 130.601562 44.734375 128 52.199219 128 C 59.535156 128 65.800781 130.601562 71 135.800781 C 76.199219 141 78.800781 147.265625 78.800781 154.601562 "/>
<path style=" stroke:none;fill-rule:nonzero;fill:rgb(96.470588%,57.254902%,12.941176%);fill-opacity:1;" d="M 52.199219 128 C 59.398438 128 65.535156 130.199219 70.601562 134.601562 C 76.199219 139.398438 79.265625 146 79.800781 154.398438 L 79.800781 154.601562 C 79.265625 162.332031 76.464844 168.734375 71.398438 173.800781 C 66.199219 178.734375 59.734375 181.464844 52 182 C 44.800781 182.265625 38.332031 179.601562 32.601562 174 C 26.867188 168.265625 24.132812 161.800781 24.398438 154.601562 C 24.933594 146.332031 28 139.734375 33.601562 134.800781 C 38.800781 130.265625 45 128 52.199219 128 M 34.800781 135.601562 C 28.800781 140.667969 26 146.933594 26.398438 154.398438 C 26.800781 161.066406 29.066406 166.867188 33.199219 171.800781 C 37.601562 177.132812 43.066406 180 49.601562 180.398438 C 57.464844 180.800781 64.066406 178.535156 69.398438 173.601562 C 74.601562 168.667969 77.398438 162.332031 77.800781 154.601562 C 77.398438 148.066406 75.132812 142.332031 71 137.398438 C 66.601562 132.066406 61.132812 129.199219 54.601562 128.800781 C 47.132812 128.398438 40.535156 130.667969 34.800781 135.601562 "/>
<path style=" stroke:none;fill-rule:nonzero;fill:rgb(70.980392%,100%,100%);fill-opacity:1;" d="M 70.800781 144.601562 C 72.933594 147.667969 74.265625 151 74.800781 154.601562 L 62.601562 154.601562 L 62.601562 137.601562 C 65.800781 139.199219 68.535156 141.535156 70.800781 144.601562 M 52.199219 135 L 58.199219 135.800781 L 58.199219 154.601562 L 46 154.601562 L 46 135.800781 L 52.199219 135 M 41.601562 137.601562 L 41.601562 154.601562 L 29.398438 154.601562 C 29.933594 151 31.265625 147.667969 33.398438 144.601562 C 35.667969 141.535156 38.398438 139.199219 41.601562 137.601562 "/>
<path style=" stroke:none;fill-rule:nonzero;fill:rgb(98.039216%,68.627451%,23.137255%);fill-opacity:1;" d="M 238 135.800781 C 243.199219 130.601562 249.535156 128 257 128 C 264.332031 128 270.601562 130.601562 275.800781 135.800781 C 281 141 283.601562 147.265625 283.601562 154.601562 C 283.601562 161.933594 281 168.199219 275.800781 173.398438 C 270.601562 178.601562 264.332031 181.199219 257 181.199219 C 249.667969 181.199219 243.332031 178.601562 238 173.398438 C 232.800781 168.199219 230.199219 161.933594 230.199219 154.601562 C 230.199219 147.265625 232.800781 141 238 135.800781 "/>
<path style=" stroke:none;fill-rule:nonzero;fill:rgb(96.470588%,57.254902%,12.941176%);fill-opacity:1;" d="M 239.601562 135.601562 C 234.398438 140.398438 231.601562 146.667969 231.199219 154.398438 C 231.601562 161.066406 233.867188 166.867188 238 171.800781 C 242.398438 177.132812 247.867188 180 254.398438 180.398438 C 261.867188 180.800781 268.464844 178.535156 274.199219 173.601562 C 280.199219 168.535156 283 162.199219 282.601562 154.601562 C 282.199219 148.066406 279.933594 142.332031 275.800781 137.398438 C 271.398438 132.066406 265.933594 129.199219 259.398438 128.800781 C 251.535156 128.398438 244.933594 130.667969 239.601562 135.601562 M 257 127.199219 C 264.199219 126.800781 270.734375 129.464844 276.601562 135.199219 C 282.332031 140.800781 285 147.199219 284.601562 154.398438 C 284.066406 162.800781 281 169.398438 275.398438 174.199219 C 270.199219 178.734375 264.066406 181 257 181 C 249.800781 181.132812 243.667969 179 238.601562 174.601562 C 233 169.800781 229.933594 163.332031 229.398438 155.199219 L 229.398438 154.199219 C 229.933594 146.601562 232.734375 140.332031 237.800781 135.398438 C 242.867188 130.332031 249.265625 127.601562 257 127.199219 "/>
<path style=" stroke:none;fill-rule:nonzero;fill:rgb(70.980392%,100%,100%);fill-opacity:1;" d="M 263 135.800781 L 263 154.601562 L 250.800781 154.601562 L 250.800781 135.800781 L 257 135 L 263 135.800781 M 246.398438 137.601562 L 246.398438 154.601562 L 234.199219 154.601562 C 234.734375 151 236.066406 147.667969 238.199219 144.601562 C 240.464844 141.535156 243.199219 139.199219 246.398438 137.601562 M 275.601562 144.601562 C 277.734375 147.667969 279.066406 151 279.601562 154.601562 L 267.398438 154.601562 L 267.398438 137.601562 C 270.601562 139.199219 273.332031 141.535156 275.601562 144.601562 "/>
</g>
</svg>
