<?xml version="1.0" encoding="UTF-8"?>
<svg xmlns="http://www.w3.org/2000/svg" xmlns:xlink="http://www.w3.org/1999/xlink" width="312pt" height="312pt" viewBox="0 0 312 312" version="1.1">
<g id="surface1">
<path style=" stroke:none;fill-rule:nonzero;fill:rgb(100%,100%,100%);fill-opacity:1;" d="M 180.199219 303.199219 L 110 303.199219 L 110 184.601562 L 180.199219 184.601562 L 180.199219 303.199219 "/>
<path style=" stroke:none;fill-rule:nonzero;fill:rgb(0%,0%,0%);fill-opacity:1;" d="M 184.199219 183.601562 L 184.199219 302.199219 C 184.199219 303.667969 182.933594 304.667969 180.398438 305.199219 L 177.199219 305.398438 L 108.601562 305.398438 C 107 305.398438 106.199219 305.066406 106.199219 304.398438 L 106.199219 185.601562 C 106.199219 183.464844 108 182.398438 111.601562 182.398438 L 181.800781 182.398438 C 183.398438 182.398438 184.199219 182.800781 184.199219 183.601562 M 178.398438 186.800781 L 113.800781 186.800781 L 113.800781 289.800781 L 114.199219 297.199219 C 114.199219 299.734375 113.464844 301 112 301 L 176.398438 301 L 176.398438 198 L 176 190.601562 C 176 188.066406 176.800781 186.800781 178.398438 186.800781 "/>
<path style=" stroke:none;fill-rule:nonzero;fill:rgb(80%,80%,80%);fill-opacity:1;" d="M 175.398438 308.199219 L 105.199219 308.199219 L 105.199219 189.398438 L 175.398438 189.398438 L 175.398438 308.199219 "/>
<path style=" stroke:none;fill-rule:nonzero;fill:rgb(0%,0%,0%);fill-opacity:1;" d="M 179.199219 188.398438 L 179.199219 307.199219 C 179.199219 308.398438 177.933594 309.265625 175.398438 309.800781 L 103.601562 309.800781 L 101.199219 309.199219 L 101.199219 190.398438 C 101.199219 189.601562 101.933594 188.933594 103.398438 188.398438 L 106.800781 187.601562 L 177 187.601562 L 179.199219 188.398438 M 173.601562 191.199219 L 109 191.199219 L 109 294.800781 L 109.398438 302.199219 C 109.398438 305 108.667969 306.398438 107.199219 306.398438 L 171.601562 306.398438 L 171.601562 202.800781 L 171.199219 195.601562 C 171.199219 192.667969 172 191.199219 173.601562 191.199219 "/>
<path style=" stroke:none;fill-rule:nonzero;fill:rgb(100%,100%,0%);fill-opacity:1;" d="M 87 0 C 92.464844 0 97.734375 0.933594 102.800781 2.800781 C 112 6.265625 119.066406 13.066406 124 23.199219 C 135.066406 12.535156 147.332031 7.199219 160.800781 7.199219 L 163.398438 7.199219 C 170.601562 7.601562 176.867188 10 182.199219 14.398438 C 189.667969 20.535156 194.464844 30.332031 196.601562 43.800781 L 198.199219 59.601562 L 204 60.398438 C 212.265625 61.601562 220.332031 63.734375 228.199219 66.800781 C 233 61.734375 239.132812 58.601562 246.601562 57.398438 L 252.601562 57 C 258.734375 57 264.265625 58.398438 269.199219 61.199219 C 273.066406 59.066406 277.535156 58 282.601562 58 C 289.265625 58 295.132812 59.933594 300.199219 63.800781 C 305.398438 67.800781 308.800781 72.867188 310.398438 79 C 311.734375 84.464844 311.464844 89.734375 309.601562 94.800781 C 307.867188 100 304.734375 104.332031 300.199219 107.800781 L 300 108.199219 L 292.800781 119.199219 C 289.066406 123.464844 284.734375 126.667969 279.800781 128.800781 C 281.667969 139.464844 282.601562 154.933594 282.601562 175.199219 C 282.601562 186.933594 282.800781 195.601562 283.199219 201.199219 C 284.800781 223.734375 274.464844 239.332031 252.199219 248 C 235.535156 254.265625 221.734375 257.398438 210.800781 257.398438 L 194.398438 255.199219 L 194 255 L 193.800781 255 C 189.535156 259.667969 184.265625 263.066406 178 265.199219 C 169.066406 268.535156 157.132812 270.464844 142.199219 271 L 140.199219 271 L 139.199219 271.199219 L 138.199219 271.199219 L 128.199219 271.601562 C 117.800781 271.601562 109.199219 269.601562 102.398438 265.601562 L 88.199219 267.398438 C 80.199219 267.398438 71 266 60.601562 263.199219 C 41.398438 258.535156 28 249.199219 20.398438 235.199219 C 13.867188 222.800781 13.332031 209.132812 18.800781 194.199219 L 22.601562 185.601562 L 23.398438 183.601562 C 15 176.132812 8.800781 166.332031 4.800781 154.199219 C -4.667969 127.132812 -0.398438 100 17.601562 72.800781 C 20.667969 68.398438 24.398438 63.867188 28.800781 59.199219 L 36.601562 49.398438 C 40.734375 37.132812 46.199219 26.601562 53 17.800781 C 62.464844 5.933594 73.800781 0 87 0 "/>
<path style=" stroke:none;fill-rule:nonzero;fill:rgb(0%,0%,0%);fill-opacity:1;" d="M 98.800781 13.398438 C 108.800781 17 115.265625 26.535156 118.199219 42 L 122.601562 42.398438 C 133.933594 26.535156 146.667969 18.601562 160.800781 18.601562 L 162.800781 18.601562 C 175.199219 19.265625 182.734375 28.265625 185.398438 45.601562 C 186.464844 52 187 60.199219 187 70.199219 L 202.398438 71.601562 C 213.199219 73.199219 223.265625 76.464844 232.601562 81.398438 C 234.464844 74.332031 239.734375 70.066406 248.398438 68.601562 L 252.601562 68.398438 C 259.132812 68.398438 264.464844 70.601562 268.601562 75 L 273.601562 71.601562 C 276.265625 70.132812 279.265625 69.398438 282.601562 69.398438 C 286.601562 69.398438 290.132812 70.535156 293.199219 72.800781 C 296.398438 75.066406 298.464844 78.066406 299.398438 81.800781 C 300.332031 85.265625 300.066406 88.667969 298.601562 92 C 297.132812 95.199219 294.734375 97.867188 291.398438 100 L 289.800781 103 L 284.199219 111.800781 C 280.066406 116.601562 274.265625 119.601562 266.800781 120.800781 L 266.800781 121.398438 C 268.800781 129.535156 270.066406 138.601562 270.601562 148.601562 L 271.199219 175.199219 L 272 202 C 272.667969 212.132812 270.265625 220.332031 264.800781 226.601562 C 261.066406 230.867188 255.535156 234.464844 248.199219 237.398438 C 232.464844 243.265625 220 246.199219 210.800781 246.199219 L 197.398438 244.398438 L 196.800781 244.199219 L 189.601562 241.398438 C 186.667969 247.535156 181.535156 251.933594 174.199219 254.601562 L 157.601562 258.601562 L 141.601562 259.601562 L 137.601562 259.800781 L 128.199219 260.199219 C 117.535156 260.199219 109.464844 257.800781 104 253 C 99.601562 255 94.332031 256 88.199219 256 C 81.132812 256 72.800781 254.734375 63.199219 252.199219 C 47.332031 248.332031 36.398438 240.933594 30.398438 230 C 25.464844 220.265625 25.132812 209.667969 29.398438 198.199219 L 32.800781 190.601562 L 37.199219 180 C 27.332031 173.867188 20.066406 164.066406 15.398438 150.601562 C 11.265625 138.464844 10.132812 126.601562 12 115 C 13.867188 103.398438 18.867188 91.464844 27 79.199219 C 28.601562 76.800781 32 72.667969 37.199219 66.800781 C 43.066406 60.398438 46.464844 55.800781 47.398438 53 C 51.132812 41.933594 56 32.535156 62 24.800781 C 69.066406 15.734375 77.398438 11.199219 87 11.199219 C 90.734375 11.199219 94.667969 11.933594 98.800781 13.398438 "/>
<path style=" stroke:none;fill-rule:nonzero;fill:rgb(100%,100%,100%);fill-opacity:1;" d="M 96 21.398438 C 103.199219 24.066406 107.933594 32.132812 110.199219 45.601562 L 111 50.398438 L 116.199219 50.398438 L 126.601562 51.601562 L 128.601562 48.601562 C 138.464844 34.199219 149.199219 27 160.800781 27 L 162.398438 27.199219 C 167.066406 27.332031 170.601562 29.535156 173 33.800781 C 174.734375 36.734375 176.066406 41.066406 177 46.800781 C 178.066406 53.464844 178.601562 62.132812 178.601562 72.800781 L 178.398438 78.601562 L 184.398438 78.601562 L 201.199219 80 C 212.398438 81.601562 222.601562 85.199219 231.800781 90.800781 L 240.398438 96 L 240.398438 85.601562 C 240.398438 83.464844 241.265625 81.601562 243 80 C 244.601562 78.535156 246.800781 77.601562 249.601562 77.199219 L 252.601562 76.800781 C 257.535156 76.800781 261.132812 78.601562 263.398438 82.199219 L 267.199219 88 L 272.199219 83.199219 L 277.601562 79.199219 C 279.066406 78.265625 280.734375 77.800781 282.601562 77.800781 C 284.601562 77.800781 286.398438 78.398438 288 79.601562 L 291 84 C 292.066406 87.734375 290.601562 90.734375 286.601562 93 L 285.800781 93.601562 L 285 94.398438 L 282.398438 98.800781 L 277.800781 106.199219 C 274.332031 110.066406 269.332031 112.265625 262.800781 112.800781 L 254.800781 113.398438 L 257.601562 120.601562 L 258.398438 122.398438 L 258.398438 122.601562 L 258.601562 123 L 258.601562 123.398438 C 261.398438 135.398438 262.800781 152.667969 262.800781 175.199219 C 262.800781 187.332031 263 196.464844 263.398438 202.601562 C 263.933594 210.066406 262.535156 215.933594 259.199219 220.199219 C 256.398438 223.800781 251.734375 226.867188 245.199219 229.398438 C 230.667969 234.867188 219.199219 237.601562 210.800781 237.601562 L 199.800781 236.199219 L 199 236 L 191.398438 232.800781 L 185.199219 228.398438 L 182.800781 235.601562 C 181.066406 240.800781 177.199219 244.464844 171.199219 246.601562 C 164 249.132812 154.066406 250.667969 141.398438 251.199219 L 137 251.398438 L 128.199219 251.800781 C 118.867188 251.800781 112.398438 249.800781 108.800781 245.800781 L 105.800781 242.601562 L 101.800781 244.601562 L 101.398438 245 C 97.933594 246.734375 93.535156 247.601562 88.199219 247.601562 C 82.332031 247.601562 74.734375 246.398438 65.398438 244 C 51.933594 240.800781 42.800781 234.800781 38 226 C 34.132812 218.535156 33.933594 210.199219 37.398438 201 L 40.398438 194.199219 C 43.867188 187.132812 45.800781 182.199219 46.199219 179.398438 L 46.800781 175.601562 L 43.199219 173.601562 C 34.398438 168.933594 27.800781 160.332031 23.398438 147.800781 C 19.667969 136.867188 18.667969 126.265625 20.398438 116 C 22.132812 105.734375 26.734375 95.066406 34.199219 84 L 43.398438 72.601562 C 49.933594 65.535156 53.933594 59.867188 55.398438 55.601562 C 58.734375 45.601562 63.132812 37.066406 68.601562 30 C 74.066406 23.199219 80.199219 19.800781 87 19.800781 L 96 21.398438 "/>
<path style=" stroke:none;fill-rule:nonzero;fill:rgb(83.921569%,47.058824%,41.960784%);fill-opacity:1;" d="M 257.601562 91.800781 L 254.800781 99 C 257.332031 102.332031 260.464844 103.601562 264.199219 102.800781 C 267.800781 101.734375 270.734375 99.132812 273 95 C 275.398438 90.332031 278 87.265625 280.800781 85.800781 C 283.867188 85.398438 284.601562 85.601562 283 86.398438 C 280.734375 87.601562 278 91.066406 274.800781 96.800781 C 272.132812 101.601562 268.800781 104.332031 264.800781 105 C 259.601562 105.933594 255.601562 104.867188 252.800781 101.800781 L 250 104.398438 C 245.332031 108.132812 240.667969 111.066406 236 113.199219 C 229.332031 116.265625 224.066406 116.800781 220.199219 114.800781 L 221.398438 113.800781 L 223.800781 113.398438 C 226.867188 114.867188 231.734375 113.867188 238.398438 110.398438 C 244.800781 106.933594 248.933594 103.464844 250.800781 100 L 251.199219 99.601562 C 249.066406 96.132812 248.066406 91.535156 248.199219 85.800781 C 248.199219 85 248.933594 84.601562 250.398438 84.601562 C 256.535156 83.667969 258.933594 86.066406 257.601562 91.800781 M 253 95.601562 L 254.199219 91.398438 C 254.734375 88.332031 254 86.535156 252 86 C 252 90.132812 252.332031 93.332031 253 95.601562 "/>
<path style=" stroke:none;fill-rule:nonzero;fill:rgb(92.54902%,67.058824%,67.843137%);fill-opacity:1;" d="M 214.800781 91.398438 C 222.667969 94.464844 229.800781 99 236.199219 105 C 242.867188 111.535156 247.199219 118.398438 249.199219 125.601562 C 252 135.464844 253.265625 148.601562 253 165 C 252.734375 184.332031 253.066406 197.332031 254 204 C 254.535156 207.867188 254.398438 211 253.601562 213.398438 C 252.667969 216.464844 250.601562 218.800781 247.398438 220.398438 C 234.601562 227.066406 222 230.132812 209.601562 229.601562 C 202.667969 229.332031 198.265625 227.601562 196.398438 224.398438 C 195.199219 222.398438 194.332031 217.867188 193.800781 210.800781 L 184.398438 210.199219 C 180.398438 210.199219 177.667969 211.132812 176.199219 213 C 174.867188 214.464844 174.332031 217.601562 174.601562 222.398438 L 174.800781 232.199219 C 173.867188 239.800781 164.867188 243.601562 147.800781 243.601562 L 131.800781 244.199219 C 124.332031 244.199219 119.535156 243.132812 117.398438 241 C 115.667969 239.265625 114.800781 236.265625 114.800781 232 L 115 222.398438 L 114.199219 201 L 101 200.601562 L 101.199219 220.800781 L 101.601562 227.800781 L 101.199219 234.601562 C 100.535156 237.933594 97.667969 239.667969 92.601562 239.800781 L 81 238.398438 C 66.332031 237.332031 55.933594 233.800781 49.800781 227.800781 C 45.398438 223.398438 43.667969 217.601562 44.601562 210.398438 C 45.132812 205.867188 47.066406 199.800781 50.398438 192.199219 L 55.199219 181.398438 C 56.667969 176.464844 56.398438 172.734375 54.398438 170.199219 L 50.601562 167.800781 L 46.398438 165.800781 C 44 164.066406 41.535156 161.132812 39 157 C 28.734375 140.867188 26.066406 124.867188 31 109 C 34.867188 96.734375 44.066406 82.867188 58.601562 67.398438 C 61.265625 64.601562 63.601562 60.132812 65.601562 54 C 67.734375 47.464844 69.800781 42.933594 71.800781 40.398438 C 74.867188 35.332031 77.332031 31.800781 79.199219 29.800781 C 82.667969 26.199219 86.535156 25.734375 90.800781 28.398438 C 94.265625 30.535156 97.132812 35.867188 99.398438 44.398438 C 100.867188 50.265625 101.867188 56.332031 102.398438 62.601562 C 102.535156 61.265625 104.464844 60 108.199219 58.800781 L 115.601562 57.199219 C 118.398438 57.332031 121.667969 58.535156 125.398438 60.800781 L 134.601562 66.199219 L 144.800781 69.398438 C 148.800781 70.601562 151.933594 72.199219 154.199219 74.199219 L 162.199219 81.398438 C 165.265625 84.601562 166.867188 87.535156 167 90.199219 C 166.867188 88.464844 170.734375 87.132812 178.601562 86.199219 L 192 87 C 199.601562 87 207.199219 88.464844 214.800781 91.398438 "/>
<path style=" stroke:none;fill-rule:nonzero;fill:rgb(83.921569%,47.058824%,41.960784%);fill-opacity:1;" d="M 188.800781 84.601562 L 210.398438 88.398438 C 219.601562 90.667969 227.933594 95.132812 235.398438 101.800781 C 242.601562 108.332031 247.867188 116.066406 251.199219 125 L 251.398438 125.398438 C 253.132812 133.398438 254.132812 142.734375 254.398438 153.398438 L 254.601562 182.199219 L 256.199219 200 C 256.601562 207.199219 255.667969 212.933594 253.398438 217.199219 C 250.066406 223.332031 241.800781 227.464844 228.601562 229.601562 C 216.734375 231.464844 207.066406 231.265625 199.601562 229 C 195.464844 227.933594 193.132812 224.601562 192.601562 219 C 192.332031 215.667969 189.800781 212.535156 185 209.601562 L 194.601562 209.800781 L 195.800781 210.199219 C 196.332031 219.132812 199.464844 224.933594 205.199219 227.601562 L 229 226.601562 C 238.199219 223.800781 244.398438 219.265625 247.601562 213 C 250 208.199219 251.132812 200.667969 251 190.398438 L 250.800781 158.199219 C 250.535156 145.667969 249.332031 134.933594 247.199219 126 C 244.800781 119.199219 241.132812 113.132812 236.199219 107.800781 C 231.132812 102.066406 225.332031 97.734375 218.800781 94.800781 C 211.601562 91.464844 203.265625 89 193.800781 87.398438 C 181.132812 85.132812 172.800781 86.066406 168.800781 90.199219 L 166.800781 91.199219 C 165.734375 91.601562 165.132812 91.464844 165 90.800781 C 162.867188 83.867188 153.535156 75.933594 137 67 C 119.800781 57.800781 108.867188 56.332031 104.199219 62.601562 L 102.199219 63.601562 C 101.132812 64 100.535156 63.867188 100.398438 63.199219 L 98.398438 46.398438 C 96.933594 39.066406 94.667969 34 91.601562 31.199219 C 85.867188 26.132812 79.933594 29.265625 73.800781 40.601562 C 70.601562 46.464844 67.332031 53.667969 64 62.199219 L 37 100 C 28.867188 115.464844 28.066406 130.265625 34.601562 144.398438 C 37.398438 150.265625 40.332031 155.066406 43.398438 158.800781 C 46.601562 162.535156 50.800781 166 56 169.199219 C 56.800781 169.734375 57.464844 171.265625 58 173.800781 C 59.199219 176.734375 58.199219 181.464844 55 188 L 48.398438 202 C 45.332031 213.601562 47.464844 222.332031 54.800781 228.199219 C 60.398438 232.734375 69.535156 235.800781 82.199219 237.398438 C 91.667969 238.601562 97.265625 234.398438 99 224.800781 L 99 201 L 100 199.800781 L 101.800781 199.601562 L 115 200 L 116.199219 200.398438 L 116.800781 226.398438 C 116.667969 232.535156 117.734375 236.867188 120 239.398438 C 122.398438 242.066406 126.601562 243.332031 132.601562 243.199219 L 158 241.398438 C 168.132812 238.867188 173 233.398438 172.601562 225 C 172.464844 217.933594 174.199219 213.398438 177.800781 211.398438 C 177.265625 212.464844 176.933594 213.933594 176.800781 215.800781 C 176.535156 217.933594 176.464844 220.601562 176.601562 223.800781 L 176.800781 231.800781 C 176.667969 235.265625 174.464844 238.132812 170.199219 240.398438 C 167.132812 242.132812 163.535156 243.265625 159.398438 243.800781 L 138.398438 246.398438 C 129.066406 246.933594 122.332031 245.933594 118.199219 243.398438 C 114.199219 240.867188 112.398438 237.132812 112.800781 232.199219 L 112.199219 208.800781 C 112.199219 204.667969 111.933594 202.398438 111.398438 202 L 105.398438 201.800781 C 103.398438 201.667969 102.734375 207.199219 103.398438 218.398438 C 104.066406 230.398438 102.132812 237.535156 97.601562 239.800781 L 80.199219 240.601562 L 63 236.601562 C 53.398438 234.199219 47.265625 229.199219 44.601562 221.601562 C 41.933594 214.667969 42.535156 206.601562 46.398438 197.398438 L 53 180.800781 C 54.066406 174.535156 51.332031 169.800781 44.800781 166.601562 C 42.132812 165.398438 39.332031 162.265625 36.398438 157.199219 C 34 153.199219 32.132812 149.265625 30.800781 145.398438 C 23.601562 124.867188 26.933594 105.199219 40.800781 86.398438 L 54 69.800781 C 58.800781 63.398438 62.332031 57.265625 64.601562 51.398438 C 66.867188 45.398438 71.199219 38.199219 77.601562 29.800781 C 79.601562 27.132812 82.535156 25.734375 86.398438 25.601562 C 90.265625 25.601562 93.199219 27 95.199219 29.800781 C 98.933594 35.535156 101.464844 42.535156 102.800781 50.800781 L 102.199219 58.601562 C 101.933594 60.066406 103 60.199219 105.398438 59 L 121.199219 58.199219 L 136.199219 65.398438 C 141.265625 67 148.066406 70.332031 156.601562 75.398438 C 167.398438 81.667969 171.066406 85.933594 167.601562 88.199219 C 172.535156 85.132812 179.601562 83.933594 188.800781 84.601562 M 177.800781 211.398438 C 179 207.933594 181.398438 207.332031 185 209.601562 L 178.199219 211 L 177.800781 211.398438 "/>
<path style=" stroke:none;fill-rule:nonzero;fill:rgb(92.54902%,67.058824%,67.843137%);fill-opacity:1;" d="M 168.800781 85.398438 L 125.199219 72.199219 L 131.398438 60.800781 C 133.933594 56.265625 136.398438 52.601562 138.800781 49.800781 C 146.933594 40.601562 153.535156 35.800781 158.601562 35.398438 C 161.667969 35.132812 163.933594 36.667969 165.398438 40 L 167.601562 48.800781 C 168.535156 53.734375 169 59.800781 169 67 L 168.800781 85.398438 "/>
<path style=" stroke:none;fill-rule:nonzero;fill:rgb(83.921569%,47.058824%,41.960784%);fill-opacity:1;" d="M 166.601562 38.199219 C 167.667969 39.933594 168.535156 42.667969 169.199219 46.398438 L 170.800781 65.601562 L 170.800781 85 C 170.800781 85.800781 169.464844 86.132812 166.800781 86 L 167.601562 63.398438 C 167.464844 54.066406 166.199219 46.734375 163.800781 41.398438 C 161.265625 35.800781 156.464844 35.734375 149.398438 41.199219 C 144.066406 45.332031 139.867188 49.867188 136.800781 54.800781 L 127.199219 71.800781 L 123.398438 72.398438 L 137.398438 49 C 144.332031 39.933594 151.667969 35.132812 159.398438 34.601562 C 162.601562 34.464844 165 35.667969 166.601562 38.199219 "/>
<path style=" stroke:none;fill-rule:nonzero;fill:rgb(92.54902%,67.058824%,67.843137%);fill-opacity:1;" d="M 156.800781 171 C 152 173.800781 144.332031 176.535156 133.800781 179.199219 L 164 79.199219 C 177.199219 90.933594 184.464844 102.667969 185.800781 114.398438 C 186.867188 124.933594 184.734375 135.535156 179.398438 146.199219 C 173.933594 157.132812 166.398438 165.398438 156.800781 171 "/>
<path style=" stroke:none;fill-rule:nonzero;fill:rgb(83.921569%,47.058824%,41.960784%);fill-opacity:1;" d="M 163.398438 78.800781 L 165.800781 78.601562 C 176.332031 88.332031 183.132812 98.667969 186.199219 109.601562 C 189.535156 122 187.867188 134.132812 181.199219 146 C 176 155.464844 169.398438 162.933594 161.398438 168.398438 C 154.464844 173.199219 145.398438 177.066406 134.199219 180 L 132.199219 179.601562 C 132.066406 179.066406 132.535156 178.667969 133.601562 178.398438 C 146.667969 174.933594 157.398438 169.464844 165.800781 162 C 175.398438 153.332031 181.132812 142.933594 183 130.800781 C 184.464844 120.535156 183.332031 111.199219 179.601562 102.800781 C 176.265625 95.332031 170.464844 87.734375 162.199219 80 C 161.800781 79.601562 162.199219 79.199219 163.398438 78.800781 "/>
<path style=" stroke:none;fill-rule:nonzero;fill:rgb(87.058824%,47.843137%,47.058824%);fill-opacity:1;" d="M 112.199219 170 L 119.601562 171 L 112.199219 176 L 108.398438 178.398438 L 104 179.199219 C 101.867188 178.800781 98.667969 177.066406 94.398438 174 C 90.800781 171.464844 87.601562 170.132812 84.800781 170 L 104.601562 170.199219 L 112.199219 170 "/>
<path style=" stroke:none;fill-rule:nonzero;fill:rgb(92.54902%,67.058824%,67.843137%);fill-opacity:1;" d="M 71.601562 125.601562 C 84.398438 120.933594 97 120.066406 109.398438 123 C 120.601562 125.800781 129.667969 130.132812 136.601562 136 C 145.667969 143.734375 147.601562 152.199219 142.398438 161.398438 C 138.535156 167.933594 129.601562 170.933594 115.601562 170.398438 C 112 170.132812 106.933594 170.066406 100.398438 170.199219 L 85.199219 170.199219 C 78.265625 169.800781 72.132812 168.332031 66.800781 165.800781 C 60.398438 162.734375 56.398438 158.332031 54.800781 152.601562 C 51.199219 140.199219 56.800781 131.199219 71.601562 125.601562 "/>
<path style=" stroke:none;fill-rule:nonzero;fill:rgb(83.921569%,47.058824%,41.960784%);fill-opacity:1;" d="M 53 153 L 53 152.800781 C 48.867188 133.601562 59.867188 123.199219 86 121.601562 C 96.398438 120.933594 106.867188 122.066406 117.398438 125 C 127.933594 127.933594 135.464844 131.800781 140 136.601562 C 147.066406 144.199219 148.535156 151.867188 144.398438 159.601562 C 140.398438 167.066406 133.398438 170.933594 123.398438 171.199219 C 100.601562 171.867188 87.601562 172 84.398438 171.601562 C 68 169.867188 57.601562 163.734375 53.199219 153.199219 L 53 153 M 110.398438 169.398438 C 119.734375 169.265625 127.667969 167.667969 134.199219 164.601562 C 143.132812 160.464844 145.867188 154.535156 142.398438 146.800781 C 139.464844 140.667969 135.265625 136.066406 129.800781 133 C 116.601562 125.265625 100.933594 122.132812 82.800781 123.601562 C 61.734375 125.199219 53.066406 134.667969 56.800781 152 C 60.535156 161.066406 68.265625 166.601562 80 168.601562 L 110.398438 169.398438 "/>
<path style=" stroke:none;fill-rule:nonzero;fill:rgb(83.921569%,47.058824%,41.960784%);fill-opacity:1;" d="M 80.800781 151.601562 C 76 150 73.667969 147.464844 73.800781 144 C 73.933594 140.265625 76.199219 138.199219 80.601562 137.800781 C 84.734375 137.265625 88.199219 138.132812 91 140.398438 C 93.933594 143.066406 94.066406 146.199219 91.398438 149.800781 C 89.265625 152.734375 85.734375 153.332031 80.800781 151.601562 "/>
<path style=" stroke:none;fill-rule:nonzero;fill:rgb(83.921569%,47.058824%,41.960784%);fill-opacity:1;" d="M 118.800781 141.601562 C 121.199219 141.867188 123.132812 142.800781 124.601562 144.398438 C 126.066406 146 126.867188 147.734375 127 149.601562 C 127.132812 151.734375 126.332031 153.398438 124.601562 154.601562 L 121.398438 155.800781 L 116.601562 155.398438 C 114.066406 154.867188 112.132812 154 110.800781 152.800781 C 109.199219 151.199219 108.535156 149.464844 108.800781 147.601562 C 109.199219 145.734375 110.332031 144.199219 112.199219 143 C 114.066406 141.667969 116.265625 141.199219 118.800781 141.601562 "/>
<path style=" stroke:none;fill-rule:nonzero;fill:rgb(83.921569%,47.058824%,41.960784%);fill-opacity:1;" d="M 124.800781 103 C 124.800781 104.867188 124.132812 106.398438 122.800781 107.601562 C 121.601562 108.933594 120.066406 109.601562 118.199219 109.601562 C 116.464844 109.601562 114.933594 108.933594 113.601562 107.601562 C 112.398438 106.398438 111.800781 104.867188 111.800781 103 C 111.800781 101.265625 112.398438 99.734375 113.601562 98.398438 C 114.933594 97.199219 116.464844 96.601562 118.199219 96.601562 C 120.066406 96.601562 121.601562 97.199219 122.800781 98.398438 C 124.132812 99.734375 124.800781 101.265625 124.800781 103 "/>
<path style=" stroke:none;fill-rule:nonzero;fill:rgb(83.921569%,47.058824%,41.960784%);fill-opacity:1;" d="M 105.398438 99.800781 C 105.398438 101.667969 104.734375 103.199219 103.398438 104.398438 C 102.199219 105.734375 100.667969 106.398438 98.800781 106.398438 C 97.066406 106.398438 95.535156 105.734375 94.199219 104.398438 C 93 103.199219 92.398438 101.667969 92.398438 99.800781 C 92.398438 98.066406 93 96.535156 94.199219 95.199219 C 95.535156 94 97.066406 93.398438 98.800781 93.398438 C 100.667969 93.398438 102.199219 94 103.398438 95.199219 C 104.734375 96.535156 105.398438 98.066406 105.398438 99.800781 "/>
</g>
</svg>
