<?xml version="1.0" encoding="utf-8"?>
<svg version="1.1" id="Layer_1"
xmlns="http://www.w3.org/2000/svg"
xmlns:xlink="http://www.w3.org/1999/xlink"
xmlns:author="http://www.sothink.com"
width="372px" height="93px"
xml:space="preserve">
<g id="174" transform="matrix(1, 0, 0, 1, 118.75, 46.2)">
<linearGradient
id="LinearGradID_17" gradientUnits="userSpaceOnUse" gradientTransform="matrix(0.00250244, -0.0520172, 0.186218, 0.00897217, 97.4, 8.75)" spreadMethod ="pad" x1="-819.2" y1="0" x2="819.2" y2="0" >
<stop  offset="0" style="stop-color:#666666;stop-opacity:1" />
<stop  offset="0.545098" style="stop-color:#FFFFFF;stop-opacity:1" />
<stop  offset="0.639216" style="stop-color:#FFFFFF;stop-opacity:1" />
<stop  offset="1" style="stop-color:#999999;stop-opacity:1" />
</linearGradient>
<path style="fill:url(#LinearGradID_17) " d="M91.1,37.15L82.55 22.8L77.8 37.5L69.6 23.55L64.65 38.65L64.1 37.9L56.1 24.35L51.35 39.05L43.1 25.05L38.2 40.2L29.65 25.85L24.9 40.55L16.65 26.6L11.7 41.7L3.2 27.35L-1.6 42.05L-9.8 28.1L-14.75 43.2L-23.25 28.9L-28.05 43.6L-28.25 43.2L-36.25 29.65L-41.2 44.75L-55.55 8.6L-29.2 -40.05L251.2 -10.55L238.7 27.45L230.2 13.1L225.4 27.8L217.2 13.85L212.25 28.95L203.75 14.65L198.95 29.35L198.75 28.95L190.75 15.4L185.8 30.5L176.65 16.6L171.7 31.7L163.2 17.35L158.4 32.05L150.2 18.1L145.25 33.2L136.75 18.9L131.95 33.6L131.75 33.2L123.75 19.65L117.7 35.95L109 21.3L104.25 36L96.05 22.05L91.1 37.15" />
<path style="fill:none;stroke-width:3;stroke-linecap:round;stroke-linejoin:round;stroke-miterlimit:3;stroke:#999999;stroke-opacity:1" d="M91.1,37.15L82.55 22.8L77.8 37.5L69.6 23.55L64.65 38.65L64.1 37.9L56.1 24.35L51.35 39.05L43.1 25.05L38.2 40.2L29.65 25.85L24.9 40.55L16.65 26.6L11.7 41.7L3.2 27.35L-1.6 42.05L-9.8 28.1L-14.75 43.2L-23.25 28.9L-28.05 43.6L-28.25 43.2L-36.25 29.65L-41.2 44.75L-55.55 8.6L-29.2 -40.05L251.2 -10.55L238.7 27.45L230.2 13.1L225.4 27.8L217.2 13.85L212.25 28.95L203.75 14.65L198.95 29.35L198.75 28.95L190.75 15.4L185.8 30.5L176.65 16.6L171.7 31.7L163.2 17.35L158.4 32.05L150.2 18.1L145.25 33.2L136.75 18.9L131.95 33.6L131.75 33.2L123.75 19.65L117.7 35.95L109 21.3L104.25 36L96.05 22.05L91.1 37.15z" />
<path style="fill:none;stroke-width:3;stroke-linecap:round;stroke-linejoin:round;stroke-miterlimit:3;stroke:#CCCCCC;stroke-opacity:1" d="M251.2,-10.55L238.7 27.45" />
<path style="fill:none;stroke-width:3;stroke-linecap:round;stroke-linejoin:round;stroke-miterlimit:3;stroke:#FFFFFF;stroke-opacity:1" d="M-29.2,-40.05L251.2 -10.55" />
<path style="fill:#FF9F40;fill-opacity:1" d="M-106.2,-23.05Q-104.55 -25.4 -103.2 -29.05Q-98.55 -40.4 -89.55 -38.05Q-70.55 -35.7 -47.55 -44.7L-9.2 -40.05L-16.2 -21.7Q-36.2 -19.7 -34.2 -4.05Q-34.2 4.3 -35.55 11.3Q-40.2 21.3 -52.2 21.6L-54.35 21.25Q-56 21 -57.5 21.25Q-62.25 21.95 -68.55 27.6Q-78.55 36.6 -95.55 30.6Q-101.2 27.95 -110.9 31.3Q-122.55 28.3 -112.9 20.3Q-110.9 17.95 -110.2 12.6Q-114.55 -8.4 -106.2 -23.05" />
<path style="fill:none;stroke-width:3;stroke-linecap:round;stroke-linejoin:round;stroke-miterlimit:3;stroke:#938500;stroke-opacity:1" d="M-110.2,12.6Q-110.9 17.95 -112.9 20.3Q-122.55 28.3 -110.9 31.3Q-101.2 27.95 -95.55 30.6Q-78.55 36.6 -68.55 27.6Q-62.25 21.95 -57.5 21.25Q-56 21 -54.35 21.25L-52.2 21.6Q-40.2 21.3 -35.55 11.3Q-34.2 4.3 -34.2 -4.05Q-36.2 -19.7 -16.2 -21.7L-9.2 -40.05L-47.55 -44.7Q-70.55 -35.7 -89.55 -38.05Q-98.55 -40.4 -103.2 -29.05Q-104.55 -25.4 -106.2 -23.05Q-114.55 -8.4 -110.2 12.6z" />
<path style="fill:#FFFFFF;fill-opacity:1" d="M-88.9,-17.4Q-80.7 -36.25 -68.05 -31.9Q-60.3 -29.25 -60.8 -20.6Q-61 -17.25 -62.45 -13.6Q-63.75 -10.35 -65.55 -8.05Q-69.9 -2.4 -73.9 16.3Q-78.2 28.95 -90.2 20.3Q-95.2 17.3 -93.9 3.6Q-92.55 -10.05 -88.9 -17.4" />
<path style="fill:none;stroke-width:3;stroke-linecap:round;stroke-linejoin:round;stroke-miterlimit:3;stroke:#938500;stroke-opacity:1" d="M-88.9,-17.4Q-80.7 -36.25 -68.05 -31.9Q-60.3 -29.25 -60.8 -20.6Q-61 -17.25 -62.45 -13.6Q-63.75 -10.35 -65.55 -8.05Q-69.9 -2.4 -73.9 16.3Q-78.2 28.95 -90.2 20.3Q-95.2 17.3 -93.9 3.6Q-92.55 -10.05 -88.9 -17.4z" />
<path style="fill:#CCCCCC;fill-opacity:1" d="M-20.65,-34.6Q-19.2 -33.1 -19.2 -31.05Q-19.2 -29 -20.65 -27.5Q-22.15 -26.05 -24.2 -26.05Q-26.25 -26.05 -27.75 -27.5Q-29.2 -29 -29.2 -31.05Q-29.2 -33.1 -27.75 -34.6Q-26.25 -36.05 -24.2 -36.05Q-22.15 -36.05 -20.65 -34.6" />
<path style="fill:none;stroke-width:2;stroke-linecap:round;stroke-linejoin:round;stroke-miterlimit:3;stroke:#938500;stroke-opacity:1" d="M-20.65,-34.6Q-19.2 -33.1 -19.2 -31.05Q-19.2 -29 -20.65 -27.5Q-22.15 -26.05 -24.2 -26.05Q-26.25 -26.05 -27.75 -27.5Q-29.2 -29 -29.2 -31.05Q-29.2 -33.1 -27.75 -34.6Q-26.25 -36.05 -24.2 -36.05Q-22.15 -36.05 -20.65 -34.6z" />
<path style="fill:#CCCCCC;fill-opacity:1" d="M-43.2,5.95Q-43.2 7.75 -44.45 9.05Q-45.75 10.3 -47.55 10.3Q-49.35 10.3 -50.6 9.05Q-51.9 7.75 -51.9 5.95Q-51.9 4.15 -50.6 2.9Q-49.35 1.6 -47.55 1.6Q-45.75 1.6 -44.45 2.9Q-43.2 4.15 -43.2 5.95" />
<path style="fill:none;stroke-width:2;stroke-linecap:round;stroke-linejoin:round;stroke-miterlimit:3;stroke:#938500;stroke-opacity:1" d="M-43.2,5.95Q-43.2 7.75 -44.45 9.05Q-45.75 10.3 -47.55 10.3Q-49.35 10.3 -50.6 9.05Q-51.9 7.75 -51.9 5.95Q-51.9 4.15 -50.6 2.9Q-49.35 1.6 -47.55 1.6Q-45.75 1.6 -44.45 2.9Q-43.2 4.15 -43.2 5.95z" />
<path style="fill:none;stroke-width:2;stroke-linecap:round;stroke-linejoin:round;stroke-miterlimit:3;stroke:#938500;stroke-opacity:1" d="M-50.05,2.2L-45.3 9.45" />
<path style="fill:none;stroke-width:2;stroke-linecap:round;stroke-linejoin:round;stroke-miterlimit:3;stroke:#938500;stroke-opacity:1" d="M-28.7,-30.55L-18.8 -31.55" />
</g>
</svg>
