<?xml version="1.0" encoding="utf-8"?>
<svg version="1.1" id="Layer_1"
xmlns="http://www.w3.org/2000/svg"
xmlns:xlink="http://www.w3.org/1999/xlink"
xmlns:author="http://www.sothink.com"
width="162px" height="112px"
xml:space="preserve">
<g id="177" transform="matrix(1, 0, 0, 1, -100.15, 54.95)">
<path style="fill:#000000;fill-opacity:1" d="M102.65,-16.3L102.6 -17.05Q102.5 -18.55 101.65 -20.05L101.2 -21.35L100.5 -23L100.15 -23.4L100.15 -23.6Q100.6 -23.85 100.8 -24.45Q101.25 -25.65 101.05 -26.5L101.25 -27.1Q101.55 -28.5 102.2 -29.8L102.5 -30.4L102.55 -30.75L102.6 -31.35L102.7 -31.5L102.8 -31.6L103.25 -33.25L103.2 -33.4L103.3 -33.4L103.65 -33.8Q104.45 -35.1 104.05 -36.25L103.7 -36.9L103.2 -36.9L103 -36.95L103 -54.95L262.15 -54.95L262.15 56.6L111.5 56.6L111.5 41.5L111.15 41.5L103 17.9L103 17.2L103.15 9.7L103.1 8.25L103.1 7.65L103.35 6.2L103.75 2.4L104.35 0.5L105.45 -4.2L105.45 -4.25L105.9 -6.05L106 -6.35Q106.8 -8.2 105.95 -9.65L105.55 -9.65L105.1 -10.15L105 -10.2L104.95 -10.5L104.85 -11.3Q104.65 -12.85 103.8 -13.7L103.65 -13.85L103.6 -14.25L103 -15.95L102.65 -16.3" />
<path style="fill:#FFFFFF;fill-opacity:1" d="M100.5,-23L101.2 -21.35L101.65 -20.05Q102.5 -18.55 102.6 -17.05L100.5 -23M103.8,-13.7Q104.65 -12.85 104.85 -11.3L104.95 -10.5L103.8 -13.7" />
<path style="fill:none;stroke-width:1;stroke-linecap:round;stroke-linejoin:round;stroke-miterlimit:3;stroke:#FFFFFF;stroke-opacity:1" d="M102.6,-17.05L103 -15.95L103.6 -14.25L103.8 -13.7M104.95,-10.5L105.1 -10.15M104.95,-10.5L103.8 -13.7" />
</g>
</svg>
