<?xml version="1.0" encoding="utf-8"?>
<svg version="1.1" id="Layer_1"
xmlns="http://www.w3.org/2000/svg"
xmlns:xlink="http://www.w3.org/1999/xlink"
xmlns:author="http://www.sothink.com"
width="296px" height="250px"
xml:space="preserve">
<g id="143" transform="matrix(1, 0, 0, 1, 142, 128.45)">
<path style="fill:#000000;fill-opacity:1" d="M91.85,-74.65Q48.2 -7.35 104.75 90.2Q4.75 152 -99.7 87.9Q-57.7 36.9 -68.15 -76.45L91.85 -74.65" />
<path style="fill:none;stroke-width:1;stroke-linecap:round;stroke-linejoin:round;stroke-miterlimit:3;stroke:#000000;stroke-opacity:1" d="M-68.15,-76.45Q-57.7 36.9 -99.7 87.9Q4.75 152 104.75 90.2Q48.2 -7.35 91.85 -74.65L-68.15 -76.45z" />
<path style="fill:none;stroke-width:10;stroke-linecap:round;stroke-linejoin:round;stroke-miterlimit:3;stroke:#666666;stroke-opacity:1" d="M56.65,-45.1Q44.65 19.9 80.65 87.25" />
<path style="fill:#333333;fill-opacity:1" d="M148,-73.05Q141.15 -63.3 121.75 -51.35Q98.1 -37.65 73.4 -30.55Q40.4 -21.1 8.85 -24.55Q-21.9 -27.1 -55.2 -40.65Q-67.6 -45.7 -81.55 -52.8Q-88.3 -56.2 -103.45 -64.4Q-126.7 -78.05 -132.45 -82.15Q-141.65 -88.7 -139.65 -91.9Q-134 -97.55 -92.3 -106.65Q-51.45 -115.55 3.85 -123.45Q55.3 -130.8 96.85 -120.2Q115.25 -115.55 128.95 -107.85Q142.15 -100.4 149.2 -91.2Q155 -83 148 -73.05" />
<path style="fill:none;stroke-width:4;stroke-linecap:round;stroke-linejoin:round;stroke-miterlimit:3;stroke:#000000;stroke-opacity:1" d="M148,-73.05Q141.15 -63.3 121.75 -51.35Q98.1 -37.65 73.4 -30.55Q40.4 -21.1 8.85 -24.55Q-21.9 -27.1 -55.2 -40.65Q-67.6 -45.7 -81.55 -52.8Q-88.3 -56.2 -103.45 -64.4Q-126.7 -78.05 -132.45 -82.15Q-141.65 -88.7 -139.65 -91.9Q-134 -97.55 -92.3 -106.65Q-51.45 -115.55 3.85 -123.45Q55.3 -130.8 96.85 -120.2Q115.25 -115.55 128.95 -107.85Q142.15 -100.4 149.2 -91.2Q155 -83 148 -73.05z" />
<path style="fill:#000000;fill-opacity:1" d="M92.15,-90Q95 -83.65 89.6 -76.05Q84.2 -68.45 72.35 -62.05Q59.75 -55.3 43.15 -51.85Q24.75 -48 4.65 -49Q-29.35 -50.95 -63.75 -67.6Q-89.45 -80.45 -87.45 -88.65Q-85 -96.35 -58.9 -103.6Q-34.3 -110.45 1.6 -114.35Q35.9 -117.75 61.35 -110.85Q73.5 -107.55 81.4 -102.3Q89.45 -96.9 92.15 -90" />
<path style="fill:none;stroke-width:4;stroke-linecap:round;stroke-linejoin:round;stroke-miterlimit:3;stroke:#000000;stroke-opacity:1" d="M92.15,-90Q95 -83.65 89.6 -76.05Q84.2 -68.45 72.35 -62.05Q59.75 -55.3 43.15 -51.85Q24.75 -48 4.65 -49Q-29.35 -50.95 -63.75 -67.6Q-89.45 -80.45 -87.45 -88.65Q-85 -96.35 -58.9 -103.6Q-34.3 -110.45 1.6 -114.35Q35.9 -117.75 61.35 -110.85Q73.5 -107.55 81.4 -102.3Q89.45 -96.9 92.15 -90z" />
</g>
</svg>
