<?xml version="1.0" encoding="utf-8"?>
<svg version="1.1" id="Layer_1"
xmlns="http://www.w3.org/2000/svg"
xmlns:xlink="http://www.w3.org/1999/xlink"
xmlns:author="http://www.sothink.com"
width="372px" height="93px"
xml:space="preserve">
<g id="154" transform="matrix(1, 0, 0, 1, 166.75, 45.2)">
<linearGradient
id="LinearGradID_16" gradientUnits="userSpaceOnUse" gradientTransform="matrix(0.00250244, -0.0520172, 0.186218, 0.00897217, 49.4, 9.75)" spreadMethod ="pad" x1="-819.2" y1="0" x2="819.2" y2="0" >
<stop  offset="0" style="stop-color:#666666;stop-opacity:1" />
<stop  offset="0.545098" style="stop-color:#FFFFFF;stop-opacity:1" />
<stop  offset="0.639216" style="stop-color:#FFFFFF;stop-opacity:1" />
<stop  offset="1" style="stop-color:#999999;stop-opacity:1" />
</linearGradient>
<path style="fill:url(#LinearGradID_16) " d="M43.1,38.15L34.55 23.8L29.8 38.5L21.6 24.55L16.65 39.65L16.1 38.9L8.1 25.35L3.35 40.05L-4.9 26.05L-9.8 41.2L-18.35 26.85L-23.1 41.55L-31.35 27.6L-36.3 42.7L-44.8 28.35L-49.6 43.05L-57.8 29.1L-62.75 44.2L-71.25 29.9L-76.05 44.6L-76.25 44.2L-84.25 30.65L-89.2 45.75L-103.55 9.6L-77.2 -39.05L203.2 -9.55L190.7 28.45L182.2 14.1L177.4 28.8L169.2 14.85L164.25 29.95L155.75 15.65L150.95 30.35L150.75 29.95L142.75 16.4L137.8 31.5L128.65 17.6L123.7 32.7L115.2 18.35L110.4 33.05L102.2 19.1L97.25 34.2L88.75 19.9L83.95 34.6L83.75 34.2L75.75 20.65L69.7 36.95L61 22.3L56.25 37L48.05 23.05L43.1 38.15" />
<path style="fill:none;stroke-width:3;stroke-linecap:round;stroke-linejoin:round;stroke-miterlimit:3;stroke:#999999;stroke-opacity:1" d="M43.1,38.15L34.55 23.8L29.8 38.5L21.6 24.55L16.65 39.65L16.1 38.9L8.1 25.35L3.35 40.05L-4.9 26.05L-9.8 41.2L-18.35 26.85L-23.1 41.55L-31.35 27.6L-36.3 42.7L-44.8 28.35L-49.6 43.05L-57.8 29.1L-62.75 44.2L-71.25 29.9L-76.05 44.6L-76.25 44.2L-84.25 30.65L-89.2 45.75L-103.55 9.6L-77.2 -39.05L203.2 -9.55L190.7 28.45L182.2 14.1L177.4 28.8L169.2 14.85L164.25 29.95L155.75 15.65L150.95 30.35L150.75 29.95L142.75 16.4L137.8 31.5L128.65 17.6L123.7 32.7L115.2 18.35L110.4 33.05L102.2 19.1L97.25 34.2L88.75 19.9L83.95 34.6L83.75 34.2L75.75 20.65L69.7 36.95L61 22.3L56.25 37L48.05 23.05L43.1 38.15z" />
<path style="fill:none;stroke-width:3;stroke-linecap:round;stroke-linejoin:round;stroke-miterlimit:3;stroke:#CCCCCC;stroke-opacity:1" d="M203.2,-9.55L190.7 28.45" />
<path style="fill:none;stroke-width:3;stroke-linecap:round;stroke-linejoin:round;stroke-miterlimit:3;stroke:#FFFFFF;stroke-opacity:1" d="M-77.2,-39.05L203.2 -9.55" />
<path style="fill:#FF9F40;fill-opacity:1" d="M-82.2,-3.05Q-82.2 5.3 -83.55 12.3Q-88.2 22.3 -100.2 22.6L-102.35 22.25Q-104 22 -105.5 22.25Q-110.25 22.95 -116.55 28.6Q-126.55 37.6 -143.55 31.6Q-149.2 28.95 -158.9 32.3Q-170.55 29.3 -160.9 21.3Q-158.9 18.95 -158.2 13.6Q-162.55 -7.4 -154.2 -22.05Q-152.55 -24.4 -151.2 -28.05Q-146.55 -39.4 -137.55 -37.05Q-118.55 -34.7 -95.55 -43.7L-57.2 -39.05L-64.2 -20.7Q-84.2 -18.7 -82.2 -3.05" />
<path style="fill:none;stroke-width:3;stroke-linecap:round;stroke-linejoin:round;stroke-miterlimit:3;stroke:#996600;stroke-opacity:1" d="M-64.2,-20.7L-57.2 -39.05L-95.55 -43.7Q-118.55 -34.7 -137.55 -37.05Q-146.55 -39.4 -151.2 -28.05Q-152.55 -24.4 -154.2 -22.05Q-162.55 -7.4 -158.2 13.6Q-158.9 18.95 -160.9 21.3Q-170.55 29.3 -158.9 32.3Q-149.2 28.95 -143.55 31.6Q-126.55 37.6 -116.55 28.6Q-110.25 22.95 -105.5 22.25Q-104 22 -102.35 22.25L-100.2 22.6Q-88.2 22.3 -83.55 12.3Q-82.2 5.3 -82.2 -3.05Q-84.2 -18.7 -64.2 -20.7z" />
<path style="fill:#FFFFFF;fill-opacity:1" d="M-113.55,-7.05Q-117.9 -1.4 -121.9 17.3Q-126.2 29.95 -138.2 21.3Q-143.2 18.3 -141.9 4.6Q-140.55 -9.05 -136.9 -16.4Q-128.7 -35.25 -116.05 -30.9Q-108.3 -28.25 -108.8 -19.6Q-109 -16.25 -110.45 -12.6Q-111.75 -9.35 -113.55 -7.05" />
<path style="fill:none;stroke-width:3;stroke-linecap:round;stroke-linejoin:round;stroke-miterlimit:3;stroke:#996600;stroke-opacity:1" d="M-113.55,-7.05Q-117.9 -1.4 -121.9 17.3Q-126.2 29.95 -138.2 21.3Q-143.2 18.3 -141.9 4.6Q-140.55 -9.05 -136.9 -16.4Q-128.7 -35.25 -116.05 -30.9Q-108.3 -28.25 -108.8 -19.6Q-109 -16.25 -110.45 -12.6Q-111.75 -9.35 -113.55 -7.05z" />
<path style="fill:#CCCCCC;fill-opacity:1" d="M-68.65,-33.6Q-67.2 -32.1 -67.2 -30.05Q-67.2 -28 -68.65 -26.5Q-70.15 -25.05 -72.2 -25.05Q-74.25 -25.05 -75.75 -26.5Q-77.2 -28 -77.2 -30.05Q-77.2 -32.1 -75.75 -33.6Q-74.25 -35.05 -72.2 -35.05Q-70.15 -35.05 -68.65 -33.6" />
<path style="fill:none;stroke-width:2;stroke-linecap:round;stroke-linejoin:round;stroke-miterlimit:3;stroke:#938500;stroke-opacity:1" d="M-68.65,-33.6Q-67.2 -32.1 -67.2 -30.05Q-67.2 -28 -68.65 -26.5Q-70.15 -25.05 -72.2 -25.05Q-74.25 -25.05 -75.75 -26.5Q-77.2 -28 -77.2 -30.05Q-77.2 -32.1 -75.75 -33.6Q-74.25 -35.05 -72.2 -35.05Q-70.15 -35.05 -68.65 -33.6z" />
<path style="fill:#CCCCCC;fill-opacity:1" d="M-91.2,6.95Q-91.2 8.75 -92.45 10.05Q-93.75 11.3 -95.55 11.3Q-97.35 11.3 -98.6 10.05Q-99.9 8.75 -99.9 6.95Q-99.9 5.15 -98.6 3.9Q-97.35 2.6 -95.55 2.6Q-93.75 2.6 -92.45 3.9Q-91.2 5.15 -91.2 6.95" />
<path style="fill:none;stroke-width:2;stroke-linecap:round;stroke-linejoin:round;stroke-miterlimit:3;stroke:#938500;stroke-opacity:1" d="M-91.2,6.95Q-91.2 8.75 -92.45 10.05Q-93.75 11.3 -95.55 11.3Q-97.35 11.3 -98.6 10.05Q-99.9 8.75 -99.9 6.95Q-99.9 5.15 -98.6 3.9Q-97.35 2.6 -95.55 2.6Q-93.75 2.6 -92.45 3.9Q-91.2 5.15 -91.2 6.95z" />
<path style="fill:none;stroke-width:2;stroke-linecap:round;stroke-linejoin:round;stroke-miterlimit:3;stroke:#938500;stroke-opacity:1" d="M-98.05,3.2L-93.3 10.45" />
<path style="fill:none;stroke-width:2;stroke-linecap:round;stroke-linejoin:round;stroke-miterlimit:3;stroke:#938500;stroke-opacity:1" d="M-76.7,-29.55L-66.8 -30.55" />
</g>
</svg>
