<?xml version="1.0" encoding="utf-8"?>
<svg version="1.1" id="Layer_1"
xmlns="http://www.w3.org/2000/svg"
xmlns:xlink="http://www.w3.org/1999/xlink"
xmlns:author="http://www.sothink.com"
width="89px" height="98px"
xml:space="preserve">
<g id="145" transform="matrix(1, 0, 0, 1, 44.05, 48.75)">
<path style="fill:#FFFF00;fill-opacity:1" d="M-19.55,-45.45Q33.55 -54.75 39.25 -26.6Q49.45 -10.85 32.4 5.25L-37.7 -7.4Q-40.6 -15.95 -37.7 -25.25Q-32.95 -37.05 -25.3 -40.1Q-23.8 -45.05 -19.55 -45.45" />
<path style="fill:none;stroke-width:2;stroke-linecap:round;stroke-linejoin:round;stroke-miterlimit:3;stroke:#000000;stroke-opacity:1" d="M-19.55,-45.45Q33.55 -54.75 39.25 -26.6Q49.45 -10.85 32.4 5.25L-37.7 -7.4Q-40.6 -15.95 -37.7 -25.25Q-32.95 -37.05 -25.3 -40.1Q-23.8 -45.05 -19.55 -45.45z" />
<path style="fill:#FFBFBF;fill-opacity:1" d="M24.5,0.35Q34.8 -2.35 34.3 9.4Q34.1 21.15 22.75 17.65Q19.75 4.6 24.5 0.35" />
<path style="fill:none;stroke-width:2;stroke-linecap:round;stroke-linejoin:round;stroke-miterlimit:3;stroke:#000000;stroke-opacity:1" d="M24.5,0.35Q34.8 -2.35 34.3 9.4Q34.1 21.15 22.75 17.65Q19.75 4.6 24.5 0.35z" />
<path style="fill:#FFBFBF;fill-opacity:1" d="M-36.65,6.3Q-39.95 6.2 -41.45 4.05Q-43.45 1.05 -41.3 -5.15Q-38.05 -14.4 -33.55 -9.35L-36.65 6.3" />
<path style="fill:none;stroke-width:2;stroke-linecap:round;stroke-linejoin:round;stroke-miterlimit:3;stroke:#000000;stroke-opacity:1" d="M-33.55,-9.35Q-38.05 -14.4 -41.3 -5.15Q-43.45 1.05 -41.45 4.05Q-39.95 6.2 -36.65 6.3L-33.55 -9.35z" />
<path style="fill:none;stroke-width:2;stroke-linecap:round;stroke-linejoin:round;stroke-miterlimit:3;stroke:#000000;stroke-opacity:1" d="M24.15,8.45Q26.2 6.3 31.15 8.1" />
<path style="fill:#FFBFBF;fill-opacity:1" d="M-9.9,-32.8L26.2 -31.15Q19.55 -13.55 24.5 0.35Q22.85 24.35 19.6 36.05Q18.1 43.7 4.15 46.55Q-18.15 51.15 -39.85 37.95Q-45.85 35.1 -40.6 14Q-31.45 -21.8 -23.75 -35.35Q-21.4 -32.65 -9.9 -32.8" />
<path style="fill:none;stroke-width:2;stroke-linecap:round;stroke-linejoin:round;stroke-miterlimit:3;stroke:#000000;stroke-opacity:1" d="M-9.9,-32.8L26.2 -31.15Q19.55 -13.55 24.5 0.35Q22.85 24.35 19.6 36.05Q18.1 43.7 4.15 46.55Q-18.15 51.15 -39.85 37.95Q-45.85 35.1 -40.6 14Q-31.45 -21.8 -23.75 -35.35Q-21.4 -32.65 -9.9 -32.8z" />
<path style="fill:none;stroke-width:2;stroke-linecap:round;stroke-linejoin:round;stroke-miterlimit:3;stroke:#000000;stroke-opacity:1" d="M-16,-9.35Q-29.45 -3.1 -31.15 13.6L-15.3 17.35" />
<path style="fill:none;stroke-width:2;stroke-linecap:round;stroke-linejoin:round;stroke-miterlimit:3;stroke:#FF4040;stroke-opacity:1" d="M-32.4,24.05Q-19.3 30.45 -2.7 23.05" />
<path style="fill:#FFFF00;fill-opacity:1" d="M4.95,-14.25L6.65 -13.4Q7.1 -13.1 5.95 -13.65L-4.9 -14.05Q-4.55 -16.75 -1 -16.3Q1.25 -16 4.95 -14.25" />
<path style="fill:none;stroke-width:1;stroke-linecap:round;stroke-linejoin:round;stroke-miterlimit:3;stroke:#000000;stroke-opacity:1" d="M-1,-16.3Q-4.55 -16.75 -4.9 -14.05L5.95 -13.65Q7.1 -13.1 6.65 -13.4L4.95 -14.25Q1.25 -16 -1 -16.3z" />
<path style="fill:#FFFF00;fill-opacity:1" d="M-29.9,-17.05Q-29.55 -20.05 -25 -20.1Q-21.7 -19.7 -20.95 -16.3Q-24.35 -17.9 -29.9 -17.05" />
<path style="fill:none;stroke-width:1;stroke-linecap:round;stroke-linejoin:round;stroke-miterlimit:3;stroke:#000000;stroke-opacity:1" d="M-20.95,-16.3Q-21.7 -19.7 -25 -20.1Q-29.55 -20.05 -29.9 -17.05Q-24.35 -17.9 -20.95 -16.3z" />
<path style="fill:#000000;fill-opacity:1" d="M-4.75,-8.35Q-3.25 -10.3 -1.85 -9.95Q-0.45 -9.6 -0.05 -7.2Q0.4 -4.8 -0.35 -1.7Q-1.1 1.4 -2.6 3.3Q-4.1 5.25 -5.5 4.9Q-6.9 4.55 -7.35 2.15Q-7.8 -0.3 -7.05 -3.35Q-6.3 -6.4 -4.75 -8.35" />
<path style="fill:none;stroke-width:1;stroke-linecap:round;stroke-linejoin:round;stroke-miterlimit:3;stroke:#000000;stroke-opacity:1" d="M-4.75,-8.35Q-3.25 -10.3 -1.85 -9.95Q-0.45 -9.6 -0.05 -7.2Q0.4 -4.8 -0.35 -1.7Q-1.1 1.4 -2.6 3.3Q-4.1 5.25 -5.5 4.9Q-6.9 4.55 -7.35 2.15Q-7.8 -0.3 -7.05 -3.35Q-6.3 -6.4 -4.75 -8.35z" />
<path style="fill:#000000;fill-opacity:1" d="M-1.85,-9.95Q3.4 -10.05 2.05 -1.45L-1.85 -9.95" />
<path style="fill:none;stroke-width:2;stroke-linecap:round;stroke-linejoin:round;stroke-miterlimit:3;stroke:#000000;stroke-opacity:1" d="M2.05,-1.45Q3.4 -10.05 -1.85 -9.95" />
<path style="fill:#000000;fill-opacity:1" d="M-24.5,-5.7Q-25.25 -2.6 -26.75 -0.7Q-28.25 1.25 -29.65 0.9Q-31.05 0.55 -31.5 -1.85Q-31.95 -4.3 -31.2 -7.35Q-30.45 -10.45 -28.95 -12.35Q-27.4 -14.3 -26 -13.95Q-24.6 -13.6 -24.2 -11.2Q-23.75 -8.8 -24.5 -5.7" />
<path style="fill:none;stroke-width:1;stroke-linecap:round;stroke-linejoin:round;stroke-miterlimit:3;stroke:#000000;stroke-opacity:1" d="M-24.5,-5.7Q-25.25 -2.6 -26.75 -0.7Q-28.25 1.25 -29.65 0.9Q-31.05 0.55 -31.5 -1.85Q-31.95 -4.3 -31.2 -7.35Q-30.45 -10.45 -28.95 -12.35Q-27.4 -14.3 -26 -13.95Q-24.6 -13.6 -24.2 -11.2Q-23.75 -8.8 -24.5 -5.7z" />
<path style="fill:#000000;fill-opacity:1" d="M-26,-13.95Q-20.75 -14.05 -22.1 -5.45L-26 -13.95" />
<path style="fill:none;stroke-width:2;stroke-linecap:round;stroke-linejoin:round;stroke-miterlimit:3;stroke:#000000;stroke-opacity:1" d="M-22.1,-5.45Q-20.75 -14.05 -26 -13.95" />
</g>
</svg>
