<?xml version="1.0" encoding="utf-8"?>
<svg version="1.1" id="Layer_1"
xmlns="http://www.w3.org/2000/svg"
xmlns:xlink="http://www.w3.org/1999/xlink"
xmlns:author="http://www.sothink.com"
width="395px" height="112px"
xml:space="preserve">
<g id="173" transform="matrix(1, 0, 0, 1, 130.45, 54.95)">
<path style="fill:#000000;fill-opacity:1" d="M-68.55,-31.4Q-81.2 -35.75 -89.4 -16.9Q-93.05 -9.6 -94.4 4.1Q-95.7 17.75 -90.7 20.75Q-78.7 29.4 -74.4 16.75Q-70.4 -1.9 -66.05 -7.6Q-61.7 -13.25 -61.3 -20.1Q-60.8 -28.75 -68.55 -31.4M103,43.5L111.5 42.5L102 15L103 -5L96 14L103 43.5M-130.45,56.6L-130.45 -54.95L264.15 -54.95L264.15 56.6L-130.45 56.6" />
</g>
</svg>
