<?xml version="1.0" encoding="utf-8"?>
<svg version="1.1" id="Layer_1"
xmlns="http://www.w3.org/2000/svg"
xmlns:xlink="http://www.w3.org/1999/xlink"
xmlns:author="http://www.sothink.com"
width="265px" height="265px"
xml:space="preserve">
<g id="150" transform="matrix(1, 0, 0, 1, 132.5, 132.45)">
<path style="fill:none;stroke-width:3;stroke-linecap:round;stroke-linejoin:round;stroke-miterlimit:3;stroke:#FFFFFF;stroke-opacity:1" d="M-0.05,-130.9Q26.6 -130.9 50.95 -120.6Q74.45 -110.7 92.55 -92.55Q110.7 -74.45 120.6 -50.95Q130.9 -26.6 130.9 0.05Q130.9 35.2 113.45 65.45Q96.15 95.35 66.4 112.9Q35.75 131 -0.05 131Q-26.7 131 -51 120.7Q-74.5 110.75 -92.65 92.65Q-110.75 74.5 -120.7 51Q-131 26.7 -131 0.05Q-131 -26.6 -120.7 -50.95Q-110.75 -74.45 -92.65 -92.55Q-74.5 -110.65 -51 -120.6Q-26.7 -130.9 -0.05 -130.9z" />
<path style="fill:#FFFFFF;fill-opacity:1" d="M-0.05,0.05L130.9 0.05Q130.9 35.2 113.45 65.45L-0.05 0.05" />
<path style="fill:none;stroke-width:3;stroke-linecap:round;stroke-linejoin:round;stroke-miterlimit:3;stroke:#FFFFFF;stroke-opacity:1" d="M113.45,65.45Q130.9 35.2 130.9 0.05L-0.05 0.05L113.45 65.45z" />
<path style="fill:#999999;fill-opacity:1" d="M65.55,113.4L-0.05 0.05L113.35 65.5Q95.8 95.95 65.55 113.4" />
<path style="fill:none;stroke-width:3;stroke-linecap:round;stroke-linejoin:round;stroke-miterlimit:3;stroke:#FFFFFF;stroke-opacity:1" d="M113.35,65.5L-0.05 0.05L65.55 113.4Q95.8 95.95 113.35 65.5z" />
<path style="fill:#FFFF00;fill-opacity:1" d="M-0.05,0.05L65.45 113.45Q35 131 0.05 131L-0.05 0.05" />
<path style="fill:none;stroke-width:3;stroke-linecap:round;stroke-linejoin:round;stroke-miterlimit:3;stroke:#FFFFFF;stroke-opacity:1" d="M0.05,131Q35 131 65.45 113.45L-0.05 0.05L0.05 131z" />
<path style="fill:#33FF00;fill-opacity:1" d="M-65.45,113.5L-0.05 0.05L-0.05 131Q-35.1 131 -65.45 113.5" />
<path style="fill:none;stroke-width:3;stroke-linecap:round;stroke-linejoin:round;stroke-miterlimit:3;stroke:#FFFFFF;stroke-opacity:1" d="M-0.05,131L-0.05 0.05L-65.45 113.5Q-35.1 131 -0.05 131z" />
<path style="fill:#FF0000;fill-opacity:1" d="M-0.05,0.05L-113.45 65.5Q-131 35.1 -131 0.15L-0.05 0.05" />
<path style="fill:none;stroke-width:3;stroke-linecap:round;stroke-linejoin:round;stroke-miterlimit:3;stroke:#FFFFFF;stroke-opacity:1" d="M-131,0.15Q-131 35.1 -113.45 65.5L-0.05 0.05L-131 0.15z" />
<path style="fill:#007FFF;fill-opacity:1" d="M-113.4,65.6L-0.05 0.05L-65.5 113.45Q-95.9 95.9 -113.4 65.6" />
<path style="fill:none;stroke-width:3;stroke-linecap:round;stroke-linejoin:round;stroke-miterlimit:3;stroke:#FFFFFF;stroke-opacity:1" d="M-65.5,113.45L-0.05 0.05L-113.4 65.6Q-95.9 95.9 -65.5 113.45z" />
<path style="fill:#999999;fill-opacity:1" d="M-0.05,0.05L-131 0.05Q-131 -35.15 -113.5 -65.35L-0.05 0.05" />
<path style="fill:none;stroke-width:3;stroke-linecap:round;stroke-linejoin:round;stroke-miterlimit:3;stroke:#FFFFFF;stroke-opacity:1" d="M-113.5,-65.35Q-131 -35.15 -131 0.05L-0.05 0.05L-113.5 -65.35z" />
<path style="fill:#000000;fill-opacity:1" d="M-113.45,-65.45Q-95.85 -95.9 -65.6 -113.35L-0.05 0.05L-113.45 -65.45" />
<path style="fill:none;stroke-width:3;stroke-linecap:round;stroke-linejoin:round;stroke-miterlimit:3;stroke:#FFFFFF;stroke-opacity:1" d="M-0.05,0.05L-65.6 -113.35Q-95.85 -95.9 -113.45 -65.45L-0.05 0.05z" />
<path style="fill:#FFFFFF;fill-opacity:1" d="M-0.15,-130.95L-0.05 0.05L-65.5 -113.35Q-35.15 -130.95 -0.15 -130.95" />
<path style="fill:none;stroke-width:3;stroke-linecap:round;stroke-linejoin:round;stroke-miterlimit:3;stroke:#FFFFFF;stroke-opacity:1" d="M-65.5,-113.35L-0.05 0.05L-0.15 -130.95Q-35.15 -130.95 -65.5 -113.35z" />
<path style="fill:#7F1AFF;fill-opacity:1" d="M65.35,-113.45L-0.05 0.05L-0.05 -130.9Q35.1 -130.9 65.35 -113.45" />
<path style="fill:none;stroke-width:3;stroke-linecap:round;stroke-linejoin:round;stroke-miterlimit:3;stroke:#FFFFFF;stroke-opacity:1" d="M-0.05,-130.9L-0.05 0.05L65.35 -113.45Q35.1 -130.9 -0.05 -130.9z" />
<path style="fill:#33FFFF;fill-opacity:1" d="M-0.05,0.05L65.45 -113.35Q95.95 -95.75 113.35 -65.55L-0.05 0.05" />
<path style="fill:none;stroke-width:3;stroke-linecap:round;stroke-linejoin:round;stroke-miterlimit:3;stroke:#FFFFFF;stroke-opacity:1" d="M113.35,-65.55Q95.95 -95.75 65.45 -113.35L-0.05 0.05L113.35 -65.55z" />
<path style="fill:#007FFF;fill-opacity:1" d="M130.95,-0.05L-0.05 0.05L113.35 -65.45Q130.95 -34.9 130.95 -0.05" />
<path style="fill:none;stroke-width:3;stroke-linecap:round;stroke-linejoin:round;stroke-miterlimit:3;stroke:#FFFFFF;stroke-opacity:1" d="M113.35,-65.45L-0.05 0.05L130.95 -0.05Q130.95 -34.9 113.35 -65.45z" />
</g>
</svg>
