<?xml version="1.0" encoding="utf-8"?>
<svg version="1.1" id="Layer_1"
xmlns="http://www.w3.org/2000/svg"
xmlns:xlink="http://www.w3.org/1999/xlink"
xmlns:author="http://www.sothink.com"
width="396px" height="112px"
xml:space="preserve">
<g id="175" transform="matrix(1, 0, 0, 1, 130.45, 54.95)">
<path style="fill:#000000;fill-opacity:1" d="M105,-10.2L104.95 -10.5L104.85 -11.3Q104.65 -12.85 103.8 -13.7L103.65 -13.85L103.6 -14.25L103 -15.95L102.65 -16.3L102.6 -17.05Q102.5 -18.55 101.65 -20.05L101.2 -21.35L100.5 -23L100.15 -23.4L100.15 -23.6Q100.6 -23.85 100.8 -24.45Q101.25 -25.65 101.05 -26.5L101.25 -27.1Q101.55 -28.5 102.2 -29.8L102.5 -30.4L102.55 -30.75L102.6 -31.35L102.7 -31.5L102.8 -31.6L103.25 -33.25L103.2 -33.4L103.3 -33.4L103.65 -33.8Q104.45 -35.1 104.05 -36.25L103.7 -36.9L103.2 -36.9L102.95 -36.95L102.3 -36.4Q101.9 -35.7 101.8 -34.9L101.6 -34.9Q101.15 -34.6 101.05 -34.15Q100.8 -33.9 100.7 -33.4L100.65 -32.9L100.6 -32.9Q99.75 -31.8 99.35 -30.55L99.1 -29.55L98.65 -29.4Q97.35 -28.85 97.1 -27.2L96.55 -25.85Q96.05 -24.3 96.55 -22.5L96.55 -22.45L96.45 -22.2Q95.65 -20.4 97.05 -18.3L97.05 -18.25Q97.95 -16.05 97.9 -13.75Q97.85 -12.75 98.25 -12.1Q98.15 -11.15 98.4 -10.05L98.75 -7.95Q98.85 -7.2 99.2 -6.65L99.75 -2Q99.85 -0.9 100.35 -0.3L100 1.3L99.65 3L99.1 5.65L97.85 9L96 14L103 43.5L111.5 42.5L103 17.9L103 17.2L103.15 9.7L103.1 8.25L103.1 7.65L103.35 6.2L103.75 2.4L104.35 0.5L105.45 -4.2L105.45 -4.25L105.9 -6.05L106 -6.35Q106.8 -8.2 105.95 -9.65L105.55 -9.65L105.1 -10.15L105 -10.2M265.1,56.6L-130.45 56.6L-130.45 -54.95L265.1 -54.95L265.1 56.6M-68.55,-31.4Q-81.2 -35.75 -89.4 -16.9Q-93.05 -9.6 -94.4 4.1Q-95.7 17.75 -90.7 20.75Q-78.7 29.4 -74.4 16.75Q-70.4 -1.9 -66.05 -7.6Q-61.7 -13.25 -61.3 -20.1Q-60.8 -28.75 -68.55 -31.4" />
<path style="fill:#FFFFFF;fill-opacity:1" d="M100.5,-23L101.2 -21.35L101.65 -20.05Q102.5 -18.55 102.6 -17.05L100.5 -23M103.8,-13.7Q104.65 -12.85 104.85 -11.3L104.95 -10.5L103.8 -13.7M99.65,3L100 1.3L100 1.4L99.65 3M96.55,-25.85L97.1 -27.2Q97.35 -28.85 98.65 -29.4L96.55 -25.85" />
<path style="fill:none;stroke-width:1;stroke-linecap:round;stroke-linejoin:round;stroke-miterlimit:3;stroke:#FFFFFF;stroke-opacity:1" d="M102.6,-17.05L103 -15.95L103.6 -14.25L103.8 -13.7L104.95 -10.5L105.1 -10.15M100,1.3L100 1.4" />
</g>
</svg>
