<?xml version="1.0" encoding="utf-8"?>
<svg version="1.1" id="Layer_1"
xmlns="http://www.w3.org/2000/svg"
xmlns:xlink="http://www.w3.org/1999/xlink"
xmlns:author="http://www.sothink.com"
width="196px" height="66px"
xml:space="preserve">
<g id="157" transform="matrix(1, 0, 0, 1, -327.8, -275.9)">
<path style="fill:#FFFFFF;fill-opacity:1" d="M455.35,295.55L461.3 296.9L465.3 303.9L456.3 303.9L455.35 295.55M341.95,294.1L341.25 295.05L340.75 295.3Q340.4 295.65 339.9 295.65L338.6 295.8L336.25 296.35L336.15 297.05L335.65 297.4L334.8 297.7L333.9 297.75L333.55 298.1L333.05 298.6L332 299.1Q331.05 299.25 330.35 298.1Q329.45 297.8 329.55 296.3L329.55 296.25L329 295.8L328.25 294.9Q328.05 294.65 328.15 294.3L328.3 293.9L328.55 293.55L328.7 293.4Q328.9 293.2 329.15 293.1L331.9 293.3Q332.5 293.55 333 293.95L333.9 293.6L335.8 293.7Q336.55 293.35 337.4 293.15L337.55 293.15L339.4 293.1L339.65 293.15L339.7 293.1L339.75 293L340.35 292.95L340.4 292.9L341.05 293.05Q342.2 293.35 341.95 294.1M353.75,327.25L340.9 340.45L335.95 336.55L353.75 327.25M408.2,324.95Q408.15 324.55 408.45 324.3Q407.45 324 408.1 323.05L408.45 323L408.45 322.95L414.75 323.5Q414.9 323.5 414.95 323.65L414.95 324.2L415.05 324.2L415.3 324.4L415.7 325.65L416.25 327.6Q416.45 328.35 416.3 329L416.25 329.65L415.95 330L415.5 330.6L415.45 330.65L414.75 330.9L414.2 330.9L413.45 331.15L413.3 331.4Q412.7 332.25 411.6 332.05L411.45 332L410.85 331.7L410.3 330.35L410.3 330.25L410.5 329.65L410.3 329.4Q409.3 327.95 408.95 326.25L408.9 325.7L408.5 325.6L408.45 325.6L408.2 325.25L408.2 324.95M522,279.85L522.4 280.4L522.6 280.7Q523.05 281.5 522.1 281.75L521.3 282L521.2 282.1L520 282.95L518.4 283.85L517.4 284.05L517.35 284.05Q516.5 283.95 516 283.2L515.7 282.85L515.6 282.7L515.55 282.7Q514.65 282.55 514.6 282L514.6 281.65Q514.3 281.55 514.35 281.05Q514.35 280.5 514.9 280.25L515.35 279.85Q515.8 279.15 516.55 278.7Q517.55 277.5 518.85 276.85Q519.35 277.15 519.45 277.6L520.5 278.3L522 279.85M495.4,329.95Q494.25 330.25 493.4 329.65L492.75 329.15L492.6 329L492.45 328.85L491.1 327.35L490.35 326.35L490.3 326.05L490.4 325.9L489.4 325.35Q489 324.9 489.35 324.45L489.45 324.35Q489.9 323.7 490.8 323.8L491.75 323.7L494.5 323.05L496.7 322.8Q497.85 322.7 497.9 323.5L499.1 324.5L500.75 326.1L501 326.3L501.7 327.15L501.9 328.05L501.6 328.65L501.35 328.75L499.85 329.1L498.95 329.25L495.4 329.95" />
<path style="fill:none;stroke-width:1;stroke-linecap:round;stroke-linejoin:round;stroke-miterlimit:3;stroke:#CCCCCC;stroke-opacity:1" d="M455.35,295.55L461.3 296.9L465.3 303.9L456.3 303.9L455.35 295.55L454.8 295.4M328.55,293.55L328.7 293.4M331.9,293.3L337.55 293.15L339.4 293.1L339.7 293.1L341.05 293.05L344.35 292.9L341.95 294.1L338.6 295.8L336.15 297.05L334.8 297.7L333.05 298.6L332 299.1L330.35 299.9L329 295.8L328.3 293.9M331.9,293.3L328.7 293.4M353.75,327.25L340.9 340.45L335.95 336.55L353.75 327.25L354.65 326.8M415.7,325.65L416.25 329.65L416.35 330.3L415.45 330.65L414.75 330.9L413.3 331.4M411.6,332.05L410.85 332.3M415.7,325.65L415.35 323.35L407.35 322.85L408.2 324.95L408.45 325.6L410.3 330.35L410.85 331.7M411.6,332.05L413.3 331.4M520.5,278.3L518.8 276.4L513.8 280.9M517.4,284.05L515.7 282.85L515.55 282.7L514.6 282L513.8 281.4M517.4,284.05L517.8 284.35L523.3 281.4L522.4 280.4M520.5,278.3L522.4 280.4M501.7,327.15L500.75 326.1L497.3 322.35L494.5 323.05M501.7,327.15L502.8 328.35L501.6 328.65M498.95,329.25L493.8 330.35L492.6 329L492.45 328.85L491.1 327.35L488.8 324.85M498.95,329.25L501.6 328.65M489.45,324.35L494.5 323.05" />
</g>
</svg>
