<?xml version="1.0" encoding="utf-8"?>
<svg version="1.1" id="Layer_1"
xmlns="http://www.w3.org/2000/svg"
xmlns:xlink="http://www.w3.org/1999/xlink"
xmlns:author="http://www.sothink.com"
width="367px" height="159px"
xml:space="preserve">
<g id="181" transform="matrix(1, 0, 0, 1, 183.05, 79.1)">
<path style="fill:none;stroke-width:4.6;stroke-linecap:round;stroke-linejoin:round;stroke-miterlimit:3;stroke:#84FFF7;stroke-opacity:1" d="M167.2,55.1L-177.25 55.1" />
<path style="fill:none;stroke-width:4.6;stroke-linecap:round;stroke-linejoin:round;stroke-miterlimit:3;stroke:#88FFF7;stroke-opacity:1" d="M-177.25,51.5L167.2 51.5" />
<path style="fill:#666666;fill-opacity:1" d="M-7.35,12.15Q-6.1 12.4 -5.85 14.65Q-5.6 16.9 -7.1 21.4L-6.65 23.2L-9.05 32.8L-20.6 35.15L-22.85 34.65L-17.35 21.4L-12.1 13.4L-7.35 12.15" />
<path style="fill:none;stroke-width:2;stroke-linecap:round;stroke-linejoin:round;stroke-miterlimit:3;stroke:#000000;stroke-opacity:1" d="M-7.35,12.15Q-6.1 12.4 -5.85 14.65Q-5.6 16.9 -7.1 21.4L-6.65 23.2L-9.05 32.8L-20.6 35.15L-22.85 34.65L-17.35 21.4L-12.1 13.4L-7.35 12.15z" />
<path style="fill:#666666;fill-opacity:1" d="M-23.35,33.15Q-21.6 24.4 -20.1 22.65Q-18.2 20.45 -15.85 19.65Q-14.95 19.35 -14.3 19.95Q-13.45 20.8 -14.1 22.9L-23.35 33.15" />
<path style="fill:none;stroke-width:1;stroke-linecap:round;stroke-linejoin:round;stroke-miterlimit:3;stroke:#000000;stroke-opacity:1" d="M-14.1,22.9Q-13.45 20.8 -14.3 19.95Q-14.95 19.35 -15.85 19.65Q-18.2 20.45 -20.1 22.65Q-21.6 24.4 -23.35 33.15" />
<path style="fill:none;stroke-width:1;stroke-linecap:round;stroke-linejoin:round;stroke-miterlimit:3;stroke:#000000;stroke-opacity:1" d="M-5.85,14.65Q-8.85 15.65 -9.6 16.9Q-10.35 18.15 -12.35 26.9" />
<path style="fill:#666666;fill-opacity:1" d="M45.05,9.65L51.4 16L49.4 33.65L11.05 30.65L8.4 17.35L18.4 8.65Q31.05 3.35 35.4 5Q39.75 6.65 45.05 9.65" />
<path style="fill:none;stroke-width:2;stroke-linecap:round;stroke-linejoin:round;stroke-miterlimit:3;stroke:#000000;stroke-opacity:1" d="M45.05,9.65L51.4 16L49.4 33.65L11.05 30.65L8.4 17.35L18.4 8.65Q31.05 3.35 35.4 5Q39.75 6.65 45.05 9.65z" />
<path style="fill:none;stroke-width:1;stroke-linecap:round;stroke-linejoin:round;stroke-miterlimit:3;stroke:#000000;stroke-opacity:1" d="M45.05,9.65L35.4 10.15L27.05 14L23.95 20.4L23.4 26.65" />
<path style="fill:none;stroke-width:1;stroke-linecap:round;stroke-linejoin:round;stroke-miterlimit:3;stroke:#000000;stroke-opacity:1" d="M14.4,12.35L20.4 14L27.05 14" />
<path style="fill:#8DB4FF;fill-opacity:1" d="M104.9,-56.8L123.7 -67L144.4 -73.4L166.7 -75.6L166.7 -72.7L144.9 -70.65L124.8 -64.35Q115.65 -59.4 106.5 -54.5L90.6 -41.3L77.4 -25.55L67.55 -7.25L61.25 12.85L59.2 34.65L56.4 34.65L58.6 12.35L65.05 -8.35L75.1 -27.15L88.65 -43.35L104.9 -56.8" />
<path style="fill:#98AEFF;fill-opacity:1" d="M105.05,-56.6L123.8 -66.65L144.4 -73.05L166.7 -75.25L166.7 -72.35L145 -70.25L125 -63.95L106.7 -54.15L90.95 -41.05L77.75 -25.3L67.95 -7.05L61.65 12.95L59.6 34.65L56.8 34.65L58.95 12.35L65.4 -8.25L75.45 -27L88.9 -43.15L105.05 -56.6" />
<path style="fill:#A3A8FF;fill-opacity:1" d="M105.25,-56.35L123.95 -66.4L144.55 -72.7L166.7 -74.85L166.7 -71.95L145.15 -69.9L125.15 -63.7L106.95 -53.9L91.2 -40.85L78.1 -25.1L68.3 -6.9L62.1 13.1L60.05 34.65L57.15 34.65L59.35 12.5L65.65 -8.1L75.7 -26.75L89.15 -42.9L105.25 -56.35" />
<path style="fill:#AEA3FF;fill-opacity:1" d="M105.4,-56.1L124.05 -66.05L144.55 -72.35L166.7 -74.5L166.7 -71.6L145.15 -69.55L125.25 -63.35L107.1 -53.55L91.45 -40.6L78.5 -24.95L68.65 -6.8L62.5 13.1L60.4 34.65L57.5 34.65L59.7 12.5L66 -8L75.95 -26.65L89.4 -42.65L105.4 -56.1" />
<path style="fill:#B99EFF;fill-opacity:1" d="M105.75,-55.75L124.3 -65.65L144.65 -71.95L166.7 -74.15L166.7 -71.25L145.25 -69.2L125.4 -63L107.35 -53.3L91.7 -40.35L78.75 -24.7L69.05 -6.65L62.85 13.2L60.8 34.65L57.9 34.65L60.05 12.6L66.35 -7.75L76.3 -26.3L89.75 -42.3L105.75 -55.75" />
<path style="fill:#C398FF;fill-opacity:1" d="M105.85,-55.35L124.3 -65.3L144.8 -71.6L166.7 -73.8L166.7 -70.85L145.25 -68.8L125.5 -62.65L107.55 -52.95L92.05 -40L79.1 -24.45L69.4 -6.55L63.2 13.2L61.15 34.65L58.25 34.65L60.4 12.7L66.75 -7.65L76.65 -26.05L89.9 -42.05L105.85 -55.35" />
<path style="fill:#CF93FF;fill-opacity:1" d="M106.1,-55.1L124.55 -65.05L144.8 -71.35L166.7 -73.4L166.7 -70.5L145.4 -68.45L125.65 -62.25L107.8 -52.7L92.3 -39.75L79.35 -24.25L69.75 -6.4L63.6 13.35L61.5 34.65L58.6 34.65L60.65 12.7L66.95 -7.5L76.9 -25.95L90.25 -41.8L106.1 -55.1" />
<path style="fill:#DA8EFF;fill-opacity:1" d="M106.35,-54.75L124.65 -64.7L144.9 -71L166.7 -73.05L166.7 -70.15L145.5 -68.1L125.75 -62.05L107.95 -52.45L92.55 -39.5L79.55 -24.1L70 -6.3L63.95 13.45L61.9 34.65L58.95 34.65L61.05 12.85L67.35 -7.4L77.25 -25.7L90.5 -41.55L106.35 -54.75" />
<path style="fill:#E589FF;fill-opacity:1" d="M106.5,-54.5Q115.65 -59.4 124.8 -64.35L144.9 -70.65L166.7 -72.7L166.7 -69.8L145.65 -67.7L126 -61.65L108.2 -52.1L92.8 -39.25L79.95 -23.85L70.35 -6.05L64.3 13.55L62.25 34.65L59.35 34.65L61.4 12.85L67.7 -7.25L77.5 -25.55L90.7 -41.3L106.5 -54.5" />
<path style="fill:#F084FF;fill-opacity:1" d="M106.7,-54.15L125 -63.95L145 -70.25L166.7 -72.35L166.7 -69.4L145.65 -67.35L126 -61.3L108.3 -51.85L93.05 -39L80.2 -23.75L70.75 -6.05L64.65 13.55L62.6 34.65L59.7 34.65L61.75 12.95L68.05 -7.05L77.9 -25.3L90.95 -41.05L106.7 -54.15" />
<path style="fill:#FA80FF;fill-opacity:1" d="M106.85,-53.9L125.15 -63.7L145.15 -69.9L166.7 -71.95L166.7 -69.05L145.65 -67.1L126.25 -61.05L108.55 -51.5L93.25 -38.75L80.55 -23.5L70.95 -5.8L64.9 13.55L62.95 34.65L59.95 34.65L62 13.1L68.3 -6.9L78.1 -25.1L91.2 -40.85L106.85 -53.9" />
<path style="fill:#FE7DFF;fill-opacity:1" d="M107.1,-53.55L125.25 -63.35L145.15 -69.55L166.7 -71.6L166.7 -68.7L145.75 -66.75L126.35 -60.7L108.8 -51.25L93.5 -38.55L80.8 -23.25L71.35 -5.7L65.25 13.7L63.35 34.65L60.3 34.65L62.35 13.1L68.55 -6.8L78.35 -24.95L91.45 -40.6L107.1 -53.55" />
<path style="fill:#FD82FD;fill-opacity:1" d="M107.35,-53.3L125.4 -63L145.25 -69.2L166.7 -71.25L166.7 -68.35L145.85 -66.4L126.5 -60.35L108.9 -50.9L93.75 -38.3L81.15 -23.15L71.7 -5.55L65.65 13.8L63.7 34.65L60.65 34.65L62.75 13.2L68.9 -6.65L78.75 -24.7L91.7 -40.35L107.35 -53.3" />
<path style="fill:#FA89F9;fill-opacity:1" d="M107.55,-52.95L125.5 -62.65L145.25 -68.8L166.7 -70.85L166.7 -67.95L146 -66.05L126.7 -59.95L109.15 -50.5L94.1 -37.9L81.5 -22.9L72.05 -5.35L66 13.95L64.05 34.65L61.05 34.65L63.1 13.2L69.25 -6.55L78.95 -24.45L91.95 -40L107.55 -52.95" />
<path style="fill:#F990F4;fill-opacity:1" d="M107.7,-52.8L125.65 -62.4L145.4 -68.55L166.7 -70.65L166.7 -67.6L146 -65.65L126.85 -59.6L109.4 -50.3L94.35 -37.7L81.75 -22.65L72.4 -5.2L66.35 13.95L64.4 34.65L61.4 34.65L63.45 13.35L69.65 -6.4L79.2 -24.35L92.2 -39.85L107.7 -52.8" />
<path style="fill:#FA95F0;fill-opacity:1" d="M107.95,-52.45L125.75 -62.05L145.5 -68.2L166.7 -70.25L166.7 -67.25L146 -65.3L126.95 -59.25L109.65 -49.9L94.6 -37.45L82.1 -22.4L72.8 -5.1L66.75 13.95L64.8 34.65L61.75 34.65L63.8 13.45L70 -6.3L79.55 -24.1L92.4 -39.6L107.95 -52.45" />
<path style="fill:#FC9AEA;fill-opacity:1" d="M108.05,-52.2L125.85 -61.8L145.5 -67.85L166.7 -69.9L166.7 -66.85L146.1 -64.95L127.1 -59L109.85 -49.65L94.85 -37.2L82.35 -22.15L73.05 -4.95L67.1 14.05L65.15 34.65L62.1 34.65L64.2 13.55L70.25 -6.05L79.8 -23.85L92.65 -39.25L108.05 -52.2" />
<path style="fill:#FDA0E0;fill-opacity:1" d="M108.3,-51.95L126 -61.4L145.65 -67.5L166.7 -69.55L166.7 -66.5L146.25 -64.55L127.2 -58.65L110 -49.45L95.1 -36.95L82.6 -22.05L73.4 -4.85L67.45 14.15L65.5 34.65L62.5 34.65L64.55 13.55L70.6 -6.05L80.05 -23.75L92.9 -39.15L108.3 -51.95" />
<path style="fill:#F9A7D4;fill-opacity:1" d="M80.4,-23.5L93.25 -38.75L108.55 -51.6L126.25 -61.05L145.65 -67.1L166.7 -69.2L166.7 -66.15L146.25 -64.2L127.35 -58.25L110.25 -49.05L95.35 -36.7L82.95 -21.8L73.75 -4.75L67.8 14.15L65.9 34.65L62.85 34.65L64.9 13.55L70.95 -5.8L80.4 -23.5" />
<path style="fill:#F7ADCA;fill-opacity:1" d="M80.8,-23.25L93.5 -38.55L108.8 -51.25L126.35 -60.8L145.75 -66.85L166.7 -68.8L166.7 -65.8L146.35 -63.85L127.45 -58.05L110.35 -48.8L95.55 -36.45L83.2 -21.7L74 -4.6L68.2 14.3L66.25 34.65L63.2 34.65L65.15 13.7L71.2 -5.7L80.8 -23.25" />
<path style="fill:#F9B4C2;fill-opacity:1" d="M81.05,-23.15L93.75 -38.3L108.9 -51L126.5 -60.45L145.85 -66.5L166.7 -68.45L166.7 -65.4L146.35 -63.5L127.55 -57.65L110.6 -48.45L95.8 -36.1L83.55 -21.45L74.35 -4.35L68.55 14.4L66.6 34.65L63.6 34.65L65.5 13.8L71.55 -5.55L81.05 -23.15" />
<path style="fill:#FAB9B9;fill-opacity:1" d="M81.4,-22.9L94 -38.05L109.15 -50.65L126.7 -60.1L146 -66.15L166.7 -68.1L166.7 -65.05L146.5 -63.1L127.7 -57.3L110.7 -48.1L96.05 -36L83.95 -21.3L74.75 -4.35L68.9 14.4L66.95 34.65L63.95 34.65L65.9 13.95L71.95 -5.35L81.4 -22.9" />
<path style="fill:#FAC0AF;fill-opacity:1" d="M81.65,-22.8L94.25 -37.8L109.25 -50.4L126.7 -59.75L146 -65.8L166.7 -67.7L166.7 -64.7L146.6 -62.75L127.95 -56.95L111.1 -47.85L96.4 -35.6L84.2 -20.95L75.1 -4.1L69.25 14.55L67.35 34.65L64.3 34.65L66.25 13.95L72.3 -5.35L81.65 -22.8" />
<path style="fill:#F8C5AC;fill-opacity:1" d="M82,-22.55L94.5 -37.55L109.5 -50.05L126.95 -59.35L146 -65.4L166.7 -67.35L166.7 -64.35L146.6 -62.4L128.05 -56.6L111.2 -47.5L96.65 -35.4L84.55 -20.85L75.45 -4L69.65 14.55L67.7 34.65L64.65 34.65L66.6 13.95L72.65 -5.1L82 -22.55" />
<path style="fill:#F7CCAA;fill-opacity:1" d="M82.25,-22.3L94.7 -37.3L109.75 -49.8L127.1 -59.1L146.1 -65.05L166.7 -67L166.7 -63.95L146.7 -62.05L128.15 -56.35L111.45 -47.25L96.9 -35.15L84.8 -20.6L75.7 -3.9L70 14.65L68.05 34.65L65.05 34.65L66.95 14.05L72.9 -4.95L82.25 -22.3" />
<path style="fill:#F6D2A7;fill-opacity:1" d="M82.5,-22.05L94.95 -37.05L110 -49.55L127.2 -58.75L146.25 -64.7L166.7 -66.65L166.7 -63.6L146.85 -61.65L128.4 -55.95L111.7 -47L97.15 -34.9L85.05 -20.35L76.05 -3.65L70.35 14.8L68.4 34.65L65.4 34.65L67.35 14.15L73.25 -4.85L82.5 -22.05" />
<path style="fill:#F7D7A5;fill-opacity:1" d="M82.85,-21.95L95.35 -36.7L110.1 -49.2L127.35 -58.4L146.25 -64.35L166.7 -66.25L166.7 -63.25L146.85 -61.3L128.4 -55.6L111.8 -46.65L97.4 -34.65L85.4 -20.25L76.4 -3.5L70.75 14.8L68.8 34.65L65.75 34.65L67.7 14.15L73.65 -4.75L82.85 -21.95" />
<path style="fill:#F9DEA4;fill-opacity:1" d="M83.1,-21.7L95.45 -36.6L110.35 -48.95L127.45 -58.15L146.35 -63.95L166.7 -65.9L166.7 -62.9L146.95 -60.95L128.65 -55.25L112.05 -46.4L97.65 -34.4L85.65 -20L76.8 -3.4L71.1 14.9L69.15 34.65L66.1 34.65L68.05 14.3L73.9 -4.6L83.1 -21.7" />
<path style="fill:#FCE3A2;fill-opacity:1" d="M83.45,-21.55L95.8 -36.2L110.5 -48.6L127.55 -57.8L146.35 -63.6L166.7 -65.55L166.7 -62.5L146.95 -60.6L128.8 -55L112.2 -46.05L97.85 -34.15L86 -19.85L77.05 -3.25L71.45 14.9L69.5 34.65L66.5 34.65L68.4 14.3L74.25 -4.5L83.45 -21.55" />
<path style="fill:#FAE9A0;fill-opacity:1" d="M83.8,-21.3L96.05 -36L110.7 -48.2L127.7 -57.45L146.5 -63.25L166.7 -65.2L166.7 -62.15L147.1 -60.2L128.9 -54.65L112.4 -45.65L98.1 -33.8L86.25 -19.65L77.4 -3.15L71.8 15L69.9 34.65L66.85 34.65L68.8 14.4L74.6 -4.35L83.8 -21.3" />
<path style="fill:#F7F09E;fill-opacity:1" d="M84.05,-21.1L96.2 -35.75L110.85 -48L127.8 -57.05L146.5 -62.9L166.7 -64.8L166.7 -61.8L147.2 -59.85L129.15 -54.3L112.65 -45.45L98.5 -33.55L86.6 -19.4L77.75 -2.9L72.2 15.15L70.25 34.65L67.1 34.65L69.05 14.4L74.85 -4.25L84.05 -21.1" />
<path style="fill:#F6F49D;fill-opacity:1" d="M84.3,-20.85L96.55 -35.5L111.2 -47.6L128.05 -56.7L146.6 -62.5L166.7 -64.45L166.7 -61.4L147.2 -59.5L129.25 -53.9L112.9 -45.05L98.7 -33.3L86.95 -19.15L78.1 -2.8L72.55 15.15L70.6 34.65L67.45 34.65L69.4 14.55L75.2 -4L84.3 -20.85" />
<path style="fill:#F6F99B;fill-opacity:1" d="M84.55,-20.7L96.65 -35.25L111.2 -47.35L128.05 -56.45L146.6 -62.15L166.7 -64.1L166.7 -61.05L147.3 -59.25L129.4 -53.65L113.05 -44.85L98.95 -33.05L87.2 -19L78.35 -2.65L72.8 15.25L70.95 34.65L67.8 34.65L69.75 14.65L75.45 -3.9L84.55 -20.7" />
<path style="fill:#F7FC9A;fill-opacity:1" d="M84.9,-20.45L97.05 -35L111.55 -47.15L128.3 -56.1L146.7 -61.8L166.7 -63.7L166.7 -60.7L147.3 -58.9L129.5 -53.3L113.25 -44.6L99.2 -32.85L87.45 -18.8L78.75 -2.55L73.15 15.25L71.35 34.65L68.2 34.65L70.1 14.65L75.8 -3.75L84.9 -20.45" />
<path style="fill:#F1FE9C;fill-opacity:1" d="M97.25,-34.75L111.7 -46.9L128.4 -55.85L146.85 -61.55L166.7 -63.5L166.7 -60.35L147.45 -58.5L129.65 -52.95L113.4 -44.2L99.45 -32.6L87.8 -18.65L79.1 -2.4L73.5 15.4L71.7 34.65L68.55 34.65L70.5 14.8L76.2 -3.65L85.15 -20.35L97.25 -34.75" />
<path style="fill:#E7FF9E;fill-opacity:1" d="M97.5,-34.55L111.95 -46.5L128.55 -55.5L146.85 -61.2L166.7 -63.1L166.7 -59.95L147.55 -58.15L129.75 -52.6L113.65 -44L99.7 -32.35L88.05 -18.4L79.45 -2.3L73.9 15.5L72.05 34.65L68.9 34.65L70.85 14.8L76.55 -3.5L85.5 -20.1L97.5 -34.55" />
<path style="fill:#DBFF9F;fill-opacity:1" d="M97.75,-34.3L112.2 -46.3L128.8 -55.1L146.95 -60.8L166.7 -62.75L166.7 -59.6L147.55 -57.8L129.85 -52.2L113.75 -43.6L99.95 -32.1L88.4 -18.3L79.8 -2.2L74.25 15.5L72.4 34.65L69.25 34.65L71.2 14.9L76.9 -3.25L85.75 -19.85L97.75 -34.3" />
<path style="fill:#D0FFA0;fill-opacity:1" d="M98,-34.05L112.3 -45.9L128.8 -54.9L146.95 -60.45L166.7 -62.4L166.7 -59.25L147.7 -57.45L130.1 -51.95L114.1 -43.35L100.3 -31.75L88.65 -17.95L80.05 -1.95L74.6 15.65L72.8 34.65L69.65 34.65L71.55 15L77.15 -3.15L86.1 -19.75L98 -34.05" />
<path style="fill:#C4FFA1;fill-opacity:1" d="M98.25,-33.8L112.55 -45.65L129 -54.5L147.1 -60.1L166.7 -62.05L166.7 -58.9L147.7 -57.05L130.1 -51.6L114.25 -43L100.4 -31.5L88.9 -17.7L80.4 -1.8L74.95 15.75L73.15 34.65L70 34.65L71.95 15L77.5 -3.05L86.35 -19.5L98.25 -33.8" />
<path style="fill:#B8FFA2;fill-opacity:1" d="M98.5,-33.55L112.65 -45.3L129.15 -54.15L147.2 -59.75L166.7 -61.65L166.7 -58.5L147.8 -56.7L130.35 -51.25L114.5 -42.75L100.8 -31.25L89.25 -17.55L80.8 -1.7L75.35 15.75L73.5 34.65L70.35 34.65L72.3 15.15L77.9 -2.9L86.7 -19.4L98.5 -33.55" />
<path style="fill:#ADFFA3;fill-opacity:1" d="M98.7,-33.2L112.9 -44.95L129.25 -53.8L147.2 -59.35L166.7 -61.3L166.7 -58.15L147.95 -56.35L130.5 -51L114.7 -42.5L101.05 -31L89.5 -17.3L81.05 -1.6L75.7 15.85L73.9 34.65L70.75 34.65L72.55 15.15L78.1 -2.8L86.95 -19.15L98.7 -33.2" />
<path style="fill:#A0FFA6;fill-opacity:1" d="M99.1,-32.95L113.15 -44.7L129.4 -53.55L147.3 -59.1L166.7 -60.95L166.7 -57.8L147.95 -55.95L130.6 -50.65L114.85 -42.15L101.25 -30.75L89.9 -17.2L81.4 -1.45L76.05 15.85L74.25 34.65L71.1 34.65L72.9 15.25L78.5 -2.65L87.35 -18.9L99.1 -32.95" />
<path style="fill:#95FFA8;fill-opacity:1" d="M99.35,-32.7L113.25 -44.45L129.5 -53.2L147.45 -58.75L166.7 -60.6L166.7 -57.45L148.05 -55.6L130.85 -50.3L115.1 -41.8L101.5 -30.55L90.25 -16.95L81.75 -1.2L76.4 16L74.6 34.65L71.45 34.65L73.25 15.4L78.85 -2.55L87.55 -18.8L99.35 -32.7" />
<path style="fill:#8AFFA9;fill-opacity:1" d="M99.55,-32.45L113.5 -44.1L129.65 -52.8L147.45 -58.4L166.7 -60.2L166.7 -57.05L148.05 -55.25L130.95 -49.9L115.2 -41.55L101.75 -30.3L90.5 -16.85L82.1 -1.1L76.8 16L74.95 34.65L71.8 34.65L73.65 15.5L79.2 -2.3L87.95 -18.55L99.55 -32.45" />
<path style="fill:#7FFFAC;fill-opacity:1" d="M99.8,-32.25L113.65 -43.85L129.75 -52.45L147.55 -58.05L166.7 -59.85L166.7 -56.7L148.15 -54.9L131.1 -49.55L115.45 -41.2L102 -29.9L90.85 -16.5L82.5 -0.95L77.15 16.1L75.35 34.65L72.2 34.65L74 15.5L79.55 -2.3L88.2 -18.4L99.8 -32.25" />
<path style="fill:#7FFFB6;fill-opacity:1" d="M100.05,-32L113.85 -43.5L130 -52.1L147.55 -57.65L166.7 -59.5L166.7 -56.35L148.3 -54.5L131.2 -49.3L115.7 -40.95L102.25 -29.8L91.1 -16.35L82.75 -0.85L77.5 16.25L75.7 34.65L72.55 34.65L74.35 15.5L79.95 -2.05L88.55 -18.15L100.05 -32" />
<path style="fill:#80FFC3;fill-opacity:1" d="M100.3,-31.75L114.1 -43.25L130.1 -51.85L147.7 -57.3L166.7 -59.1L166.7 -55.95L148.3 -54.3L131.35 -48.95L115.95 -40.6L102.6 -29.45L91.45 -16.1L83.1 -0.75L77.75 16.25L76.05 34.65L72.9 34.65L74.75 15.65L80.2 -1.95L88.8 -17.95L100.3 -31.75" />
<path style="fill:#82FFD0;fill-opacity:1" d="M100.55,-31.5L114.35 -43L130.25 -51.5L147.8 -56.95L166.7 -58.75L166.7 -55.6L148.4 -53.9L131.45 -48.6L116.05 -40.35L102.85 -29.2L91.7 -16L83.45 -0.6L78.1 16.35L76.4 34.65L73.25 34.65L75.1 15.75L80.55 -1.8L89.05 -17.7L100.55 -31.5" />
<path style="fill:#82FCDD;fill-opacity:1" d="M100.8,-31.15L114.5 -42.65L130.35 -51.15L147.8 -56.6L166.7 -58.4L166.7 -55.25L148.4 -53.55L131.55 -48.2L116.3 -40L103.1 -28.95L92.05 -15.75L83.8 -0.5L78.5 16.35L76.8 34.65L73.65 34.65L75.45 15.85L80.8 -1.6L89.25 -17.45L100.8 -31.15" />
<path style="fill:#83F8EB;fill-opacity:1" d="M101.05,-31L114.7 -42.4L130.5 -50.9L147.95 -56.2L166.7 -58.05L166.7 -54.9L148.55 -53.2L131.8 -48L116.55 -39.75L103.35 -28.7L92.3 -15.5L84.05 -0.25L78.85 16.5L77.15 34.65L73.9 34.65L75.7 15.85L81.05 -1.6L89.5 -17.3L101.05 -31" />
<path style="fill:#85F2FA;fill-opacity:1" d="M101.25,-30.65L114.85 -42.05L130.6 -50.5L147.95 -55.85L166.7 -57.65L166.7 -54.5L148.65 -52.8L131.8 -47.6L116.65 -39.5L103.55 -28.45L92.55 -15.25L84.4 -0.1L79.2 16.6L77.5 34.65L74.25 34.65L76.05 15.85L81.4 -1.35L89.9 -17.1L101.25 -30.65" />
<path style="fill:#86E6FC;fill-opacity:1" d="M101.5,-30.4L115.1 -41.8L130.85 -50.15L148.05 -55.5L166.7 -57.3L166.7 -54.15L148.65 -52.45L132.05 -47.25L116.9 -39.15L103.8 -28.25L92.9 -15.15L84.8 0L79.55 16.6L77.9 34.65L74.6 34.65L76.4 16L81.75 -1.2L90.25 -16.95L101.5 -30.4" />
<path style="fill:#87DAFD;fill-opacity:1" d="M101.75,-30.15L115.2 -41.45L130.95 -49.8L148.05 -55.1L166.7 -56.95L166.7 -53.8L148.8 -52.1L132.15 -46.9L117.15 -38.9L104.05 -28L93.15 -14.9L85.15 0.1L79.95 16.7L78.25 34.65L74.95 34.65L76.8 16.1L82.1 -1.1L90.5 -16.7L101.75 -30.15" />
<path style="fill:#89CDFF;fill-opacity:1" d="M102.1,-29.9L115.55 -41.2L131.1 -49.55L148.15 -54.9L166.7 -56.7L166.7 -53.45L148.8 -51.75L132.3 -46.5L117.25 -38.55L104.3 -27.6L93.5 -14.8L85.4 0.25L80.3 16.7L78.6 34.65L75.35 34.65L77.15 16.1L82.5 -0.95L90.85 -16.5L102.1 -29.9" />
<path style="fill:#8BC0FF;fill-opacity:1" d="M102.25,-29.8L115.7 -40.95L131.2 -49.3L148.3 -54.5L166.7 -56.35L166.7 -53.05L148.9 -51.35L132.55 -46.3L117.5 -38.15L104.65 -27.4L93.9 -14.55L85.75 0.5L80.65 16.85L78.95 34.65L75.7 34.65L77.5 16.25L82.75 -0.85L91.1 -16.35L102.25 -29.8" />
<path style="fill:#8DB4FF;fill-opacity:1" d="M91.45,-16.1L102.6 -29.45L115.95 -40.6L131.35 -48.95L148.3 -54.3L166.7 -55.95L166.7 -52.7L149 -51L132.65 -45.9L117.75 -37.9L104.9 -27.15L94.1 -14.3L86.1 0.6L81.05 16.95L79.35 34.65L76.05 34.65L77.75 16.25L83.1 -0.75L91.45 -16.1" />
<path style="fill:#000000;fill-opacity:1" d="M-172.9,43.35L-175.8 25.2L-176.9 32.1L-177.25 19.75L-176.9 4.35L-174 17.55L-172.9 43.35" />
<path style="fill:#CBA12F;fill-opacity:1" d="M1.3,50.35L9.5 50.8L20.9 51.55L31.35 52.15L37.05 52.45L39.45 52.75L42.85 53.45L46.35 54.25L49.4 54.75Q53.4 55.05 57.4 54.75L62.1 54.35L66.1 54Q67.95 53.85 69.75 53.95L74.1 54.5L78.05 55.45L81.1 56.1L83.9 56.05L88.3 54.95L93.45 53.65L98.25 52.8L99.45 55.45Q100.8 57.8 102.45 59.85L106.6 64.45L110.25 68.1L109.15 68.5L104.9 69.6L99.45 70.8L94.4 71.95L90.35 73L82 75.15L77.05 76.35L71.8 77.4L63.65 78.55Q61.75 78.75 59.8 78.55L53.15 77.75L49.15 77.25L44.9 76.9L41.05 76.85L35.2 77.25L27.6 77.7Q21.8 77.85 15.95 77.65L4.45 77.05L-2.35 76.4L-9 75.75L-19.95 75.1L-30.7 74.9L-37 74.95L-43.1 75L-53 74.5L-63.5 73.35L-70.75 71.8L-76.3 69.9L-82.35 67.3L-87.75 65.05L-91.05 63.4Q-92.2 62.75 -92.95 61.6Q-93.95 59.95 -94.55 58L-95.4 53.9L-95.65 51L-95.85 49.2L-96.35 47.5L-97 45.15L-97.5 41.9L-92.5 40.95L-84.9 40.3L-77 40.1L-70.85 40.15L-64.05 40.5L-54.7 41.35L-46.1 42.45L-41.4 43.35L-41.05 44.3L-39 46.25Q-38.25 46.85 -37.35 47.15L-35.55 47.75L-33.4 48.35L-29.2 49.35L-23.45 50L-14.85 50.25L-5.85 50.25L1.3 50.35" />
<path style="fill:#000000;fill-opacity:1" d="M-89.4,44.1L-94.35 44.6L-95.45 41.2L-88.9 39.85L-89.4 44.1" />
<path style="fill:#000000;fill-opacity:1" d="M-76.9,39.75L-78.85 44.2L-88.15 43.6L-86.85 39.75L-76.9 39.75" />
<path style="fill:#000000;fill-opacity:1" d="M-62.25,39.5L-63.3 42.05L-74.45 42.05L-74.45 39.35L-62.25 39.5" />
<path style="fill:#000000;fill-opacity:1" d="M-47.2,43.6L-61 43.6L-60.3 39.85L-47.2 40.95L-47.2 43.6" />
<path style="fill:#000000;fill-opacity:1" d="M-45.15,49.2L-47.95 49.55L-55.3 50.9L-56.3 46.9L-54.85 44.95L-46.85 44.6L-45.15 49.2" />
<path style="fill:#000000;fill-opacity:1" d="M-61.85,44.6L-61.5 47.6L-70 49.45L-77 47.35L-76.9 44.2L-69.4 43.6L-61.85 44.6" />
<path style="fill:#000000;fill-opacity:1" d="M-80.9,51.95L-82.35 51.75L-83.8 55.75L-92.55 54.5L-92.55 46.65L-81.4 47.75L-80.9 51.95" />
<path style="fill:#000000;fill-opacity:1" d="M-69.25,59.25L-66.85 61.2L-61.5 61.8L-61.15 65.05L-65.4 64.7L-81.6 59.95L-81 57.4L-79.1 57.2L-78 52.1L-70 53.2L-69.25 59.25" />
<path style="fill:#000000;fill-opacity:1" d="M-67.8,49.9L-59.2 49.2L-57.15 54.65L-55.2 54.25L-54.95 57.9L-65.25 59.25L-67.8 49.9" />
<path style="fill:#000000;fill-opacity:1" d="M-91.2,58.9L-84.65 57.8L-83.2 61.55L-63.7 67.25L-67.8 70.85L-86.45 63.7L-91.2 58.9" />
<path style="fill:#000000;fill-opacity:1" d="M-36.05,52.45L-40.65 59.6L-50.85 56.7L-49.85 53.2L-47.55 51.35L-42.95 51L-36.05 52.45" />
<path style="fill:#000000;fill-opacity:1" d="M-39.1,63.25L-41 67.95L-57.4 63.6L-52.3 59.6L-39.1 63.25" />
<path style="fill:#000000;fill-opacity:1" d="M-51.55,73.15L-61.75 72.1L-63.7 69.9L-58.6 67L-53.15 67.95L-39.3 73.05L-51.55 73.15" />
<path style="fill:#000000;fill-opacity:1" d="M-33.5,53.45L-29.85 53.05L-29.5 54.15L-25.65 54.65L-28.4 58.9L-26.6 63.35L-38.85 60.1L-33.5 53.45" />
<path style="fill:#000000;fill-opacity:1" d="M-28.15,70.85L-29.65 69.8L-33.5 70.25L-36.3 68.45L-36.05 64.1L-29.95 65.05L-25.15 65.2L-20.8 69.4L-22 70.65L-28.15 70.85" />
<path style="fill:#000000;fill-opacity:1" d="M-8.55,62.9L-11.8 66.5L-14.6 65.9L-17.85 67.35Q-20.05 65.9 -21.8 64.05Q-23.95 61.75 -25.65 59L-23.45 54.9L-15.45 54.25L-11.35 54.65L-14.6 57.55Q-12.2 59.15 -10.1 61Q-9.2 61.8 -8.55 62.9" />
<path style="fill:#000000;fill-opacity:1" d="M7.7,54.25L11.8 56.35L9.5 58Q6.55 59.75 3.45 61.2L-0.1 60.5L-8.55 57.8L-8.4 56.8L-0.65 54.15L7.7 54.25" />
<path style="fill:#000000;fill-opacity:1" d="M-19.45,73.15L-17.15 70.65L-13.85 68.7L-7.8 74.4L-18.35 74.15L-19.45 73.15" />
<path style="fill:#000000;fill-opacity:1" d="M-3.95,60.7L-2 62.15L0.45 62.9L-3.55 70.85L-9.65 69.05L-5.85 62.65L-3.95 60.7" />
<path style="fill:#000000;fill-opacity:1" d="M19.05,55.2L25.5 56.45L25.9 63.35L23.7 64.35L10.75 62.9L9.3 60.7L15.7 56.8L16.05 55L19.05 55.2" />
<path style="fill:#000000;fill-opacity:1" d="M40.3,56.8L38.85 61.55L37.5 60.1L28.3 60.1L29.05 56.7L33.05 56.3L36.3 55.75L40.3 56.8" />
<path style="fill:#000000;fill-opacity:1" d="M51.6,59.35L57.75 66.15L56.3 67.25L41.75 67L42.5 63.55Q42.8 60.95 42.6 58.25L51.6 59.35" />
<path style="fill:#000000;fill-opacity:1" d="M19.1,70.5L20.55 66.5L26.25 67L28.65 65.2L28.05 62.65L37.05 62.9L38.95 64.1L36.8 71.95L22.35 71.95L19.1 70.5" />
<path style="fill:#000000;fill-opacity:1" d="M16.8,71L5.65 70.5L3.35 69.3Q1.75 68.7 0.05 68.35L3.35 63Q5.9 63.35 8.35 64.05Q9.8 64.45 11.1 65.2L18.25 64.7L16.8 71" />
<path style="fill:#000000;fill-opacity:1" d="M24.55,74.85L33.9 74.75L24.3 76.1L6 75.7L4.45 74.85L2 75.95L-1.15 74.85L1.15 71.35L4.8 73.8L7.7 73.15L10.35 74.85L15.7 74.45L24.55 74.85" />
<path style="fill:#000000;fill-opacity:1" d="M61.4,75.7L56.3 75.4L49.65 74.4L43.7 73.2L41.15 72.7L41.5 69.9L53.9 69.9L56.4 68.45L54.5 71.95L54.6 71.95L55.2 72.35L57.15 73.4L59.45 74.65L61.4 75.7" />
<path style="fill:#000000;fill-opacity:1" d="M63.2,60.25L65.75 59.75L70.25 64.3L74.1 67.7L69.25 68.1L59.6 70.85L61.05 65.05L55.6 59.75L63.2 60.25" />
<path style="fill:#000000;fill-opacity:1" d="M81.65,61.9L83.2 65.05L90.5 70.25L81.75 71.35L82.35 69.55L78.85 72.45L72.65 73.05L78.1 66.85L71.95 61.8L76.65 61.45L81.65 61.9" />
<path style="fill:#000000;fill-opacity:1" d="M64.55,72.45L67.45 73.05L68.9 72.1L73.75 75.6L67.1 77.3L68.9 75.95L66.5 75.7L64.55 72.45" />
<path style="fill:#000000;fill-opacity:1" d="M-87.9,51.35L-91.9 54.65L-85 53.2L-89.75 60.45L-86.45 59L-87.2 62.65L-82.45 60.1L-83.2 64.8L-79.2 64.8L-79.55 66.65L-75.95 64.8L-75.2 68.1L-70.1 65.9L-73 69.9L-64.3 68.45L-67.55 71L-59.95 72.1L-69 74.4L-64.65 76.8L-76.3 74L-75.55 76.45L-83.55 72.8L-83.9 75.35L-86.1 72.8L-88.65 76.1L-89.4 72.8L-94.45 76.8L-93 71.35L-101.85 77.3L-103.3 71L-106.6 74.75L-107.3 71.35L-117.5 78.4L-117.85 71.7L-120.05 74.75L-122.2 71.7L-122.95 76.1L-128.75 71.35L-129.15 79.1L-133.15 71.35L-134.95 76.45L-136.75 71.35L-141.85 78L-141.85 71.35L-146.2 75.35L-144.4 69.55L-154.95 76.1L-150.2 66.25L-156.15 70.65L-156.15 67.35L-164.5 75.7L-163.8 70.65L-168.5 75.35L-167.45 70.25L-172.9 72.45L-170 68.45L-178.35 70.65L-174 66.65L-177.6 65.9L-173.6 64.1L-179.45 63L-173.6 60.8L-180.5 57.55L-174.7 56.8L-183.05 52.8L-176.5 52.8L-180.5 49.9L-173.25 49.2L-180.5 45.9L-177 45.9L-179.05 45.55L-170 33.45L-162.85 31.75L-152.4 42.3L-148.75 35.75L-145.85 41.9L-145.5 38.65L-144.05 41.9L-141.5 35L-141.15 41.2L-137.85 37.9L-137.5 41.2L-134.1 36.2L-134.2 39.35L-130.6 35L-130.2 41.9L-124.05 33.2L-124.75 39L-122.95 36.1L-120.4 37.9L-100.4 36.1L-93.65 38.6L-89.75 39.35L-93.6 41.2L-90.45 42.65L-94.45 43.75L-89 45.2L-92.65 47.75L-89.4 49.2L-91.9 50.65L-87.9 51.35" />
<path style="fill:#8BFF03;fill-opacity:1" d="M-93.75,54.65L-89.75 56.45L-95.2 60.8L-88.3 61.2L-89.4 63.7L-84.65 63.7L-82.85 67L-77.75 68.1L-78.1 70.65L-85.4 68.1L-85.4 70.65L-87.9 68.8L-91.2 71.35L-91.9 68.1L-100.4 73.15L-101.85 67.7L-105.15 69.9L-106.6 67.35L-114.95 73.65L-116.4 66.25L-119.7 69.2L-121.85 66.25L-125.15 69.9L-130.6 65.55L-130.6 69.9L-134.95 65.9L-139.7 69.9L-139.3 66.65L-142.95 69.2L-143.3 66.25L-148.4 69.55L-147.7 62.25L-154.2 66.25L-154.2 63.35L-161.5 69.55L-161.85 66.25L-166.7 68.1L-166.7 65.55L-171.8 67L-168.9 63L-173.6 62.65L-168.9 60.8L-174 58.65L-170.35 56.8L-176.15 54.65L-170.35 52.8L-175.05 51.35L-170.35 49.55L-172.5 47.75L-171.3 43.85L-175.05 46.3L-174.45 41.2L-169.5 34.3L-163.3 32.6L-152.4 44.2L-149.15 40.85L-144.05 44.85L-142.2 41.9L-141.85 45.55L-138.95 41.9L-135.7 43.75L-132.75 40.1L-131.3 46.3L-126.2 39L-125.5 44.45L-122.2 39L-119.7 40.85L-100.75 38.3L-97.15 40.85L-99.2 42.65L-91.9 46.3L-96.05 47L-92.65 49.2L-94.85 50.3L-91.55 52.45L-93.75 54.65" />
<path style="fill:#000000;fill-opacity:1" d="M-129.5,60.8L-127.7 54.65L-126.95 57.55L-124.75 52.1L-121.5 57.55L-120.75 52.8L-118.95 55L-117.85 51L-112.75 58.65L-110.25 55L-108.05 59L-104.75 53.9L-101.85 62.65L-105.5 57.2L-107.7 61.55L-110 57.8L-112.15 60.8L-117.25 54.15L-118.2 56.8L-119.8 56.35L-119.7 62.25L-124.3 56.1L-126.7 60.1L-127.7 58.65L-129.5 60.8" />
<path style="fill:#000000;fill-opacity:1" d="M-132.3,28.25L-131.25 29.15L-128.8 31.8L-126.3 34.7L-124.3 36.85Q-123.6 39.6 -122.35 41.95Q-121.05 44.3 -119 46.05L-114.95 49.05L-111.7 51.25Q-113.15 50.7 -114.65 50.45L-117.15 50.4L-119.4 51Q-120.1 51.25 -120.75 51.6L-121.5 51.5L-123.2 51.2L-125.25 50.75L-127.3 50.55L-128.65 50.7L-130.1 50.9L-131.8 51.05L-133.6 51.35L-134.2 52.1L-133.5 50.05L-132.7 47.55Q-132.35 46.35 -132.4 45.05L-132.75 42.9L-133.35 39.45L-133.55 35.15L-133.35 30.9L-133.15 28.25L-132.3 28.25" />
<path style="fill:#C89B6B;fill-opacity:1" d="M-130.15,31.95L-128.8 33.6L-127.15 35.45Q-126.5 36.25 -126.15 37.1L-125.35 39.45Q-124.8 41.35 -123.9 43.05Q-123.05 44.6 -121.85 45.95Q-120.45 47.55 -118.6 48.7L-119.85 49.2L-121.4 49.55L-123.05 49.6L-124.3 49.5L-125.25 49.25L-126.6 49L-128.3 48.95L-130.2 49.2L-129.1 48.45L-127.2 47.6L-125.6 47.05L-124.75 46.9L-130.2 46.3L-127.05 45.9L-130.35 44.1L-126 44.2L-130.2 41.9L-126.95 42.5L-130.7 40.1L-126.95 40.85L-131.2 38.3L-129 38.3L-130.7 36.6L-128.4 36.95L-130.6 34.4L-129.35 34.75L-130.6 31.4L-130.15 31.95" />
<path style="fill:#000000;fill-opacity:1" d="M25.65,25.55L27.6 22.65L28.3 25.55L29.65 18.3L33.75 25.95L35.6 19L37.4 26.3L40.3 22.3L41.75 25.95L45.05 20.45L46.85 25.55L49.05 22.65L49.75 27L53.75 22.65L53.05 27.75L56.3 23.75L57.4 27.4L60.3 24.1L60.65 29.9L62.85 27.4L64.65 31.75L67.2 25.2L67.55 30.3L69.4 28.85L70.1 31.4L73.75 27.75L72.3 32.1L76.3 26.65L76.3 32.45L79.95 28.85L77.75 35L82.1 32.1L82.1 35.75L84.65 33.2L85.75 37.55L88.3 33.9L88.65 37.9L93.4 34.3L89.75 41.9L93.75 41.2L90.95 44.45L94.6 48.8L91.35 50.3L90.1 52.8L83.2 54.25L69.4 52.45L54.85 53.9L37.75 50.3L17.65 49.9L3.1 48.1L-12.9 49.2L-32.15 46.3L-39.1 44.45L-38.85 40.45L-36.65 31.4L-35.1 33.55L-34.1 31.4L-33.4 32.85L-31.8 26.65L-30.35 29.55L-29.25 28.1L-27.1 30.3L-24.55 25.2L-23.1 28.85L-21.65 23L-19.45 27.75L-18 25.55L-17.25 28.1L-11.1 20.85L-10.35 25.55L-8.9 23.4L-7.8 25.55L-5.65 20.45L-3.8 25.55L-3.1 22.65L-0.9 25.95L0.55 23.75L2 27.75L4.2 23L5.65 25.2L7.8 21.95L10 26.3L10 17.95L12.2 26.65L13.65 23.4L15.45 27L19.1 19.75L19.45 27L21.3 22.65L21.65 27.4L24.55 17.95L25.65 25.55" />
<path style="fill:#8BFF03;fill-opacity:1" d="M69.4,34.75L71.45 32.6L72.3 34.4L74.85 30.75L75.2 35.15L77.25 33.9L76.65 37.2L80.65 34.4L81.4 38.3L83.95 36.2L85.25 39.5L87.45 36.95L87.95 39.75L90.1 38.05L88.2 43L90.5 43L89.4 44.6L91.8 47.75L89.4 49.45L74.1 49.8L58.95 49.55L44.65 44.6L44.05 38.9L46.6 37.2L46.25 34.3L42.5 35.4L43.6 34.65L43.95 32.85L46.95 32.25L46.1 28.45L47.95 26.75L49.75 28.95L51.35 27L52.45 30.05L55.95 26.65L57.4 29.2L59.6 27L60.65 32.1L62.25 30.05L65.65 33.7L66.5 30.3L67.1 32.95L68.65 31.15L69.4 34.75" />
<path style="fill:#8BFF03;fill-opacity:1" d="M-11.8,31.4L-9.25 28.95L-10.25 35.15L-7.35 31.75L-7.1 35.5L-2.85 33.9L-3.55 45.2L-18.7 44.85L-31.45 42.9L-36.65 39.35L-35.8 34.65L-34.1 36.1L-33.4 33.9L-31.8 34.4L-31.3 29.7L-30.6 31.5L-29.25 30.3L-26.6 32.25L-24.55 28.25L-22.95 30.3L-21.25 26.65L-19.7 29.7L-18 28.25L-16.9 31L-12.05 24.1L-11.8 31.4" />
<path style="fill:#8BFF03;fill-opacity:1" d="M21.3,29.3L24.45 22.8L25.5 27L27.35 25.55L28.8 27.15L30.25 21.7L33.75 27.75L35.6 23.85L37.15 28.25L40.3 26.05L42.25 27.75L44.65 24.6L44.65 31.15L41.75 31.15L42.1 34.4L40.45 34.3L41.15 37.7L45.05 35.4L45.15 40.95L51.2 48.8L43.2 47.6L-3.55 45.2L-4.9 43.6L-3.2 32.25L-5.85 33.7L-5.5 28.95L-8.05 30.05L-8.55 27L-10 27.75L-8.9 25.7L-6.35 26.75L-4.9 24.25L-3.45 27L-2.35 25.3L-0.65 27.5L0.8 26.3L1.65 29.7L4.8 25.3L5.9 27L7.8 24.25L10.25 27.75L11.1 25.95L12.2 28.25L13.9 25.7L15.45 28.85L18.35 23.4L18.95 28.6L20.8 27.15L21.3 29.3" />
<path style="fill:#000000;fill-opacity:1" d="M21.3,37.55L25.3 43.35L32.3 38.65L34.85 39.35L38.85 45.9L43.6 39.75L46.1 39L51.2 45.55L51.2 47.35L55.2 41.55L58.85 40.45L61.05 46.65L63.6 40.45L67.2 40.45L69.4 45.9L72.3 40.85L75.55 42.65L77.4 46.65L82.1 41.55L84.3 41.55L87.95 44.85L87.95 56.8L76.65 57.55L75.55 55.35L75.2 56.8L67.55 56.65Q63.95 56.65 60.3 56.8L58.85 55.35L57.75 56.8L50.5 56.45L49.4 55L47.95 56.45L38.5 54.25L38.1 53.2L36.65 54.65L23.95 53.55L23.1 51.75L21.65 53.55L12.9 52.45L11.1 51L10.75 52.8L2.35 52.1L0.2 51L-0.55 52.45L-6.35 52.8L-8.2 51.35L-9.25 52.8L-15.45 52.8L-16.9 51.35L-19.1 52.45L-24.9 51.7L-35.1 50.3L-35.45 46.3L-39.1 48.8L-42.85 47.35L-40.65 34.3L-37 33.55L-34.7 39.75L-32.15 36.1L-27.45 36.45L-24.15 39.35L-24.55 41.2L-21.25 36.85L-15.8 37.55L-14.7 40.1L-12.15 37.55L-9.25 37.9L-8.2 40.1L-6 38.3L-2.7 38.3L0.9 43L5.65 37.55L10 37.9L13.3 43L18.35 37.55L21.3 37.55" />
<path style="fill:#AE660A;fill-opacity:1" d="M-39.7,35.4L-37.85 40.2L-39.1 47.25L-41.85 46.5L-39.7 35.4" />
<path style="fill:#AE660A;fill-opacity:1" d="M-29.15,50.9L-34.1 48.95L-34.35 41.65L-31.1 37.7L-28.4 40.6L-29.15 50.9" />
<path style="fill:#AE660A;fill-opacity:1" d="M-16.9,43.25L-19.7 51.35L-24.8 50.9L-24.05 43.25L-20.05 38.4L-16.9 43.25" />
<path style="fill:#AE660A;fill-opacity:1" d="M-9.85,50.35Q-9.75 50.95 -10 51.6L-14.6 52.1L-15.7 50.9Q-15 47.1 -13.9 43.4Q-13.25 41.3 -12.15 39.35Q-10.8 44.85 -9.85 50.35" />
<path style="fill:#AE660A;fill-opacity:1" d="M-2,43.75L-1.85 50.65L-6.35 51.6L-7.45 50.65L-8.55 44L-5.25 39.85L-2 43.75" />
<path style="fill:#AE660A;fill-opacity:1" d="M10.25,43.25L9.5 51L1.9 50.5L2.75 43.6L6.35 39.15L10.25 43.25" />
<path style="fill:#AE660A;fill-opacity:1" d="M22.25,45.2L20.55 51.75L17.9 51.95L13.3 51L13.5 44.85L18.95 39.35L22.25 45.2" />
<path style="fill:#AE660A;fill-opacity:1" d="M24.55,51.6L26.25 44.95L31.95 40.1L36.05 46.65L33.9 53.45L25.3 52.8L24.55 51.6" />
<path style="fill:#AE660A;fill-opacity:1" d="M48.3,47.35L47.6 54.5L46.1 55.25L39.2 52.8L40.05 46.5L44.8 41.65L48.3 47.35" />
<path style="fill:#AE660A;fill-opacity:1" d="M58.95,52.1L57.75 55.35L52.05 55.75L52.05 50.15L56.3 44.85L57.5 44L58.95 52.1" />
<path style="fill:#AE660A;fill-opacity:1" d="M67.55,47.75L66.1 55L61.05 55.75L61.9 50.3L66.5 42.5L67.55 47.75" />
<path style="fill:#AE660A;fill-opacity:1" d="M76.2,47.95L74.5 55.95L68.3 55.6L69.75 48.7L73.25 43.25L76.2 47.95" />
<path style="fill:#AE660A;fill-opacity:1" d="M86.5,45.9L86.35 55.95L78 55.95L78.35 48.1L83.45 43.35L86.5 45.9" />
<path style="fill:#E0C9B5;fill-opacity:1" d="M65.25,42.3L61.5 49.45L60.65 48.7L63.95 42.05L65.25 42.3" />
<path style="fill:#E0C9B5;fill-opacity:1" d="M77.75,47.35L82.1 42.9L83.1 42.9L77.75 47.35" />
<path style="fill:#E0C9B5;fill-opacity:1" d="M75.95,46.3L74.35 43.75L74.5 42.9L76.9 46.5L75.95 46.3" />
<path style="fill:#E0C9B5;fill-opacity:1" d="M56.8,42.05L57.5 42.9L52.3 48.7L52.05 47.6L56.8 42.05" />
<path style="fill:#E0C9B5;fill-opacity:1" d="M45.05,40.6L46.1 40.1L50.5 45.3L49.5 53.8L48.45 54.9L49.15 45.65L45.05 40.6" />
<path style="fill:#E0C9B5;fill-opacity:1" d="M34.95,53.05L36.8 46.5L33.4 40.2L34.85 40.45L38.25 46.9L36.45 52.7L34.95 53.05" />
<path style="fill:#E0C9B5;fill-opacity:1" d="M21.65,51.75L23.1 44.2L19.7 38.4L20.9 38.4L24.55 44.2L23.45 50.3L21.65 51.75" />
<path style="fill:#E0C9B5;fill-opacity:1" d="M10.35,50.3L10.95 43.35L7.35 38.9L9.5 39L12.45 43.75L11.7 49.45L10.35 50.3" />
<path style="fill:#E0C9B5;fill-opacity:1" d="M-0.9,50.5L-1.15 43.6L-4.55 39.35L-2.85 39.15L0.45 43.75L0.8 49.45L-0.9 50.5" />
<path style="fill:#E0C9B5;fill-opacity:1" d="M-9.5,42.05L-11.45 38.65L-9.65 38.65L-8.05 41.3L-9.5 42.05" />
<path style="fill:#E0C9B5;fill-opacity:1" d="M-16.4,42.05L-19.1 38.05L-16.55 38.3L-15.35 41.3L-16.4 42.05" />
<path style="fill:#E0C9B5;fill-opacity:1" d="M-27.8,50.65L-27.7 39.5L-30.25 36.85L-27.8 37.2L-25.5 39.5L-26.25 50.5L-27.8 50.65" />
<path style="fill:#E0C9B5;fill-opacity:1" d="M-38.25,47L-37 40.1L-39.1 35.15L-37.75 35L-35.45 40.2L-36.65 45.65L-38.25 47" />
<path style="fill:#000000;fill-opacity:1" d="M-173.25,-43.25Q-172.5 -41.3 -172.1 -39.3Q-171.6 -37 -171.7 -34.65Q-171.75 -32.45 -172.15 -30.3Q-172.45 -28.75 -173.05 -27.3L-174.5 -23.65Q-175.65 -20.65 -176.25 -17.5Q-176.9 -13.95 -176.35 -10.55Q-175.75 -7 -174.35 -3.65L-173 -5.45L-171.4 -6.85L-169.95 -7.7L-169.25 -8L-170.95 -4.45Q-172 -2.1 -172.65 0.35Q-173.4 3.25 -173.15 6.15Q-172.8 10 -171.8 13.8L-171.4 9.25Q-171.05 7.1 -170.3 5L-168.8 1.4L-167.7 -1.2Q-166.95 -3.3 -166.6 -5.55Q-166 -9.35 -165.8 -13.2Q-165.55 -17.25 -165.75 -21.3Q-165.9 -24.1 -166.35 -26.9Q-165.4 -24.95 -164.8 -22.9Q-163.95 -20.2 -163.6 -17.45Q-163.2 -14.65 -162.95 -11.85L-162.6 -7.65L-160.15 -10.05L-158.5 -11.9L-157.5 -13.1L-157.25 -13.45L-157.15 -13.45L-157.85 -21.8L-155.8 -17.1L-153.85 -20.9Q-152.75 -23 -152 -25.25Q-151.25 -27.45 -150.95 -29.75L-150.6 -33.8Q-150.4 -30.7 -150.35 -27.6Q-150.3 -24.35 -150.7 -21.15Q-151.1 -17.85 -152.1 -14.75L-153.8 -8.6L-154.5 -4.85Q-154.75 -2.45 -155.25 -0.1L-156.15 4.1L-156.75 6.9L-154.85 4.35Q-153.9 2.95 -153.4 1.3L-152.65 -1.45L-152.4 -2.55Q-151.65 0.15 -151.35 2.85Q-150.95 6.1 -151.2 9.35Q-151.4 12.55 -152 15.75L-153.1 21.2L-153.85 26.65Q-154.1 30 -153.65 33.25Q-153.2 36.55 -151.8 39.45Q-150.55 42.1 -148.75 44.45L-151.8 44.5L-154 44.45L-155.7 44L-157.1 42.95L-158.85 40.85L-160.45 38.6L-162.1 35.95L-163.45 33.2Q-164.4 37.75 -165.8 42.15Q-166.7 45.15 -168.35 47.75Q-169.45 49.5 -170.9 50.95L-172.5 52.45L-171.35 47.85L-170.35 43Q-169.95 40.8 -169.9 38.55L-170 35.4L-171.65 38.6L-173.5 41.05L-175.85 43.25L-179.05 45.55Q-176.8 41.35 -175 36.95Q-174 34.55 -173.55 31.95Q-173.05 29.5 -173.3 27.05Q-173.6 24 -174.35 20.95L-176 13.65Q-176.75 10.2 -176.75 6.65Q-176.75 3.9 -176.15 1.1L-178.5 -4Q-179.65 -7.1 -180.15 -10.35Q-180.6 -13.75 -180.15 -17.1Q-179.7 -20.2 -178.55 -23.2L-176.2 -29.15Q-175.05 -32 -174.3 -34.95Q-173.65 -37.45 -173.4 -40Q-173.25 -41.6 -173.25 -43.25" />
<path style="fill:#0BFF00;fill-opacity:1" d="M-152.65,4L-152.75 8L-153.3 12.95Q-153.65 15.35 -154.3 17.7L-155.1 20.95L-155.8 25.1Q-156.05 28.55 -155.7 31.95Q-155.35 35.4 -154.1 38.5Q-153.1 41 -151.55 43.25L-154.45 43.35Q-156.4 40.9 -157.8 38.1Q-159.35 35.1 -159.95 31.65Q-160.55 27.8 -160.2 23.9Q-159.85 19.8 -158.9 15.75L-158.3 13.45L-157.5 11.25L-156.75 9.35L-156.15 7.85L-156.85 12L-158.05 17.45Q-158.7 20.2 -158.95 22.95L-158.95 27.5L-157.7 22.2L-155.6 15L-153.6 8.05L-152.65 4" />
<path style="fill:#0BFF00;fill-opacity:1" d="M-172.65,-3.65Q-173.8 1.35 -173.75 6.3Q-173.7 11.1 -172 15.65Q-170.5 19.75 -168.45 23.6Q-167.05 26.25 -166.1 29Q-165.4 30.95 -165.55 33.05Q-165.7 35.8 -166.4 38.5L-167.95 43.6L-169.35 47.25Q-168.75 43.25 -168.55 39.25Q-168.4 35.85 -168.95 32.5Q-169.4 29.75 -170.35 27.05L-171.85 23.15Q-173.7 18.75 -175.1 14.15Q-176.1 10.75 -176.1 7.15Q-176.1 4.2 -175.05 1.4Q-174.1 -1.2 -172.65 -3.65" />
<path style="fill:#0BFF00;fill-opacity:1" d="M-172.3,25.2L-171.6 26.9L-170.8 28.95L-170 30.75L-170.75 33.05L-172 35.95L-173.65 38.7L-175.2 40.95Q-174.15 38.3 -173.35 35.55Q-172.65 33.2 -172.4 30.7Q-172.15 28.7 -172.25 26.65Q-172.3 25.65 -172.5 24.6L-172.3 25.2" />
<path style="fill:#0BFF00;fill-opacity:1" d="M-172.6,-35.4Q-172.75 -33.15 -173.25 -30.9L-174.5 -26.45L-175.8 -23L-176.85 -20.3L-177.65 -17.1L-178 -14.05L-178.05 -11.65L-177.9 -9.7L-177.25 -7.2L-176.25 -4.9L-175.05 -3.05L-176.15 -0.85L-177.5 -3.55L-178.65 -6.95L-179.5 -11.15Q-179.75 -13.4 -179.55 -15.6Q-179.3 -18.25 -178.4 -20.75L-176.1 -26.55Q-174.75 -29.55 -173.85 -32.7Q-173 -35.55 -172.5 -38.55L-172.6 -35.4" />
<path style="fill:#0BFF00;fill-opacity:1" d="M-164.1,-16.5L-163.85 -12.85L-163.8 -9.2L-163.8 -6.65L-165 -4.75L-165.3 -4.1L-165.3 -4Q-164.6 -10.3 -164.35 -16.6L-164.3 -18.9L-164.1 -16.5" />
<path style="fill:#0BFF00;fill-opacity:1" d="M-156.4,-16.1L-155.95 -13.95L-155.6 -11.5L-155.45 -9.1L-155.45 -6.55L-155.95 -2.8L-157.2 2.8L-158.7 8.35L-159.8 12.6L-160.75 16.95L-161.7 23.25Q-162 26.3 -161.85 29.3L-161.15 33.9L-163.2 30.55L-165.95 25.95Q-167.5 23.1 -168.4 19.95Q-169.45 16.5 -169.5 12.85Q-169.5 9.65 -168.65 6.5Q-167.7 3.2 -166.15 0.15Q-164.65 -2.85 -162.55 -5.5L-158.6 -9.95L-158.95 -7.85L-159.55 -5.75L-160.3 -3.9L-161.05 -2.2L-162.45 1.15Q-163.55 4.15 -164.25 7.2Q-165.05 10.75 -165.05 14.3Q-165.05 17.65 -164.5 20.95L-164.05 16.5L-163.5 11.4L-162.6 6.35L-161.45 2.6L-159.85 -1.4L-158.15 -6.35Q-157.3 -8.95 -156.9 -11.7Q-156.5 -13.85 -156.4 -16.1" />
<path style="fill:#0BFF00;fill-opacity:1" d="M-151.2,-23.4L-151.6 -20.6Q-151.85 -19 -152.25 -17.5Q-152.65 -16.05 -153.2 -14.65L-154.1 -12.5L-154.55 -13.95L-154.8 -15L-154.95 -16L-153.3 -18.9L-152.3 -20.95L-151.5 -22.8L-151.2 -23.4" />
<path style="fill:#000000;fill-opacity:1" d="M-141.15,10.55L-142.3 7.4Q-143.1 4.15 -143.05 0.75Q-142.95 -2.4 -141.8 -5.3Q-140.9 -7.5 -139.45 -9.45L-137.5 -9.8Q-136.65 -11.8 -135.35 -13.45Q-133.65 -15.55 -131.3 -16.85Q-128.85 -18.15 -126.2 -18.1Q-123.65 -18.05 -121.15 -17.1Q-117.3 -19.15 -113.3 -19.6Q-109.65 -20.05 -106.2 -18.2Q-102.65 -16.3 -99.8 -13.35Q-97.5 -11 -95.55 -8.35L-94.95 -8.5L-94.25 -8.25L-94 -7.85L-93.6 -7.25L-93.65 -6.65L-93.8 -6L-94.25 -5.2L-94.85 -4.35Q-93.9 -3.3 -93.3 -2.15Q-92.45 -0.6 -92.2 1.15Q-91.95 3 -92.35 4.8Q-92.7 6.8 -93.4 8.7Q-91.5 10.55 -90.1 12.7Q-88.55 15.1 -88.2 17.9Q-87.85 20.8 -88.9 23.45Q-90 26.5 -91.9 29.2Q-91.65 30.3 -91.75 31.35Q-91.85 32.5 -92.55 33.35Q-93.5 34.5 -94.8 35.2L-98.85 37.2L-100 38.4Q-100.9 39.1 -102.05 39.2L-105.35 39.05L-109.85 37.9Q-112.45 39.15 -115.2 39.55Q-118.15 40.05 -121 39.05Q-124.25 37.95 -126.8 35.55Q-129.5 33 -131.7 29.9L-143.05 30.65Q-144.7 29.2 -145.6 27.4Q-147.5 23.45 -147.2 19.25Q-146.9 15.45 -145.15 11.75L-141.15 10.55" />
<path style="fill:#3EFF00;fill-opacity:1" d="M-136.05,-9.45Q-134.7 -12 -132.7 -13.9Q-131 -15.5 -128.55 -16.05L-123.8 -16.4L-120.05 -16Q-117.5 -17.55 -114.75 -18Q-111.65 -18.45 -108.65 -17.2Q-105.25 -15.75 -102.5 -13.25Q-99.75 -10.7 -97.4 -7.75L-97 -7.8L-96.4 -7.7L-95.95 -7.45L-95.45 -7.05L-95.2 -6.65L-95.25 -6.05L-95.5 -5.45L-95.9 -4.75Q-95.05 -2.5 -94.55 -0.2Q-94.05 2 -94.15 4.25Q-94.25 6.25 -94.95 8.15L-96.4 11.4L-94.7 11.75Q-93.95 13.45 -93.75 15.2Q-93.4 17.75 -93.9 20.3Q-94.45 23.05 -95.25 25.7Q-95.85 27.7 -96.75 29.55Q-97.5 31.15 -98.9 32.25Q-100.7 33.75 -102.95 34.55Q-105.5 35.5 -108.2 35.9L-110.95 36.1Q-113.05 37.15 -115.25 37.3Q-117.85 37.55 -120.35 36.5Q-123.3 35.2 -125.9 33.2L-130.4 29.25L-132.15 27.85Q-132.7 27.5 -133.35 27.35L-134.35 27.15L-134.45 27.6L-134.75 28.3L-135.15 28.9L-135.55 29.45L-135.55 28.95L-135.6 28.25L-135.7 27.25L-135.8 26.75L-135.95 27.1L-136.3 27.6L-136.75 28.1L-137.35 28.7L-137.2 27.75L-137.2 26.75L-137.25 25.8L-137.25 25.55L-137.75 25.3L-138.35 26.15L-139.25 27.1L-140.3 27.85L-141 28.25L-139.95 26.7L-139.2 25.45L-138.45 23.85L-138.85 23.5L-139.45 23.85L-140.2 24.3L-141 24.5L-141.75 24.45L-141.15 23.6L-140.55 22.9L-140 22.15L-139.8 21.95L-140.05 21.55L-140.55 21.5L-141.5 21.45L-142.1 21.45L-142.7 21.45L-143.3 21.45L-143.7 21.45L-143.05 20.95L-142.5 20.35L-141.7 19.45L-140.9 18.55L-141.35 18.15L-142 18.2L-142.85 18.25L-143.7 18.25L-144.5 18.15L-144.3 17.1L-143.45 16.55L-142.4 16.1L-141.35 15.85L-141.35 15.4L-141.85 15.2L-142.6 15L-143.55 14.85L-144.05 14.9L-143.55 14.15L-142.6 13.95L-141.75 13.85L-141.25 13.8L-141.25 13.2L-141.6 13.15L-142.2 13.1L-143.05 13.15L-143.55 13.2L-143.3 12.5L-142.45 12L-141.75 11.5L-141.35 11.5Q-139.85 12.75 -138.15 13.6Q-136.65 14.4 -134.95 14.5L-132.45 14.3L-130.95 13.8L-130.7 13.8L-131.05 13.2L-132.75 13.5L-134.15 13.5L-136.15 12.85L-135.2 12.7L-133.9 12.35L-131.8 11.4L-133.15 11.45L-134.85 11.3L-136.65 10.9L-137.75 10.55L-137.25 10.45L-136.4 10.25L-135.7 10.05L-134.95 9.8L-135.9 9.8L-136.9 9.6L-138 9.2L-138.85 8.85L-137.85 8.7L-137 7.85L-138.2 7.85L-139.2 7.25L-138.95 7.15L-138.5 6.85L-138.05 6.4L-137.6 5.95L-138.2 6L-138.85 5.95L-139.55 5.7L-139.9 5.45L-139.55 5.25L-138.95 5.1L-138.6 4.7L-138.35 4.7L-138.45 4.25L-139.2 4.2L-139.75 4.05L-140.35 3.6L-140.65 3.25L-140.05 3.35L-139.2 3.25L-139.3 2.8L-139.85 2.6L-140.35 2.15L-140.8 1.4L-141 0.75L-140.55 1.35L-139.45 1.7L-139.85 0.95L-140.1 0L-140.3 -1.1L-139.9 -1.7L-139.85 -1.1L-139.55 -0.1L-139.3 0.6L-139.05 1.1L-139.05 0.85L-139.05 0.5L-138.95 -0.1L-138.45 -0.6L-137.7 2.55Q-137.15 4.1 -136.15 5.45L-134.25 7.35L-132.75 8.35L-132.95 7.75L-133 7.25L-132.9 6.65L-132.3 6.3L-132.55 6.2L-133 6.05L-133.6 5.95L-134.1 6.2L-133.35 5.2L-132.55 4.95L-132.65 4.5L-132.9 4.3L-133.35 4.1L-134.1 3.95L-134.7 4L-134.45 3.25L-134 3.05L-133.5 2.85L-132.65 2.65L-133 2.45L-133.6 2.25L-134.35 2.05L-134.85 1.95L-134.7 1.55L-134.2 1.35L-133.6 1.3L-133 1.35L-132.75 0.75L-133 0.55L-133.35 0.35L-134 0.15L-134.35 0.1L-134.1 -0.35L-133.5 -0.65L-133 -0.95L-132.65 -0.95L-132.65 -1.35L-132.9 -1.4L-133.35 -1.45L-134 -1.4L-134.45 -1.2L-134 -1.9L-133.35 -2.55L-132.75 -2.9L-132.4 -3.05L-132.4 -3.5L-132.75 -3.5L-133.35 -3.5L-134.15 -3.3L-134.95 -2.9L-134.85 -3.75L-134.15 -4.3L-133.25 -4.9L-132.05 -5.45L-132.4 -5.5L-133 -5.55L-133.6 -5.55L-134.1 -5.55L-134.85 -5.45L-135.55 -5.2L-134.9 -5.75L-134.4 -6.1L-133.75 -6.5L-132.65 -7.25L-133 -7.4L-133.75 -7.3L-134.85 -7.15L-135.9 -6.9L-135.35 -7.55L-134.45 -8.2L-133.35 -8.6L-132.3 -8.7L-132.7 -9.05L-133.5 -9.55L-134.25 -9.85L-134.85 -9.95L-135.45 -9.95L-136.05 -9.45" />
<path style="fill:#000000;fill-opacity:1" d="M-120.15,-10.25L-120.55 -9.3L-120.85 -8.1L-120.9 -6.9L-120.65 -5.95L-120.55 -6.65L-120.05 -7.15L-119.7 -7.65L-119.05 -7.85L-118.85 -7.4L-119.25 -6.6L-119.35 -5.8L-119.25 -4.95L-118.95 -4.25L-118.35 -5L-117.25 -5.95L-117.25 -6.05L-116.9 -6.2L-116.75 -6.05L-116.95 -5.45L-117.2 -4.6L-117.45 -3.65L-117.6 -2.9L-117.6 -2.55L-116.9 -2.2L-116.7 -3.15L-116.4 -4L-116 -4.55L-115.8 -4.75L-115.2 -4.5L-115.4 -4.1L-115.55 -3.15L-115.6 -2.2L-115.45 -1.45L-114.7 -1.2L-114.5 -1.9L-114.2 -2.55L-113.55 -3.2L-112.9 -3.75L-113 -3.05L-112.65 -2.2L-112.3 -1.6L-111.8 -0.95L-111.8 -1.7L-111.65 -2.65L-111.4 -3.45L-111.05 -4L-110.9 -3.15L-110.45 -1.95L-110.1 -1.1L-109.85 -0.6L-109.5 -3.4L-109.15 -3.65L-109 -0.95L-108.4 -3.5L-108.15 -3L-107.55 0.25Q-110.2 0.6 -112.85 0.35Q-115.5 0.05 -117.75 -1.4Q-120.05 -2.85 -121.2 -5.25Q-122.5 -7.85 -123.05 -10.9L-122.95 -10.65L-122.6 -10.05L-122.2 -9.2L-121.75 -8.35L-121.75 -9.1L-121.25 -9.8L-120.6 -10.5L-119.9 -11.05Q-119.95 -10.6 -120.15 -10.25" />
<path style="fill:#000000;fill-opacity:1" d="M-123.15,14.15L-122.6 14L-120.9 13.8L-121.95 14.9L-122.95 16.5L-121.5 15.6L-119.45 14.8L-120.5 16.35L-121.25 18.15L-120.05 17L-118.35 15.85L-119.35 17.3L-120.15 19.4L-119.3 19.5L-118.8 17.75L-118.15 16.9L-117 16Q-117.35 17 -117.35 17.95L-116.9 20.25L-116 18.65L-114.7 17.1L-114.65 17.45L-114.35 18.9L-114 20.85L-113.45 20.05L-112.65 19.25L-112.4 19.25L-111.7 21.2L-110 18.65L-110.35 21.95Q-112.15 22.9 -114.1 23.25L-119.75 22.9Q-122.1 22.1 -123.5 20Q-124.8 18.1 -124.9 15.75Q-124.95 14.3 -124.1 13.05L-122.95 11.85L-122.35 11.85L-120.9 11.85L-121.75 12.1L-122.4 12.9L-123.15 14.15" />
<path style="fill:#000000;fill-opacity:1" d="M-125.1,1.5L-125.75 2.8L-125.5 2.3L-124.9 2.25L-123.45 2.2L-125.15 3.3L-126.2 4.85L-125.85 4.35L-125.15 4.3L-123.7 4.25Q-124.6 4.75 -125.3 5.4L-126.4 6.8L-125.75 6.7L-124.3 6.65L-125.15 6.9L-125.6 7.5L-126.1 8.1L-126.2 8.7L-125.85 8.25L-125.15 8.25L-123.2 8.35L-124.65 9.25L-126.1 10.55L-124.7 9.95L-123.05 9.7L-124.4 10.7L-125.5 12.1L-124.25 11.65L-122.7 11.4L-123.25 11.7L-124.65 12.6L-124.9 13.35L-123.9 12.9L-122.45 12.5L-122.7 12.6L-123.05 13.1L-124.05 14.9L-125.9 14L-127.4 12.75L-128.45 10.85L-128.85 8.7L-128.6 6.25L-127.65 3.85L-126.2 2Q-125.6 1.5 -124.85 1.15L-125.1 1.5" />
<path style="fill:#000000;fill-opacity:1" d="M-98.25,1.1L-96.65 2.2L-97.85 0.15L-99.3 -1.8L-98.85 -1.6L-98.05 -1.15L-96.55 -0.1L-97.3 -1.25L-100.3 -4.5L-98.75 -3.8L-96.65 -2.65L-98.4 -4.8L-100.3 -6.8L-97.6 -5.65Q-96.15 -4.8 -95.2 -3.45Q-94.2 -2.1 -93.75 -0.55Q-93.2 1.15 -93.4 2.85Q-93.75 6.3 -95.35 9.3Q-96.35 11.15 -98.35 12.05Q-100.05 12.8 -102 12.75L-104.3 12.5L-101.9 11.85L-99.55 10.9L-101.7 9.75L-103.2 8.35L-101.55 9.1L-99.3 9.8L-100.95 7.95L-102 6.05L-101.55 6.55L-100.85 7.05L-98.85 7.85L-99.85 6.3L-100.9 4.5Q-99.9 5 -99.1 5.6Q-98.35 6.2 -97.75 6.9L-98.15 5.7L-98.75 4.55L-100.15 2.55L-98.4 3.5L-96.65 4.7L-97.95 2.5L-99.55 0.35L-99.1 0.55L-98.25 1.1" />
<path style="fill:#000000;fill-opacity:1" d="M-136.3,14.15L-137.15 16.3L-137.35 17.45L-137.25 18.8L-137.15 17.95L-136.5 17.35L-134.95 16.25L-135.45 17.25L-135.95 19.15L-136.05 20.35L-135.7 20.85L-134.7 18.95L-133.15 17.3L-133.45 17.6L-134.1 18.95L-134.4 20.25L-134.45 21.55L-134.1 22.15L-133.7 21.2L-132.3 19.15L-131.3 18.9L-132.3 20.8L-132.65 22.55L-131.95 21.85Q-131.35 21.4 -130.7 21.1L-129.3 20.55L-128.05 20.25L-129.15 21.3L-130.95 23.25L-128.95 22.65L-126.7 21.55L-127.75 22.85L-129.25 24.35L-127.1 23.85Q-126.1 23.6 -125.15 23.15L-126.55 24.45Q-127.4 25.15 -128.4 25.7L-126.5 25.3L-124.4 24.45L-125.05 25.25Q-126.1 26.25 -127.35 26.65L-130.75 26.85Q-132.75 26.5 -134.55 25.45Q-136 24.55 -137.15 23.25L-138.45 21L-138.7 19L-138.35 17.15Q-137.85 15.65 -136.9 14.4L-136.3 14.15" />
<path style="fill:#000000;fill-opacity:1" d="M-95.9,13.95L-93 14.45Q-91.55 14.95 -90.75 16.1Q-89.6 17.65 -89.65 19.5Q-89.7 21.7 -90.9 23.55Q-92 25.3 -93.85 26.35Q-95.5 27.3 -97.4 27.25Q-98.75 27.25 -100.15 26.65L-98.35 26.8L-96.65 26.75L-98.1 26.1L-98.7 25.8L-98.95 25.7L-98.6 25.45L-97.75 25.7L-97.15 25.8L-96.4 25.95L-97 25.55L-97.5 25.2L-98 24.85L-98.1 24.6L-97.75 24.35L-96.55 24.5L-95.8 24.5L-95.2 24.45L-96.6 23.55L-97.3 23.05L-97.5 22.9L-97.25 22.55L-97.15 22.55L-96.55 22.85L-95.9 23.15L-95.2 23.4L-96.7 22.1L-97.75 20.95L-96 21.4L-94.35 21.55L-95.75 20.2L-96.25 19.65L-96.4 19.4L-94.95 19.75L-94.35 19.75L-93.85 19.65L-94.85 18.9L-95.35 18.6L-95.9 18.4L-95.45 18.1L-94.85 17.8L-94.25 17.55L-93.75 17.7Q-94.3 17.2 -94.95 16.9L-96.65 16.25L-95.1 15.85L-93.6 15.75Q-94.7 15.1 -95.9 14.6L-98 14.05L-95.9 13.95" />
<path style="fill:#000000;fill-opacity:1" d="M-112.35,32.7L-112.3 34.9L-112.4 36L-111.75 34.55L-111.2 32.85L-110.25 34.55L-109.4 36.2L-109.6 36.95L-110.5 37.55Q-112.55 38.5 -114.75 38.75L-118.6 38.45Q-121 37.75 -123.2 36.5Q-125.3 35.4 -127.1 33.8Q-128.15 32.9 -128.55 31.6Q-128.75 30.8 -128.3 29.95L-126.8 28.35L-124.7 27.05Q-123.9 26.65 -123.05 26.4L-124.2 27.95L-124.9 29.8Q-124.3 29.25 -123.6 28.85Q-122.65 28.35 -121.6 28L-122.6 28.45L-123.1 29.35L-123.7 31.4L-122.35 30.2L-120.3 28.95L-121.2 30.5L-121.85 32.6L-120.5 31.3Q-119.65 30.65 -118.7 30.15L-119.65 31.95L-120.05 34.05L-119.7 33.35L-118.6 31.85L-117.6 31.5L-118 33.05L-118 35L-117.05 33.55L-115.55 32L-115.75 33.45L-116.3 35.6L-115.1 34.1L-113.85 32.45L-114.05 33.9L-114.45 35.85L-113.55 34.15L-112.4 31.75L-112.35 32.7" />
<path style="fill:#000000;fill-opacity:1" d="M-93.85,32L-96.4 34L-99.6 35.7L-103.1 36.8L-105.85 37.1L-108.1 36.7L-109.85 35.65L-110.9 34.25L-111.45 32.35L-109.75 33.9L-107.9 35L-109.05 33.1L-109.75 31L-108.5 32.3L-107.05 33.45L-107.75 31.35L-108.05 29.7L-106.6 31.4L-105.15 32.7L-106.25 29.55L-106.1 28.95L-104.65 30.45L-103.2 32.25Q-103.2 31.15 -103.35 30.05L-103.7 28.6L-102.55 29.7Q-101.9 30.5 -101.5 31.4L-101.3 29.45L-101.5 28.1L-100.45 29.4L-99.7 31L-99.6 29.1L-99.8 27.75L-98.5 28.95L-97.75 30.05L-97.5 28.25L-97.5 27L-96.3 27.45L-94.6 28.55Q-93.95 29.1 -93.85 29.85Q-93.65 30.9 -93.85 32" />
<path style="fill:#000000;fill-opacity:1" d="M-97.85,19.25L-98 20.6L-101.65 24.3Q-103.45 25.95 -105.65 26.9Q-107.65 27.8 -109.9 28.1L-112.95 28.05Q-114.15 27.8 -115.25 27.15L-116.9 25.85L-118.1 24.3L-118.7 23.15L-116.15 23.05L-113.8 22.5Q-112.8 22.1 -112 21.45L-110.95 20.45L-109.15 21.5L-107.3 22.15L-107.65 20.1L-107.45 17.8L-107.3 18.15Q-106.45 20.15 -104.9 21.7Q-104.7 20.55 -104.65 19.4L-104.75 17.95L-105 16.85L-103.85 18.25L-102.6 20.35L-102.2 18.05L-102.25 15.85L-101.6 16.65Q-101.1 17.4 -100.9 18.2L-100.4 20.1L-100.05 18.05Q-99.95 16.85 -100.15 15.65L-99.35 16.55L-98.45 17.85L-97.85 19.25" />
<path style="fill:#000000;fill-opacity:1" d="M-114.45,10.8L-113.5 9.4L-112.75 7.85Q-112.5 9.15 -112.75 10.4L-112.9 11.15L-112 9.3L-111.45 7.75Q-111.2 8.6 -111.1 9.45Q-111 10.15 -111.05 10.8L-110.7 10.4L-110.1 9.95L-109.75 9.1L-109.5 8.35Q-109.35 9.1 -109.35 9.8L-109.5 10.9L-108.1 9.05L-107.3 7.25L-107.15 8.5L-107.3 9.8L-106.1 8.35Q-105.6 7.55 -105.4 6.55L-105.2 7.75L-105.25 8.35L-105.4 8.95L-104.45 7.8L-104.1 7.45L-103.9 7.25L-104.6 9Q-105.2 10.05 -106.1 10.9L-108.2 12.4Q-109.3 13 -110.5 13.25L-112.9 13.35L-114.85 12.8L-116.5 11.5L-117.6 10.05L-116.3 8.6L-115.7 8L-115.75 9.45L-115.8 10.55L-115 9.15L-114.45 8L-114.4 9.35L-114.45 10.8" />
<path style="fill:#3EFF00;fill-opacity:1" d="M-98.7,19.5L-99.55 21.25L-100.55 22.8L-99.55 20.7L-98.7 19.5" />
<path style="fill:#3EFF00;fill-opacity:1" d="M-101.85,21.7L-102.35 23.2L-102.95 24.45L-102.35 22.55L-102.1 21.8L-101.85 21.7" />
<path style="fill:#3EFF00;fill-opacity:1" d="M-104.4,23.15L-105.1 24.65L-105.85 25.95L-105.1 24.05L-104.65 23.25L-104.4 23.15" />
<path style="fill:#3EFF00;fill-opacity:1" d="M-108.05,25.2L-108.4 26.25L-108.9 27L-108.5 25.55L-108.3 25.2L-108.05 25.2" />
<path style="fill:#3EFF00;fill-opacity:1" d="M-110.7,25.3L-111.15 26.85L-111.45 27.4L-111.2 25.85L-110.95 25.3L-110.7 25.3" />
<path style="fill:#3EFF00;fill-opacity:1" d="M-114,23.4L-113.5 24L-113.8 25.9L-114.2 26.65L-114.25 24.6L-114.2 23.6L-114 23.4" />
<path style="fill:#3EFF00;fill-opacity:1" d="M-92.4,13.8L-91.8 13.55Q-90.9 13.8 -90.05 14.2Q-89.7 14.35 -89.4 14.65L-91.05 14.45L-92.4 13.8" />
<path style="fill:#3EFF00;fill-opacity:1" d="M-91.55,16L-91.1 15.85Q-90.15 16.3 -89.3 16.8L-88.75 17.3L-90.2 16.75L-91.55 16" />
<path style="fill:#3EFF00;fill-opacity:1" d="M-91.2,18.3L-90.6 18.15L-89.3 19.05L-88.75 19.65L-89.9 19.25L-91.2 18.3" />
<path style="fill:#3EFF00;fill-opacity:1" d="M-91.55,20.35L-90.85 20.1L-89 20.6L-88.55 21.2L-90.2 21L-91.55 20.35" />
<path style="fill:#3EFF00;fill-opacity:1" d="M-92.4,23.6L-91.9 23.25L-90.25 23.25L-89.75 23.75L-91.3 24L-92.05 24L-92.4 23.6" />
<path style="fill:#3EFF00;fill-opacity:1" d="M-93.1,26.35L-94.45 25.7L-92.8 26.15L-91.45 26.65L-93.1 26.35" />
<path style="fill:#3EFF00;fill-opacity:1" d="M-91.9,21.45L-91.45 21.3L-90.6 21.55L-90 22.05L-89.6 22.65L-90.85 22.15L-91.9 21.45" />
<path style="fill:#3EFF00;fill-opacity:1" d="M-95.2,30.05L-94.2 31.05L-93.4 32.45L-94.65 31.2L-95.2 30.55L-95.2 30.05" />
<path style="fill:#3EFF00;fill-opacity:1" d="M-95.7,33.45L-96.7 32.4L-97.15 31.85L-97 31.4L-96.25 32.2L-95.7 33.45" />
<path style="fill:#3EFF00;fill-opacity:1" d="M-97.85,34.55L-99.1 33.45L-99.8 32.45L-98.5 33.25L-98 33.7L-97.85 34.55" />
<path style="fill:#3EFF00;fill-opacity:1" d="M-99.2,36.45L-100.5 35.45L-101 34.9L-101 34.55L-99.85 35.2L-99.3 35.6L-99.2 36.45" />
<path style="fill:#3EFF00;fill-opacity:1" d="M-102.25,36.45L-103.8 35.45L-104.55 34.9L-104.65 34.4Q-103.9 34.8 -103.3 35.3L-102.25 36.45" />
<path style="fill:#3EFF00;fill-opacity:1" d="M-107.05,35.6L-105.5 36.35L-104.75 36.7L-104.4 37.55L-106.1 36.55L-106.95 36L-107.05 35.6" />
<path style="fill:#3EFF00;fill-opacity:1" d="M-95.55,-2.9L-95.1 -3.05L-94.4 -2.15L-94 -1.6L-94.8 -2L-95.55 -2.9" />
<path style="fill:#3EFF00;fill-opacity:1" d="M-95.2,-0.35L-94.7 -0.5L-93.85 0.4L-93.4 1.1L-94.3 0.45L-95.2 -0.35" />
<path style="fill:#3EFF00;fill-opacity:1" d="M-95.2,2.05L-94.7 1.95L-93.8 2.7L-93.4 3.25L-93.85 3.4L-94.7 2.55L-95.2 2.05" />
<path style="fill:#3EFF00;fill-opacity:1" d="M-95.3,4L-94.85 3.75L-93.55 4.45L-93 4.95L-93.75 5.1L-95.1 4.5L-95.3 4" />
<path style="fill:#3EFF00;fill-opacity:1" d="M-97.15,8.1L-96.65 7.75L-94.95 7.75L-94.45 8.25L-96.05 8.35L-97.15 8.1" />
<path style="fill:#3EFF00;fill-opacity:1" d="M-98.95,9.45L-97.45 9.8L-96.05 10.3L-97.75 10.2L-98.6 9.95L-98.95 9.45" />
<path style="fill:#3EFF00;fill-opacity:1" d="M-94.45,5.8L-94.1 6.4L-95.2 6.05L-96.15 5.45L-95.7 5.2L-94.45 5.8" />
<path style="fill:#3EFF00;fill-opacity:1" d="M-113.5,36.45L-114.15 37.95L-115.05 39.15L-115.2 38.3L-114.05 36.8L-113.5 36.45" />
<path style="fill:#3EFF00;fill-opacity:1" d="M-115.8,36.7L-116.65 38.05L-117.75 39.15L-116.9 37.9L-115.8 36.7" />
<path style="fill:#3EFF00;fill-opacity:1" d="M-118.2,36.7L-118.95 37.7L-120.05 38.65L-120.15 38.05L-119 37.15L-118.2 36.7" />
<path style="fill:#3EFF00;fill-opacity:1" d="M-120.9,35.75Q-121.15 36.5 -121.55 37.1L-122.45 38.4L-122.6 37.55L-121.4 36.1L-120.9 35.75" />
<path style="fill:#3EFF00;fill-opacity:1" d="M-123.2,34.3L-123.4 35.7L-123.9 36.85L-123.95 35.25L-123.8 34.55L-123.2 34.3" />
<path style="fill:#3EFF00;fill-opacity:1" d="M-124.75,31.85L-125.85 33.9L-126.2 34.55L-126.35 33.8L-125.3 32.35L-124.75 31.85" />
<path style="fill:#3EFF00;fill-opacity:1" d="M-141.6,26.9L-142.75 27.45L-144.15 27.75L-143.9 27.15L-142.6 26.95L-141.6 26.9" />
<path style="fill:#3EFF00;fill-opacity:1" d="M-143.3,24.7L-144.6 25.65L-146.1 26.3L-145.85 25.55L-144.1 24.75L-143.3 24.7" />
<path style="fill:#3EFF00;fill-opacity:1" d="M-144.5,22.3L-145.45 23.4L-146.45 24.1L-146.35 23.4L-145.25 22.3L-144.5 22.3" />
<path style="fill:#3EFF00;fill-opacity:1" d="M-144.75,19.4L-146.2 20.25L-147.45 20.95L-147.2 20.25L-145.55 19.55L-144.75 19.4" />
<path style="fill:#000000;fill-opacity:1" d="M-136.3,45.3L-135.55 47.95L-139.3 49.2L-135.55 50.65L-137.75 52.45L-139.9 50.3L-139.2 53.9L-141.85 54.25L-142.1 50.3L-145.85 51.75L-146.2 48.95L-142.45 48.1L-146.1 45.2L-143.9 43.35L-141.85 46.65L-142.1 42.5L-140.3 42.65L-139.7 46.65L-136.3 45.3" />
<path style="fill:#000000;fill-opacity:1" d="M-160.75,48.2L-159.8 47.35L-159.55 47.35L-163.8 46.3L-162.2 43.25L-157.5 46.65L-158.95 39.75L-154.1 41.2L-155.2 46.65L-150.95 44.45L-150.6 47.6L-153.75 48.1L-149.75 51.95L-151 52.95L-152.35 53.75L-153.5 54.15L-153.65 53.45L-154.1 51.95L-155.2 49.55L-155.55 54.5L-158.1 53.9L-157.5 49.45L-160.65 53.45L-163.2 51.6L-162.95 50.95L-162.05 49.6L-160.75 48.2" />
<path style="fill:#000000;fill-opacity:1" d="M-167.6,59.15L-168.5 58.5L-168.5 57.65L-167.05 55.85L-166.1 55.6L-165.2 56.25L-163.8 57.55L-162.6 58.9L-162.1 59.6L-162.2 59.35L-162.4 57.8L-162.55 55.85L-162.6 54.4L-162.2 54.15L-162 53.9L-161.5 53.9L-160.05 54.05L-158.65 54.4L-157.85 54.9L-158.1 55.1L-158.9 56.4L-159.9 57.9L-160.65 59.1L-160.65 59.35L-154.45 59.25L-154.85 62.9L-159.55 61.8L-155.55 65.55L-159.8 67.25L-161 62.25L-162.6 68.45L-164.3 66.15L-162.85 62.65L-166.85 64.45L-167.9 61.4L-163.2 61.4L-164.05 60.95L-165.75 60.2L-167.6 59.15" />
<path style="fill:#F91715;fill-opacity:1" d="M-141,47.25L-141.35 43.6L-140.65 43.75L-140.65 47.5L-141 47.25" />
<path style="fill:#F91715;fill-opacity:1" d="M-145,45.05L-144.05 44.35L-142.1 47.35L-145 45.05" />
<path style="fill:#F91715;fill-opacity:1" d="M-141.5,49.3L-145.15 50.75L-145.25 49.55L-141.75 48.7L-141.5 49.3" />
<path style="fill:#F91715;fill-opacity:1" d="M-139.9,53.45L-141.15 53.45L-141.35 50.05L-140.4 49.8L-139.9 53.45" />
<path style="fill:#F91715;fill-opacity:1" d="M-139.8,49.45L-136.65 50.75L-137.75 51.6L-139.8 49.45" />
<path style="fill:#F91715;fill-opacity:1" d="M-139.55,47.6L-136.65 46.15L-136.3 47.6L-139.55 48.7L-139.55 47.6" />
<path style="fill:#F91715;fill-opacity:1" d="M-156.75,46.15L-157.5 41.2L-155.05 42.05L-156.05 46.5L-156.75 46.15" />
<path style="fill:#F91715;fill-opacity:1" d="M-158.85,47L-162.35 45.65L-161.75 44.35L-158.45 46.9L-158.85 47" />
<path style="fill:#F91715;fill-opacity:1" d="M-157.85,48.7L-160.9 52.6L-162.1 51.25L-158.7 47.95L-157.85 48.7" />
<path style="fill:#F91715;fill-opacity:1" d="M-156.05,48.95L-156.15 53.9L-157.35 53.45L-156.75 49.05L-156.05 48.95" />
<path style="fill:#F91715;fill-opacity:1" d="M-154.2,48.7L-150.6 51.95L-152.75 53.45L-154.95 48.95L-154.2 48.7" />
<path style="fill:#F91715;fill-opacity:1" d="M-154.95,47.25L-151.45 45.45L-151.3 47.25L-155.05 47.95L-154.95 47.25" />
<path style="fill:#F91715;fill-opacity:1" d="M-161.5,59.35L-161.35 54.9L-159.3 55.25L-161.5 59.35" />
<path style="fill:#F91715;fill-opacity:1" d="M-162.85,60.55L-167.45 58.05L-166 56.6L-162.35 60.2L-162.85 60.55" />
<path style="fill:#F91715;fill-opacity:1" d="M-166.6,63.6L-167.05 62.05L-163.05 61.9L-166.6 63.6" />
<path style="fill:#F91715;fill-opacity:1" d="M-163.3,66.15L-161.6 62.15L-162.6 67L-163.3 66.15" />
<path style="fill:#F91715;fill-opacity:1" d="M-158.95,66.25L-160.15 61.9L-156.65 65.4L-158.95 66.25" />
<path style="fill:#F91715;fill-opacity:1" d="M-160.3,60.1L-155.3 59.95L-155.45 62.05L-160.15 61.2L-160.3 60.1" />
<path style="fill:#000000;fill-opacity:1" d="M103.1,10.2Q103.75 12.5 104.85 14.55Q105.8 16.45 107.35 17.9L109.9 20.35L111.7 22.3L111.95 19.9Q112.2 18.7 112.7 17.65Q113.35 16.4 114.3 15.45Q115.45 14.35 116.8 13.45L116.85 15.25L116.95 16.25L117.25 17.2L117.55 18.05L118.4 19.6L118.95 20.25L120.55 18.15L122.95 15.85Q124.25 14.8 125.8 14.1Q127.4 13.4 129.15 12.95L128.4 13.7L128.25 16Q128.3 17.1 128.8 18Q129.2 18.8 129.95 19L131.7 18.95Q133.2 18.35 134.5 17.4Q135.9 16.4 136.8 15Q137.6 13.8 137.65 12.35Q137.7 11.65 137.4 10.9L138.9 11.3Q139.4 11.45 139.8 11.75L140.8 12.6L141.45 13.4L142.6 15.2L142.95 16.1L144.75 13.25L146.5 9.4Q147.2 7.5 147.4 5.5L147.3 2.8L149.35 7.4L150.5 10.85L151.1 13.55L151.2 14.65L154 12.15Q155.8 10.9 157.9 10.25Q160 9.6 162.1 9.4L165 9.45L163 10.65L160.4 12.6Q159.2 13.65 158.15 14.85L157.4 15.85L157.4 17.2L158.6 16.65L159.45 16.4L160.4 16.3L161.25 16.2L162.25 16.3L163.55 16.6L160.75 18.45L157.95 20.95L155.65 23.8L154.95 25.1L155.1 26.4Q156.3 25.75 157.6 25.4L161 24.85L164.25 25.05L166.1 25.55L163.6 26.25Q163 26.45 162.5 26.8L161.5 27.5L160.7 28.3L159.55 29.55L159.55 30.3L163.8 30.75L169.15 30.9L173.7 30.45L176.55 29.7Q175.2 31.6 173.5 33.05Q171.4 34.85 168.85 36.1Q166.25 37.45 163.75 38.95Q162.05 40 160.9 41.55Q159.9 42.95 159.35 44.65Q158.8 46.55 158.5 48.45Q158.25 50.35 158.45 52.15Q158.6 53.75 159.1 55.25Q159.05 53.8 159.25 52.35L159.65 50.5Q159.85 49.75 160.3 49.05Q160.8 48.35 161.45 47.8L163.3 46.4L165.45 45.15Q166.45 44.65 167.5 44.3L169.5 43.85L171.7 43.45L173.75 42.95L175.3 42.35L175.95 42.05L174.7 44.25L172.45 46.8L169.95 48.75L168.15 49.9L169.65 50.25L170.45 50.4L171.55 50.45L172.55 50.35L174.35 50L175.1 49.8L174.6 50.4L173.95 51.1L173.25 51.75L172.6 52.15L171.95 52.5L171.3 52.8L170.85 52.95L170.85 53.05L173.85 52.8L177.75 52.95L181.1 53.65Q182.15 54 183.1 54.5L180.35 54.85Q178.95 55.15 177.65 55.7Q176.6 56.2 175.6 56.9L174.95 57.55L174.4 58.8L172.9 60.6L170.65 62.1Q169.45 62.75 168.1 63.05L166.05 63.6Q164.65 64.05 163.3 64.75L160.25 66.25Q158.8 66.9 157.2 67.2L155.95 67.25L158.4 68.05L162.25 68.7L166.25 68.85L168.65 68.7L164.3 69.7L155.7 71.6L147.4 73.05L143.2 73.4L142.75 72.7L142.4 71.95L142.25 71.25L142.3 70.65L142.6 69.4L143.55 68.7L141.15 68.55L137.75 68.8L133.5 69.35L129 69.75L123.95 69.8L119.35 69.45L115.55 68.85L113.5 68.35L114 68.7L114.7 69.2L115.35 69.55L116.05 70L117.25 70.6L118.35 71L114.5 71L109.4 70.85L104.6 71L101.65 71.65L100.35 72.05L99.2 72L98 71.6L99.2 69.55L99.6 69L100.05 68.55L100.7 68.2L101.6 67.85L102.6 67.25L102.7 66.85L102.6 66.65L102.1 66.1L101.85 65.9L102.2 65.2L102.3 64.7L102.25 64.35L101.25 64.1L99.4 64.4Q97.95 64.9 96.55 65.55Q95.05 66.35 93.4 66.8L89.65 67.25L87.45 67L89.95 64.7L92.05 61.65L93.75 58.7L94.6 57.65L96.05 57.4L93.45 57.55Q92 57.8 90.6 58.45L87.5 59.85L84.9 60.5L82.4 60.25L80.55 59.6L79.1 58.95L78.6 58.85L78 59L78.35 58.75L78.6 58.85L80.4 58.2L83.3 56.95L85.85 55.55L87.8 54.15Q86.55 53.3 85.15 52.6Q83.25 51.6 81.2 50.9Q79.1 50.2 76.85 50.05L73.4 50.15L74.4 48.05L76.1 45.6L78 43.75Q78.7 43.25 79.5 42.95L80.65 42.65L82 42.15L83.8 40.95L81.75 40.6L81.1 40.3L80.6 39.8L80.15 38.95L79.8 37.2L79.8 36.2Q81.5 35.8 82.95 34.95Q84.25 34.25 85.25 33.05Q86.2 32 87.35 31.4Q88.8 30.65 90.4 30.15Q91.4 29.85 92.2 29.2L93.4 28.1L91.55 27.4L90.5 27.1L89.4 27L88.3 27.1L86.5 27.4L86.1 27.85Q87.15 26.4 88.45 25.2Q89.9 23.9 91.65 23Q93.5 22.15 95.5 21.8L98.95 21.55L98.65 20.85L98.55 20.25L98.5 19.5L98.5 18.9L98.5 18.15L98.5 17.7L98.5 17.3L98.6 17.3L98.9 17.65L99.45 18.15L100.05 18.55L100.8 19.15L101.4 19.5L102 19.85L102.6 20.25L101.95 17.4Q101.75 16.15 101.85 14.8L102.3 12.3L103.1 10.2" />
<path style="fill:#3EFF00;fill-opacity:1" d="M154.05,18.05Q153.5 19.4 153.3 20.85L152.75 23.05L152.05 24.1L151.3 23.75L150.95 23.15L151.5 20.9Q152.05 19.4 153 18.1L155.45 15.4Q154.6 16.7 154.05 18.05" />
<path style="fill:#3EFF00;fill-opacity:1" d="M158.65,35.7L157.3 38.2L155.7 42.3L154.9 42.8L154.35 43L153.65 42.3L153.8 41.5Q154.25 40.35 154.95 39.35L157.15 36.85L159.25 35.15L158.65 35.7" />
<path style="fill:#3EFF00;fill-opacity:1" d="M94.05,48.9L92.4 47.85L92.85 47.2L93.5 46.4L94.55 46.8L97 48.55Q98.3 49.75 99.25 51.25L100.8 54.05L99.65 52.55Q98.45 51.35 96.95 50.5L94.05 48.9" />
<path style="fill:#3EFF00;fill-opacity:1" d="M109.15,29.7L106.9 28.15L104.85 26.8L103.15 25.5L102.6 24.85L102.6 24.25L102.85 23.75L104.45 24.3Q105.65 24.9 106.55 25.85L108.45 28.3L109.15 29.7" />
<path style="fill:#3EFF00;fill-opacity:1" d="M100.65,26.9L99.95 27.4L98.3 26.6L95.6 25.4L92.45 25.05L91.05 25.45Q92.15 24.9 93.3 24.6Q95.2 24.05 97.15 24.05L100.3 24.35L100.9 25.3L100.65 26.9" />
<path style="fill:#3EFF00;fill-opacity:1" d="M154.7,30.4L153.4 32L152.3 32.95L151.3 32.6L151.2 32L153.05 30.05Q154.25 28.95 155.7 28.3Q156.9 27.75 158.25 27.5Q157.15 28.05 156.2 28.8L154.7 30.4" />
<path style="fill:#3EFF00;fill-opacity:1" d="M151.15,17.8Q150.6 18.9 150.35 20.1L150.05 22.3L149.85 23.6L149.4 23.85L148.65 23.6L148.35 23.1L148.05 22.3L148.35 21.35Q148.9 20.1 149.7 19.05L152.05 16.6L151.15 17.8" />
<path style="fill:#3EFF00;fill-opacity:1" d="M110,26.75L108.35 25.55L106.75 24.55L105.45 23.55L105.05 23.15L105.25 22.3L106.4 22.6Q107.35 23 108.05 23.75L109.55 25.75L110 26.75" />
<path style="fill:#3EFF00;fill-opacity:1" d="M154.1,27.5Q153.25 27.95 152.5 28.5L151.25 29.8L150.2 31.1L149.4 31.85L148.55 31.6Q148.75 30.95 149.1 30.45Q149.8 29.4 150.85 28.65Q151.85 27.95 153.05 27.6L154.1 27.5" />
<path style="fill:#3EFF00;fill-opacity:1" d="M125.8,20Q125.75 21.45 126.05 22.9L126.25 25.2L126 26.55L125 25.6Q124.5 24.65 124.5 23.5Q124.5 21.95 124.95 20.45Q125.45 18.8 126.25 17.2L125.8 20" />
<path style="fill:#3EFF00;fill-opacity:1" d="M123.15,22.05Q123.1 23.25 123.4 24.45L123.6 26.15L123.35 27.25L122.5 27.15L122.1 26.7Q121.75 25.95 121.75 25.1Q121.75 23.75 122.2 22.5Q122.8 20.9 123.55 19.4Q123.2 20.75 123.15 22.05" />
<path style="fill:#3EFF00;fill-opacity:1" d="M139.2,14.65L138.7 18.1L137.65 21.1L136.4 23L135.7 23.1L135.1 23L134.7 22.3L135.65 20.8L137.3 18.55L138.8 16L139.2 14.65" />
<path style="fill:#3EFF00;fill-opacity:1" d="M141.4,16.7L141.1 20Q140.9 21.35 140.3 22.5L139.2 23.75L138.6 24L138.1 23.75L137.65 23L138.4 22L139.8 20.25L141 18.1L141.4 16.7" />
<path style="fill:#3EFF00;fill-opacity:1" d="M100.25,47.75L98.15 46.2L96.1 45.1L94.95 44.35L95.25 43.9L95.7 43.35L96.55 43.35L98.4 44.85L100.05 46.85L101.15 48.95L100.25 47.75" />
<path style="fill:#3EFF00;fill-opacity:1" d="M154.5,36L153.55 37.95L152.55 40.15L151.7 41.8L151.2 41.9L150.7 41.3L150.8 40.75L151.8 38.8L153.5 36.8L154.5 36" />
<path style="fill:#3EFF00;fill-opacity:1" d="M168.45,55.2L170 55.1L170.45 55.75L170.25 56.35L167.75 57Q166.1 57.25 164.45 57.05L162.1 56.45L164.3 56.3L166.55 55.75L168.45 55.2" />
<path style="fill:#3EFF00;fill-opacity:1" d="M165.65,58.75L167.3 58.6L169.15 58.1L170.6 57.6L171.2 57.4L171.9 57.7L172.4 58.05L172.15 58.5L170.2 59.15L167.5 59.25L165.65 58.75" />
<path style="fill:#3EFF00;fill-opacity:1" d="M168.9,46.5Q167.8 47.05 166.85 47.8L165.25 49.45L164 50.95L162.85 51.95L161.85 51.6L161.75 51Q162.6 49.9 163.6 48.95L166.15 47L167.55 46.3L168.9 46.5" />
<path style="fill:#3EFF00;fill-opacity:1" d="M96.5,60.4L97.45 57.8L98.1 56.2L98.95 56.2L99.45 56.6L99.7 57.3L98.75 59.35L96.8 61.75L94 64.1L95.05 62.9L96.5 60.4" />
<path style="fill:#3EFF00;fill-opacity:1" d="M99.6,60.15L100.4 58.1L100.9 56.95L101.65 57.05L102.05 57.25L102.5 57.8L101.8 59.5L100.15 61.5L97.5 63.5L98.45 62.3L99.6 60.15" />
<path style="fill:#3EFF00;fill-opacity:1" d="M140.15,26.3L140.65 26.65L140.9 27.4L139.9 29.55Q139.15 30.9 138 31.95L135.2 34.3L136.2 33.1L137.6 30.6L138.6 28.05L139.3 26.3L140.15 26.3" />
<path style="fill:#3EFF00;fill-opacity:1" d="M140.75,30.35L141.55 28.3L142.1 27.15L142.85 27.2L143.3 27.25L143.4 27.85Q143.4 28.8 142.95 29.55Q142.3 30.75 141.3 31.6L138.6 33.7L139.6 32.5L140.75 30.35" />
<path style="fill:#3EFF00;fill-opacity:1" d="M117.95,22.95L118.9 25.45L119.45 27.45L119.45 28.95L118.85 28.95L117.75 27.45Q117.1 26.3 116.85 24.9Q116.65 23.5 116.8 22.05L117.15 20.7L117.95 22.95" />
<path style="fill:#3EFF00;fill-opacity:1" d="M116.4,28.85Q115.95 28.75 115.65 28.4Q115.05 27.8 114.75 26.95Q114.45 25.85 114.45 24.7Q114.5 23.7 114.7 22.65L115.25 24.3L116 26.15L116.4 27.6L116.4 28.85" />
<path style="fill:#3EFF00;fill-opacity:1" d="M108.05,39.5L107.6 42.4Q107.35 44 106.75 45.5L105.65 47.65L105.05 48.2L104.3 48.2L103.8 47.5L104.8 45.55L106.4 42.95L107.75 40.4L108.05 39.5" />
<path style="fill:#3EFF00;fill-opacity:1" d="M110,43L109.7 45.3L108.95 47.9L107.95 49.7L107.45 50.15L106.95 50.15L106.5 49.55Q106.8 48.7 107.25 47.95L108.55 45.85L109.75 43.7L110 43" />
<path style="fill:#3EFF00;fill-opacity:1" d="M132.05,22.55L130.75 25.15L128.9 27.75L127 29.45L126.25 29.8L125.65 29.45L125.4 28.6L126.8 27.15L129.2 25.25L131.35 23.4L132.05 22.55" />
<path style="fill:#3EFF00;fill-opacity:1" d="M148.35,27.45L148.9 26.75L147.75 28.9L146.2 31.1L144.65 32.6L143.95 32.65L143.45 32.6L143.2 31.85L144.45 30.65L146.45 29.05L148.35 27.45" />
<path style="fill:#3EFF00;fill-opacity:1" d="M104.8,31.85L104.45 34.75L103.75 37.85L102.6 40.1L102 40.7L101.25 40.7L100.65 40L101.6 38.1L103.25 35.45L104.55 32.8L104.8 31.85" />
<path style="fill:#3EFF00;fill-opacity:1" d="M146.95,38.15Q146.9 39.6 147.15 41.05L147.35 43.35L147.1 44.7L146.25 44.6L145.9 44.05Q145.6 42.95 145.6 41.8Q145.6 40.2 146.05 38.65Q146.55 37 147.3 35.4Q146.95 36.8 146.95 38.15" />
<path style="fill:#3EFF00;fill-opacity:1" d="M143.35,40.7L144.65 37.7Q144.3 39.05 144.25 40.35Q144.25 41.5 144.55 42.65L144.8 44.35L144.55 45.45L143.7 45.45L143.25 45L142.7 44.2L142.75 43.25Q142.9 41.95 143.35 40.7" />
<path style="fill:#3EFF00;fill-opacity:1" d="M140.85,50.5L141.65 52.45L141.25 54.05L140.65 54.05L139.65 52.7Q139 51.5 138.75 50.1Q138.5 48.65 138.65 47.15L138.95 45.8L139.8 48.05L140.85 50.5" />
<path style="fill:#3EFF00;fill-opacity:1" d="M138.25,53.9L137.75 53.85L137.25 53.65L136.55 52.05Q136.25 51 136.25 49.9L136.55 47.75Q137.05 49.6 137.9 51.3L138.3 52.7L138.25 53.9" />
<path style="fill:#3EFF00;fill-opacity:1" d="M154,47.6L152.55 50.25L150.7 52.85L148.8 54.55L148.05 54.9L147.45 54.65L147.2 53.8L148.65 52.3L151.1 50.35L153.3 48.5L154 47.6" />
<path style="fill:#3EFF00;fill-opacity:1" d="M92.3,33.45L92.2 34.05L90.3 35L87.4 36.2L85.15 37.15L86.1 36.1L88.65 34.05Q89.7 33.4 90.9 33L91.7 32.85L92.3 33.45" />
<path style="fill:#3EFF00;fill-opacity:1" d="M96.3,29.1L97.65 31.05L98.8 33.35L99.35 35.4L99.35 36L98.85 36.45L98.1 36.2L97.6 34.55L97.1 32L96.55 29.7L96.3 29.1" />
<path style="fill:#3EFF00;fill-opacity:1" d="M129.45,32.85Q128.6 34 128.05 35.3L126.8 38.1L125.75 40L125.15 40.1L124.55 39.35Q124.55 38.95 124.7 38.6Q125.15 37.45 125.85 36.4Q126.8 35.1 127.95 33.95L129.9 32.4L129.45 32.85" />
<path style="fill:#3EFF00;fill-opacity:1" d="M122.6,35.9L124.3 33.9L125.3 33.1L124.95 33.8L123.95 36.35L123.1 38.4L122.45 38.85L122 39L121.5 38.4L121.6 37.85L122.6 35.9" />
<path style="fill:#3EFF00;fill-opacity:1" d="M117.8,35.25Q117.75 36.7 118.05 38.15L118.25 40.45L118 41.8L117.15 41.65L116.65 41.2Q116.5 40.05 116.5 38.9Q116.5 37.25 116.95 35.7Q117.45 34.05 118.25 32.45Q117.9 33.85 117.8 35.25" />
<path style="fill:#3EFF00;fill-opacity:1" d="M115.15,37.45Q115.1 38.6 115.35 39.75L115.6 41.45L115.35 42.5L114.5 42.5L114 42.15L113.75 40.35Q113.75 39.05 114.2 37.8L115.55 34.75Q115.2 36.1 115.15 37.45" />
<path style="fill:#3EFF00;fill-opacity:1" d="M154.7,52.6L154.3 55.5L153.45 58.6Q153.05 59.75 152.3 60.7L151.7 61.3L150.95 61.3L150.35 60.55L151.3 58.7L152.9 56.15L154.4 53.5L154.7 52.6" />
<path style="fill:#3EFF00;fill-opacity:1" d="M156.65,56.1L156.35 58.4L155.6 61L154.6 62.8L154.1 63.25L153.65 63.25L153.15 62.65L153.9 61.15L155.25 58.95L156.45 56.9L156.65 56.1" />
<path style="fill:#3EFF00;fill-opacity:1" d="M145.85,59.5L144.55 62.25L143.3 64.6L142.25 65.55L141.65 64.8L141.8 64L142.95 61.85Q143.9 60.55 145.05 59.4L147.3 57.55Q146.5 58.45 145.85 59.5" />
<path style="fill:#3EFF00;fill-opacity:1" d="M141.55,60.5L140.55 62.85L139.7 64.45L139.2 64.45L138.7 63.85L138.8 63.3L139.8 61.4L141.5 59.45L142.4 58.65L141.55 60.5" />
<path style="fill:#3EFF00;fill-opacity:1" d="M113.8,57.9Q113.75 59.35 114.05 60.8L114.25 63L114 64.35L113.15 64.2L112.8 63.65Q112.45 62.55 112.45 61.4Q112.45 59.8 112.9 58.25Q113.45 56.6 114.25 55Q113.9 56.45 113.8 57.9" />
<path style="fill:#3EFF00;fill-opacity:1" d="M111.15,59.95Q111.1 61.1 111.35 62.25L111.6 63.95L111.35 65.05L110.5 65.05L110 64.7L109.75 62.9Q109.75 61.55 110.2 60.3Q110.8 58.75 111.55 57.3Q111.2 58.65 111.15 59.95" />
<path style="fill:#3EFF00;fill-opacity:1" d="M117.5,52.8Q118.65 53.65 119.65 54.65L121.75 57.1L123.1 59.25L122.9 60.1L122.6 60.8L121.75 60.7L120.7 58.85L119.45 56L118.15 53.5L117.5 52.8" />
<path style="fill:#3EFF00;fill-opacity:1" d="M122,53.7L121.5 53.2L123.3 54.7L125 56.7Q125.6 57.55 125.75 58.55L125.65 59.75L124.9 59.75L124.1 58.1L123.1 55.8L122 53.7" />
<path style="fill:#3EFF00;fill-opacity:1" d="M129.5,53.2L130.75 56.4L131.2 59.6L130.95 61.9L130.35 62.4L129.75 62.5L129.15 61.9L129.35 60.1L129.75 57.55L129.8 54.65L129.5 53.2" />
<path style="fill:#3EFF00;fill-opacity:1" d="M132.15,55.5L133.45 58.5Q133.9 59.75 133.9 61.05L133.65 62.9L133 63.15L132.4 63.25L131.8 62.75L132.05 61.3L132.4 59.25L132.45 56.8L132.15 55.5" />
<path style="fill:#3EFF00;fill-opacity:1" d="M124.2,44.95L122.85 44.85L123.8 44.7L124.2 44.95L125.75 45.1L128.85 45.8Q130.05 46.2 131.1 46.9L131.7 47.5L131.7 48.35L130.95 48.7L128.95 47.75L126.3 46.2L124.2 44.95" />
<path style="fill:#3EFF00;fill-opacity:1" d="M128.6,42.9L131.3 43.6L133.05 44.5L133.5 44.95L133.5 45.65L132.9 45.9L131.25 45.15L129.1 43.9L127.05 42.9L126.3 42.75L128.6 42.9" />
<path style="fill:#3EFF00;fill-opacity:1" d="M169.8,33.15Q168.45 33.55 167.15 34.2L164.35 35.65L162.45 36.45L162 36.1L161.75 35.15L162.4 34.65L164.85 33.7L167.95 33.1L170.55 33.05L169.8 33.15" />
<path style="fill:#3EFF00;fill-opacity:1" d="M87.95,47.75L90.3 49.4Q89.7 49 89.05 48.75L85.75 48.05L82.35 47.8L80.4 47.6L80.5 46.9L80.8 45.9L81.9 45.75Q83.4 45.8 84.85 46.3Q86.5 46.85 87.95 47.75" />
<path style="fill:#3EFF00;fill-opacity:1" d="M97,42L94.5 41.55L91.2 41.45L90.6 41.05L90.65 40.6L90.85 39.85L91.7 39.7L93.85 40.05Q95.1 40.45 96.2 41.15L98.25 42.65L97 42" />
<path style="fill:#000000;fill-opacity:1" d="M-149.8,-72.85Q-149.1 -70.75 -149.1 -68.55Q-149.1 -66.75 -149.5 -64.95L-147.7 -65.55L-147.65 -67.5L-147.6 -69.65L-147.55 -71.85L-147.55 -72.45L-147.1 -71.1Q-146.85 -70.25 -146.75 -69.4L-146.65 -68.1L-146.6 -67.35L-145.1 -69.15L-143.45 -70.65L-142.05 -71.55L-141.35 -71.85L-142.95 -70.4L-144.65 -68.45L-146.05 -66.45L-146.85 -65.2L-146.45 -64.1L-144.25 -66.5L-141.15 -68.8Q-139.4 -69.8 -137.5 -70.35L-133.75 -71.1Q-134.45 -68.6 -135.65 -66.4Q-136.95 -64 -139 -62.25Q-140.85 -60.55 -143.2 -59.7Q-145 -59 -146.95 -58.75L-145.8 -56.5Q-145.15 -55.1 -144.9 -53.6Q-144.6 -52.3 -144.6 -51L-144.65 -48.95L-145.45 -49.6L-146 -50.15L-146.45 -50.65L-148.8 -51.25Q-149.9 -51.65 -150.75 -52.55Q-151.35 -53.25 -151.55 -54.2Q-151.75 -55.05 -151.55 -55.9L-151.3 -56.6Q-152.3 -55.55 -153.45 -54.65Q-154.4 -53.85 -155.45 -53.2L-157.4 -53.5Q-158.35 -53.85 -159.15 -54.55L-160.55 -55.8L-161.15 -56.35L-161.5 -56.35L-162.45 -56.25L-163.05 -56.1L-161.5 -58.25Q-160.5 -59.2 -159.2 -59.75L-156.3 -60.45L-152.4 -60.6L-155.05 -64.25Q-156.1 -65.95 -156.45 -67.95Q-156.9 -70.25 -156.45 -72.6Q-155.85 -75.9 -154.85 -79.1Q-153.2 -78 -151.95 -76.6Q-150.5 -74.95 -149.8 -72.85" />
<path style="fill:#FE0EFF;fill-opacity:1" d="M-154.1,-77.55L-152.95 -76.15L-151.25 -73.3Q-150.45 -71.5 -150.15 -69.6Q-149.85 -67.5 -149.85 -65.4L-150.75 -68.45L-151.95 -71.7L-153.2 -75L-154.1 -77.55" />
<path style="fill:#F7C10A;fill-opacity:1" d="M-154.95,-73.3L-153.9 -71.65L-152.55 -69.15Q-151.9 -67.8 -151.4 -66.35Q-150.85 -64.8 -150.45 -63.25L-151.75 -65.35L-153.2 -68.15L-154.35 -71.15L-154.95 -73.3" />
<path style="fill:#F7C10A;fill-opacity:1" d="M-152.15,-62.8L-153.75 -64.75L-155.05 -67.3L-155.9 -69.65L-154.5 -67.8L-153.05 -65.6L-150.6 -61.55Q-151.45 -62.1 -152.15 -62.8" />
<path style="fill:#F7C10A;fill-opacity:1" d="M-139,-64.85Q-140.25 -64.05 -141.65 -63.4L-144.5 -62.05L-147.05 -60.95L-144.45 -62.8L-141.6 -64.4L-138.9 -65.55L-137 -66.15L-139 -64.85" />
<path style="fill:#F7C10A;fill-opacity:1" d="M-147.8,-59.75Q-145.75 -60.8 -143.45 -61.45L-140.9 -62.2L-138.6 -62.75L-140.95 -61.45Q-142.15 -60.8 -143.5 -60.35L-146 -59.75L-147.8 -59.75" />
<path style="fill:#FE0EFF;fill-opacity:1" d="M-155.1,-55.15L-153.75 -56.45L-152.4 -57.45L-151.8 -57.8L-151.3 -57.8L-152.1 -56.7Q-152.6 -56 -153.25 -55.45L-154.75 -54.4L-156.15 -53.8L-155.1 -55.15" />
<path style="fill:#F7C10A;fill-opacity:1" d="M-148.35,-56.45L-147.85 -54.9L-147.6 -53.3L-147.45 -51.75L-148.2 -53.25L-148.8 -54.9L-149 -56.6L-148.9 -57.8L-148.35 -56.45" />
<path style="fill:#FE0EFF;fill-opacity:1" d="M-149.85,-56.6L-149.65 -55.1L-149.55 -53.65L-149.6 -52.1L-150.2 -53.5Q-150.5 -54.6 -150.45 -55.75L-150.35 -57.05L-150 -57.45L-149.85 -56.6" />
<path style="fill:#F7C10A;fill-opacity:1" d="M-151.3,-58.5L-152.75 -57.65L-154.65 -56.75L-156.65 -55.95L-158.2 -55.35L-157 -56.55L-155.25 -57.6L-153.2 -58.25L-151.3 -58.5" />
<path style="fill:#F7C10A;fill-opacity:1" d="M-151.55,-59.85L-153.5 -59.05L-156.15 -58.2L-159.05 -57.5L-161.15 -56.95L-160.9 -57.8L-158.95 -58.9L-156.15 -59.7L-153 -59.95L-151.55 -59.85" />
<path style="fill:#FE0EFF;fill-opacity:1" d="M-137.35,-68.5L-140.4 -66.45L-143.55 -64.35L-146 -62.65L-143.3 -65.9Q-141.85 -67.3 -140.05 -68.3Q-138.65 -69.1 -137.1 -69.6L-135.05 -70L-137.35 -68.5" />
<path style="fill:#F7C10A;fill-opacity:1" d="M-146.3,-52.6L-147 -54.65L-147.65 -56.7L-148.05 -58.4L-146.8 -56.55L-145.75 -54.25Q-145.4 -53.25 -145.4 -52.2L-145.6 -50.75L-146.3 -52.6" />
<path style="fill:#A5FF77;fill-opacity:1" d="M95.45,-28.85L94.7 -27.15L93.6 -25L92.3 -22.9L91.2 -21.3L91.6 -23.2L92.6 -25.4L94 -27.4L95.45 -28.85" />
<path style="fill:#000000;fill-opacity:1" d="M107.55,-16.9Q107.25 -18 107.25 -19.15L107.6 -22.3L108.4 -25.4L109.05 -27.25L111.15 -25.7L114.05 -23.15L116.5 -20.35L118.1 -17.95L118.3 -18.8L118.6 -19.65L118.85 -19.65L118.7 -19.85L118.7 -20.35L118.65 -21.8L118.2 -23.7L117.5 -25.2L118.45 -24.15L119.25 -22.5L119.6 -20.7L119.7 -19.25L120.2 -20.6L121.2 -22.1L122.6 -23.3L124.05 -23.85L123.3 -23.4L121.85 -22L120.95 -20.55L120.65 -19.5L120.6 -18.8L120.55 -17.45L122.7 -18.95Q124.45 -19.9 126.3 -20.6L129.9 -21.65L132.65 -22.15L132.35 -20.25L131.7 -17.1L130.75 -14.1L129.85 -12Q129.15 -11.55 128.35 -11.25L126.7 -10.8L124.55 -10.75L122.25 -11.05L123.15 -9.65L124.05 -7.6L124.4 -5.45L124.3 -3.75L124.25 -3.65L124.05 -3.15L124.8 -1.8Q123.4 -2.05 122.1 -2.6Q120.85 -3.1 119.9 -4.05Q118.85 -5.1 118.3 -6.4Q117.75 -7.7 117.5 -9.1L115.5 -7Q114.5 -6.05 113.15 -5.6L110.35 -5.15L107.8 -5.45L109.05 -6.4L109.05 -6.9L109.15 -7.05L109.6 -8.6Q110.05 -9.6 110.8 -10.5L112.4 -11.95L114 -12.85L111.5 -13.65Q110.55 -13.95 109.7 -14.5Q108.95 -14.95 108.3 -15.6L107.55 -16.9" />
<path style="fill:#F7C10A;fill-opacity:1" d="M130.85,-18.4L130.1 -15.9L129.05 -13.85L128.05 -12.5L126.25 -12.2L123.55 -12.2L120.9 -12.6L119.2 -13.1L119.75 -14.2L120.6 -15.85Q121.2 -16.7 122.1 -17.3L125.15 -18.85L128.6 -20.1L131.2 -20.7L130.85 -18.4" />
<path style="fill:#F7C10A;fill-opacity:1" d="M119.35,-11.65L120.6 -10.6L122 -8.9L123 -7.1L123.4 -5.45L123.5 -3.5L123.55 -2.9L122.05 -3.85L120.5 -5.2Q119.7 -6.1 119.15 -7.25Q118.65 -8.3 118.5 -9.45L118.4 -11.25L118.5 -11.75L118.7 -11.8L119.1 -11.85L119.35 -11.65" />
<path style="fill:#F7C10A;fill-opacity:1" d="M109.65,-25.3L111.6 -23.75L114.2 -21.25L116.3 -18.6L117.5 -16.6L117.35 -14.65L117.4 -13.95L117.5 -13.45L115.35 -13.8L112.85 -14.5L110.4 -15.65Q109.7 -16.05 109.25 -16.75Q108.75 -17.45 108.6 -18.35Q108.4 -19.45 108.45 -20.6L108.85 -23.1L109.65 -25.3" />
<path style="fill:#F7C10A;fill-opacity:1" d="M116.8,-12.35L117.15 -12.25L117.15 -12.1L117.25 -11.65L116.45 -9.95Q115.8 -8.9 114.85 -8.15Q113.95 -7.4 112.85 -6.95L110.85 -6.25L109.25 -5.95L109.25 -6.2L109.5 -6.55L110.4 -8.25L111.35 -9.55L112.95 -10.85Q113.9 -11.45 114.9 -11.8L116.65 -12.25L116.8 -12.35" />
<path style="fill:#F7FA16;fill-opacity:1" d="M125.5,-15.75L125.25 -16.5L125.5 -17.45L126.5 -17.7L127.2 -17.45L127.55 -16.5L127.2 -15.75L126.5 -15.4L125.5 -15.75" />
<path style="fill:none;stroke-width:0.25;stroke-linecap:round;stroke-linejoin:round;stroke-miterlimit:3;stroke:#000000;stroke-opacity:1" d="M126.5,-15.4L127.2 -15.75L127.55 -16.5L127.2 -17.45L126.5 -17.7L125.5 -17.45L125.25 -16.5L125.5 -15.75L126.5 -15.4z" />
<path style="fill:#F7FA16;fill-opacity:1" d="M122.7,-14.15L122.5 -14.65L122.7 -15.4L123.35 -15.65L123.95 -15.4L124.2 -14.65L123.95 -14.15L123.35 -13.8L122.7 -14.15" />
<path style="fill:none;stroke-width:0.1;stroke-linecap:round;stroke-linejoin:round;stroke-miterlimit:3;stroke:#000000;stroke-opacity:1" d="M123.35,-13.8L123.95 -14.15L124.2 -14.65L123.95 -15.4L123.35 -15.65L122.7 -15.4L122.5 -14.65L122.7 -14.15L123.35 -13.8z" />
<path style="fill:#F7FA16;fill-opacity:1" d="M125.75,-13.45L125.75 -14.3L126.6 -14.3L126.85 -13.8L126.6 -13.45L126.25 -13.2L125.75 -13.45" />
<path style="fill:none;stroke-width:0.1;stroke-linecap:round;stroke-linejoin:round;stroke-miterlimit:3;stroke:#000000;stroke-opacity:1" d="M126.25,-13.2L126.6 -13.45L126.85 -13.8L126.6 -14.3L125.75 -14.3L125.75 -13.45L126.25 -13.2z" />
<path style="fill:#F7FA16;fill-opacity:1" d="M128.4,-17.95L128.4 -18.9L129.4 -18.9L129.65 -18.3L129.35 -18L129 -17.7L128.4 -17.95" />
<path style="fill:none;stroke-width:0.1;stroke-linecap:round;stroke-linejoin:round;stroke-miterlimit:3;stroke:#000000;stroke-opacity:1" d="M129,-17.7L129.35 -18L129.65 -18.3L129.4 -18.9L128.4 -18.9L128.4 -17.95L129 -17.7z" />
<path style="fill:#F7FA16;fill-opacity:1" d="M112.05,-16L111.8 -16.7L112.05 -17.55L112.9 -17.95L113.75 -17.55L114.1 -16.7L113.75 -16L112.9 -15.5L112.05 -16" />
<path style="fill:none;stroke-width:0.25;stroke-linecap:round;stroke-linejoin:round;stroke-miterlimit:3;stroke:#000000;stroke-opacity:1" d="M112.9,-15.5L113.75 -16L114.1 -16.7L113.75 -17.55L112.9 -17.95L112.05 -17.55L111.8 -16.7L112.05 -16L112.9 -15.5z" />
<path style="fill:#F7FA16;fill-opacity:1" d="M109.65,-17.8L109.5 -18.15L109.65 -18.65L110.25 -18.8L110.6 -18.65L110.85 -18.15L110.6 -17.8L110.25 -17.55L109.65 -17.8" />
<path style="fill:none;stroke-width:0.1;stroke-linecap:round;stroke-linejoin:round;stroke-miterlimit:3;stroke:#000000;stroke-opacity:1" d="M110.25,-17.55L110.6 -17.8L110.85 -18.15L110.6 -18.65L110.25 -18.8L109.65 -18.65L109.5 -18.15L109.65 -17.8L110.25 -17.55z" />
<path style="fill:#F7FA16;fill-opacity:1" d="M109.75,-21.95L109.5 -22.55L109.75 -23.15L110.35 -23.4L110.95 -23.15L111.35 -22.55L110.95 -21.95L110.35 -21.7L109.75 -21.95" />
<path style="fill:none;stroke-width:0.1;stroke-linecap:round;stroke-linejoin:round;stroke-miterlimit:3;stroke:#000000;stroke-opacity:1" d="M110.35,-21.7L110.95 -21.95L111.35 -22.55L110.95 -23.15L110.35 -23.4L109.75 -23.15L109.5 -22.55L109.75 -21.95L110.35 -21.7z" />
<path style="fill:#F7FA16;fill-opacity:1" d="M111.7,-20.45L111.55 -20.95L111.7 -21.45L112.2 -21.5L112.65 -21.45L112.9 -20.95L112.65 -20.45L112.2 -20.25L111.7 -20.45" />
<path style="fill:none;stroke-width:0.1;stroke-linecap:round;stroke-linejoin:round;stroke-miterlimit:3;stroke:#000000;stroke-opacity:1" d="M112.2,-20.25L112.65 -20.45L112.9 -20.95L112.65 -21.45L112.2 -21.5L111.7 -21.45L111.55 -20.95L111.7 -20.45L112.2 -20.25z" />
<path style="fill:#F7FA16;fill-opacity:1" d="M112.05,-18.4L111.95 -18.65L112.05 -19.15L112.4 -19.25L112.65 -19.15L112.9 -18.65L112.4 -18.15L112.05 -18.4" />
<path style="fill:none;stroke-width:0.1;stroke-linecap:round;stroke-linejoin:round;stroke-miterlimit:3;stroke:#000000;stroke-opacity:1" d="M112.4,-18.15L112.9 -18.65L112.65 -19.15L112.4 -19.25L112.05 -19.15L111.95 -18.65L112.05 -18.4L112.4 -18.15z" />
<path style="fill:#F7FA16;fill-opacity:1" d="M115.15,-15.9L114.95 -16.1L115.1 -16.6L115.8 -16.6L115.95 -16.1L115.75 -15.9L115.45 -15.65L115.15 -15.9" />
<path style="fill:none;stroke-width:0.1;stroke-linecap:round;stroke-linejoin:round;stroke-miterlimit:3;stroke:#000000;stroke-opacity:1" d="M115.45,-15.65L115.75 -15.9L115.95 -16.1L115.8 -16.6L115.1 -16.6L114.95 -16.1L115.15 -15.9L115.45 -15.65z" />
<path style="fill:#F7FA16;fill-opacity:1" d="M121,-13.55L121.15 -14.05L121.75 -14.05L122 -13.55L121.75 -13.35L121.5 -13.1L121 -13.55" />
<path style="fill:none;stroke-width:0.1;stroke-linecap:round;stroke-linejoin:round;stroke-miterlimit:3;stroke:#000000;stroke-opacity:1" d="M121.5,-13.1L121.75 -13.35L122 -13.55L121.75 -14.05L121.15 -14.05L121 -13.55L121.5 -13.1z" />
<path style="fill:#F7FA16;fill-opacity:1" d="M119.55,-9.55L119.7 -9.95L120.05 -10.05L120.3 -9.95L120.55 -9.55L120.3 -9.35L120.05 -9.1L119.55 -9.55" />
<path style="fill:none;stroke-width:0.1;stroke-linecap:round;stroke-linejoin:round;stroke-miterlimit:3;stroke:#000000;stroke-opacity:1" d="M120.05,-9.1L120.3 -9.35L120.55 -9.55L120.3 -9.95L120.05 -10.05L119.7 -9.95L119.55 -9.55L120.05 -9.1z" />
<path style="fill:#F7FA16;fill-opacity:1" d="M114.85,-10.4L114.7 -10.9L114.85 -11.4L115.35 -11.45L115.7 -11.4L115.95 -10.9L115.7 -10.4L115.35 -10.2L114.85 -10.4" />
<path style="fill:none;stroke-width:0.1;stroke-linecap:round;stroke-linejoin:round;stroke-miterlimit:3;stroke:#000000;stroke-opacity:1" d="M115.35,-10.2L115.7 -10.4L115.95 -10.9L115.7 -11.4L115.35 -11.45L114.85 -11.4L114.7 -10.9L114.85 -10.4L115.35 -10.2z" />
<path style="fill:#F7FA16;fill-opacity:1" d="M120.55,-6.65L120.3 -7.25L120.55 -7.85L121.15 -8.1L121.75 -7.85L122 -7.25L121.75 -6.65L121.15 -6.4L120.55 -6.65" />
<path style="fill:none;stroke-width:0.1;stroke-linecap:round;stroke-linejoin:round;stroke-miterlimit:3;stroke:#000000;stroke-opacity:1" d="M121.15,-6.4L121.75 -6.65L122 -7.25L121.75 -7.85L121.15 -8.1L120.55 -7.85L120.3 -7.25L120.55 -6.65L121.15 -6.4z" />
<path style="fill:#F7FA16;fill-opacity:1" d="M114.6,-8.95L114.5 -9.2L114.6 -9.7L115.2 -9.7L115.45 -9.2L114.95 -8.7L114.6 -8.95" />
<path style="fill:none;stroke-width:0.1;stroke-linecap:round;stroke-linejoin:round;stroke-miterlimit:3;stroke:#000000;stroke-opacity:1" d="M114.95,-8.7L115.45 -9.2L115.2 -9.7L114.6 -9.7L114.5 -9.2L114.6 -8.95L114.95 -8.7z" />
<path style="fill:#F7FA16;fill-opacity:1" d="M121.25,-4.75L121.25 -5.45L121.65 -5.5L122 -5.45L122.25 -5.1L122 -4.75L121.65 -4.6L121.25 -4.75" />
<path style="fill:none;stroke-width:0.1;stroke-linecap:round;stroke-linejoin:round;stroke-miterlimit:3;stroke:#000000;stroke-opacity:1" d="M121.65,-4.6L122 -4.75L122.25 -5.1L122 -5.45L121.65 -5.5L121.25 -5.45L121.25 -4.75L121.65 -4.6z" />
<path style="fill:#F7FA16;fill-opacity:1" d="M111.7,-8.25L111.55 -8.7L111.7 -9.2L112.2 -9.35L112.65 -9.2L112.9 -8.7L112.65 -8.25L112.2 -8L111.7 -8.25" />
<path style="fill:none;stroke-width:0.1;stroke-linecap:round;stroke-linejoin:round;stroke-miterlimit:3;stroke:#000000;stroke-opacity:1" d="M112.2,-8L112.65 -8.25L112.9 -8.7L112.65 -9.2L112.2 -9.35L111.7 -9.2L111.55 -8.7L111.7 -8.25L112.2 -8z" />
<path style="fill:none;stroke-width:1;stroke-linecap:round;stroke-linejoin:round;stroke-miterlimit:3;stroke:#000000;stroke-opacity:1" d="M8.9,17.35L20.4 14" />
<path style="fill:#666666;fill-opacity:1" d="M-128.75,60.9Q-127.85 63.3 -127.6 65.9L-139.85 65.4L-147.5 64.35Q-149.6 63.9 -151.6 62.9L-148.6 56.4L-141.85 52.4Q-139.1 52.65 -136.5 53.4Q-133.95 54.15 -132.1 55.9Q-129.85 58.05 -128.75 60.9" />
<path style="fill:none;stroke-width:2;stroke-linecap:round;stroke-linejoin:round;stroke-miterlimit:3;stroke:#000000;stroke-opacity:1" d="M-128.75,60.9Q-127.85 63.3 -127.6 65.9L-139.85 65.4L-147.5 64.35Q-149.6 63.9 -151.6 62.9L-148.6 56.4L-141.85 52.4Q-139.1 52.65 -136.5 53.4Q-133.95 54.15 -132.1 55.9Q-129.85 58.05 -128.75 60.9z" />
<path style="fill:#666666;fill-opacity:1" d="M-128.1,60.65Q-132.7 58.8 -137.35 56.9L-141.85 52.4L-128.1 60.65" />
<path style="fill:none;stroke-width:1;stroke-linecap:round;stroke-linejoin:round;stroke-miterlimit:3;stroke:#000000;stroke-opacity:1" d="M-141.85,52.4L-137.35 56.9Q-132.7 58.8 -128.1 60.65" />
<path style="fill:#666666;fill-opacity:1" d="M-147.6,64.9L-145.6 59.15L-143.1 56.4L-147.6 64.9" />
<path style="fill:none;stroke-width:1;stroke-linecap:round;stroke-linejoin:round;stroke-miterlimit:3;stroke:#000000;stroke-opacity:1" d="M-143.1,56.4L-145.6 59.15L-147.6 64.9" />
<path style="fill:#666666;fill-opacity:1" d="M-137.35,56.9L-135.45 59.85L-135.25 62.65L-137.35 56.9" />
<path style="fill:none;stroke-width:1;stroke-linecap:round;stroke-linejoin:round;stroke-miterlimit:3;stroke:#000000;stroke-opacity:1" d="M-135.25,62.65L-135.45 59.85L-137.35 56.9" />
<path style="fill:#666666;fill-opacity:1" d="M-123.75,61.5L-121.25 64.15L-120.75 66L-126.1 66.5L-130.45 65L-126.95 61.65L-123.75 61.5" />
<path style="fill:none;stroke-width:2;stroke-linecap:round;stroke-linejoin:round;stroke-miterlimit:3;stroke:#000000;stroke-opacity:1" d="M-123.75,61.5L-121.25 64.15L-120.75 66L-126.1 66.5L-130.45 65L-126.95 61.65L-123.75 61.5z" />
<path style="fill:#666666;fill-opacity:1" d="M43.75,19.65L43.55 15L44.9 10L43.75 19.65" />
<path style="fill:none;stroke-width:2;stroke-linecap:round;stroke-linejoin:round;stroke-miterlimit:3;stroke:#000000;stroke-opacity:1" d="M44.9,10L43.55 15L43.75 19.65" />
</g>
</svg>
