<?xml version="1.0" encoding="utf-8"?>
<svg version="1.1" id="Layer_1"
xmlns="http://www.w3.org/2000/svg"
xmlns:xlink="http://www.w3.org/1999/xlink"
xmlns:author="http://www.sothink.com"
width="167px" height="77px"
xml:space="preserve">
<g id="170" transform="matrix(1, 0, 0, 1, -372.25, -253.9)">
<path style="fill:#FFFFFF;fill-opacity:1" d="M441.2,301.95L440.45 302.2L440.3 302.45Q439.7 303.3 438.6 303.1L438.45 303.05L437.85 302.75L437.3 301.4L437.3 301.3L437.5 300.7L437.3 300.45Q436.3 299 435.95 297.3L435.9 296.75L435.5 296.65L435.45 296.65Q435.25 296.55 435.2 296.3L435.2 296Q435.15 295.6 435.45 295.35Q434.45 295.05 435.1 294.1L435.45 294.05L435.45 294L441.75 294.55Q441.9 294.55 441.95 294.7L441.95 295.25L442.05 295.25L442.3 295.45L442.7 296.7L443.25 298.65L443.3 300.05L443.25 300.7L442.95 301.05L442.5 301.65L442.45 301.7L441.75 301.95L441.2 301.95M379.75,310.5Q380.7 309.7 381.2 310.35L381.55 311.5L381.4 312.05Q381.5 312.5 381.2 312.95L380.55 314.1Q379.95 315.15 379.6 316.3L380.1 316.75L380.1 317.4L379.85 318.25L379.35 319.05L379.45 319.5L379.5 320.2L379.3 321.3Q378.85 322.2 377.55 322.05Q376.75 322.55 375.6 321.65L375.55 321.6L374.85 321.8L373.7 321.85L373.2 321.6L372.95 321.2L372.8 320.85L372.75 320.65Q372.7 320.35 372.8 320.1Q373.5 318.65 374.6 318Q375.1 317.65 375.75 317.5L376 316.55Q376.35 315.45 377.2 315.1L377.7 313.45L378.85 311.85L379 311.65L379 311.6L379 311.5L379.3 311L379.3 310.9L379.75 310.5M473.3,321.5L479.25 322.85L483.25 329.85L474.25 329.85L473.3 321.5M529.6,260L529.6 259.65Q529.3 259.55 529.35 259.05Q529.35 258.5 529.9 258.25L530.35 257.85Q530.8 257.15 531.55 256.7Q532.55 255.5 533.85 254.85Q534.35 255.15 534.45 255.6L535.5 256.3L537 257.85L537.4 258.4L537.6 258.7Q538.05 259.5 537.1 259.75L536.3 260L536.2 260.1L535 260.95L533.4 261.85L532.4 262.05L532.35 262.05Q531.5 261.95 531 261.2L530.7 260.85L530.6 260.7L530.55 260.7Q529.65 260.55 529.6 260" />
<path style="fill:none;stroke-width:1;stroke-linecap:round;stroke-linejoin:round;stroke-miterlimit:3;stroke:#CCCCCC;stroke-opacity:1" d="M435.45,296.65L435.2 296L434.35 293.9L442.35 294.4L442.7 296.7L443.25 300.7L443.35 301.35L442.45 301.7L441.75 301.95L440.3 302.45M438.6,303.1L437.85 303.35M435.45,296.65L437.3 301.4L437.85 302.75M438.6,303.1L440.3 302.45M374.6,318L372.75 320.65L372.8 320.85M372.95,321.2L374.85 321.8M379.3,321.3L379.5 320.2M379.85,318.25L380.1 316.75M380.55,314.1L381.2 310.35M379.75,310.5L379 311.6M378.85,311.85L377.7 313.45M374.6,318L377.7 313.45M380.55,314.1L380.1 316.75M379.85,318.25L379.5 320.2M379.75,310.5L381.65 307.75L381.2 310.35M378.85,311.85L379 311.6M379.3,321.3L379 323.15L374.85 321.8M473.3,321.5L479.25 322.85L483.25 329.85L474.25 329.85L473.3 321.5L472.75 321.35M530.7,260.85L532.4 262.05L532.8 262.35L538.3 259.4L537.4 258.4L535.5 256.3L533.8 254.4L528.8 258.9M529.6,260L530.55 260.7M530.7,260.85L530.55 260.7M529.6,260L528.8 259.4" />
</g>
</svg>
