<?xml version="1.0" encoding="utf-8"?>
<svg version="1.1" id="Layer_1"
xmlns="http://www.w3.org/2000/svg"
xmlns:xlink="http://www.w3.org/1999/xlink"
xmlns:author="http://www.sothink.com"
width="241px" height="179px"
xml:space="preserve">
<g id="152" transform="matrix(1, 0, 0, 1, 120, 89.5)">
<path style="fill:#000000;fill-opacity:1" d="M70.15,-88.75L102.15 -72.75Q104.75 -71.45 105.65 -68.65L115.65 -37.65L116 -35.25L114.05 15.9L119.85 41.95L119.85 42Q120.35 44.2 119.45 46.3L107.4 73.4Q106.65 74.95 105.3 76.05L105.3 76Q103.95 77.05 102.25 77.4L36.25 89.4L34.85 89.5L-43.15 87.5L-45 87.2L-82 76.2Q-84.45 75.45 -85.8 73.35L-85.85 73.35L-118.85 23.35Q-119.65 22.05 -119.9 20.6L-119.9 20.7Q-120.15 19.2 -119.75 17.75L-119.75 17.7L-108.75 -23.3Q-108.3 -25.05 -107 -26.35L-107 -26.4Q-105.7 -27.7 -103.95 -28.2L-76.95 -36.2L-77 -36.2Q-75.1 -36.75 -73.2 -36.25L-48.85 -29.75L-39.35 -50.4L-39.35 -50.45Q-38.6 -52 -37.25 -53L-37.25 -53.05L-11.25 -73.05L-10.15 -73.7L-10.15 -73.75L15.85 -86.75Q17.2 -87.45 18.7 -87.5L66.75 -89.5Q68.55 -89.55 70.15 -88.75" />
<path style="fill:#666666;fill-opacity:1" d="M67,-82.5L99 -66.5L109 -35.5L107 16.5L113 43.5L101 70.5L35 82.5L-43 80.5L-80 69.5L-113 19.5L-102 -21.5L-75 -29.5L-45 -21.5L-33 -47.5L-7 -67.5L19 -80.5L67 -82.5" />
</g>
</svg>
