<?xml version="1.0" encoding="utf-8"?>
<svg version="1.1" id="Layer_1"
xmlns="http://www.w3.org/2000/svg"
xmlns:xlink="http://www.w3.org/1999/xlink"
xmlns:author="http://www.sothink.com"
width="124px" height="124px"
xml:space="preserve">
<g id="146" transform="matrix(1, 0, 0, 1, 64.5, 62.5)">
<path style="fill:#66FFFF;fill-opacity:1" d="M57,-0.5Q57 24.15 39.55 41.55Q22.15 59 -2.5 59Q-27.15 59 -44.6 41.55Q-62 24.15 -62 -0.5Q-62 -25.15 -44.6 -42.6Q-27.15 -60 -2.5 -60Q22.15 -60 39.55 -42.6Q57 -25.15 57 -0.5" />
<path style="fill:none;stroke-width:5;stroke-linecap:round;stroke-linejoin:round;stroke-miterlimit:3;stroke:#66FFFF;stroke-opacity:1" d="M57,-0.5Q57 24.15 39.55 41.55Q22.15 59 -2.5 59Q-27.15 59 -44.6 41.55Q-62 24.15 -62 -0.5Q-62 -25.15 -44.6 -42.6Q-27.15 -60 -2.5 -60Q22.15 -60 39.55 -42.6Q57 -25.15 57 -0.5z" />
</g>
</svg>
