<?xml version="1.0" encoding="utf-8"?>
<svg version="1.1" id="Layer_1"
xmlns="http://www.w3.org/2000/svg"
xmlns:xlink="http://www.w3.org/1999/xlink"
xmlns:author="http://www.sothink.com"
width="398px" height="113px"
xml:space="preserve">
<g id="153" transform="matrix(1, 0, 0, 1, 177.95, 55.45)">
<path style="fill:#000000;fill-opacity:1" d="M219.45,-55.3L219.6 -54.95L219.6 56.6L219.45 56.95L219.1 57.1L-177.45 57.1L-177.8 56.95L-177.95 56.6L-177.95 -54.95L-177.8 -55.3L-177.45 -55.45L219.1 -55.45L219.45 -55.3M-135.95,-16.65Q-139.55 -9.45 -140.9 4.15Q-142.15 17.4 -137.45 20.35L-137.4 20.35Q-131.65 24.5 -127.75 23.6Q-123.9 22.6 -121.85 16.6L-121.9 16.65Q-117.85 -2.15 -113.45 -7.9Q-109.2 -13.45 -108.8 -20.1Q-108.3 -28.4 -115.7 -30.9Q-127.95 -35.05 -135.95 -16.7L-135.95 -16.65" />
</g>
</svg>
