<?xml version="1.0" encoding="utf-8"?>
<svg version="1.1" id="Layer_1"
xmlns="http://www.w3.org/2000/svg"
xmlns:xlink="http://www.w3.org/1999/xlink"
xmlns:author="http://www.sothink.com"
width="156px" height="47px"
xml:space="preserve">
<g id="162" transform="matrix(1, 0, 0, 1, -343.8, -295.9)">
<path style="fill:#FFFFFF;fill-opacity:1" d="M379.75,312.75L366.9 325.95L361.95 322.05L379.75 312.75M345,301.8L344.25 300.9Q344.05 300.65 344.15 300.3L344.3 299.9L344.55 299.55L344.7 299.4Q344.9 299.2 345.15 299.1L347.9 299.3L349 299.95L349.9 299.6L351.8 299.7Q352.55 299.35 353.4 299.15L353.55 299.15L355.4 299.1L355.65 299.15L355.7 299.1L355.75 299L356.35 298.95L356.4 298.9L357.05 299.05Q358.2 299.35 357.95 300.1L357.25 301.05L356.75 301.3Q356.4 301.65 355.9 301.65L354.6 301.8L352.25 302.35L352.15 303.05L351.65 303.4L350.8 303.7L349.9 303.75L349.55 304.1L349.05 304.6L348 305.1Q347.05 305.25 346.35 304.1Q345.45 303.8 345.55 302.3L345.55 302.25L345 301.8M484.3,333.5L490.25 334.85L494.25 341.85L485.25 341.85L484.3 333.5M420.2,307Q420.15 306.6 420.45 306.35Q419.45 306.05 420.1 305.1L420.45 305.05L420.45 305L426.75 305.55Q426.9 305.55 426.95 305.7L426.95 306.25L427.05 306.25L427.3 306.45L427.7 307.7L428.25 309.65L428.3 311.05L428.25 311.7L427.95 312.05L427.5 312.65L427.45 312.7L426.75 312.95L426.2 312.95L425.45 313.2L425.3 313.45Q424.7 314.3 423.6 314.1L423.45 314.05L422.85 313.75L422.3 312.4L422.3 312.3L422.5 311.7L422.3 311.45Q421.3 310 420.95 308.3L420.9 307.75L420.5 307.65L420.45 307.65Q420.25 307.55 420.2 307.3L420.2 307M491.2,302.85L491.1 302.7L491.05 302.7Q490.15 302.55 490.1 302L490.1 301.65Q489.8 301.55 489.85 301.05Q489.85 300.5 490.4 300.25L490.85 299.85Q491.3 299.15 492.05 298.7Q493.05 297.5 494.35 296.85Q494.85 297.15 494.95 297.6L496 298.3L497.5 299.85L497.9 300.4L498.1 300.7Q498.55 301.5 497.6 301.75L496.8 302L496.7 302.1L495.5 302.95L493.9 303.85L492.9 304.05L492.85 304.05Q492 303.95 491.5 303.2L491.2 302.85" />
<path style="fill:none;stroke-width:1;stroke-linecap:round;stroke-linejoin:round;stroke-miterlimit:3;stroke:#CCCCCC;stroke-opacity:1" d="M379.75,312.75L366.9 325.95L361.95 322.05L379.75 312.75L380.65 312.3M347.9,299.3L353.55 299.15L355.4 299.1L355.7 299.1L357.05 299.05L360.35 298.9L357.95 300.1L354.6 301.8L352.15 303.05L350.8 303.7L349.05 304.6L348 305.1L346.35 305.9L345 301.8L344.3 299.9M344.55,299.55L344.7 299.4M347.9,299.3L344.7 299.4M484.3,333.5L490.25 334.85L494.25 341.85L485.25 341.85L484.3 333.5L483.75 333.35M428.25,311.7L427.7 307.7L427.35 305.4L419.35 304.9L420.2 307L420.45 307.65L422.3 312.4L422.85 313.75M423.6,314.1L425.3 313.45M426.75,312.95L427.45 312.7M428.25,311.7L428.35 312.35L427.45 312.7M426.75,312.95L425.3 313.45M423.6,314.1L422.85 314.35M491.2,302.85L492.9 304.05L493.3 304.35L498.8 301.4L497.9 300.4L496 298.3L494.3 296.4L489.3 300.9M490.1,302L491.05 302.7M490.1,302L489.3 301.4M491.2,302.85L491.05 302.7" />
</g>
</svg>
