<?xml version="1.0" encoding="utf-8"?>
<svg version="1.1" id="Layer_1"
xmlns="http://www.w3.org/2000/svg"
xmlns:xlink="http://www.w3.org/1999/xlink"
xmlns:author="http://www.sothink.com"
width="419px" height="154px"
xml:space="preserve">
<g id="309" transform="matrix(1, 0, 0, 1, 187.95, 53.55)">
<path style="fill:#FFFFFF;fill-opacity:1" d="M-15,-50.55Q55.4 -50.55 105.15 -34.75Q154.95 -18.9 154.95 3.45Q154.95 25.8 105.15 41.6Q55.4 57.45 -15 57.45Q-85.4 57.45 -135.2 41.6Q-184.95 25.8 -184.95 3.45Q-184.95 -18.9 -135.2 -34.75Q-85.4 -50.55 -15 -50.55" />
<path style="fill:none;stroke-width:6;stroke-linecap:round;stroke-linejoin:round;stroke-miterlimit:3;stroke:#000000;stroke-opacity:1" d="M-15,-50.55Q55.4 -50.55 105.15 -34.75Q154.95 -18.9 154.95 3.45Q154.95 25.8 105.15 41.6Q55.4 57.45 -15 57.45Q-85.4 57.45 -135.2 41.6Q-184.95 25.8 -184.95 3.45Q-184.95 -18.9 -135.2 -34.75Q-85.4 -50.55 -15 -50.55z" />
<path style="fill:#FFFFFF;fill-opacity:1" d="M153.15,55L153.45 55.45Q155.35 58.3 156.8 61.45Q159.75 62.8 162.25 65.45Q165.2 68.6 168.9 70.9L178.95 77.05L185.75 79.9L200.65 85.6Q202 86.1 202.45 87.5L202.75 88.65L208.3 90.3L211.65 90.75Q212.55 90.85 212.8 91.85L212.9 92.25L214.1 92.85Q215.2 93.4 215.15 94.7Q215.15 95.8 214.65 96.6Q214.1 97.55 212.95 98.1L204.55 95.95Q192.75 95.5 181.55 91.7Q180.3 91.3 179.8 90.5Q179.35 89.85 179.4 88.95L178.8 88.7Q176.55 88.25 174.4 87.15L174.3 87.1L170.6 85.5Q164.6 85.45 158.9 82.05Q154.25 79.3 149.1 77.6Q142.95 75.6 138.35 70.95L137.65 69.95Q132.25 67.5 127 64.75Q123.7 63.05 122.9 60.4L122 59.25L121.2 58.35L121.05 58.15Q118 57.2 115.3 54.4L111.7 50.9Q109.65 49 109.15 47.1L107.75 46.55Q105.4 45.7 105 43.55L103.8 42.55Q98.5 37.7 103.1 32.6L103.5 32.5L103.4 32Q103.1 27.65 106.85 26Q110.05 26.1 112.6 27.55L113.6 26.6L114.05 26.45L114.8 26.05L114.85 26Q117.35 26.15 119.6 27.15L119.85 27L122.3 27.3L122.35 27.25Q122.05 25.7 123.25 24.55L125.35 23Q133.3 22.9 134.15 31.2L134.6 35.05L134.7 37.7Q138.9 41 141.75 45.4L142.75 45.95L144.8 47.2L145.85 47.85Q150.1 50.65 153.15 55" />
<path style="fill:none;stroke-width:6;stroke-linecap:round;stroke-linejoin:round;stroke-miterlimit:3;stroke:#000000;stroke-opacity:1" d="M179.8,90.5L187.95 92.55L194.3 93.85L201.2 95L208.8 96L214.65 96.6L227.9 97.4M179.8,90.5Q151.55 82.85 128.55 66.8Q115.7 57.8 106.05 47.2L98.95 38.4" />
<path style="fill:none;stroke-width:6;stroke-linecap:round;stroke-linejoin:round;stroke-miterlimit:3;stroke:#000000;stroke-opacity:1" d="M227.9,97.4Q204.15 88.15 180.65 74.3Q163.75 64.35 153.15 55Q149.05 51.35 145.85 47.85Q134.25 35.05 134.9 23.4" />
</g>
</svg>
