<?xml version="1.0" encoding="utf-8"?>
<svg version="1.1" id="Layer_1"
xmlns="http://www.w3.org/2000/svg"
xmlns:xlink="http://www.w3.org/1999/xlink"
xmlns:author="http://www.sothink.com"
width="217px" height="300px"
xml:space="preserve">
<g id="321" transform="matrix(1, 0, 0, 1, 120.15, 143.1)">
<path style="fill:#FFFFFF;fill-opacity:1" d="M44.4,-140.25Q92.95 -135.15 95.2 -122.3L45.6 -122.3L-0.9 -137.25Q8.95 -144.05 44.4 -140.25" />
<path style="fill:none;stroke-width:3;stroke-linecap:round;stroke-linejoin:round;stroke-miterlimit:3;stroke:#000000;stroke-opacity:1" d="M44.4,-140.25Q92.95 -135.15 95.2 -122.3L45.6 -122.3L-0.9 -137.25Q8.95 -144.05 44.4 -140.25z" />
<path style="fill:#FFFFFF;fill-opacity:1" d="M-12.2,-90.85Q-10.8 -109.3 2.15 -122.3L85.6 -116.15Q91.8 -102.45 92.45 -91.55Q93.15 -80.5 91.8 -66.8Q90 -48.6 84.95 -35.45Q76.8 -13.9 80.85 10.4L82.65 21.5L87 40.3Q91.1 55.7 84.95 78.1Q80.5 94.25 58.85 103.65Q51.6 106.75 43.3 108.7L34.3 110.25Q7.9 111.85 -10.5 121.85Q-37.15 140.35 -72.4 152.65Q-105.4 160.85 -116.15 134.85Q-125.3 112.55 -101 90.65Q-92.65 83.15 -78.35 74L-56.65 60.3Q-40 49.2 -31.15 33.4Q-24.95 22.2 -21.1 4.9Q-18.5 -6.7 -15.6 -42.95L-12.2 -90.85" />
<path style="fill:none;stroke-width:3;stroke-linecap:round;stroke-linejoin:round;stroke-miterlimit:3;stroke:#000000;stroke-opacity:1" d="M-15.6,-42.95Q-18.5 -6.7 -21.1 4.9Q-24.95 22.2 -31.15 33.4Q-40 49.2 -56.65 60.3L-78.35 74Q-92.65 83.15 -101 90.65Q-125.3 112.55 -116.15 134.85Q-105.4 160.85 -72.4 152.65Q-37.15 140.35 -10.5 121.85Q7.9 111.85 34.3 110.25L43.3 108.7Q51.6 106.75 58.85 103.65Q80.5 94.25 84.95 78.1Q91.1 55.7 87 40.3L82.65 21.5L80.85 10.4Q76.8 -13.9 84.95 -35.45Q90 -48.6 91.8 -66.8Q93.15 -80.5 92.45 -91.55Q91.8 -102.45 85.6 -116.15L2.15 -122.3Q-10.8 -109.3 -12.2 -90.85L-15.6 -42.95z" />
<path style="fill:#FFFFFF;fill-opacity:1" d="M72,-108.3Q57 -107.45 41.85 -109.5Q33.9 -110.5 14.65 -115.15Q2 -117.85 -1.6 -120Q-7 -123.15 -5.7 -130.2Q-2.95 -145.2 12.1 -138.05Q28.5 -130.7 54 -129L73.15 -128.45L87.65 -128.45Q91.8 -128.4 93.75 -125.55Q95.55 -123.1 95.3 -119.4Q94.95 -115.9 93.05 -113.15Q90.9 -110.25 88 -110L72 -108.3" />
<path style="fill:none;stroke-width:3;stroke-linecap:round;stroke-linejoin:round;stroke-miterlimit:3;stroke:#000000;stroke-opacity:1" d="M88,-110Q90.9 -110.25 93.05 -113.15Q94.95 -115.9 95.3 -119.4Q95.55 -123.1 93.75 -125.55Q91.8 -128.4 87.65 -128.45L73.15 -128.45L54 -129Q28.5 -130.7 12.1 -138.05Q-2.95 -145.2 -5.7 -130.2Q-7 -123.15 -1.6 -120Q2 -117.85 14.65 -115.15Q33.9 -110.5 41.85 -109.5Q57 -107.45 72 -108.3L88 -110z" />
<path style="fill:#FFFFFF;fill-opacity:1" d="M-91.85,84.1L-52.9 144.95Q-84.35 128.55 -91.85 84.1" />
<path style="fill:none;stroke-width:3;stroke-linecap:round;stroke-linejoin:round;stroke-miterlimit:3;stroke:#000000;stroke-opacity:1" d="M-52.9,144.95Q-84.35 128.55 -91.85 84.1" />
<path style="fill:#FFFFFF;fill-opacity:1" d="M37.75,110.05Q44.9 60.85 33.65 43.4Q48 42.35 82.9 26.95L37.75 110.05" />
<path style="fill:none;stroke-width:3;stroke-linecap:round;stroke-linejoin:round;stroke-miterlimit:3;stroke:#000000;stroke-opacity:1" d="M37.75,110.05Q44.9 60.85 33.65 43.4Q48 42.35 82.9 26.95" />
<path style="fill:none;stroke-width:2;stroke-linecap:round;stroke-linejoin:round;stroke-miterlimit:3;stroke:#000000;stroke-opacity:1" d="M8.65,-138.4Q-1.1 -132.75 1.85 -119.05" />
<path style="fill:none;stroke-width:2;stroke-linecap:round;stroke-linejoin:round;stroke-miterlimit:3;stroke:#000000;stroke-opacity:1" d="M15.35,-136.15Q5.95 -125.45 10.2 -116.5" />
<path style="fill:none;stroke-width:2;stroke-linecap:round;stroke-linejoin:round;stroke-miterlimit:3;stroke:#000000;stroke-opacity:1" d="M22.6,-133.6Q14.9 -124.2 17.9 -114.35" />
<path style="fill:none;stroke-width:2;stroke-linecap:round;stroke-linejoin:round;stroke-miterlimit:3;stroke:#000000;stroke-opacity:1" d="M29.45,-131.05Q22.6 -119.5 26.05 -112.2" />
<path style="fill:none;stroke-width:2;stroke-linecap:round;stroke-linejoin:round;stroke-miterlimit:3;stroke:#000000;stroke-opacity:1" d="M37.15,-129.3Q32.45 -118.2 33.3 -111.8" />
<path style="fill:none;stroke-width:2;stroke-linecap:round;stroke-linejoin:round;stroke-miterlimit:3;stroke:#000000;stroke-opacity:1" d="M45.7,-127.6L41.85 -109.5" />
<path style="fill:none;stroke-width:2;stroke-linecap:round;stroke-linejoin:round;stroke-miterlimit:3;stroke:#000000;stroke-opacity:1" d="M55.1,-128.05Q54.65 -111.8 51.7 -107.5" />
<path style="fill:none;stroke-width:2;stroke-linecap:round;stroke-linejoin:round;stroke-miterlimit:3;stroke:#000000;stroke-opacity:1" d="M63.65,-127.6Q64.95 -113.5 59.8 -107.95" />
<path style="fill:none;stroke-width:2;stroke-linecap:round;stroke-linejoin:round;stroke-miterlimit:3;stroke:#000000;stroke-opacity:1" d="M72.6,-127.2Q75.6 -117.35 70.5 -107.1" />
<path style="fill:none;stroke-width:2;stroke-linecap:round;stroke-linejoin:round;stroke-miterlimit:3;stroke:#000000;stroke-opacity:1" d="M81.6,-127.2Q84.6 -115.65 79.05 -108.35" />
<path style="fill:#FFFFFF;fill-opacity:1" d="M45.85,50.25Q69.2 46.3 85.7 36.55L46.4 108.95Q52.7 69.65 45.85 50.25" />
<path style="fill:none;stroke-width:2;stroke-linecap:round;stroke-linejoin:round;stroke-miterlimit:3;stroke:#000000;stroke-opacity:1" d="M49.35,69.9L49.45 76.8M48.15,59.35L49.1 66.4M47.05,50.05L45.85 50.25L47.5 55.85M57.25,47.85L50.5 49.35M47.55,101.1L46.55 108.1M48.7,90.75L47.9 97.6M49.35,80.3L49.05 87.25M76.65,41.25L70.3 43.8M85.7,36.55L79.7 39.8M67.05,45L60.65 47" />
<path style="fill:none;stroke-width:2;stroke-linecap:round;stroke-linejoin:round;stroke-miterlimit:3;stroke:#000000;stroke-opacity:1" d="M-97.95,92.2L-98.55 87.4M-96,102.45L-97.45 95.6M-92.9,112.2L-95.1 105.7M-88.55,121.35L-91.6 115.3M-82.8,129.75L-86.75 124.25M-68.1,143.5L-73.5 139.4M-59.45,148.55L-65.3 145.3M-75.95,137.2L-80.65 132.3" />
</g>
</svg>
