<?xml version="1.0" encoding="utf-8"?>
<svg version="1.1" id="Layer_1"
xmlns="http://www.w3.org/2000/svg"
xmlns:xlink="http://www.w3.org/1999/xlink"
xmlns:author="http://www.sothink.com"
width="87px" height="65px"
xml:space="preserve">
<g id="93" transform="matrix(1, 0, 0, 1, 42.4, 30.25)">
<path style="fill:#333333;fill-opacity:1" d="M-5.15,-9.75L42.9 -9.75L42.9 16.85L-5.15 16.85L-5.15 32.8L-38.9 4.05L-5.15 -25.75L-5.15 -9.75" />
<path style="fill:none;stroke-width:3;stroke-linecap:round;stroke-linejoin:round;stroke-miterlimit:3;stroke:#333333;stroke-opacity:1" d="M-5.15,-9.75L42.9 -9.75L42.9 16.85L-5.15 16.85L-5.15 32.8L-38.9 4.05L-5.15 -25.75L-5.15 -9.75z" />
<path style="fill:#FFFF00;fill-opacity:1" d="M-7.15,-12.75L40.9 -12.75L40.9 13.85L-7.15 13.85L-7.15 29.8L-40.9 1.05L-7.15 -28.75L-7.15 -12.75" />
<path style="fill:none;stroke-width:3;stroke-linecap:round;stroke-linejoin:round;stroke-miterlimit:3;stroke:#336600;stroke-opacity:1" d="M-7.15,-12.75L40.9 -12.75L40.9 13.85L-7.15 13.85L-7.15 29.8L-40.9 1.05L-7.15 -28.75L-7.15 -12.75z" />
</g>
</svg>
