<?xml version="1.0" encoding="utf-8"?>
<svg version="1.1" id="Layer_1"
xmlns="http://www.w3.org/2000/svg"
xmlns:xlink="http://www.w3.org/1999/xlink"
xmlns:author="http://www.sothink.com"
width="259px" height="210px"
xml:space="preserve">
<g id="89" transform="matrix(1, 0, 0, 1, 129.55, 104.55)">
<path style="fill:#FF9999;fill-opacity:1" d="M40.2,-98.7Q51.15 -106.15 52.3 -94.1Q102.35 -69.35 109.85 -1.45Q112.75 7.75 122.5 14.65Q134 22.7 112.15 28.5Q98.35 29.65 85.7 42.85Q32.8 82.65 -4.5 90.55Q-16.9 93.2 -26.3 92Q-32.1 91.25 -35.15 89.45Q-39.1 87.2 -44.25 87.55Q-50.85 87.95 -55.9 92.95Q-63.35 107.3 -68.55 97.55Q-71 89.3 -73.3 86.45Q-75.1 84.15 -80.6 81.4Q-87.4 77.6 -93.85 69.15Q-100.1 61 -104.85 50Q-109.7 38.8 -112.1 26.8Q-114.6 14.15 -114 2.6Q-112.85 -15.25 -119.75 -27.35Q-128.75 -38.6 -125.85 -42.5Q-124.8 -43.95 -121.9 -44.6L-116.85 -45.2L-103.85 -45.9Q-94.7 -46.7 -90.4 -49.2Q-81.2 -57.25 -64.5 -63.6Q-30.55 -80.3 25.85 -90.05Q29.3 -91.2 40.2 -98.7" />
<path style="fill:none;stroke-width:6;stroke-linecap:round;stroke-linejoin:round;stroke-miterlimit:3;stroke:#000000;stroke-opacity:1" d="M40.2,-98.7Q51.15 -106.15 52.3 -94.1Q102.35 -69.35 109.85 -1.45Q112.75 7.75 122.5 14.65Q134 22.7 112.15 28.5Q98.35 29.65 85.7 42.85Q32.8 82.65 -4.5 90.55Q-16.9 93.2 -26.3 92Q-32.1 91.25 -35.15 89.45Q-39.1 87.2 -44.25 87.55Q-50.85 87.95 -55.9 92.95Q-63.35 107.3 -68.55 97.55Q-71 89.3 -73.3 86.45Q-75.1 84.15 -80.6 81.4Q-87.4 77.6 -93.85 69.15Q-100.1 61 -104.85 50Q-109.7 38.8 -112.1 26.8Q-114.6 14.15 -114 2.6Q-112.85 -15.25 -119.75 -27.35Q-128.75 -38.6 -125.85 -42.5Q-124.8 -43.95 -121.9 -44.6L-116.85 -45.2L-103.85 -45.9Q-94.7 -46.7 -90.4 -49.2Q-81.2 -57.25 -64.5 -63.6Q-30.55 -80.3 25.85 -90.05Q29.3 -91.2 40.2 -98.7z" />
<path style="fill:none;stroke-width:6;stroke-linecap:round;stroke-linejoin:round;stroke-miterlimit:3;stroke:#000000;stroke-opacity:1" d="M-124.95,-36.55Q-119.15 -29.65 -105.95 -25.6Q-70.85 -12.4 -64.5 66.45Q-64.5 80.25 -65.1 88.3Q-67.4 96.95 -63.95 100.4" />
<path style="fill:#FFFFFF;fill-opacity:1" d="M-74,-45.15Q-31.5 -31.65 -30 67.85L-59.5 79.45Q-104.4 44.45 -106.7 -33.35L-74 -45.15" />
<path style="fill:none;stroke-width:1;stroke-linecap:round;stroke-linejoin:round;stroke-miterlimit:3;stroke:#000000;stroke-opacity:1" d="M-74,-45.15Q-31.5 -31.65 -30 67.85L-59.5 79.45Q-104.4 44.45 -106.7 -33.35L-74 -45.15z" />
<path style="fill:#41FFFD;fill-opacity:1" d="M-119,-30.95Q-122.15 -33.35 -123.9 -35.35L-120.85 -32.7L-119 -30.95" />
<path style="fill:#FFCCCC;fill-opacity:1" d="M-124.5,-36.1L-124.85 -36.6Q-126.85 -39.6 -125.4 -41.75Q-123.55 -44.55 -116.85 -45.2L-103.85 -45.9Q-94.7 -46.7 -90.4 -49.2Q-81.2 -57.25 -64.5 -63.6Q-30.55 -80.3 25.85 -90.05Q29.3 -91.2 40.2 -98.7Q51.15 -106.15 52.3 -94.1Q102.35 -69.35 109.85 -1.45Q112.75 7.75 122.5 14.65Q134 22.7 112.15 28.5Q98.35 29.65 85.7 42.85Q32.8 82.65 -4.5 90.55Q-16.9 93.2 -26.3 92Q-32.1 91.25 -35.15 89.45Q-39.1 87.2 -44.25 87.55Q-50.85 87.95 -55.9 92.95Q-63.35 107.3 -65 97.7L-65.1 88.3Q-64.5 80.25 -64.5 66.45Q-70.85 -12.4 -105.95 -25.6Q-115.25 -28.45 -120.85 -32.7L-124.5 -36.1" />
<path style="fill:none;stroke-width:6;stroke-linecap:round;stroke-linejoin:round;stroke-miterlimit:3;stroke:#000000;stroke-opacity:1" d="M-120.85,-32.7Q-115.25 -28.45 -105.95 -25.6Q-70.85 -12.4 -64.5 66.45Q-64.5 80.25 -65.1 88.3L-65 97.7Q-63.35 107.3 -55.9 92.95Q-50.85 87.95 -44.25 87.55Q-39.1 87.2 -35.15 89.45Q-32.1 91.25 -26.3 92Q-16.9 93.2 -4.5 90.55Q32.8 82.65 85.7 42.85Q98.35 29.65 112.15 28.5Q134 22.7 122.5 14.65Q112.75 7.75 109.85 -1.45Q102.35 -69.35 52.3 -94.1Q51.15 -106.15 40.2 -98.7Q29.3 -91.2 25.85 -90.05Q-30.55 -80.3 -64.5 -63.6Q-81.2 -57.25 -90.4 -49.2Q-94.7 -46.7 -103.85 -45.9L-116.85 -45.2Q-123.55 -44.55 -125.4 -41.75Q-126.85 -39.6 -124.85 -36.6L-124.5 -36.1M-120.85,-32.7L-123.9 -35.35Q-122.15 -33.35 -119 -30.95M-124.85,-36.6L-123.9 -35.35L-124.5 -36.1" />
<path style="fill:none;stroke-width:4;stroke-linecap:round;stroke-linejoin:round;stroke-miterlimit:3;stroke:#000000;stroke-opacity:1" d="M43,47.35Q97 25.35 91 -13.65" />
<path style="fill:none;stroke-width:4;stroke-linecap:round;stroke-linejoin:round;stroke-miterlimit:3;stroke:#000000;stroke-opacity:1" d="M-2,-83.65Q44 -97.65 69 -68.65" />
<path style="fill:none;stroke-width:4;stroke-linecap:round;stroke-linejoin:round;stroke-miterlimit:3;stroke:#000000;stroke-opacity:1" d="M-45,89.35Q-42 57.35 -55 38.35" />
</g>
</svg>
