<?xml version="1.0" encoding="utf-8"?>
<svg version="1.1" id="Layer_1"
xmlns="http://www.w3.org/2000/svg"
xmlns:xlink="http://www.w3.org/1999/xlink"
xmlns:author="http://www.sothink.com"
width="84px" height="82px"
xml:space="preserve">
<g id="90" transform="matrix(1, 0, 0, 1, 26.65, 28.6)">
<path style="fill:#FFFFFF;fill-opacity:1" d="M15,-16.8Q20.1 -16.8 23.7 -12.95Q27.25 -9.05 27.3 -3.65Q27.25 1.8 23.7 5.65Q20.1 9.6 15 9.6L12.25 9.25Q11.5 11.35 9.8 13.05Q6.85 15.9 2.7 15.9Q0 15.85 -2.2 14.65Q-4.9 15.9 -8.1 15.9Q-14.1 15.9 -18.35 11.55Q-22.55 7.2 -22.5 1.1Q-22.55 -5 -18.35 -9.3Q-17.05 -10.65 -15.55 -11.6Q-15.25 -16.7 -11.5 -20.4Q-7.5 -24.45 -1.75 -24.45Q4 -24.45 8.05 -20.4Q9.8 -18.65 10.8 -16.5L11 -16.1L11.45 -16.25L15 -16.8M51.05,20.75Q54.45 23.6 54.45 27.6Q54.4 30.3 52.85 32.45Q53.65 34.6 53.7 37Q53.7 42.6 49.25 46.55Q44.8 50.45 38.6 50.5Q32.4 50.45 28 46.55Q23.5 42.6 23.55 37Q23.5 31.4 28 27.45Q29.75 25.85 31.8 24.9Q32.55 22.6 34.8 20.75Q38.15 18 42.9 18.05Q47.65 18 51.05 20.75" />
<path style="fill:#FFFFFF;fill-opacity:0.160784" d="M11,-23.3L13.05 -20.8L15 -20.95Q21.9 -21 26.75 -15.75Q31.4 -10.7 31.4 -3.65Q31.35 3.45 26.75 8.45L26.75 8.5L25.15 10L24.1 10.85Q20.1 13.75 15 13.7L14.6 13.7L12.65 16.05Q8.5 20 2.7 20Q0 20 -2.35 19.15Q-5.05 20 -8.1 20Q-15.85 20 -21.3 14.4Q-26.65 8.85 -26.65 1.1Q-26.65 -6.65 -21.3 -12.15L-21.3 -12.2L-19.45 -13.9Q-18.55 -19.25 -14.45 -23.3L-14.45 -23.35Q-9.2 -28.6 -1.75 -28.6Q5.7 -28.6 10.95 -23.35L11 -23.3M13.05,-20.8L12.15 -20.7L10.4 -22.75Q5.35 -27.8 -1.75 -27.75Q-8.85 -27.8 -13.85 -22.75Q-17.85 -18.7 -18.65 -13.45L-20.7 -11.6Q-25.8 -6.3 -25.8 1.1Q-25.8 8.5 -20.7 13.8L-20.7 13.85Q-15.5 19.2 -8.1 19.2Q-5.05 19.15 -2.3 18.25Q0 19.15 2.7 19.2Q8.15 19.15 12.05 15.45Q13.3 14.2 14.15 12.85L15 12.9Q21.55 12.9 26.15 7.9Q30.55 3.15 30.6 -3.65Q30.55 -10.4 26.15 -15.2Q21.55 -20.15 15 -20.1L13.55 -20.05L13.05 -20.8M13.1,-19.15L12.65 -19.4L11.85 -19.7L11.8 -19.75L12.65 -19.95L12.35 -20.45L13 -20.15L13.3 -20L12.65 -19.95L13.15 -19.15L13.1 -19.15M52.85,18.55Q57.35 22.3 57.3 27.6Q57.3 30.45 56 32.85Q56.55 34.85 56.55 37Q56.6 43.85 51.15 48.7Q45.95 53.35 38.6 53.35Q31.25 53.35 26.05 48.7L26.1 48.7Q20.6 43.85 20.65 37Q20.6 30.15 26.05 25.3Q27.7 23.8 29.55 22.8Q30.6 20.5 32.95 18.55L33 18.55Q37.05 15.15 42.9 15.15Q48.75 15.15 52.85 18.55M42.9,15.75Q37.25 15.75 33.35 19Q31 20.9 30 23.25Q28.1 24.2 26.45 25.7Q21.2 30.4 21.25 37Q21.2 43.6 26.45 48.25Q31.5 52.75 38.6 52.8Q45.7 52.75 50.8 48.25L50.75 48.25Q56 43.6 56 37Q55.95 34.8 55.4 32.8Q56.75 30.4 56.75 27.6Q56.75 22.55 52.5 19Q48.55 15.75 42.9 15.75" />
<path style="fill:#FFFFFF;fill-opacity:0.329412" d="M12.35,-20.45L12.65 -19.95L11.8 -19.75L9.8 -22.15Q5 -26.95 -1.75 -26.95Q-8.5 -26.95 -13.25 -22.15L-13.3 -22.15Q-17.2 -18.2 -17.9 -13L-20.1 -11.05Q-25 -6 -25 1.1Q-25 8.2 -20.1 13.25Q-15.15 18.35 -8.1 18.35Q-5 18.35 -2.3 17.35Q0 18.35 2.7 18.35Q7.85 18.35 11.5 14.85L13.75 12L15 12.05Q21.2 12.05 25.55 7.35Q29.75 2.8 29.75 -3.65Q29.75 -10.05 25.55 -14.6L25.55 -14.65Q21.15 -19.3 15 -19.3L13.15 -19.15L12.65 -19.95L13.3 -20L13.55 -20.05L15 -20.1Q21.55 -20.15 26.15 -15.2Q30.55 -10.4 30.6 -3.65Q30.55 3.15 26.15 7.9Q21.55 12.9 15 12.9L14.15 12.85Q13.3 14.2 12.05 15.45Q8.15 19.15 2.7 19.2Q0 19.15 -2.3 18.25Q-5.05 19.15 -8.1 19.2Q-15.5 19.2 -20.7 13.85L-20.7 13.8Q-25.8 8.5 -25.8 1.1Q-25.8 -6.3 -20.7 -11.6L-18.65 -13.45Q-17.85 -18.7 -13.85 -22.75Q-8.85 -27.8 -1.75 -27.75Q5.35 -27.8 10.4 -22.75L12.15 -20.7L12.35 -20.45M12.65,-19.4L13.1 -19.15L12.3 -19L11.85 -19.7L12.65 -19.4M11.65,-18.9L12.3 -19L12.6 -18.5L12.25 -18.65L11.65 -18.9M52.1,19.45Q48.3 16.3 42.9 16.3Q37.5 16.3 33.7 19.45Q31.4 21.3 30.45 23.65Q28.5 24.65 26.85 26.15Q21.8 30.65 21.8 37Q21.8 43.35 26.85 47.85Q31.7 52.2 38.6 52.2Q45.5 52.2 50.4 47.85Q55.4 43.35 55.4 37Q55.4 34.75 54.8 32.7Q56.15 30.4 56.15 27.6Q56.2 22.8 52.15 19.45L52.1 19.45M52.5,19Q56.75 22.55 56.75 27.6Q56.75 30.4 55.4 32.8Q55.95 34.8 56 37Q56 43.6 50.75 48.25L50.8 48.25Q45.7 52.75 38.6 52.8Q31.5 52.75 26.45 48.25Q21.2 43.6 21.25 37Q21.2 30.4 26.45 25.7Q28.1 24.2 30 23.25Q31 20.9 33.35 19Q37.25 15.75 42.9 15.75Q48.55 15.75 52.5 19" />
<path style="fill:#FFFFFF;fill-opacity:0.498039" d="M13.15,-19.15L15 -19.3Q21.15 -19.3 25.55 -14.65L25.55 -14.6Q29.75 -10.05 29.75 -3.65Q29.75 2.8 25.55 7.35Q21.2 12.05 15 12.05L13.75 12L11.5 14.85Q7.85 18.35 2.7 18.35Q0 18.35 -2.3 17.35Q-5 18.35 -8.1 18.35Q-15.15 18.35 -20.1 13.25Q-25 8.2 -25 1.1Q-25 -6 -20.1 -11.05L-17.9 -13Q-17.2 -18.2 -13.3 -22.15L-13.25 -22.15Q-8.5 -26.95 -1.75 -26.95Q5 -26.95 9.8 -22.15L11.8 -19.75L11.85 -19.7L12.3 -19L13.1 -19.15L13.15 -19.15M12.25,-18.65L12.6 -18.5L12.3 -19L11.65 -18.9L12.25 -18.65M11.85,-18.1Q10.8 -19.95 9.2 -21.6Q4.7 -26.1 -1.75 -26.1Q-8.2 -26.1 -12.7 -21.6Q-16.55 -17.7 -17.1 -12.5Q-18.4 -11.65 -19.5 -10.45Q-24.15 -5.65 -24.15 1.1Q-24.15 7.85 -19.5 12.7Q-14.8 17.55 -8.1 17.55Q-5 17.5 -2.25 16.5Q0 17.5 2.7 17.55Q7.5 17.5 10.95 14.25Q12.4 12.8 13.25 11.15L15 11.25Q20.8 11.25 24.95 6.8L24.9 6.8Q28.9 2.5 28.95 -3.65Q28.9 -9.7 24.95 -14.05L24.9 -14.05Q20.8 -18.5 15 -18.45L11.85 -18.1M51.75,19.85Q48.1 16.85 42.9 16.9Q37.7 16.85 34.05 19.85L34.05 19.9Q31.8 21.75 30.9 24.05Q28.9 25.05 27.2 26.6Q22.35 30.9 22.4 37Q22.35 43.1 27.2 47.4Q31.95 51.6 38.6 51.65Q45.25 51.6 50 47.4Q54.85 43.1 54.85 37Q54.85 34.7 54.15 32.6Q55.55 30.35 55.6 27.6Q55.6 23.05 51.75 19.9L51.75 19.85M52.15,19.45Q56.2 22.8 56.15 27.6Q56.15 30.4 54.8 32.7Q55.4 34.75 55.4 37Q55.4 43.35 50.4 47.85Q45.5 52.2 38.6 52.2Q31.7 52.2 26.85 47.85Q21.8 43.35 21.8 37Q21.8 30.65 26.85 26.15Q28.5 24.65 30.45 23.65Q31.4 21.3 33.7 19.45Q37.5 16.3 42.9 16.3Q48.3 16.3 52.1 19.45L52.15 19.45" />
<path style="fill:#FFFFFF;fill-opacity:0.831373" d="M11.45,-16.25L11 -16.1L10.8 -16.5Q9.8 -18.65 8.05 -20.4Q4 -24.45 -1.75 -24.45Q-7.5 -24.45 -11.5 -20.4Q-15.25 -16.7 -15.55 -11.6Q-17.05 -10.65 -18.35 -9.3Q-22.55 -5 -22.5 1.1Q-22.55 7.2 -18.35 11.55Q-14.1 15.9 -8.1 15.9Q-4.9 15.9 -2.2 14.65Q0 15.85 2.7 15.9Q6.85 15.9 9.8 13.05Q11.5 11.35 12.25 9.25L15 9.6Q20.1 9.6 23.7 5.65Q27.25 1.8 27.3 -3.65Q27.25 -9.05 23.7 -12.95Q20.1 -16.8 15 -16.8L11.45 -16.25M15,-17.65Q20.45 -17.65 24.3 -13.5L24.35 -13.5Q28.1 -9.4 28.1 -3.65Q28.1 2.15 24.3 6.25L24.35 6.25Q20.45 10.4 15 10.4L12.75 10.2Q11.95 12.1 10.35 13.65Q7.15 16.7 2.7 16.7Q0 16.7 -2.25 15.6Q-4.95 16.7 -8.1 16.7Q-14.45 16.7 -18.9 12.1L-18.95 12.1Q-23.35 7.5 -23.35 1.1Q-23.35 -5.3 -18.95 -9.9L-18.9 -9.9Q-17.7 -11.15 -16.35 -12.05Q-15.9 -17.2 -12.1 -21Q-7.85 -25.3 -1.75 -25.3Q4.35 -25.3 8.65 -21Q10.3 -19.3 11.35 -17.25L11.55 -17.2L11.6 -17.15L15 -17.65M51.4,20.35Q55 23.35 55 27.6Q55 30.3 53.5 32.55Q54.25 34.65 54.25 37Q54.25 42.85 49.6 46.95L49.65 46.95Q45.05 51.05 38.6 51.05Q32.15 51.05 27.6 46.95Q22.95 42.85 22.95 37Q22.95 31.15 27.6 27Q29.3 25.45 31.35 24.45Q32.2 22.15 34.45 20.35L34.45 20.3Q37.9 17.45 42.9 17.45Q47.9 17.45 51.4 20.3L51.4 20.35M42.9,18.05Q38.15 18 34.8 20.75Q32.55 22.6 31.8 24.9Q29.75 25.85 28 27.45Q23.5 31.4 23.55 37Q23.5 42.6 28 46.55Q32.4 50.45 38.6 50.5Q44.8 50.45 49.25 46.55Q53.7 42.6 53.7 37Q53.65 34.6 52.85 32.45Q54.4 30.3 54.45 27.6Q54.45 23.6 51.05 20.75Q47.65 18 42.9 18.05" />
<path style="fill:#FFFFFF;fill-opacity:0.662745" d="M15,-18.45Q20.8 -18.5 24.9 -14.05L24.95 -14.05Q28.9 -9.7 28.95 -3.65Q28.9 2.5 24.9 6.8L24.95 6.8Q20.8 11.25 15 11.25L13.25 11.15Q12.4 12.8 10.95 14.25Q7.5 17.5 2.7 17.55Q0 17.5 -2.25 16.5Q-5 17.5 -8.1 17.55Q-14.8 17.55 -19.5 12.7Q-24.15 7.85 -24.15 1.1Q-24.15 -5.65 -19.5 -10.45Q-18.4 -11.65 -17.1 -12.5Q-16.55 -17.7 -12.7 -21.6Q-8.2 -26.1 -1.75 -26.1Q4.7 -26.1 9.2 -21.6Q10.8 -19.95 11.85 -18.1L15 -18.45M11.6,-17.15L11.55 -17.2L11.35 -17.25Q10.3 -19.3 8.65 -21Q4.35 -25.3 -1.75 -25.3Q-7.85 -25.3 -12.1 -21Q-15.9 -17.2 -16.35 -12.05Q-17.7 -11.15 -18.9 -9.9L-18.95 -9.9Q-23.35 -5.3 -23.35 1.1Q-23.35 7.5 -18.95 12.1L-18.9 12.1Q-14.45 16.7 -8.1 16.7Q-4.95 16.7 -2.25 15.6Q0 16.7 2.7 16.7Q7.15 16.7 10.35 13.65Q11.95 12.1 12.75 10.2L15 10.4Q20.45 10.4 24.35 6.25L24.3 6.25Q28.1 2.15 28.1 -3.65Q28.1 -9.4 24.35 -13.5L24.3 -13.5Q20.45 -17.65 15 -17.65L11.6 -17.15M51.75,19.9Q55.6 23.05 55.6 27.6Q55.55 30.35 54.15 32.6Q54.85 34.7 54.85 37Q54.85 43.1 50 47.4Q45.25 51.6 38.6 51.65Q31.95 51.6 27.2 47.4Q22.35 43.1 22.4 37Q22.35 30.9 27.2 26.6Q28.9 25.05 30.9 24.05Q31.8 21.75 34.05 19.9L34.05 19.85Q37.7 16.85 42.9 16.9Q48.1 16.85 51.75 19.85L51.75 19.9M51.4,20.3Q47.9 17.45 42.9 17.45Q37.9 17.45 34.45 20.3L34.45 20.35Q32.2 22.15 31.35 24.45Q29.3 25.45 27.6 27Q22.95 31.15 22.95 37Q22.95 42.85 27.6 46.95Q32.15 51.05 38.6 51.05Q45.05 51.05 49.65 46.95L49.6 46.95Q54.25 42.85 54.25 37Q54.25 34.65 53.5 32.55Q55 30.3 55 27.6Q55 23.35 51.4 20.35L51.4 20.3" />
</g>
</svg>
