<?xml version="1.0" encoding="utf-8"?>
<svg version="1.1" id="Layer_1"
xmlns="http://www.w3.org/2000/svg"
xmlns:xlink="http://www.w3.org/1999/xlink"
xmlns:author="http://www.sothink.com"
width="367px" height="191px"
xml:space="preserve">
<g id="94" transform="matrix(1, 0, 0, 1, 183.05, 95.45)">
<path style="fill:#000000;fill-opacity:1" d="M156.85,-5L167.15 8.05L169.9 15.95L177.9 17.4L182.25 21.6L183 41.95L178.5 51.4L175.1 55.75L175.1 57.8L168.45 61.55L166.3 65.2L162.65 65.8L157.7 69.55L151.9 69.55L147.5 73.05L144 73.05L142.45 75.35L141 76.8L137.5 76.1L135.3 76.1L132.4 78.9L125.75 78.9L124.4 81.05L116.4 80.35L114.35 82.65L104.9 83.95L101.9 83.95L97.65 85.4L93.9 83.95L91.85 83.95L88.8 86.15L80.2 85.4L76 88.3L52.75 89.65L46.95 91.2L39.65 89.65L35.3 91.95L25.25 92.7L22.5 94.15L16.7 93.4L13.65 95.45L-11.55 94.75L-12.25 94.15L-17.35 95.45L-24.6 95.45L-27.5 93.4L-34.75 94.75L-52.1 94.15L-62.25 93.4L-75.9 93.4L-77.5 91.95L-87.55 94.75L-94.8 92.7L-106.4 92.7L-109.2 91.2L-119.4 91.2L-120 90.5L-127.25 92.7L-134.5 91.95L-138.25 89.65L-146.85 89.65L-149.05 88.3L-156.9 88.9L-163.55 86.85L-164.9 88.3L-172.15 85.4L-176.65 78.9L-181.6 55.05L-183.05 33.35L-175.2 -39L-168.5 -69.4L-161.4 -75.8L-140.3 -82.35L-120.85 -81.65L-107.75 -75.1L-96.15 -61.4L-94.1 -57.05L-83.05 -57.05L-73 -57.8L-67.2 -67.25L-47 -83.95L-31.15 -94L-27.5 -95.45L-17.35 -93.25L-4.25 -85.25L8.7 -71.6L12.9 -63.6L15.85 -60.7L20.9 -62.85L24.55 -59.95L25.25 -56.45L28.05 -55L28.9 -51.25L39.05 -44.7L41.85 -46.3L46.95 -46.3L49.1 -44L52.75 -43.4L54.95 -41.2L54.95 -39L65.8 -33.95L68.7 -35.4L75.25 -34.65L78.05 -28.85L83.15 -30.3L90.5 -28.85L93.3 -23.05L101.9 -20.15L130.2 -16.65L149.7 -10.8L156.85 -5" />
<path style="fill:#FF9999;fill-opacity:1" d="M-52.8,-69.4L-57.15 -59.25L-57.15 -48.35L-54.25 -43.4L-54.25 -39L-53.4 -38.3L-59.2 -37.55L-61.5 -37.55L-68.8 -46.3L-68.8 -58.5L-61.5 -68.7L-33.3 -91.05L-30.3 -91.9L-28.95 -91.9L-52.8 -69.4" />
<path style="fill:#8CC4D1;fill-opacity:1" d="M-10.9,-54.25L-22.3 -51.25L-48.45 -39.75L-52.8 -51.95L-50.6 -60.7L-47.85 -67.85L-38.3 -78.1L-26.05 -89.6L-23.15 -91.05L-15.9 -88.9L0.7 -75.1L11.45 -59.25L7.25 -57.05L6.4 -56.45L3.6 -62.25L-0.75 -64.3L-2.2 -62.85L3.6 -55.6L3.6 -55L-6.45 -61.4L-10.05 -62.85L-11.55 -62.85L-13 -61.4L-5.7 -57.05L-0.05 -52.6Q-1.1 -51.9 -2.2 -51.25L-2.95 -50.5L-4.25 -52.6L-10.9 -54.25" />
<path style="fill:#FF9999;fill-opacity:1" d="M-92.65,-47.75L-78.1 -38.3L-75.2 -37.55L-74.45 -36.7L-91.15 -37.55L-99.15 -41.95L-109.2 -53.55L-113.55 -61.4L-125.8 -73.05L-131 -75.1L-161.4 -73.05L-149.75 -77.4L-138.85 -79.45L-124.45 -78.85L-111.4 -73.05L-97.6 -55L-92.65 -47.75" />
<path style="fill:#8CC4D1;fill-opacity:1" d="M7.25,-8.75L-35.35 6.5L-70.25 15.95L-78.1 16.65L-80.3 16.65L-81.75 18.1L-84.75 17.4L-104.1 2.25L-142.5 -32.5L-149.75 -34.65L-159.95 -33.95L-174.45 -25.95L-169.95 -49.8L-151.1 -52.6L-149.75 -54.25L-138.85 -54.25L-137.55 -55.6L-139.7 -65.75L-142.5 -67.85L-164.15 -62.25L-166.35 -62.25L-166.35 -68.7L-159.2 -70.85L-151.1 -71.6L-131.7 -70.85L-123.75 -65.05L-115 -55L-112.1 -48.35L-99.9 -36.7L-90.35 -33.2L-61.5 -31.75L-60.65 -32.5L-52.1 -34.65L-47.85 -26.65L-37.55 -20.15L-10.9 -12.9L-8.75 -12.9L-7.15 -11.55L-1.5 -11.55L7.25 -8.75" />
<path style="fill:#FF9999;fill-opacity:1" d="M-143.2,-59.95L-149.05 -57.05L-168.5 -52.6L-168.5 -58.5L-147.6 -64.3L-144.65 -64.3L-143.2 -59.95" />
<path style="fill:#669999;fill-opacity:1" d="M21.5,-59.25L23.1 -57.8L23.1 -55.6L2.9 -40.45L-2.95 -43.4L0.7 -49.8L12.9 -57.05L15.85 -57.05L18.75 -59.95L20.9 -59.25L21.5 -59.25" />
<path style="fill:#993366;fill-opacity:1" d="M-76.65,-54.25L-70.85 -40.45L-83.9 -47L-89.7 -52.6L-83.9 -55.6L-78.1 -54.25L-76.65 -54.25" />
<path style="fill:#669999;fill-opacity:1" d="M25.25,-53.55L24.55 -39L23.8 -37.55L23.8 -36.1L20.2 -36.1L18.75 -39L19.45 -47.75L25.25 -53.55" />
<path style="fill:#758C8C;fill-opacity:1" d="M77.3,-26.65L76.6 -23.9L69.45 -12.9L70.05 -11.55L72.25 -9.35L82.4 -6.45L85.3 -10.2L87.5 -7.9L86.75 -2.2L77.3 5.05L66.4 8.65L49.1 11.6L46.35 1.4L41.85 -2.2L14.5 -10.8L-23.85 -19.55L-36.85 -23.9L-42.65 -27.4L-47.85 -34.65L-47.85 -36.1L-34.75 -41.2L-14.45 -49.8L-5.1 -48.35L-7.9 -44.7L-7.9 -43.4L2.15 -36.1L7.25 -39L10 -41.95L11.45 -41.95L10.75 -39L7.25 -31.75L8.7 -28.15L13.65 -22.3L26 -19.55L39.65 -15.05L61.45 -6.45L64.95 -7.9L65.8 -7.9L70.05 -16.65L69.45 -20.85L75.25 -26.65L77.3 -26.65" />
<path style="fill:#669999;fill-opacity:1" d="M32.55,-46.3L34.6 -44L28.9 -39L29.65 -47L31.8 -46.3L32.55 -46.3" />
<path style="fill:#669999;fill-opacity:1" d="M15.2,-43.4L13.65 -43.4L12.9 -44L15.85 -46.3L15.2 -45.45L15.2 -43.4" />
<path style="fill:#669999;fill-opacity:1" d="M33.85,-31.75L31.1 -32.5L28.9 -34.65L36.9 -41.2L39.05 -41.2L41.15 -43.4L44.9 -42.55L33.85 -31.75" />
<path style="fill:#669999;fill-opacity:1" d="M52.15,-38.3L52.75 -24.5L49.1 -24.5L46.95 -28.85L46.35 -38.3L48.4 -41.95L49.85 -41.95L52.15 -38.3" />
<path style="fill:#99CCCC;fill-opacity:1" d="M60,-11.55L23.1 -24.5L15.2 -26.65L12.2 -29.6L12.2 -36.1L14.5 -39.75L16.7 -33.95L21.5 -32.5L26 -32.5L32.55 -28.15L36.9 -28.15L39.05 -31.75L41.85 -33.95L44.05 -23.9L49.1 -20.85L54.95 -20.85L62.2 -15.9L64.25 -15.9L65.8 -18.1L66.4 -18.7L65.8 -14.35L63.65 -11.55L60 -11.55" />
<path style="fill:#669999;fill-opacity:1" d="M56.4,-34.65L62.9 -33.2L57.1 -27.4L56.4 -34.65" />
<path style="fill:#669999;fill-opacity:1" d="M73.7,-31.75L72.95 -28.85L62.9 -19.55L57.85 -23.05L61.45 -28.15L69.45 -33.95L72.25 -33.2L73.7 -31.75" />
<path style="fill:#336699;fill-opacity:1" d="M-148.3,-30.3L-138.85 -23.05L-97.6 14.5L-70.85 30.45L-57.9 36.15L-46.4 40.5L-39.85 41.95L-62.95 39.8L-83.05 33.95L-119.4 15.95L-126.65 13.65L-141.05 13.65L-150.5 16.65L-154.85 21.6L-157.75 34.7L-162.1 36.85L-171.4 36.85L-178.7 34.7L-179.4 34.7L-178.7 13.05L-174.45 -20.15L-174.45 -22.3L-160.65 -30.3L-158.35 -31.15L-148.3 -30.3" />
<path style="fill:#669999;fill-opacity:1" d="M88.1,-20.85L83.85 -12.9L80.85 -10.2L75.25 -12.9L75.25 -15.9L83.15 -28.15L88.1 -26.65L88.1 -20.85" />
<path style="fill:#FF9999;fill-opacity:1" d="M96.8,-15.9L99.1 -17.35L109.15 -17.35L109.15 -9.35L93.3 4.3L78.05 9.4L86.75 3.6L91.85 -2.95L91.85 -10.2L88.1 -12.25L91.85 -20.15L95.45 -20.15L96.8 -15.9" />
<path style="fill:#8CC4D1;fill-opacity:1" d="M133,-12.25L133 -0.75L137.5 8.65L142.45 13.05L130.8 20.9L109.15 28.9L62.9 36.85L60.75 36.85L76 17.4L77.3 13.05L91.85 8.65L101.9 2.85L112.8 -9.35L114.35 -16.65L129.5 -13.7L133 -12.25" />
<path style="fill:#758C8C;fill-opacity:1" d="M151.9,-5L151.9 -2.2L146.05 8.65L144 10.85L139.55 4.3L137.5 -2.95L137.5 -11.55L146.05 -8.75L151.9 -5" />
<path style="fill:#FF9999;fill-opacity:1" d="M22.5,-4.4L24.55 -2.2L36.05 0.1L39.65 1.4L42.6 5.05L44.05 13.05L44.05 13.65L46.35 15.95L55.65 13.65L73.7 10.25L72.25 16.65L56.4 36.15Q54.95 36.95 53.45 37.7L36.9 36.85L32.55 26.7L32.55 24.65L35.3 20.9L36.05 14.5L31.1 8.05L28.9 6.5L20.2 5.05L0.7 8.65L-44.1 26.1L-57.9 31.9L-79.55 20.3L-52.8 14.5L-44.8 11.6L-42.05 11.6L-18.05 3.6L11.45 -7.2L21.5 -3.55L22.5 -4.4" />
<path style="fill:#336699;fill-opacity:1" d="M167.15,19.45L166.3 38.45L164.1 42.7L159.85 46.3L154.65 45L127.3 52.85L81.7 60.1L33.25 64.35L-8.75 65.2L-47.85 64.35L-37.55 57.2L5.05 23.2L16.7 18.85L20.9 18.85L28.05 26.7L31.8 38.45L35.3 41.95L69.45 41.35L110.6 32.5L117.75 30.45L121.5 30.45L137.5 22.45L148.25 13.05L154.65 0.8L160.45 5.05L167.15 19.45" />
<path style="fill:#75A3AD;fill-opacity:1" d="M31.8,15.2L31.1 21.6L29.65 21.6L23.1 15.2L12.9 15.2L-0.05 21.6L-24.6 41.95L-50.6 34.7L-52.1 33.35L-46.4 29.75L-28.95 23.9L3.6 11.6L15.85 9.4L26.7 10.25L31.8 15.2" />
<path style="fill:#758C8C;fill-opacity:1" d="M-104.1,28.3L-94.1 33.95L-73.75 41.95L-44.1 45.6L-29.55 45.6L-28.95 46.3L-48.45 60.1L-57.15 64.35L-103.4 59.4L-129.55 57.8L-170.7 53.6L-179.4 49.95L-180.15 39.15L-167.9 40.5L-157.75 39.15L-153.4 34.7L-150.5 22.45L-144.65 18.1L-140.3 17.4L-124.45 18.1L-104.1 28.3" />
<path style="fill:#808080;fill-opacity:1" d="M180.2,25.25L178.5 44.15L174.25 52L169.2 57.8L167.15 57.2L164.1 63L160.45 62.3L158.4 66.55L156.1 67.4L154.65 67.4L153.35 65.8L167.15 56.5L177.2 43.4L178.5 34.7L177.2 25.25L174.25 19.45L177.9 20.3L180.2 25.25" />
<path style="fill:#CCD1D1;fill-opacity:1" d="M174.25,41.95L162.05 56.5L144 65.2L113.5 73.05L20.9 84.7L-59.2 85.4L-66.5 83.95L-91.9 83.25L-106.4 81.65L-143.95 81.05L-150.5 78.9L-173.6 77.45L-179.4 56.5L-178.7 54.3L-171.4 57.2L-122.3 62.3L-92.65 64.35L-65.9 67.4L-56.45 68.85L31.8 68.85L70.05 65.2L101.15 61.55L103.35 60.1L111.95 59.4L132.4 55.05L136 55.05L143.3 52L149 50.55L154.65 50.55L162.05 48.5L168.45 43.4L172.1 36.15L172.95 23.2L175.75 28.9L174.25 41.95" />
<path style="fill:#808080;fill-opacity:1" d="M146.8,70.9L143.3 70.15L139.55 74.4L136 73.8L133.7 73.8L131.55 76.8L125 75.35L122.95 78.9L117.15 78.25L116.4 77.45L110.6 81.05L104.05 81.05L103.35 80.35L99.7 82.65L95.45 82.65L93.9 81.05L91.1 81.05L88.1 83.95L81.7 83.25L81.7 82.65L80.85 81.65L127.3 74.4L142.45 69.55L150.45 66.55L149.7 68.85L146.8 70.9" />
<path style="fill:#808080;fill-opacity:1" d="M-16.75,93.4L-23.15 93.4L-28.1 90.5L-33.9 93.4L-37.55 91.95L-50.6 91.95L-52.1 90.5L-58.6 91.95L-61.5 91.95L-62.95 89.65L-72.3 91.95L-75.9 89.65L-89 91.95L-93.35 89.65L-99.9 91.2L-104.1 90.5L-106.4 88.3L-114.4 88.9L-121.55 86.85L-125.2 89.65L-133.05 89.65L-135.25 88.3L-145.5 87.6L-148.3 84.7L-155.55 86.85L-162.7 83.95L-165.6 85.4L-169.95 83.95L-171.4 82.65L-170.7 81.05L-148.3 83.95L-142.5 85.4L-127.95 85.4L-81 88.3L-65.05 87.6L-53.4 89.65L-1.5 89.65L39.05 87.6L34.6 90.5L30.35 90.5L28.9 88.9L20.9 92.7L16.7 90.5L12.9 93.4L5.65 93.4L3.6 91.2L-2.2 93.4L-10.05 92.7L-11.55 91.2L-14.45 91.2L-16.75 93.4" />
<path style="fill:#808080;fill-opacity:1" d="M51.15,85.4L72.95 83.25L77.3 81.65L79.5 81.65L76.6 85.4L73.7 86.85L68 85.4L67.25 84.7L64.95 86.85L56.4 86.85L55.65 86.15L53.45 86.15L49.85 88.9L44.05 88.9L42.6 86.85L47.8 85.4L51.15 85.4" />
<path style="fill:#8CC4D1;fill-opacity:1" d="M7.25,-8.75L-35.35 6.5L-70.25 15.95L-78.1 16.65L-80.3 16.65L-81.75 18.1L-84.75 17.4L-104.1 2.25L-142.5 -32.5L-149.75 -34.65L-159.95 -33.95L-174.45 -25.95L-171.4 -42.4L-170.7 -43.15L-169.95 -43.5L-169.25 -44L-158.45 -47.75L-149.9 -48.7L-142.35 -47.85L-135.5 -45.3L-129.05 -41.95L-115.6 -33.35L-107.75 -29.1L-105.8 -27.15L-97 -21.85L-77.5 -11.8L-76.15 -10.45L-68.4 -11.9L-60.8 -15.4L-44.8 -24.75L-37.55 -20.15L-10.9 -12.9L-8.75 -12.9L-7.15 -11.55L-1.5 -11.55L7.25 -8.75" />
<path style="fill:#87BDC9;fill-opacity:1" d="M-7.15,-11.55L-1.5 -11.55L-0.5 -11.3L7.25 -8.75L-35.35 6.5L-70.25 15.95L-71.3 15.95L-73.25 16.2L-75.3 16.3L-78.1 16.65L-80.3 16.65L-81.75 18.1L-82.45 17.85L-83.2 17.75L-83.9 17.5L-84.65 17.4L-101.85 4.05L-142.5 -32.5L-143.45 -32.85L-146.15 -33.55L-147.95 -34.2L-149.75 -34.65L-151.1 -34.65L-156.15 -34.3L-159.95 -33.95L-174.35 -25.95L-171.4 -42.4L-170.8 -42.75L-169.75 -42.55L-169 -42.55L-158.95 -46.05L-150.25 -46.75L-142.75 -45.55L-135.7 -42.65L-129.3 -38.9L-115.6 -29.7L-107.75 -25.35L-105.8 -23.4L-96.6 -18.2L-76.55 -8.5L-75.2 -7.2L-71.45 -7.55L-67.7 -8.4L-60.55 -11.4L-45.55 -20.15L-39.85 -17.95L-36.35 -16.4L-11.05 -12.25L-9.95 -12.65L-8.75 -12.9L-7.15 -11.55" />
<path style="fill:#82B5C2;fill-opacity:1" d="M-8.75,-12.9L-7.15 -11.55L-1.5 -11.55L-0.5 -11.3L7.25 -8.75L-35.35 6.5L-70.25 15.95L-71.3 15.95L-73.25 16.2L-75.3 16.3L-78.1 16.65L-80.3 16.65L-81.75 18.1L-82.45 17.85L-83.2 17.75L-83.9 17.5L-84.65 17.4L-101.85 4.05L-142.5 -32.5L-143.45 -32.85L-147.95 -34.2L-149.75 -34.65L-151.1 -34.65L-156.15 -34.3L-159.95 -33.95L-174.35 -25.95L-171.4 -42.4L-170.95 -42.55L-170.45 -41.95L-170.1 -41.3L-169.5 -40.95L-159.45 -44.25L-150.6 -44.85L-143 -43.25L-135.95 -40L-115.6 -25.95L-107.75 -21.45L-105.8 -19.55L-75.8 -5.15L-74.35 -3.8L-67.1 -4.9L-60.45 -7.45L-46.15 -15.4L-44.8 -15.2L-35.25 -12.65L-11.3 -11.55Q-10 -12.2 -8.75 -12.9" />
<path style="fill:#80B0BD;fill-opacity:1" d="M-7.15,-11.55L-1.5 -11.55L-0.5 -11.3L7.25 -8.75L-35.35 6.5L-70.25 15.95L-71.3 15.95L-73.25 16.2L-75.3 16.3L-78.1 16.65L-80.3 16.65L-81.75 18.1L-82.45 17.85L-83.2 17.75L-83.9 17.5L-84.65 17.4L-101.85 4.05L-142.5 -32.5L-147.95 -34.2L-149.75 -34.65L-151.1 -34.65L-156.15 -34.3L-159.95 -33.95L-174.35 -25.95L-171.4 -42.4L-171.2 -42.65L-170.95 -42.3L-170.8 -41.8L-170.7 -41.1L-170.7 -40.45L-170.6 -39.85L-170.35 -39.5L-169.95 -39.25L-159.95 -42.55L-151.1 -42.75L-143.35 -40.95L-136.2 -37.35L-115.6 -22.45L-107.75 -17.85L-105.7 -15.9L-96 -11.05L-78.45 -3.7L-74.85 -1.85L-73.4 -0.55L-69.75 -0.75L-66.35 -1.4L-60.3 -3.45L-46.85 -10.8L-39 -9.85L-34.05 -9L-11.55 -10.95L-10.9 -11.55L-10.2 -11.9L-9.45 -12.5L-8.75 -12.9L-7.15 -11.55" />
<path style="fill:#78A8B5;fill-opacity:1" d="M-7.15,-11.55L-1.5 -11.55L-0.5 -11.3L7.25 -8.75L-35.35 6.5L-70.25 15.95L-71.3 15.95L-73.25 16.2L-75.3 16.3L-78.1 16.65L-80.3 16.65L-81.75 18.1L-82.45 17.85L-83.2 17.75L-83.9 17.5L-84.65 17.4L-101.85 4.05L-142.5 -32.5L-147.95 -34.2L-149.75 -34.65L-151.1 -34.65L-156.15 -34.3L-159.95 -33.95L-174.35 -25.95L-171.4 -42.4L-171.2 -42.55L-171.05 -42.05L-170.95 -38.4L-170.8 -37.95L-170.45 -37.7L-160.4 -40.85L-151.45 -40.85L-143.6 -38.65L-136.45 -34.65L-115.75 -18.8L-107.75 -14.1L-105.7 -12.25L-89.25 -4.9L-74 1.3L-72.4 2.6L-65.75 2L-60.3 0.45L-47.6 -6.1L-38.4 -5.75L-36.6 -5.5L-34.75 -5.5L-32.85 -5.25L-11.75 -10.2L-9.6 -12.25L-8.75 -12.9L-7.15 -11.55" />
<path style="fill:#75A3AD;fill-opacity:1" d="M7.25,-8.75L-35.35 6.5L-70.25 15.95L-78.1 16.65L-80.3 16.65L-81.75 18.1L-84.75 17.4L-104.1 2.25L-142.5 -32.5L-149.75 -34.65L-159.95 -33.95L-174.45 -25.95L-171.4 -42.4L-171.2 -42.55L-171.05 -41.8L-171.05 -39.5L-171.2 -38.3L-171.2 -36.35L-170.8 -36.1L-160.75 -39.15L-151.8 -38.9L-143.95 -36.35L-136.7 -31.9L-123 -20.6L-115.75 -15.2L-107.75 -10.45L-105.7 -8.65L-101.2 -6.35L-73 4.7L-71.45 6L-65.05 5.65L-60.2 4.55L-48.3 -1.5L-31.75 -1.5L-12 -9.5L-8.75 -12.9L-7.15 -11.55L-1.5 -11.55L7.25 -8.75" />
<path style="fill:#8CC4D1;fill-opacity:1" d="M128.05,-11.55L129.1 -11.4L130.1 -11.4L133 -10.8L133 -0.75L137.5 8.65L142.45 13.05L130.8 20.9L109.15 28.9L62.9 36.85L60.75 36.85L76 17.4L76.6 15.35L91.85 15.1L99.45 13.65L102.15 12.3L103.85 10.6L105.5 9.75L108.3 7.6L111.55 4.45L121.4 -6.7L124.75 -11.55L128.05 -11.55" />
<path style="fill:#87BDC9;fill-opacity:1" d="M124.75,-6.7L126.8 -7.2L128.75 -7.9L129.6 -8.4L130.6 -8.75L131.4 -8.9L132.4 -8.75L132.5 -5.85L132.65 -4.75L132.75 -2.85L133 -0.75L134.55 2.75L136.75 7.45L137.5 8.65L138.55 9.75L142.45 13.05L130.8 20.9L109.15 28.9L62.9 36.85L60.75 36.85L75.25 18.6L76.35 17.85L92.45 17.5L100.55 16.05L103.45 14.7L105.15 13.05L106.85 12.2L109.4 10.35L115.8 4.45L121.6 -2.2L124.75 -6.7" />
<path style="fill:#82B5C2;fill-opacity:1" d="M128.3,-4.4L129 -5.5L129.85 -6.2L130.7 -6.7L131.65 -6.7L131.65 -6L131.9 -5.25L132.4 -3.05L132.65 -2.35L132.75 -1.6L133 -0.75L134.55 2.75L136.75 7.45L137.5 8.65L138.55 9.75L142.45 13.05L130.8 20.9L109.15 28.9L62.9 36.85L60.75 36.85L74.55 19.95L76.1 20.4L93.05 20.05L101.75 18.6L104.9 17.25L106.6 15.55L108.2 14.85L110.6 13.25L116.4 8.2L123.45 -0.05L124.5 -1.75L125.5 -2L126.6 -2.6L128.3 -4.4" />
<path style="fill:#80B0BD;fill-opacity:1" d="M129.1,-3.7L129.85 -4.4L130.8 -4.5L132.4 -1.85L134.55 2.75L136.75 7.45L137.5 8.65L138.55 9.75L142.45 13.05L130.8 20.9L109.15 28.9L62.9 36.85L60.75 36.85L73.8 21.25L76 22.95L93.55 22.6L102.85 21L106.15 19.7L107.95 18L109.5 17.4L111.7 16.05L117 11.8L123.55 4.7L124.5 3.1L125.5 2.6L126.35 1.75L127.9 -0.9L129.1 -3.7" />
<path style="fill:#78A8B5;fill-opacity:1" d="M130.2,-2.45L131.55 -1.6L132.25 -1.25L133 -0.75L134.55 2.75L136.75 7.45L137.5 8.65L138.55 9.75L142.45 13.05L130.8 20.9L109.15 28.9L62.9 36.85L60.75 36.85L73.1 22.6L75.6 25.6L94.15 25.15L103.95 23.55L107.45 22.1L109.4 20.4L110.85 19.95L112.9 18.85L117.65 15.45L122 11.35L124.4 8.05L125.25 7.45L126.1 6.25L127.45 2.6L127.9 0.55L128.65 -1.15L129.35 -2.2L130.2 -2.45" />
<path style="fill:#75A3AD;fill-opacity:1" d="M133,-0.75L137.5 8.65L142.45 13.05L130.8 20.9L109.15 28.9L62.9 36.85L60.75 36.85L72.5 23.8L75.4 28.3L94.75 27.7L105.15 26.1L108.8 24.65L110.85 22.95L112.3 22.6L118.35 19.2L122 15.95L124.15 13.05L125.15 12.3L126 10.85L128.05 1.4L128.65 -0.05L129.5 -0.3L133 -0.75" />
<path style="fill:#8CC4D1;fill-opacity:1" d="M-8.5,-75.1L1.9 -73.3L11.45 -59.25L7.25 -57.05L6.4 -56.45L3.6 -62.25L-0.75 -64.3L-2.2 -62.85L3.6 -55.6L3.6 -55L-6.45 -61.4L-10.05 -62.85L-11.55 -62.85L-13 -61.4L-5.7 -57.05L-0.05 -52.6Q-1.1 -51.9 -2.2 -51.25L-2.95 -50.5L-4.25 -52.6L-10.9 -54.25L-22.3 -51.25L-47.25 -40.35L-48.2 -40.95L-49.05 -41.3L-52.8 -51.95L-50.6 -60.7L-47.95 -67.6L-45.8 -67.25L-32.95 -60.7L-30.15 -59.85L-27 -59.35L-25.1 -62.5L-24 -66L-23.5 -73.5L-20.95 -74.35L-15.05 -75.1L-8.5 -75.1" />
<path style="fill:#87BDC9;fill-opacity:1" d="M-7.8,-73.75L2.15 -71.8L11.45 -59.25L8.2 -57.65L7.25 -57.05L6.75 -56.8L6.4 -56.45L3.85 -61.55L3.6 -62.25L-0.75 -64.3L-2.2 -62.85L3.6 -55.6L3.6 -55L-2.95 -59.1L-4 -59.95L-9.25 -62.65L-10.05 -62.85L-11.55 -62.85L-12.25 -62.25L-13 -61.4L-5.7 -57.05L-4.4 -55.95L-3.65 -55.5L-0.75 -53.3L-0.05 -52.6Q-1.1 -51.9 -2.2 -51.25L-2.95 -50.5L-4.25 -52.6L-5.25 -52.95L-6.1 -53.05L-7.65 -53.45L-8.5 -53.8L-9.35 -53.9L-10.2 -54.15L-10.9 -54.25L-22.3 -51.25L-47.25 -40.35L-48.2 -40.95L-49.05 -41.3L-52.8 -51.95L-52.1 -55.25L-51.7 -56.35L-51 -59.6L-50.6 -60.7L-49.9 -61.55L-48.45 -63L-47.6 -63.7L-45.55 -63.45L-41.2 -61.8L-33.8 -58.5L-31.15 -57.8L-28.1 -57.4L-24 -60.45L-21.45 -64.2L-20.95 -66.4L-20.75 -68.45L-21.1 -70.5L-21.7 -72.3L-19.15 -73.15L-13.6 -73.9L-7.8 -73.75" />
<path style="fill:#82B5C2;fill-opacity:1" d="M-12.35,-72.65L-7.05 -72.45L2.4 -70.5L11.45 -59.25L8.2 -57.65L7.25 -57.05L6.75 -56.8L6.4 -56.45L3.6 -62.25L-0.75 -64.3L-2.2 -62.85L3.6 -55.6L3.6 -55L-2.95 -59.1L-4 -59.95L-9.25 -62.65L-10.05 -62.85L-11.55 -62.85L-12.25 -62.25L-13 -61.4L-5.7 -57.05L-4.4 -55.95L-3.65 -55.5L-0.75 -53.3L-0.05 -52.6Q-1.1 -51.9 -2.2 -51.25L-2.95 -50.5L-4.25 -52.6L-5.25 -52.95L-6.1 -53.05L-7.65 -53.45L-8.5 -53.8L-9.35 -53.9L-10.2 -54.15L-10.9 -54.25L-22.3 -51.25L-47.25 -40.35L-48.2 -40.95L-49.05 -41.3L-52.8 -51.95L-52.1 -55.25L-51.7 -56.35L-51 -59.6L-50.6 -60.7L-47.35 -59.6L-45.3 -59.5L-43.25 -59L-34.65 -56.2L-29.2 -55.5L-25.7 -56.8L-22.8 -58.4L-20.5 -60.35L-18.8 -62.4L-17.95 -64.7L-17.8 -67L-18.55 -69.15L-19.9 -71.1L-17.45 -71.95L-12.35 -72.65" />
<path style="fill:#80B0BD;fill-opacity:1" d="M-10.9,-71.35L-3.55 -70.5L2.65 -69.05L4.8 -66.6L5.9 -65.55L11.45 -59.25L8.2 -57.65L7.25 -57.05L6.75 -56.8L6.4 -56.45L3.6 -62.25L-0.75 -64.3L-2.2 -62.85L3.6 -55.6L3.6 -55L-2.95 -59.1L-4 -59.95L-9.25 -62.65L-10.05 -62.85L-11.55 -62.85L-12.25 -62.25L-13 -61.4L-5.7 -57.05L-4.4 -55.95L-3.65 -55.5L-0.75 -53.3L-0.05 -52.6Q-1.1 -51.9 -2.2 -51.25L-2.95 -50.5L-4.25 -52.6L-5.25 -52.95L-6.1 -53.05L-7.65 -53.45L-8.5 -53.8L-9.35 -53.9L-10.2 -54.15L-10.9 -54.25L-22.3 -51.25L-47.25 -40.35L-48.2 -40.95L-49.05 -41.3L-52.8 -51.95L-52.1 -55.25L-51.7 -56.35L-51 -59.6L-50.6 -60.7L-47.25 -55.75L-45.3 -55.75L-35.5 -53.9L-30.15 -53.55L-25.55 -54.75L-21.55 -56.35L-18.55 -58.4L-16.15 -60.55L-15.05 -63.1L-14.8 -65.55L-15.75 -67.95L-17.95 -70L-15.5 -70.85L-10.9 -71.35" />
<path style="fill:#78A8B5;fill-opacity:1" d="M-10.05,-62.85L-11.55 -62.85L-11.85 -62.55L-12 -61.4L-12.25 -61L-12.15 -60.95L-5.7 -57.05L-4.4 -55.95L-3.65 -55.5L-0.75 -53.3L-0.05 -52.6Q-1.1 -51.9 -2.2 -51.25L-2.95 -50.5L-4.25 -52.6L-5.25 -52.95L-6.1 -53.05L-7.65 -53.45L-8.5 -53.8L-9.35 -53.9L-10.2 -54.15L-10.9 -54.25L-22.3 -51.25L-47.25 -40.35L-48.2 -40.95L-49.05 -41.3L-52.8 -51.95L-52.1 -55.25L-51 -59.6L-50.6 -60.7L-50.25 -59.6L-48.8 -56.2L-48.45 -55.1L-47 -51.75L-41.8 -51.75L-31.25 -51.5L-25.45 -52.7L-20.5 -54.4L-16.5 -56.45L-13.6 -58.75L-12.25 -61L-13 -61.4L-12.25 -62.25L-11.85 -62.55L-11.75 -63.95L-13.2 -66.6L-16.15 -68.8L-13.85 -69.55L-9.6 -70.15L2.9 -67.7L11.45 -59.25L8.2 -57.65L7.25 -57.05L6.75 -56.8L6.4 -56.45L3.6 -62.25L-0.75 -64.3L-2.2 -62.85L3.6 -55.6L3.6 -55L-2.95 -59.1L-4 -59.95L-9.25 -62.65L-10.05 -62.85" />
<path style="fill:#75A3AD;fill-opacity:1" d="M-8.25,-68.8L-4.75 -68.45L3.1 -66.25L11.45 -59.25L7.25 -57.05L6.4 -56.45L3.6 -62.25L-0.75 -64.3L-2.2 -62.85L3.6 -55.6L3.6 -55L-6.45 -61.4L-8.85 -62.35L-9.1 -59.85L-9.45 -59.3L-5.7 -57.05L-0.05 -52.6Q-1.1 -51.9 -2.2 -51.25L-2.95 -50.5L-4.25 -52.6L-10.9 -54.25L-22.3 -51.25L-47.25 -40.35L-48.2 -40.95L-49.05 -41.3L-52.8 -51.95L-50.6 -60.7L-46.65 -47.75L-43.25 -48L-35.15 -49.45L-32.35 -49.45L-25.35 -50.65L-19.25 -52.35L-14.45 -54.5L-10.9 -57.05L-9.45 -59.3L-13 -61.4L-11.55 -62.85L-10.05 -62.85L-8.85 -62.35L-8.85 -62.65L-10.55 -65.3L-14.2 -67.6L-9.95 -68.7L-8.25 -68.8" />
<path style="fill:#E88787;fill-opacity:1" d="M39.65,1.4L42.6 5.05L44.05 13.05L44.05 13.65L46.35 15.95L55.65 13.65L73.7 10.25L73.3 11.7L56.4 23.3L51.8 28.9L39.2 31.05L34.95 21.4L35.3 20.9L35.7 17.65L37.6 15.1L38.45 8.65L33.4 2.15L31.2 0.55L22.5 -0.75L3 2.85L-41.8 20.15L-65.9 27.7L-79.55 20.3L-52.8 14.5L-44.8 11.6L-42.05 11.6L-18.05 3.6L11.45 -7.2L21.5 -3.55L22.5 -4.4L24.55 -2.2L36.05 0.1L39.65 1.4" />
<path style="fill:#E88787;fill-opacity:1" d="M99.1,-17.35L102.15 -17.35L102.15 -13.35L91.85 -4.65L91.85 -10.2L88.1 -12.25L91.85 -20.15L95.45 -20.15L96.8 -15.9L99.1 -17.35" />
<path style="fill:#E88787;fill-opacity:1" d="M-99.15,-41.95L-109.2 -53.55L-113.55 -61.4L-125.8 -73.05L-131 -75.1L-161.4 -73.05L-153.65 -75.95L-144.2 -77.75L-129.65 -77.05L-116.7 -71.2L-102.8 -53.2L-97.85 -46.05L-84.4 -37.2L-91.15 -37.55L-99.15 -41.95" />
<path style="fill:#E88787;fill-opacity:1" d="M-148.45,-58.15L-152.2 -56.45L-168.5 -52.6L-168.5 -58.15L-152.8 -62.5L-150 -62.5L-148.45 -58.15" />
<path style="fill:#E88787;fill-opacity:1" d="M-58,-67.7L-62.35 -57.4L-62.35 -46.65L-59.45 -41.55L-59.45 -37.55L-61.5 -37.55L-68.8 -46.3L-68.8 -58.5L-61.5 -68.7L-34.55 -90.1L-34.15 -90.1L-58 -67.7" />
<path style="fill:#336699;fill-opacity:1" d="M-172.5,-8.3L-168.4 -12.15L-164.3 -15.05L-159.7 -16.75L-154.95 -17.25L-149.9 -15.9L-144.3 -12.9L-138.15 -7.55L-128.7 -4.5L-119.75 3.2L-109.7 10L-93.45 18.1L-87.65 20.55L-70.85 30.45L-57.9 36.15L-46.4 40.5L-39.85 41.95L-62.95 39.8L-83.05 33.95L-119.4 15.95L-126.65 13.65L-141.05 13.65L-150.5 16.65L-154.85 21.6L-157.75 34.7L-162.1 36.85L-171.4 36.85L-178.7 34.7L-179.4 34.7L-178.7 13.05L-176.4 -3.55L-172.5 -8.3" />
<path style="fill:#306191;fill-opacity:1" d="M-174.35,-0.05L-170.6 -4.75L-163.2 -11.8L-159.2 -13.6L-155.1 -14.2L-150.35 -12.9L-145.15 -9.85L-139.25 -4.5L-129.3 -2.35L-125.05 1.65L-115.5 8.55Q-107.55 12.8 -99.65 17L-88.25 21.6L-71.1 31.45L-62.95 34.2L-61.3 34.95L-59.6 35.4L-55.1 37.25L-46.4 40.5L-43.95 41L-43.1 41.25L-42.4 41.35L-41.55 41.6L-40.7 41.7L-39.75 41.95L-62.95 39.8L-83.05 33.95L-120.35 15.55L-121.2 15.35L-124.8 14.1L-126.65 13.65L-141.05 13.65L-149.4 16.2L-150.5 16.65L-154.85 21.6L-157.75 34.7L-162.1 36.85L-171.4 36.85L-173.25 36.25L-175.05 35.8L-176 35.4L-178.7 34.7L-179.4 34.7L-177.95 16.9L-174.8 1.15L-174.35 -0.05" />
<path style="fill:#305E8C;fill-opacity:1" d="M-162,-8.65L-158.6 -10.45L-155.1 -11.05L-150.95 -9.85L-146.15 -6.8L-140.2 -1.6L-129.65 -0.05L-125.45 3.85L-116 10.5Q-108.1 14.4 -100.25 18.25L-88.85 22.85L-71.45 32.5L-57.9 36.15L-46.4 40.5L-43.95 41L-43.1 41.25L-42.4 41.35L-41.55 41.6L-40.7 41.7L-39.75 41.95L-62.95 39.8L-83.05 33.95L-120.35 15.55L-121.2 15.35L-124.8 14.1L-126.65 13.65L-141.05 13.65L-149.4 16.2L-150.5 16.65L-154.85 21.6L-157.75 34.7L-162.1 36.85L-171.4 36.85L-173.25 36.25L-175.05 35.8L-176 35.4L-178.7 34.7L-179.4 34.7L-176.65 16.05L-174.45 8.8L-172.65 3.85L-165.25 -5.6L-162 -8.65" />
<path style="fill:#2E5985;fill-opacity:1" d="M-158.1,-7.3L-155.2 -8.05L-151.55 -6.95L-146.95 -3.9L-141.3 1.3L-131.6 1.9L-130.15 2.15L-125.9 6L-121.2 9.5L-111.4 15.1L-89.35 24.05L-71.7 33.6L-57.9 36.15L-46.4 40.5L-43.95 41L-43.1 41.25L-42.4 41.35L-41.55 41.6L-40.7 41.7L-39.75 41.95L-62.95 39.8L-83.05 33.95L-120.35 15.55L-121.2 15.35L-124.8 14.1L-126.65 13.65L-141.05 13.65L-149.4 16.2L-150.5 16.65L-154.85 21.6L-157.75 34.7L-162.1 36.85L-171.4 36.85L-173.25 36.25L-175.05 35.8L-176 35.4L-178.7 34.7L-179.4 34.7L-175.55 17.5L-174.1 13.9L-171.3 7.95L-170.1 6.6L-160.9 -5.35L-158.1 -7.3" />
<path style="fill:#2B547D;fill-opacity:1" d="M-157.5,-4.15L-155.2 -5L-152.05 -3.9L-147.95 -1L-142.35 4.2L-130.65 4.3L-126.4 8.2L-116.95 14.25L-106.8 18.85L-89.95 25.15L-71.8 34.55L-57.9 36.15L-46.4 40.5L-43.95 41L-43.1 41.25L-42.4 41.35L-41.55 41.6L-40.7 41.7L-39.75 41.95L-62.95 39.8L-83.05 33.95L-120.35 15.55L-121.2 15.35L-126.65 13.65L-141.05 13.65L-149.4 16.2L-150.5 16.65L-154.85 21.6L-157.75 34.7L-162.1 36.85L-171.4 36.85L-173.25 36.25L-175.05 35.8L-176 35.4L-178.7 34.7L-179.4 34.7L-178.95 32.65L-175.2 20.9L-173.95 18L-172.75 16.05L-172.05 15.2L-170.2 12.2L-169.5 11.35L-167.9 10.1L-159.8 -2.1L-157.5 -4.15" />
<path style="fill:#294F75;fill-opacity:1" d="M-157,-1L-155.2 -2L-152.55 -1L-148.8 1.9L-143.35 7.1L-131.1 6.5L-126.9 10.25L-117.45 16.2L-90.55 26.35L-72.05 35.8L-57.9 36.15L-46.4 40.5L-39.85 41.95L-62.95 39.8L-83.05 33.95L-119.4 15.95L-126.65 13.65L-141.05 13.65L-150.5 16.65L-154.85 21.6L-157.75 34.7L-162.1 36.85L-171.4 36.85L-178.7 34.7L-179.4 34.7L-173.5 20.65L-167.8 14.85L-166 13.4L-162.7 8.55L-158.7 1.05L-157 -1" />
<path style="fill:#336699;fill-opacity:1" d="M167.15,19.45L166.3 38.45L164.1 42.7L159.85 46.3L154.65 45L127.3 52.85L81.7 60.1L33.25 64.35L-8.75 65.2L-39.15 64.6L-37.65 61.55L-37.05 60.6L-36.1 58.65L-35.75 57.7L-35.25 56.85L-29.7 53.2L-18.65 43.9L-12.75 39.4L-6.8 35.65L-0.15 33.5L7 33.25L15 35.8L16.55 36.85L18 38.55L22.35 46.9L23.7 48.25L25.4 49.2L33.25 50.8L42.2 51.3L61.95 49.85L81.3 46.2L97.3 42.2L126.8 31.55L155.15 18.85L164.35 13.5L167.15 19.45" />
<path style="fill:#306191;fill-opacity:1" d="M166.75,21.25L166.3 38.45L165.7 39.4L164.1 42.7L159.85 46.3L159.15 46.05L158.55 45.95L157.8 45.7L154.65 45L127.3 52.85L81.7 60.1L33.25 64.35L-8.75 65.2L-39.15 64.6L-38.5 63.5L-37.8 62.65L-34.3 59.05L-33.05 57.35L-27.85 54.3L-12 42.7L-6.3 39.4L0.1 37.5L7.1 37.1L15.2 39.3L16.8 40.25L18.25 41.95L22.25 49.35L23.45 50.65L25.05 51.5L32.9 53.1L42.1 53.6L52 53.1L62.45 52L82.3 48.35L98.5 44.25L126.8 34.8L154.05 23.3L157.45 21.25L158.55 20.8L159.5 20.05L160.6 19.55L161.55 18.95L162.75 18.5L165.7 22.6L166.15 21.85L166.75 21.25" />
<path style="fill:#305E8C;fill-opacity:1" d="M164.35,25.6L164.7 24.9L165.8 23.45L166.4 22.85L166.3 38.45L165.7 39.4L164.1 42.7L159.85 46.3L159.15 46.05L158.55 45.95L157.8 45.7L154.65 45L127.3 52.85L81.7 60.1L33.25 64.35L-8.75 65.2L-39.15 64.6L-38.5 63.5L-37.45 62.65L-34.9 61.2L-32.45 59.5L-30.75 57.95L-25.7 55.65L-11.05 45.85L-5.7 43.05L0.35 41.35L7.25 41L15.35 42.7L16.9 43.75L18.25 45.25L22 51.75L23.2 52.85L24.8 53.7L32.65 55.15L41.95 55.65L62.8 54.2L73.2 52.5L99.7 46.45L114 42.1L139.3 33.75L152.85 27.9L156.1 26L161.1 23.55L161.8 23.9L164.35 25.6" />
<path style="fill:#2E5985;fill-opacity:1" d="M166.05,24.4L166.15 36.65L166.3 38.45L165.7 39.4L164.1 42.7L159.85 46.3L159.15 46.05L158.55 45.95L157.8 45.7L154.65 45L127.3 52.85L81.7 60.1L33.25 64.35L-8.75 65.2L-39.15 64.6L-38.4 63.5L-35.5 62.05L-30.55 60.1L-29.3 59.25L-28.6 58.55L-23.75 56.85L-19.25 54.55L-14.9 51.75L-5.25 46.7L0.7 45.25L7.35 44.85L15.6 46.3L17.15 47.15L18.5 48.5L19.35 49.85L20.8 52.75L21.75 54.2L22.85 55.15L24.4 55.9L32.4 57.35L41.95 57.8L52.25 57.35L63.15 56.35L73.8 54.65L93.15 50.55L132.5 39.9L138.45 37.95L151.65 32.5L154.8 30.7L155.75 30.35L156.5 29.85L159.4 28.5L161.95 28.5L162.9 28.65L163.6 27.55L166.05 24.4" />
<path style="fill:#2B547D;fill-opacity:1" d="M165.7,26.1L166.3 38.45L165.7 39.4L164.1 42.7L159.85 46.3L159.15 46.05L158.55 45.95L157.8 45.7L154.65 45L127.3 52.85L81.7 60.1L33.25 64.35L-8.75 65.2L-39.15 64.6L-38.3 63.65L-36.7 62.9L-28.7 60.6L-27.25 59.85L-26.4 59.15L-21.8 58.05L-4.75 50.3L0.95 49.2L7.6 48.85L15.85 49.85L17.3 50.65L19.35 52.95L20.55 55.4L21.4 56.6L22.5 57.45L24.05 58.2L32.05 59.65L41.85 60.1L52.4 59.65L63.65 58.55L85.05 54.65L121.25 45.85L137.7 42.2L150.55 37L151.65 36.25L155.85 34.45L156.7 33.95L157.8 33.6L158.65 33L160.45 32.05L161.45 31.65L162.9 29.5L163.5 28.9L164.6 27.45L165.05 26.7L165.7 26.1" />
<path style="fill:#294F75;fill-opacity:1" d="M160.1,34.7L165.3 27.7L166.3 38.45L164.1 42.7L159.85 46.3L154.65 45L127.3 52.85L81.7 60.1L33.25 64.35L-8.75 65.2L-39.15 64.6L-38.15 63.65L-36.45 63L-26.8 61.1L-25.1 60.5L-24.1 59.75L-15.9 58.3L-4.15 54.05L1.2 53.1L7.7 52.75L16.05 53.35L17.5 54.05L18.75 55.15L19.45 56.1L20.45 58.05L21.15 59.05L22.1 59.65L23.7 60.35L31.8 61.8L41.6 62.3L52.5 61.8L64 60.6L85.9 56.85L110.35 50.65L116.4 49.45L126.8 48.25L136.85 46.3L149.35 41.6L150.45 40.85L151.5 40.5L156.1 38.7L160.1 34.7" />
<path style="fill:#758C8C;fill-opacity:1" d="M-124,31.2L-115 32.9L-110.9 34.35L-107.4 36.25L-104.25 38.7L-101.95 38.7L-96.75 42.7L-90.35 45.85L-82.95 48.15L-74.95 49.95L-50 53.95L-42.05 55.65L-48.45 60.1L-57.15 64.35L-103.4 59.4L-129.55 57.8L-170.7 53.6L-179.4 49.95L-179.8 44.4L-167.55 45.25L-161.5 45.1L-155.45 44.4L-150 42.7L-144.9 40L-140.7 36.05L-137.05 30.6L-124 31.2" />
<path style="fill:#708787;fill-opacity:1" d="M-123.85,33.35L-116.25 35.2L-112.6 36.65L-109.45 38.55L-106.4 41L-103.75 41.1L-102.8 41.35L-97.7 45.25L-91.4 48.15L-76.75 51.9L-52.8 55.25L-44.95 56.95L-47.7 59.25L-48.45 60.1L-57.15 64.35L-97.7 59.85L-129.55 57.8L-170.7 53.6L-178.3 50.3L-179.4 49.95L-179.3 45.35L-160.75 46.55L-154.6 46.05L-149.05 44.6L-143.85 42.1L-139.45 38.2L-135.85 32.75L-123.85 33.35" />
<path style="fill:#6B8282;fill-opacity:1" d="M-138.25,40.4L-134.65 34.95L-123.75 35.55L-117.2 37.35L-114.15 38.8L-108.6 43.15L-106.3 43.15L-105.1 43.4L-103.75 43.9L-98.8 47.75L-92.75 50.55L-85.95 52.5L-78.7 53.8L-55.45 56.6L-47.7 58.2L-48.45 60.1L-57.15 64.35L-97.7 59.85L-129.55 57.8L-170.7 53.6L-178.3 50.3L-179.4 49.95L-179.4 49L-179.15 48.15L-179.05 47.3L-178.8 46.55L-160.05 48L-153.75 47.75L-148.05 46.45L-142.75 44.15L-138.25 40.4" />
<path style="fill:#697D7D;fill-opacity:1" d="M-137.15,42.55L-133.4 37.25L-123.6 37.85L-118.55 39.65L-116 41.1L-110.9 45.35L-108 45.35L-105.6 46.05L-104.75 46.45L-99.75 50.2L-93.95 52.95L-87.55 54.65L-80.5 55.75L-58.15 57.95L-49.55 59.75L-48.45 60.1L-57.15 64.35L-97.7 59.85L-129.55 57.8L-170.7 53.6L-178.3 50.3L-179.4 49.95L-178.7 48L-178.3 47.55L-159.3 49.45L-152.9 49.45L-147.1 48.35L-141.65 46.2L-137.15 42.55" />
<path style="fill:#637878;fill-opacity:1" d="M-123.6,40L-121.45 40.85L-119.6 41.85L-113.1 47.65L-109.55 47.65L-105.7 49L-100.85 52.75L-95.15 55.25L-89.1 56.75L-60.9 59.25L-53.3 60.7L-48.45 60.1L-57.15 64.35L-97.7 59.85L-129.55 57.8L-170.7 53.6L-178.3 50.3L-179.4 49.95L-178.7 49.2L-177.85 48.6L-158.7 50.65L-152.2 50.9L-146.25 50.05L-140.7 48.15L-136.1 44.6L-132.35 39.4L-126.05 39.65L-123.6 40" />
<path style="fill:#5E7373;fill-opacity:1" d="M-123.5,42.2L-121.9 43.05L-120.7 44L-115.4 49.85L-111.25 49.85L-106.65 51.5L-101.85 55.25L-96.4 57.7L-90.55 59.05L-63.6 60.7L-56.05 62.05L-48.45 60.1L-57.15 64.35L-103.4 59.4L-129.55 57.8L-170.7 53.6L-179.4 49.95L-177.5 49.7L-158 52.25L-151.35 52.6L-145.3 52L-139.6 50.3L-134.85 46.8L-131.1 41.6L-125.3 41.85L-123.5 42.2" />
<path style="fill:#758C8C;fill-opacity:1" d="M64.95,-7.9L65.8 -7.9L66.3 -9L69.35 -8.65L75 -7.3L79.85 -5.35L82.05 -4.15L83.85 -2.7L85.3 -1.15L77.3 5.05L66.4 8.65L50.2 11.35L49 11.35L46.35 1.4L41.85 -2.2L14.5 -10.8L-23.85 -19.55L-36.85 -23.9L-42.65 -27.4L-47.85 -34.65L-47.85 -36.1L-22.3 -46.4L-20.5 -44.45L-19.75 -43.4L-18.55 -40.85L-18.05 -39.25L-17.7 -36.1L-8.4 -27.75L-4.5 -24.85L3.35 -20.5L7.35 -19.15L11.35 -18.55L21.4 -14.7L31.1 -12.25L48.5 -9.6L60.25 -2.95L64.95 -7.9" />
<path style="fill:#708787;fill-opacity:1" d="M65.95,-5.85L66.9 -5.85L67.25 -6.7L67.75 -7.3L76 -6.1L80.35 -4.75L82.3 -3.8L83.85 -2.7L85.3 -1.15L81.3 1.9L80.2 2.6L77.3 5.05L75.85 5.4L71.85 6.85L70.4 7.2L66.4 8.65L50.2 11.35L49 11.35L47.65 6.35L46.55 2.6L46.35 1.4L41.85 -2.2L3.85 -13.35L-23.85 -19.55L-36.85 -23.9L-39 -25.35L-39.75 -25.7L-40.45 -26.2L-41.2 -26.55L-41.9 -27.05L-42.65 -27.4L-47.85 -34.65L-47.85 -36.1L-39.75 -39.4L-34.75 -41.2L-27.15 -44.6L-22.3 -46.4L-21.55 -45.55L-21.1 -44.35L-20.95 -41.8L-21.45 -37.35L-21.45 -35.5L-18.65 -32.95L-10.9 -27.15L-6.3 -24.25L2.9 -19.75L7.25 -18.45L11.35 -17.85L21.15 -13.95L36.3 -10.35L48.15 -8.75L55.4 -4.15L59.75 -1.15L60.5 -1.85L61.2 -2.35L61.95 -3.05L62.8 -3.55L65.1 -5.35L65.95 -5.85" />
<path style="fill:#6B8282;fill-opacity:1" d="M60.25,0.1L61.2 -0.4L62.05 -1.15L63.05 -1.6L65.8 -3.45L66.9 -3.9L68.1 -3.9L69.35 -5.5L77.1 -4.9L80.95 -4.3L82.5 -3.55L83.85 -2.6L85.3 -1.15L81.3 1.9L80.2 2.6L77.3 5.05L75.85 5.4L71.85 6.85L70.4 7.2L66.4 8.65L50.2 11.35L49 11.35L47.65 6.35L46.55 2.6L46.35 1.4L41.85 -2.2L3.85 -13.35L-23.85 -19.55L-36.85 -23.9L-39 -25.35L-39.75 -25.7L-40.45 -26.2L-41.2 -26.55L-41.9 -27.05L-42.65 -27.4L-47.85 -34.65L-47.85 -36.1L-39.75 -39.4L-34.75 -41.2L-27.15 -44.6L-22.3 -46.4L-21.8 -45.45L-21.7 -44.35L-22.8 -41.55L-23.75 -40.1L-25.1 -36.95L-25.2 -35.15L-22.3 -32.6L-13.6 -26.65L-8.4 -23.65L2.05 -19.05L6.85 -17.7L11.1 -17.1L13.65 -15.9L25.65 -11.8L35.9 -9.5L47.8 -7.9L59.4 0.8L60.25 0.1" />
<path style="fill:#697D7D;fill-opacity:1" d="M69.2,-2L70.9 -3.8L73.7 -3.55L81.3 -3.7L82.75 -3.3L84 -2.6L85.3 -1.15L81.3 1.9L80.2 2.6L77.3 5.05L75.85 5.4L71.85 6.85L70.4 7.2L66.4 8.65L50.2 11.35L49 11.35L47.65 6.35L46.55 2.6L46.35 1.4L41.85 -2.2L3.85 -13.35L-23.85 -19.55L-36.85 -23.9L-39 -25.35L-39.75 -25.7L-40.45 -26.2L-41.2 -26.55L-41.9 -27.05L-42.65 -27.4L-47.85 -34.65L-47.85 -36.1L-39.75 -39.4L-34.75 -41.2L-27.15 -44.6L-22.3 -46.4L-21.95 -45.45L-22.3 -44.25L-24.7 -41.3L-26.3 -39.85L-28.7 -36.5L-28.95 -34.65L-25.95 -32.1L-16.25 -26.05L-4.4 -20.5L1.4 -18.3L6.65 -17L11.1 -16.4L25.4 -11.05L35.7 -8.65L47.4 -7.05L53.1 -2.2L54.55 -1.15L58.9 2.6L66.55 -1.5L67.75 -2L69.2 -2" />
<path style="fill:#637878;fill-opacity:1" d="M77.45,-2.1L81.8 -3.2L83 -3.05L84.1 -2.45L85.3 -1.15L81.3 1.9L80.2 2.6L77.3 5.05L75.85 5.4L71.85 6.85L70.4 7.2L66.4 8.65L50.2 11.35L49 11.35L47.65 6.35L46.55 2.6L46.35 1.4L41.85 -2.2L3.85 -13.35L-23.85 -19.55L-36.85 -23.9L-39 -25.35L-39.75 -25.7L-40.45 -26.2L-41.2 -26.55L-41.9 -27.05L-42.65 -27.4L-47.85 -34.65L-47.85 -36.1L-39.75 -39.4L-34.75 -41.2L-33.3 -41.95L-28.6 -43.85L-27.15 -44.6L-22.3 -46.4L-22.05 -45.45L-22.9 -44.1L-28.85 -39.5L-32.25 -36L-32.7 -34.2L-24.6 -28.6L-12.15 -22.45L0.8 -17.7L6.4 -16.25L11 -15.65L20.65 -11.65L35.45 -7.8L47.2 -6.2L58.45 4.55L59.65 3.85L68.7 0.1L70.4 0.1L72.5 -2.1L77.45 -2.1" />
<path style="fill:#5E7373;fill-opacity:1" d="M73.95,-0.3L76.6 -0.3L78.75 -0.55L81.45 -1.85L82.3 -2.45L83.25 -2.7L84.1 -2.35L85.3 -1.15L77.3 5.05L66.4 8.65L50.2 11.35L49 11.35L46.35 1.4L41.85 -2.2L14.5 -10.8L-23.85 -19.55L-36.85 -23.9L-42.65 -27.4L-47.85 -34.65L-47.85 -36.1L-22.3 -46.4L-22.3 -45.45L-23.5 -44.1L-33.9 -37.35L-35.85 -35.5L-36.45 -33.7L-33.05 -31.05L-27.75 -28L-21.35 -25L-6.95 -19.3L6 -15.65L10.75 -15.05L20.45 -11.05L34.95 -7.05L46.7 -5.5L57.95 6.35L69.7 2L71.65 2L73.95 -0.3" />
<path style="fill:#B0BABA;fill-opacity:1" d="M174.25,33.75L171.75 36.75L172.1 36.15L172.95 23.2L175.1 27.45L174.25 33.75M160.7,48.85L144 56.95L113.5 64.85L20.9 76.45L-59.2 77.2L-66.5 75.85L-91.9 75L-106.4 73.55L-143.95 72.85L-150.5 70.65L-173.6 69.2L-177.6 54.65L-171.4 57.2L-122.3 62.3L-92.65 64.35L-65.9 67.4L-56.45 68.85L31.8 68.85L70.05 65.2L101.15 61.55L103.35 60.1L111.95 59.4L132.4 55.05L136 55.05L143.3 52L149 50.55L154.65 50.55L160.7 48.85" />
</g>
</svg>
