<?xml version="1.0" encoding="utf-8"?>
<svg version="1.1" id="Layer_1"
xmlns="http://www.w3.org/2000/svg"
xmlns:xlink="http://www.w3.org/1999/xlink"
xmlns:author="http://www.sothink.com"
width="282px" height="282px"
xml:space="preserve">
<g id="95" transform="matrix(1, 0, 0, 1, 140.95, 140.95)">
<path style="fill:none;stroke-width:10;stroke-linecap:round;stroke-linejoin:round;stroke-miterlimit:3;stroke:#FF3300;stroke-opacity:1" d="M97.1,95.1L96.1 96.1Q56.3 135.95 0 135.95Q-56.3 135.95 -96.15 96.1L-100 92.1Q-135.95 53.5 -135.95 0Q-135.95 -56.3 -96.15 -96.15L-95.15 -97.15Q-55.6 -135.95 0 -135.95Q53.5 -135.95 92.1 -100L96.1 -96.15Q135.95 -56.3 135.95 0Q135.95 55.6 97.1 95.1z" />
<path style="fill:none;stroke-width:10;stroke-linecap:round;stroke-linejoin:round;stroke-miterlimit:3;stroke:#FF3300;stroke-opacity:1" d="M97.1,95.1L98 96M-95.15,-97.15L-2.95 -4.95L92.1 -100M97.1,95.1L-2.95 -4.95L-100 92.1" />
</g>
</svg>
