<?xml version="1.0" encoding="utf-8"?>
<svg version="1.1" id="Layer_1"
xmlns="http://www.w3.org/2000/svg"
xmlns:xlink="http://www.w3.org/1999/xlink"
xmlns:author="http://www.sothink.com"
width="127px" height="141px"
xml:space="preserve">
<g id="7" transform="matrix(1, 0, 0, 1, 74, 105.65)">
<path style="fill:#000000;fill-opacity:1" d="M-55.45,-105.6L-55.1 -105.65L-53.7 -105.65L-53.4 -105.6L-52.8 -105.4L-52.5 -105.35L-52.05 -105.05L-51.75 -104.75L-51.55 -104.5L-51 -103.7L-50.95 -103.4L-50.75 -102.95L-50.7 -102.45L-50.55 -101.95L-50.55 -101.4L-50.45 -100.9L-50.45 -99.5L-50.4 -99.2L-50 -98.25L-50 -98.15L-49.95 -98.15L-49.75 -98.05L-49.55 -98.15L-48.95 -98.3L-47.7 -99.25L-46.8 -99.65L-46.15 -99.75L-45.3 -99.7L-44.9 -99.65L-44.5 -99.45L-43.85 -98.95L-43.3 -98.25L-43.05 -97.85L-42.85 -97.45L-42.65 -97.15L-42.4 -96.35L-42.2 -95.25L-42.2 -94.95L-42.45 -94.2L-43.3 -92.6L-43.65 -92.15L-43.8 -91.75L-43.85 -91.6L-43.85 -91.25L-43.8 -91.15L-43.4 -90.85L-42.05 -90.25L-41.8 -90.1L-41.5 -89.8L-41.15 -89.2L-41.05 -89.05L-40.85 -88.35L-40.85 -87.4L-40.9 -87L-41.4 -85.8L-43.15 -83.35L-43.65 -82.55L-44.05 -81.65L-44.1 -81.6L-44.15 -81.45L-44.05 -76.95L-44.7 -71.15L-44.65 -69.65L-44.5 -68.9L-44.1 -67.6L-43.85 -67.1L-43.05 -66L-42.8 -65.8L-42.6 -65.6L-42 -65.2L-40.6 -64.55L-37.95 -64.1L-36.9 -64.05L-36.7 -63.95L-35.9 -63L-35.85 -62.7L-35.75 -62.5L-31.25 -61.35L-20.75 -59.9L-11 -59.7L-10.7 -59.75L-10 -60L-9.45 -60L-9.25 -59.9L-8.9 -59.55L-8.5 -58.95L-8.5 -58.65L-8.65 -58.3L-8.75 -58.15L-9.15 -57.65L-9.25 -57.6L-9.15 -57.5L-8.9 -57.5L-8.65 -57.6L-8.25 -57.65L-7.65 -57.85L-6.45 -58.35L-6 -58.7L-5.6 -59.1L-5.45 -59.3L-5.45 -59.45L-4.95 -59.6L-4.75 -59.7L-4.15 -59.7L-3.95 -59.6L-3.55 -59.35L-3.45 -59.15L-3.2 -58.5L-3.2 -57.25L-3.15 -57.05L-1.9 -58.15L-1.6 -58.65L-0.35 -63.8L2.55 -71.35L6.4 -77.5L10.15 -81.4L13.3 -83.7L15.55 -84.95L18 -86L21.85 -87.1L24.5 -87.55L25.95 -87.7L36.15 -87.65L38 -87.25L40.75 -86.2L42.5 -85.15L44.15 -83.75L44.55 -83.35L45.05 -82.95L47.3 -80L47.15 -79.7L46.95 -79.45L46.55 -79.3L46.35 -79.3L37.8 -80.6L36.5 -80.6L33.75 -80.2L30.05 -79L27.8 -77.95L24.9 -75.95L23.35 -74.65L27.85 -76.55L30.25 -77.15L35.05 -77.35L36.05 -77.25L38.35 -76.7L41.05 -75.85L46.55 -73.05L48.3 -71.7L50 -69.55L50.55 -68.4L50.7 -67.75L50.85 -66.8L50.85 -66.2L50.8 -66L50.7 -65.85L50.65 -65.6L48.9 -65.6L46.95 -66.15L46.15 -66.45L43.6 -67.15L42.25 -67.25L38 -67.15L36.1 -66.8L30.05 -64.5L30.7 -64.5L33.5 -64.35L35.6 -64.45L36.95 -64.2L39.95 -63.25L43.75 -61.2L45.95 -59.55L48.7 -57L50.4 -54.9L51.7 -52.6L52.4 -51.1L52.8 -49.55L52.95 -48L52.85 -47.8L52.85 -47.6L52.65 -47.15L52.4 -46.7L52 -46.2Q47.15 -48.6 42.25 -50.95L39.35 -51.95L37.35 -52.35L34.1 -52.5L31.85 -52.35L31.4 -52.25L30.9 -52L36.8 -50.05L40.85 -48.35L42.75 -47.25L44.85 -45.7L45.25 -45.3L46.15 -44.05L46.4 -43.15L46.5 -42.95L46.5 -42.75L46.4 -42.5L46.4 -42.35L46.15 -41.85L45.8 -41.55L45.55 -41.4L45.35 -41.3L45.1 -41.2L44.65 -41.2L31.5 -44.05L31.4 -44L28.75 -44L29.2 -43.8L29.75 -43.6L30.8 -43.15L34.5 -40.7L36.85 -38.4L38.6 -36.3L40.4 -32.95L41 -30.65L41.05 -30.15L41.05 -29.55L40.95 -28.6L40.45 -27.45L40.1 -26.9L40 -26.65L39.8 -26.45L39.6 -26.25L39.4 -26.2L39.2 -26.05L39 -26.05L36.8 -28.3L30.05 -34.1L28.25 -35.15L28.2 -35.15L28 -35L28.45 -34.4L32.1 -27.6L32.45 -26.45L32.45 -26.3L32.3 -25.65L32.15 -25.3L31.95 -25.05L31.8 -24.85L31.5 -24.65L31.2 -24.5L30.85 -24.5L30.5 -24.65L23.55 -28.95L23.35 -28.95L23.3 -28.9L23.3 -28.75L23.35 -28.45L24.85 -24.85L25.4 -22.55L25.5 -21.95L25.5 -21.15L25.4 -20.75L25.2 -20.15L25.15 -20.05L24.95 -19.65L24.75 -19.4L24.6 -19.25L24.3 -19.1L24.15 -19.1L23.45 -19.25L23.1 -19.4L22.75 -19.6L22.45 -19.85L22.1 -20.05L20.1 -22.45L19.65 -22.8L19.55 -22.05L19 -20.45L18.2 -18.85L16.05 -15.8L14 -13.65L10.25 -10.35L2.95 -5.6L-1.1 -3.7L-0.9 7.6L-1.15 8.6L-1.75 9.8L-2.55 11L-5.8 14.3L-6.45 18.4L-6.8 21.75L-6.75 22.6L-6.45 23.5L-6.4 23.6L-6.25 23.65L-6.2 23.75L-6.1 23.8L-0.3 22.85L0.2 22.85L0.55 23.3L1.9 25.45L2.15 26.1L2.15 28.55L2.05 29.55L1.9 30.05L1.2 31.6L0.2 32.9L-0.6 33.7L-1.5 34.25L-2.45 34.55L-3.25 34.55L-3.6 34.5L-3.95 34.3L-4 34.15L-4.2 33.95L-4.35 33.75L-4.85 31.65L-4.95 31.45L-5.1 31.25L-11.5 30.55L-12.45 30.55L-14.05 30.8L-14.7 31L-15.7 31.5L-16.4 32.1L-17 32.7L-17.35 33L-17.6 33.25L-17.95 33.45L-18.7 33.7L-19.5 33.7L-19.95 33.65L-20.4 33.5L-22.3 32.6L-23.25 32L-24 31.35L-24.55 30.65L-24.75 30.35L-24.9 30L-24.9 29.7L-26.9 31.4L-27.3 31.65L-27.55 31.7L-27.75 31.8L-28 31.85L-28.6 31.85L-29.3 31.6L-29.85 31.1L-30.15 30.8L-30.55 30.15L-30.65 29.8L-30.85 29.5L-31.05 28.75L-31.2 27.9L-31.2 27.65L-31.15 27.1L-30.3 24.6L-32.05 24.25L-32.45 24.35L-32.7 24.5L-32.85 24.55L-33.25 24.95L-33.45 25.25L-34.15 27.05L-34.35 27.35L-34.6 27.7L-35.05 28.1L-35.6 28.3L-35.85 28.3L-36.1 28.35L-36.3 28.3L-36.5 28.3L-36.7 28.25L-37.2 27.85L-37.85 27.1L-38.4 26.2L-39 24.6L-39.45 22.05L-39.55 21.95L-39.55 21.85L-39.6 21.75L-39.8 21.75L-40.5 21.9L-41.15 22.15L-41.25 22.3L-41.35 22.35L-41.6 22.55L-42.3 23.5L-42.9 24.05L-43.1 24.2L-43.4 24.25L-44 24.25L-44.15 24.2L-44.4 24.15L-44.55 24L-44.9 23.65L-45.15 23.3L-45.4 22.85L-45.5 22.45L-45.55 22.1L-45.55 21.85L-45.5 21.35L-45.5 21.1L-45.05 19.6L-44.4 18.2L-43.5 16.75L-42.45 15.45L-41.35 14.4L-40.65 13.9L-39.75 13.5L-38.75 13.35L-38.55 13.4L-36.35 15.1L-35.9 15.45L-35.5 15.75L-34.5 16.35L-33.45 16.75L-32.65 16.85L-31.95 16.85L-31.65 16.8L-30.95 16.55L-30.3 16.05L-29.9 15.25L-29.65 14L-29.65 10.95L-33.65 7.05L-48.45 -4.5L-53.75 -9.85L-55.25 -11.9L-57.05 -15.3L-57.9 -17.75L-61.65 -34.9L-61.8 -36.4L-61.8 -46.75L-62.8 -47.15L-63.2 -47.35L-63.7 -47.85L-64 -48.6L-64 -49.3L-63.85 -49.65L-63.25 -51.3L-63.2 -51.65L-63.2 -52L-63.25 -52.25L-63.55 -52.5L-63.7 -52.6L-64.15 -52.75L-64.25 -52.85L-64.55 -52.75Q-64.65 -52.65 -64.8 -52.6L-65.55 -52.1L-66.2 -51.85L-66.35 -51.85L-66.65 -51.75L-68.1 -51.95L-68.55 -52.15L-69.3 -52.55L-70.15 -53.35L-70.55 -54.05L-70.85 -54.8L-70.95 -55.6L-70.95 -56.6L-70.9 -57.1L-70.5 -58.5L-69.25 -61.1L-69.1 -61.6L-68.9 -63.05L-68.95 -63.25L-68.95 -63.5L-69.45 -64.8L-69.45 -67.6L-69.5 -67.6L-69.6 -67.5L-69.75 -67.45L-69.5 -68L-69.15 -69.2L-69.1 -69.65L-69.15 -70.25L-69.95 -73.25L-70.75 -77.55L-70.7 -79.7L-70.3 -81.4L-69.45 -83.55L-69.15 -84.1L-68.2 -85.6L-67.35 -86.5L-67.95 -87.05L-68.3 -87.25L-69.15 -87.65L-72.35 -88.45L-72.95 -88.75L-73.1 -88.9L-73.25 -89.05L-73.65 -89.6L-73.85 -90.2L-73.9 -90.95L-74 -91.35L-74 -92.25L-73.8 -93.2L-73.65 -93.5L-73.25 -94.2L-73 -94.45L-72.5 -94.85L-71.4 -95.25L-70.7 -95.35L-69.85 -95.4L-67.05 -94.9L-66.9 -94.9L-66.6 -95.1L-66.5 -95.15L-66.35 -95.35L-66.3 -95.5L-66.1 -95.9L-65.95 -96.25L-65.85 -96.95L-66.6 -99.6L-66.5 -99.9L-66.45 -100.05L-66.45 -100.15L-66.25 -100.4L-66.1 -100.7L-65.1 -101.8L-62.75 -101.8L-62.55 -101.75L-61.9 -101.4L-61.4 -101.25L-59.7 -100.1L-59.15 -100.65L-58.4 -101.65L-58.3 -101.9L-58.15 -102.1L-57.9 -102.6L-57.75 -103.05L-57.05 -104.6L-56.95 -104.8L-56.7 -105.05L-56.15 -105.4L-55.45 -105.6M-24.5,14.05L-24.55 15.85L-24.4 16.35L-24.35 16.5L-24.1 16.75L-23.75 16.8L-23.65 16.85L-23.4 16.85L-22.9 16.8L-22.25 16.6L-21.25 16.45L-21.05 16.35L-20.4 16.5L-20 16.6Q-19.75 16.75 -19.6 16.85L-19.1 17.35L-18.55 18.2L-16.8 21.7L-16 22.9L-15.75 23.15L-15.55 23.4L-15.4 23.55L-14.7 23.95L-13.7 24.15L-12.75 24.15L-11.7 17.7L-12.1 14.4L-23.05 10.05L-23.9 11.95L-24.5 14.05" />
<path style="fill:#EC3C12;fill-opacity:1" d="M-52.35,-102.55L-52.35 -98.65L-52.1 -98L-51.55 -97L-51.1 -96.6L-50.95 -96.4L-50.75 -96.25L-50.3 -96L-50 -95.95L-49.8 -95.9L-49.4 -95.95L-49 -95.95L-48.75 -96.1L-48.45 -96.15L-48.1 -96.4L-47.3 -97.2L-47.1 -97.35L-46.65 -97.55L-46.35 -97.55L-45.95 -97.6L-45.75 -97.55L-45.55 -97.55L-45.4 -97.4L-45.15 -97.35L-44.7 -96.9L-44.55 -96.65L-44.3 -96.35L-44.15 -95.95L-44.1 -95.6L-44.05 -95.4L-44.05 -95.1L-44.15 -94.75L-44.25 -94.6L-44.3 -94.45L-45.5 -92.85L-45.75 -92.3L-45.9 -91.65L-45.9 -90.75L-45.75 -90.25L-45.65 -89.95L-45.45 -89.7L-44.9 -89.3L-43.7 -88.95L-43.45 -88.9L-43.15 -88.75L-43 -88.65L-42.85 -88.45L-42.8 -88.35L-42.75 -88.2L-42.75 -87.85L-42.9 -87.4L-45 -84.6L-46.15 -86.1L-47.55 -87.5L-49.1 -88.7L-50.7 -89.7L-53.2 -90.8L-54.05 -91.1L-56.6 -91.5L-57.3 -91.55L-58.8 -91.4L-61.15 -90.8L-63.2 -89.95L-65.4 -88.85L-65.95 -88.45L-66.3 -88.3L-68.7 -88.95L-69.7 -89.35L-71.4 -90.4L-71.95 -90.95L-72.15 -91.35L-72.15 -91.75L-72.1 -92.05L-71.95 -92.55L-71.7 -92.9L-71.4 -93.2L-71.2 -93.25L-71 -93.4L-70.15 -93.5L-69.45 -93.5L-66.95 -92.7L-66.65 -92.7L-65.95 -92.95L-65.7 -93.1L-65.45 -93.4L-65.2 -93.6L-64.3 -94.75L-64.05 -95.35L-63.85 -96.35L-63.95 -96.9L-64.4 -98.6L-64.45 -99L-64.55 -99.2L-64.55 -99.35L-64.45 -99.6L-64.25 -99.85L-64 -100.05L-63.85 -100.1L-63.3 -100.1L-63 -100.05L-62.15 -99.65L-61.9 -99.45L-61 -98.7L-60.55 -98.4L-60.3 -98.25L-59.3 -98.05L-59.1 -98.15L-58.8 -98.15L-58.65 -98.25L-58.4 -98.3L-58.1 -98.6L-57.1 -99.9L-55.45 -102.95L-55.1 -103.3L-55 -103.45L-54.75 -103.55L-54.65 -103.7L-54.45 -103.75L-54.3 -103.8L-53.95 -103.8L-53.65 -103.75L-53.35 -103.6L-53.05 -103.4L-52.8 -103.3L-52.5 -103L-52.4 -102.8L-52.35 -102.55" />
<path style="fill:#FFB400;fill-opacity:1" d="M-49.35,-86.35L-47.95 -84.75L-47.15 -83.35L-46.55 -81.9L-46.3 -80.9L-46.1 -78.75L-46.9 -70.95L-46.8 -69.3L-46.5 -67.75L-45.9 -66.2L-45.5 -65.55L-45 -64.95L-44.75 -64.65L-43.85 -63.8L-43.5 -63.65L-43.15 -63.4L-42 -62.85L-41.05 -62.6L-39.6 -62.4L-38.5 -62.35L-40.1 -60.85L-40.4 -60.45L-40.75 -60.15L-40.9 -59.9L-41 -59.8L-41 -59.35L-40.9 -59.1L-40.65 -58.7L-40.45 -58.55L-40.2 -58.5L-40 -58.4L-39.75 -58.35L-39.2 -58.35L-38.1 -58.25L-37.6 -58.1L-40.65 -57L-42.5 -55.95L-42.85 -55.6L-43.05 -55.45L-43.25 -55.15L-43.4 -54.8L-43.4 -54.65L-43.3 -54.45L-43.3 -54.3L-41.35 -50.85L-41.2 -50.5L-41.25 -50.4L-41.35 -50.3L-41.4 -50.15L-42.05 -50.15L-42.45 -50.2L-47.35 -52.25L-47.7 -52.3L-47.9 -52.3L-48.3 -52.1L-48.35 -52L-48.45 -51.9L-48.6 -51.35L-48.55 -49.95L-48.1 -47L-48.2 -46.35L-48.45 -45.55L-48.75 -45.7L-53.6 -50.15L-53.75 -50.25L-54.25 -50.25L-54.6 -50.15L-54.85 -49.95L-55.45 -49.25L-56.6 -46.7L-56.85 -46.2L-56.95 -46.7L-56.95 -48.5L-57.05 -48.85L-57.05 -49.2L-57.4 -50.2L-57.95 -50.65L-58.15 -50.7L-58.35 -50.7L-58.75 -50.8L-58.95 -50.7L-61.95 -48.75L-62 -48.85L-62.15 -49L-62.15 -49.6L-62 -50.05L-61.75 -50.45L-61.6 -50.6L-60.3 -51.35L-58.65 -52.1L-58.35 -52.3L-58.1 -52.4L-57.85 -52.6L-57.65 -52.9L-57.35 -53.1L-57.15 -53.35L-56.75 -54L-56.65 -54.35L-56.35 -55.2L-56.25 -56.2L-56.25 -57.1L-56.45 -58.4L-57.9 -64.2L-55.3 -64.35L-54.85 -64.45L-54.05 -64.7L-53.45 -65.1L-53.2 -65.35L-53.05 -65.7L-53 -66L-53.1 -66.4L-53.35 -66.55L-53.45 -66.65L-54.05 -66.8L-54.6 -66.65L-56.95 -66.25L-57.3 -66.25L-57.55 -66.35L-58 -66.6L-58.5 -67L-59.3 -68.05L-60.8 -70.85L-62.2 -72.6L-63.05 -73.2L-63.4 -73.3L-64.05 -73.45L-64.45 -73.45L-64.85 -73.4L-64.2 -74.25L-63.95 -74.7L-63.85 -74.9L-63.85 -77.1L-63.95 -77.3L-64 -77.55L-64.45 -78.2L-64.8 -78.6L-65.25 -78.95L-65.95 -79.3L-66.7 -79.4L-67.05 -79.4L-68.25 -79.05L-68.25 -81.4L-68.2 -81.85L-67.8 -83.2L-67.5 -83.7L-67.3 -84.1L-66.8 -84.85L-66.1 -85.65L-65 -86.65L-64.55 -86.9L-64.15 -87.25L-62.35 -88.2L-60.55 -88.9L-58.1 -89.5L-55.05 -89.3L-54 -89.05L-52.4 -88.45L-50.55 -87.4L-49.35 -86.35" />
<path style="fill:#EC3C12;fill-opacity:1" d="M42.4,-82.65L38.8 -82.95L37.8 -82.8L35.1 -82.65L31.55 -81.7L30.9 -81.4L30.15 -81.1L24.3 -77.9L21.65 -75.85L20.45 -74.7L18.85 -73L18 -71.85L15.4 -67.35L15.35 -67.1L15.2 -66.85L15.2 -66.65L15.15 -66.55L15.15 -66.35L15.2 -66.2L15.2 -66L15.3 -65.85L15.4 -65.75L15.75 -65.6L16 -65.6L16.15 -65.7L16.55 -66L20.25 -69.55L23.95 -72.25L26.95 -73.85L29.5 -74.7L32.3 -75.25L35.2 -75.35L38.4 -74.95L39.8 -74.55L41.9 -73.45L43.4 -72.4L46.8 -69.4L41.9 -69.65L38.85 -69.45L38.45 -69.45L34.2 -68.45L26.6 -65.7L23.95 -64.2L22.5 -63.05L22.1 -62.6L21.7 -62L21.65 -61.75L21.5 -61.5L21.5 -61.35L21.45 -60.85L21.45 -60.75L21.55 -60.6L21.65 -60.4L21.95 -60.2L22.2 -60.15L22.5 -60L23.9 -60.35L26.15 -61.05L30.55 -62L34.75 -62L38.25 -61.35L40.45 -60.55L42.6 -59.35L45.1 -57.25L46.55 -55.65L49.35 -51.55L49.2 -51.25L49.05 -51.1L47.4 -52.1L43.9 -53.55L40.4 -54.4L36.85 -54.8L34.2 -54.8L27 -53.9L24.4 -53.15L23.95 -52.95L22.9 -52.35L22.35 -51.9L22.2 -51.5L22.2 -51.35L22.1 -51.1L22.1 -50.95L22.2 -50.85L22.25 -50.7L22.3 -50.6L22.5 -50.45L23.25 -50.15L23.45 -50.15L25.55 -50.45L26.5 -50.45L30.65 -49.7L35.15 -48.2L39.25 -46.1L40.85 -44.9L41.25 -44.55L41.5 -44.25L38.8 -44.9L30.8 -46.2L25.8 -46.3L25.25 -46.2L24.7 -46.2L24.15 -46.1L23.6 -46.05L22.55 -45.65L21.75 -45.05L21.35 -44.45L21.3 -44.15L21.3 -43.9L21.25 -43.65L21.35 -43.35L21.45 -43.2L22.05 -42.5L25.2 -42.5L25.6 -42.45L28.6 -41.3L31 -39.9L33.4 -38.2L36.4 -35.4L37.4 -34.1L37.85 -33.25L38.15 -32.45L38.15 -32.05L38.1 -31.7L37.95 -31.45Q33.05 -34.5 28.2 -37.6L25.8 -38.85L23.75 -39.7L22.3 -40.05L22.1 -39.95L21.95 -39.95L21.65 -39.75L21.35 -39.5L20.95 -38.9L20.85 -38.6L20.8 -38.3L20.8 -38.2L25.5 -33.75L28.6 -29.6L29 -28.75L26.5 -29.8L20.6 -33.1L20.35 -33.1L19.7 -32.9L19.3 -32.7L19 -32.45L18.7 -32.2L18.65 -32L18.55 -31.85L18.4 -31.2L18.55 -30.8L22.25 -25.55L22.25 -24.5L13.9 -30.7L11.1 -32.2L16.15 -34.35L16.65 -34.75L16.8 -34.95L16.85 -35.15L16.8 -35.4L16.45 -36L16.15 -36.35L15 -37.25L14.55 -37.5L13.75 -38.1L12.3 -38.9L12.5 -39.05L13.4 -39.5L17 -40.95L17.2 -41.1L17.4 -41.4L17.3 -41.6L17.3 -41.8L17.2 -41.95L17.15 -42.1L16.8 -42.4L16 -42.95L13.3 -43.85L11.1 -44.25L11.4 -44.5L11.8 -44.7L13.35 -45.65L13.4 -45.75L13.65 -45.9L13.9 -46.3L14 -46.7L13.95 -46.8L13.95 -47L13.9 -47.15L13.75 -47.25L13.55 -47.55L13.25 -47.8L12.05 -48.2L8.9 -48.5L12.95 -52.25L13.3 -52.5L13.5 -52.75L13.65 -52.95L13.65 -53.5L13.55 -53.6L13.4 -53.75L13 -54L12.35 -54L8.9 -53.3L8.4 -53.25L8.1 -53.15L6.75 -53.15L8.05 -58.05L8.25 -59.6L8.25 -60.2L8.1 -60.85L8 -61L7.7 -61.4L7.1 -61.6L6.95 -61.6L1.35 -56.85L1.2 -57.3L1.2 -57.75L1.3 -58.55L1.3 -58.7L0.7 -60L0.65 -60.3L0.7 -62.2L0.75 -62.8L1.6 -66.25L3.15 -69.8L4.45 -72L7.8 -76.35L10.7 -79.3L15.05 -82.5L17.3 -83.8L22.1 -85.6L23.9 -85.9L25.1 -86.05L26.8 -86.05L28 -85.9L28.05 -85.9L28.2 -85.85L32.4 -86L34.9 -85.75L38.1 -85.1L40 -84.35L40.35 -84.15L40.6 -83.95L41.2 -83.6L42.4 -82.65" />
<path style="fill:#000000;fill-opacity:1" d="M-53.85,-77L-53.65 -76.65L-53.2 -75.5L-53 -74.15L-53.2 -72.8L-53.35 -72.4L-53.7 -71.75L-54.5 -70.95L-55.25 -70.55L-56.05 -70.3L-56.9 -70.15L-57.85 -70.15L-58.3 -70.25L-58.7 -70.35L-59.75 -70.95L-60.05 -71.2L-60.35 -71.55L-60.95 -72.55L-61.05 -72.9L-61.3 -74L-61.3 -74.8L-61.2 -75.25L-60.9 -76.1L-60.6 -76.4L-60.35 -76.85L-59.75 -77.5L-59.4 -77.75L-58.3 -78.4L-57.5 -78.65L-57.1 -78.75L-56.25 -78.65L-55.75 -78.6L-55 -78.2L-54.65 -77.95L-53.85 -77" />
<path style="fill:#FFFFFF;fill-opacity:1" d="M-65.55,-76.1L-65.65 -75.3L-65.8 -74.9L-65.95 -74.6L-66.25 -74.25L-66.65 -74L-67.25 -73.85L-67.55 -73.85L-67.85 -74L-68.1 -74.2L-68.25 -74.4L-68.45 -74.6L-68.5 -74.85L-68.55 -75.05L-68.55 -75.5L-68.5 -75.95L-68.2 -76.85L-67.95 -77.25L-67.85 -77.4L-67.7 -77.55L-67.5 -77.7L-67.35 -77.8L-67.2 -77.9L-66.85 -77.9L-66.8 -77.8L-66.65 -77.75L-66.5 -77.7L-66.25 -77.4L-65.85 -76.9L-65.65 -76.55L-65.55 -76.1" />
<path style="fill:#FFFFFF;fill-opacity:1" d="M-56.9,-77.25L-56.7 -77.25L-56.45 -77.15L-55.85 -76.75L-55.2 -75.7L-54.9 -74.9L-54.85 -74.6L-54.9 -74.2L-55.05 -73.7L-55.45 -73.05L-55.75 -72.65L-56 -72.55L-56.35 -72.2L-56.6 -72.15L-57.1 -72L-57.65 -72L-57.85 -72.1L-58.1 -72.15L-58.3 -72.25L-58.7 -72.65L-58.95 -73.05L-59.35 -73.95L-59.4 -74.3L-59.4 -75.35L-59.3 -75.9L-59.15 -76.1L-59.1 -76.3L-58.95 -76.5L-58.65 -76.85L-58.4 -76.9L-58.25 -77L-57.75 -77.15L-57.5 -77.15L-56.9 -77.25" />
<path style="fill:#000000;fill-opacity:1" d="M-66.95,-76.7L-66.8 -76.65L-66.65 -76.4L-66.35 -76.15L-65.85 -75.45L-66.45 -74.85L-67.7 -74.85L-67.8 -74.95L-67.85 -75.1L-67.9 -75.25L-67.9 -75.65L-67.6 -76.1L-67.5 -76.25L-67.35 -76.4L-67.2 -76.55L-66.95 -76.7" />
<path style="fill:#000000;fill-opacity:1" d="M-56.85,-74.65L-56.6 -74.4L-56.45 -74.15L-56.45 -73.2L-56.6 -73.15L-56.7 -73.05L-56.85 -73L-57.1 -73L-57.35 -73.05L-57.7 -73.2L-58.25 -73.55L-58.25 -74.3L-58.15 -74.4L-58.1 -74.55L-57.7 -74.85L-57.25 -74.85L-56.85 -74.65" />
<path style="fill:#FFB400;fill-opacity:1" d="M-66.2,-72.5L-67.5 -71.35L-67.6 -71.75L-67.7 -71.9L-67.55 -72.1L-67.35 -72.25L-66.95 -72.5L-66.2 -72.5" />
<path style="fill:#FFF100;fill-opacity:1" d="M-61.3,-67.65L-65.2 -62.8L-66.5 -61.4L-66.6 -62L-67.45 -65.05L-67.5 -65.4L-67.55 -65.7L-67.55 -68.4L-67.05 -68.9L-64.85 -70.75L-64.45 -71L-64.3 -71.15L-64.05 -71.15L-63.15 -70.3L-61.8 -68.55L-61.3 -67.65" />
<path style="fill:#E20A16;fill-opacity:1" d="M-60.55,-65.3L-58.15 -57.5L-58.1 -57.05L-58.3 -55.8L-58.55 -55.15L-59.1 -54.2L-59.7 -53.6L-60.05 -53.35L-60.65 -53.15L-61.4 -53.15L-62.25 -53.55L-62.65 -54L-63.15 -55.05L-63.25 -55.6L-63.3 -56.65L-63 -58.25L-60.65 -65.1L-60.55 -65.3" />
<path style="fill:#FC7216;fill-opacity:1" d="M11.1,-46.5L11.05 -46.45L10.9 -46.3L8.05 -44.3L7.85 -44.1L7.6 -43.75L7.6 -43.4L7.65 -43.2L8 -42.85L8.5 -42.5L11.5 -42.5L11.95 -42.45L13.35 -41.95L13.7 -41.75L14 -41.6L13.05 -41.35L10.85 -40.4L10.25 -40.05L9.75 -39.55L9.65 -39.3L9.6 -39.1L9.6 -38.9L9.75 -38.4L10.15 -37.85L10.85 -37.4L13.25 -36.2L13.9 -35.8L14.15 -35.6L14.2 -35.45L14.35 -35.35L10 -33.15L9.5 -33L9.4 -32.95L9.1 -32.95L8.35 -33.5L4.25 -37.05L-2.9 -42.35L-7.6 -44.7L-9.55 -45.4L-12.55 -45.9L-13.8 -45.9L-14.1 -45.85L-14.2 -45.7L-14.3 -45.65L-14.4 -45.4L-14.4 -45.05L-14.15 -44.65L-13.5 -44.15L-13.05 -44L-7.9 -42.75L-6.5 -42.2L-3 -40.2L1.2 -37.1L6.95 -32.2L15.15 -24.2L6.45 -29.55L-0.7 -33.6L-1.35 -33.85L-1.6 -33.9L-1.85 -33.95L-2.15 -33.9L-2.45 -33.75L-2.6 -33.6L-2.75 -33.35L8.9 -25.4L14.9 -21.95L16 -21.45L15.45 -21.15L14.5 -20.9L13.95 -20.85L11.1 -20.85L7.8 -21.15L3.35 -22.2L0.15 -23.4L-4.6 -25.55L-5.95 -26.05L-6.35 -26.05L-6.45 -25.95L-6.75 -25.7L-6.8 -25.55L-6.8 -24.9L-6.65 -24.5L-6.15 -23.85L-5.75 -23.55L-4.8 -22.85L-1.5 -21.5L6.2 -19.6L10.55 -18.95L15.45 -18.95L14.95 -18.35L14 -17.6L13 -17L10.9 -16.1L4.25 -14.75L0.05 -14.85L-0.6 -14.75L-0.85 -14.75L-11.15 -17.3L-12.5 -17.3L-12.55 -17.15L-12.65 -17.05L-12.7 -16.95L-12.75 -16.9L-12.15 -16.3L-10.9 -15.4L-9.65 -14.75L-9 -14.5L-2.35 -13.05L4.1 -12.95L10.85 -14.1L11 -14L11.1 -13.9L11.3 -13.85L9.45 -12.45L6.5 -10.95L3.45 -9.9L-1.6 -9.1L-7.75 -9.15L-16.95 -10.75L-17.95 -10.75L-18 -10.65L-18 -10.25L-17.95 -9.95L-17.65 -9.55L-17.3 -9.15L-15.4 -8.25L-12.95 -7.7L-8.05 -7.2L-4.55 -7.05L1.3 -7.25L-8.6 -4.8L-10.1 -4.7L-14.05 -4.75L-19.95 -5.65L-26.1 -7.7L-28.55 -8.9L-33.55 -12.25L-37.2 -15.75L-37.7 -15.5L-37.8 -15.35L-37.95 -15.15L-37.95 -14.85L-37.8 -14.65L-37.55 -14.1L-36.5 -12.8L-34.85 -11L-32.65 -9.25L-29.25 -7.2L-24.75 -5.25L-20.05 -3.9L-14.15 -2.9L-12.8 -2.85L-8.6 -2.95L-3.6 -3.8L-3.45 6.7L-3.8 7.95L-4.95 10.15L-5.25 10.55L-6.25 11.6L-6.6 11.8L-7 11.95L-7.35 12L-7.5 12L-7.75 11.85L-8.65 11.4L-8.85 11.35L-9.25 11.35L-10.75 12.05L-11.05 12.15L-11.25 12.2L-13.55 11.85L-13.95 11.75L-16.7 10.55L-19.05 9.05L-23.4 5.5L-29.65 -1.3L-29.8 -1.25L-29.9 -1.25L-30.15 -1.05L-30.4 -0.45L-30.45 0.05L-30.55 0.3L-30.45 0.75L-30.15 1.65L-28.4 4.3L-25.3 8.1L-28.55 8.1L-28.8 8.05L-29.85 7.6L-30.9 6.95L-31.7 6.3L-38.15 0L-39.1 -0.65L-40.65 -1.5L-43.55 -3.3L-47.35 -6.3L-49.45 -8.5L-51.8 -11.45L-53 -13.25L-55.6 -18.4L-57.75 -25L-59.6 -36.8L-59.75 -39.25L-59.55 -47.6L-59.4 -47.4L-59.25 -47.2L-58.15 -45.05L-58 -44.85L-57.65 -44.45L-57.4 -44.3L-57.15 -44.25L-56.65 -44.25L-56.15 -44.4L-55.9 -44.5L-55.5 -44.85L-55.1 -45.25L-54.45 -46.2L-54 -47.2L-50.3 -44.45L-49.85 -44.15L-49.1 -43.8L-48.7 -43.65L-48.05 -43.5L-47.8 -43.6L-47.7 -43.6L-47.55 -43.75L-47.35 -43.8L-47.1 -44.05L-46.5 -44.9L-46.35 -45.3L-46.35 -49.6L-41.75 -48.15L-41.45 -48.1L-40.9 -48.1L-40.4 -48.2L-40.15 -48.35L-39.95 -48.4L-39.45 -48.85L-39.2 -49.25L-39.1 -49.65L-38.95 -50.45L-39.15 -51.45L-39.25 -51.7L-39.45 -51.95L-39.6 -52.25L-40 -52.6L-40.8 -53.65L-41 -54.15L-41 -54.45L-40.75 -54.7L-40.1 -55.15L-35.5 -57.3L-34.95 -57.75L-34.9 -57.85L-34.9 -58.3L-35.1 -59L-35.2 -59.15L-35.3 -59.3L-35.5 -59.4L-35.6 -59.55L-37.95 -60.35L-37.75 -60.4L-37 -61.05L-35.15 -60.35L-31.55 -59.4L-22.3 -58.05L-11.9 -57.65L-13.15 -56.65L-13.35 -56.45L-13.5 -56.25L-13.65 -55.7L-13.55 -55.4L-13.5 -55.25L-13.5 -55.2L-13.3 -55L-13.1 -54.9L-12.9 -54.7L-12.7 -54.65L-12.05 -54.65L-11.65 -54.7L-5.15 -57L-5.4 -56.05L-5.45 -55.6L-5.45 -55.25L-5.4 -54.95L-5.4 -54.8L-5.35 -54.65L-5.2 -54.45L-4.8 -54.15L-4.4 -54L-4 -54L-3.75 -54.05L-3.25 -54.3L-2.9 -54.55L-1.55 -55.95L-0.95 -56.5L-0.95 -56.05L-1.2 -55.4L-1.45 -55.2L-1.75 -54.8L-1.9 -54.6L-1.9 -54.15L-1.75 -53.9L-1.55 -53.65L-1.05 -53.4L-0.3 -53.3L0.15 -53.5L1.3 -54.3L1.7 -54.65L5.75 -58.05L6 -58.15L5.95 -57.3L5.8 -56.75L3.95 -51.9L3.8 -51.35L3.95 -51.05L4.1 -50.9L4.7 -50.5L4.85 -50.45L5.15 -50.45L5.25 -50.5L8.1 -51.55L8.85 -51.75L10.1 -51.75L7.2 -49.25L6.6 -48.65L6.05 -47.95L6.05 -47.5L6.1 -47.35L6.25 -47.2L6.65 -46.75L10.65 -46.7L11.05 -46.55L11.1 -46.5" />
<path style="fill:#E20A16;fill-opacity:1" d="M-64.05,-60.55L-64.3 -58.05L-64.7 -56.25L-64.9 -55.7L-65.45 -54.7L-65.7 -54.35L-66.3 -53.95L-66.5 -53.9L-66.7 -53.8L-67.3 -53.8L-67.55 -53.9L-68.05 -54.15L-68.35 -54.45L-68.6 -54.9L-68.75 -55.3L-68.9 -56.05L-68.9 -56.3L-68.85 -56.85L-68.6 -57.6L-67.95 -59.2L-67.7 -58.7L-67.45 -58.3L-67.3 -58.15L-66.9 -58.05L-66.35 -58.05L-66.2 -58.1L-65.95 -58.15L-65.8 -58.3L-65.2 -58.95L-64.7 -59.75L-64.25 -60.35L-64.05 -60.55" />
<path style="fill:#FFF100;fill-opacity:1" d="M-26.15,10.5L-26.1 10.65L-26 10.75L-25.95 10.8L-25.95 11.1L-26.95 16.3L-26.9 18.25L-26.75 18.8L-26.5 19.25L-26.35 19.45L-25.95 19.75L-25.65 19.85L-25.4 19.9L-25.1 19.9L-24.85 19.85L-22.05 18.8L-21.75 18.75L-21.65 18.75L-21.25 18.85L-21.1 19L-20.9 19.15L-20.75 19.3L-20.7 19.45L-20.7 20.4L-20.85 20.45L-21.25 20.7L-22.65 21.95L-25.9 20.85L-26.1 20.8L-26.4 20.8L-27.2 20.95L-27.65 21.2L-29.05 22.05L-29.2 22.1L-29.3 22.1L-32.1 21.75L-32.8 21.85L-33.05 21.85L-33.3 21.9L-33.55 22.05L-33.8 22.1L-34.05 22.25L-34.25 22.45L-34.45 22.6L-35.1 23.4L-35.95 25L-36.6 24.6L-37 24.2L-37.15 24L-37.25 23.55L-37.25 23.1L-37.2 22.85L-36.8 21.6L-36.8 21.35L-36.75 21.2L-36.9 20.5L-37 20.15L-37.15 20L-37.2 19.8L-37.5 19.5L-37.8 19.25L-38.15 19.15L-38.55 19.05L-38.85 19.15L-43.15 20.9L-43.15 20.15L-43.1 19.85L-42.85 19.25L-42.45 18.6L-41.75 17.6L-41.45 17.35L-41.15 17.1L-40.85 16.8L-40.6 16.7L-40.35 16.5L-39.8 16.35L-39.45 16.45L-39.1 16.5L-38.25 16.85L-34.6 18.75L-33.2 19.15L-31.6 19.4L-30.4 19.4L-30.15 19.3L-29.65 19.05L-29.45 18.85L-29.25 18.65L-29.05 18.5L-28.95 18.15L-28.25 16.85L-27.65 14.55L-27.05 10.5L-26.15 10.5" />
<path style="fill:#FFF100;fill-opacity:1" d="M-9.3,14.05L-9 14.05L-8.65 14.1L-8.3 14.25L-8 14.45L-9.1 21.85L-9.15 25.6L-9 26.25L-8.9 26.45L-8.8 26.6L-8.4 26.85L-8.2 26.9L-7.9 27L-7.6 27L-2.5 25.55L-2.2 25.55L-2 25.45L-1.75 25.45L-1.1 25.65L-0.55 26.2L-0.45 26.5L-0.25 27.25L-0.25 27.9L-0.9 30.35L-1.35 31.2L-1.5 31.4L-1.7 31.6L-1.9 31.7L-2 31.1L-2.35 30.6L-2.75 30.05L-3 29.8L-4.15 29.05L-4.8 28.8L-5.2 28.75L-5.55 28.7L-6.6 28.7L-9.3 28.35L-17.45 28.5L-17.65 28.55L-18 28.7L-18.25 28.95L-19.2 30.55L-19.4 30.8L-19.6 31L-21.25 30.2L-21.6 30.05L-21.75 29.9L-22 29.75L-22.15 29.55L-22.3 29.4L-22.35 29.25L-22.45 29.05L-22.5 28.9L-22.5 28.65L-22.6 28.4L-22.6 27.85L-22.35 26.35L-22 25L-21.45 23.75L-21.25 23.35L-21 23L-20.7 22.85L-20.45 22.7L-20.1 22.6L-19.7 22.85L-14.6 26.05L-14.05 26.25L-13.55 26.5L-12.7 26.65L-12.35 26.65L-12.1 26.6L-11.9 26.45L-11.65 26.3L-11.45 26.1L-11.25 25.85L-11.05 25.65L-10.9 25.3L-10.7 25.05L-10.3 24L-9.65 20.15L-9.5 15.95L-9.4 14.4L-9.3 14.05" />
<path style="fill:#FFF100;fill-opacity:1" d="M-27.4,23.8L-26.9 23.4L-26.65 23.35L-26.55 23.35L-26.25 23.3L-25.95 23.3L-25.65 23.4L-24.95 23.65L-24.35 24.05L-24.15 24.25L-24.1 24.4L-24.1 24.95L-24.25 25.6L-24.5 26.1L-24.7 26.3L-27.05 28.3L-27.9 29.15L-28.45 28.75L-28.65 28.55L-28.75 28.4L-28.8 28.15L-28.8 27L-28.65 26.35L-28.05 24.65L-27.9 24.35L-27.4 23.8" />
</g>
</svg>
