<?xml version="1.0" encoding="utf-8"?>
<svg version="1.1" id="Layer_1"
xmlns="http://www.w3.org/2000/svg"
xmlns:xlink="http://www.w3.org/1999/xlink"
xmlns:author="http://www.sothink.com"
width="212px" height="212px"
xml:space="preserve">
<g id="6" transform="matrix(1, 0, 0, 1, 105.85, 105.8)">
<path style="fill:#666666;fill-opacity:1" d="M23.8,-74.05Q29.7 -66.6 34.25 -63.75Q44.1 -57.6 52 -54L66.25 -47.75Q87.2 -37.8 95.9 -14Q109.05 22.15 93.25 87.25Q-24.75 114.25 -59.75 91.25Q-89.75 47.25 -98.75 7.25Q-102.4 -8.85 -101.75 -17.35Q-100.6 -32.95 -87.75 -37.75Q-71.75 -43.75 -70.75 -66.75Q-70.75 -100.75 -30.75 -101.75Q-14.85 -102.1 -3.45 -97.65Q5.7 -94.05 13 -86.85Q16 -83.9 23.8 -74.05" />
<path style="fill:none;stroke-width:8;stroke-linecap:round;stroke-linejoin:round;stroke-miterlimit:3;stroke:#000000;stroke-opacity:1" d="M13,-86.85Q5.7 -94.05 -3.45 -97.65Q-14.85 -102.1 -30.75 -101.75Q-70.75 -100.75 -70.75 -66.75Q-71.75 -43.75 -87.75 -37.75Q-100.6 -32.95 -101.75 -17.35Q-102.4 -8.85 -98.75 7.25Q-89.75 47.25 -59.75 91.25Q-24.75 114.25 93.25 87.25Q109.05 22.15 95.9 -14Q87.2 -37.8 66.25 -47.75L52 -54Q44.1 -57.6 34.25 -63.75Q29.7 -66.6 23.8 -74.05Q16 -83.9 13 -86.85z" />
<path style="fill:none;stroke-width:4;stroke-linecap:round;stroke-linejoin:round;stroke-miterlimit:3;stroke:#000000;stroke-opacity:1" d="M-62.4,38.6Q-57.75 87.95 -23.75 99.95" />
<path style="fill:none;stroke-width:4;stroke-linecap:round;stroke-linejoin:round;stroke-miterlimit:3;stroke:#000000;stroke-opacity:1" d="M-69.75,53.25Q-61.1 89.95 -35.75 95.95" />
<path style="fill:none;stroke-width:4;stroke-linecap:round;stroke-linejoin:round;stroke-miterlimit:3;stroke:#000000;stroke-opacity:1" d="M39.25,-41.05Q79.9 -20.4 74.25 9.25" />
<path style="fill:none;stroke-width:8;stroke-linecap:round;stroke-linejoin:round;stroke-miterlimit:3;stroke:#000000;stroke-opacity:1" d="M15.6,-38.05Q36.65 -26.25 52.25 -19.4Q73.6 -10.05 76.25 24.6Q80.25 79.25 60.9 92.6" />
<path style="fill:none;stroke-width:4;stroke-linecap:round;stroke-linejoin:round;stroke-miterlimit:3;stroke:#000000;stroke-opacity:1" d="M-29.75,-91.4Q-5.1 -92.05 3.6 -74.75" />
<path style="fill:none;stroke-width:5;stroke-linecap:round;stroke-linejoin:round;stroke-miterlimit:3;stroke:#000000;stroke-opacity:1" d="M25.25,-1.05Q33.25 32.25 33.25 48.25Q33.25 64.25 24.6 82.25" />
<path style="fill:none;stroke-width:6;stroke-linecap:round;stroke-linejoin:round;stroke-miterlimit:3;stroke:#000000;stroke-opacity:1" d="M-69.1,-48.75Q-82.4 -43.4 -87.1 -32.05Q-94.95 -12.95 -79.1 0.6" />
<path style="fill:none;stroke-width:6;stroke-linecap:round;stroke-linejoin:round;stroke-miterlimit:3;stroke:#000000;stroke-opacity:1" d="M-11.1,-55.4Q17.6 -49.4 16.25 -30.75" />
<path style="fill:none;stroke-width:4;stroke-linecap:round;stroke-linejoin:round;stroke-miterlimit:3;stroke:#000000;stroke-opacity:1" d="M100.25,46.6Q90.9 75.95 70.9 91.25" />
<path style="fill:none;stroke-width:6;stroke-linecap:round;stroke-linejoin:round;stroke-miterlimit:3;stroke:#000000;stroke-opacity:1" d="M15.9,53.6Q13.9 70.95 8.6 80.25Q3.25 89.6 -6.75 100.95" />
<path style="fill:none;stroke-width:3;stroke-linecap:round;stroke-linejoin:round;stroke-miterlimit:3;stroke:#000000;stroke-opacity:1" d="M83.9,-7.05Q95.9 31.6 87.9 56.95" />
<path style="fill:none;stroke-width:3;stroke-linecap:round;stroke-linejoin:round;stroke-miterlimit:3;stroke:#000000;stroke-opacity:1" d="M82.6,32.25Q83.9 69.6 75.25 87.6" />
<path style="fill:none;stroke-width:3;stroke-linecap:round;stroke-linejoin:round;stroke-miterlimit:3;stroke:#000000;stroke-opacity:1" d="M60.6,-38.4Q73.25 -29.75 81.25 -25.05Q86.8 -21.8 92.25 -13.65Q97 -6.55 99.25 0.25" />
<path style="fill:none;stroke-width:3;stroke-linecap:round;stroke-linejoin:round;stroke-miterlimit:3;stroke:#000000;stroke-opacity:1" d="M92.6,-1.05Q102.6 32.95 93.25 64.25" />
</g>
</svg>
