<?xml version="1.0" encoding="utf-8"?>
<svg version="1.1" id="Layer_1"
xmlns="http://www.w3.org/2000/svg"
xmlns:xlink="http://www.w3.org/1999/xlink"
xmlns:author="http://www.sothink.com"
width="212px" height="293px"
xml:space="preserve">
<g id="5" transform="matrix(1, 0, 0, 1, 123.2, 149.6)">
<path style="fill:#FFFFFF;fill-opacity:1" d="M37.55,-146.75Q84.95 -141.75 87.1 -129.25L38.7 -129.25L-6.7 -143.85Q2.9 -150.45 37.55 -146.75" />
<path style="fill:none;stroke-width:3;stroke-linecap:round;stroke-linejoin:round;stroke-miterlimit:3;stroke:#000000;stroke-opacity:1" d="M37.55,-146.75Q84.95 -141.75 87.1 -129.25L38.7 -129.25L-6.7 -143.85Q2.9 -150.45 37.55 -146.75z" />
<path style="fill:#FFFFFF;fill-opacity:1" d="M-17.75,-98.5Q-16.4 -116.55 -3.7 -129.25L77.75 -123.25Q83.8 -109.85 84.45 -99.2Q85.1 -88.4 83.8 -75.05Q82.05 -57.3 77.1 -44.4Q69.15 -23.4 73.1 0.3L74.85 11.15L79.1 29.55Q83.1 44.55 77.1 66.45Q72.75 82.2 51.65 91.4Q44.55 94.4 36.45 96.3Q30.7 97.65 27.7 97.8Q1.9 99.4 -16.05 109.15Q-42.1 127.2 -76.5 139.25Q-108.7 147.25 -119.25 121.85Q-128.15 100.05 -104.45 78.7Q-96.3 71.35 -82.35 62.45L-61.15 49.05Q-44.85 38.2 -36.25 22.75Q-30.15 11.85 -26.4 -5Q-23.9 -16.4 -21.05 -51.75L-17.75 -98.5" />
<path style="fill:none;stroke-width:3;stroke-linecap:round;stroke-linejoin:round;stroke-miterlimit:3;stroke:#000000;stroke-opacity:1" d="M-21.05,-51.75Q-23.9 -16.4 -26.4 -5Q-30.15 11.85 -36.25 22.75Q-44.85 38.2 -61.15 49.05L-82.35 62.45Q-96.3 71.35 -104.45 78.7Q-128.15 100.05 -119.25 121.85Q-108.7 147.25 -76.5 139.25Q-42.1 127.2 -16.05 109.15Q1.9 99.4 27.7 97.8Q30.7 97.65 36.45 96.3Q44.55 94.4 51.65 91.4Q72.75 82.2 77.1 66.45Q83.1 44.55 79.1 29.55L74.85 11.15L73.1 0.3Q69.15 -23.4 77.1 -44.4Q82.05 -57.3 83.8 -75.05Q85.1 -88.4 84.45 -99.2Q83.8 -109.85 77.75 -123.25L-3.7 -129.25Q-16.4 -116.55 -17.75 -98.5L-21.05 -51.75z" />
<path style="fill:#FFFFFF;fill-opacity:1" d="M64.5,-115.55Q49.8 -114.7 35.05 -116.7Q27.25 -117.7 8.5 -122.2Q-3.85 -124.9 -7.4 -127Q-12.65 -130.05 -11.4 -136.9Q-8.7 -151.6 6 -144.6Q22 -137.4 46.9 -135.75Q55 -135.25 65.6 -135.25L79.75 -135.25Q83.8 -135.15 85.7 -132.4Q87.45 -130 87.2 -126.4Q86.85 -123 85.05 -120.3Q82.95 -117.45 80.1 -117.2L64.5 -115.55" />
<path style="fill:none;stroke-width:3;stroke-linecap:round;stroke-linejoin:round;stroke-miterlimit:3;stroke:#000000;stroke-opacity:1" d="M80.1,-117.2Q82.95 -117.45 85.05 -120.3Q86.85 -123 87.2 -126.4Q87.45 -130 85.7 -132.4Q83.8 -135.15 79.75 -135.25L65.6 -135.25Q55 -135.25 46.9 -135.75Q22 -137.4 6 -144.6Q-8.7 -151.6 -11.4 -136.9Q-12.65 -130.05 -7.4 -127Q-3.85 -124.9 8.5 -122.2Q27.25 -117.7 35.05 -116.7Q49.8 -114.7 64.5 -115.55L80.1 -117.2z" />
<path style="fill:#FFFFFF;fill-opacity:1" d="M-57.45,131.7Q-88.2 115.7 -95.55 72.3L-57.45 131.7" />
<path style="fill:none;stroke-width:3;stroke-linecap:round;stroke-linejoin:round;stroke-miterlimit:3;stroke:#000000;stroke-opacity:1" d="M-57.45,131.7Q-88.2 115.7 -95.55 72.3" />
<path style="fill:#FFFFFF;fill-opacity:1" d="M31,97.65Q38.05 49.55 27 32.55Q41.05 31.55 75.1 16.5L31 97.65" />
<path style="fill:none;stroke-width:3;stroke-linecap:round;stroke-linejoin:round;stroke-miterlimit:3;stroke:#000000;stroke-opacity:1" d="M31,97.65Q38.05 49.55 27 32.55Q41.05 31.55 75.1 16.5" />
<path style="fill:none;stroke-width:2;stroke-linecap:round;stroke-linejoin:round;stroke-miterlimit:3;stroke:#000000;stroke-opacity:1" d="M2.65,-144.95Q-6.85 -139.4 -4.05 -126.05" />
<path style="fill:none;stroke-width:2;stroke-linecap:round;stroke-linejoin:round;stroke-miterlimit:3;stroke:#000000;stroke-opacity:1" d="M9.15,-142.75Q-0.05 -132.35 4.15 -123.55" />
<path style="fill:none;stroke-width:2;stroke-linecap:round;stroke-linejoin:round;stroke-miterlimit:3;stroke:#000000;stroke-opacity:1" d="M16.25,-140.25Q8.75 -131.05 11.65 -121.45" />
<path style="fill:none;stroke-width:2;stroke-linecap:round;stroke-linejoin:round;stroke-miterlimit:3;stroke:#000000;stroke-opacity:1" d="M22.95,-137.75Q16.25 -126.5 19.6 -119.4" />
<path style="fill:none;stroke-width:2;stroke-linecap:round;stroke-linejoin:round;stroke-miterlimit:3;stroke:#000000;stroke-opacity:1" d="M30.45,-136.1Q25.85 -125.25 26.7 -118.95" />
<path style="fill:none;stroke-width:2;stroke-linecap:round;stroke-linejoin:round;stroke-miterlimit:3;stroke:#000000;stroke-opacity:1" d="M38.8,-134.4L35.05 -116.7" />
<path style="fill:none;stroke-width:2;stroke-linecap:round;stroke-linejoin:round;stroke-miterlimit:3;stroke:#000000;stroke-opacity:1" d="M47.95,-134.85Q47.55 -118.95 44.65 -114.8" />
<path style="fill:none;stroke-width:2;stroke-linecap:round;stroke-linejoin:round;stroke-miterlimit:3;stroke:#000000;stroke-opacity:1" d="M56.3,-134.4Q57.55 -120.65 52.55 -115.2" />
<path style="fill:none;stroke-width:2;stroke-linecap:round;stroke-linejoin:round;stroke-miterlimit:3;stroke:#000000;stroke-opacity:1" d="M65.1,-134Q68 -124.4 63 -114.4" />
<path style="fill:none;stroke-width:2;stroke-linecap:round;stroke-linejoin:round;stroke-miterlimit:3;stroke:#000000;stroke-opacity:1" d="M73.85,-134Q76.75 -122.75 71.35 -115.65" />
<path style="fill:#FFFFFF;fill-opacity:1" d="M38.95,39.2Q61.75 35.4 77.85 25.85L39.45 96.55Q45.65 58.15 38.95 39.2" />
<path style="fill:none;stroke-width:2;stroke-linecap:round;stroke-linejoin:round;stroke-miterlimit:3;stroke:#000000;stroke-opacity:1" d="M42.4,58.4L42.45 65.2M41.2,48.15L42.15 55M40.1,39.05L38.95 39.2Q39.85 41.8 40.55 44.75M50.05,36.9L43.45 38.4M40.6,88.9L39.6 95.75M41.7,78.8L40.95 85.45M42.4,68.6L42.05 75.35M69,30.45L62.85 32.95M77.85,25.85L72 29.05M59.65,34.15L53.4 36.05" />
<path style="fill:none;stroke-width:2;stroke-linecap:round;stroke-linejoin:round;stroke-miterlimit:3;stroke:#000000;stroke-opacity:1" d="M-101.45,80.2L-102.05 75.55M-99.55,90.2L-100.95 83.55M-96.55,99.75L-98.7 93.4M-92.25,108.65L-95.3 102.75M-86.7,116.85L-90.5 111.5M-72.3,130.3L-77.6 126.3M-63.9,135.2L-69.55 132.05M-80,124.1L-84.6 119.35" />
</g>
</svg>
