<?xml version="1.0" encoding="UTF-8"?>
<svg xmlns="http://www.w3.org/2000/svg" xmlns:xlink="http://www.w3.org/1999/xlink" width="252pt" height="296pt" viewBox="0 0 252 296" version="1.1">
<g id="surface1">
<path style=" stroke:none;fill-rule:nonzero;fill:rgb(100%,100%,100%);fill-opacity:1;" d="M 165.800781 169 L 165.800781 287.601562 L 95.398438 287.601562 L 95.398438 169 L 165.800781 169 "/>
<path style=" stroke:none;fill-rule:nonzero;fill:rgb(0%,0%,0%);fill-opacity:1;" d="M 93.601562 167.601562 L 97 166.800781 L 167.199219 166.800781 C 168.800781 166.800781 169.601562 167.199219 169.601562 168 L 169.601562 286.601562 C 169.601562 288.066406 168.332031 289.066406 165.800781 289.601562 L 165.601562 289.800781 L 94 289.800781 C 92.398438 289.800781 91.601562 289.464844 91.601562 288.800781 L 91.601562 170 C 91.601562 168.933594 92.265625 168.132812 93.601562 167.601562 M 164 171.199219 L 99.398438 171.199219 L 99.398438 274.199219 L 99.800781 281.800781 C 99.800781 284.332031 99 285.601562 97.398438 285.601562 L 161.800781 285.601562 L 161.800781 182.398438 L 161.398438 175 C 161.535156 172.464844 162.398438 171.199219 164 171.199219 "/>
<path style=" stroke:none;fill-rule:nonzero;fill:rgb(80%,80%,80%);fill-opacity:1;" d="M 161 173.800781 L 161 292.601562 L 90.601562 292.601562 L 90.601562 173.800781 L 161 173.800781 "/>
<path style=" stroke:none;fill-rule:nonzero;fill:rgb(0%,0%,0%);fill-opacity:1;" d="M 88.398438 172 C 89.332031 171.332031 90.199219 171 91 171 L 161.199219 171 C 163.601562 171 164.800781 171.867188 164.800781 173.601562 L 164.800781 292.199219 L 162.800781 294.800781 L 161 295.199219 L 90.199219 295.199219 C 87.933594 295.199219 86.800781 294.398438 86.800781 292.800781 L 86.800781 174.199219 C 86.800781 173.398438 87.332031 172.667969 88.398438 172 M 94.601562 176.601562 L 94.601562 289.800781 L 157 289.800781 L 157 176.601562 L 94.601562 176.601562 "/>
<path style=" stroke:none;fill-rule:nonzero;fill:rgb(100%,100%,100%);fill-opacity:1;" d="M 231.398438 125.800781 C 231.398438 155.132812 221.066406 180.132812 200.398438 200.800781 C 179.867188 221.464844 155 231.800781 125.800781 231.800781 C 96.464844 231.800781 71.464844 221.464844 50.800781 200.800781 C 30.132812 180.132812 19.800781 155.132812 19.800781 125.800781 C 19.800781 96.601562 30.132812 71.667969 50.800781 51 C 71.464844 30.332031 96.464844 20 125.800781 20 C 155 20 179.867188 30.332031 200.398438 51 C 221.066406 71.667969 231.398438 96.601562 231.398438 125.800781 "/>
<path style=" stroke:none;fill-rule:nonzero;fill:rgb(0%,0%,0%);fill-opacity:1;" d="M 125.800781 0 C 151.667969 0 175.332031 7.398438 196.800781 22.199219 C 213.867188 33.933594 227.199219 48.933594 236.800781 67.199219 C 246.535156 85.601562 251.398438 105.132812 251.398438 125.800781 L 251.199219 131.398438 C 250.265625 153.535156 243.800781 174.066406 231.800781 193 C 219.800781 211.933594 204 226.601562 184.398438 237 C 166.265625 246.734375 146.734375 251.601562 125.800781 251.601562 C 106.734375 251.601562 88.601562 247.464844 71.398438 239.199219 C 54.332031 231.066406 39.800781 219.535156 27.800781 204.601562 C 18.867188 193.535156 12 181.199219 7.199219 167.601562 C 2.398438 154 0 140.066406 0 125.800781 C 0 113.398438 1.800781 101.265625 5.398438 89.398438 C 11.535156 69.132812 22.066406 51.535156 37 36.601562 C 52.066406 21.667969 69.800781 11.199219 90.199219 5.199219 C 102.066406 1.734375 113.933594 0 125.800781 0 "/>
<path style=" stroke:none;fill-rule:nonzero;fill:rgb(100%,100%,100%);fill-opacity:1;" d="M 229.398438 71.199219 C 238.332031 88.265625 242.800781 106.464844 242.800781 125.800781 L 242.601562 131.199219 C 241.667969 151.867188 235.667969 170.933594 224.601562 188.398438 C 213.398438 206 198.667969 219.667969 180.398438 229.398438 C 163.601562 238.464844 145.398438 243 125.800781 243 C 107.933594 243 91.066406 239.199219 75.199219 231.601562 C 59.199219 224 45.601562 213.199219 34.398438 199.199219 C 26.132812 188.933594 19.734375 177.464844 15.199219 164.800781 C 10.800781 152.132812 8.601562 139.132812 8.601562 125.800781 C 8.601562 114.066406 10.265625 102.800781 13.601562 92 C 19.332031 73.066406 29.199219 56.601562 43.199219 42.601562 C 57.066406 28.734375 73.535156 19 92.601562 13.398438 C 103.398438 10.199219 114.464844 8.601562 125.800781 8.601562 C 149.933594 8.601562 172 15.464844 192 29.199219 C 207.867188 40.132812 220.332031 54.132812 229.398438 71.199219 "/>
<path style=" stroke:none;fill-rule:nonzero;fill:rgb(92.54902%,10.980392%,14.117647%);fill-opacity:1;" d="M 78.800781 103.199219 C 61.464844 132.132812 49.601562 161.800781 43.199219 192.199219 C 27.601562 172.734375 19.800781 150.601562 19.800781 125.800781 C 19.800781 115.265625 21.332031 105.066406 24.398438 95.199219 C 35.066406 76.800781 50.535156 63.199219 70.800781 54.398438 C 87.066406 47.464844 102.398438 44.734375 116.800781 46.199219 L 116.398438 48.398438 C 116.398438 50.667969 117.332031 52.867188 119.199219 55 C 107.332031 61.933594 93.867188 78 78.800781 103.199219 "/>
<path style=" stroke:none;fill-rule:nonzero;fill:rgb(100%,50.196078%,0%);fill-opacity:1;" d="M 115.199219 28.800781 C 119.867188 31.464844 123.132812 34.933594 125 39.199219 C 123 39.464844 121.265625 40.199219 119.800781 41.398438 C 118.199219 42.734375 117.199219 44.332031 116.800781 46.199219 C 102.398438 44.734375 87.066406 47.464844 70.800781 54.398438 C 50.535156 63.199219 35.066406 76.800781 24.398438 95.199219 C 29.464844 78.265625 38.398438 63.464844 51.199219 50.800781 C 63.867188 38.132812 78.734375 29.265625 95.800781 24.199219 C 103.398438 24.199219 109.867188 25.734375 115.199219 28.800781 "/>
<path style=" stroke:none;fill-rule:nonzero;fill:rgb(92.54902%,10.980392%,14.117647%);fill-opacity:1;" d="M 115.199219 28.800781 C 109.867188 25.734375 103.398438 24.199219 95.800781 24.199219 C 105.398438 21.398438 115.398438 20 125.800781 20 C 147.800781 20 167.667969 26.199219 185.398438 38.601562 C 176.332031 35.933594 166.199219 34.933594 155 35.601562 C 144.332031 36.398438 136.601562 38.332031 131.800781 41.398438 C 129.933594 39.800781 127.933594 39 125.800781 39 L 125 39.199219 C 123.132812 34.933594 119.867188 31.464844 115.199219 28.800781 "/>
<path style=" stroke:none;fill-rule:nonzero;fill:rgb(100%,50.196078%,0%);fill-opacity:1;" d="M 130.800781 56.199219 C 140.667969 69.667969 149.867188 89.464844 158.398438 115.601562 C 169.464844 149.867188 175 184.464844 175 219.398438 C 159.667969 227.667969 143.265625 231.800781 125.800781 231.800781 C 109.398438 231.800781 93.867188 228.199219 79.199219 221 C 65.066406 214.066406 53.066406 204.464844 43.199219 192.199219 C 49.601562 161.800781 61.464844 132.132812 78.800781 103.199219 C 93.867188 78 107.332031 61.933594 119.199219 55 C 121.199219 56.734375 123.398438 57.601562 125.800781 57.601562 L 130.800781 56.199219 "/>
<path style=" stroke:none;fill-rule:nonzero;fill:rgb(92.54902%,10.980392%,14.117647%);fill-opacity:1;" d="M 187.800781 69.398438 C 209.132812 85 223.667969 105.398438 231.398438 130.601562 C 230.464844 149.667969 224.867188 167.199219 214.601562 183.199219 C 204.601562 198.667969 191.398438 210.734375 175 219.398438 C 175 184.464844 169.464844 149.867188 158.398438 115.601562 C 149.867188 89.464844 140.667969 69.667969 130.800781 56.199219 C 133.601562 54.464844 135 51.867188 135 48.398438 C 152.464844 49.199219 170.066406 56.199219 187.800781 69.398438 "/>
<path style=" stroke:none;fill-rule:nonzero;fill:rgb(100%,50.196078%,0%);fill-opacity:1;" d="M 218.800781 75.800781 C 227.199219 91.398438 231.398438 108.066406 231.398438 125.800781 L 231.398438 130.601562 C 223.667969 105.398438 209.132812 85 187.800781 69.398438 C 170.066406 56.199219 152.464844 49.199219 135 48.398438 C 135 45.464844 133.933594 43.132812 131.800781 41.398438 C 136.601562 38.332031 144.332031 36.398438 155 35.601562 C 166.199219 34.933594 176.332031 35.933594 185.398438 38.601562 C 199.535156 48.332031 210.667969 60.734375 218.800781 75.800781 "/>
<path style=" stroke:none;fill-rule:nonzero;fill:rgb(76.078431%,15.294118%,17.647059%);fill-opacity:1;" d="M 125.800781 39 C 127.933594 39 129.933594 39.800781 131.800781 41.398438 C 133.933594 43.132812 135 45.464844 135 48.398438 C 135 51.867188 133.601562 54.464844 130.800781 56.199219 L 125.800781 57.601562 C 123.398438 57.601562 121.199219 56.734375 119.199219 55 C 117.332031 52.867188 116.398438 50.667969 116.398438 48.398438 L 116.800781 46.199219 C 117.199219 44.332031 118.199219 42.734375 119.800781 41.398438 C 121.265625 40.199219 123 39.464844 125 39.199219 L 125.800781 39 "/>
</g>
</svg>
