<?xml version="1.0" encoding="UTF-8"?>
<svg xmlns="http://www.w3.org/2000/svg" xmlns:xlink="http://www.w3.org/1999/xlink" width="256pt" height="344pt" viewBox="0 0 256 344" version="1.1">
<g id="surface1">
<path style=" stroke:none;fill-rule:nonzero;fill:rgb(100%,100%,100%);fill-opacity:1;" d="M 151.199219 334.398438 L 81 334.398438 L 81 215.800781 L 151.199219 215.800781 L 151.199219 334.398438 "/>
<path style=" stroke:none;fill-rule:nonzero;fill:rgb(0%,0%,0%);fill-opacity:1;" d="M 147.398438 218.398438 L 84.800781 218.398438 L 84.800781 331.800781 L 147.398438 331.800781 L 147.398438 218.398438 M 155.199219 215.398438 L 155.199219 334 C 155.199219 335.734375 153.933594 336.800781 151.398438 337.199219 L 148.800781 337 L 80.601562 337 C 78.199219 337 77 336.265625 77 334.800781 L 77 216 C 77 215.199219 77.535156 214.464844 78.601562 213.800781 L 81.398438 213 L 151.601562 213 C 154 213 155.199219 213.800781 155.199219 215.398438 "/>
<path style=" stroke:none;fill-rule:nonzero;fill:rgb(80%,80%,80%);fill-opacity:1;" d="M 146.398438 339.199219 L 76.199219 339.199219 L 76.199219 220.601562 L 146.398438 220.601562 L 146.398438 339.199219 "/>
<path style=" stroke:none;fill-rule:nonzero;fill:rgb(0%,0%,0%);fill-opacity:1;" d="M 150.199219 220.199219 L 150.199219 338.800781 C 150.199219 340.265625 148.933594 341.199219 146.398438 341.601562 L 74.601562 341.601562 C 73 341.601562 72.199219 341 72.199219 339.800781 L 72.199219 221 C 72.199219 220.066406 72.933594 219.332031 74.398438 218.800781 L 77.601562 218.199219 L 147.800781 218.199219 C 149.398438 218.199219 150.199219 218.867188 150.199219 220.199219 M 80 337 L 142.601562 337 L 142.601562 223 L 80 223 L 80 337 "/>
<path style=" stroke:none;fill-rule:nonzero;fill:rgb(100%,100%,0%);fill-opacity:1;" d="M 195.398438 24.398438 C 204.066406 33.199219 210.601562 43.667969 215 55.800781 C 219.398438 67.933594 221.332031 80.734375 220.800781 94.199219 C 232.667969 102.867188 241.464844 113.066406 247.199219 124.800781 C 252.933594 136.535156 255.066406 148.867188 253.601562 161.800781 C 251.332031 181.265625 242.800781 199.332031 228 216 C 214.933594 230.800781 199.535156 241.867188 181.800781 249.199219 L 163.199219 254.800781 L 153.601562 257.398438 C 152.265625 263.667969 149.066406 269.464844 144 274.800781 L 143.601562 275 C 140 278.464844 136 281.066406 131.601562 282.800781 C 130.535156 291.464844 127 298.667969 121 304.398438 L 120.800781 304.800781 L 113.199219 310.398438 L 112.398438 311.199219 L 112.199219 311.601562 L 108.800781 315.800781 L 107.199219 319.800781 C 104.667969 326.066406 100.800781 331.199219 95.601562 335.199219 C 90.535156 339.464844 84.667969 341.601562 78 341.601562 C 69.066406 341.601562 61.734375 338.132812 56 331.199219 C 51.867188 326.265625 49.734375 320.601562 49.601562 314.199219 C 49.332031 307.800781 51 302.066406 54.601562 297 L 54.800781 296.601562 C 54.800781 291.800781 55.464844 287.199219 56.800781 282.800781 C 52 276.535156 49.800781 269.398438 50.199219 261.398438 C 39 252.332031 29.265625 241.667969 21 229.398438 C 12.734375 217.132812 6.933594 204.601562 3.601562 191.800781 C -3.867188 164.199219 0.132812 139.066406 15.601562 116.398438 C 21.464844 107.734375 28.933594 100.667969 38 95.199219 C 38 80.265625 41.464844 66.332031 48.398438 53.398438 C 53.601562 43.800781 60.265625 35.332031 68.398438 28 C 77.867188 19.066406 88.601562 12.199219 100.601562 7.398438 C 112.464844 2.464844 124.535156 0 136.800781 0 C 159.867188 0 179.398438 8.132812 195.398438 24.398438 "/>
<path style=" stroke:none;fill-rule:nonzero;fill:rgb(0%,0%,0%);fill-opacity:1;" d="M 187.199219 32.398438 C 195.464844 40.800781 201.535156 50.867188 205.398438 62.601562 C 209.265625 74.332031 210.535156 86.800781 209.199219 100 C 221.066406 107.464844 229.867188 116.464844 235.601562 127 C 241.464844 137.398438 243.734375 148.535156 242.398438 160.398438 C 240.398438 177.867188 232.734375 194.066406 219.398438 209 C 207.535156 222.199219 193.535156 232.132812 177.398438 238.800781 C 173.667969 240.398438 168.066406 242.066406 160.601562 243.800781 L 147.199219 247.800781 C 146 248.464844 144.601562 249.601562 143 251.199219 C 142.734375 257.066406 140.332031 262.265625 135.800781 266.800781 C 131.398438 270.933594 126.398438 273.332031 120.800781 274 L 120.800781 275.398438 L 119.601562 285 C 118.535156 289.398438 116.332031 293.199219 113 296.398438 L 105.800781 301.398438 L 105.601562 301.398438 L 105.398438 301.800781 L 98.601562 310.398438 L 98.398438 310.601562 L 98.199219 311.601562 L 96.601562 315.601562 C 94.867188 320 92.199219 323.601562 88.601562 326.398438 C 85.398438 328.933594 81.867188 330.199219 78 330.199219 C 72.535156 330.199219 68.132812 328.132812 64.800781 324 C 62.265625 320.800781 61 317.199219 61 313.199219 C 61 309.066406 62.265625 305.464844 64.800781 302.398438 L 65.601562 300 L 66 299.398438 L 66 297.199219 C 66.398438 291.464844 67.265625 286.734375 68.601562 283 L 70 280 L 69 279.398438 C 65.800781 276.601562 63.601562 273.265625 62.398438 269.398438 C 61.199219 265.535156 61.199219 261.601562 62.398438 257.601562 L 62.800781 256.601562 L 59.398438 254.199219 C 48.464844 245.667969 39.066406 235.667969 31.199219 224.199219 C 23.199219 212.601562 17.601562 200.867188 14.398438 189 C 8.132812 164.601562 11.667969 142.535156 25 122.800781 C 31.265625 113.332031 39.535156 106.398438 49.800781 102 C 48.199219 86.667969 51.066406 72.265625 58.398438 58.800781 C 62.667969 50.933594 68.535156 43.398438 76 36.199219 C 84.535156 28.332031 94.066406 22.199219 104.601562 17.800781 C 115.265625 13.398438 126 11.199219 136.800781 11.199219 C 156.667969 11.199219 173.464844 18.265625 187.199219 32.398438 "/>
<path style=" stroke:none;fill-rule:nonzero;fill:rgb(100%,100%,100%);fill-opacity:1;" d="M 65.800781 62.800781 C 69.933594 55.332031 75.265625 48.535156 81.800781 42.398438 C 89.535156 35.199219 98.199219 29.667969 107.800781 25.800781 C 117.265625 21.800781 126.933594 19.800781 136.800781 19.800781 C 154.132812 19.800781 168.933594 25.933594 181.199219 38.199219 C 189.601562 46.867188 195.398438 57.265625 198.601562 69.398438 C 201.398438 80.464844 201.867188 92.199219 200 104.601562 C 212.132812 111.132812 221.066406 119.199219 226.800781 128.800781 C 232.800781 138.398438 235.199219 148.601562 234 159.398438 C 232.132812 175.265625 225.066406 190 212.800781 203.601562 C 201.867188 215.601562 189 224.667969 174.199219 230.800781 L 158.398438 235.601562 C 151.734375 237.066406 146.800781 238.601562 143.601562 240.199219 C 140.800781 241.398438 137.734375 244.066406 134.398438 248.199219 L 134.601562 250.398438 C 134.464844 254 132.800781 257.535156 129.601562 261 C 126.265625 264.066406 122.535156 265.601562 118.398438 265.601562 L 115 265.398438 L 112.199219 266.199219 L 112 268.601562 L 112.199219 275.601562 C 112.199219 282.132812 110.464844 287.066406 107 290.398438 L 101.800781 293.800781 L 100.199219 294.601562 L 96.800781 299 L 90.601562 307.398438 L 88.800781 312.398438 C 87.601562 315.332031 85.734375 317.800781 83.199219 319.800781 C 81.867188 321 80.132812 321.601562 78 321.601562 C 75.199219 321.601562 73 320.601562 71.398438 318.601562 C 69.933594 316.867188 69.265625 314.867188 69.398438 312.601562 C 69.535156 310.332031 70.464844 308.398438 72.199219 306.800781 L 74.398438 300.601562 L 74.800781 294.398438 C 75.066406 291.464844 75.667969 288.734375 76.601562 286.199219 L 81 276.601562 L 80.800781 276.398438 C 78.265625 275.464844 76.199219 274.265625 74.601562 272.800781 C 70.464844 269.464844 69.132812 265.265625 70.601562 260.199219 C 71.265625 258.066406 72.601562 256.066406 74.601562 254.199219 L 64.601562 247.398438 C 54.464844 239.398438 45.734375 230.132812 38.398438 219.601562 C 30.933594 208.800781 25.734375 197.867188 22.800781 186.800781 C 16.933594 164.933594 20 145.199219 32 127.601562 C 39.066406 117.199219 48.132812 110.601562 59.199219 107.800781 C 56.132812 91.933594 58.332031 76.933594 65.800781 62.800781 "/>
<path style=" stroke:none;fill-rule:nonzero;fill:rgb(100%,100%,100%);fill-opacity:1;" d="M 104 239 L 104.199219 239 L 104.601562 239.601562 L 103.199219 240.398438 L 104 239 "/>
<path style=" stroke:none;fill-rule:nonzero;fill:rgb(94.117647%,83.921569%,67.058824%);fill-opacity:1;" d="M 105.199219 237.601562 L 105.398438 237.800781 L 104 242 C 101.867188 243.601562 100.800781 245.667969 100.800781 248.199219 L 101.199219 250.199219 L 99.398438 255 L 99 255 L 98.601562 252.398438 L 98 248 C 98 246.800781 98.332031 245.535156 99 244.199219 L 103.199219 236.800781 L 105.199219 237.601562 "/>
<path style=" stroke:none;fill-rule:nonzero;fill:rgb(87.843137%,80%,58.039216%);fill-opacity:1;" d="M 109 238.199219 L 107 242.601562 C 105.132812 244.464844 104.398438 246.332031 104.800781 248.199219 L 104.800781 250.199219 L 103.398438 254.601562 C 102.601562 256.464844 100.800781 257.398438 98 257.398438 L 97.601562 257.199219 C 96.132812 257.199219 95.332031 256.800781 95.199219 256 L 94.199219 251.398438 C 93.800781 249.535156 93.800781 248 94.199219 246.800781 L 99.601562 236.601562 C 100.398438 235.398438 102 234.734375 104.398438 234.601562 L 106.398438 234.800781 L 108.601562 236 C 109.265625 236.398438 109.398438 237.132812 109 238.199219 "/>
<path style=" stroke:none;fill-rule:nonzero;fill:rgb(64.705882%,48.627451%,32.156863%);fill-opacity:1;" d="M 107 231 L 109.398438 231.398438 L 112.601562 238.800781 C 113.933594 242 114.199219 244.535156 113.398438 246.398438 L 108.199219 256.199219 C 105.535156 260.332031 103.734375 263.601562 102.800781 266 C 102.398438 266.933594 101.867188 270.132812 101.199219 275.601562 C 100.667969 279.734375 99.464844 282.601562 97.601562 284.199219 C 91.332031 289.800781 86.667969 297.332031 83.601562 306.800781 C 83.332031 307.464844 82.535156 307.867188 81.199219 308 C 80 308.132812 79.464844 307.867188 79.601562 307.199219 C 81.734375 300.667969 84.199219 295.535156 87 291.800781 C 88.601562 289.265625 90.265625 287.265625 92 285.800781 C 95.734375 281.265625 97.464844 276.265625 97.199219 270.800781 L 106 253.199219 C 108.398438 249.464844 109.398438 246 109 242.800781 L 105.601562 232.398438 C 105.332031 231.734375 105.800781 231.265625 107 231 "/>
<path style=" stroke:none;fill-rule:nonzero;fill:rgb(92.54902%,10.980392%,14.117647%);fill-opacity:1;" d="M 175.199219 44.199219 C 187.601562 56.867188 193.464844 73.265625 192.800781 93.398438 C 192.132812 112.332031 186.132812 129 174.800781 143.398438 C 171.464844 147.800781 166.132812 152.800781 158.800781 158.398438 L 142 172.601562 C 136.933594 177.933594 132.933594 185.199219 130 194.398438 L 126.800781 205.199219 C 125.601562 209.601562 125.132812 213.332031 125.398438 216.398438 C 126.066406 222 125.265625 227.464844 123 232.800781 C 120.332031 239.601562 116.332031 241.332031 111 238 C 107.800781 236.265625 105.933594 232.734375 105.398438 227.398438 L 105 217.398438 L 103.398438 207 L 102.601562 196.199219 L 102.398438 185.398438 C 101.867188 176.867188 100.464844 169.535156 98.199219 163.398438 C 95.800781 156.734375 92 150.332031 86.800781 144.199219 C 76.398438 131.933594 69.933594 119.199219 67.398438 106 C 64.734375 92.265625 66.734375 79.265625 73.398438 67 C 76.867188 60.601562 81.601562 54.464844 87.601562 48.601562 C 100.265625 36.867188 114.667969 30.199219 130.800781 28.601562 C 148.398438 26.867188 163.199219 32.066406 175.199219 44.199219 "/>
<path style=" stroke:none;fill-rule:nonzero;fill:rgb(76.078431%,15.294118%,17.647059%);fill-opacity:1;" d="M 138.398438 31.199219 C 126.398438 30.667969 114.734375 33.464844 103.398438 39.601562 C 91.667969 46 82.265625 55.132812 75.199219 67 C 69.601562 78.867188 67.667969 91.132812 69.398438 103.800781 C 71 116.332031 76.066406 127.800781 84.601562 138.199219 C 90.867188 146.199219 95.464844 153.398438 98.398438 159.800781 C 102 167.667969 104 176 104.398438 184.800781 C 104.535156 191.601562 105.398438 202.265625 107 216.800781 L 107 223.398438 C 107.132812 227.132812 107.464844 229.667969 108 231 C 117.867188 234.601562 122.867188 232.933594 123 226 C 123.933594 216.132812 124.800781 208.734375 125.601562 203.800781 C 127.066406 195.535156 129.535156 188.535156 133 182.800781 C 136.734375 176.667969 143.867188 169.332031 154.398438 160.800781 C 165.066406 152.132812 172.265625 144.933594 176 139.199219 C 182 129.734375 186.265625 119.933594 188.800781 109.800781 C 191.601562 98.464844 191.933594 87.800781 189.800781 77.800781 C 186.601562 63.265625 180.132812 51.867188 170.398438 43.601562 C 161.464844 36 150.800781 31.867188 138.398438 31.199219 M 193.398438 77 C 195.933594 89.667969 195.199219 102.199219 191.199219 114.601562 C 186.933594 127.667969 182 137.398438 176.398438 143.800781 L 159.800781 158.398438 C 152.199219 164.265625 146.800781 169.132812 143.601562 173 C 138 179.933594 134 187.734375 131.601562 196.398438 C 130.398438 200.933594 129 209.464844 127.398438 222 C 126.199219 231.464844 124 237.066406 120.800781 238.800781 C 115.464844 241.734375 111.132812 241.199219 107.800781 237.199219 C 105.132812 233.734375 103.601562 228.933594 103.199219 222.800781 L 102.199219 198.601562 L 99.199219 174.398438 C 97.734375 167.734375 94.667969 160.800781 90 153.601562 L 77.199219 134.601562 C 63.199219 111.398438 61.265625 88.933594 71.398438 67.199219 L 71.601562 66.800781 L 71.800781 66.601562 C 82.734375 48.464844 98.800781 36.132812 120 29.601562 C 143.332031 22.535156 162.265625 27.132812 176.800781 43.398438 C 185.332031 53 190.867188 64.199219 193.398438 77 "/>
<path style=" stroke:none;fill-rule:nonzero;fill:rgb(94.117647%,83.921569%,67.058824%);fill-opacity:1;" d="M 125 232.398438 L 117.398438 233.398438 L 111.199219 234.398438 L 105.199219 233.800781 C 104 233.398438 103.066406 232.464844 102.398438 231 C 101.464844 229.535156 101.265625 228.199219 101.800781 227 C 101.933594 226.601562 102.667969 226 104 225.199219 L 105.800781 223.800781 C 105.933594 226.066406 106.265625 227.734375 106.800781 228.800781 C 107.601562 230.132812 109.066406 231 111.199219 231.398438 L 121.800781 230.398438 C 121.398438 228.933594 120.265625 227.933594 118.398438 227.398438 C 119.464844 225.265625 121.132812 224.265625 123.398438 224.398438 C 125.800781 224.398438 127.535156 225.535156 128.601562 227.800781 C 129.535156 230.066406 128.332031 231.601562 125 232.398438 "/>
<path style="fill:none;stroke-width:0.5;stroke-linecap:butt;stroke-linejoin:miter;stroke:rgb(87.843137%,80%,58.039216%);stroke-opacity:1;stroke-miterlimit:4;" d="M 32.050391 62.150195 C 31.783789 61.583789 31.350195 61.299609 30.749609 61.299609 C 30.183203 61.266406 29.766211 61.516406 29.499609 62.049609 C 29.966406 62.183398 30.249609 62.433398 30.350195 62.799609 L 27.699805 63.049609 C 27.166602 62.95 26.800391 62.733203 26.600195 62.400195 C 26.466406 62.133594 26.383398 61.716601 26.350195 61.150195 L 25.9 61.499804 C 25.566992 61.7 25.383398 61.85039 25.350195 61.95 C 25.216406 62.249804 25.266211 62.583789 25.499609 62.95 C 25.666602 63.316211 25.9 63.549609 26.199805 63.650195 L 27.699805 63.799609 L 29.249609 63.549609 L 31.15 63.299609 C 31.983008 63.10039 32.283789 62.716601 32.050391 62.150195 Z M 32.050391 62.150195 " transform="matrix(4,0,0,4,0.4,-20.799999)"/>
<path style=" stroke:none;fill-rule:nonzero;fill:rgb(23.921569%,70.588235%,29.019608%);fill-opacity:1;" d="M 119.398438 150.199219 C 125.132812 165.800781 122.464844 186.933594 111.398438 213.601562 C 108.601562 220.667969 103.464844 230.332031 96 242.601562 C 94.800781 244.867188 94.265625 247.066406 94.398438 249.199219 L 95.800781 256.398438 C 96.734375 266.933594 96.667969 272.265625 95.601562 272.398438 C 90.800781 273.199219 87.800781 272.265625 86.601562 269.601562 C 86.066406 268.535156 85.734375 265.132812 85.601562 259.398438 C 85.464844 254.734375 83.734375 251 80.398438 248.199219 L 69.800781 240.800781 C 60.734375 233.601562 52.800781 225.265625 46 215.800781 C 38.800781 205.535156 33.800781 195.132812 31 184.601562 C 25.800781 165.535156 28.464844 148.132812 39 132.398438 C 49.933594 116.535156 64.601562 111.132812 83 116.199219 C 100.734375 121 112.867188 132.332031 119.398438 150.199219 "/>
<path style=" stroke:none;fill-rule:nonzero;fill:rgb(0%,57.254902%,27.058824%);fill-opacity:1;" d="M 104.800781 130.800781 C 95.601562 122.398438 85.398438 117.601562 74.199219 116.398438 C 61.398438 114.933594 51.265625 119.066406 43.800781 128.800781 C 31.667969 144.667969 28 163.066406 32.800781 184 C 39.464844 205.464844 50.734375 222.734375 66.601562 235.800781 L 76.601562 242.398438 C 81 245.332031 83.800781 248.066406 85 250.601562 C 86.464844 253.667969 87.332031 257.867188 87.601562 263.199219 C 93.066406 270.535156 95.332031 271.132812 94.398438 265 L 93.800781 256.800781 C 92.867188 251.734375 93 247.332031 94.199219 243.601562 L 100.601562 231 C 111 212.734375 117.332031 195.800781 119.601562 180.199219 C 122.667969 159.132812 117.734375 142.667969 104.800781 130.800781 M 104.601562 125.800781 C 115.535156 134.332031 121.867188 146.132812 123.601562 161.199219 C 125.066406 173.867188 123.132812 187.464844 117.800781 202 L 104.601562 228.601562 C 99.132812 239.398438 96.800781 248.464844 97.601562 255.800781 L 98.601562 264.398438 C 98.867188 267.867188 98.464844 270.601562 97.398438 272.601562 C 97 273.398438 96.332031 273.800781 95.398438 273.800781 L 89.398438 273.800781 C 87.667969 273.398438 86.132812 272.332031 84.800781 270.601562 C 84 269.667969 83.601562 267.332031 83.601562 263.601562 C 83.601562 259.066406 82.667969 255.332031 80.800781 252.398438 C 79.199219 250 76.332031 247.332031 72.199219 244.398438 C 51 229.601562 36.601562 209.867188 29 185.199219 L 29 185 C 26.332031 173.398438 26.667969 162 30 150.800781 C 33.199219 140.132812 38.535156 131.398438 46 124.601562 C 63.601562 108.734375 83.132812 109.132812 104.601562 125.800781 "/>
<path style=" stroke:none;fill-rule:nonzero;fill:rgb(96.470588%,57.254902%,12.941176%);fill-opacity:1;" d="M 195.800781 112 C 205.535156 117.332031 213 123.667969 218.199219 131 C 224.066406 139.398438 226.464844 148.535156 225.398438 158.398438 C 223.933594 172.265625 217.667969 185.332031 206.601562 197.601562 C 196.464844 208.933594 184.535156 217.398438 170.800781 223 L 155.199219 227.601562 C 148.398438 229.199219 143.332031 230.800781 140 232.398438 C 136.132812 234.265625 132.464844 237.332031 129 241.601562 L 119.601562 252.199219 C 112.132812 258.867188 107.734375 259.601562 106.398438 254.398438 C 106 252.800781 106.601562 250.734375 108.199219 248.199219 L 111.398438 242.398438 C 111.398438 239.066406 111.667969 236.734375 112.199219 235.398438 L 114.800781 231.199219 C 116.398438 228.535156 117.535156 225.132812 118.199219 221 C 119.667969 213.535156 120 203.066406 119.199219 189.601562 C 118.398438 171.601562 118.601562 159.332031 119.800781 152.800781 C 122.066406 139.734375 128.398438 129 138.800781 120.601562 C 147.066406 113.800781 156.199219 109.464844 166.199219 107.601562 C 177.132812 105.601562 187 107.066406 195.800781 112 "/>
<path style=" stroke:none;fill-rule:nonzero;fill:rgb(64.705882%,48.627451%,32.156863%);fill-opacity:1;" d="M 87.800781 263 C 89.132812 262.601562 89.867188 262.601562 90 263 C 92 267.132812 92.667969 271.132812 92 275 L 87.601562 286.398438 C 86.398438 289.066406 85.332031 293 84.398438 298.199219 L 81.800781 310.398438 C 81.667969 310.933594 81 311.265625 79.800781 311.398438 L 78 311 L 80.601562 298.800781 C 81.398438 293.734375 82.464844 289.800781 83.800781 287 L 88 275.800781 C 88.800781 271.800781 88.199219 267.867188 86.199219 264 C 85.933594 263.734375 86.464844 263.398438 87.800781 263 "/>
<path style=" stroke:none;fill-rule:nonzero;fill:rgb(64.705882%,48.627451%,32.156863%);fill-opacity:1;" d="M 112.199219 256.398438 L 111.398438 257.398438 C 107 259 105 263.132812 105.398438 269.800781 C 105.933594 277.398438 105.132812 282.199219 103 284.199219 L 93.601562 291.800781 C 90 294.867188 87.464844 297.933594 86 301 L 83.199219 307.398438 L 79.601562 313 L 77.398438 313.800781 C 76.199219 313.933594 75.800781 313.800781 76.199219 313.398438 L 79.398438 307.601562 L 82.199219 301.800781 L 90.398438 291.398438 C 90.933594 290.601562 93.265625 288.601562 97.398438 285.398438 C 100.199219 283.265625 101.667969 280.734375 101.800781 277.800781 L 102.199219 265.199219 C 103.132812 261.066406 105.734375 258.199219 110 256.601562 L 112.199219 256.398438 "/>
<path style=" stroke:none;fill-rule:nonzero;fill:rgb(94.117647%,83.921569%,67.058824%);fill-opacity:1;" d="M 78.800781 262.601562 L 80.398438 260.601562 C 81.332031 259.800781 82.132812 259.667969 82.800781 260.199219 L 83.601562 261.800781 L 84.398438 263.398438 C 84.933594 264.199219 86 264.734375 87.601562 265 L 91.199219 265.398438 L 93.398438 264.398438 L 96.601562 262.398438 L 98 258.601562 C 99.332031 258.601562 100 258.933594 100 259.601562 L 99.601562 264 L 97.199219 267 L 93.398438 269.199219 L 89.601562 269.601562 L 85.800781 269.199219 C 83.398438 268.535156 81.535156 267.601562 80.199219 266.398438 C 78.734375 265.199219 78.265625 263.933594 78.800781 262.601562 "/>
<path style="fill:none;stroke-width:0.5;stroke-linecap:butt;stroke-linejoin:miter;stroke:rgb(87.843137%,80%,58.039216%);stroke-opacity:1;stroke-miterlimit:4;" d="M 19.949805 71.799609 C 20.283789 72.10039 20.749609 72.333789 21.350195 72.499804 L 22.300391 72.60039 L 23.249609 72.499804 L 24.199805 71.95 L 24.800391 71.2 L 24.9 70.10039 C 24.9 69.933398 24.733008 69.85039 24.4 69.85039 L 24.050391 70.799609 L 23.249609 71.299609 L 22.699805 71.549609 L 21.800391 71.45 C 21.4 71.383594 21.133398 71.249804 20.999609 71.049609 L 20.800391 70.650195 L 20.600195 70.249804 C 20.433203 70.116992 20.233008 70.150195 19.999609 70.35039 L 19.600195 70.85039 C 19.466406 71.183398 19.583594 71.499804 19.949805 71.799609 Z M 19.949805 71.799609 " transform="matrix(4,0,0,4,0.4,-20.799999)"/>
<path style=" stroke:none;fill-rule:nonzero;fill:rgb(94.117647%,83.921569%,67.058824%);fill-opacity:1;" d="M 122.601562 248.398438 C 126.066406 248 127.066406 249.398438 125.601562 252.601562 C 124 255.667969 121.601562 257.199219 118.398438 257.199219 L 112.800781 256.199219 C 110.265625 255.535156 108.464844 254.667969 107.398438 253.601562 C 104.464844 251.199219 103.535156 248.867188 104.601562 246.601562 C 105.667969 244.332031 107.933594 243.199219 111.398438 243.199219 L 111 243.601562 L 109.601562 247.601562 L 113.199219 250.398438 L 117 252.398438 L 120.199219 250.601562 C 121 249.132812 121.800781 248.398438 122.601562 248.398438 "/>
<path style=" stroke:none;fill-rule:nonzero;fill:rgb(87.843137%,80%,58.039216%);fill-opacity:1;" d="M 123.800781 256.601562 L 114.398438 258.199219 C 110.800781 257.800781 107.867188 256.535156 105.601562 254.398438 C 102.398438 251.199219 101.667969 248.265625 103.398438 245.601562 C 104.867188 243.199219 107.601562 242 111.601562 242 C 112.800781 241.867188 113.332031 242.265625 113.199219 243.199219 L 112.800781 244 L 111.601562 247 L 114.800781 249.398438 C 116.667969 250.867188 117.867188 251.199219 118.398438 250.398438 C 120 247.867188 122.066406 246.800781 124.601562 247.199219 C 127.398438 247.601562 128.464844 249 127.800781 251.398438 C 127.265625 253.535156 125.933594 255.265625 123.800781 256.601562 M 121.398438 251.398438 L 117.601562 253.601562 C 116.132812 253.867188 114.464844 253.332031 112.601562 252 L 108.199219 248.601562 L 107.800781 247.398438 L 108.800781 245 L 107 246.398438 C 105.933594 247.601562 106 249 107.199219 250.601562 C 108.800781 252.734375 111 254.199219 113.800781 255 L 121.199219 255.199219 C 123.199219 253.734375 124.199219 252.265625 124.199219 250.800781 C 124.199219 250 123.601562 249.601562 122.398438 249.601562 L 121.398438 251.398438 "/>
<path style=" stroke:none;fill-rule:nonzero;fill:rgb(100%,30.980392%,27.843137%);fill-opacity:1;" d="M 133.800781 50.199219 C 133.667969 51.535156 132.132812 52.535156 129.199219 53.199219 L 122.398438 54.398438 C 106.800781 58.800781 95.199219 65.933594 87.601562 75.800781 C 86.535156 77.265625 85.867188 78.800781 85.601562 80.398438 L 85.199219 85.601562 L 83.398438 90.199219 L 79.601562 93.601562 C 78.132812 90.132812 78.199219 85.601562 79.800781 80 C 81 75.601562 82.867188 71.332031 85.398438 67.199219 C 87.933594 63.066406 91.066406 59.667969 94.800781 57 C 97.464844 55 101.601562 52.734375 107.199219 50.199219 L 115.199219 46.199219 L 124 44.601562 C 131.199219 44.601562 134.464844 46.464844 133.800781 50.199219 "/>
<path style=" stroke:none;fill-rule:nonzero;fill:rgb(54.509804%,77.254902%,25.098039%);fill-opacity:1;" d="M 58 128.199219 L 70.800781 129.398438 L 65 133.800781 C 62.601562 135.535156 60.800781 137.199219 59.601562 138.800781 L 52.800781 151.398438 C 47.734375 161.265625 46.398438 169.199219 48.800781 175.199219 L 52.398438 180.601562 L 56.398438 186 C 57.734375 188.535156 58.132812 192.332031 57.601562 197.398438 C 54.265625 196.734375 50.933594 194.265625 47.601562 190 C 44.667969 186.132812 42.800781 182.332031 42 178.601562 C 41.464844 175.933594 41.464844 172.800781 42 169.199219 L 43.398438 159.800781 L 43.199219 154.199219 L 42.800781 148.601562 C 42.535156 143.265625 43.734375 138.800781 46.398438 135.199219 C 49.199219 131.332031 53.066406 129 58 128.199219 "/>
<path style=" stroke:none;fill-rule:nonzero;fill:rgb(98.039216%,68.627451%,23.137255%);fill-opacity:1;" d="M 183.199219 120.398438 C 188.667969 124 190.199219 126.800781 187.800781 128.800781 L 185.199219 129.398438 L 182.199219 129.398438 L 178.601562 130.800781 L 175 132.199219 L 168.199219 131.601562 C 163.535156 131.734375 158.867188 133.398438 154.199219 136.601562 L 146 144.601562 C 142.667969 147.933594 139.535156 149.535156 136.601562 149.398438 C 136.332031 145.800781 137.066406 142 138.800781 138 C 140.535156 134.132812 142.867188 130.933594 145.800781 128.398438 C 155.933594 119.734375 164.464844 115.398438 171.398438 115.398438 C 174.066406 115.265625 178 116.933594 183.199219 120.398438 "/>
</g>
</svg>
