<?xml version="1.0" encoding="UTF-8"?>
<svg xmlns="http://www.w3.org/2000/svg" xmlns:xlink="http://www.w3.org/1999/xlink" width="288pt" height="256pt" viewBox="0 0 288 256" version="1.1">
<g id="surface1">
<path style=" stroke:none;fill-rule:nonzero;fill:rgb(0%,0%,0%);fill-opacity:1;" d="M 242.199219 88.800781 L 268.199219 88.800781 C 271.667969 89.066406 274.867188 90.132812 277.800781 92 C 280.734375 94 282.933594 96.601562 284.398438 99.800781 C 287.601562 106.601562 286.933594 116.199219 282.398438 128.601562 L 274.601562 145.398438 L 267.398438 155 C 255.265625 171.265625 245.398438 182.800781 237.800781 189.601562 C 225.132812 201.066406 210.867188 208.601562 195 212.199219 L 195.398438 229 C 195.398438 233.535156 193.800781 237.464844 190.601562 240.800781 C 187.535156 244.132812 183.667969 245.867188 179 246 L 177.199219 246.199219 L 176.199219 246.199219 L 164.800781 249.398438 L 159.601562 250.199219 C 156.265625 250.199219 153.132812 249.199219 150.199219 247.199219 C 147.535156 248.667969 144.734375 249.398438 141.800781 249.398438 L 141 249.398438 L 129.398438 252.601562 L 124.199219 253.398438 C 120.464844 253.398438 117.132812 252.332031 114.199219 250.199219 C 111.132812 248.066406 109.066406 245.199219 108 241.601562 C 107.066406 238.667969 106.933594 235.667969 107.601562 232.601562 C 108.398438 229.535156 109.867188 226.867188 112 224.601562 L 113.601562 218 C 116 213.332031 119.535156 210.398438 124.199219 209.199219 C 98.464844 202.132812 77.800781 190.066406 62.199219 173 C 55.933594 165.933594 50.734375 157.332031 46.601562 147.199219 C 43.933594 140.933594 41.066406 132 38 120.398438 L 31.398438 99.601562 L 31 98.601562 L 27.601562 97 L 24.601562 96.398438 C 19.667969 95.332031 15.800781 94 13 92.398438 C 7.667969 89.464844 3.800781 85 1.398438 79 C -0.464844 74.464844 -0.332031 69.867188 1.800781 65.199219 C 3.933594 60.667969 7.398438 57.667969 12.199219 56.199219 L 22.601562 54.800781 L 22.800781 54.800781 L 23.199219 53.199219 C 24.535156 45.601562 26.132812 40.132812 28 36.800781 C 40.535156 15.199219 57.734375 3.066406 79.601562 0.398438 L 89.199219 0 C 110.132812 0 130.601562 8.601562 150.601562 25.800781 L 173 47.199219 C 190.867188 65.332031 204.066406 76.933594 212.601562 82 C 217.265625 84.667969 222 86.535156 226.800781 87.601562 L 242.199219 88.800781 "/>
<path style=" stroke:none;fill-rule:nonzero;fill:rgb(100%,100%,100%);fill-opacity:1;" d="M 167 53.199219 L 187.800781 73.398438 C 195.535156 80.464844 202.398438 85.734375 208.398438 89.199219 C 213.734375 92.398438 219.199219 94.601562 224.800781 95.800781 L 242 97.398438 L 267.800781 97.398438 C 271.933594 97.667969 274.933594 99.667969 276.800781 103.398438 C 280 110.464844 277.066406 122.734375 268 140.199219 L 260.601562 150 C 248.066406 166.800781 238 178.464844 230.398438 185 C 217.734375 195.933594 203.132812 202.667969 186.601562 205.199219 L 186.800781 229 C 186.800781 231.265625 186 233.265625 184.398438 235 C 182.667969 236.601562 180.667969 237.398438 178.398438 237.398438 L 178.199219 237.398438 L 177.199219 237.601562 L 175.800781 237.601562 L 162.199219 241.199219 L 159.601562 241.601562 C 155.601562 241.601562 152.933594 239.667969 151.601562 235.800781 L 151.199219 234.398438 L 148.800781 237 C 147.066406 239.667969 144.734375 241 141.800781 241 L 140.398438 240.800781 L 126.800781 244.601562 L 124.199219 245 C 122.332031 245 120.667969 244.464844 119.199219 243.398438 C 117.734375 242.199219 116.734375 240.734375 116.199219 239 C 115.535156 236.867188 115.667969 234.800781 116.601562 232.800781 C 117.535156 230.800781 119.066406 229.398438 121.199219 228.601562 C 120.132812 226.199219 120.199219 223.933594 121.398438 221.800781 C 122.464844 219.667969 124.066406 218.199219 126.199219 217.398438 L 132.601562 217.800781 L 135.800781 219.398438 L 136.800781 203.398438 C 107.464844 197.398438 84.734375 185.398438 68.601562 167.398438 C 62.867188 160.867188 58.132812 153 54.398438 143.800781 C 52 137.933594 49.265625 129.398438 46.199219 118.199219 L 39.199219 96.398438 L 37.800781 93 L 37.601562 92.199219 L 30.800781 89.199219 L 26 88 L 17.199219 85.199219 C 13.601562 83.066406 10.933594 79.933594 9.199219 75.800781 C 8.265625 73.398438 8.332031 71.132812 9.398438 69 C 10.332031 66.867188 12.066406 65.332031 14.601562 64.398438 L 23.199219 63.199219 L 29.800781 62.601562 L 31.601562 54.800781 C 32.535156 48.398438 33.800781 43.800781 35.398438 41 C 46.601562 21.667969 61.601562 11 80.398438 9 L 89.199219 8.398438 C 108.132812 8.398438 126.734375 16.332031 145 32.199219 L 167 53.199219 M 169.601562 206.601562 L 167.800781 206.601562 L 153.601562 205.800781 L 152.601562 228.398438 L 156.601562 225.199219 C 155.535156 222.933594 155.601562 220.667969 156.800781 218.398438 C 157.867188 216.265625 159.464844 214.800781 161.601562 214 L 168 214.398438 L 169.398438 215.199219 L 169.601562 206.601562 "/>
<path style=" stroke:none;fill-rule:nonzero;fill:rgb(98.039216%,68.627451%,23.137255%);fill-opacity:1;" d="M 145.398438 232 L 144 233.199219 L 138.601562 234.199219 L 132.199219 230.800781 C 129 228.800781 126.867188 227.535156 125.800781 227 C 124.464844 226.464844 124.933594 225.667969 127.199219 224.601562 L 132.199219 223.800781 L 138.398438 227.398438 L 145 230.800781 C 145.667969 231.066406 145.800781 231.464844 145.398438 232 "/>
<path style=" stroke:none;fill-rule:nonzero;fill:rgb(98.039216%,68.627451%,23.137255%);fill-opacity:1;" d="M 143.199219 229.199219 C 144.265625 229.464844 144.867188 230 145 230.800781 C 145.265625 231.601562 145 232.398438 144.199219 233.199219 L 142 234.601562 L 125 239.199219 C 122.332031 239.867188 120.800781 239.265625 120.398438 237.398438 C 119.867188 235.667969 120.933594 234.464844 123.601562 233.800781 C 129.867188 231.800781 135.535156 230.265625 140.601562 229.199219 L 143.199219 229.199219 "/>
<path style=" stroke:none;fill-rule:nonzero;fill:rgb(98.039216%,68.627451%,23.137255%);fill-opacity:1;" d="M 160.601562 222.398438 L 161.800781 220.398438 L 167.398438 220 C 168.601562 220.535156 170.601562 221.667969 173.398438 223.398438 L 179.398438 226.601562 C 181.535156 227.398438 181.734375 228.601562 180 230.199219 C 178.265625 231.800781 176.601562 232.265625 175 231.601562 C 173.132812 230.933594 170.867188 229.800781 168.199219 228.199219 L 161.398438 224.199219 C 160.601562 223.800781 160.332031 223.199219 160.601562 222.398438 "/>
<path style=" stroke:none;fill-rule:nonzero;fill:rgb(98.039216%,68.627451%,23.137255%);fill-opacity:1;" d="M 180.398438 227.800781 C 180.933594 229.667969 179.933594 230.867188 177.398438 231.398438 C 172.332031 232.464844 166.667969 234 160.398438 236 C 158 236.667969 156.535156 236.066406 156 234.199219 C 155.601562 232.332031 156.535156 231.066406 158.800781 230.398438 L 175.800781 225.800781 C 178.332031 225.265625 179.867188 225.933594 180.398438 227.800781 "/>
<path style=" stroke:none;fill-rule:nonzero;fill:rgb(98.039216%,68.627451%,23.137255%);fill-opacity:1;" d="M 181.199219 190.800781 C 183.734375 190.535156 184.800781 190.933594 184.398438 192 C 182.535156 196.535156 181.601562 202.464844 181.601562 209.800781 L 182.199219 228 C 182.199219 229.332031 180.933594 230.265625 178.398438 230.800781 C 175.867188 231.464844 174.601562 231.199219 174.601562 230 L 173.800781 211.398438 C 173.800781 203.933594 174.734375 197.800781 176.601562 193 C 177.132812 191.800781 178.667969 191.066406 181.199219 190.800781 "/>
<path style=" stroke:none;fill-rule:nonzero;fill:rgb(100%,94.901961%,18.823529%);fill-opacity:1;" d="M 139.398438 38.601562 L 170.601562 69 C 184.199219 82.332031 195.332031 91.535156 204 96.601562 C 213.332031 102.066406 223.601562 105.132812 234.800781 105.800781 L 267.398438 105.800781 C 271.800781 106.066406 269.734375 115.800781 261.199219 135 C 244 157.535156 233 171.066406 228.199219 175.601562 C 214.867188 188.265625 199.265625 195.535156 181.398438 197.398438 C 162.464844 199.398438 143.398438 197.398438 124.199219 191.398438 C 103.398438 184.867188 87 174.933594 75 161.601562 C 68.199219 154 62.535156 143.066406 58 128.800781 L 47.199219 93.199219 C 45.332031 88.398438 44.066406 85.867188 43.398438 85.601562 L 34.199219 81.398438 L 24.199219 78.800781 C 20.867188 77.867188 18.535156 75.800781 17.199219 72.601562 L 26.601562 71.398438 L 35.398438 69.601562 C 37 68.535156 38.332031 64.800781 39.398438 58.398438 C 40.734375 51.066406 41.867188 46.601562 42.800781 45 C 52.398438 28.464844 65.265625 19.265625 81.398438 17.398438 C 92.464844 16.199219 103 17.667969 113 21.800781 C 121.535156 25.265625 130.332031 30.867188 139.398438 38.601562 "/>
<path style=" stroke:none;fill-rule:nonzero;fill:rgb(98.039216%,68.627451%,23.137255%);fill-opacity:1;" d="M 148.800781 182.601562 C 151.464844 182.332031 152.601562 183 152.199219 184.601562 C 149.398438 197.535156 148 212.535156 148 229.601562 C 148 231.199219 146.734375 232.132812 144.199219 232.398438 C 141.535156 232.800781 140.199219 232.132812 140.199219 230.398438 C 140.199219 213.332031 141.601562 198.332031 144.398438 185.398438 C 144.667969 183.933594 146.132812 183 148.800781 182.601562 "/>
<path style=" stroke:none;fill-rule:nonzero;fill:rgb(100%,87.058824%,0%);fill-opacity:1;" d="M 141.800781 181 L 149.199219 180.601562 L 153.398438 182.800781 L 155.800781 184.199219 L 158.199219 184.800781 L 160.199219 185.601562 L 163 187 C 163.800781 188.066406 163.800781 189.332031 163 190.800781 L 160.398438 194 L 157.800781 195.601562 C 157.265625 195.601562 156.332031 194.933594 155 193.601562 L 153 191.199219 L 151.398438 191.398438 L 149.800781 191.601562 L 148.800781 190.199219 L 147.800781 188.800781 C 147.265625 188.398438 146.734375 188.199219 146.199219 188.199219 L 144.398438 188.601562 L 137.800781 191.800781 C 134.734375 193 133.066406 192.132812 132.800781 189.199219 C 132.667969 187.066406 133.667969 185.265625 135.800781 183.800781 C 136.867188 183 138.867188 182.066406 141.800781 181 "/>
<path style=" stroke:none;fill-rule:nonzero;fill:rgb(100%,78.431373%,0%);fill-opacity:1;" d="M 95.398438 52.800781 C 95.398438 58.933594 90.933594 62 82 62 C 73.066406 62 68.601562 58.933594 68.601562 52.800781 C 68.601562 49.066406 69.933594 45.933594 72.601562 43.398438 C 75.132812 40.734375 78.265625 39.398438 82 39.398438 C 85.734375 39.398438 88.933594 40.734375 91.601562 43.398438 C 94.132812 45.933594 95.398438 49.066406 95.398438 52.800781 "/>
<path style=" stroke:none;fill-rule:nonzero;fill:rgb(100%,94.901961%,18.823529%);fill-opacity:1;" d="M 200 162.199219 C 189.464844 165.667969 179.265625 166.800781 169.398438 165.601562 C 153.132812 163.734375 139.464844 160.535156 128.398438 156 C 111.734375 149.199219 102.199219 140 99.800781 128.398438 C 96.867188 113.601562 102.734375 102.867188 117.398438 96.199219 C 130.199219 90.332031 143.535156 89.265625 157.398438 93 C 165.265625 95.132812 173.601562 98.464844 182.398438 103 C 194.265625 109 200 114.332031 199.601562 119 L 207.601562 124.601562 L 203 127.800781 C 207.132812 129.933594 211.132812 132.464844 215 135.398438 C 213.933594 138.734375 212.867188 140.667969 211.800781 141.199219 C 218.332031 142.800781 223.464844 144.800781 227.199219 147.199219 C 219.199219 153.867188 210.132812 158.867188 200 162.199219 "/>
<path style=" stroke:none;fill-rule:nonzero;fill:rgb(100%,72.156863%,0%);fill-opacity:1;" d="M 161.398438 92 C 175.265625 96.398438 185.601562 101 192.398438 105.800781 L 201.199219 114.398438 C 204.535156 118.535156 207.398438 121.398438 209.800781 123 C 211 123.800781 210.867188 124.667969 209.398438 125.601562 C 207.933594 126.667969 208.734375 128.265625 211.800781 130.398438 L 217.398438 133.800781 L 217.800781 135.601562 C 216.601562 138.265625 217.535156 140.398438 220.601562 142 L 229.398438 145.601562 C 230.601562 146.265625 230.464844 147.132812 229 148.199219 C 210.601562 162.464844 190.464844 168.867188 168.601562 167.398438 L 167.800781 167.398438 C 153.132812 165.535156 141.933594 163.464844 134.199219 161.199219 C 120.867188 157.199219 111.066406 151.535156 104.800781 144.199219 C 98.933594 137.132812 96.199219 129.199219 96.601562 120.398438 C 97 111.066406 101.066406 103.933594 108.800781 99 C 116.398438 94.199219 124.867188 91.132812 134.199219 89.800781 C 143.800781 88.464844 152.867188 89.199219 161.398438 92 M 201 126.800781 C 204.734375 124.132812 195 115.398438 171.800781 100.601562 C 149.933594 91.667969 132.199219 90.667969 118.601562 97.601562 C 107.265625 103.332031 101.933594 112 102.601562 123.601562 C 103.265625 134.800781 109.132812 143.398438 120.199219 149.398438 C 133.132812 156.464844 149.867188 161.199219 170.398438 163.601562 C 185.601562 164.667969 198.933594 162.132812 210.398438 156 C 216.535156 152.535156 219.535156 149.867188 219.398438 148 C 219.265625 146.265625 216.132812 144.601562 210 143 C 208.667969 142.734375 208.332031 142.066406 209 141 C 210.867188 138.199219 210.667969 135.800781 208.398438 133.800781 L 200.601562 129.398438 C 199.535156 128.734375 199.667969 127.867188 201 126.800781 "/>
</g>
</svg>
