<?xml version="1.0" encoding="UTF-8"?>
<svg xmlns="http://www.w3.org/2000/svg" xmlns:xlink="http://www.w3.org/1999/xlink" width="164pt" height="324pt" viewBox="0 0 164 324" version="1.1">
<g id="surface1">
<path style=" stroke:none;fill-rule:nonzero;fill:rgb(45.098039%,45.882353%,46.666667%);fill-opacity:1;" d="M 2 21.601562 L 3.601562 17.800781 C 5.734375 13.398438 9.066406 9.800781 13.601562 7 C 18.265625 3.933594 23.066406 2.464844 28 2.601562 L 38.601562 4.601562 L 42.800781 5.800781 C 44.398438 8.199219 62.800781 53 98 140.199219 L 151.601562 274.398438 C 152.800781 279.066406 151 283.199219 146.199219 286.800781 C 143.265625 288.933594 139.265625 290.800781 134.199219 292.398438 L 121.601562 296.601562 L 113.199219 297.601562 C 110.800781 296.398438 108.734375 293.199219 107 288 L 54 154.398438 C 19.464844 67.601562 2.132812 23.332031 2 21.601562 "/>
<path style=" stroke:none;fill-rule:nonzero;fill:rgb(30.196078%,29.803922%,30.588235%);fill-opacity:1;" d="M 22.800781 6.199219 C 13.066406 10.066406 6.867188 15.066406 4.199219 21.199219 L 8.601562 33.601562 L 72.199219 194.800781 L 108.601562 286.398438 C 112.066406 295.601562 120.398438 297.601562 133.601562 292.398438 C 146.800781 287.066406 151.800781 280.132812 148.601562 271.601562 L 90.800781 127.398438 L 42 8.800781 C 39.464844 2.933594 33.066406 2.066406 22.800781 6.199219 M 6.800781 42.398438 C 3.464844 34.398438 1.199219 27.667969 0 22.199219 L 0.398438 21 C 3.867188 12.734375 11.199219 6.464844 22.398438 2.199219 C 34.398438 -2.464844 42.535156 0 46.800781 9.601562 L 71.601562 69.398438 L 141.199219 242 L 150 260.601562 C 154.265625 270.332031 155.464844 276.867188 153.601562 280.199219 C 150.398438 285.667969 144.667969 290.265625 136.398438 294 C 128.933594 297.332031 121.601562 299.132812 114.398438 299.398438 C 111.734375 299.535156 109.464844 298 107.601562 294.800781 L 104.398438 286.800781 L 49 147.398438 L 15.398438 62 L 6.800781 42.398438 "/>
<path style=" stroke:none;fill-rule:nonzero;fill:rgb(52.156863%,52.941176%,53.72549%);fill-opacity:1;" d="M 11.199219 44.199219 L 12.601562 40.398438 C 14.734375 36 18.066406 32.398438 22.601562 29.601562 C 27.265625 26.535156 32.132812 25.066406 37.199219 25.199219 L 47.601562 27.199219 L 52 28.398438 L 107.199219 162.800781 L 160.800781 297 C 162 301.800781 160.132812 305.933594 155.199219 309.398438 C 152.398438 311.535156 148.398438 313.398438 143.199219 315 L 130.601562 319.199219 L 122.199219 320 C 119.933594 318.933594 117.933594 315.800781 116.199219 310.601562 L 63.199219 177 C 28.667969 90.199219 11.332031 45.933594 11.199219 44.199219 "/>
<path style=" stroke:none;fill-rule:nonzero;fill:rgb(37.647059%,38.039216%,38.823529%);fill-opacity:1;" d="M 9.199219 44 L 9.398438 43.800781 C 13 35.398438 20.332031 29.066406 31.398438 24.800781 C 43.535156 20.132812 51.667969 22.535156 55.800781 32 L 80.601562 92 L 150.199219 264.601562 L 159.199219 283.199219 C 163.332031 292.933594 164.464844 299.464844 162.601562 302.800781 C 159.398438 308.265625 153.667969 312.867188 145.398438 316.601562 C 138.066406 319.933594 130.800781 321.734375 123.601562 322 C 120.933594 322.132812 118.667969 320.601562 116.800781 317.398438 L 113.601562 309.398438 L 58.199219 170 L 24.398438 84.601562 L 16 65 C 12.800781 57.132812 10.601562 50.535156 9.398438 45.199219 L 9.199219 44.601562 L 9.199219 44 M 17.601562 56.199219 L 81.398438 217.398438 L 117.601562 309 C 121.199219 318.199219 129.601562 320.132812 142.800781 314.800781 C 155.867188 309.601562 160.800781 302.734375 157.601562 294.199219 C 150.398438 275.265625 131.199219 227.199219 100 150 L 51.199219 31.199219 C 48.535156 25.464844 42.066406 24.667969 31.800781 28.800781 C 22.066406 32.800781 15.867188 37.933594 13.199219 44.199219 L 17.601562 56.199219 "/>
</g>
</svg>
