<?xml version="1.0" encoding="UTF-8"?>
<svg xmlns="http://www.w3.org/2000/svg" xmlns:xlink="http://www.w3.org/1999/xlink" width="56pt" height="340pt" viewBox="0 0 56 340" version="1.1">
<g id="surface1">
<path style=" stroke:none;fill-rule:nonzero;fill:rgb(45.098039%,45.882353%,46.666667%);fill-opacity:1;" d="M 48.398438 153.398438 L 49.199219 297.199219 C 49.601562 302.667969 48.933594 306.398438 47.199219 308.398438 C 45.734375 309.867188 43 310.601562 39 310.601562 L 25.800781 311.601562 L 12.601562 310.800781 C 6.867188 309.332031 3.601562 306.199219 2.800781 301.398438 C 2.398438 298.601562 2.199219 250.398438 2.199219 156.800781 C 2.199219 62.667969 2.464844 14.199219 3 11.398438 L 6.601562 8.800781 C 9.132812 6.398438 12.066406 4.464844 15.398438 3 C 20.066406 1 25.132812 0.535156 30.601562 1.601562 C 35.800781 2.535156 40.265625 4.667969 44 8 L 46.800781 10.800781 C 47.332031 12.398438 47.867188 59.933594 48.398438 153.398438 "/>
<path style=" stroke:none;fill-rule:nonzero;fill:rgb(30.196078%,29.803922%,30.588235%);fill-opacity:1;" d="M 44.800781 11.398438 C 39.734375 6.464844 32 3.867188 21.601562 3.601562 C 10.535156 3.199219 4.933594 6.667969 4.800781 14 L 4.601562 23.199219 C 4.199219 51.867188 4 109.066406 4 194.800781 L 4.601562 298.601562 C 4.867188 306.199219 12.066406 310.132812 26.199219 310.398438 C 40.332031 310.667969 47.332031 305.933594 47.199219 296.199219 L 46.398438 149.601562 L 45.601562 56.800781 L 46.199219 34 C 46.332031 24.800781 45.867188 17.265625 44.800781 11.398438 M 48.800781 11.199219 C 49.867188 17.332031 50.332031 25.199219 50.199219 34.800781 L 49.601562 59.601562 L 50.800781 256.601562 L 52.199219 279.398438 C 52.734375 289 52.398438 296.601562 51.199219 302.199219 C 50.132812 307.535156 46.933594 310.800781 41.601562 312 L 25.601562 312.800781 L 10.398438 311.800781 C 4.535156 310.199219 1.332031 306.800781 0.800781 301.601562 L 0 280.199219 L 0.398438 258.601562 C 0 196.066406 0 133.464844 0.398438 70.800781 L 0.800781 14.199219 C 0.933594 11.398438 2.667969 8.734375 6 6.199219 C 8.800781 4.066406 11.867188 2.535156 15.199219 1.601562 C 28.132812 -2.132812 39.265625 0.667969 48.601562 10 L 48.800781 11.199219 "/>
<path style=" stroke:none;fill-rule:nonzero;fill:rgb(52.156863%,52.941176%,53.72549%);fill-opacity:1;" d="M 48.398438 177.800781 L 49.199219 321.601562 C 49.601562 327.066406 48.933594 330.800781 47.199219 332.800781 C 45.734375 334.265625 43 335 39 335 L 25.800781 335.800781 L 12.601562 335 C 6.867188 333.800781 3.601562 330.667969 2.800781 325.601562 C 2.398438 322.933594 2.199219 274.734375 2.199219 181 C 2.199219 87 2.464844 38.601562 3 35.800781 L 6.601562 33.199219 C 9.265625 30.535156 12.199219 28.535156 15.398438 27.199219 L 30.601562 26 C 35.933594 26.933594 40.398438 29.066406 44 32.398438 L 46.800781 35.199219 C 47.332031 36.800781 47.867188 84.332031 48.398438 177.800781 "/>
<path style=" stroke:none;fill-rule:nonzero;fill:rgb(37.647059%,38.039216%,38.823529%);fill-opacity:1;" d="M 21.601562 27.800781 C 10.535156 27.535156 4.933594 31.066406 4.800781 38.398438 L 4.601562 47.601562 C 4.199219 76.265625 4 133.398438 4 219 L 4.601562 323 C 4.867188 330.601562 12.066406 334.535156 26.199219 334.800781 C 40.332031 335.066406 47.332031 330.332031 47.199219 320.601562 L 46.398438 173.800781 L 45.601562 81 L 46.199219 58.398438 C 46.332031 49.199219 45.867188 41.667969 44.800781 35.800781 C 39.734375 30.867188 32 28.199219 21.601562 27.800781 M 48.800781 35.601562 C 49.867188 41.734375 50.332031 49.601562 50.199219 59.199219 L 49.601562 83.800781 L 50.800781 280.800781 L 52.199219 303.601562 C 52.734375 313.199219 52.398438 320.800781 51.199219 326.398438 C 50.132812 331.867188 46.933594 335.199219 41.601562 336.398438 L 25.601562 337.199219 L 10.398438 336.199219 C 4.535156 334.601562 1.332031 331.199219 0.800781 326 L 0 304.601562 L 0.398438 283 C 0 220.464844 0 157.867188 0.398438 95.199219 L 0.800781 38.601562 C 0.933594 35.800781 2.667969 33.132812 6 30.601562 C 8.800781 28.464844 11.867188 26.933594 15.199219 26 C 27.867188 22.265625 38.800781 24.867188 48 33.800781 L 48.601562 34.398438 L 48.601562 34.601562 L 48.800781 35.601562 "/>
</g>
</svg>
