<?xml version="1.0" encoding="UTF-8"?>
<svg xmlns="http://www.w3.org/2000/svg" xmlns:xlink="http://www.w3.org/1999/xlink" width="300pt" height="352pt" viewBox="0 0 300 352" version="1.1">
<g id="surface1">
<path style=" stroke:none;fill-rule:nonzero;fill:rgb(100%,100%,100%);fill-opacity:1;" d="M 187.398438 189.398438 L 187.398438 341.398438 L 117.199219 341.398438 L 117.199219 189.398438 L 187.398438 189.398438 "/>
<path style=" stroke:none;fill-rule:nonzero;fill:rgb(0%,0%,0%);fill-opacity:1;" d="M 121 191.601562 L 121 339.199219 L 183.601562 339.199219 L 183.601562 191.601562 L 121 191.601562 M 184.800781 191.601562 C 184.132812 190.398438 183.734375 190.398438 183.601562 191.601562 L 184.800781 191.601562 M 115.398438 188 L 118.601562 187.199219 L 189 187.199219 C 190.601562 187.199219 191.398438 187.601562 191.398438 188.398438 L 191.398438 340.199219 C 191.398438 341.800781 190.132812 342.867188 187.601562 343.398438 L 184.398438 343.601562 L 115.601562 343.601562 C 114.132812 343.601562 113.398438 343.199219 113.398438 342.398438 L 113.398438 190.601562 C 113.398438 189.535156 114.066406 188.667969 115.398438 188 "/>
<path style=" stroke:none;fill-rule:nonzero;fill:rgb(80%,80%,80%);fill-opacity:1;" d="M 182.601562 195.601562 L 182.601562 347.601562 L 112.398438 347.601562 L 112.398438 195.601562 L 182.601562 195.601562 "/>
<path style=" stroke:none;fill-rule:nonzero;fill:rgb(0%,0%,0%);fill-opacity:1;" d="M 110.601562 194.601562 L 114 194 L 184.199219 194 C 185.667969 194 186.398438 194.199219 186.398438 194.601562 L 186.398438 346.601562 C 186.398438 347.800781 185.132812 348.667969 182.601562 349.199219 L 110.601562 349.199219 C 109.132812 349.332031 108.398438 349.132812 108.398438 348.601562 L 108.398438 196.800781 C 108.398438 195.867188 109.132812 195.132812 110.601562 194.601562 M 116.199219 197.398438 L 116.199219 345.800781 L 178.800781 345.800781 L 178.800781 198.800781 L 179 197.398438 L 116.199219 197.398438 "/>
<path style=" stroke:none;fill-rule:nonzero;fill:rgb(100%,100%,72.156863%);fill-opacity:1;" d="M 201.601562 220.398438 C 199.867188 231.601562 198.800781 241.066406 198.398438 248.800781 L 198.800781 259.199219 L 198.398438 269.601562 C 187.734375 269.066406 179.667969 267.867188 174.199219 266 C 176.734375 258.933594 178.132812 246.601562 178.398438 229 C 178.535156 212.601562 180.535156 200.398438 184.398438 192.398438 C 186 189.199219 189.132812 187.734375 193.800781 188 L 206.199219 190.601562 L 206 192.398438 L 201.601562 220.398438 "/>
<path style=" stroke:none;fill-rule:nonzero;fill:rgb(92.156863%,81.960784%,5.882353%);fill-opacity:1;" d="M 207 192.199219 C 204.066406 209.667969 202.066406 222.800781 201 231.601562 C 200.464844 236.132812 200.132812 242.464844 200 250.601562 L 199.398438 269.398438 L 197.800781 270 C 188.601562 269.601562 180.464844 268.398438 173.398438 266.398438 L 173.199219 266.199219 C 175.066406 260.066406 176.265625 252.734375 176.800781 244.199219 L 177.601562 221.601562 L 178.601562 206.398438 C 179.398438 200.265625 181 195.601562 183.398438 192.398438 C 186.066406 189.066406 189.734375 187.464844 194.398438 187.601562 L 207 190.199219 L 207.199219 190.398438 L 207 192.199219 M 195 188.601562 L 183.398438 196.800781 C 182.199219 199.867188 181.332031 203.066406 180.800781 206.398438 C 180 211.867188 179.464844 220.132812 179.199219 231.199219 L 178.800781 246.601562 L 176.800781 259.199219 C 176.800781 264.265625 179.332031 267.132812 184.398438 267.800781 L 194.398438 268.800781 C 197.332031 264.265625 198.332031 259.398438 197.398438 254.199219 L 198.398438 237.398438 C 199.601562 227.398438 201.800781 212.464844 205 192.601562 C 202.464844 189.667969 199.132812 188.332031 195 188.601562 "/>
<path style=" stroke:none;fill-rule:nonzero;fill:rgb(45.882353%,30.196078%,14.117647%);fill-opacity:1;" d="M 177 260 L 198.199219 263 C 200.332031 269.800781 200.800781 273.867188 199.601562 275.199219 L 195.398438 276 L 190.601562 275.398438 L 179.398438 276.398438 L 168.601562 275.398438 L 177 260 "/>
<path style=" stroke:none;fill-rule:nonzero;fill:rgb(38.039216%,22.352941%,9.019608%);fill-opacity:1;" d="M 177.398438 259.398438 L 198.398438 262.398438 C 198.800781 262.398438 199 262.535156 199 262.800781 L 201.199219 270.199219 C 201.734375 273.800781 200.867188 275.867188 198.601562 276.398438 C 197.265625 276.933594 195.535156 276.933594 193.398438 276.398438 L 183.199219 276.601562 L 175.601562 277.199219 L 168 276 C 167.464844 276 167.332031 275.800781 167.601562 275.398438 L 176.199219 260 C 176.464844 259.332031 176.867188 259.132812 177.398438 259.398438 M 177.398438 261.398438 L 169.800781 275 L 178 275.800781 L 187 274.800781 L 194.199219 275 C 197.667969 275 199.332031 274.265625 199.199219 272.800781 L 197.398438 263.800781 L 196.398438 263.601562 L 177.601562 261 L 177.398438 261.398438 "/>
<path style=" stroke:none;fill-rule:nonzero;fill:rgb(100%,100%,72.156863%);fill-opacity:1;" d="M 215.800781 140.199219 C 216.332031 130.601562 221.667969 128.667969 231.800781 134.398438 C 241.265625 139.867188 247.265625 145.734375 249.800781 152 L 256.800781 163 L 261.800781 172.800781 C 262.199219 179.601562 260.132812 179.867188 255.601562 173.601562 C 252.398438 168.933594 249.933594 164.535156 248.199219 160.398438 C 246.867188 156.933594 244.933594 153.933594 242.398438 151.398438 C 239.464844 148.066406 236.398438 146.199219 233.199219 145.800781 L 221.800781 147.601562 C 217.535156 147.867188 215.535156 145.398438 215.800781 140.199219 "/>
<path style=" stroke:none;fill-rule:nonzero;fill:rgb(92.156863%,81.960784%,5.882353%);fill-opacity:1;" d="M 221.199219 130.800781 C 226 129.601562 231.734375 131.734375 238.398438 137.199219 C 244.132812 141.734375 248.199219 146.535156 250.601562 151.601562 L 251 152 L 257.601562 161.601562 C 260.800781 166 262.535156 169.535156 262.800781 172.199219 C 262.800781 177.265625 261.734375 179.464844 259.601562 178.800781 C 257.601562 178 255.601562 176 253.601562 172.800781 L 249.398438 164.800781 C 245.667969 157.734375 242.800781 153.265625 240.800781 151.398438 C 236.800781 147.535156 231.867188 146.265625 226 147.601562 L 218.800781 148 C 216.535156 147.332031 215.199219 145.601562 214.800781 142.800781 C 214.398438 140.132812 214.734375 137.667969 215.800781 135.398438 C 217 133 218.800781 131.464844 221.199219 130.800781 M 248.800781 152 C 246.398438 147.199219 240.933594 142.066406 232.398438 136.601562 C 222.933594 130.199219 217.800781 130.734375 217 138.199219 C 216.464844 143 217.933594 145.601562 221.398438 146 L 232 145 C 235.867188 144.734375 239.332031 146.398438 242.398438 150 L 250.398438 162.601562 C 253.332031 168.601562 255.933594 172.867188 258.199219 175.398438 L 260.800781 175.601562 C 261.199219 174.265625 261.132812 172.933594 260.601562 171.601562 L 256.398438 164.398438 L 249 152.601562 L 248.800781 152.199219 L 248.800781 152 "/>
<path style=" stroke:none;fill-rule:nonzero;fill:rgb(97.647059%,92.54902%,13.72549%);fill-opacity:1;" d="M 137.199219 36.800781 C 139.464844 37.332031 141.867188 38.933594 144.398438 41.601562 C 146.800781 44.132812 148.398438 46.601562 149.199219 49 C 150 51 150.398438 55.332031 150.398438 62 L 150.601562 78.398438 L 150.398438 84.601562 L 147.601562 94.800781 C 146.535156 98.800781 146.800781 102.132812 148.398438 104.800781 C 149.601562 106.667969 153.601562 109 160.398438 111.800781 C 167.734375 114.734375 172 116.734375 173.199219 117.800781 C 179.066406 123.132812 181.535156 128.199219 180.601562 133 C 177.535156 131.933594 175.601562 132.800781 174.800781 135.601562 L 172.398438 143 C 170.535156 145.398438 168.199219 146.734375 165.398438 147 L 156.398438 147 L 140 146.800781 C 133.464844 146.265625 128.265625 144.734375 124.398438 142.199219 C 122.265625 140.867188 120.464844 139 119 136.601562 L 115.199219 129.601562 L 108.601562 123.800781 L 102 118 C 100 115.332031 99.066406 112.332031 99.199219 109 C 99.199219 106.601562 99.800781 103.332031 101 99.199219 L 103.398438 92.398438 L 105 85.398438 C 105.265625 80.601562 104.132812 74.265625 101.601562 66.398438 L 100 61 C 99.199219 59 98.132812 57.464844 96.800781 56.398438 C 92.667969 52.933594 87.332031 52.132812 80.800781 54 L 64.800781 60.199219 L 60.398438 49.601562 C 58.535156 44.800781 58.132812 41.199219 59.199219 38.800781 C 62.667969 31.066406 71.601562 25 86 20.601562 C 90.667969 19 96.066406 17.867188 102.199219 17.199219 L 112.199219 17.800781 C 114.867188 18.734375 117.667969 20.601562 120.601562 23.398438 C 122.867188 25.398438 124.265625 27.734375 124.800781 30.398438 L 125.601562 38.601562 L 131.199219 37.199219 L 137.199219 36.800781 "/>
<path style=" stroke:none;fill-rule:nonzero;fill:rgb(97.647059%,81.960784%,13.72549%);fill-opacity:1;" d="M 154.601562 77.601562 L 152.398438 88.800781 C 151.066406 94.398438 150.535156 97.734375 150.800781 98.800781 C 152 102.398438 154 105.132812 156.800781 107 L 166.199219 111.199219 C 172.066406 113.601562 176.332031 116.132812 179 118.800781 C 182.332031 122.132812 184.199219 126.535156 184.601562 132 L 181.601562 134.199219 L 177.800781 134.398438 C 180.464844 134.800781 179.464844 137.132812 174.800781 141.398438 C 170.265625 145.667969 166.933594 148 164.800781 148.398438 L 145 149.601562 C 136.601562 149.332031 130.132812 148.066406 125.601562 145.800781 C 121.867188 144.066406 118.265625 140.800781 114.800781 136 C 110.933594 130.535156 107.667969 126.933594 105 125.199219 C 97.933594 119.867188 94.667969 114.800781 95.199219 110 C 95.734375 105.867188 97.132812 99.867188 99.398438 92 C 101 84.933594 101.066406 78.800781 99.601562 73.601562 C 96.933594 64.667969 94.800781 59.398438 93.199219 57.800781 C 89.332031 54.066406 82.265625 54.398438 72 58.800781 C 70.132812 59.601562 68.199219 60.332031 66.199219 61 L 63.601562 61.800781 L 61 61.199219 L 55.800781 45 C 55.398438 40.199219 57.601562 35.398438 62.398438 30.601562 C 67.066406 25.933594 74.800781 22.199219 85.601562 19.398438 C 113.464844 11.667969 128.066406 17.398438 129.398438 36.601562 C 139.800781 35.132812 146.800781 38.265625 150.398438 46 C 152.933594 51.199219 154.332031 61.667969 154.601562 77.398438 L 154.601562 77.601562 M 145.398438 52 C 142.867188 41.332031 136.332031 37.199219 125.800781 39.601562 L 123.601562 40 L 121.800781 39.601562 C 121.265625 28.667969 116.066406 22.066406 106.199219 19.800781 C 97.535156 17.933594 88.066406 19.667969 77.800781 25 C 67.800781 30.199219 62.734375 35.535156 62.601562 41 L 68.199219 57.601562 L 82.199219 52.199219 C 91.535156 49.667969 97.734375 50.734375 100.800781 55.398438 C 103.601562 59.535156 105.800781 64.199219 107.398438 69.398438 C 109.265625 75.535156 109.734375 80.667969 108.800781 84.800781 C 105.734375 94.132812 104.066406 100.933594 103.800781 105.199219 C 103.132812 112.132812 106 117.867188 112.398438 122.398438 L 123.601562 135.398438 C 127.734375 140.734375 132.398438 143.800781 137.601562 144.601562 L 156.398438 146.199219 C 164.132812 145.667969 168.867188 142.800781 170.601562 137.601562 C 171.667969 134.667969 173.667969 132.800781 176.601562 132 C 175.398438 124.800781 171.667969 119.933594 165.398438 117.398438 C 154.734375 112.867188 148.601562 109.800781 147 108.199219 C 143.933594 105.132812 142.933594 100.535156 144 94.398438 L 146.800781 79.398438 C 146.535156 63.933594 146.066406 54.800781 145.398438 52 "/>
<path style=" stroke:none;fill-rule:nonzero;fill:rgb(100%,100%,72.156863%);fill-opacity:1;" d="M 120.199219 34.398438 L 127.199219 30.601562 C 129.464844 31 130.933594 32.933594 131.601562 36.398438 C 132.265625 39.601562 132.132812 42.265625 131.199219 44.398438 L 126.199219 50.199219 C 124.066406 52.199219 123.398438 54.332031 124.199219 56.601562 L 127 66.800781 C 127.132812 71.464844 126.535156 77.332031 125.199219 84.398438 L 122.199219 102 C 121.667969 108.667969 121.867188 113.535156 122.800781 116.601562 L 129.601562 132 C 130.398438 133.601562 131.332031 134.535156 132.398438 134.800781 L 136.601562 135 L 142.800781 135.601562 L 148.800781 135.398438 L 156.800781 132.398438 C 160.132812 131.066406 162.867188 130.199219 165 129.800781 L 174 128.601562 L 183 126.800781 L 199.199219 125 C 205.199219 125.132812 210.601562 126.066406 215.398438 127.800781 C 222.867188 130.464844 228.867188 134.132812 233.398438 138.800781 C 237.535156 143.199219 239.601562 148.066406 239.601562 153.398438 C 239.464844 157 238.535156 162.800781 236.800781 170.800781 L 232 188.199219 L 226.601562 199.398438 C 224.199219 204.066406 222.933594 208 222.800781 211.199219 L 222.601562 235.800781 L 221.800781 260.398438 L 221.398438 266 C 221.132812 268.535156 220.464844 269.933594 219.398438 270.199219 L 215.398438 270.199219 L 208.601562 269.800781 L 203.199219 268.800781 L 201.601562 267 L 200.601562 262.398438 C 199.265625 252.398438 198.332031 239.066406 197.800781 222.398438 L 197.199219 210.398438 L 194.800781 198.601562 C 188.265625 203.132812 176.867188 204.398438 160.601562 202.398438 L 124 198.398438 C 123.734375 198.398438 123.667969 201.867188 123.800781 208.800781 L 124 220.601562 L 123.199219 226.199219 L 122.398438 232 L 123.199219 235.800781 L 122.601562 240.398438 C 122.332031 241.601562 122.265625 243.265625 122.398438 245.398438 L 122.601562 250.398438 L 122.199219 260.601562 L 122.398438 265.199219 C 121.867188 266.132812 120.933594 266.601562 119.601562 266.601562 L 116 266.199219 L 109.800781 266.199219 L 102.601562 267.398438 C 102.464844 263.667969 102.867188 258.265625 103.800781 251.199219 L 104.398438 243.199219 C 104.535156 239.867188 104.199219 237.265625 103.398438 235.398438 L 100.601562 231 L 100.601562 228.601562 L 102 226.601562 C 102.933594 224.734375 103.734375 219.535156 104.398438 211 C 105.066406 202.066406 104.800781 197.535156 103.601562 197.398438 L 95.800781 195.601562 C 94.601562 195.601562 94.132812 198.132812 94.398438 203.199219 C 94.800781 208.132812 94.132812 213.535156 92.398438 219.398438 L 86.800781 235 L 85.199219 248.199219 C 84.398438 254.867188 82.933594 258.734375 80.800781 259.800781 L 73 260.199219 L 65 259.199219 L 65.800781 247.199219 C 66.199219 242.265625 67 238.398438 68.199219 235.601562 L 70.398438 230.601562 C 70.933594 228.867188 70.800781 227.132812 70 225.398438 C 69.066406 223 68.734375 221.132812 69 219.800781 C 69.132812 218.734375 69.933594 216.933594 71.398438 214.398438 C 72.867188 211.867188 73.667969 209.066406 73.800781 206 L 73.601562 197.199219 L 72.800781 179.601562 C 72.535156 171.199219 73 165.535156 74.199219 162.601562 L 78.800781 150.800781 C 80.535156 146 82.464844 142.132812 84.601562 139.199219 L 87.800781 133.398438 C 88.867188 130.332031 88.464844 128.601562 86.601562 128.199219 L 69 125.199219 L 61.199219 122.199219 L 53.398438 119.601562 L 47.601562 120.601562 L 41.199219 120.398438 C 40.398438 120.398438 39 120.867188 37 121.800781 L 32.800781 122.601562 C 30.667969 122.066406 28.601562 120.066406 26.601562 116.601562 C 24.601562 112.867188 24.132812 109.800781 25.199219 107.398438 C 21.332031 107.132812 18.800781 104.601562 17.601562 99.800781 C 16.535156 95.132812 16.933594 91.535156 18.800781 89 C 19.464844 88.066406 21.265625 87.464844 24.199219 87.199219 L 30.199219 86 C 31.667969 85.066406 33.800781 84.265625 36.601562 83.601562 L 43.398438 81.800781 C 47.800781 80.332031 51.066406 77.398438 53.199219 73 C 54 71.265625 54.132812 69.066406 53.601562 66.398438 C 52.933594 63.066406 52.734375 60.667969 53 59.199219 C 53.535156 56.132812 55.601562 53.464844 59.199219 51.199219 L 68.800781 46.800781 C 72.265625 45.066406 75.933594 44 79.800781 43.601562 L 97.601562 42.199219 L 105.800781 42.199219 L 113.398438 40.800781 L 116.800781 37.601562 L 120.199219 34.398438 "/>
<path style=" stroke:none;fill-rule:nonzero;fill:rgb(92.156863%,81.960784%,5.882353%);fill-opacity:1;" d="M 131.398438 32.800781 C 135.265625 36 135.464844 40 132 44.800781 C 129.867188 47.734375 128.601562 51.265625 128.199219 55.398438 L 128 66.800781 L 126.398438 80.800781 L 124.199219 94.800781 C 121.800781 112.265625 123.933594 124.535156 130.601562 131.601562 C 134.066406 135.332031 139.535156 136.398438 147 134.800781 L 165 129.199219 C 194.734375 120.667969 217.734375 123.734375 234 138.398438 L 234.199219 138.398438 L 234.601562 138.800781 C 238.734375 144.398438 240.535156 151.066406 240 158.800781 C 239.734375 163.199219 238.132812 170.464844 235.199219 180.601562 L 228.601562 195.800781 C 225.535156 202.199219 223.933594 207.332031 223.800781 211.199219 L 223.601562 246.398438 C 224.535156 262.667969 223.132812 270.800781 219.398438 270.800781 L 206.601562 270.800781 C 202.601562 270 200.265625 267.332031 199.601562 262.800781 C 198.265625 252.398438 197.398438 241.199219 197 229.199219 C 196.601562 208.667969 194.734375 199.332031 191.398438 201.199219 C 186.332031 204 179.332031 205.132812 170.398438 204.601562 L 149 201.601562 L 138.800781 199.398438 L 159.800781 202.199219 C 174.464844 204.066406 186 202.667969 194.398438 198 L 195.800781 198.199219 C 197.265625 204.734375 198.199219 213.132812 198.601562 223.398438 L 200.199219 248.800781 L 200.800781 258 C 201.066406 261.734375 201.667969 264.667969 202.601562 266.800781 C 208.867188 270.667969 214.867188 269.667969 220.601562 263.800781 L 221.800781 239.398438 L 221.601562 222.199219 C 221.601562 215.667969 222.066406 210 223 205.199219 C 223.535156 203.066406 224.800781 200.199219 226.800781 196.601562 L 231 188 C 234.734375 176 236.933594 167.734375 237.601562 163.199219 C 238.933594 153.464844 237.265625 145.535156 232.601562 139.398438 C 223 130.734375 210.464844 126.265625 195 126 C 181.800781 125.734375 168.332031 128.398438 154.601562 134 L 143 136.800781 C 137.535156 137.464844 133.734375 137 131.601562 135.398438 C 128.265625 133.132812 125.464844 128.800781 123.199219 122.398438 C 121.199219 116.535156 120.398438 111.398438 120.800781 107 C 121.066406 103.933594 122 98.464844 123.601562 90.601562 L 125.800781 74 C 125.933594 71.066406 125.535156 67.464844 124.601562 63.199219 C 123.667969 58.535156 123.199219 55.132812 123.199219 53 C 123.199219 50.867188 124.601562 49.734375 127.398438 49.601562 C 130.199219 49.464844 131.398438 46.601562 131 41 C 130.464844 33.398438 127.734375 31.066406 122.800781 34 L 113.800781 41.199219 L 105.800781 42.800781 L 97.601562 42.800781 L 81.398438 44.398438 C 75.265625 45.332031 70 46.867188 65.601562 49 C 60.398438 51.398438 57.132812 56.734375 55.800781 65 C 54.332031 73.265625 51.667969 78.398438 47.800781 80.398438 C 42.464844 83.199219 36.667969 85.332031 30.398438 86.800781 C 25.066406 88.132812 21.398438 91.066406 19.398438 95.601562 C 17.132812 100.667969 19.199219 104.398438 25.601562 106.800781 C 26.265625 106.800781 26.398438 107 26 107.398438 C 24.933594 115.667969 28 119.933594 35.199219 120.199219 L 53.800781 119 C 64.066406 120.199219 75.199219 123.066406 87.199219 127.601562 C 90.398438 128.667969 90.332031 131.800781 87 137 C 77.933594 151.933594 73.535156 164.464844 73.800781 174.601562 L 75.398438 191.800781 C 76.066406 199.398438 75.734375 205.066406 74.398438 208.800781 C 73.332031 211.734375 72.667969 215.332031 72.398438 219.601562 L 71.398438 230.601562 L 70.199219 236.199219 L 69 233.800781 C 68.199219 231.265625 67.398438 235.667969 66.601562 247 C 65.398438 251.535156 66.132812 255.464844 68.800781 258.800781 C 75.332031 261.066406 80.398438 258.265625 84 250.398438 L 85.398438 237.800781 C 86.066406 234.199219 87.734375 229 90.398438 222.199219 C 91.601562 218.601562 92.265625 214.601562 92.398438 210.199219 L 93.398438 198.601562 C 93.667969 196.199219 95.132812 194.800781 97.800781 194.398438 C 100.332031 193.867188 102.601562 194.734375 104.601562 197 C 107.398438 200.199219 107.535156 206.398438 105 215.601562 C 102.464844 225.199219 102.199219 231.667969 104.199219 235 C 104.867188 236.066406 104.933594 242.132812 104.398438 253.199219 C 103.867188 262.265625 105.601562 266.398438 109.601562 265.601562 C 115.332031 264.265625 118.734375 263 119.800781 261.800781 C 121.132812 260.332031 121.734375 256.601562 121.601562 250.601562 L 122.398438 234.800781 L 123 219.199219 L 122.398438 208.800781 C 122.132812 204.535156 122.332031 201.066406 123 198.398438 L 124 197.601562 L 133 198.800781 C 127.265625 198.398438 124.464844 200.398438 124.601562 204.800781 C 125.265625 212 125.398438 217.199219 125 220.398438 L 123.800781 242.800781 L 123.199219 265.199219 L 122.800781 265.800781 L 112.800781 267.800781 L 102.398438 268.199219 L 101.601562 267.601562 L 102.199219 249.601562 C 102.066406 243.464844 101.199219 237.398438 99.601562 231.398438 C 99.332031 230.199219 99.601562 228.667969 100.398438 226.800781 L 102 222.601562 L 104 209 C 104.398438 201.933594 103 198.132812 99.800781 197.601562 C 96.601562 197.066406 95 198.265625 95 201.199219 C 95.667969 205.199219 95.800781 208.132812 95.398438 210 L 90.800781 225.601562 C 88.535156 232.265625 87.199219 237.535156 86.800781 241.398438 C 86.265625 248.464844 85.199219 253.933594 83.601562 257.800781 C 82.535156 260.464844 79.601562 261.667969 74.800781 261.398438 L 64.601562 259.800781 L 64 259.199219 C 64.667969 245.601562 66.132812 232 68.398438 218.398438 L 71.199219 206.199219 L 72.601562 193.800781 L 71.800781 174.800781 C 71.933594 168.535156 73.464844 161.933594 76.398438 155 L 85 136.800781 C 89 128.535156 73.066406 123.734375 37.199219 122.398438 L 29.800781 121.800781 L 24.800781 115 L 20.199219 107.601562 C 18.066406 104.132812 16.867188 101.601562 16.601562 100 C 16.199219 96.398438 16.199219 93.734375 16.601562 92 C 17.265625 89.867188 18.933594 88.132812 21.601562 86.800781 C 26.132812 84.667969 33 82.066406 42.199219 79 C 49 75.265625 52.265625 68.667969 52 59.199219 C 51.867188 54.667969 57.332031 50.332031 68.398438 46.199219 C 71.867188 44.867188 80.734375 43.601562 95 42.398438 C 106.332031 41.464844 114.464844 38.667969 119.398438 34 C 123.667969 30.132812 127.667969 29.734375 131.398438 32.800781 "/>
<path style=" stroke:none;fill-rule:nonzero;fill:rgb(0%,0%,0%);fill-opacity:1;" d="M 93 68.601562 C 93 70.867188 92.199219 72.867188 90.601562 74.601562 C 89 76.199219 87 77 84.601562 77 C 82.332031 77 80.332031 76.199219 78.601562 74.601562 C 77 72.867188 76.199219 70.867188 76.199219 68.601562 C 76.199219 66.332031 77 64.332031 78.601562 62.601562 C 80.332031 61 82.332031 60.199219 84.601562 60.199219 C 87 60.199219 89 61 90.601562 62.601562 C 92.199219 64.332031 93 66.332031 93 68.601562 "/>
<path style=" stroke:none;fill-rule:nonzero;fill:rgb(100%,100%,72.156863%);fill-opacity:1;" d="M 23.800781 107.199219 C 26.464844 106 30.066406 105 34.601562 104.199219 L 45.601562 101.800781 L 63.199219 100 L 23.800781 107.199219 "/>
<path style=" stroke:none;fill-rule:nonzero;fill:rgb(92.156863%,81.960784%,5.882353%);fill-opacity:1;" d="M 23 107.601562 C 22.734375 107.332031 22.867188 107.066406 23.398438 106.800781 C 35.667969 101.867188 49.066406 99.398438 63.601562 99.398438 C 64.535156 99.398438 64.332031 99.800781 63 100.601562 C 48.332031 100.867188 35.464844 103.265625 24.398438 107.800781 L 23 107.601562 "/>
<path style=" stroke:none;fill-rule:nonzero;fill:rgb(45.882353%,30.196078%,14.117647%);fill-opacity:1;" d="M 56 81.601562 C 60 87.332031 62.867188 92.867188 64.601562 98.199219 C 67 105.933594 67.535156 114.464844 66.199219 123.800781 C 57.800781 121.398438 53.199219 120.398438 52.398438 120.800781 C 54.265625 116.265625 55.066406 110 54.800781 102 C 54.667969 99.066406 53.398438 95.667969 51 91.800781 L 44.800781 82.601562 L 50 77.199219 C 51.332031 76.933594 52.535156 77.265625 53.601562 78.199219 L 56 81.601562 "/>
<path style=" stroke:none;fill-rule:nonzero;fill:rgb(38.039216%,22.352941%,9.019608%);fill-opacity:1;" d="M 50 78.199219 L 46.800781 81.398438 C 46.265625 82.066406 46.601562 83.332031 47.800781 85.199219 L 50.398438 88.800781 C 55.066406 96.398438 56.667969 104.398438 55.199219 112.800781 L 54 117.398438 C 53.601562 119 53.734375 119.867188 54.398438 120 L 63 121.800781 L 66.398438 122 L 65.800781 117.199219 C 65.933594 111.066406 65.199219 104.800781 63.601562 98.398438 C 61.199219 91.332031 58 85.332031 54 80.398438 C 52.535156 78.535156 51.199219 77.800781 50 78.199219 M 44 82.398438 C 47.601562 75.199219 51.933594 74.734375 57 81 C 60.066406 85 62.933594 90.601562 65.601562 97.800781 L 65.601562 98.199219 C 67.734375 106.066406 68.265625 114.535156 67.199219 123.601562 L 66.601562 124.398438 L 65.601562 124.398438 C 64 123.464844 61.800781 122.734375 59 122.199219 L 52.199219 121.398438 L 51.601562 121.398438 L 51.398438 120.601562 C 54.464844 111.800781 55.132812 104.800781 53.398438 99.601562 C 52.332031 96.398438 49.199219 90.867188 44 83 L 44 82.398438 "/>
<path style=" stroke:none;fill-rule:nonzero;fill:rgb(45.882353%,30.196078%,14.117647%);fill-opacity:1;" d="M 100 278 L 101.800781 268.199219 L 102.800781 262.800781 C 103.464844 260.933594 104.667969 259.933594 106.398438 259.800781 L 113 259 L 119 258.800781 L 121.800781 257.800781 C 122.601562 258.066406 123.132812 259.667969 123.398438 262.601562 L 123.601562 268.199219 L 124.398438 272.601562 C 124.667969 274.601562 124.464844 276 123.800781 276.800781 L 120.398438 277.398438 L 115.601562 277.800781 L 114.398438 278 L 107.800781 277.800781 L 100 278 "/>
<path style=" stroke:none;fill-rule:nonzero;fill:rgb(38.039216%,22.352941%,9.019608%);fill-opacity:1;" d="M 99 278 L 100.398438 268 C 101.066406 263.734375 102.535156 260.933594 104.800781 259.601562 L 114.800781 258.601562 L 118.601562 257.800781 L 122.800781 257.601562 C 123.867188 258.132812 124.535156 260.199219 124.800781 263.800781 L 125.199219 271.199219 C 125.734375 274.535156 125.066406 276.601562 123.199219 277.398438 L 115.601562 278.398438 L 115.398438 278.398438 L 110 278.601562 L 104.398438 278.601562 L 101.800781 278.800781 L 99.199219 278.398438 L 99 278 M 102.800781 267 L 102.199219 272.601562 L 100.800781 277.398438 L 115.800781 277.199219 L 116.199219 277.199219 L 120.800781 276.800781 C 122.535156 276.933594 123.464844 276.199219 123.601562 274.601562 L 123 270.601562 L 122.601562 264.800781 L 122.199219 261.199219 C 121.933594 259.332031 121.332031 258.535156 120.398438 258.800781 L 114.199219 259.601562 C 108.199219 259.601562 104.800781 260.398438 104 262 L 102.800781 267 "/>
<path style=" stroke:none;fill-rule:nonzero;fill:rgb(97.647059%,92.54902%,13.72549%);fill-opacity:1;" d="M 254.398438 168.800781 C 254.535156 163.332031 256.398438 161.066406 260 162 C 261.867188 162.398438 265.132812 164.332031 269.800781 167.800781 L 274.398438 172.199219 L 277.398438 176.800781 L 279.199219 178.398438 L 281 180.398438 L 277.199219 179.199219 L 278.800781 181.398438 L 280.199219 183.398438 L 277.601562 182.601562 L 273.601562 181.199219 L 275.601562 184.800781 L 277.800781 189.601562 L 271.398438 187.199219 C 273 190.398438 273.867188 192.734375 274 194.199219 L 270.199219 192.601562 L 272.398438 197.800781 L 274.199219 201 L 263.800781 191.398438 C 257.535156 184.734375 254.398438 177.800781 254.398438 170.601562 L 254.398438 168.800781 "/>
<path style="fill:none;stroke-width:1;stroke-linecap:butt;stroke-linejoin:miter;stroke:rgb(97.647059%,81.960784%,13.72549%);stroke-opacity:1;stroke-miterlimit:4;" d="M 63.599609 42.650391 C 63.599609 44.450195 64.383789 46.183594 65.950195 47.849609 L 68.549805 50.25 L 68.099609 49.450195 L 67.549805 48.150391 L 68.5 48.549805 C 68.466797 48.183594 68.25 47.599609 67.849609 46.799805 L 69.450195 47.400391 L 68.900391 46.200195 L 68.400391 45.299805 L 69.400391 45.650391 L 70.049805 45.849609 L 69.700195 45.349609 L 69.299805 44.799805 L 70.25 45.099609 L 69.799805 44.599609 L 69.349609 44.200195 L 68.599609 43.049805 L 67.450195 41.950195 C 66.283203 41.083008 65.466797 40.599609 65 40.5 C 64.099609 40.266602 63.633789 40.833008 63.599609 42.200195 Z M 63.599609 42.650391 " transform="matrix(4,0,0,4,0,0)"/>
<path style=" stroke:none;fill-rule:nonzero;fill:rgb(92.156863%,81.960784%,5.882353%);fill-opacity:1;" d="M 123.800781 41.800781 L 124.398438 42 C 124.132812 46.933594 123.667969 50 123 51.199219 L 121.199219 51.601562 L 122.398438 43 C 119.734375 43.800781 117.800781 44.734375 116.601562 45.800781 L 115.398438 46.199219 L 114.800781 45.800781 C 116.535156 44.332031 119.265625 43.066406 123 42 L 123.800781 41.800781 "/>
<path style=" stroke:none;fill-rule:nonzero;fill:rgb(45.882353%,30.196078%,14.117647%);fill-opacity:1;" d="M 81.800781 276.398438 C 65.535156 277.464844 54.933594 275.199219 50 269.601562 L 54.601562 265 L 58.800781 260 L 64.199219 255.398438 L 82.601562 258.398438 C 82.867188 266 82.601562 272 81.800781 276.398438 "/>
<path style=" stroke:none;fill-rule:nonzero;fill:rgb(38.039216%,22.352941%,9.019608%);fill-opacity:1;" d="M 83.601562 258.199219 C 83.867188 264.867188 83.535156 270.867188 82.601562 276.199219 L 81.398438 276.601562 L 81 276.800781 C 65.132812 277.734375 54.535156 275.464844 49.199219 270 L 49.199219 269.601562 L 56.601562 261.601562 L 63 255.800781 C 63.535156 255.265625 64.265625 255 65.199219 255 L 83.398438 258 L 83.601562 258.199219 M 80.199219 258.601562 L 64.601562 256 L 63 257.199219 C 59.667969 260 57.332031 262.332031 56 264.199219 L 52.398438 268.398438 C 51.332031 269.199219 51.398438 270.066406 52.601562 271 L 55.199219 272.601562 C 61.601562 275.535156 70.199219 276.734375 81 276.199219 L 81.601562 262.398438 L 81.800781 259.601562 C 81.667969 259.066406 81.132812 258.734375 80.199219 258.601562 "/>
<path style=" stroke:none;fill-rule:nonzero;fill:rgb(45.882353%,30.196078%,14.117647%);fill-opacity:1;" d="M 198.398438 280.800781 L 190.601562 278.601562 L 195.398438 272.601562 L 200.601562 267.199219 C 202.066406 266.132812 203.800781 265.535156 205.800781 265.398438 L 211.601562 265.199219 L 215.800781 265 L 219.601562 265.800781 L 221 267.398438 L 221 269.398438 L 221.800781 274.800781 L 222.800781 280.199219 L 218 279.398438 L 214.199219 280.398438 L 201.398438 281.398438 L 198.398438 280.800781 "/>
<path style=" stroke:none;fill-rule:nonzero;fill:rgb(38.039216%,22.352941%,9.019608%);fill-opacity:1;" d="M 189.800781 278.398438 L 194.601562 272.398438 L 200 266.800781 C 202.398438 265.332031 205.734375 264.601562 210 264.601562 L 216.199219 264.398438 C 218.464844 264.535156 220.265625 265.199219 221.601562 266.398438 C 222.398438 267.066406 222.667969 269.199219 222.398438 272.800781 L 223.800781 280 L 223.199219 280.800781 L 222.199219 280.800781 C 220.332031 280.265625 217.933594 280.265625 215 280.800781 L 207.601562 281.800781 L 197.800781 281.398438 L 193.601562 280.800781 C 191.464844 280.398438 190.199219 279.800781 189.800781 279 L 189.800781 278.398438 M 198.800781 280.199219 L 199 280.199219 L 218 278.800781 L 221.601562 279.199219 C 220.667969 275.332031 220.132812 272.132812 220 269.601562 C 219.734375 266.535156 215.464844 265.265625 207.199219 265.800781 C 204.132812 265.933594 201.332031 267.265625 198.800781 269.800781 L 192.800781 277.398438 C 192.132812 278.199219 192.867188 278.867188 195 279.398438 L 198.800781 280.199219 "/>
<path style=" stroke:none;fill-rule:nonzero;fill:rgb(0%,0%,0%);fill-opacity:1;" d="M 136.800781 16.199219 C 138.933594 17.535156 140.734375 19 142.199219 20.601562 C 147.535156 22.066406 152.535156 25.332031 157.199219 30.398438 C 160.933594 34.535156 163.601562 38.734375 165.199219 43 C 166.667969 46.867188 167.398438 52.535156 167.398438 60 L 167.398438 86.199219 L 165.398438 95.398438 L 168.601562 96.601562 C 176.734375 99.933594 182.132812 102.800781 184.800781 105.199219 L 188 108.601562 L 198 107.800781 C 206.535156 107.800781 214.265625 109.132812 221.199219 111.800781 L 229 115.199219 C 236.066406 116.800781 243.398438 120.867188 251 127.398438 C 258.199219 133.535156 263 139.535156 265.398438 145.398438 L 265.800781 146.199219 C 269.265625 147.265625 274 149.867188 280 154 L 287.601562 161.398438 L 290.398438 165.398438 C 293.867188 168.199219 296.132812 171.601562 297.199219 175.601562 C 298.265625 179.332031 298.199219 182.867188 297 186.199219 L 294.601562 192.199219 C 294.199219 195.132812 293.066406 197.734375 291.199219 200 C 291.464844 206.800781 288.867188 211.867188 283.398438 215.199219 C 280.464844 217.066406 277.398438 218 274.199219 218 C 269.132812 218 264.734375 215.933594 261 211.800781 L 258 209 L 251.398438 203 L 246.601562 197.398438 L 243 204.601562 L 239.800781 212 L 239.601562 231.398438 C 239.867188 243.667969 239.601562 253.933594 238.800781 262.199219 L 238.800781 263 L 238 269.601562 L 238.398438 271 L 239 274.601562 L 239 275.199219 C 240.867188 281.332031 239.667969 286.800781 235.398438 291.601562 C 232.066406 295.332031 227.867188 297.199219 222.800781 297.199219 L 219 296.800781 L 217.199219 297.199219 L 202.398438 298.398438 L 201.199219 298.398438 L 195.199219 297.601562 C 188.398438 296.265625 183.867188 294.800781 181.601562 293.199219 L 175 293.601562 C 169.800781 293.601562 165.265625 292.667969 161.398438 290.800781 C 156.734375 288.667969 153.667969 285.132812 152.199219 280.199219 C 150.734375 275.265625 151.398438 270.601562 154.199219 266.199219 L 159 258 C 160.464844 252.933594 161.199219 244.132812 161.199219 231.601562 L 161.601562 219.601562 L 147.199219 217.601562 L 146.199219 217.601562 L 140.800781 216.800781 L 141 218.800781 L 141 220 L 139.800781 230 L 139.601562 231 L 140 233.601562 L 139.601562 242.398438 L 139.398438 243.199219 L 139.398438 255.601562 L 140.601562 266.199219 L 140.601562 266.800781 C 142.332031 275.734375 141.066406 282.734375 136.800781 287.800781 C 133.066406 292.332031 128.066406 294.601562 121.800781 294.601562 L 120 294.398438 L 117.800781 294.601562 L 116.800781 294.800781 L 112.601562 295.199219 L 108.398438 294.800781 L 101 295 C 96.601562 295 92.800781 293.800781 89.601562 291.398438 L 82.601562 293.398438 L 76 293.601562 C 57.601562 293.601562 44.667969 289.332031 37.199219 280.800781 C 33.734375 276.933594 32.398438 272.332031 33.199219 267 C 34 262.066406 36.398438 258.265625 40.398438 255.601562 L 41.199219 254.398438 L 47.800781 247.199219 L 48.601562 246.398438 C 49.398438 239.066406 50.800781 233.199219 52.800781 228.800781 L 53 228.199219 C 51.800781 223.933594 51.601562 219.867188 52.398438 216 C 52.933594 213.332031 54.265625 210.132812 56.398438 206.398438 L 56.601562 202.601562 L 56.199219 187.601562 C 55.265625 172.667969 56 162.199219 58.398438 156.199219 L 64.199219 141.601562 L 55.398438 138.398438 L 49.199219 137.398438 L 45.601562 137.601562 L 43.199219 137.601562 L 33.800781 139.601562 L 28.800781 139 C 24.132812 137.933594 19.933594 135.332031 16.199219 131.199219 C 13.800781 128.535156 12 125.734375 10.800781 122.800781 L 8.800781 117.398438 C 5.867188 114.867188 3.667969 111.464844 2.199219 107.199219 C 0.464844 102.398438 -0.199219 97.464844 0.199219 92.398438 C 0.734375 87.199219 2.265625 82.800781 4.800781 79.199219 C 8.800781 73.601562 15.132812 70.601562 23.800781 70.199219 C 27.132812 68.601562 30.800781 67.398438 34.800781 66.601562 L 36.199219 66.199219 C 35.667969 62.867188 35.667969 59.601562 36.199219 56.398438 C 37 51.867188 38.800781 47.800781 41.601562 44.199219 C 41.199219 39.667969 41.867188 35.535156 43.601562 31.800781 C 49.332031 19.398438 61.734375 10.265625 80.800781 4.398438 L 100 0.398438 L 106.199219 0 C 115.800781 0 124.535156 3.667969 132.398438 11 L 136.800781 16.199219 "/>
<path style=" stroke:none;fill-rule:nonzero;fill:rgb(100%,100%,100%);fill-opacity:1;" d="M 131 22.800781 C 133.667969 23.867188 135.800781 25.667969 137.398438 28.199219 L 139 28.398438 C 143 29.332031 146.867188 31.800781 150.601562 35.800781 C 153.667969 39.132812 155.867188 42.535156 157.199219 46 C 158.535156 49.601562 159.066406 54.199219 158.800781 59.800781 L 158.800781 85.398438 L 156.601562 94.398438 C 155.667969 97.601562 155.332031 99.464844 155.601562 100 C 157.066406 101.199219 160.398438 102.734375 165.601562 104.601562 C 172.132812 107.132812 176.601562 109.464844 179 111.601562 L 184.601562 117.800781 L 198 116.398438 C 205.464844 116.398438 212.199219 117.535156 218.199219 119.800781 L 226.199219 123.199219 C 232.199219 124.398438 238.601562 127.867188 245.398438 133.601562 C 251.667969 139.066406 255.734375 144.132812 257.601562 148.800781 L 260.601562 153.601562 C 264.199219 154 268.933594 156.464844 274.800781 161 L 281 166.800781 L 283.601562 170.601562 L 283.800781 171.199219 C 286.601562 173.199219 288.398438 175.464844 289.199219 178 C 289.734375 180.398438 289.535156 182.398438 288.601562 184 L 287 188.199219 L 286.199219 189.199219 C 286.464844 191.464844 285.867188 193.398438 284.398438 195 L 282.199219 197 L 282 197.398438 C 282.933594 199.265625 283.066406 201.265625 282.398438 203.398438 L 278.800781 208.199219 L 274.199219 209.398438 C 271.667969 209.398438 269.464844 208.398438 267.601562 206.398438 L 263.199219 202.398438 L 257.601562 197.199219 C 250.800781 190 247 182.464844 246.199219 174.601562 L 245 172.601562 L 240 190.800781 L 235.398438 200.800781 C 232.734375 206.132812 231.332031 209.734375 231.199219 211.601562 L 231.199219 231.601562 L 230.199219 261.398438 L 230.199219 262.601562 L 229.398438 269.199219 L 230.800781 277.398438 C 231.867188 280.601562 231.332031 283.464844 229.199219 286 C 227.601562 287.867188 225.464844 288.800781 222.800781 288.800781 L 220.800781 288.601562 L 219.199219 288 L 218.800781 288 L 215.800781 288.800781 L 202.398438 289.800781 L 201.199219 289.800781 L 196.800781 289.199219 C 190 288 185.800781 286.398438 184.199219 284.398438 L 183.601562 284.398438 L 175 285.199219 L 165 283.199219 C 162.601562 282.132812 161.066406 280.332031 160.398438 277.800781 C 159.601562 275.265625 159.933594 272.933594 161.398438 270.800781 L 166.800781 261.398438 C 168.800781 255 169.800781 245.066406 169.800781 231.601562 L 170.601562 211.800781 L 148.398438 209.199219 L 147.398438 209.199219 L 132.199219 207.199219 L 132.398438 220.398438 L 131.398438 228.199219 L 130.800781 231.601562 L 131 231.800781 L 131.601562 234.800781 L 131.199219 240.800781 L 131 241.800781 L 131 246 L 130.800781 256.800781 C 131.601562 258.933594 132 262.132812 132 266.398438 L 132.398438 268.601562 C 133.601562 274.734375 132.867188 279.332031 130.199219 282.398438 C 128.066406 284.800781 125.265625 286 121.800781 286 L 120.398438 286 L 116.800781 286.199219 L 115.601562 286.398438 L 112.601562 286.601562 L 109.199219 286.398438 L 107.601562 286.199219 L 106 286.398438 L 101 286.601562 C 97.132812 286.601562 94.398438 285.265625 92.800781 282.601562 C 91.066406 280.066406 90.867188 277.398438 92.199219 274.601562 L 95.601562 247.398438 C 96 242.601562 95.933594 239.734375 95.398438 238.800781 L 95.199219 238.601562 L 94.800781 238 L 94.199219 243.398438 C 93.667969 250.867188 92.667969 256.332031 91.199219 259.800781 L 90 278 C 89.734375 279.867188 88.867188 281.464844 87.398438 282.800781 L 82.199219 285 L 76 285.199219 C 60.265625 285.199219 49.464844 281.867188 43.601562 275.199219 C 41.867188 273.066406 41.199219 270.734375 41.601562 268.199219 C 42 265.535156 43.332031 263.601562 45.601562 262.398438 L 48.199219 259.398438 C 49.667969 257.265625 51.332031 255.332031 53.199219 253.601562 L 56.800781 250.601562 C 57.332031 242.734375 58.535156 236.601562 60.398438 232.199219 L 62.199219 228.601562 C 60.601562 225 60.066406 221.734375 60.601562 218.800781 C 60.867188 216.667969 61.933594 213.867188 63.800781 210.398438 C 64.734375 208.667969 65.132812 206 65 202.398438 L 65 197 L 64.800781 187.199219 C 63.867188 173.601562 64.332031 164.332031 66.199219 159.398438 L 68.601562 153.601562 C 71.800781 145.066406 74.601562 138.933594 77 135.199219 L 67.199219 133.601562 L 58.199219 130.199219 L 53 129.199219 L 52.398438 129.199219 L 49.601562 128.800781 L 48.800781 129 L 45.601562 129.199219 L 41.601562 129 L 40.800781 129.398438 L 33.800781 131.199219 L 30.800781 130.800781 C 26 129.601562 21.867188 125.734375 18.398438 119.199219 L 16.398438 112.800781 C 13.601562 110.800781 11.535156 107.933594 10.199219 104.199219 C 8.867188 100.734375 8.332031 97.132812 8.601562 93.398438 C 9 89.667969 10.066406 86.601562 11.800781 84.199219 C 13.265625 82.066406 15.332031 80.535156 18 79.601562 L 24.398438 78.601562 L 26.398438 78.398438 C 28.398438 77.199219 31.867188 76 36.800781 74.800781 L 40.601562 73.800781 L 41.398438 73.398438 L 44.800781 70.398438 L 45.398438 69.601562 L 45 67.199219 C 44.332031 63.332031 44.199219 60.199219 44.601562 57.800781 C 45.265625 53.667969 47.265625 50.066406 50.601562 47 C 49.667969 42.464844 49.933594 38.601562 51.398438 35.398438 C 55.933594 25.398438 66.601562 17.734375 83.398438 12.398438 L 101.199219 8.800781 L 106.199219 8.398438 C 113.667969 8.398438 120.398438 11.332031 126.398438 17.199219 L 131 22.800781 "/>
<path style=" stroke:none;fill-rule:nonzero;fill:rgb(100%,100%,72.156863%);fill-opacity:1;" d="M 201.601562 220.398438 C 199.867188 231.601562 198.800781 241.066406 198.398438 248.800781 L 198.800781 259.199219 L 198.398438 269.601562 C 187.734375 269.066406 179.667969 267.867188 174.199219 266 C 176.734375 258.933594 178.132812 246.601562 178.398438 229 C 178.535156 212.601562 180.535156 200.398438 184.398438 192.398438 C 186 189.199219 189.132812 187.734375 193.800781 188 L 206.199219 190.601562 L 206 192.398438 L 201.601562 220.398438 "/>
<path style=" stroke:none;fill-rule:nonzero;fill:rgb(92.156863%,81.960784%,5.882353%);fill-opacity:1;" d="M 207 192.199219 C 204.066406 209.667969 202.066406 222.800781 201 231.601562 C 200.464844 236.132812 200.132812 242.464844 200 250.601562 L 199.398438 269.398438 L 197.800781 270 C 188.601562 269.601562 180.464844 268.398438 173.398438 266.398438 L 173.199219 266.199219 C 175.066406 260.066406 176.265625 252.734375 176.800781 244.199219 L 177.601562 221.601562 L 178.601562 206.398438 C 179.398438 200.265625 181 195.601562 183.398438 192.398438 C 186.066406 189.066406 189.734375 187.464844 194.398438 187.601562 L 207 190.199219 L 207.199219 190.398438 L 207 192.199219 M 195 188.601562 L 183.398438 196.800781 C 182.199219 199.867188 181.332031 203.066406 180.800781 206.398438 C 180 211.867188 179.464844 220.132812 179.199219 231.199219 L 178.800781 246.601562 L 176.800781 259.199219 C 176.800781 264.265625 179.332031 267.132812 184.398438 267.800781 L 194.398438 268.800781 C 197.332031 264.265625 198.332031 259.398438 197.398438 254.199219 L 198.398438 237.398438 C 199.601562 227.398438 201.800781 212.464844 205 192.601562 C 202.464844 189.667969 199.132812 188.332031 195 188.601562 "/>
<path style=" stroke:none;fill-rule:nonzero;fill:rgb(45.882353%,30.196078%,14.117647%);fill-opacity:1;" d="M 177 260 L 198.199219 263 C 200.332031 269.800781 200.800781 273.867188 199.601562 275.199219 L 195.398438 276 L 190.601562 275.398438 L 179.398438 276.398438 L 168.601562 275.398438 L 177 260 "/>
<path style=" stroke:none;fill-rule:nonzero;fill:rgb(38.039216%,22.352941%,9.019608%);fill-opacity:1;" d="M 177.398438 259.398438 L 198.398438 262.398438 C 198.800781 262.398438 199 262.535156 199 262.800781 L 201.199219 270.199219 C 201.734375 273.800781 200.867188 275.867188 198.601562 276.398438 C 197.265625 276.933594 195.535156 276.933594 193.398438 276.398438 L 183.199219 276.601562 L 175.601562 277.199219 L 168 276 C 167.464844 276 167.332031 275.800781 167.601562 275.398438 L 176.199219 260 C 176.464844 259.332031 176.867188 259.132812 177.398438 259.398438 M 177.398438 261.398438 L 169.800781 275 L 178 275.800781 L 187 274.800781 L 194.199219 275 C 197.667969 275 199.332031 274.265625 199.199219 272.800781 L 197.398438 263.800781 L 196.398438 263.601562 L 177.601562 261 L 177.398438 261.398438 "/>
<path style=" stroke:none;fill-rule:nonzero;fill:rgb(100%,100%,72.156863%);fill-opacity:1;" d="M 215.800781 140.199219 C 216.332031 130.601562 221.667969 128.667969 231.800781 134.398438 C 241.265625 139.867188 247.265625 145.734375 249.800781 152 L 256.800781 163 L 261.800781 172.800781 C 262.199219 179.601562 260.132812 179.867188 255.601562 173.601562 C 252.398438 168.933594 249.933594 164.535156 248.199219 160.398438 C 246.867188 156.933594 244.933594 153.933594 242.398438 151.398438 C 239.464844 148.066406 236.398438 146.199219 233.199219 145.800781 L 221.800781 147.601562 C 217.535156 147.867188 215.535156 145.398438 215.800781 140.199219 "/>
<path style=" stroke:none;fill-rule:nonzero;fill:rgb(92.156863%,81.960784%,5.882353%);fill-opacity:1;" d="M 221.199219 130.800781 C 226 129.601562 231.734375 131.734375 238.398438 137.199219 C 244.132812 141.734375 248.199219 146.535156 250.601562 151.601562 L 251 152 L 257.601562 161.601562 C 260.800781 166 262.535156 169.535156 262.800781 172.199219 C 262.800781 177.265625 261.734375 179.464844 259.601562 178.800781 C 257.601562 178 255.601562 176 253.601562 172.800781 L 249.398438 164.800781 C 245.667969 157.734375 242.800781 153.265625 240.800781 151.398438 C 236.800781 147.535156 231.867188 146.265625 226 147.601562 L 218.800781 148 C 216.535156 147.332031 215.199219 145.601562 214.800781 142.800781 C 214.398438 140.132812 214.734375 137.667969 215.800781 135.398438 C 217 133 218.800781 131.464844 221.199219 130.800781 M 248.800781 152 C 246.398438 147.199219 240.933594 142.066406 232.398438 136.601562 C 222.933594 130.199219 217.800781 130.734375 217 138.199219 C 216.464844 143 217.933594 145.601562 221.398438 146 L 232 145 C 235.867188 144.734375 239.332031 146.398438 242.398438 150 L 250.398438 162.601562 C 253.332031 168.601562 255.933594 172.867188 258.199219 175.398438 L 260.800781 175.601562 C 261.199219 174.265625 261.132812 172.933594 260.601562 171.601562 L 256.398438 164.398438 L 249 152.601562 L 248.800781 152.199219 L 248.800781 152 "/>
<path style=" stroke:none;fill-rule:nonzero;fill:rgb(97.647059%,92.54902%,13.72549%);fill-opacity:1;" d="M 137.199219 36.800781 C 139.464844 37.332031 141.867188 38.933594 144.398438 41.601562 C 146.800781 44.132812 148.398438 46.601562 149.199219 49 C 150 51 150.398438 55.332031 150.398438 62 L 150.601562 78.398438 L 150.398438 84.601562 L 147.601562 94.800781 C 146.535156 98.800781 146.800781 102.132812 148.398438 104.800781 C 149.601562 106.667969 153.601562 109 160.398438 111.800781 C 167.734375 114.734375 172 116.734375 173.199219 117.800781 C 179.066406 123.132812 181.535156 128.199219 180.601562 133 C 177.535156 131.933594 175.601562 132.800781 174.800781 135.601562 L 172.398438 143 C 170.535156 145.398438 168.199219 146.734375 165.398438 147 L 156.398438 147 L 140 146.800781 C 133.464844 146.265625 128.265625 144.734375 124.398438 142.199219 C 122.265625 140.867188 120.464844 139 119 136.601562 L 115.199219 129.601562 L 108.601562 123.800781 L 102 118 C 100 115.332031 99.066406 112.332031 99.199219 109 C 99.199219 106.601562 99.800781 103.332031 101 99.199219 L 103.398438 92.398438 L 105 85.398438 C 105.265625 80.601562 104.132812 74.265625 101.601562 66.398438 L 100 61 C 99.199219 59 98.132812 57.464844 96.800781 56.398438 C 92.667969 52.933594 87.332031 52.132812 80.800781 54 L 64.800781 60.199219 L 60.398438 49.601562 C 58.535156 44.800781 58.132812 41.199219 59.199219 38.800781 C 62.667969 31.066406 71.601562 25 86 20.601562 C 90.667969 19 96.066406 17.867188 102.199219 17.199219 L 112.199219 17.800781 C 114.867188 18.734375 117.667969 20.601562 120.601562 23.398438 C 122.867188 25.398438 124.265625 27.734375 124.800781 30.398438 L 125.601562 38.601562 L 131.199219 37.199219 L 137.199219 36.800781 "/>
<path style=" stroke:none;fill-rule:nonzero;fill:rgb(97.647059%,81.960784%,13.72549%);fill-opacity:1;" d="M 154.601562 77.601562 L 152.398438 88.800781 C 151.066406 94.398438 150.535156 97.734375 150.800781 98.800781 C 152 102.398438 154 105.132812 156.800781 107 L 166.199219 111.199219 C 172.066406 113.601562 176.332031 116.132812 179 118.800781 C 182.332031 122.132812 184.199219 126.535156 184.601562 132 L 181.601562 134.199219 L 177.800781 134.398438 C 180.464844 134.800781 179.464844 137.132812 174.800781 141.398438 C 170.265625 145.667969 166.933594 148 164.800781 148.398438 L 145 149.601562 C 136.601562 149.332031 130.132812 148.066406 125.601562 145.800781 C 121.867188 144.066406 118.265625 140.800781 114.800781 136 C 110.933594 130.535156 107.667969 126.933594 105 125.199219 C 97.933594 119.867188 94.667969 114.800781 95.199219 110 C 95.734375 105.867188 97.132812 99.867188 99.398438 92 C 101 84.933594 101.066406 78.800781 99.601562 73.601562 C 96.933594 64.667969 94.800781 59.398438 93.199219 57.800781 C 89.332031 54.066406 82.265625 54.398438 72 58.800781 C 70.132812 59.601562 68.199219 60.332031 66.199219 61 L 63.601562 61.800781 L 61 61.199219 L 55.800781 45 C 55.398438 40.199219 57.601562 35.398438 62.398438 30.601562 C 67.066406 25.933594 74.800781 22.199219 85.601562 19.398438 C 113.464844 11.667969 128.066406 17.398438 129.398438 36.601562 C 139.800781 35.132812 146.800781 38.265625 150.398438 46 C 152.933594 51.199219 154.332031 61.667969 154.601562 77.398438 L 154.601562 77.601562 M 145.398438 52 C 142.867188 41.332031 136.332031 37.199219 125.800781 39.601562 L 123.601562 40 L 121.800781 39.601562 C 121.265625 28.667969 116.066406 22.066406 106.199219 19.800781 C 97.535156 17.933594 88.066406 19.667969 77.800781 25 C 67.800781 30.199219 62.734375 35.535156 62.601562 41 L 68.199219 57.601562 L 82.199219 52.199219 C 91.535156 49.667969 97.734375 50.734375 100.800781 55.398438 C 103.601562 59.535156 105.800781 64.199219 107.398438 69.398438 C 109.265625 75.535156 109.734375 80.667969 108.800781 84.800781 C 105.734375 94.132812 104.066406 100.933594 103.800781 105.199219 C 103.132812 112.132812 106 117.867188 112.398438 122.398438 L 123.601562 135.398438 C 127.734375 140.734375 132.398438 143.800781 137.601562 144.601562 L 156.398438 146.199219 C 164.132812 145.667969 168.867188 142.800781 170.601562 137.601562 C 171.667969 134.667969 173.667969 132.800781 176.601562 132 C 175.398438 124.800781 171.667969 119.933594 165.398438 117.398438 C 154.734375 112.867188 148.601562 109.800781 147 108.199219 C 143.933594 105.132812 142.933594 100.535156 144 94.398438 L 146.800781 79.398438 C 146.535156 63.933594 146.066406 54.800781 145.398438 52 "/>
<path style=" stroke:none;fill-rule:nonzero;fill:rgb(100%,100%,72.156863%);fill-opacity:1;" d="M 120.199219 34.398438 L 127.199219 30.601562 C 129.464844 31 130.933594 32.933594 131.601562 36.398438 C 132.265625 39.601562 132.132812 42.265625 131.199219 44.398438 L 126.199219 50.199219 C 124.066406 52.199219 123.398438 54.332031 124.199219 56.601562 L 127 66.800781 C 127.132812 71.464844 126.535156 77.332031 125.199219 84.398438 L 122.199219 102 C 121.667969 108.667969 121.867188 113.535156 122.800781 116.601562 L 129.601562 132 C 130.398438 133.601562 131.332031 134.535156 132.398438 134.800781 L 136.601562 135 L 142.800781 135.601562 L 148.800781 135.398438 L 156.800781 132.398438 C 160.132812 131.066406 162.867188 130.199219 165 129.800781 L 174 128.601562 L 183 126.800781 L 199.199219 125 C 205.199219 125.132812 210.601562 126.066406 215.398438 127.800781 C 222.867188 130.464844 228.867188 134.132812 233.398438 138.800781 C 237.535156 143.199219 239.601562 148.066406 239.601562 153.398438 C 239.464844 157 238.535156 162.800781 236.800781 170.800781 L 232 188.199219 L 226.601562 199.398438 C 224.199219 204.066406 222.933594 208 222.800781 211.199219 L 222.601562 235.800781 L 221.800781 260.398438 L 221.398438 266 C 221.132812 268.535156 220.464844 269.933594 219.398438 270.199219 L 215.398438 270.199219 L 208.601562 269.800781 L 203.199219 268.800781 L 201.601562 267 L 200.601562 262.398438 C 199.265625 252.398438 198.332031 239.066406 197.800781 222.398438 L 197.199219 210.398438 L 194.800781 198.601562 C 188.265625 203.132812 176.867188 204.398438 160.601562 202.398438 L 124 198.398438 C 123.734375 198.398438 123.667969 201.867188 123.800781 208.800781 L 124 220.601562 L 123.199219 226.199219 L 122.398438 232 L 123.199219 235.800781 L 122.601562 240.398438 C 122.332031 241.601562 122.265625 243.265625 122.398438 245.398438 L 122.601562 250.398438 L 122.199219 260.601562 L 122.398438 265.199219 C 121.867188 266.132812 120.933594 266.601562 119.601562 266.601562 L 116 266.199219 L 109.800781 266.199219 L 102.601562 267.398438 C 102.464844 263.667969 102.867188 258.265625 103.800781 251.199219 L 104.398438 243.199219 C 104.535156 239.867188 104.199219 237.265625 103.398438 235.398438 L 100.601562 231 L 100.601562 228.601562 L 102 226.601562 C 102.933594 224.734375 103.734375 219.535156 104.398438 211 C 105.066406 202.066406 104.800781 197.535156 103.601562 197.398438 L 95.800781 195.601562 C 94.601562 195.601562 94.132812 198.132812 94.398438 203.199219 C 94.800781 208.132812 94.132812 213.535156 92.398438 219.398438 L 86.800781 235 L 85.199219 248.199219 C 84.398438 254.867188 82.933594 258.734375 80.800781 259.800781 L 73 260.199219 L 65 259.199219 L 65.800781 247.199219 C 66.199219 242.265625 67 238.398438 68.199219 235.601562 L 70.398438 230.601562 C 70.933594 228.867188 70.800781 227.132812 70 225.398438 C 69.066406 223 68.734375 221.132812 69 219.800781 C 69.132812 218.734375 69.933594 216.933594 71.398438 214.398438 C 72.867188 211.867188 73.667969 209.066406 73.800781 206 L 73.601562 197.199219 L 72.800781 179.601562 C 72.535156 171.199219 73 165.535156 74.199219 162.601562 L 78.800781 150.800781 C 80.535156 146 82.464844 142.132812 84.601562 139.199219 L 87.800781 133.398438 C 88.867188 130.332031 88.464844 128.601562 86.601562 128.199219 L 69 125.199219 L 61.199219 122.199219 L 53.398438 119.601562 L 47.601562 120.601562 L 41.199219 120.398438 C 40.398438 120.398438 39 120.867188 37 121.800781 L 32.800781 122.601562 C 30.667969 122.066406 28.601562 120.066406 26.601562 116.601562 C 24.601562 112.867188 24.132812 109.800781 25.199219 107.398438 C 21.332031 107.132812 18.800781 104.601562 17.601562 99.800781 C 16.535156 95.132812 16.933594 91.535156 18.800781 89 C 19.464844 88.066406 21.265625 87.464844 24.199219 87.199219 L 30.199219 86 C 31.667969 85.066406 33.800781 84.265625 36.601562 83.601562 L 43.398438 81.800781 C 47.800781 80.332031 51.066406 77.398438 53.199219 73 C 54 71.265625 54.132812 69.066406 53.601562 66.398438 C 52.933594 63.066406 52.734375 60.667969 53 59.199219 C 53.535156 56.132812 55.601562 53.464844 59.199219 51.199219 L 68.800781 46.800781 C 72.265625 45.066406 75.933594 44 79.800781 43.601562 L 97.601562 42.199219 L 105.800781 42.199219 L 113.398438 40.800781 L 116.800781 37.601562 L 120.199219 34.398438 "/>
<path style=" stroke:none;fill-rule:nonzero;fill:rgb(92.156863%,81.960784%,5.882353%);fill-opacity:1;" d="M 131.398438 32.800781 C 135.265625 36 135.464844 40 132 44.800781 C 129.867188 47.734375 128.601562 51.265625 128.199219 55.398438 L 128 66.800781 L 126.398438 80.800781 L 124.199219 94.800781 C 121.800781 112.265625 123.933594 124.535156 130.601562 131.601562 C 134.066406 135.332031 139.535156 136.398438 147 134.800781 L 165 129.199219 C 194.734375 120.667969 217.734375 123.734375 234 138.398438 L 234.199219 138.398438 L 234.601562 138.800781 C 238.734375 144.398438 240.535156 151.066406 240 158.800781 C 239.734375 163.199219 238.132812 170.464844 235.199219 180.601562 L 228.601562 195.800781 C 225.535156 202.199219 223.933594 207.332031 223.800781 211.199219 L 223.601562 246.398438 C 224.535156 262.667969 223.132812 270.800781 219.398438 270.800781 L 206.601562 270.800781 C 202.601562 270 200.265625 267.332031 199.601562 262.800781 C 198.265625 252.398438 197.398438 241.199219 197 229.199219 C 196.601562 208.667969 194.734375 199.332031 191.398438 201.199219 C 186.332031 204 179.332031 205.132812 170.398438 204.601562 L 149 201.601562 L 138.800781 199.398438 L 159.800781 202.199219 C 174.464844 204.066406 186 202.667969 194.398438 198 L 195.800781 198.199219 C 197.265625 204.734375 198.199219 213.132812 198.601562 223.398438 L 200.199219 248.800781 L 200.800781 258 C 201.066406 261.734375 201.667969 264.667969 202.601562 266.800781 C 208.867188 270.667969 214.867188 269.667969 220.601562 263.800781 L 221.800781 239.398438 L 221.601562 222.199219 C 221.601562 215.667969 222.066406 210 223 205.199219 C 223.535156 203.066406 224.800781 200.199219 226.800781 196.601562 L 231 188 C 234.734375 176 236.933594 167.734375 237.601562 163.199219 C 238.933594 153.464844 237.265625 145.535156 232.601562 139.398438 C 223 130.734375 210.464844 126.265625 195 126 C 181.800781 125.734375 168.332031 128.398438 154.601562 134 L 143 136.800781 C 137.535156 137.464844 133.734375 137 131.601562 135.398438 C 128.265625 133.132812 125.464844 128.800781 123.199219 122.398438 C 121.199219 116.535156 120.398438 111.398438 120.800781 107 C 121.066406 103.933594 122 98.464844 123.601562 90.601562 L 125.800781 74 C 125.933594 71.066406 125.535156 67.464844 124.601562 63.199219 C 123.667969 58.535156 123.199219 55.132812 123.199219 53 C 123.199219 50.867188 124.601562 49.734375 127.398438 49.601562 C 130.199219 49.464844 131.398438 46.601562 131 41 C 130.464844 33.398438 127.734375 31.066406 122.800781 34 L 113.800781 41.199219 L 105.800781 42.800781 L 97.601562 42.800781 L 81.398438 44.398438 C 75.265625 45.332031 70 46.867188 65.601562 49 C 60.398438 51.398438 57.132812 56.734375 55.800781 65 C 54.332031 73.265625 51.667969 78.398438 47.800781 80.398438 C 42.464844 83.199219 36.667969 85.332031 30.398438 86.800781 C 25.066406 88.132812 21.398438 91.066406 19.398438 95.601562 C 17.132812 100.667969 19.199219 104.398438 25.601562 106.800781 C 26.265625 106.800781 26.398438 107 26 107.398438 C 24.933594 115.667969 28 119.933594 35.199219 120.199219 L 53.800781 119 C 64.066406 120.199219 75.199219 123.066406 87.199219 127.601562 C 90.398438 128.667969 90.332031 131.800781 87 137 C 77.933594 151.933594 73.535156 164.464844 73.800781 174.601562 L 75.398438 191.800781 C 76.066406 199.398438 75.734375 205.066406 74.398438 208.800781 C 73.332031 211.734375 72.667969 215.332031 72.398438 219.601562 L 71.398438 230.601562 L 70.199219 236.199219 L 69 233.800781 C 68.199219 231.265625 67.398438 235.667969 66.601562 247 C 65.398438 251.535156 66.132812 255.464844 68.800781 258.800781 C 75.332031 261.066406 80.398438 258.265625 84 250.398438 L 85.398438 237.800781 C 86.066406 234.199219 87.734375 229 90.398438 222.199219 C 91.601562 218.601562 92.265625 214.601562 92.398438 210.199219 L 93.398438 198.601562 C 93.667969 196.199219 95.132812 194.800781 97.800781 194.398438 C 100.332031 193.867188 102.601562 194.734375 104.601562 197 C 107.398438 200.199219 107.535156 206.398438 105 215.601562 C 102.464844 225.199219 102.199219 231.667969 104.199219 235 C 104.867188 236.066406 104.933594 242.132812 104.398438 253.199219 C 103.867188 262.265625 105.601562 266.398438 109.601562 265.601562 C 115.332031 264.265625 118.734375 263 119.800781 261.800781 C 121.132812 260.332031 121.734375 256.601562 121.601562 250.601562 L 122.398438 234.800781 L 123 219.199219 L 122.398438 208.800781 C 122.132812 204.535156 122.332031 201.066406 123 198.398438 L 124 197.601562 L 133 198.800781 C 127.265625 198.398438 124.464844 200.398438 124.601562 204.800781 C 125.265625 212 125.398438 217.199219 125 220.398438 L 123.800781 242.800781 L 123.199219 265.199219 L 122.800781 265.800781 L 112.800781 267.800781 L 102.398438 268.199219 L 101.601562 267.601562 L 102.199219 249.601562 C 102.066406 243.464844 101.199219 237.398438 99.601562 231.398438 C 99.332031 230.199219 99.601562 228.667969 100.398438 226.800781 L 102 222.601562 L 104 209 C 104.398438 201.933594 103 198.132812 99.800781 197.601562 C 96.601562 197.066406 95 198.265625 95 201.199219 C 95.667969 205.199219 95.800781 208.132812 95.398438 210 L 90.800781 225.601562 C 88.535156 232.265625 87.199219 237.535156 86.800781 241.398438 C 86.265625 248.464844 85.199219 253.933594 83.601562 257.800781 C 82.535156 260.464844 79.601562 261.667969 74.800781 261.398438 L 64.601562 259.800781 L 64 259.199219 C 64.667969 245.601562 66.132812 232 68.398438 218.398438 L 71.199219 206.199219 L 72.601562 193.800781 L 71.800781 174.800781 C 71.933594 168.535156 73.464844 161.933594 76.398438 155 L 85 136.800781 C 89 128.535156 73.066406 123.734375 37.199219 122.398438 L 29.800781 121.800781 L 24.800781 115 L 20.199219 107.601562 C 18.066406 104.132812 16.867188 101.601562 16.601562 100 C 16.199219 96.398438 16.199219 93.734375 16.601562 92 C 17.265625 89.867188 18.933594 88.132812 21.601562 86.800781 C 26.132812 84.667969 33 82.066406 42.199219 79 C 49 75.265625 52.265625 68.667969 52 59.199219 C 51.867188 54.667969 57.332031 50.332031 68.398438 46.199219 C 71.867188 44.867188 80.734375 43.601562 95 42.398438 C 106.332031 41.464844 114.464844 38.667969 119.398438 34 C 123.667969 30.132812 127.667969 29.734375 131.398438 32.800781 "/>
<path style=" stroke:none;fill-rule:nonzero;fill:rgb(0%,0%,0%);fill-opacity:1;" d="M 93 68.601562 C 93 70.867188 92.199219 72.867188 90.601562 74.601562 C 89 76.199219 87 77 84.601562 77 C 82.332031 77 80.332031 76.199219 78.601562 74.601562 C 77 72.867188 76.199219 70.867188 76.199219 68.601562 C 76.199219 66.332031 77 64.332031 78.601562 62.601562 C 80.332031 61 82.332031 60.199219 84.601562 60.199219 C 87 60.199219 89 61 90.601562 62.601562 C 92.199219 64.332031 93 66.332031 93 68.601562 "/>
<path style=" stroke:none;fill-rule:nonzero;fill:rgb(100%,100%,72.156863%);fill-opacity:1;" d="M 23.800781 107.199219 C 26.464844 106 30.066406 105 34.601562 104.199219 L 45.601562 101.800781 L 63.199219 100 L 23.800781 107.199219 "/>
<path style=" stroke:none;fill-rule:nonzero;fill:rgb(92.156863%,81.960784%,5.882353%);fill-opacity:1;" d="M 23 107.601562 C 22.734375 107.332031 22.867188 107.066406 23.398438 106.800781 C 35.667969 101.867188 49.066406 99.398438 63.601562 99.398438 C 64.535156 99.398438 64.332031 99.800781 63 100.601562 C 48.332031 100.867188 35.464844 103.265625 24.398438 107.800781 L 23 107.601562 "/>
<path style=" stroke:none;fill-rule:nonzero;fill:rgb(45.882353%,30.196078%,14.117647%);fill-opacity:1;" d="M 56 81.601562 C 60 87.332031 62.867188 92.867188 64.601562 98.199219 C 67 105.933594 67.535156 114.464844 66.199219 123.800781 C 57.800781 121.398438 53.199219 120.398438 52.398438 120.800781 C 54.265625 116.265625 55.066406 110 54.800781 102 C 54.667969 99.066406 53.398438 95.667969 51 91.800781 L 44.800781 82.601562 L 50 77.199219 C 51.332031 76.933594 52.535156 77.265625 53.601562 78.199219 L 56 81.601562 "/>
<path style=" stroke:none;fill-rule:nonzero;fill:rgb(38.039216%,22.352941%,9.019608%);fill-opacity:1;" d="M 50 78.199219 L 46.800781 81.398438 C 46.265625 82.066406 46.601562 83.332031 47.800781 85.199219 L 50.398438 88.800781 C 55.066406 96.398438 56.667969 104.398438 55.199219 112.800781 L 54 117.398438 C 53.601562 119 53.734375 119.867188 54.398438 120 L 63 121.800781 L 66.398438 122 L 65.800781 117.199219 C 65.933594 111.066406 65.199219 104.800781 63.601562 98.398438 C 61.199219 91.332031 58 85.332031 54 80.398438 C 52.535156 78.535156 51.199219 77.800781 50 78.199219 M 44 82.398438 C 47.601562 75.199219 51.933594 74.734375 57 81 C 60.066406 85 62.933594 90.601562 65.601562 97.800781 L 65.601562 98.199219 C 67.734375 106.066406 68.265625 114.535156 67.199219 123.601562 L 66.601562 124.398438 L 65.601562 124.398438 C 64 123.464844 61.800781 122.734375 59 122.199219 L 52.199219 121.398438 L 51.601562 121.398438 L 51.398438 120.601562 C 54.464844 111.800781 55.132812 104.800781 53.398438 99.601562 C 52.332031 96.398438 49.199219 90.867188 44 83 L 44 82.398438 "/>
<path style=" stroke:none;fill-rule:nonzero;fill:rgb(45.882353%,30.196078%,14.117647%);fill-opacity:1;" d="M 100 278 L 101.800781 268.199219 L 102.800781 262.800781 C 103.464844 260.933594 104.667969 259.933594 106.398438 259.800781 L 113 259 L 119 258.800781 L 121.800781 257.800781 C 122.601562 258.066406 123.132812 259.667969 123.398438 262.601562 L 123.601562 268.199219 L 124.398438 272.601562 C 124.667969 274.601562 124.464844 276 123.800781 276.800781 L 120.398438 277.398438 L 115.601562 277.800781 L 114.398438 278 L 107.800781 277.800781 L 100 278 "/>
<path style=" stroke:none;fill-rule:nonzero;fill:rgb(38.039216%,22.352941%,9.019608%);fill-opacity:1;" d="M 99 278 L 100.398438 268 C 101.066406 263.734375 102.535156 260.933594 104.800781 259.601562 L 114.800781 258.601562 L 118.601562 257.800781 L 122.800781 257.601562 C 123.867188 258.132812 124.535156 260.199219 124.800781 263.800781 L 125.199219 271.199219 C 125.734375 274.535156 125.066406 276.601562 123.199219 277.398438 L 115.601562 278.398438 L 115.398438 278.398438 L 110 278.601562 L 104.398438 278.601562 L 101.800781 278.800781 L 99.199219 278.398438 L 99 278 M 102.800781 267 L 102.199219 272.601562 L 100.800781 277.398438 L 115.800781 277.199219 L 116.199219 277.199219 L 120.800781 276.800781 C 122.535156 276.933594 123.464844 276.199219 123.601562 274.601562 L 123 270.601562 L 122.601562 264.800781 L 122.199219 261.199219 C 121.933594 259.332031 121.332031 258.535156 120.398438 258.800781 L 114.199219 259.601562 C 108.199219 259.601562 104.800781 260.398438 104 262 L 102.800781 267 "/>
<path style=" stroke:none;fill-rule:nonzero;fill:rgb(97.647059%,92.54902%,13.72549%);fill-opacity:1;" d="M 254.398438 168.800781 C 254.535156 163.332031 256.398438 161.066406 260 162 C 261.867188 162.398438 265.132812 164.332031 269.800781 167.800781 L 274.398438 172.199219 L 277.398438 176.800781 L 279.199219 178.398438 L 281 180.398438 L 277.199219 179.199219 L 278.800781 181.398438 L 280.199219 183.398438 L 277.601562 182.601562 L 273.601562 181.199219 L 275.601562 184.800781 L 277.800781 189.601562 L 271.398438 187.199219 C 273 190.398438 273.867188 192.734375 274 194.199219 L 270.199219 192.601562 L 272.398438 197.800781 L 274.199219 201 L 263.800781 191.398438 C 257.535156 184.734375 254.398438 177.800781 254.398438 170.601562 L 254.398438 168.800781 "/>
<path style="fill:none;stroke-width:1;stroke-linecap:butt;stroke-linejoin:miter;stroke:rgb(97.647059%,81.960784%,13.72549%);stroke-opacity:1;stroke-miterlimit:4;" d="M 63.599609 42.650391 C 63.599609 44.450195 64.383789 46.183594 65.950195 47.849609 L 68.549805 50.25 L 68.099609 49.450195 L 67.549805 48.150391 L 68.5 48.549805 C 68.466797 48.183594 68.25 47.599609 67.849609 46.799805 L 69.450195 47.400391 L 68.900391 46.200195 L 68.400391 45.299805 L 69.400391 45.650391 L 70.049805 45.849609 L 69.700195 45.349609 L 69.299805 44.799805 L 70.25 45.099609 L 69.799805 44.599609 L 69.349609 44.200195 L 68.599609 43.049805 L 67.450195 41.950195 C 66.283203 41.083008 65.466797 40.599609 65 40.5 C 64.099609 40.266602 63.633789 40.833008 63.599609 42.200195 Z M 63.599609 42.650391 " transform="matrix(4,0,0,4,0,0)"/>
<path style=" stroke:none;fill-rule:nonzero;fill:rgb(92.156863%,81.960784%,5.882353%);fill-opacity:1;" d="M 123.800781 41.800781 L 124.398438 42 C 124.132812 46.933594 123.667969 50 123 51.199219 L 121.199219 51.601562 L 122.398438 43 C 119.734375 43.800781 117.800781 44.734375 116.601562 45.800781 L 115.398438 46.199219 L 114.800781 45.800781 C 116.535156 44.332031 119.265625 43.066406 123 42 L 123.800781 41.800781 "/>
<path style=" stroke:none;fill-rule:nonzero;fill:rgb(45.882353%,30.196078%,14.117647%);fill-opacity:1;" d="M 81.800781 276.398438 C 65.535156 277.464844 54.933594 275.199219 50 269.601562 L 54.601562 265 L 58.800781 260 L 64.199219 255.398438 L 82.601562 258.398438 C 82.867188 266 82.601562 272 81.800781 276.398438 "/>
<path style=" stroke:none;fill-rule:nonzero;fill:rgb(38.039216%,22.352941%,9.019608%);fill-opacity:1;" d="M 83.601562 258.199219 C 83.867188 264.867188 83.535156 270.867188 82.601562 276.199219 L 81.398438 276.601562 L 81 276.800781 C 65.132812 277.734375 54.535156 275.464844 49.199219 270 L 49.199219 269.601562 L 56.601562 261.601562 L 63 255.800781 C 63.535156 255.265625 64.265625 255 65.199219 255 L 83.398438 258 L 83.601562 258.199219 M 80.199219 258.601562 L 64.601562 256 L 63 257.199219 C 59.667969 260 57.332031 262.332031 56 264.199219 L 52.398438 268.398438 C 51.332031 269.199219 51.398438 270.066406 52.601562 271 L 55.199219 272.601562 C 61.601562 275.535156 70.199219 276.734375 81 276.199219 L 81.601562 262.398438 L 81.800781 259.601562 C 81.667969 259.066406 81.132812 258.734375 80.199219 258.601562 "/>
<path style=" stroke:none;fill-rule:nonzero;fill:rgb(45.882353%,30.196078%,14.117647%);fill-opacity:1;" d="M 198.398438 280.800781 L 190.601562 278.601562 L 195.398438 272.601562 L 200.601562 267.199219 C 202.066406 266.132812 203.800781 265.535156 205.800781 265.398438 L 211.601562 265.199219 L 215.800781 265 L 219.601562 265.800781 L 221 267.398438 L 221 269.398438 L 221.800781 274.800781 L 222.800781 280.199219 L 218 279.398438 L 214.199219 280.398438 L 201.398438 281.398438 L 198.398438 280.800781 "/>
<path style=" stroke:none;fill-rule:nonzero;fill:rgb(38.039216%,22.352941%,9.019608%);fill-opacity:1;" d="M 189.800781 278.398438 L 194.601562 272.398438 L 200 266.800781 C 202.398438 265.332031 205.734375 264.601562 210 264.601562 L 216.199219 264.398438 C 218.464844 264.535156 220.265625 265.199219 221.601562 266.398438 C 222.398438 267.066406 222.667969 269.199219 222.398438 272.800781 L 223.800781 280 L 223.199219 280.800781 L 222.199219 280.800781 C 220.332031 280.265625 217.933594 280.265625 215 280.800781 L 207.601562 281.800781 L 197.800781 281.398438 L 193.601562 280.800781 C 191.464844 280.398438 190.199219 279.800781 189.800781 279 L 189.800781 278.398438 M 198.800781 280.199219 L 199 280.199219 L 218 278.800781 L 221.601562 279.199219 C 220.667969 275.332031 220.132812 272.132812 220 269.601562 C 219.734375 266.535156 215.464844 265.265625 207.199219 265.800781 C 204.132812 265.933594 201.332031 267.265625 198.800781 269.800781 L 192.800781 277.398438 C 192.132812 278.199219 192.867188 278.867188 195 279.398438 L 198.800781 280.199219 "/>
</g>
</svg>
