<?xml version="1.0" encoding="UTF-8"?>
<svg xmlns="http://www.w3.org/2000/svg" xmlns:xlink="http://www.w3.org/1999/xlink" width="292pt" height="252pt" viewBox="0 0 292 252" version="1.1">
<g id="surface1">
<path style=" stroke:none;fill-rule:nonzero;fill:rgb(0%,0%,0%);fill-opacity:1;" d="M 87.601562 2.199219 C 97.601562 5.800781 104.066406 15.332031 107 30.800781 L 111.398438 31.199219 C 122.734375 15.332031 135.464844 7.398438 149.601562 7.398438 L 151.601562 7.398438 C 164 8.066406 171.535156 17.066406 174.199219 34.398438 C 175.265625 40.800781 175.800781 49 175.800781 59 L 191.199219 60.398438 C 202 62 212.066406 65.265625 221.398438 70.199219 C 223.265625 63.132812 228.535156 58.867188 237.199219 57.398438 L 241.398438 57.199219 C 247.933594 57.199219 253.265625 59.398438 257.398438 63.800781 L 262.398438 60.398438 C 265.066406 58.933594 268.066406 58.199219 271.398438 58.199219 C 275.398438 58.199219 278.933594 59.332031 282 61.601562 C 285.199219 63.867188 287.265625 66.867188 288.199219 70.601562 C 289.132812 74.066406 288.867188 77.464844 287.398438 80.800781 C 285.933594 84 283.535156 86.667969 280.199219 88.800781 L 278.601562 91.800781 L 273 100.601562 C 268.867188 105.398438 263.066406 108.398438 255.601562 109.601562 L 255.601562 110.199219 C 257.601562 118.332031 258.867188 127.398438 259.398438 137.398438 L 260 164 L 260.800781 190.800781 C 261.464844 200.933594 259.066406 209.132812 253.601562 215.398438 C 249.867188 219.667969 244.332031 223.265625 237 226.199219 C 221.265625 232.066406 208.800781 235 199.601562 235 L 186.199219 233.199219 L 185.601562 233 L 178.398438 230.199219 C 175.464844 236.332031 170.332031 240.734375 163 243.398438 C 157.933594 245.265625 152.398438 246.601562 146.398438 247.398438 L 130.398438 248.398438 L 126.398438 248.601562 L 117 249 C 106.332031 249 98.265625 246.601562 92.800781 241.800781 C 88.398438 243.800781 83.132812 244.800781 77 244.800781 C 69.933594 244.800781 61.601562 243.535156 52 241 C 36.132812 237.132812 25.199219 229.734375 19.199219 218.800781 C 14.265625 209.066406 13.933594 198.464844 18.199219 187 L 21.601562 179.398438 L 26 168.800781 C 16.132812 162.667969 8.867188 152.867188 4.199219 139.398438 C 0.0664062 127.265625 -1.066406 115.398438 0.800781 103.800781 C 2.667969 92.199219 7.667969 80.265625 15.800781 68 C 17.398438 65.601562 20.800781 61.464844 26 55.601562 C 31.867188 49.199219 35.265625 44.601562 36.199219 41.800781 C 39.933594 30.734375 44.800781 21.332031 50.800781 13.601562 C 57.867188 4.535156 66.199219 0 75.800781 0 C 79.535156 0 83.464844 0.734375 87.601562 2.199219 "/>
<path style=" stroke:none;fill-rule:nonzero;fill:rgb(100%,100%,100%);fill-opacity:1;" d="M 84.800781 10.199219 C 92 12.867188 96.734375 20.933594 99 34.398438 L 99.800781 39.199219 L 105 39.199219 L 115.398438 40.398438 L 117.398438 37.398438 C 127.265625 23 138 15.800781 149.601562 15.800781 L 151.199219 16 C 155.867188 16.132812 159.398438 18.332031 161.800781 22.601562 C 163.535156 25.535156 164.867188 29.867188 165.800781 35.601562 C 166.867188 42.265625 167.398438 50.933594 167.398438 61.601562 L 167.199219 67.398438 L 173.199219 67.398438 L 190 68.800781 C 201.199219 70.398438 211.398438 74 220.601562 79.601562 L 229.199219 84.800781 L 229.199219 74.398438 C 229.199219 72.265625 230.066406 70.398438 231.800781 68.800781 C 233.398438 67.332031 235.601562 66.398438 238.398438 66 L 241.398438 65.601562 C 246.332031 65.601562 249.933594 67.398438 252.199219 71 L 256 76.800781 L 261 72 C 262.734375 70.265625 264.535156 68.933594 266.398438 68 C 267.867188 67.066406 269.535156 66.601562 271.398438 66.601562 C 273.398438 66.601562 275.199219 67.199219 276.800781 68.398438 L 279.800781 72.800781 C 280.867188 76.535156 279.398438 79.535156 275.398438 81.800781 L 274.601562 82.398438 L 273.800781 83.199219 L 271.199219 87.601562 L 266.601562 95 C 263.132812 98.867188 258.132812 101.066406 251.601562 101.601562 L 243.601562 102.199219 L 246.398438 109.398438 L 247.199219 111.199219 L 247.199219 111.398438 L 247.398438 111.800781 L 247.398438 112.199219 C 250.199219 124.199219 251.601562 141.464844 251.601562 164 C 251.601562 176.132812 251.800781 185.265625 252.199219 191.398438 C 252.734375 198.867188 251.332031 204.734375 248 209 C 245.199219 212.601562 240.535156 215.667969 234 218.199219 C 219.464844 223.667969 208 226.398438 199.601562 226.398438 L 188.601562 225 L 187.800781 224.800781 L 180.199219 221.601562 L 174 217.199219 L 171.601562 224.398438 C 169.867188 229.601562 166 233.265625 160 235.398438 C 152.800781 237.933594 142.867188 239.464844 130.199219 240 L 125.800781 240.199219 L 117 240.601562 C 107.667969 240.601562 101.199219 238.601562 97.601562 234.601562 L 94.601562 231.398438 L 90.601562 233.398438 L 90.199219 233.800781 C 86.734375 235.535156 82.332031 236.398438 77 236.398438 L 54.199219 232.800781 C 40.734375 229.601562 31.601562 223.601562 26.800781 214.800781 C 22.933594 207.332031 22.734375 199 26.199219 189.800781 L 29.199219 183 C 32.667969 175.933594 34.601562 171 35 168.199219 L 35.601562 164.398438 L 32 162.398438 C 23.199219 157.734375 16.601562 149.132812 12.199219 136.601562 C 8.464844 125.667969 7.464844 115.066406 9.199219 104.800781 C 10.933594 94.535156 15.535156 83.867188 23 72.800781 L 32.199219 61.398438 C 38.734375 54.332031 42.734375 48.667969 44.199219 44.398438 C 47.535156 34.398438 51.933594 25.867188 57.398438 18.800781 C 62.867188 12 69 8.601562 75.800781 8.601562 L 84.800781 10.199219 "/>
<path style=" stroke:none;fill-rule:nonzero;fill:rgb(83.921569%,47.058824%,41.960784%);fill-opacity:1;" d="M 246.398438 80.601562 L 243.601562 87.800781 C 246.132812 91.132812 249.265625 92.398438 253 91.601562 C 256.601562 90.535156 259.535156 87.933594 261.800781 83.800781 C 264.199219 79.132812 266.800781 76.066406 269.601562 74.601562 C 272.667969 74.199219 273.398438 74.398438 271.800781 75.199219 C 269.535156 76.398438 266.800781 79.867188 263.601562 85.601562 C 260.933594 90.398438 257.601562 93.132812 253.601562 93.800781 C 248.398438 94.734375 244.398438 93.667969 241.601562 90.601562 L 238.800781 93.199219 C 234.132812 96.933594 229.464844 99.867188 224.800781 102 C 218.132812 105.066406 212.867188 105.601562 209 103.601562 L 210.199219 102.601562 L 212.601562 102.199219 C 215.667969 103.667969 220.535156 102.667969 227.199219 99.199219 C 233.601562 95.734375 237.734375 92.265625 239.601562 88.800781 L 240 88.398438 C 237.867188 84.933594 236.867188 80.332031 237 74.601562 C 237 73.800781 237.734375 73.398438 239.199219 73.398438 C 245.332031 72.464844 247.734375 74.867188 246.398438 80.601562 M 241.800781 84.398438 L 243 80.199219 C 243.535156 77.132812 242.800781 75.332031 240.800781 74.800781 C 240.800781 78.933594 241.132812 82.132812 241.800781 84.398438 "/>
<path style=" stroke:none;fill-rule:nonzero;fill:rgb(92.54902%,67.058824%,67.843137%);fill-opacity:1;" d="M 203.601562 80.199219 C 211.464844 83.265625 218.601562 87.800781 225 93.800781 C 231.667969 100.332031 236 107.199219 238 114.398438 C 240.800781 124.265625 242.066406 137.398438 241.800781 153.800781 C 241.535156 173.132812 241.867188 186.132812 242.800781 192.800781 C 243.332031 196.667969 243.199219 199.800781 242.398438 202.199219 C 241.464844 205.265625 239.398438 207.601562 236.199219 209.199219 C 223.398438 215.867188 210.800781 218.933594 198.398438 218.398438 C 191.464844 218.132812 187.066406 216.398438 185.199219 213.199219 C 184 211.199219 183.132812 206.667969 182.601562 199.601562 L 173.199219 199 C 169.199219 199 166.464844 199.933594 165 201.800781 C 163.667969 203.265625 163.132812 206.398438 163.398438 211.199219 L 163.601562 221 C 162.667969 228.601562 153.667969 232.398438 136.601562 232.398438 L 120.601562 233 C 113.132812 233 108.332031 231.933594 106.199219 229.800781 C 104.464844 228.066406 103.601562 225.066406 103.601562 220.800781 L 103.800781 211.199219 L 103 189.800781 L 89.800781 189.398438 L 90 209.601562 L 90.398438 216.601562 L 90 223.398438 C 89.332031 226.734375 86.464844 228.464844 81.398438 228.601562 L 69.800781 227.199219 C 55.132812 226.132812 44.734375 222.601562 38.601562 216.601562 C 34.199219 212.199219 32.464844 206.398438 33.398438 199.199219 C 33.933594 194.667969 35.867188 188.601562 39.199219 181 L 44 170.199219 C 45.464844 165.265625 45.199219 161.535156 43.199219 159 C 42.667969 158.199219 41.398438 157.398438 39.398438 156.601562 L 35.199219 154.601562 C 32.800781 152.867188 30.332031 149.933594 27.800781 145.800781 C 17.535156 129.667969 14.867188 113.667969 19.800781 97.800781 C 23.667969 85.535156 32.867188 71.667969 47.398438 56.199219 C 50.066406 53.398438 52.398438 48.933594 54.398438 42.800781 C 56.535156 36.265625 58.601562 31.734375 60.601562 29.199219 C 63.667969 24.132812 66.132812 20.601562 68 18.601562 C 71.464844 15 75.332031 14.535156 79.601562 17.199219 C 83.066406 19.332031 85.933594 24.667969 88.199219 33.199219 C 89.667969 39.066406 90.667969 45.132812 91.199219 51.398438 C 91.332031 50.066406 93.265625 48.800781 97 47.601562 L 104.398438 46 C 107.199219 46.132812 110.464844 47.332031 114.199219 49.601562 L 123.398438 55 L 133.601562 58.199219 C 137.601562 59.398438 140.734375 61 143 63 L 151 70.199219 C 154.066406 73.398438 155.667969 76.332031 155.800781 79 C 155.667969 77.265625 159.535156 75.933594 167.398438 75 L 180.800781 75.800781 C 188.398438 75.800781 196 77.265625 203.601562 80.199219 "/>
<path style=" stroke:none;fill-rule:nonzero;fill:rgb(83.921569%,47.058824%,41.960784%);fill-opacity:1;" d="M 177.601562 73.398438 L 199.199219 77.199219 C 208.398438 79.464844 216.734375 83.933594 224.199219 90.601562 C 231.398438 97.132812 236.667969 104.867188 240 113.800781 L 240.199219 114.199219 C 241.933594 122.199219 242.933594 131.535156 243.199219 142.199219 L 243.398438 171 L 245 188.800781 C 245.398438 196 244.464844 201.734375 242.199219 206 C 238.867188 212.132812 230.601562 216.265625 217.398438 218.398438 C 205.535156 220.265625 195.867188 220.066406 188.398438 217.800781 C 184.265625 216.734375 181.933594 213.398438 181.398438 207.800781 C 181.132812 204.464844 178.601562 201.332031 173.800781 198.398438 L 183.398438 198.601562 L 184.601562 199 C 185.132812 207.933594 188.265625 213.734375 194 216.398438 L 217.800781 215.398438 C 227 212.601562 233.199219 208.066406 236.398438 201.800781 C 238.800781 197 239.933594 189.464844 239.800781 179.199219 L 239.601562 147 C 239.332031 134.464844 238.132812 123.734375 236 114.800781 C 233.601562 108 229.933594 101.933594 225 96.601562 C 219.933594 90.867188 214.132812 86.535156 207.601562 83.601562 C 200.398438 80.265625 192.066406 77.800781 182.601562 76.199219 C 169.933594 73.933594 161.601562 74.867188 157.601562 79 L 155.601562 80 C 154.535156 80.398438 153.933594 80.265625 153.800781 79.601562 C 151.667969 72.667969 142.332031 64.734375 125.800781 55.800781 C 108.601562 46.601562 97.667969 45.132812 93 51.398438 L 91 52.398438 C 89.933594 52.800781 89.332031 52.667969 89.199219 52 L 87.199219 35.199219 C 85.734375 27.867188 83.464844 22.800781 80.398438 20 C 74.667969 14.933594 68.734375 18.066406 62.601562 29.398438 C 59.398438 35.265625 56.132812 42.464844 52.800781 51 L 25.800781 88.800781 C 17.667969 104.265625 16.867188 119.066406 23.398438 133.199219 C 26.199219 139.066406 29.132812 143.867188 32.199219 147.601562 C 35.398438 151.332031 39.601562 154.800781 44.800781 158 C 45.601562 158.535156 46.265625 160.066406 46.800781 162.601562 C 48 165.535156 47 170.265625 43.800781 176.800781 L 37.199219 190.800781 C 34.132812 202.398438 36.265625 211.132812 43.601562 217 C 49.199219 221.535156 58.332031 224.601562 71 226.199219 C 80.464844 227.398438 86.066406 223.199219 87.800781 213.601562 L 87.800781 189.800781 L 88.800781 188.601562 L 90.601562 188.398438 L 103.800781 188.800781 L 105 189.199219 L 105.601562 215.199219 C 105.464844 221.332031 106.535156 225.667969 108.800781 228.199219 C 111.199219 230.867188 115.398438 232.132812 121.398438 232 L 146.800781 230.199219 C 156.933594 227.667969 161.800781 222.199219 161.398438 213.800781 C 161.265625 206.734375 163 202.199219 166.601562 200.199219 C 166.066406 201.265625 165.734375 202.734375 165.601562 204.601562 C 165.332031 206.734375 165.265625 209.398438 165.398438 212.601562 L 165.601562 220.601562 C 165.464844 224.066406 163.265625 226.933594 159 229.199219 C 155.933594 230.933594 152.332031 232.066406 148.199219 232.601562 L 127.199219 235.199219 C 117.867188 235.734375 111.132812 234.734375 107 232.199219 C 103 229.667969 101.199219 225.933594 101.601562 221 L 101 197.601562 C 101 193.464844 100.734375 191.199219 100.199219 190.800781 L 94.199219 190.601562 C 92.199219 190.464844 91.535156 196 92.199219 207.199219 C 92.867188 219.199219 90.933594 226.332031 86.398438 228.601562 L 69 229.398438 L 51.800781 225.398438 C 42.199219 223 36.066406 218 33.398438 210.398438 C 30.734375 203.464844 31.332031 195.398438 35.199219 186.199219 L 41.800781 169.601562 C 42.867188 163.332031 40.132812 158.601562 33.601562 155.398438 C 30.933594 154.199219 28.132812 151.066406 25.199219 146 C 22.800781 142 20.933594 138.066406 19.601562 134.199219 C 12.398438 113.667969 15.734375 94 29.601562 75.199219 L 42.800781 58.601562 C 47.601562 52.199219 51.132812 46.066406 53.398438 40.199219 C 55.667969 34.199219 60 27 66.398438 18.601562 C 68.398438 15.933594 71.332031 14.535156 75.199219 14.398438 C 79.066406 14.398438 82 15.800781 84 18.601562 C 87.734375 24.332031 90.265625 31.332031 91.601562 39.601562 L 91 47.398438 C 90.734375 48.867188 91.800781 49 94.199219 47.800781 L 110 47 L 125 54.199219 C 130.066406 55.800781 136.867188 59.132812 145.398438 64.199219 C 156.199219 70.464844 159.867188 74.734375 156.398438 77 C 161.332031 73.933594 168.398438 72.734375 177.601562 73.398438 M 166.601562 200.199219 C 167.800781 196.734375 170.199219 196.132812 173.800781 198.398438 L 167 199.800781 L 166.601562 200.199219 "/>
<path style=" stroke:none;fill-rule:nonzero;fill:rgb(92.54902%,67.058824%,67.843137%);fill-opacity:1;" d="M 157.601562 74.199219 L 114 61 L 120.199219 49.601562 C 122.734375 45.066406 125.199219 41.398438 127.601562 38.601562 C 135.734375 29.398438 142.332031 24.601562 147.398438 24.199219 C 150.464844 23.933594 152.734375 25.464844 154.199219 28.800781 L 156.398438 37.601562 C 157.332031 42.535156 157.800781 48.601562 157.800781 55.800781 L 157.601562 74.199219 "/>
<path style=" stroke:none;fill-rule:nonzero;fill:rgb(83.921569%,47.058824%,41.960784%);fill-opacity:1;" d="M 155.398438 27 C 156.464844 28.734375 157.332031 31.464844 158 35.199219 L 159.601562 54.398438 L 159.601562 73.800781 C 159.601562 74.601562 158.265625 74.933594 155.601562 74.800781 L 156.398438 52.199219 C 156.265625 42.867188 155 35.535156 152.601562 30.199219 C 150.066406 24.601562 145.265625 24.535156 138.199219 30 C 132.867188 34.132812 128.667969 38.667969 125.601562 43.601562 L 116 60.601562 L 112.199219 61.199219 C 119.535156 48.265625 124.199219 40.464844 126.199219 37.800781 C 133.132812 28.734375 140.464844 23.933594 148.199219 23.398438 C 151.398438 23.265625 153.800781 24.464844 155.398438 27 "/>
<path style=" stroke:none;fill-rule:nonzero;fill:rgb(92.54902%,67.058824%,67.843137%);fill-opacity:1;" d="M 145.601562 159.800781 C 140.800781 162.601562 133.132812 165.332031 122.601562 168 L 152.800781 68 C 166 79.734375 173.265625 91.464844 174.601562 103.199219 C 175.667969 113.734375 173.535156 124.332031 168.199219 135 C 162.734375 145.933594 155.199219 154.199219 145.601562 159.800781 "/>
<path style=" stroke:none;fill-rule:nonzero;fill:rgb(83.921569%,47.058824%,41.960784%);fill-opacity:1;" d="M 152.199219 67.601562 L 154.601562 67.398438 C 165.132812 77.132812 171.933594 87.464844 175 98.398438 C 178.332031 110.800781 176.667969 122.933594 170 134.800781 C 164.800781 144.265625 158.199219 151.734375 150.199219 157.199219 C 143.265625 162 134.199219 165.867188 123 168.800781 L 121 168.398438 C 120.867188 167.867188 121.332031 167.464844 122.398438 167.199219 C 135.464844 163.734375 146.199219 158.265625 154.601562 150.800781 C 164.199219 142.132812 169.933594 131.734375 171.800781 119.601562 C 173.265625 109.332031 172.132812 100 168.398438 91.601562 C 165.066406 84.132812 159.265625 76.535156 151 68.800781 C 150.601562 68.398438 151 68 152.199219 67.601562 "/>
<path style=" stroke:none;fill-rule:nonzero;fill:rgb(87.058824%,47.843137%,47.058824%);fill-opacity:1;" d="M 101 158.800781 L 108.398438 159.800781 L 101 164.800781 L 97.199219 167.199219 L 92.800781 168 C 90.667969 167.601562 87.464844 165.867188 83.199219 162.800781 C 79.601562 160.265625 76.398438 158.933594 73.601562 158.800781 L 93.398438 159 L 101 158.800781 "/>
<path style=" stroke:none;fill-rule:nonzero;fill:rgb(92.54902%,67.058824%,67.843137%);fill-opacity:1;" d="M 60.398438 114.398438 C 73.199219 109.734375 85.800781 108.867188 98.199219 111.800781 C 109.398438 114.601562 118.464844 118.933594 125.398438 124.800781 C 134.464844 132.535156 136.398438 141 131.199219 150.199219 C 127.332031 156.734375 118.398438 159.734375 104.398438 159.199219 C 100.800781 158.933594 95.734375 158.867188 89.199219 159 L 74 159 C 67.066406 158.601562 60.933594 157.132812 55.601562 154.601562 C 49.199219 151.535156 45.199219 147.132812 43.601562 141.398438 C 40 129 45.601562 120 60.398438 114.398438 "/>
<path style=" stroke:none;fill-rule:nonzero;fill:rgb(83.921569%,47.058824%,41.960784%);fill-opacity:1;" d="M 41.800781 141.800781 L 41.800781 141.601562 C 37.667969 122.398438 48.667969 112 74.800781 110.398438 C 85.199219 109.734375 95.667969 110.867188 106.199219 113.800781 C 116.734375 116.734375 124.265625 120.601562 128.800781 125.398438 C 135.867188 133 137.332031 140.667969 133.199219 148.398438 C 129.199219 155.867188 122.199219 159.734375 112.199219 160 C 89.398438 160.667969 76.398438 160.800781 73.199219 160.398438 C 56.800781 158.667969 46.398438 152.535156 42 142 L 41.800781 141.800781 M 99.199219 158.199219 C 108.535156 158.066406 116.464844 156.464844 123 153.398438 C 131.933594 149.265625 134.667969 143.332031 131.199219 135.601562 C 128.265625 129.464844 124.066406 124.867188 118.601562 121.800781 C 105.398438 114.066406 89.734375 110.933594 71.601562 112.398438 C 50.535156 114 41.867188 123.464844 45.601562 140.800781 C 49.332031 149.867188 57.066406 155.398438 68.800781 157.398438 L 99.199219 158.199219 "/>
<path style=" stroke:none;fill-rule:nonzero;fill:rgb(83.921569%,47.058824%,41.960784%);fill-opacity:1;" d="M 69.601562 140.398438 C 64.800781 138.800781 62.464844 136.265625 62.601562 132.800781 C 62.734375 129.066406 65 127 69.398438 126.601562 C 73.535156 126.066406 77 126.933594 79.800781 129.199219 C 82.734375 131.867188 82.867188 135 80.199219 138.601562 C 78.066406 141.535156 74.535156 142.132812 69.601562 140.398438 "/>
<path style=" stroke:none;fill-rule:nonzero;fill:rgb(83.921569%,47.058824%,41.960784%);fill-opacity:1;" d="M 107.601562 130.398438 C 110 130.667969 111.933594 131.601562 113.398438 133.199219 C 114.867188 134.800781 115.667969 136.535156 115.800781 138.398438 C 115.933594 140.535156 115.132812 142.199219 113.398438 143.398438 L 110.199219 144.601562 L 105.398438 144.199219 C 102.867188 143.667969 100.933594 142.800781 99.601562 141.601562 C 98 140 97.332031 138.265625 97.601562 136.398438 C 98 134.535156 99.132812 133 101 131.800781 C 102.867188 130.464844 105.066406 130 107.601562 130.398438 "/>
<path style=" stroke:none;fill-rule:nonzero;fill:rgb(83.921569%,47.058824%,41.960784%);fill-opacity:1;" d="M 113.601562 91.800781 C 113.601562 93.667969 112.933594 95.199219 111.601562 96.398438 C 110.398438 97.734375 108.867188 98.398438 107 98.398438 C 105.265625 98.398438 103.734375 97.734375 102.398438 96.398438 C 101.199219 95.199219 100.601562 93.667969 100.601562 91.800781 C 100.601562 90.066406 101.199219 88.535156 102.398438 87.199219 C 103.734375 86 105.265625 85.398438 107 85.398438 C 108.867188 85.398438 110.398438 86 111.601562 87.199219 C 112.933594 88.535156 113.601562 90.066406 113.601562 91.800781 "/>
<path style=" stroke:none;fill-rule:nonzero;fill:rgb(83.921569%,47.058824%,41.960784%);fill-opacity:1;" d="M 94.199219 88.601562 C 94.199219 90.464844 93.535156 92 92.199219 93.199219 C 91 94.535156 89.464844 95.199219 87.601562 95.199219 C 85.867188 95.199219 84.332031 94.535156 83 93.199219 C 81.800781 92 81.199219 90.464844 81.199219 88.601562 C 81.199219 86.867188 81.800781 85.332031 83 84 C 84.332031 82.800781 85.867188 82.199219 87.601562 82.199219 C 89.464844 82.199219 91 82.800781 92.199219 84 C 93.535156 85.332031 94.199219 86.867188 94.199219 88.601562 "/>
</g>
</svg>
