<?xml version="1.0" encoding="UTF-8"?>
<svg xmlns="http://www.w3.org/2000/svg" xmlns:xlink="http://www.w3.org/1999/xlink" width="1924pt" height="1292pt" viewBox="0 0 1924 1292" version="1.1">
<g id="surface1">
<path style=" stroke:none;fill-rule:nonzero;fill:rgb(54.509804%,38.823529%,22.352941%);fill-opacity:1;" d="M 593.199219 26.199219 L 593.199219 1282 L 414 1282 L 414 26.199219 L 593.199219 26.199219 "/>
<path style=" stroke:none;fill-rule:nonzero;fill:rgb(37.647059%,21.960784%,7.45098%);fill-opacity:1;" d="M 412.800781 25.199219 L 416.601562 24.601562 L 595.601562 24.601562 L 597 25.199219 L 597 1281 C 597 1282.066406 595.734375 1282.800781 593.199219 1283.199219 L 590.800781 1283.601562 L 411.601562 1283.601562 C 410.667969 1283.601562 410.199219 1283.398438 410.199219 1283 L 410.199219 27.199219 C 410.199219 26.398438 411.066406 25.734375 412.800781 25.199219 M 589.601562 27.398438 L 586.601562 27.800781 L 418 27.800781 L 418 1279.800781 L 417.800781 1280.800781 L 420.601562 1280.398438 L 589.199219 1280.398438 L 589.199219 28.398438 L 589.601562 27.398438 "/>
<path style=" stroke:none;fill-rule:nonzero;fill:rgb(50.980392%,34.901961%,18.039216%);fill-opacity:1;" d="M 526.800781 239 C 527.332031 257.265625 530.867188 279.332031 537.398438 305.199219 C 541.398438 321.199219 547.933594 344.132812 557 374 C 565.535156 356.933594 570.398438 330.601562 571.601562 295 L 571 212.800781 L 575 284.398438 C 576.464844 312.535156 577.199219 336.332031 577.199219 355.800781 C 577.199219 386.199219 576.066406 426.535156 573.800781 476.800781 L 569 599.398438 L 567.199219 716.800781 C 565.734375 764.667969 561.667969 803.332031 555 832.800781 C 552.066406 828 547.199219 816.734375 540.398438 799 C 534.667969 784.066406 528.800781 773.199219 522.800781 766.398438 L 523.398438 796.398438 C 523.398438 807.734375 522.535156 817.199219 520.800781 824.800781 C 514.933594 804.265625 508.199219 789.535156 500.601562 780.601562 L 495.800781 847 C 494.199219 867.535156 493.199219 885.132812 492.800781 899.800781 C 492.535156 818.066406 491.800781 756.867188 490.601562 716.199219 C 487.933594 631.132812 486.601562 547.933594 486.601562 466.601562 C 486.601562 446.601562 485 413.066406 481.800781 366 C 478.867188 323.199219 477.734375 290.265625 478.398438 267.199219 C 482.800781 278.398438 489.199219 303.066406 497.601562 341.199219 C 504.535156 372.535156 512.933594 396.199219 522.800781 412.199219 C 528.535156 390.734375 530.933594 361.734375 530 325.199219 C 528 286.667969 526.933594 257.933594 526.800781 239 "/>
<path style=" stroke:none;fill-rule:nonzero;fill:rgb(54.509804%,38.823529%,22.352941%);fill-opacity:1;" d="M 772.199219 26.199219 L 772.199219 1282 L 593.199219 1282 L 593.199219 26.199219 L 772.199219 26.199219 "/>
<path style=" stroke:none;fill-rule:nonzero;fill:rgb(37.647059%,21.960784%,7.45098%);fill-opacity:1;" d="M 776 26 L 776 1281.601562 L 774 1284.199219 L 772.199219 1284.601562 L 592.800781 1284.601562 C 590.398438 1284.601562 589.199219 1283.800781 589.199219 1282.199219 L 589.199219 26.601562 L 590.800781 24.398438 L 593.398438 23.601562 L 772.601562 23.601562 C 774.867188 23.601562 776 24.398438 776 26 M 597 29 L 597 1279.199219 L 768.199219 1279.199219 L 768.199219 29 L 597 29 "/>
<path style=" stroke:none;fill-rule:nonzero;fill:rgb(50.980392%,34.901961%,18.039216%);fill-opacity:1;" d="M 611.199219 1023 C 611.332031 1020.734375 613.535156 1013.867188 617.800781 1002.398438 C 622.332031 990.265625 625.132812 985.332031 626.199219 987.601562 C 638.332031 1013.867188 646.667969 1056.933594 651.199219 1116.800781 C 650.398438 1053.332031 659.265625 1003.066406 677.800781 966 C 689.265625 994.398438 696.199219 1037.265625 698.601562 1094.601562 L 699.199219 1227.199219 C 697.464844 1227.199219 693.933594 1223.667969 688.601562 1216.601562 L 685.601562 1222 C 684.265625 1224.535156 682.601562 1226.265625 680.601562 1227.199219 L 671.800781 1202.601562 C 668.066406 1193.535156 663.867188 1186.667969 659.199219 1182 C 656.800781 1196.800781 649.667969 1210.132812 637.800781 1222 C 633.535156 1170.933594 626.199219 1125.132812 615.800781 1084.601562 C 610.601562 1063.265625 609.066406 1042.734375 611.199219 1023 "/>
<path style=" stroke:none;fill-rule:nonzero;fill:rgb(50.980392%,34.901961%,18.039216%);fill-opacity:1;" d="M 639.601562 232.199219 C 642.667969 238.734375 645.667969 244.199219 648.601562 248.601562 C 648.601562 223.667969 649.464844 204.132812 651.199219 190 C 654.132812 196.933594 659.265625 214.066406 666.601562 241.398438 C 672.332031 262.734375 678.734375 278.464844 685.800781 288.601562 C 688.464844 277 690.933594 260.464844 693.199219 239 L 699.601562 183.601562 C 705.601562 138.535156 716.132812 106.867188 731.199219 88.601562 C 738.265625 121.132812 741.800781 165.265625 741.800781 221 C 741.933594 290.867188 742.867188 335.601562 744.601562 355.199219 C 741.398438 340.398438 736.066406 328 728.601562 318 C 720.332031 350.800781 708.734375 404.132812 693.800781 478 C 690.332031 470.933594 685.933594 459.800781 680.601562 444.601562 C 675.265625 429.535156 670.800781 418.398438 667.199219 411.199219 C 666.132812 438.800781 667.464844 471.265625 671.199219 508.601562 L 683.199219 606 C 685.066406 626.398438 689.867188 660.066406 697.601562 707 C 702.800781 748.867188 701.535156 781.867188 693.800781 806 C 691 800.535156 688.332031 791.535156 685.800781 779 C 683 765.667969 680.332031 756 677.800781 750 C 675.800781 756.132812 674.601562 764.601562 674.199219 775.398438 L 672.601562 800.601562 C 667.398438 791.265625 662.132812 777.265625 656.800781 758.601562 L 643.199219 712.601562 L 642.398438 725.199219 L 638 637.199219 L 630.601562 561.199219 C 627.667969 530.265625 627.332031 505 629.601562 485.398438 C 632.933594 457.132812 633.066406 412 630 350 C 627.066406 290.800781 627.933594 245.464844 632.601562 214 C 633.800781 219.066406 636.132812 225.132812 639.601562 232.199219 M 642.199219 756.601562 C 641.933594 744.867188 642 734.398438 642.398438 725.199219 C 643.332031 753.867188 643.601562 779 643.199219 800.601562 L 642.199219 756.601562 "/>
<path style=" stroke:none;fill-rule:nonzero;fill:rgb(54.509804%,38.823529%,22.352941%);fill-opacity:1;" d="M 235 26.199219 L 235 1282 L 56 1282 L 56 26.199219 L 235 26.199219 "/>
<path style=" stroke:none;fill-rule:nonzero;fill:rgb(37.647059%,21.960784%,7.45098%);fill-opacity:1;" d="M 239 25.199219 L 239 1281 C 239 1282.199219 237.734375 1283.066406 235.199219 1283.601562 L 232 1283.800781 L 54.398438 1283.800781 C 52.933594 1283.800781 52.199219 1283.535156 52.199219 1283 L 52.199219 27.199219 C 52.199219 26.265625 52.933594 25.535156 54.398438 25 L 57.601562 24.398438 L 236.601562 24.398438 C 238.199219 24.398438 239 24.667969 239 25.199219 M 231.199219 28 L 59.800781 28 L 59.800781 1280.199219 L 231.199219 1280.199219 L 231.199219 28 "/>
<path style=" stroke:none;fill-rule:nonzero;fill:rgb(50.980392%,34.901961%,18.039216%);fill-opacity:1;" d="M 162.800781 422.601562 C 170.265625 443.132812 175.265625 461.199219 177.800781 476.800781 C 177.933594 453.734375 178.800781 428.066406 180.398438 399.800781 L 185.199219 333.601562 C 185.066406 348 188.332031 366.734375 195 389.800781 C 204.601562 423 209.601562 445.800781 210 458.199219 C 210.800781 495.398438 210.800781 523.265625 210 541.800781 C 209.066406 558.601562 201.933594 586.800781 188.601562 626.398438 C 176.867188 661.332031 172.199219 689.667969 174.601562 711.398438 C 183.398438 791.535156 187.199219 864.398438 186 930 C 183.332031 915.332031 178 894 170 866 C 162 838 156.667969 816.667969 154 802 C 150.667969 825.332031 149 854 149 888 L 150 974 C 119.332031 907.601562 101.667969 819.800781 97 710.601562 C 95.398438 673.535156 95.066406 626.867188 96 570.601562 L 98 438 C 101.601562 457.464844 108.132812 485.867188 117.601562 523.199219 L 116 500.398438 C 113.464844 442.933594 121.199219 400.132812 139.199219 372 C 147.332031 384.933594 155.199219 401.800781 162.800781 422.601562 "/>
<path style=" stroke:none;fill-rule:nonzero;fill:rgb(54.509804%,38.823529%,22.352941%);fill-opacity:1;" d="M 414 26.199219 L 414 1282 L 235 1282 L 235 26.199219 L 414 26.199219 "/>
<path style=" stroke:none;fill-rule:nonzero;fill:rgb(37.647059%,21.960784%,7.45098%);fill-opacity:1;" d="M 233.398438 25 L 236.601562 24.398438 L 415.601562 24.398438 C 417.199219 24.398438 418 24.667969 418 25.199219 L 418 1281 C 418 1282.199219 416.734375 1283.066406 414.199219 1283.601562 L 411 1283.800781 L 233.398438 1283.800781 C 231.933594 1283.800781 231.199219 1283.535156 231.199219 1283 L 231.199219 27.199219 C 231.199219 26.265625 231.933594 25.535156 233.398438 25 M 408.601562 28.199219 L 239 28.199219 L 239 1280 L 410.199219 1280 L 410.199219 28.199219 L 408.601562 28.199219 "/>
<path style=" stroke:none;fill-rule:nonzero;fill:rgb(50.980392%,34.901961%,18.039216%);fill-opacity:1;" d="M 390 537.398438 L 389 577.199219 L 390.601562 677.800781 C 391.132812 718.332031 390.601562 751.933594 389 778.601562 C 385.535156 771.667969 380.535156 756.066406 374 731.800781 C 368.667969 711.667969 362.265625 697.066406 354.800781 688 C 344 701.464844 334.601562 719.464844 326.601562 742 C 321.265625 756.667969 316.066406 775.464844 311 798.398438 C 313.800781 783.601562 313.464844 762.933594 310 736.398438 L 301.601562 671.398438 L 298.601562 616.800781 C 298.464844 594 300.867188 576.332031 305.800781 563.800781 C 310.734375 569.800781 315.199219 578.933594 319.199219 591.199219 C 323.066406 603.066406 324.933594 612.601562 324.800781 619.800781 C 325.199219 614.199219 328.535156 598.800781 334.800781 573.601562 C 340 552.132812 340.800781 537.601562 337.199219 530 C 341.199219 537.601562 344.199219 551.933594 346.199219 573 C 348.199219 593.398438 352.398438 607.535156 358.800781 615.398438 C 360.800781 589.265625 362.867188 568.667969 365 553.601562 C 369 525.867188 375.667969 508.265625 385 500.800781 C 388.332031 509.199219 390 521.398438 390 537.398438 "/>
<path style=" stroke:none;fill-rule:nonzero;fill:rgb(50.980392%,34.901961%,18.039216%);fill-opacity:1;" d="M 281.398438 87 C 283.398438 114.066406 283.132812 154.332031 280.601562 207.800781 C 280.332031 255.265625 286.667969 294 299.601562 324 C 302 319.199219 303.535156 311.667969 304.199219 301.398438 L 305.601562 277.398438 L 314.398438 304.601562 C 318 315.933594 321.867188 324.398438 326 330 C 330.535156 313.867188 333.265625 291.933594 334.199219 264.199219 C 335.398438 229.933594 336.667969 208 338 198.398438 C 341.734375 207.601562 343.933594 224.867188 344.601562 250.199219 C 345.265625 273.800781 348.464844 291 354.199219 301.800781 C 362.734375 258.199219 368.601562 225 371.800781 202.199219 C 375.535156 176.066406 377.800781 152.199219 378.601562 130.601562 C 377.933594 222.867188 374.464844 328.601562 368.199219 447.800781 C 359.667969 447.132812 351.066406 444.601562 342.398438 440.199219 L 337.601562 424.800781 C 335.464844 418.667969 334.265625 413.535156 334 409.398438 C 334 427.667969 332.199219 454.867188 328.601562 491 C 325 526.734375 323.199219 553.800781 323.199219 572.199219 C 322.800781 569 322.332031 560.800781 321.800781 547.601562 C 321.265625 537.332031 320.132812 529.332031 318.398438 523.601562 C 317.464844 550.398438 309.464844 577.601562 294.398438 605.199219 L 295 561.601562 C 295.398438 543.601562 294.132812 529.332031 291.199219 518.800781 L 283.398438 553.601562 C 280.199219 567.867188 278.332031 579.601562 277.800781 588.800781 C 278.332031 533.601562 279.199219 488.601562 280.398438 453.800781 L 282.199219 425 C 283 413.667969 283.066406 404.132812 282.398438 396.398438 C 282 391.332031 280 382.867188 276.398438 371 C 272.933594 359.933594 271.199219 351.734375 271.199219 346.398438 L 270.199219 353.398438 L 269.199219 360.199219 C 269.199219 340.066406 268.132812 316.464844 266 289.398438 L 260.199219 219.199219 C 257.800781 187.601562 257.132812 164.265625 258.199219 149.199219 C 259.933594 121.601562 266.332031 99.535156 277.398438 83 L 281.398438 87 "/>
<path style=" stroke:none;fill-rule:nonzero;fill:rgb(37.647059%,21.960784%,7.45098%);fill-opacity:1;" d="M 215.800781 85 L 213 79.199219 L 225.199219 78.601562 L 237.199219 79 L 244.199219 77.199219 C 247.132812 76.535156 249.332031 77.535156 250.800781 80.199219 L 244.800781 99.199219 L 241.601562 113 C 241.066406 117.265625 240.734375 124.066406 240.601562 133.398438 C 240.332031 171.398438 240.601562 228.132812 241.398438 303.601562 L 241.398438 750 L 241.199219 830.601562 C 241.066406 862.867188 241.132812 889.667969 241.398438 911 C 241.667969 938.332031 242.601562 957.199219 244.199219 967.601562 C 245.933594 978.667969 247.601562 986.066406 249.199219 989.800781 L 251.601562 994.398438 L 253.800781 999.800781 C 256.332031 1006.734375 257.464844 1011.464844 257.199219 1014 C 256.933594 1015.601562 256.332031 1016.667969 255.398438 1017.199219 L 253.601562 1017.800781 L 245.398438 1018.800781 L 237.199219 1018 L 234.199219 1018.398438 L 231 1018.601562 L 227.398438 1017.398438 L 223.800781 1016.398438 L 219.601562 1017.398438 C 217.601562 1017.398438 216.332031 1016.265625 215.800781 1014 C 215 1010.800781 215.398438 1007.601562 217 1004.398438 L 220.398438 999 C 222.800781 995.933594 224.601562 987.601562 225.800781 974 L 228 935.199219 L 228.800781 890 L 228.601562 843.398438 L 228.800781 401.800781 L 229.601562 360.199219 L 230.199219 318.398438 L 229.398438 147.800781 L 229.199219 118.800781 C 228.800781 109.066406 227.734375 101.734375 226 96.800781 C 225.199219 94.398438 224.265625 92.933594 223.199219 92.398438 L 220 91.199219 L 215.800781 85 "/>
<path style=" stroke:none;fill-rule:nonzero;fill:rgb(37.647059%,21.960784%,7.45098%);fill-opacity:1;" d="M 395.601562 118.199219 C 392.800781 111.398438 391.066406 108.066406 390.398438 108.199219 L 403.398438 107.199219 L 416.601562 108 L 424.199219 106.398438 C 427.265625 106.800781 429.535156 110.601562 431 117.800781 L 424.601562 145.199219 C 422.464844 155.734375 420.867188 167.667969 419.800781 181 C 418.867188 194.199219 418.464844 213.199219 418.601562 238 L 419 297.800781 L 419 815.398438 L 418.800781 981.601562 L 419.398438 1016 C 419.800781 1029.199219 420.734375 1040.066406 422.199219 1048.601562 C 423.667969 1058.199219 425.464844 1065.601562 427.601562 1070.800781 L 432 1079.398438 C 434.132812 1083.398438 435.535156 1085.332031 436.199219 1085.199219 C 434.199219 1085.734375 430.066406 1085.734375 423.800781 1085.199219 C 418.601562 1084.667969 414.464844 1085.332031 411.398438 1087.199219 L 403.398438 1092 C 399.398438 1092.800781 397.132812 1089.464844 396.601562 1082 C 397.132812 1077.601562 398.199219 1072.734375 399.800781 1067.398438 L 403.199219 1053.398438 C 404.933594 1043.132812 406.132812 1032.464844 406.800781 1021.398438 L 407.601562 987.398438 L 407.601562 952.398438 L 407.800781 370.800781 L 408 278.398438 L 407.398438 186.199219 L 406.199219 156.398438 C 405.398438 149.464844 404 142.800781 402 136.398438 L 395.601562 118.199219 "/>
<path style=" stroke:none;fill-rule:nonzero;fill:rgb(37.647059%,21.960784%,7.45098%);fill-opacity:1;" d="M 608.601562 81.800781 C 608.066406 87.667969 606.265625 97 603.199219 109.800781 C 600.933594 119.800781 599.734375 131.601562 599.601562 145.199219 C 599.332031 158.667969 599.265625 175.734375 599.398438 196.398438 L 599.601562 248 L 599.199219 1065.398438 L 600 1108.601562 C 600.535156 1122.332031 601.734375 1134.132812 603.601562 1144 C 604.933594 1151.464844 606.933594 1159.265625 609.601562 1167.398438 L 615.601562 1187.800781 C 615.464844 1194.199219 612.464844 1196.933594 606.601562 1196 L 596 1192.398438 L 587.398438 1194 L 578.800781 1195.398438 C 578.398438 1183.800781 579.132812 1175.464844 581 1170.398438 L 585.601562 1155.398438 C 586.800781 1146.199219 587.535156 1131.464844 587.800781 1111.199219 L 588.199219 1063.199219 L 588.398438 990.398438 L 588.199219 917.601562 L 588.800781 748.601562 L 588.398438 400.199219 L 587.601562 203.398438 L 586.800781 163.199219 L 586.800781 144.199219 L 586 126 C 585.332031 120.933594 583.734375 115.800781 581.199219 110.601562 C 578.800781 105.800781 577.398438 100.265625 577 94 C 576.464844 85.066406 577.535156 80.535156 580.199219 80.398438 C 581.667969 80.398438 583.601562 81.265625 586 83 L 597.601562 83 L 603.398438 83.800781 C 606.734375 84.066406 608.464844 83.398438 608.601562 81.800781 "/>
<path style=" stroke:none;fill-rule:nonzero;fill:rgb(54.509804%,38.823529%,22.352941%);fill-opacity:1;" d="M 951.199219 26.199219 L 951.199219 1282 L 772.199219 1282 L 772.199219 26.199219 L 951.199219 26.199219 "/>
<path style=" stroke:none;fill-rule:nonzero;fill:rgb(37.647059%,21.960784%,7.45098%);fill-opacity:1;" d="M 771 25.199219 L 774.601562 24.601562 L 953.800781 24.601562 L 955 25.199219 L 955 1281 C 955 1282.066406 953.734375 1282.800781 951.199219 1283.199219 L 948.800781 1283.601562 L 769.601562 1283.601562 C 768.667969 1283.601562 768.199219 1283.398438 768.199219 1283 L 768.199219 27.199219 L 771 25.199219 M 947.601562 27.398438 L 944.800781 27.800781 L 776 27.800781 L 776 1280.800781 L 778.601562 1280.398438 L 947.398438 1280.398438 L 947.398438 28.398438 L 947.601562 27.398438 "/>
<path style=" stroke:none;fill-rule:nonzero;fill:rgb(50.980392%,34.901961%,18.039216%);fill-opacity:1;" d="M 854 52 C 854 78.667969 853.066406 119.066406 851.199219 173.199219 C 850.398438 221.734375 852 262.667969 856 296 C 856 272 856.199219 254.066406 856.601562 242.199219 C 857.132812 222.464844 858.265625 205.066406 860 190 C 865.066406 158 869.398438 133.398438 873 116.199219 C 879.535156 85.535156 887.867188 63.464844 898 50 C 900.265625 109.601562 898.535156 186.265625 892.800781 280 C 885.066406 405.066406 880.800781 481.734375 880 510 C 877.601562 474.265625 870.933594 443.601562 860 418 L 858 442 C 856 435.332031 854 425.332031 852 412 C 850 398.667969 848 388.667969 846 382 C 836.933594 419.601562 830.464844 449 826.601562 470.199219 C 821.265625 499.132812 817.867188 525.667969 816.398438 549.800781 C 817.601562 521.933594 820.464844 478.332031 825 419 C 829.398438 359.265625 831.734375 312.199219 832 277.800781 C 829.601562 225 828.667969 185.734375 829.199219 160 C 830 115.464844 838.265625 77.464844 854 46 L 854 52 "/>
<path style=" stroke:none;fill-rule:nonzero;fill:rgb(50.980392%,34.901961%,18.039216%);fill-opacity:1;" d="M 873.601562 906.398438 C 873.332031 903.332031 875 893.867188 878.601562 878 C 882.199219 861.867188 884.535156 854.332031 885.601562 855.398438 L 894.601562 867 C 898.332031 871.800781 901.667969 875.265625 904.601562 877.398438 L 906.800781 863.800781 L 908 850 L 916 864 L 928 826 C 932.933594 835.066406 935.867188 850.332031 936.800781 871.800781 L 938 922 C 940.667969 970 942 1005.332031 942 1028 C 942 1043.734375 942.601562 1067.800781 943.800781 1100.199219 C 943.800781 1128.601562 940.734375 1152.265625 934.601562 1171.199219 C 931.933594 1179.601562 929.933594 1188.667969 928.601562 1198.398438 L 925.601562 1226.398438 C 924.933594 1233.199219 921.734375 1244.132812 916 1259.199219 C 910.800781 1273.066406 908.066406 1283.601562 907.800781 1290.800781 C 908.199219 1255.601562 906.734375 1213.933594 903.398438 1165.800781 C 902.601562 1168.332031 901.800781 1174.535156 901 1184.398438 C 900.332031 1192.535156 898.800781 1198.332031 896.398438 1201.800781 C 893.199219 1192.867188 891.199219 1182.132812 890.398438 1169.601562 L 890.199219 1153.800781 L 888.800781 1163.601562 C 886.667969 1174.800781 882.464844 1181.464844 876.199219 1183.601562 C 875.265625 1168.265625 874.867188 1149.933594 875 1128.601562 L 875.800781 1073.398438 L 878.800781 1016.199219 C 880.398438 992.867188 880.734375 973.800781 879.800781 959 L 877 932.398438 C 875.132812 919.734375 874 911.066406 873.601562 906.398438 "/>
<path style=" stroke:none;fill-rule:nonzero;fill:rgb(37.647059%,21.960784%,7.45098%);fill-opacity:1;" d="M 755.398438 21.398438 L 753.199219 17 L 750.398438 9 L 762.601562 8.398438 L 774.601562 8.800781 C 775.933594 8.800781 778.265625 8 781.601562 6.398438 C 784.535156 5.601562 786.734375 6.933594 788.199219 10.398438 L 782.199219 36 L 779 54.199219 C 778.464844 59.933594 778.132812 69.066406 778 81.601562 C 777.734375 132.535156 778 208.535156 778.800781 309.601562 L 778.800781 906.800781 L 778.601562 1014.601562 C 778.464844 1057.933594 778.535156 1093.867188 778.800781 1122.398438 C 779.066406 1158.800781 780 1184 781.601562 1198 C 783.332031 1212.933594 785 1222.800781 786.601562 1227.601562 L 789 1233.800781 L 791.199219 1241 C 793.601562 1250.867188 794.734375 1257.199219 794.601562 1260 L 792.800781 1264.398438 L 791 1265.199219 L 782.800781 1266.601562 L 774.601562 1265.601562 L 771.601562 1266 L 768.398438 1266.398438 L 764.800781 1264.601562 C 763.199219 1263.667969 762 1263.199219 761.199219 1263.199219 L 757 1264.601562 C 755 1264.734375 753.734375 1263.199219 753.199219 1260 C 752.398438 1255.734375 752.800781 1251.535156 754.398438 1247.398438 L 757.800781 1240.199219 C 760.199219 1236.066406 762 1224.867188 763.199219 1206.601562 L 765.398438 1154.800781 L 766.199219 1094 L 766 1031.800781 L 766.199219 441 L 767 385 L 767.601562 329.199219 L 766.800781 101 L 766.601562 62 C 766.199219 48.933594 765.132812 39.132812 763.398438 32.601562 C 762.601562 29.535156 761.667969 27.601562 760.601562 26.800781 C 759.265625 26.398438 758.199219 25.800781 757.398438 25 C 756.867188 24.464844 756.199219 23.265625 755.398438 21.398438 "/>
<path style=" stroke:none;fill-rule:nonzero;fill:rgb(54.509804%,38.823529%,22.352941%);fill-opacity:1;" d="M 1130.199219 1282 L 951.199219 1282 L 951.199219 26.199219 L 1130.199219 26.199219 L 1130.199219 1282 "/>
<path style=" stroke:none;fill-rule:nonzero;fill:rgb(37.647059%,21.960784%,7.45098%);fill-opacity:1;" d="M 1134 25.199219 L 1134 1281 C 1134 1281.933594 1132.734375 1282.667969 1130.199219 1283.199219 L 1126.800781 1283.398438 L 948.601562 1283.398438 L 947.398438 1283 L 947.398438 27.199219 C 947.398438 26.398438 948.265625 25.800781 950 25.398438 L 953.800781 24.800781 L 1132.800781 24.800781 L 1134 25.199219 M 1126.601562 27.398438 L 1123.800781 27.800781 L 955 27.800781 L 955 1280.800781 L 957.601562 1280.398438 L 1126.398438 1280.398438 L 1126.398438 28.398438 L 1126.601562 27.398438 "/>
<path style=" stroke:none;fill-rule:nonzero;fill:rgb(50.980392%,34.901961%,18.039216%);fill-opacity:1;" d="M 1064.800781 765.199219 C 1065.332031 755.066406 1067.800781 747.867188 1072.199219 743.601562 L 1076.199219 761.199219 C 1077.667969 770.265625 1078.800781 776.265625 1079.601562 779.199219 C 1080.132812 781.332031 1082.464844 786.535156 1086.601562 794.800781 C 1090.199219 802 1092 807.066406 1092 810 L 1093.800781 795.800781 L 1094.398438 782.398438 C 1111.199219 893.066406 1120.398438 986.265625 1122 1062 C 1122 1101.199219 1119.601562 1142.867188 1114.800781 1187 C 1107.332031 1254.332031 1096.398438 1288 1082 1288 C 1076.132812 1288 1073.066406 1262.601562 1072.800781 1211.800781 L 1074 1128 C 1075.734375 1064.398438 1076 1016.601562 1074.800781 984.601562 C 1073.332031 943.535156 1068.398438 907.132812 1060 875.398438 L 1060 986 C 1058.667969 970 1057 946.332031 1055 915 L 1050 844 C 1053.734375 853.867188 1057.066406 864.332031 1060 875.398438 L 1060 844 C 1060 825.867188 1061.398438 807.464844 1064.199219 788.800781 L 1064.800781 765.199219 "/>
<path style=" stroke:none;fill-rule:nonzero;fill:rgb(50.980392%,34.901961%,18.039216%);fill-opacity:1;" d="M 1032 84.601562 C 1035.332031 83 1038.867188 79.867188 1042.601562 75.199219 L 1051.601562 63.601562 C 1052.398438 63.199219 1053.199219 63.199219 1054 63.601562 C 1055.199219 71.464844 1055.800781 83.398438 1055.800781 99.398438 C 1055.800781 115.667969 1056.332031 127.734375 1057.398438 135.601562 L 1060.398438 122 C 1059.332031 132.265625 1057.132812 145.734375 1053.800781 162.398438 L 1046.199219 202.601562 L 1039.800781 246.601562 C 1037 264.066406 1033.800781 278.535156 1030.199219 290 L 1026.199219 280 L 1022.199219 269.601562 C 1022.464844 274.667969 1021.535156 282.265625 1019.398438 292.398438 C 1017.265625 303.066406 1016.199219 310.800781 1016.199219 315.601562 L 1014.800781 386.800781 L 1014.800781 390.199219 C 1014.398438 377 1013.332031 365.601562 1011.601562 356 L 1007.601562 358.800781 L 1003.601562 360 L 1001.800781 328.199219 C 1001 315.398438 998.933594 305.332031 995.601562 298 L 995.601562 336 C 991.867188 288.933594 990.398438 239 991.199219 186.199219 L 991.398438 149.199219 C 991.535156 134.535156 992.535156 122.265625 994.398438 112.398438 L 1002.398438 86.601562 C 1006.933594 72.464844 1008.867188 65.132812 1008.199219 64.601562 C 1010.199219 66.199219 1012.265625 68.933594 1014.398438 72.800781 L 1019.800781 81.601562 L 1025.601562 87.199219 L 1032 84.601562 "/>
<path style=" stroke:none;fill-rule:nonzero;fill:rgb(37.647059%,21.960784%,7.45098%);fill-opacity:1;" d="M 936.800781 24.601562 C 936.132812 14.464844 937.132812 9.332031 939.800781 9.199219 C 941.265625 9.199219 943.265625 10.199219 945.800781 12.199219 L 957.199219 12.199219 L 963 13.199219 C 966.332031 13.464844 968.066406 12.667969 968.199219 10.800781 C 967.667969 17.601562 965.933594 28.199219 963 42.601562 C 960.734375 53.800781 959.464844 67.066406 959.199219 82.398438 L 959 1119.800781 C 959 1161 960.398438 1190.535156 963.199219 1208.398438 C 964.535156 1216.933594 966.535156 1225.734375 969.199219 1234.800781 L 975.398438 1258 C 975.265625 1265.066406 972.265625 1268.132812 966.398438 1267.199219 L 955.601562 1263 C 953.734375 1262.601562 950.867188 1263.199219 947 1264.800781 C 943.265625 1266.398438 940.464844 1266.933594 938.601562 1266.398438 C 938.199219 1253.332031 938.867188 1243.933594 940.601562 1238.199219 L 945.199219 1221.199219 C 946.398438 1211.066406 947.199219 1194.535156 947.601562 1171.601562 L 948 1117.398438 L 948 953.199219 L 948.199219 369.800781 L 947.398438 148 L 946.398438 102.601562 L 946.398438 81.199219 L 945.601562 60.800781 C 944.933594 55.066406 943.398438 49.265625 941 43.398438 C 938.601562 37.933594 937.199219 31.667969 936.800781 24.601562 "/>
<path style=" stroke:none;fill-rule:nonzero;fill:rgb(54.509804%,38.823529%,22.352941%);fill-opacity:1;" d="M 1309.199219 26.199219 L 1309.199219 1282 L 1130.199219 1282 L 1130.199219 26.199219 L 1309.199219 26.199219 "/>
<path style=" stroke:none;fill-rule:nonzero;fill:rgb(37.647059%,21.960784%,7.45098%);fill-opacity:1;" d="M 1130.601562 23.398438 L 1309.601562 23.398438 C 1312 23.398438 1313.199219 24.265625 1313.199219 26 L 1313.199219 1281.601562 C 1313.199219 1283.066406 1312.535156 1284.066406 1311.199219 1284.601562 L 1309.398438 1284.800781 L 1130 1284.800781 C 1127.601562 1284.800781 1126.398438 1283.933594 1126.398438 1282.199219 L 1126.398438 26.601562 L 1128 24.199219 L 1130.601562 23.398438 M 1134.199219 29.199219 L 1134.199219 1279 L 1305.398438 1279 L 1305.398438 29.199219 L 1134.199219 29.199219 "/>
<path style=" stroke:none;fill-rule:nonzero;fill:rgb(50.980392%,34.901961%,18.039216%);fill-opacity:1;" d="M 1275.199219 203.199219 C 1285.066406 296.800781 1288.867188 410.132812 1286.601562 543.199219 C 1285.265625 618.800781 1282.398438 732.132812 1278 883.199219 C 1276.667969 852.933594 1270.667969 820.265625 1260 785.199219 C 1250.535156 754.398438 1237.867188 723.066406 1222 691.199219 C 1218.800781 697.601562 1216.800781 706.199219 1216 717 L 1214 744.601562 L 1202.601562 710.199219 C 1198.066406 697.800781 1192.933594 687.066406 1187.199219 678 C 1184.398438 683.601562 1182.667969 690.066406 1182 697.398438 L 1180.398438 463.601562 C 1180.265625 449.332031 1179.066406 432.132812 1176.800781 412 L 1171.199219 362.601562 C 1167.867188 323.800781 1171.199219 289.867188 1181.199219 260.800781 L 1192 303.601562 C 1196.132812 321.867188 1200.800781 335.535156 1206 344.601562 C 1209.332031 335.535156 1211.199219 324.398438 1211.601562 311.199219 L 1211.199219 278 C 1213.464844 289.601562 1214.867188 304.667969 1215.398438 323.199219 L 1216.398438 372 C 1217.601562 412.265625 1223.867188 442.265625 1235.199219 462 C 1243.734375 446.933594 1247.398438 422.265625 1246.199219 388 C 1243.398438 350.265625 1242.398438 324.265625 1243.199219 310 C 1246.800781 328.933594 1250.800781 357.398438 1255.199219 395.398438 C 1259.734375 433.800781 1263.734375 462.199219 1267.199219 480.601562 L 1272.199219 343 C 1274.199219 287.667969 1275.199219 241.066406 1275.199219 203.199219 "/>
<path style=" stroke:none;fill-rule:nonzero;fill:rgb(54.509804%,38.823529%,22.352941%);fill-opacity:1;" d="M 1488.398438 26.199219 L 1488.398438 1282 L 1309.199219 1282 L 1309.199219 26.199219 L 1488.398438 26.199219 "/>
<path style=" stroke:none;fill-rule:nonzero;fill:rgb(37.647059%,21.960784%,7.45098%);fill-opacity:1;" d="M 1492.199219 25.800781 L 1492.199219 1281.601562 C 1492.199219 1282.933594 1490.933594 1283.800781 1488.398438 1284.199219 L 1307.800781 1284.199219 C 1306.199219 1284.199219 1305.398438 1283.601562 1305.398438 1282.398438 L 1305.398438 26.601562 C 1305.398438 25.667969 1306.132812 24.933594 1307.601562 24.398438 L 1310.800781 23.800781 L 1489.800781 23.800781 C 1491.398438 23.800781 1492.199219 24.464844 1492.199219 25.800781 M 1483 28.601562 L 1313.199219 28.601562 L 1313.199219 1279.800781 L 1314.601562 1279.601562 L 1484.398438 1279.601562 L 1484.398438 28.601562 L 1483 28.601562 "/>
<path style=" stroke:none;fill-rule:nonzero;fill:rgb(50.980392%,34.901961%,18.039216%);fill-opacity:1;" d="M 1355.199219 163.199219 C 1358.800781 177.464844 1362.933594 204.933594 1367.601562 245.601562 C 1373.734375 281.867188 1383.867188 306 1398 318 C 1401.464844 300.265625 1403.667969 272.332031 1404.601562 234.199219 C 1405.398438 196.734375 1407.601562 169.535156 1411.199219 152.601562 C 1417.464844 161.535156 1423.734375 177.066406 1430 199.199219 C 1436.265625 221.464844 1442.464844 237.066406 1448.601562 246 C 1451.265625 235.332031 1452.601562 217.535156 1452.601562 192.601562 C 1452.601562 167.667969 1453.933594 149.867188 1456.601562 139.199219 C 1476.734375 186.667969 1485.066406 250.132812 1481.601562 329.601562 C 1479.199219 386.132812 1470.867188 448.933594 1456.601562 518 C 1453.132812 513.601562 1448.734375 506.464844 1443.398438 496.601562 C 1438.066406 486.867188 1433.601562 479.734375 1430 475.199219 C 1425.734375 489.199219 1422.398438 507 1420 528.601562 L 1414 582 C 1410.398438 576.667969 1405.933594 568.667969 1400.601562 558 L 1387.199219 534 C 1378.933594 570.265625 1377 610.734375 1381.398438 655.398438 C 1384.332031 683.933594 1391.535156 724 1403 775.601562 C 1415.132812 830.667969 1422.800781 870.199219 1426 894.199219 C 1431.601562 938.066406 1431.132812 977.066406 1424.601562 1011.199219 C 1421.667969 1005.332031 1417.132812 994.132812 1411 977.601562 C 1405.398438 962.667969 1400.132812 950.800781 1395.199219 942 L 1392.601562 948.199219 L 1390 952.601562 L 1388.601562 935.398438 C 1387.667969 927.398438 1387.199219 921.601562 1387.199219 918 C 1378.265625 946.800781 1372.265625 968.132812 1369.199219 982 C 1364.265625 1004.265625 1362.199219 1024.398438 1363 1042.398438 C 1359.933594 991.199219 1358.199219 914.867188 1357.800781 813.398438 C 1357.398438 710.066406 1355.535156 632.398438 1352.199219 580.398438 C 1350.734375 556.132812 1350.265625 523.265625 1350.800781 481.800781 C 1351.332031 435.535156 1351.265625 402.800781 1350.601562 383.601562 C 1348.734375 330.398438 1347.800781 293.601562 1347.800781 273.199219 C 1347.933594 231.867188 1350.398438 195.199219 1355.199219 163.199219 "/>
<path style=" stroke:none;fill-rule:nonzero;fill:rgb(54.509804%,38.823529%,22.352941%);fill-opacity:1;" d="M 1667.398438 26.199219 L 1667.398438 1282 L 1488.398438 1282 L 1488.398438 26.199219 L 1667.398438 26.199219 "/>
<path style=" stroke:none;fill-rule:nonzero;fill:rgb(37.647059%,21.960784%,7.45098%);fill-opacity:1;" d="M 1486.398438 24.800781 L 1489.800781 24.199219 L 1668.800781 24.199219 C 1670.398438 24.199219 1671.199219 24.535156 1671.199219 25.199219 L 1671.199219 1281 C 1671.199219 1282.332031 1669.933594 1283.265625 1667.398438 1283.800781 L 1664.199219 1284 L 1486.800781 1284 C 1485.199219 1284 1484.398438 1283.667969 1484.398438 1283 L 1484.398438 27.199219 L 1486.398438 24.800781 M 1661.800781 28.398438 L 1492.199219 28.398438 L 1492.199219 1279.800781 L 1663.398438 1279.800781 L 1663.398438 28.398438 L 1661.800781 28.398438 "/>
<path style=" stroke:none;fill-rule:nonzero;fill:rgb(50.980392%,34.901961%,18.039216%);fill-opacity:1;" d="M 1571.199219 283.199219 C 1574.667969 290.667969 1580.332031 309.933594 1588.199219 341 C 1594.332031 365.265625 1602 382.464844 1611.199219 392.601562 L 1610.601562 349 C 1610.601562 332.332031 1611.734375 318.398438 1614 307.199219 C 1616.933594 313.734375 1621.265625 329.667969 1627 355 C 1629.800781 367.535156 1633.332031 378.199219 1637.601562 387 L 1637.199219 471 C 1636.398438 540.066406 1638.398438 593.933594 1643.199219 632.601562 C 1641.066406 630.464844 1637.535156 628.332031 1632.601562 626.199219 L 1622 622 C 1616.265625 632.265625 1612.800781 645.734375 1611.601562 662.398438 L 1611.199219 704.601562 L 1600 677.199219 C 1595.332031 667.332031 1590.199219 659.601562 1584.601562 654 L 1585.199219 698 C 1585.199219 715.066406 1584.132812 729.734375 1582 742 L 1557.398438 681.199219 C 1546.332031 656.933594 1534.066406 638.066406 1520.601562 624.601562 C 1517.132812 670.066406 1516.265625 708.933594 1518 741.199219 C 1520.132812 786.398438 1527.199219 824 1539.199219 854 C 1539.199219 832.667969 1540.132812 816.667969 1542 806 C 1548.667969 817.066406 1555.332031 841.265625 1562 878.601562 C 1567.867188 911.667969 1577.199219 934.535156 1590 947.199219 C 1598.535156 924.667969 1608.265625 905.132812 1619.199219 888.601562 C 1624.398438 917.132812 1627.199219 949.667969 1627.601562 986.199219 C 1628 1021.132812 1626.132812 1054.398438 1622 1086 L 1611.601562 1048.601562 C 1607.199219 1033.398438 1601.734375 1020.933594 1595.199219 1011.199219 C 1590.800781 1018.933594 1587.066406 1030.265625 1584 1045.199219 L 1576.601562 1083.199219 C 1574.332031 1077.066406 1570.933594 1061.066406 1566.398438 1035.199219 C 1562.535156 1014.535156 1557.066406 998.535156 1550 987.199219 C 1550 1008.535156 1549.066406 1024.535156 1547.199219 1035.199219 L 1534 980 C 1528.398438 957.601562 1521.265625 940.464844 1512.601562 928.601562 L 1512.601562 609 C 1510.867188 566.734375 1509.800781 534.667969 1509.398438 512.800781 C 1508.734375 473.734375 1511.667969 442 1518.199219 417.601562 C 1524.734375 393.066406 1528.800781 365.535156 1530.398438 335 C 1530.933594 323.265625 1531.199219 295.066406 1531.199219 250.398438 C 1531.199219 244.535156 1532.066406 229.933594 1533.800781 206.601562 C 1534.867188 192.066406 1535.132812 180.066406 1534.601562 170.601562 C 1538.867188 184.066406 1541.933594 200.199219 1543.800781 219 L 1547.601562 272 C 1550.535156 316.398438 1558.398438 349.464844 1571.199219 371.199219 L 1570.199219 327.199219 C 1569.800781 309.601562 1570.132812 294.933594 1571.199219 283.199219 M 1637.601562 387 C 1637.332031 352.332031 1636.535156 325.734375 1635.199219 307.199219 C 1642.398438 333.601562 1646 364.734375 1646 400.601562 C 1642.933594 396.734375 1640.132812 392.199219 1637.601562 387 "/>
<path style=" stroke:none;fill-rule:nonzero;fill:rgb(54.509804%,38.823529%,22.352941%);fill-opacity:1;" d="M 1846.398438 26.199219 L 1846.398438 1282 L 1667.398438 1282 L 1667.398438 26.199219 L 1846.398438 26.199219 "/>
<path style=" stroke:none;fill-rule:nonzero;fill:rgb(37.647059%,21.960784%,7.45098%);fill-opacity:1;" d="M 1665.398438 24.800781 L 1668.800781 24 L 1847.800781 24 C 1849.398438 24 1850.199219 24.398438 1850.199219 25.199219 L 1850.199219 1281 C 1850.199219 1282.332031 1848.933594 1283.332031 1846.398438 1284 L 1845.601562 1284.199219 L 1665.800781 1284.199219 C 1664.199219 1284.199219 1663.398438 1283.800781 1663.398438 1283 L 1663.398438 27.199219 C 1663.398438 26.265625 1664.066406 25.464844 1665.398438 24.800781 M 1841 28.398438 L 1671.199219 28.398438 L 1671.199219 1279.800781 L 1842.601562 1279.800781 L 1842.601562 28.398438 L 1841 28.398438 "/>
<path style=" stroke:none;fill-rule:nonzero;fill:rgb(50.980392%,34.901961%,18.039216%);fill-opacity:1;" d="M 1735.199219 140.601562 L 1735.199219 186 L 1739 299.601562 C 1741.398438 330.667969 1746.066406 357.132812 1753 379 L 1754.601562 390.601562 C 1762.601562 437.933594 1775.734375 470.132812 1794 487.199219 C 1802.667969 463.199219 1807.199219 431 1807.601562 390.601562 C 1806.535156 344.867188 1806.398438 311.332031 1807.199219 290 C 1814.398438 354.800781 1818 426.800781 1818 506 C 1817.464844 518.535156 1820 551.265625 1825.601562 604.199219 C 1830.132812 647 1829.332031 679.132812 1823.199219 700.601562 C 1819.601562 697 1815.199219 695.199219 1810 695.199219 L 1807.398438 714 C 1805.535156 722.933594 1804.601562 729.132812 1804.601562 732.601562 L 1793.199219 703.398438 C 1788.398438 691.398438 1783.332031 681.601562 1778 674 L 1778.398438 702 C 1778 712.667969 1776.066406 722 1772.601562 730 C 1767.398438 721.601562 1761.734375 710.464844 1755.601562 696.601562 L 1740.601562 663.199219 C 1740.601562 674.265625 1738.800781 684.933594 1735.199219 695.199219 L 1722.601562 665 C 1717.132812 652.867188 1711.601562 643.398438 1706 636.601562 C 1692.933594 672.066406 1686.535156 702 1686.800781 726.398438 C 1686.132812 707.734375 1687.800781 684.535156 1691.800781 656.800781 C 1697.667969 621.066406 1701.398438 594.933594 1703 578.398438 C 1709.667969 508.132812 1714.464844 451.601562 1717.398438 408.800781 L 1723.199219 331.601562 C 1725.066406 301.464844 1725.535156 275.800781 1724.601562 254.601562 C 1722.066406 227 1720.867188 206.332031 1721 192.601562 C 1721 168.867188 1725.734375 148.867188 1735.199219 132.601562 L 1735.199219 140.601562 M 1753 379 L 1743.199219 282 C 1757.464844 324.535156 1764.601562 366.265625 1764.601562 407.199219 C 1760.199219 398.800781 1756.332031 389.398438 1753 379 "/>
<path style=" stroke:none;fill-rule:nonzero;fill:rgb(37.647059%,21.960784%,7.45098%);fill-opacity:1;" d="M 1667.800781 120.800781 L 1680 120.601562 L 1692.199219 121 L 1689.398438 126.601562 L 1685 132.398438 L 1682 133.800781 C 1680.933594 134.332031 1679.933594 135.734375 1679 138 C 1677.265625 142.535156 1676.199219 149.464844 1675.800781 158.800781 L 1675.601562 186.601562 L 1675 349 L 1675.601562 388.601562 L 1676.199219 428.398438 L 1676.398438 849 C 1676.398438 895.132812 1676.667969 924.265625 1677.199219 936.398438 C 1677.867188 953.601562 1678.601562 965.933594 1679.398438 973.398438 C 1680.601562 986.332031 1682.332031 994.265625 1684.601562 997.199219 L 1688.199219 1002.398438 C 1689.667969 1005.332031 1690 1008.332031 1689.199219 1011.398438 C 1688.667969 1013.667969 1687.398438 1014.734375 1685.398438 1014.601562 L 1681.199219 1013.601562 L 1677.800781 1014.601562 L 1674.199219 1015.800781 L 1671 1015.601562 L 1667.800781 1015.199219 L 1659.800781 1016 L 1651.601562 1015 L 1649.601562 1014.398438 C 1648.667969 1014 1648.132812 1013 1648 1011.398438 C 1647.734375 1009.667969 1648.066406 1007.199219 1649 1004 L 1651.199219 997.800781 L 1653.601562 992.800781 L 1656 988.398438 C 1657.464844 985.332031 1659.066406 978.265625 1660.800781 967.199219 C 1662 960.265625 1662.800781 951.800781 1663.199219 941.800781 L 1663.601562 913.398438 L 1663.800781 836.800781 L 1663.601562 760 L 1663.601562 335 C 1664.535156 263 1664.800781 208.933594 1664.398438 172.800781 L 1663.398438 153.199219 C 1662.867188 149.464844 1661.800781 145.132812 1660.199219 140.199219 L 1657.199219 131.601562 L 1654.199219 122 C 1655.667969 119.601562 1657.933594 118.667969 1661 119.199219 L 1667.800781 120.800781 "/>
<path style=" stroke:none;fill-rule:nonzero;fill:rgb(37.647059%,21.960784%,7.45098%);fill-opacity:1;" d="M 1147.601562 25 L 1144.601562 26.800781 C 1143.535156 27.601562 1142.535156 29.535156 1141.601562 32.601562 C 1139.867188 39.132812 1138.800781 48.933594 1138.398438 62 L 1138.199219 101 L 1137.601562 329.199219 L 1138.199219 385 L 1138.800781 441 L 1139 1031.800781 C 1139 1096.601562 1139.265625 1137.601562 1139.800781 1154.800781 C 1140.464844 1178.933594 1141.199219 1196.199219 1142 1206.601562 C 1143.199219 1224.734375 1144.933594 1235.933594 1147.199219 1240.199219 L 1150.800781 1247.398438 C 1152.265625 1251.535156 1152.601562 1255.734375 1151.800781 1260 C 1151.265625 1263.199219 1150 1264.734375 1148 1264.601562 L 1144 1263.199219 C 1143.066406 1263.199219 1141.867188 1263.667969 1140.398438 1264.601562 L 1136.800781 1266.398438 L 1133.601562 1266 L 1130.398438 1265.601562 L 1122.398438 1266.601562 L 1114.199219 1265.199219 L 1112.199219 1264.398438 C 1111.265625 1263.734375 1110.734375 1262.265625 1110.601562 1260 C 1110.332031 1257.601562 1110.667969 1254.199219 1111.601562 1249.800781 L 1113.800781 1241 L 1116.199219 1233.800781 L 1118.601562 1227.601562 C 1120.066406 1223.332031 1121.667969 1213.464844 1123.398438 1198 C 1124.601562 1188.132812 1125.398438 1176.265625 1125.800781 1162.398438 L 1126.199219 1122.398438 L 1126.398438 1014.601562 L 1126.199219 906.800781 L 1126.199219 309.601562 C 1127.132812 208.535156 1127.398438 132.535156 1127 81.601562 L 1126.199219 54.199219 L 1122.800781 36 L 1116.800781 10.398438 C 1118.265625 6.933594 1120.535156 5.601562 1123.601562 6.398438 L 1130.398438 8.800781 L 1142.601562 8.398438 L 1154.800781 9 L 1152 17 L 1147.601562 25 "/>
<path style=" stroke:none;fill-rule:nonzero;fill:rgb(37.647059%,21.960784%,7.45098%);fill-opacity:1;" d="M 1469.199219 69.398438 C 1469.199219 67.398438 1470 66.132812 1471.601562 65.601562 L 1476.398438 66.199219 L 1480.800781 68.800781 L 1488.398438 69.800781 C 1496.667969 67.535156 1504.601562 67.464844 1512.199219 69.601562 C 1511.535156 69.601562 1509.800781 72.933594 1507 79.601562 L 1500.601562 97.800781 C 1498.601562 104.332031 1497.199219 111.066406 1496.398438 118 C 1495.867188 124.398438 1495.464844 134.464844 1495.199219 148.199219 C 1494.800781 173.132812 1494.601562 204.066406 1494.601562 241 L 1494.800781 334.398438 L 1495 921 L 1495 956.398438 L 1495.800781 990.800781 C 1496.464844 1000.800781 1497.734375 1011.535156 1499.601562 1023 L 1503 1037.199219 L 1506 1051.800781 C 1505.464844 1059.398438 1503.199219 1062.800781 1499.199219 1062 C 1498.265625 1061.734375 1495.601562 1060.132812 1491.199219 1057.199219 C 1488.132812 1055.332031 1484 1054.601562 1478.800781 1055 L 1466.398438 1055.199219 L 1470.800781 1049.398438 L 1475 1040.601562 C 1476.867188 1035.800781 1478.734375 1028.332031 1480.601562 1018.199219 C 1481.933594 1009.667969 1482.867188 998.734375 1483.398438 985.398438 L 1483.800781 950.601562 L 1483.800781 260.601562 L 1484.199219 200.398438 C 1484.199219 175.601562 1483.734375 156.464844 1482.800781 143 C 1481.332031 126.601562 1479.398438 112.867188 1477 101.800781 L 1471 77.398438 L 1469.800781 73.398438 L 1469.199219 69.398438 "/>
<path style=" stroke:none;fill-rule:nonzero;fill:rgb(37.647059%,21.960784%,7.45098%);fill-opacity:1;" d="M 1299.800781 104.800781 C 1296.867188 91.734375 1295.066406 82.265625 1294.398438 76.398438 C 1294.667969 78 1296.398438 78.667969 1299.601562 78.398438 L 1305.398438 77.601562 L 1317 77.601562 L 1322.800781 75 C 1325.601562 75.132812 1326.667969 79.734375 1326 88.800781 C 1325.601562 95.066406 1324.199219 100.667969 1321.800781 105.601562 C 1319.265625 110.933594 1317.667969 116.132812 1317 121.199219 C 1316.601562 125.066406 1316.398438 131.132812 1316.398438 139.398438 L 1316.199219 158.601562 L 1315.398438 199.398438 L 1314.601562 398 L 1314.199219 749.601562 L 1314.800781 920.199219 L 1314.601562 993.800781 C 1314.464844 1024.464844 1314.535156 1049 1314.800781 1067.398438 L 1315.199219 1115.800781 C 1315.464844 1136.199219 1316.199219 1151 1317.398438 1160.199219 L 1322 1175.398438 C 1323.867188 1180.601562 1324.601562 1189.066406 1324.199219 1200.800781 C 1322.332031 1201.332031 1319.535156 1200.867188 1315.800781 1199.398438 C 1311.800781 1197.933594 1308.867188 1197.398438 1307 1197.800781 L 1296.398438 1201.398438 C 1290.535156 1202.332031 1287.535156 1199.601562 1287.398438 1193.199219 L 1293.601562 1172.398438 L 1299.398438 1148.800781 C 1301.265625 1138.800781 1302.535156 1126.867188 1303.199219 1113 L 1303.800781 1069.398438 L 1303.398438 244.199219 L 1303.601562 192.199219 L 1303.398438 140.398438 C 1303.265625 126.667969 1302.066406 114.800781 1299.800781 104.800781 "/>
<path style="fill:none;stroke-width:1;stroke-linecap:butt;stroke-linejoin:miter;stroke:rgb(13.333333%,12.156863%,12.156863%);stroke-opacity:1;stroke-miterlimit:4;" d="M 480 313.35 L 0 313.35 L 0 -6.65 L 480 -6.65 Z M 480 313.35 " transform="matrix(4,0,0,4,2,28.6)"/>
<path style=" stroke:none;fill-rule:nonzero;fill:rgb(45.882353%,30.196078%,14.117647%);fill-opacity:1;" d="M 1207.800781 919.398438 L 1193.601562 917.800781 L 1181.199219 917.800781 L 1168.601562 918.199219 L 979.199219 918 L 873.398438 919 L 846.398438 919 L 819.601562 916 C 811.332031 914.265625 799.464844 915.199219 784 918.800781 L 767.398438 920 L 750.601562 918.199219 L 735 917.800781 L 719.398438 918.199219 L 697 917.601562 C 687.933594 917.332031 680.398438 917.464844 674.398438 918 L 633.199219 920.199219 L 591.800781 920.199219 L 580.601562 919.199219 L 569.398438 918 L 546.398438 918.601562 C 531.066406 920.199219 511.667969 920.535156 488.199219 919.601562 L 429.800781 917.398438 L 414.800781 919 L 399.601562 920.199219 L 381.800781 920.398438 L 364 919.800781 L 353 919.199219 C 347.933594 918.667969 344.933594 917.398438 344 915.398438 C 342.667969 912.066406 342.464844 908.332031 343.398438 904.199219 L 344.199219 893.800781 L 344 888.800781 L 342.199219 887 L 340.199219 885.398438 L 343.199219 884.601562 C 343.734375 884.066406 343.800781 882.667969 343.398438 880.398438 L 342.800781 876 L 342.398438 865 C 340.800781 864.464844 339.464844 863.398438 338.398438 861.800781 C 340.535156 859.800781 342.132812 858.535156 343.199219 858 L 350.199219 856.398438 L 345.199219 852.601562 C 343.867188 851.265625 343.132812 849.398438 343 847 C 342.867188 844.867188 343.199219 843.199219 344 842 L 347.800781 838 L 342 836 L 343.398438 827 L 343.398438 814.398438 C 343.398438 810.800781 344.933594 807.800781 348 805.398438 L 352.199219 801 L 356.398438 796.800781 L 357.800781 796.199219 L 358.800781 795.199219 L 363.199219 794.800781 L 367.398438 794.601562 L 365.601562 792.199219 C 364.667969 791.265625 364.199219 790.464844 364.199219 789.800781 L 365 788.398438 L 366.398438 787.398438 L 370.398438 783.398438 L 372.800781 780.800781 L 376.199219 779.800781 L 374.800781 778.800781 L 379.199219 773.199219 C 380.398438 770.800781 381.667969 769.265625 383 768.601562 L 388 767.199219 L 387.800781 765.199219 L 388.601562 763.199219 L 391 760.199219 L 393.199219 756.800781 L 396 756.601562 L 398.800781 756.800781 C 397.867188 755.464844 397.601562 754.398438 398 753.601562 C 398.933594 751.332031 400.667969 749.332031 403.199219 747.601562 L 406 745.199219 L 1510.800781 745.199219 L 1524.601562 747 L 1526 747.800781 L 1530.601562 752.800781 C 1532.066406 755.332031 1532.132812 757.265625 1530.800781 758.601562 C 1532.132812 757.265625 1533.867188 756.800781 1536 757.199219 C 1536.398438 759.199219 1538.132812 761.667969 1541.199219 764.601562 C 1544.398438 767.667969 1546.265625 770.132812 1546.800781 772 C 1545.601562 772 1544.535156 772.464844 1543.601562 773.398438 C 1542.667969 774.199219 1542.132812 775.199219 1542 776.398438 L 1546.800781 776.398438 L 1551.601562 776.800781 L 1558.398438 782.398438 L 1569.800781 794 L 1571 796 L 1569.601562 798.601562 L 1568.199219 801 L 1573.601562 801 C 1574.933594 801 1576.132812 801.867188 1577.199219 803.601562 L 1578.800781 807 L 1580.800781 808 L 1582.601562 809.800781 C 1584.601562 811.800781 1585.800781 813.535156 1586.199219 815 L 1587 823 C 1586.867188 826.601562 1587.066406 829.265625 1587.601562 831 L 1582.398438 834.800781 C 1582.398438 835.734375 1583.199219 837.199219 1584.800781 839.199219 C 1585.734375 840.667969 1586.199219 842.601562 1586.199219 845 C 1586.199219 849 1586.398438 851.398438 1586.800781 852.199219 L 1589 854.601562 L 1589 866.800781 C 1589 868.535156 1588.332031 870.199219 1587 871.800781 C 1586.734375 872.734375 1586.667969 874.199219 1586.800781 876.199219 L 1586.601562 880.601562 L 1584.199219 883.199219 C 1583.132812 884.132812 1582.535156 885 1582.398438 885.800781 L 1584.800781 887.398438 L 1586 889.800781 L 1586.601562 902.199219 L 1586.800781 908.601562 L 1586.199219 915 L 1582.601562 917.601562 L 1578.398438 918.199219 L 1550 918.199219 L 1520.199219 917.601562 L 1490.601562 918.398438 C 1483.265625 919.199219 1473.535156 919.398438 1461.398438 919 L 1432.199219 918.601562 L 1412.800781 917.601562 L 1393.199219 917 L 1369.800781 917.398438 L 1346.398438 917.199219 L 1261 918 L 1239.398438 918.398438 L 1222 920.601562 L 1207.800781 919.398438 "/>
<path style=" stroke:none;fill-rule:nonzero;fill:rgb(39.215686%,23.529412%,11.764706%);fill-opacity:1;" d="M 1169.398438 914.601562 L 1209 916.398438 C 1214.867188 917.199219 1222.398438 917.199219 1231.601562 916.398438 L 1254.199219 915 L 1292.398438 915 C 1356.535156 914.066406 1410.867188 914.332031 1455.398438 915.800781 C 1476.464844 916.601562 1508.066406 916.464844 1550.199219 915.398438 L 1579.601562 915.398438 C 1582.535156 915.535156 1583.734375 911.332031 1583.199219 902.800781 C 1582.667969 894.265625 1581.398438 889.398438 1579.398438 888.199219 L 1578.398438 886.398438 L 1579 884.601562 C 1583.535156 878.734375 1585.464844 870.734375 1584.800781 860.601562 C 1584.132812 852.332031 1582 844.066406 1578.398438 835.800781 C 1578 834.867188 1578.464844 833.867188 1579.800781 832.800781 C 1584.464844 829.464844 1584.933594 823.800781 1581.199219 815.800781 C 1577.601562 807.933594 1573.199219 803.933594 1568 803.800781 L 1565.199219 803 C 1564.132812 802.332031 1563.933594 801.464844 1564.601562 800.398438 C 1567.265625 796.132812 1565.132812 791.464844 1558.199219 786.398438 C 1551.800781 781.601562 1546.265625 779.265625 1541.601562 779.398438 L 1538.800781 778.601562 C 1537.867188 777.800781 1537.667969 776.867188 1538.199219 775.800781 L 1541.398438 771.601562 L 1541.800781 771.398438 L 1537.601562 766 L 1533.800781 760.800781 L 1531.601562 761.398438 L 1528.398438 761.199219 C 1527.199219 760.800781 1526.667969 760 1526.800781 758.800781 C 1526.800781 754.132812 1525.066406 751 1521.601562 749.398438 C 1513.199219 746.867188 1501.800781 745.933594 1487.398438 746.601562 L 1451.601562 748.199219 L 452.601562 748.199219 C 441.667969 747.800781 432.066406 747.800781 423.800781 748.199219 C 407.933594 748.867188 400.867188 751.398438 402.601562 755.800781 C 403.132812 757 402.667969 758 401.199219 758.800781 L 397.398438 759.601562 C 396.066406 759.464844 394.734375 760.265625 393.398438 762 C 392.199219 763.464844 391.667969 764.867188 391.800781 766.199219 C 392.066406 768.066406 391.066406 769.332031 388.800781 770 L 383.199219 773.800781 C 380.265625 776.066406 378.933594 777.332031 379.199219 777.601562 C 380.398438 778.265625 380.601562 779.199219 379.800781 780.398438 C 379.132812 781.464844 378.199219 782.199219 377 782.601562 C 374.066406 783.398438 372 784.734375 370.800781 786.601562 C 369.464844 788.601562 369.535156 790.667969 371 792.800781 C 371.800781 793.867188 371.601562 794.933594 370.398438 796 L 367 797.601562 C 363.132812 797.734375 360.265625 798.464844 358.398438 799.800781 L 351.199219 806.601562 C 349.066406 808.867188 347.535156 813.800781 346.601562 821.398438 C 345.667969 829.535156 346.800781 834.199219 350 835.398438 C 351.066406 835.800781 351.601562 836.464844 351.601562 837.398438 L 350.398438 839.800781 L 353.199219 854.199219 C 354.265625 855 354.464844 856 353.800781 857.199219 L 351 859.199219 C 346.601562 860.398438 345.132812 865.199219 346.601562 873.601562 C 347.535156 879.066406 347.066406 883.066406 345.199219 885.601562 C 347.199219 889.066406 348.398438 894.800781 348.800781 902.800781 C 349.199219 911.199219 353.734375 915.800781 362.398438 916.601562 C 372.800781 917.535156 386.734375 917.464844 404.199219 916.398438 L 445.800781 914.800781 L 492.398438 916.800781 C 511.066406 917.601562 526.601562 917.464844 539 916.398438 C 549 915.601562 561.667969 915.464844 577 916 L 614.800781 917.398438 L 656.601562 915.601562 C 674.199219 914.535156 688.066406 914.199219 698.199219 914.601562 L 744.800781 914.800781 L 761.199219 916.601562 C 767.867188 917.398438 773.265625 917.464844 777.398438 916.800781 L 795.800781 913.800781 L 814.398438 912.398438 L 836.199219 914.398438 L 858.398438 916.199219 L 941.800781 915.398438 L 1035.800781 915 L 1129.601562 915.199219 L 1169.398438 914.601562 M 1199.398438 921.199219 C 1193.132812 920.667969 1185.332031 920.535156 1176 920.800781 L 1152.601562 921.199219 C 1065.265625 920.667969 999.800781 920.601562 956.199219 921 L 907 922 L 857.601562 922.199219 L 818.199219 919 L 797.398438 920 L 776.800781 922.800781 C 766.535156 923.199219 751.933594 922.867188 733 921.800781 L 689 920.398438 L 644 922 C 625.066406 922.933594 610.066406 923.332031 599 923.199219 L 576.398438 921.601562 L 553.800781 921 L 507.199219 923 L 462.199219 920.398438 C 444.066406 919.332031 429.066406 919.667969 417.199219 921.398438 C 393.464844 925 370.332031 925 347.800781 921.398438 C 341.398438 920.332031 338.667969 915.332031 339.601562 906.398438 C 340.800781 896 340 889.734375 337.199219 887.601562 C 336.132812 886.800781 335.933594 885.800781 336.601562 884.601562 L 339.398438 882.601562 C 340.066406 882.332031 339.867188 879.398438 338.800781 873.800781 C 337.601562 868.199219 336.464844 864.933594 335.398438 864 C 333.933594 862.667969 334.066406 861.265625 335.800781 859.800781 C 338.464844 857.933594 340.667969 856.667969 342.398438 856 L 343.398438 855.601562 C 338.332031 850.398438 337.933594 845.066406 342.199219 839.601562 L 339.800781 838.601562 C 338.464844 837.933594 337.933594 837.132812 338.199219 836.199219 L 340.398438 816.601562 C 341.199219 810.332031 344.066406 804.734375 349 799.800781 C 352.332031 796.464844 355.066406 794.332031 357.199219 793.398438 L 361.800781 792.199219 C 361.132812 789.535156 361.734375 786.933594 363.601562 784.398438 C 365.332031 782 367.867188 780.066406 371.199219 778.601562 L 371.601562 777.601562 C 374.132812 773.601562 376.265625 770.800781 378 769.199219 C 379.734375 767.601562 381.800781 766.332031 384.199219 765.398438 C 384.464844 761.933594 385.933594 759.132812 388.601562 757 L 394.199219 754.398438 C 393.535156 746.398438 403.800781 741.867188 425 740.800781 L 468.398438 742.199219 L 1480 742.199219 L 1503.601562 741.601562 C 1512.933594 741.601562 1520.667969 742.535156 1526.800781 744.398438 L 1528.601562 745.398438 C 1532.332031 747.933594 1534.398438 751 1534.800781 754.601562 L 1535.199219 754.398438 C 1537.464844 753.734375 1539 754.265625 1539.800781 756 L 1545 763.398438 L 1550.398438 770.398438 C 1551.332031 771.867188 1551 773.066406 1549.398438 774 C 1553.535156 774.933594 1557.332031 776.667969 1560.800781 779.199219 C 1565.464844 782.398438 1570.066406 787.398438 1574.601562 794.199219 L 1574.800781 796.398438 L 1573.601562 798.601562 C 1579.199219 799.800781 1583.398438 803.066406 1586.199219 808.398438 C 1588.464844 812.800781 1590.199219 820 1591.398438 830 C 1591.667969 831.199219 1591.265625 832.132812 1590.199219 832.800781 C 1588.464844 834.132812 1588.398438 839.332031 1590 848.398438 L 1593 866.398438 L 1592.199219 874.398438 L 1590 881.800781 C 1588.265625 883.667969 1587.601562 884.800781 1588 885.199219 C 1589.066406 886.265625 1589.667969 887.464844 1589.800781 888.800781 L 1591.199219 907.800781 C 1590.667969 914.601562 1587.332031 919 1581.199219 921 L 1568.800781 922 L 1556.199219 921.199219 C 1536.734375 920.535156 1522.132812 920.265625 1512.398438 920.398438 L 1421.601562 920.199219 L 1330.601562 920.199219 L 1281.800781 919.398438 L 1233.398438 922.199219 L 1216.398438 922.800781 L 1199.398438 921.199219 "/>
<path style=" stroke:none;fill-rule:nonzero;fill:rgb(39.215686%,23.529412%,11.764706%);fill-opacity:1;" d="M 396.199219 753.199219 C 397.800781 751.601562 399.464844 751.199219 401.199219 752 C 406 754.398438 412.734375 755.601562 421.398438 755.601562 L 442.398438 754.800781 C 444.933594 754.800781 446 755.734375 445.601562 757.601562 C 445.332031 759.464844 444 760.398438 441.601562 760.398438 L 414 760.601562 C 407.066406 760.601562 401.332031 759.535156 396.800781 757.398438 C 394.667969 756.332031 394.464844 754.933594 396.199219 753.199219 "/>
<path style=" stroke:none;fill-rule:nonzero;fill:rgb(39.215686%,23.529412%,11.764706%);fill-opacity:1;" d="M 386.398438 766.199219 L 396.800781 766.398438 L 407.199219 768 C 407.867188 768.132812 408.265625 768.398438 408.398438 768.800781 L 407.800781 770.199219 C 406.332031 771.398438 404.464844 771.867188 402.199219 771.601562 L 393.800781 770.199219 L 385.199219 769.800781 C 382.667969 769.800781 381.601562 769.398438 382 768.601562 C 382.265625 767.398438 383.734375 766.601562 386.398438 766.199219 "/>
<path style=" stroke:none;fill-rule:nonzero;fill:rgb(39.215686%,23.529412%,11.764706%);fill-opacity:1;" d="M 366 792.601562 L 371.199219 793 C 372.265625 794.199219 374 794.933594 376.398438 795.199219 L 382.199219 795.601562 L 397.601562 795.800781 C 400.132812 795.800781 401.199219 796.667969 400.800781 798.398438 C 400.265625 800.132812 398.933594 801 396.800781 801 L 376.800781 800.601562 C 370.800781 800.332031 366.601562 798.867188 364.199219 796.199219 C 363 794.867188 363.601562 793.667969 366 792.601562 "/>
<path style=" stroke:none;fill-rule:nonzero;fill:rgb(39.215686%,23.529412%,11.764706%);fill-opacity:1;" d="M 1191.601562 810 L 1233.398438 811 C 1251 811.667969 1264.800781 811.800781 1274.800781 811.398438 C 1317.332031 809.667969 1369.535156 808.933594 1431.398438 809.199219 L 1587.800781 810.199219 C 1590.199219 810.199219 1590.734375 811 1589.398438 812.601562 C 1588.066406 814.199219 1586.535156 815 1584.800781 815 L 1499.800781 814.601562 L 1414.800781 815 L 1374.800781 814.800781 C 1358.398438 814.535156 1345.066406 814.667969 1334.800781 815.199219 L 1298 817.199219 L 1261.398438 816 L 1221.398438 814.199219 L 1181.398438 814.800781 L 1099.601562 814.800781 L 1034.601562 814 C 1008.066406 813.734375 986.398438 813.867188 969.601562 814.398438 C 926.132812 815.867188 873.800781 816.398438 812.601562 816 L 655.601562 814.601562 C 574.535156 814.066406 520.535156 814.066406 493.601562 814.601562 L 450.398438 816.199219 L 434.199219 815.199219 L 418.199219 814.199219 L 398.199219 815.800781 C 389.933594 816.601562 383.199219 816.667969 378 816 L 342.601562 814.398438 C 340.199219 814.398438 339.667969 813.601562 341 812 C 342.332031 810.398438 343.867188 809.601562 345.601562 809.601562 L 366.601562 810.800781 L 387.398438 811.800781 L 407.398438 810.199219 C 415.398438 809.398438 422 809.332031 427.199219 810 C 436.667969 811.066406 449.265625 811.199219 465 810.398438 L 502.800781 809.199219 C 521.332031 809.867188 548.464844 810 584.199219 809.601562 C 620.867188 809.332031 648 809.464844 665.601562 810 C 688.800781 810.667969 716.933594 810.867188 750 810.601562 L 834.398438 810 L 914.398438 811.601562 L 943.601562 809.800781 C 955.601562 808.867188 965.199219 808.800781 972.398438 809.601562 L 1041.199219 811.601562 L 1110 810 L 1191.601562 810 "/>
<path style=" stroke:none;fill-rule:nonzero;fill:rgb(39.215686%,23.529412%,11.764706%);fill-opacity:1;" d="M 1534 756.398438 C 1534.933594 757.332031 1534.265625 758.332031 1532 759.398438 C 1529.066406 760.601562 1525.332031 761.535156 1520.800781 762.199219 C 1518.398438 762.199219 1517.332031 761.667969 1517.601562 760.601562 C 1517.867188 759.265625 1519.332031 758.398438 1522 758 L 1529 756.398438 C 1531.265625 755.332031 1532.933594 755.332031 1534 756.398438 "/>
<path style=" stroke:none;fill-rule:nonzero;fill:rgb(39.215686%,23.529412%,11.764706%);fill-opacity:1;" d="M 1545.601562 776.601562 C 1544.398438 777.933594 1542.667969 778.601562 1540.398438 778.601562 L 1525 778.601562 C 1522.601562 778.601562 1521.933594 778 1523 776.800781 C 1524.199219 775.464844 1525.933594 774.800781 1528.199219 774.800781 L 1543.601562 774.800781 C 1545.734375 774.800781 1546.398438 775.398438 1545.601562 776.601562 "/>
<path style=" stroke:none;fill-rule:nonzero;fill:rgb(39.215686%,23.529412%,11.764706%);fill-opacity:1;" d="M 1536.601562 803.398438 C 1534.199219 803.398438 1533.734375 802.800781 1535.199219 801.601562 C 1536.667969 800.265625 1538.132812 799.601562 1539.601562 799.601562 L 1553.601562 800.199219 L 1567.601562 799 C 1569.867188 798.464844 1571.132812 798.734375 1571.398438 799.800781 C 1571.667969 800.867188 1570.667969 801.667969 1568.398438 802.199219 L 1552.601562 803.800781 L 1536.601562 803.398438 "/>
<path style=" stroke:none;fill-rule:nonzero;fill:rgb(45.882353%,30.196078%,14.117647%);fill-opacity:1;" d="M 1482 439 L 1486.601562 440.398438 L 1490 444.398438 L 1494 449.601562 L 1492.601562 450.398438 L 1495.601562 451.398438 L 1498 453.800781 L 1501.398438 457.199219 L 1503.398438 459.398438 L 1502 461.601562 L 1500.601562 463.800781 L 1504.601562 464 L 1508.398438 464.199219 L 1509.199219 465.199219 L 1510.398438 465.800781 L 1514.199219 469.601562 L 1518 473.398438 C 1520.800781 475.535156 1522.199219 478.265625 1522.199219 481.601562 L 1522.199219 492.800781 C 1522.199219 495.464844 1522.601562 498.199219 1523.398438 501 L 1518.199219 502.800781 L 1521.601562 506.398438 C 1522.398438 507.601562 1522.734375 509.132812 1522.601562 511 C 1522.464844 513.132812 1521.800781 514.800781 1520.601562 516 L 1516 519.398438 L 1519.199219 520.398438 L 1522.199219 521 C 1523.265625 521.398438 1524.734375 522.464844 1526.601562 524.199219 L 1523 527.199219 L 1522.800781 537.199219 L 1522 541 C 1521.734375 543 1521.867188 544.265625 1522.398438 544.800781 L 1525.199219 545.398438 L 1523.199219 547 L 1521.601562 548.601562 C 1521.332031 549.132812 1521.265625 549.933594 1521.398438 551 L 1521.601562 553.199219 C 1521.601562 557.867188 1521.800781 560.933594 1522.199219 562.398438 C 1523.132812 565.867188 1522.933594 569.199219 1521.601562 572.398438 C 1520.800781 574.265625 1518.132812 575.398438 1513.601562 575.800781 L 1503.601562 576.398438 L 1487.601562 577 L 1471.601562 576.800781 L 1458 575.800781 L 1444.398438 574.398438 L 1392 576.199219 C 1370.800781 577.132812 1353.265625 576.867188 1339.398438 575.398438 L 1318.800781 574.800781 L 1308.800781 575.800781 L 1298.601562 576.800781 L 1261.199219 576.800781 L 1224.398438 574.800781 C 1219.066406 574.265625 1212.265625 574.132812 1204 574.398438 L 1183.800781 575 L 1169.800781 574.601562 L 1155.800781 575 L 1140.800781 576.601562 L 1125.601562 575.398438 C 1111.734375 572.332031 1101.066406 571.535156 1093.601562 573 L 1069.398438 575.601562 L 1045.199219 575.800781 L 949.800781 574.800781 L 779.398438 575 L 757 574.601562 L 744.199219 576 L 731.398438 577.199219 L 723.601562 576.398438 L 715.800781 575.199219 L 696.199219 574.800781 L 619.601562 574 L 598.398438 574.398438 L 577.199219 573.800781 L 559.800781 574.398438 L 542.199219 575.398438 L 516 575.800781 C 505.066406 576.066406 496.332031 575.867188 489.800781 575.199219 L 463 574.398438 L 436.199219 575 L 410.800781 575 L 406.800781 574.398438 L 403.601562 572 L 403.199219 566.398438 L 403.398438 560.601562 L 403.800781 549.398438 L 405 547.398438 L 407.199219 545.800781 L 405.398438 543.601562 L 403.199219 541.199219 L 403.199219 537.199219 L 403 533.199219 C 401.800781 531.734375 401.132812 530.199219 401 528.601562 L 401 521 L 401.199219 517.800781 L 403 515.601562 L 403.601562 509.199219 C 403.601562 507.199219 404.066406 505.464844 405 504 L 407.199219 500 L 402.398438 496.601562 L 403 489.398438 C 402.734375 486.199219 402.933594 483.800781 403.601562 482.199219 C 404 480.734375 405.066406 479.132812 406.800781 477.398438 L 410.398438 474.800781 L 411.800781 471.800781 C 412.867188 470.332031 413.933594 469.601562 415 469.601562 L 419.800781 469.601562 L 418.398438 467.398438 L 417.199219 465 L 418.398438 463.199219 L 428.601562 452.800781 L 431.398438 450 C 432.601562 448.933594 433.734375 448.199219 434.800781 447.800781 L 443.601562 447.398438 C 443.066406 444.734375 441.535156 443.398438 439 443.398438 C 439.535156 441.800781 441.265625 439.601562 444.199219 436.800781 C 447 434.132812 448.535156 431.867188 448.800781 430 C 450.667969 429.601562 452.265625 430.066406 453.601562 431.398438 C 452.398438 430.066406 452.398438 428.332031 453.601562 426.199219 C 454.800781 424.332031 456.199219 422.800781 457.800781 421.601562 L 459 421 L 471.398438 419.398438 L 1465.800781 419.398438 L 1468.398438 421.398438 C 1470.398438 422.867188 1471.933594 424.667969 1473 426.800781 L 1472.398438 429.800781 L 1475 429.601562 L 1477.398438 429.800781 L 1479.398438 432.800781 L 1481.398438 435.398438 L 1482.199219 437.199219 L 1482 439 "/>
<path style=" stroke:none;fill-rule:nonzero;fill:rgb(39.215686%,23.529412%,11.764706%);fill-opacity:1;" d="M 1480.398438 428 C 1482.535156 429.066406 1484.199219 431.199219 1485.398438 434.398438 C 1485.800781 435.601562 1487.464844 437.601562 1490.398438 440.398438 L 1497.398438 447.800781 L 1498 449 C 1501.332031 450.332031 1503.667969 452.132812 1505 454.398438 C 1506.199219 456.535156 1506.464844 458.800781 1505.800781 461.199219 L 1510.800781 462.398438 C 1512.667969 463.199219 1515 465 1517.800781 467.800781 C 1522.199219 472.332031 1524.667969 477.265625 1525.199219 482.601562 L 1527.199219 500 C 1527.601562 501.464844 1526.601562 502.734375 1524.199219 503.800781 L 1524.199219 504 C 1527.398438 508.667969 1526.867188 513.332031 1522.601562 518 L 1524.398438 518.398438 L 1529.601562 521.800781 C 1530.398438 522.332031 1530.734375 523.066406 1530.601562 524 L 1529.199219 526 C 1528 527.066406 1527.066406 530.066406 1526.398438 535 C 1525.734375 539.933594 1526.066406 542.535156 1527.398438 542.800781 C 1528.464844 543.066406 1529 543.734375 1529 544.800781 C 1529 545.867188 1528.535156 546.734375 1527.601562 547.398438 C 1524.933594 549.535156 1524.332031 553.933594 1525.800781 560.601562 C 1527.132812 567.398438 1526.601562 571.933594 1524.199219 574.199219 C 1519.535156 578.734375 1511.066406 581.066406 1498.800781 581.199219 L 1471.398438 579.800781 C 1444.601562 578.867188 1415.464844 578.734375 1384 579.398438 C 1369.332031 579.800781 1354.066406 579.464844 1338.199219 578.398438 C 1331.933594 578 1324 578.066406 1314.398438 578.601562 L 1290.800781 579.800781 L 1247.398438 578.398438 C 1228.734375 577.332031 1214.199219 577 1203.800781 577.398438 L 1179.601562 577.199219 L 1155.398438 578 L 1139.800781 579.398438 L 1124.199219 578.398438 L 1084.800781 576.601562 L 1044.800781 578.800781 C 968.535156 578.132812 903.199219 577.867188 848.800781 578 L 794.601562 578 L 772.398438 577.199219 L 750.398438 578 L 711.601562 579.398438 L 672.800781 577.601562 L 628 578 L 583 577.199219 C 573.667969 576.667969 559.132812 576.933594 539.398438 578 C 520.199219 579.199219 505.667969 579.398438 495.800781 578.601562 C 487.667969 578.066406 472.933594 578.199219 451.601562 579 C 432.667969 579.800781 417.933594 579.464844 407.398438 578 C 402.066406 577.332031 399.132812 573.464844 398.601562 566.398438 L 400 549.800781 C 400.265625 547.265625 400.933594 545.933594 402 545.800781 L 399.601562 543 C 398.800781 542.066406 398.265625 540 398 536.800781 L 397.199219 529.800781 C 396.667969 527.800781 397.464844 522.265625 399.601562 513.199219 C 401.601562 505.199219 401.535156 500.398438 399.398438 498.800781 C 398.734375 498.398438 398.398438 497.734375 398.398438 496.800781 C 399.601562 487.601562 401.332031 480.933594 403.601562 476.800781 C 406.132812 472 409.667969 468.933594 414.199219 467.601562 L 413.800781 466.800781 C 413.265625 465.867188 413.332031 464.867188 414 463.800781 C 420.667969 453.933594 427.933594 447.867188 435.800781 445.601562 L 435.398438 445 C 435 444.199219 435 443.535156 435.398438 443 L 440.398438 436.398438 L 445 429.601562 L 447.601562 427.398438 L 449.800781 427.199219 C 450.464844 424.398438 452.398438 421.933594 455.601562 419.800781 L 457.398438 418.601562 L 458 418.398438 L 460.199219 417.800781 L 491.398438 415.398438 L 524.800781 416.398438 L 1430.601562 416.398438 L 1458.800781 415.800781 C 1471.601562 417 1477.667969 420.734375 1477 427 L 1480.398438 428 M 1476.398438 434.601562 C 1475.066406 433.132812 1473.601562 432.464844 1472 432.601562 L 1469.199219 431.800781 C 1468.398438 431.132812 1468.199219 430.265625 1468.601562 429.199219 C 1470.199219 425.332031 1462.601562 423 1445.800781 422.199219 L 524.199219 422.199219 L 491.800781 421.199219 L 460.800781 423.601562 L 457.398438 430.398438 C 457.667969 431.867188 457 433 455.398438 433.800781 L 451.398438 434 L 450.800781 433.800781 L 447.199219 438.199219 C 445.601562 440.332031 445.535156 442.800781 447 445.601562 C 447.667969 446.800781 447.535156 447.933594 446.601562 449 C 445.667969 449.933594 444.535156 450.398438 443.199219 450.398438 C 439.066406 450.265625 434.332031 452.132812 429 456 C 423 460.132812 421.132812 464.066406 423.398438 467.800781 C 424.066406 468.867188 423.867188 469.933594 422.800781 471 C 421.734375 471.933594 420.601562 472.398438 419.398438 472.398438 C 414.601562 472.398438 410.867188 475.867188 408.199219 482.800781 C 405.398438 489.867188 406 494.800781 410 497.601562 C 411.066406 498.265625 411.332031 499.199219 410.800781 500.398438 C 407.734375 507.601562 406 515 405.601562 522.601562 C 405.066406 531.800781 406.734375 539 410.601562 544.199219 C 411.800781 545.535156 411.199219 546.867188 408.800781 548.199219 C 407.464844 549.132812 406.867188 553.132812 407 560.199219 C 407.132812 566.867188 407.464844 570.464844 408 571 L 416 572.800781 L 424.601562 572.199219 L 459.601562 571.601562 C 469.199219 571.332031 483 571.464844 501 572 L 542.601562 572.398438 C 576.734375 571.867188 628.066406 571.734375 696.601562 572 L 727.398438 574 L 746.199219 573.199219 L 764.800781 571.601562 L 841.601562 572 L 1005.800781 572.398438 L 1049.398438 573.398438 L 1092.800781 570.199219 L 1121.398438 571.199219 L 1149.800781 572.800781 C 1167.265625 570.800781 1192.132812 570.734375 1224.398438 572.601562 C 1258.667969 574.601562 1283.535156 575 1299 573.800781 C 1309 573 1322.066406 572.800781 1338.199219 573.199219 L 1377.199219 573.800781 L 1411.601562 571.800781 C 1425.464844 571 1436.867188 570.867188 1445.800781 571.398438 L 1486.199219 574.800781 C 1508.734375 575.199219 1519.464844 571.398438 1518.398438 563.398438 C 1517.601562 557.800781 1517.265625 554.132812 1517.398438 552.398438 C 1517.667969 550.398438 1518.332031 548.601562 1519.398438 547 L 1518.601562 545.800781 L 1519.800781 531.398438 C 1520.066406 526.464844 1518.066406 523.398438 1513.800781 522.199219 C 1512.734375 521.933594 1512.199219 521.265625 1512.199219 520.199219 C 1512.199219 519.132812 1512.601562 518.265625 1513.398438 517.601562 L 1514.601562 504.601562 C 1513.800781 503.800781 1513.867188 502.867188 1514.800781 501.800781 C 1515.601562 501 1516.464844 500.464844 1517.398438 500.199219 L 1519.199219 499.601562 C 1517.867188 490.265625 1516.535156 483.464844 1515.199219 479.199219 C 1512.535156 471.199219 1507.199219 467 1499.199219 466.601562 L 1497 465.199219 C 1496.601562 464.398438 1496.734375 463.535156 1497.398438 462.601562 C 1498.734375 460.734375 1498.398438 458.800781 1496.398438 456.800781 C 1494.800781 455.066406 1492.800781 453.867188 1490.398438 453.199219 C 1489.332031 452.933594 1488.800781 452.265625 1488.800781 451.199219 C 1488.800781 450.132812 1489.199219 449.265625 1490 448.601562 L 1480.800781 442 C 1478.933594 441.464844 1478.066406 440.601562 1478.199219 439.398438 C 1478.332031 437.535156 1477.734375 435.933594 1476.398438 434.601562 "/>
<path style=" stroke:none;fill-rule:nonzero;fill:rgb(39.215686%,23.529412%,11.764706%);fill-opacity:1;" d="M 1453.800781 434 L 1433.199219 433.398438 C 1430.535156 433.398438 1429.398438 432.464844 1429.800781 430.601562 C 1430.199219 428.601562 1431.535156 427.601562 1433.800781 427.601562 L 1462.398438 427.601562 L 1470.398438 425.601562 C 1472.535156 424.535156 1474.199219 424.734375 1475.398438 426.199219 C 1476.734375 427.667969 1476.199219 429 1473.800781 430.199219 C 1468.867188 432.601562 1462.199219 433.867188 1453.800781 434 "/>
<path style=" stroke:none;fill-rule:nonzero;fill:rgb(39.215686%,23.529412%,11.764706%);fill-opacity:1;" d="M 1486.398438 438 L 1487.800781 438.800781 L 1487 440.199219 C 1485.132812 441.535156 1483.332031 442 1481.601562 441.601562 L 1473.601562 442 L 1465.398438 443.398438 C 1463.265625 443.398438 1462.601562 442.800781 1463.398438 441.601562 C 1464.332031 440.535156 1466.066406 439.867188 1468.601562 439.601562 L 1477.398438 438.199219 L 1486.398438 438 "/>
<path style=" stroke:none;fill-rule:nonzero;fill:rgb(39.215686%,23.529412%,11.764706%);fill-opacity:1;" d="M 1470 466.800781 C 1470.800781 465.332031 1472.535156 464.601562 1475.199219 464.601562 L 1489 464.398438 L 1493.398438 464.199219 C 1495.132812 464.066406 1496.332031 463.601562 1497 462.800781 C 1498.199219 461.464844 1499.933594 461.066406 1502.199219 461.601562 C 1504.464844 462 1504.867188 463.066406 1503.398438 464.800781 C 1500.867188 467.601562 1496.601562 469.132812 1490.601562 469.398438 L 1472.398438 469.800781 C 1471.601562 469.800781 1470.933594 469.535156 1470.398438 469 C 1469.734375 468.332031 1469.601562 467.601562 1470 466.800781 "/>
<path style=" stroke:none;fill-rule:nonzero;fill:rgb(39.215686%,23.529412%,11.764706%);fill-opacity:1;" d="M 1524.601562 479.398438 C 1523.265625 481 1521.734375 481.800781 1520 481.800781 C 1480.933594 481.800781 1453.667969 482.199219 1438.199219 483 C 1429.933594 483.535156 1417.933594 483.398438 1402.199219 482.601562 C 1385.800781 481.933594 1373.800781 481.734375 1366.199219 482 C 1351 482.535156 1328.199219 482.601562 1297.800781 482.199219 C 1267.398438 481.667969 1244.601562 481.667969 1229.398438 482.199219 C 1208.464844 482.867188 1182.667969 483.066406 1152 482.800781 L 1074.601562 482 L 1038.199219 483 L 1001.800781 483.398438 L 976.199219 482.398438 L 950.800781 483 C 943.464844 483.800781 933.601562 483.933594 921.199219 483.398438 L 891.601562 482.199219 L 818 482.199219 L 677.601562 483 L 536.601562 482 L 402.199219 482.398438 C 399.800781 482.398438 399.265625 481.601562 400.601562 480 C 401.800781 478.398438 403.265625 477.601562 405 477.601562 L 1523 477 C 1525.398438 477 1525.933594 477.800781 1524.601562 479.398438 "/>
<path style=" stroke:none;fill-rule:nonzero;fill:rgb(39.215686%,23.529412%,11.764706%);fill-opacity:1;" d="M 451.398438 429.601562 L 457 429 L 464.398438 430.601562 L 465.800781 431.601562 L 465 433.199219 C 463.535156 434.535156 461.734375 435.066406 459.601562 434.800781 L 450.800781 432.601562 C 449.332031 431.933594 449.535156 430.933594 451.398438 429.601562 "/>
<path style=" stroke:none;fill-rule:nonzero;fill:rgb(39.215686%,23.529412%,11.764706%);fill-opacity:1;" d="M 440 447.800781 C 440.933594 446.464844 442.601562 445.800781 445 445.800781 L 458.800781 445.800781 C 461.199219 445.800781 461.867188 446.398438 460.800781 447.601562 C 459.867188 448.933594 458.199219 449.601562 455.800781 449.601562 L 442 449.601562 C 439.601562 449.601562 438.933594 449 440 447.800781 "/>
<path style=" stroke:none;fill-rule:nonzero;fill:rgb(39.215686%,23.529412%,11.764706%);fill-opacity:1;" d="M 417.601562 468.398438 L 423.199219 467.601562 L 435.800781 468.601562 L 448.601562 468 C 451 468 451.398438 468.667969 449.800781 470 C 448.332031 471.199219 446.867188 471.800781 445.398438 471.800781 L 431.199219 472.398438 L 416.800781 471 C 415.464844 470.601562 415.734375 469.734375 417.601562 468.398438 "/>
</g>
</svg>
