<?xml version="1.0" encoding="UTF-8"?>
<svg xmlns="http://www.w3.org/2000/svg" xmlns:xlink="http://www.w3.org/1999/xlink" width="4560pt" height="1712pt" viewBox="0 0 4560 1712" version="1.1">
<g id="surface1">
<path style=" stroke:none;fill-rule:nonzero;fill:rgb(74.117647%,0%,0%);fill-opacity:1;" d="M 971.199219 229.398438 C 1039.464844 229 1099.332031 227.398438 1150.800781 224.601562 L 1225.601562 216.398438 L 1315.398438 212.199219 C 1386.601562 216.464844 1420.734375 246.734375 1417.800781 303 C 1415.933594 341.398438 1415 382.933594 1415 427.601562 L 1415.601562 715.800781 L 1414.398438 1063 C 1414 1201.535156 1414.464844 1318.199219 1415.800781 1413 C 1415.933594 1422.601562 1415.535156 1436.265625 1414.601562 1454 L 1413 1495.199219 L 1413.800781 1510.800781 C 1413.398438 1517.332031 1411.199219 1521.667969 1407.199219 1523.800781 L 1389.601562 1525 L 1371.800781 1521.199219 C 1365.667969 1519.332031 1359.535156 1515.867188 1353.398438 1510.800781 C 1351.132812 1508.933594 1349.199219 1508.332031 1347.601562 1509 C 1345.464844 1510.464844 1343.332031 1511.667969 1341.199219 1512.601562 C 1329.332031 1518.734375 1319.667969 1522.066406 1312.199219 1522.601562 C 1301 1523.398438 1292.734375 1518.734375 1287.398438 1508.601562 C 1276.867188 1516.464844 1266.265625 1519.199219 1255.601562 1516.800781 C 1239.464844 1513.066406 1228.800781 1511.535156 1223.601562 1512.199219 L 1220.398438 1512.800781 C 1213.066406 1514.398438 1203.867188 1519.199219 1192.800781 1527.199219 C 1180.398438 1536.398438 1171.601562 1542 1166.398438 1544 C 1159.601562 1546.667969 1150.199219 1547.667969 1138.199219 1547 C 1123.398438 1546.332031 1113.734375 1546.332031 1109.199219 1547 C 1101.601562 1548.066406 1094.867188 1550.464844 1089 1554.199219 L 1071.398438 1566.800781 C 1057.398438 1576.132812 1037.066406 1580.601562 1010.398438 1580.199219 L 977 1578.601562 C 963.667969 1577.933594 953.132812 1577.867188 945.398438 1578.398438 C 936.066406 1578.933594 925.667969 1581.464844 914.199219 1586 L 883.800781 1597.601562 C 873.398438 1600.800781 860.667969 1602.535156 845.601562 1602.800781 L 806.398438 1602.398438 L 761.398438 1603.601562 C 743.398438 1603.464844 728.734375 1601.464844 717.398438 1597.601562 C 709.933594 1594.933594 701.332031 1590.800781 691.601562 1585.199219 C 683.464844 1581.464844 674.601562 1580.800781 665 1583.199219 C 642.332031 1588.800781 623.601562 1591.734375 608.800781 1592 C 589.601562 1592.398438 571.265625 1588.734375 553.800781 1581 C 543.667969 1592.601562 525.398438 1598.933594 499 1600 L 437.199219 1595.199219 C 430.535156 1594.132812 420.800781 1590.332031 408 1583.800781 C 395.464844 1577.265625 385.601562 1573.601562 378.398438 1572.800781 C 370.667969 1571.867188 363.601562 1573.800781 357.199219 1578.601562 C 345.464844 1587.265625 339.132812 1591.800781 338.199219 1592.199219 L 323.199219 1598.398438 L 307.800781 1603 L 296.199219 1605 L 285 1603 L 274 1600 L 261.800781 1597.601562 L 248.199219 1597.199219 L 234.398438 1597.601562 C 217.601562 1597.601562 200.398438 1593.734375 182.800781 1586 C 172.535156 1581.464844 156.464844 1573.398438 134.601562 1561.800781 C 119.265625 1575.398438 97.867188 1580.265625 70.398438 1576.398438 C 42.667969 1572.535156 23.535156 1561.734375 13 1544 C 3.265625 1527.601562 2.066406 1506 9.398438 1479.199219 C 20.464844 1449.066406 27.734375 1427.601562 31.199219 1414.800781 C 39.867188 1383.464844 44.867188 1346.332031 46.199219 1303.398438 L 46 1190.398438 L 47.199219 887 C 47.464844 768.332031 46.066406 667.265625 43 583.800781 C 42.066406 559.132812 39.867188 522.867188 36.398438 475 C 32.933594 426.066406 30.734375 389.800781 29.800781 366.199219 L 27 304.800781 C 25.933594 281.066406 25.800781 260.601562 26.601562 243.398438 L 408.601562 230.800781 C 511.800781 229.199219 639.199219 228.667969 790.800781 229.199219 L 971.199219 229.398438 "/>
<path style=" stroke:none;fill-rule:nonzero;fill:rgb(56.862745%,0%,0%);fill-opacity:1;" d="M 1215 738.199219 L 1215.398438 724.199219 L 1216.398438 758 L 1216.800781 760.601562 C 1217.332031 763.398438 1217.464844 769.535156 1217.199219 779 L 1220.800781 843.601562 L 1229.601562 978 C 1232.535156 1029.199219 1233.800781 1074 1233.398438 1112.398438 L 1231.398438 1188 L 1229.800781 1263.601562 L 1229.800781 1434.800781 L 1231.800781 1465.601562 C 1232.867188 1485.066406 1233.066406 1500.464844 1232.398438 1511.800781 L 1223.601562 1512.199219 L 1220.398438 1512.800781 L 1214.398438 1514.601562 C 1214.132812 1503.800781 1215.199219 1488.933594 1217.601562 1470 L 1221.601562 1440 C 1223.601562 1394.800781 1224.398438 1345.667969 1224 1292.601562 C 1223.601562 1232.867188 1222.535156 1148 1220.800781 1038 L 1217.199219 783.398438 L 1217.199219 779 L 1216.398438 758 C 1215.464844 752.800781 1215 746.199219 1215 738.199219 "/>
<path style=" stroke:none;fill-rule:nonzero;fill:rgb(56.862745%,0%,0%);fill-opacity:1;" d="M 1195.601562 196.800781 C 1196 186.398438 1198.132812 183.066406 1202 186.800781 C 1204.933594 189.601562 1205.933594 198.066406 1205 212.199219 L 1202.398438 240.199219 L 1201.199219 316.199219 C 1200.667969 346.066406 1200.667969 371.398438 1201.199219 392.199219 C 1202 426.464844 1202.199219 452.199219 1201.800781 469.398438 C 1201.265625 497.933594 1199.199219 523.398438 1195.601562 545.800781 L 1195.601562 523.199219 L 1194.601562 399.199219 C 1194.601562 394.667969 1194.132812 386.265625 1193.199219 374 C 1192.398438 363.734375 1192.132812 355.332031 1192.398438 348.800781 L 1195.199219 290 C 1195.601562 276.667969 1195.398438 265 1194.601562 255 L 1194.800781 236.199219 L 1196 217.199219 L 1195.601562 196.800781 "/>
<path style=" stroke:none;fill-rule:nonzero;fill:rgb(56.862745%,0%,0%);fill-opacity:1;" d="M 1250.398438 206.398438 C 1251.867188 202.933594 1253.601562 201.535156 1255.601562 202.199219 C 1257.332031 202.601562 1258.867188 204.535156 1260.199219 208 C 1261.132812 210.800781 1261.535156 214.933594 1261.398438 220.398438 L 1260.800781 233.398438 C 1260.800781 262.734375 1260.601562 282.265625 1260.199219 292 L 1258.601562 350.199219 C 1258.199219 375.667969 1257.667969 395.132812 1257 408.601562 L 1254.601562 456.800781 L 1253.199219 494.800781 L 1253.199219 393.398438 L 1252.601562 285.398438 L 1252.601562 241.398438 L 1249.398438 224 C 1248.066406 217.066406 1248.398438 211.199219 1250.398438 206.398438 "/>
<path style=" stroke:none;fill-rule:nonzero;fill:rgb(56.862745%,0%,0%);fill-opacity:1;" d="M 1288.800781 217.601562 L 1289.601562 450.398438 L 1290.398438 683.199219 C 1290.398438 736 1291.535156 815.199219 1293.800781 920.800781 C 1295.933594 1026.398438 1297 1105.667969 1297 1158.601562 C 1297 1194.601562 1296.535156 1275.933594 1295.601562 1402.601562 L 1296.800781 1456.398438 C 1297.066406 1461.734375 1297.132812 1470 1297 1481.199219 C 1297 1491.199219 1297.667969 1499.332031 1299 1505.601562 L 1301.199219 1513.800781 C 1302.132812 1517.132812 1302.667969 1519.800781 1302.800781 1521.800781 C 1296.265625 1520.066406 1291.132812 1515.667969 1287.398438 1508.601562 L 1285 1510.199219 L 1284.398438 1282.601562 L 1285.398438 1259.601562 L 1287 1236.800781 C 1289 1197.199219 1289.601562 1147.132812 1288.800781 1086.601562 L 1287 936.199219 L 1287.800781 575 L 1288.601562 217.601562 L 1288.800781 217.601562 "/>
<path style=" stroke:none;fill-rule:nonzero;fill:rgb(56.862745%,0%,0%);fill-opacity:1;" d="M 1333.800781 791.199219 L 1334 588.800781 C 1334.667969 621.332031 1336.132812 663.867188 1338.398438 716.398438 C 1341.464844 786.535156 1343 839.199219 1343 874.398438 C 1343 908.265625 1344.867188 958.601562 1348.601562 1025.398438 C 1352.199219 1092.066406 1354 1142 1354 1175.199219 L 1354 1481.601562 L 1354.601562 1493.398438 L 1355 1512.199219 L 1353.398438 1510.800781 C 1351.132812 1508.933594 1349.199219 1508.332031 1347.601562 1509 C 1345.464844 1510.464844 1343.332031 1511.667969 1341.199219 1512.601562 L 1331.601562 1517.199219 L 1334.199219 1503.800781 L 1336 1478.800781 L 1337.601562 1453.601562 L 1342.398438 1403.800781 C 1344 1384.867188 1344.800781 1368.265625 1344.800781 1354 L 1344.800781 1182 C 1344.800781 1138.667969 1343 1073.734375 1339.398438 987.199219 C 1335.667969 900.535156 1333.800781 835.199219 1333.800781 791.199219 "/>
<path style=" stroke:none;fill-rule:nonzero;fill:rgb(56.862745%,0%,0%);fill-opacity:1;" d="M 1320.601562 215.398438 C 1321.933594 210.066406 1324.265625 205.535156 1327.601562 201.800781 C 1331.199219 197.800781 1334.867188 196.332031 1338.601562 197.398438 C 1342.332031 198.464844 1344.199219 201.535156 1344.199219 206.601562 L 1344.199219 239 L 1345.199219 371.601562 C 1345.199219 383.734375 1343.667969 397 1340.601562 411.398438 C 1339.933594 414.734375 1339.601562 420.464844 1339.601562 428.601562 C 1339.601562 436.199219 1339.066406 441.867188 1338 445.601562 L 1338 321.199219 C 1338 305.867188 1337.464844 294.265625 1336.398438 286.398438 C 1334.667969 273.066406 1331.132812 262.066406 1325.800781 253.398438 L 1325.398438 278 L 1325.398438 285.601562 L 1324.601562 264 C 1324.066406 253.199219 1322.535156 242.066406 1320 230.601562 C 1318.933594 225.800781 1319.132812 220.734375 1320.601562 215.398438 "/>
<path style=" stroke:none;fill-rule:nonzero;fill:rgb(56.862745%,0%,0%);fill-opacity:1;" d="M 202.398438 1043.800781 C 206.535156 1015.800781 208.800781 993.464844 209.199219 976.800781 L 210.800781 1262.601562 C 209.867188 1374.199219 204.066406 1470 193.398438 1550 L 189 1588.601562 C 182.066406 1585.933594 173.265625 1581.800781 162.601562 1576.199219 L 134.601562 1561.800781 C 128.066406 1567.535156 119.667969 1571.800781 109.398438 1574.601562 L 111.800781 1566.800781 C 114.734375 1557.332031 118.199219 1543.199219 122.199219 1524.398438 C 126.332031 1505.066406 129.800781 1490.867188 132.601562 1481.800781 L 151.601562 1421.601562 C 158.265625 1398.398438 162.398438 1377.734375 164 1359.601562 C 166.933594 1325.734375 171.199219 1285.332031 176.800781 1238.398438 L 191.398438 1117.199219 L 202.398438 1043.800781 "/>
<path style=" stroke:none;fill-rule:nonzero;fill:rgb(56.862745%,0%,0%);fill-opacity:1;" d="M 367.199219 1159.199219 C 368.265625 1065.734375 370.332031 997.800781 373.398438 955.398438 L 374.398438 1154.398438 L 376.398438 1353.398438 L 377.800781 1548.800781 L 378.800781 1572.800781 L 378.398438 1572.800781 C 370.667969 1571.867188 363.601562 1573.800781 357.199219 1578.601562 C 345.464844 1587.265625 339.132812 1591.800781 338.199219 1592.199219 C 330.601562 1595.933594 321.933594 1599.132812 312.199219 1601.800781 L 317.199219 1592.199219 L 339.601562 1542.800781 C 347.066406 1524.265625 351.535156 1506.601562 353 1489.800781 C 354.199219 1476.066406 355.332031 1454.867188 356.398438 1426.199219 C 357.332031 1398.332031 358.464844 1377.265625 359.800781 1363 C 363.800781 1316.199219 366.265625 1248.265625 367.199219 1159.199219 "/>
<path style=" stroke:none;fill-rule:nonzero;fill:rgb(56.862745%,0%,0%);fill-opacity:1;" d="M 578.199219 1168 C 580.066406 1153.066406 581 1141.398438 581 1133 L 580.800781 1151.800781 L 581.398438 1171 C 582.332031 1178.332031 582.867188 1187.132812 583 1197.398438 L 582.800781 1223.800781 C 582.800781 1236.066406 582.066406 1259.199219 580.601562 1293.199219 L 580 1326.199219 L 579.199219 1359.199219 L 578.199219 1421.800781 L 579.601562 1462.398438 L 581.199219 1503.199219 C 579.734375 1560.535156 579.667969 1589.332031 581 1589.601562 C 571.933594 1588 562.867188 1585.132812 553.800781 1581 C 545.398438 1590.734375 531 1596.734375 510.601562 1599 L 525.398438 1569.601562 L 535.398438 1555.199219 L 545 1540.398438 C 547.667969 1535.601562 549.535156 1531.332031 550.601562 1527.601562 C 551.800781 1523.066406 552.199219 1517.867188 551.800781 1512 C 551.535156 1506.933594 552.066406 1500.132812 553.398438 1491.601562 C 555 1481.601562 555.867188 1474.734375 556 1471 L 556 1452.398438 L 556.601562 1433.800781 L 563 1391.199219 C 565.800781 1373.601562 567.464844 1359.398438 568 1348.601562 L 570.800781 1313.800781 C 572.265625 1298.867188 573.132812 1287.265625 573.398438 1279 L 574.199219 1241 L 574.800781 1203 L 578.199219 1168 "/>
<path style=" stroke:none;fill-rule:nonzero;fill:rgb(56.862745%,0%,0%);fill-opacity:1;" d="M 641.601562 1588.398438 C 645.464844 1581.066406 650.332031 1569.867188 656.199219 1554.800781 L 670 1521.800781 C 686.265625 1487.933594 697.398438 1462.667969 703.398438 1446 C 713.933594 1416.667969 719.464844 1389.601562 720 1364.800781 L 725.199219 1475.800781 C 727.464844 1520.332031 727 1557.332031 723.800781 1586.800781 L 722.398438 1599.199219 L 717.398438 1597.601562 C 709.933594 1594.933594 701.332031 1590.800781 691.601562 1585.199219 C 683.464844 1581.464844 674.601562 1580.800781 665 1583.199219 L 641.601562 1588.398438 "/>
<path style=" stroke:none;fill-rule:nonzero;fill:rgb(56.862745%,0%,0%);fill-opacity:1;" d="M 1055.601562 615.800781 L 1053.199219 642.800781 C 1053.734375 662.800781 1056.734375 687.332031 1062.199219 716.398438 L 1077.601562 786.398438 C 1084.667969 816.132812 1089.601562 839.398438 1092.398438 856.199219 C 1103.601562 922.867188 1110 1002.933594 1111.601562 1096.398438 C 1112.535156 1150.265625 1112.535156 1230.800781 1111.601562 1338 C 1111.601562 1358.535156 1112.535156 1393.066406 1114.398438 1441.601562 C 1116.132812 1486.667969 1116.867188 1521.601562 1116.601562 1546.398438 L 1109.199219 1547 C 1102.265625 1548.066406 1096 1550.199219 1090.398438 1553.398438 L 1090.601562 1549 C 1090.066406 1526.066406 1091.199219 1498.933594 1094 1467.601562 L 1101.800781 1386 C 1103.933594 1360.535156 1104.601562 1330.332031 1103.800781 1295.398438 L 1100.199219 1204.800781 C 1098.332031 1157.601562 1094.933594 1103.332031 1090 1042 L 1075.601562 879.199219 L 1059 735.601562 C 1052.601562 678.667969 1049.667969 630.535156 1050.199219 591.199219 C 1054.601562 596.265625 1056.398438 604.464844 1055.601562 615.800781 M 918.199219 1173.800781 C 925.667969 1205 930.132812 1225.734375 931.601562 1236 L 952.199219 1391.800781 L 974 1547.199219 L 978.800781 1578.800781 C 965.332031 1577.867188 954.199219 1577.734375 945.398438 1578.398438 C 936.066406 1578.933594 925.667969 1581.464844 914.199219 1586 L 883.800781 1597.601562 L 879 1598.800781 C 877.265625 1585.867188 879.332031 1569.933594 885.199219 1551 L 901.601562 1504.800781 C 905.464844 1493.066406 907.867188 1479.535156 908.800781 1464.199219 L 910 1422.398438 C 911.867188 1382.398438 912.132812 1330.800781 910.800781 1267.601562 L 908 1112 C 908.398438 1127.199219 911.800781 1147.800781 918.199219 1173.800781 "/>
<path style=" stroke:none;fill-rule:nonzero;fill:rgb(56.862745%,0%,0%);fill-opacity:1;" d="M 400.199219 231 L 398 261.398438 C 397.464844 277.265625 397.667969 301.800781 398.601562 335 C 398.867188 364.867188 396.667969 388.933594 392 407.199219 C 377.332031 465.734375 370.464844 534.734375 371.398438 614.199219 C 371.535156 628.066406 369.398438 650.265625 365 680.800781 C 362.332031 629.066406 361.464844 591.398438 362.398438 567.800781 L 368 452.601562 L 370.601562 390.601562 C 371.535156 366.601562 372 345.933594 372 328.601562 L 370.800781 288.398438 C 370.265625 266.132812 370.667969 247.132812 372 231.398438 L 400.199219 231 M 588.199219 229.199219 L 581.601562 269.800781 C 578.933594 285.800781 577.265625 299.332031 576.601562 310.398438 L 563 535.800781 C 557.933594 624.734375 555.398438 699.867188 555.398438 761.199219 L 557.199219 921.199219 C 557.332031 937.066406 557.265625 952.332031 557 967 C 557 915.132812 554.667969 858.398438 550 796.800781 C 549.199219 786.535156 547.132812 773 543.800781 756.199219 L 536.601562 716.398438 C 534.734375 701.199219 534.066406 681.535156 534.601562 657.398438 C 535.667969 630.734375 536.132812 611 536 598.199219 L 534 361.398438 C 534 307.535156 533.535156 263.535156 532.601562 229.398438 L 588.199219 229.199219 M 787.800781 229.199219 C 787.398438 248.800781 786.535156 266.398438 785.199219 282 C 783.867188 297.601562 778.464844 318 769 343.199219 C 758.464844 371.332031 752.066406 391.464844 749.800781 403.601562 L 740.398438 457.398438 C 736.667969 477.535156 733 495.464844 729.398438 511.199219 C 721.800781 543.464844 718.265625 585.867188 718.800781 638.398438 L 717 583.199219 C 716.332031 563.867188 718.667969 540.734375 724 513.800781 C 731.066406 478.199219 735.132812 455.464844 736.199219 445.601562 C 737.667969 432.132812 738.464844 414.667969 738.601562 393.199219 L 739.199219 340.800781 C 740.398438 311.867188 741.265625 274.601562 741.800781 229 L 787.800781 229.199219 M 949.601562 229.398438 L 934.199219 276.199219 C 928.867188 294.066406 925.265625 310.199219 923.398438 324.601562 C 920.332031 341 918.734375 362.667969 918.601562 389.601562 C 918.601562 427.464844 918.398438 449.933594 918 457 L 913.800781 516 C 913 484.933594 911 443.933594 907.800781 393 L 904.199219 317.199219 C 902.734375 285.332031 901.332031 260.066406 900 241.398438 L 899 229.398438 L 949.601562 229.398438 M 1110.398438 226.398438 C 1110.265625 243.066406 1105.332031 264.867188 1095.601562 291.800781 C 1082.933594 327.132812 1075.933594 347.667969 1074.601562 353.398438 C 1069.933594 373.265625 1066.667969 392.667969 1064.800781 411.601562 C 1063.199219 426.667969 1062.265625 443.535156 1062 462.199219 L 1061.800781 412 C 1062.332031 386.800781 1064.199219 366.066406 1067.398438 349.800781 C 1073.265625 320.867188 1077.132812 291 1079 260.199219 C 1080.066406 245.535156 1081.398438 234.601562 1083 227.398438 L 1110.398438 226.398438 M 913.800781 516 C 915.398438 585.066406 912.332031 645.199219 904.601562 696.398438 C 904.601562 669.066406 905.535156 638.734375 907.398438 605.398438 L 913.800781 516 M 224 304.601562 L 223.199219 453 C 223.066406 510.066406 223.398438 559.535156 224.199219 601.398438 C 215.933594 565.535156 210.535156 526.867188 208 485.398438 L 208 754.601562 C 205.601562 734.199219 203.933594 697.265625 203 643.800781 C 202.066406 594.066406 199.601562 556.199219 195.601562 530.199219 L 178.601562 414.398438 C 173.535156 367.867188 173.667969 329.199219 179 298.398438 C 182.066406 281.199219 183.800781 260.535156 184.199219 236.398438 L 225.800781 235 C 226.066406 255.933594 225.464844 279.132812 224 304.601562 "/>
<path style=" stroke:none;fill-rule:nonzero;fill:rgb(52.941176%,0%,0%);fill-opacity:1;" d="M 1210.199219 221.398438 L 1019 230.398438 C 981.535156 231.066406 917.667969 231.265625 827.398438 231 C 667.265625 230.332031 533.535156 230.734375 426.199219 232.199219 L 30.398438 244.800781 C 28.667969 293.066406 30.535156 355.667969 36 432.601562 C 43.332031 534.199219 47.398438 597.535156 48.199219 622.601562 C 50.867188 715.398438 51.667969 843.066406 50.601562 1005.601562 L 50 1196.800781 L 50.800781 1283.601562 C 50.398438 1316.933594 48.265625 1345.667969 44.398438 1369.800781 C 40.535156 1394.464844 33.667969 1420 23.800781 1446.398438 C 17.265625 1464.265625 13.132812 1476.535156 11.398438 1483.199219 C 7.800781 1497.867188 7.066406 1510.667969 9.199219 1521.601562 C 14.265625 1546.398438 30.933594 1563.332031 59.199219 1572.398438 C 87.332031 1581.464844 111.265625 1578 131 1562 C 133.667969 1560 136.066406 1559.464844 138.199219 1560.398438 C 145 1563.734375 155.132812 1569.066406 168.601562 1576.398438 C 180.601562 1582.667969 191.066406 1587.132812 200 1589.800781 C 208.265625 1592.464844 219 1593.933594 232.199219 1594.199219 L 264.199219 1596 L 288 1601 C 297.066406 1602.734375 305.066406 1602.601562 312 1600.601562 C 319.867188 1598.199219 328.332031 1594.265625 337.398438 1588.800781 L 360.800781 1574.398438 C 370.800781 1568.800781 383.464844 1569.398438 398.800781 1576.199219 L 417.199219 1585.601562 C 424.398438 1589.199219 430.265625 1591.464844 434.800781 1592.398438 C 492.535156 1604.667969 531.066406 1601 550.398438 1581.398438 L 553.398438 1579.601562 C 555 1579.199219 556.199219 1579.199219 557 1579.601562 C 573.800781 1586.398438 591.800781 1589.535156 611 1589 C 623 1588.601562 641.265625 1586.132812 665.800781 1581.601562 C 675.132812 1579.867188 684.464844 1580.933594 693.800781 1584.800781 C 704.601562 1590.132812 713.535156 1593.867188 720.601562 1596 C 734.066406 1600.132812 751 1602.132812 771.398438 1602 C 794.464844 1601.066406 811.667969 1600.734375 823 1601 C 838.734375 1601.265625 850.933594 1601 859.601562 1600.199219 C 872.800781 1599 884.667969 1596.265625 895.199219 1592 L 910.199219 1585.800781 C 916.199219 1583.398438 921.332031 1581.667969 925.601562 1580.601562 C 935.601562 1577.933594 947.066406 1576.601562 960 1576.601562 L 994.601562 1577.800781 L 1025.199219 1578.800781 C 1036.933594 1578.398438 1046.867188 1576.601562 1055 1573.398438 C 1059.800781 1571.535156 1065.265625 1568.398438 1071.398438 1564 L 1086.601562 1553.601562 C 1094.332031 1549.199219 1103.066406 1546.535156 1112.800781 1545.601562 C 1118.132812 1545.066406 1127.398438 1545 1140.601562 1545.398438 C 1153.535156 1545.800781 1167.332031 1541.332031 1182 1532 C 1200.265625 1520.265625 1212.933594 1513.398438 1220 1511.398438 L 1222.199219 1511.199219 L 1253.398438 1513.601562 C 1266.066406 1515.464844 1276.464844 1513.734375 1284.601562 1508.398438 C 1285.398438 1507.734375 1286.535156 1507.199219 1288 1506.800781 L 1291.398438 1507.398438 C 1297 1516.601562 1305.132812 1520.601562 1315.800781 1519.398438 C 1322.199219 1518.734375 1331.464844 1515.332031 1343.601562 1509.199219 L 1350.800781 1507 C 1353.066406 1506.867188 1355.667969 1507.933594 1358.601562 1510.199219 L 1365.398438 1515.398438 C 1371.132812 1518.332031 1377.933594 1520.265625 1385.800781 1521.199219 L 1407 1522.199219 C 1410.332031 1522.332031 1411.464844 1499.066406 1410.398438 1452.398438 C 1408.535156 1403.464844 1407.667969 1376.734375 1407.800781 1372.199219 C 1409.667969 1324.601562 1410.800781 1270.199219 1411.199219 1209 L 1411.601562 1045.601562 L 1410 707.601562 C 1409.464844 572.667969 1410.132812 459.933594 1412 369.398438 L 1414 331.800781 C 1414.800781 315.398438 1414.535156 301.867188 1413.199219 291.199219 C 1409.601562 260 1396.199219 240.535156 1373 232.800781 C 1349.535156 224.933594 1322.601562 220.265625 1292.199219 218.800781 L 1210.199219 221.398438 M 1300.398438 215.601562 C 1326.667969 217.066406 1350.199219 220.867188 1371 227 C 1390.464844 232.601562 1403.464844 240.734375 1410 251.398438 C 1415.464844 260.332031 1418.800781 271.867188 1420 286 L 1420.398438 322.398438 C 1419.734375 542.535156 1419.398438 806.800781 1419.398438 1115.199219 L 1420.398438 1212.601562 C 1420.667969 1251.265625 1420.132812 1283.667969 1418.800781 1309.800781 L 1416.398438 1358.398438 C 1415.601562 1377.066406 1415.398438 1393.332031 1415.800781 1407.199219 L 1417.601562 1450.601562 L 1418.199219 1494 L 1418.800781 1513 C 1418 1520.199219 1414.398438 1524.332031 1408 1525.398438 C 1400.265625 1526.734375 1391.734375 1526.867188 1382.398438 1525.800781 C 1372.132812 1524.464844 1364.066406 1521.933594 1358.199219 1518.199219 C 1353.132812 1514.867188 1349.132812 1513.265625 1346.199219 1513.398438 L 1334 1517.800781 L 1313.800781 1524 C 1301.933594 1526.132812 1292.398438 1522.199219 1285.199219 1512.199219 C 1277.464844 1516.734375 1270.601562 1519.132812 1264.601562 1519.398438 C 1259.933594 1519.667969 1252.535156 1518.601562 1242.398438 1516.199219 C 1233.332031 1514.066406 1226 1513.398438 1220.398438 1514.199219 C 1213.601562 1516.066406 1205.667969 1520.398438 1196.601562 1527.199219 C 1185.933594 1535.199219 1178.265625 1540.265625 1173.601562 1542.398438 C 1164.667969 1546.398438 1157.066406 1548.464844 1150.800781 1548.601562 L 1122.398438 1547.601562 C 1110.535156 1547.332031 1101.535156 1549 1095.398438 1552.601562 L 1071.601562 1567.601562 C 1062.535156 1573.066406 1053.933594 1576.800781 1045.800781 1578.800781 C 1037 1580.933594 1026.667969 1582.066406 1014.800781 1582.199219 L 983.601562 1580.800781 L 963.601562 1579.601562 C 955.867188 1579.332031 949.199219 1579.464844 943.601562 1580 C 935.867188 1580.800781 927.066406 1583.066406 917.199219 1586.800781 L 891.601562 1596.398438 C 874 1602.265625 851.867188 1604.933594 825.199219 1604.398438 C 819.464844 1604.265625 805.535156 1604.601562 783.398438 1605.398438 C 765.933594 1606.066406 751.933594 1605.800781 741.398438 1604.601562 C 726.464844 1602.867188 715.132812 1600.132812 707.398438 1596.398438 L 692.398438 1588.800781 C 686.398438 1585.867188 679.734375 1584.464844 672.398438 1584.601562 L 651.601562 1587.601562 C 627.332031 1593.332031 606.933594 1595.199219 590.398438 1593.199219 L 570.800781 1588 L 554.398438 1583.800781 L 538.199219 1593.800781 C 526.601562 1599 512.066406 1601.601562 494.601562 1601.601562 L 434.800781 1596.800781 C 430.132812 1596.132812 424 1593.933594 416.398438 1590.199219 L 396.398438 1580.398438 C 380 1573.066406 367.332031 1573 358.398438 1580.199219 C 345.199219 1590.734375 331.734375 1598 318 1602 C 302.535156 1606.398438 287.464844 1606.464844 272.800781 1602.199219 C 264.667969 1599.800781 251.464844 1598.464844 233.199219 1598.199219 C 215.867188 1597.933594 202.667969 1596.199219 193.601562 1593 C 184.667969 1589.800781 174.132812 1585.132812 162 1579 L 133.800781 1564.800781 C 124.332031 1571.464844 114 1575.667969 102.800781 1577.398438 C 85.332031 1580.199219 68.734375 1579.464844 53 1575.199219 C 35.398438 1570.398438 21.601562 1561.601562 11.601562 1548.800781 C -0.535156 1533.199219 -3.132812 1511.867188 3.800781 1484.800781 C 5.933594 1476.398438 9.601562 1465.132812 14.800781 1451 L 25.800781 1420.398438 C 33.933594 1392.933594 39.132812 1361.332031 41.398438 1325.601562 C 42.601562 1304.535156 42.933594 1272.332031 42.398438 1229 C 42 1199.800781 42.132812 1134 42.800781 1031.601562 L 43.398438 832.199219 C 43.265625 758.332031 42.332031 691.867188 40.601562 632.800781 C 39.800781 604.535156 38.332031 571.933594 36.199219 535 L 30 437.199219 L 23.800781 340.800781 C 22.066406 304.535156 21.734375 272.398438 22.800781 244.398438 C 22.800781 242.667969 24.601562 241.800781 28.199219 241.800781 L 44.199219 240.800781 C 163.132812 234.667969 294.464844 230.667969 438.199219 228.800781 C 541.535156 227.332031 672.933594 226.933594 832.398438 227.601562 C 983.199219 228.265625 1115.332031 224.667969 1228.800781 216.800781 C 1255.734375 214.933594 1279.601562 214.535156 1300.398438 215.601562 "/>
<path style=" stroke:none;fill-rule:nonzero;fill:rgb(74.117647%,0%,0%);fill-opacity:1;" d="M 3410 224.601562 C 3461.464844 227.398438 3521.398438 229 3589.800781 229.398438 L 3770.199219 229.199219 C 3921.800781 228.667969 4049.199219 229.199219 4152.398438 230.800781 L 4534.398438 243.398438 C 4535.199219 260.601562 4535.066406 281.066406 4534 304.800781 L 4531.199219 366.199219 L 4524.398438 475 C 4521.066406 522.332031 4518.933594 558.601562 4518 583.800781 C 4514.800781 667.667969 4513.332031 768.734375 4513.601562 887 L 4515 1190.398438 L 4514.800781 1303.398438 C 4516.132812 1346.332031 4521.132812 1383.464844 4529.800781 1414.800781 C 4533.398438 1427.601562 4540.667969 1449.066406 4551.601562 1479.199219 C 4558.933594 1506 4557.734375 1527.601562 4548 1544 C 4537.464844 1561.734375 4518.332031 1572.535156 4490.601562 1576.398438 C 4463.132812 1580.132812 4441.734375 1575.265625 4426.398438 1561.800781 C 4404.535156 1573.398438 4388.398438 1581.464844 4378 1586 C 4360.535156 1593.734375 4343.398438 1597.601562 4326.601562 1597.601562 L 4313 1597.199219 L 4299.199219 1597.601562 L 4287 1600 L 4276 1603 L 4264.800781 1605 L 4253 1603 L 4237.800781 1598.398438 C 4231.667969 1596.265625 4226.667969 1594.199219 4222.800781 1592.199219 L 4203.601562 1578.601562 C 4197.199219 1573.800781 4190.199219 1571.867188 4182.601562 1572.800781 C 4175.398438 1573.601562 4165.535156 1577.265625 4153 1583.800781 C 4140.199219 1590.332031 4130.464844 1594.132812 4123.800781 1595.199219 C 4099.132812 1599.066406 4078.535156 1600.667969 4062 1600 C 4035.601562 1598.933594 4017.265625 1592.601562 4007 1581 C 3989.535156 1588.734375 3971.199219 1592.398438 3952 1592 C 3937.332031 1591.734375 3918.601562 1588.800781 3895.800781 1583.199219 C 3886.332031 1580.800781 3877.535156 1581.464844 3869.398438 1585.199219 C 3859.800781 1590.800781 3851.199219 1594.933594 3843.601562 1597.601562 C 3832.265625 1601.464844 3817.601562 1603.464844 3799.601562 1603.601562 L 3754.601562 1602.398438 L 3715.398438 1602.800781 C 3700.332031 1602.535156 3687.601562 1600.800781 3677.199219 1597.601562 L 3646.800781 1586 C 3635.332031 1581.464844 3624.933594 1578.933594 3615.601562 1578.398438 C 3607.867188 1577.867188 3597.265625 1577.933594 3583.800781 1578.601562 L 3550.601562 1580.199219 C 3523.933594 1580.601562 3503.601562 1576.132812 3489.601562 1566.800781 L 3471.800781 1554.199219 C 3465.800781 1550.464844 3459 1548.066406 3451.398438 1547 C 3446.867188 1546.332031 3437.265625 1546.332031 3422.601562 1547 C 3410.734375 1547.667969 3401.332031 1546.667969 3394.398438 1544 C 3389.199219 1542 3380.398438 1536.398438 3368 1527.199219 C 3356.933594 1519.199219 3347.667969 1514.398438 3340.199219 1512.800781 L 3337 1512.199219 C 3331.933594 1511.535156 3321.332031 1513.066406 3305.199219 1516.800781 C 3294.535156 1519.199219 3283.867188 1516.464844 3273.199219 1508.601562 C 3268 1518.867188 3259.800781 1523.535156 3248.601562 1522.601562 C 3241.132812 1522.066406 3231.464844 1518.734375 3219.601562 1512.601562 L 3213.199219 1509 C 3211.601562 1508.332031 3209.667969 1508.933594 3207.398438 1510.800781 C 3201.398438 1515.734375 3195.265625 1519.199219 3189 1521.199219 C 3183.398438 1523.066406 3177.332031 1524.132812 3170.800781 1524.398438 L 3152.398438 1522.601562 C 3147.464844 1521.398438 3144.734375 1517.535156 3144.199219 1511 L 3144.800781 1494.398438 L 3144.601562 1476.199219 C 3144.464844 1468.867188 3144.535156 1462.800781 3144.800781 1458 C 3144.933594 1455.332031 3145.800781 1448.535156 3147.398438 1437.601562 L 3147.800781 1428.398438 L 3147.398438 1362.398438 L 3146.601562 1346.199219 L 3145.800781 1330 L 3146.398438 1187 L 3145.800781 950.601562 L 3145.199219 715.800781 L 3145.800781 427.601562 C 3145.800781 382.933594 3144.867188 341.398438 3143 303 C 3140.199219 246.734375 3174.332031 216.464844 3245.398438 212.199219 L 3335.199219 216.398438 L 3410 224.601562 "/>
<path style=" stroke:none;fill-rule:nonzero;fill:rgb(56.862745%,0%,0%);fill-opacity:1;" d="M 3344 760.601562 L 3344.398438 758 L 3343.601562 779 C 3343.066406 770.601562 3343.199219 764.464844 3344 760.601562 M 3343.601562 779 L 3343.601562 783.398438 L 3340 1038 C 3338.132812 1149.332031 3337 1234.199219 3336.601562 1292.601562 C 3336.332031 1350.601562 3337.199219 1399.734375 3339.199219 1440 L 3343.199219 1470 C 3345.464844 1488.933594 3346.535156 1503.800781 3346.398438 1514.601562 L 3340.199219 1512.800781 L 3337 1512.199219 L 3328.398438 1511.800781 C 3327.734375 1500.464844 3327.933594 1485.066406 3329 1465.601562 L 3330.800781 1434.800781 L 3330.800781 1263.601562 L 3329.199219 1188 C 3328.132812 1153.066406 3327.535156 1127.867188 3327.398438 1112.398438 C 3327 1074.265625 3328.265625 1029.464844 3331.199219 978 L 3339.800781 843.601562 L 3343.601562 779 M 3345.601562 722 L 3345.800781 738.199219 C 3345.800781 746.199219 3345.332031 752.800781 3344.398438 758 L 3345.601562 722 "/>
<path style=" stroke:none;fill-rule:nonzero;fill:rgb(56.862745%,0%,0%);fill-opacity:1;" d="M 3364.800781 217.199219 C 3366.398438 234.132812 3366.867188 246.734375 3366.199219 255 C 3365.265625 266.601562 3365.066406 278.265625 3365.601562 290 L 3368.398438 348.800781 C 3368.667969 355.332031 3368.398438 363.734375 3367.601562 374 C 3366.667969 386.265625 3366.199219 394.667969 3366.199219 399.199219 L 3365.199219 523.199219 L 3365.199219 545.800781 C 3361.601562 523.535156 3359.464844 498.066406 3358.800781 469.398438 C 3358.535156 453 3358.800781 427.265625 3359.601562 392.199219 C 3360.132812 371.132812 3360.132812 345.800781 3359.601562 316.199219 L 3358.199219 240.199219 L 3355.800781 212.199219 C 3354.734375 198.066406 3355.667969 189.601562 3358.601562 186.800781 C 3362.464844 183.066406 3364.601562 186.398438 3365 196.800781 L 3364.800781 217.199219 "/>
<path style=" stroke:none;fill-rule:nonzero;fill:rgb(56.862745%,0%,0%);fill-opacity:1;" d="M 3311.398438 224 L 3308.199219 241.398438 C 3307.933594 247.265625 3307.867188 254.601562 3308 263.398438 L 3308.199219 285.398438 L 3307.398438 393.398438 L 3307.398438 494.601562 L 3306.199219 456.800781 L 3303.800781 408.601562 C 3303.132812 395.132812 3302.601562 375.667969 3302.199219 350.199219 L 3300.601562 292 C 3299.933594 276.265625 3299.734375 256.734375 3300 233.398438 L 3299.398438 220.398438 C 3299.132812 214.933594 3299.535156 210.800781 3300.601562 208 C 3301.933594 204.535156 3303.464844 202.601562 3305.199219 202.199219 C 3307.199219 201.535156 3308.933594 202.933594 3310.398438 206.398438 C 3312.398438 211.199219 3312.734375 217.066406 3311.398438 224 "/>
<path style=" stroke:none;fill-rule:nonzero;fill:rgb(56.862745%,0%,0%);fill-opacity:1;" d="M 3273 575 L 3273.800781 936.199219 L 3272 1086.601562 C 3271.199219 1147.132812 3271.800781 1197.199219 3273.800781 1236.800781 L 3275.398438 1259.601562 L 3276.199219 1282.601562 L 3275.800781 1510.199219 L 3273.199219 1508.601562 C 3269.464844 1515.667969 3264.398438 1520.066406 3258 1521.800781 C 3258.132812 1519.800781 3258.667969 1517.132812 3259.601562 1513.800781 L 3261.800781 1505.601562 C 3263.132812 1499.332031 3263.800781 1491.199219 3263.800781 1481.199219 L 3263.800781 1456.398438 L 3265 1402.601562 L 3263.800781 1158.601562 C 3263.800781 1105.667969 3264.933594 1026.398438 3267.199219 920.800781 C 3269.332031 815.199219 3270.398438 736 3270.398438 683.199219 L 3271.199219 450.398438 L 3272 375 L 3273 575 "/>
<path style=" stroke:none;fill-rule:nonzero;fill:rgb(56.862745%,0%,0%);fill-opacity:1;" d="M 3221.601562 987.199219 C 3217.867188 1073.734375 3216 1138.667969 3216 1182 L 3216 1354 C 3216 1368.132812 3216.800781 1384.734375 3218.398438 1403.800781 L 3223 1453.601562 L 3224.800781 1478.800781 L 3226.601562 1503.800781 L 3229 1517.199219 L 3219.601562 1512.601562 L 3213.199219 1509 C 3211.601562 1508.332031 3209.667969 1508.933594 3207.398438 1510.800781 L 3205.601562 1512.199219 L 3206.199219 1493.398438 L 3206.800781 1481.601562 L 3206.800781 1175.199219 C 3206.800781 1142 3208.667969 1092.066406 3212.398438 1025.398438 C 3216 958.601562 3217.800781 908.265625 3217.800781 874.398438 C 3217.800781 839.199219 3219.332031 786.535156 3222.398438 716.398438 L 3227 588.800781 L 3227 791.199219 C 3227 835.199219 3225.199219 900.535156 3221.601562 987.199219 "/>
<path style=" stroke:none;fill-rule:nonzero;fill:rgb(56.862745%,0%,0%);fill-opacity:1;" d="M 3240.800781 230.601562 C 3238.132812 241.933594 3236.601562 253.066406 3236.199219 264 L 3235.398438 283.398438 L 3235.398438 278 L 3235 253.398438 C 3229.535156 262.066406 3225.933594 273.066406 3224.199219 286.398438 C 3223.265625 294 3222.800781 305.601562 3222.800781 321.199219 L 3222.800781 445.601562 C 3221.734375 441.867188 3221.199219 436.199219 3221.199219 428.601562 C 3221.199219 420.464844 3220.800781 414.734375 3220 411.398438 C 3216.933594 397 3215.398438 383.734375 3215.398438 371.601562 L 3216.601562 239 L 3216.601562 206.601562 C 3216.601562 201.535156 3218.464844 198.464844 3222.199219 197.398438 C 3225.933594 196.332031 3229.601562 197.800781 3233.199219 201.800781 C 3236.535156 205.535156 3238.933594 210.066406 3240.398438 215.398438 C 3241.734375 220.734375 3241.867188 225.800781 3240.800781 230.601562 "/>
<path style=" stroke:none;fill-rule:nonzero;fill:rgb(56.862745%,0%,0%);fill-opacity:1;" d="M 4369.601562 1117.199219 L 4384.199219 1238.398438 C 4389.800781 1285.332031 4394.066406 1325.734375 4397 1359.601562 C 4398.464844 1377.601562 4402.601562 1398.265625 4409.398438 1421.601562 C 4413.265625 1435.066406 4419.601562 1455.132812 4428.398438 1481.800781 C 4431.199219 1490.867188 4434.601562 1505.066406 4438.601562 1524.398438 C 4442.601562 1543.199219 4446.066406 1557.332031 4449 1566.800781 L 4451.601562 1574.601562 C 4441.464844 1571.933594 4433.066406 1567.667969 4426.398438 1561.800781 C 4422.667969 1563.535156 4413.332031 1568.332031 4398.398438 1576.199219 L 4372 1588.601562 L 4367.601562 1550 C 4356.933594 1469.867188 4351.132812 1374.066406 4350.199219 1262.601562 L 4351.601562 976.800781 C 4352 993.464844 4354.332031 1015.800781 4358.601562 1043.800781 L 4369.601562 1117.199219 "/>
<path style=" stroke:none;fill-rule:nonzero;fill:rgb(56.862745%,0%,0%);fill-opacity:1;" d="M 4201.199219 1363 L 4204.601562 1426.199219 C 4205.667969 1454.464844 4206.800781 1475.667969 4208 1489.800781 C 4209.332031 1506.601562 4213.734375 1524.265625 4221.199219 1542.800781 C 4225.601562 1553.867188 4233.066406 1570.332031 4243.601562 1592.199219 L 4248.800781 1601.800781 C 4238.800781 1599.132812 4230.132812 1595.933594 4222.800781 1592.199219 L 4203.601562 1578.601562 C 4197.199219 1573.800781 4190.199219 1571.867188 4182.601562 1572.800781 L 4182.199219 1572.800781 L 4183 1548.800781 C 4183.132812 1491.066406 4183.667969 1425.933594 4184.601562 1353.398438 L 4186.601562 1154.398438 L 4187.601562 955.398438 C 4190.667969 997.800781 4192.734375 1065.734375 4193.800781 1159.199219 C 4194.734375 1248.265625 4197.199219 1316.199219 4201.199219 1363 "/>
<path style=" stroke:none;fill-rule:nonzero;fill:rgb(56.862745%,0%,0%);fill-opacity:1;" d="M 3986.199219 1203 L 3987.398438 1279 L 3990.199219 1313.800781 L 3992.800781 1348.601562 C 3993.332031 1359.398438 3995.066406 1373.601562 3998 1391.199219 L 4004.398438 1433.800781 L 4005 1452.398438 L 4005 1471 C 4005.132812 1475 4005.933594 1481.867188 4007.398438 1491.601562 C 4008.867188 1500.265625 4009.464844 1507.066406 4009.199219 1512 C 4008.800781 1517.867188 4009.199219 1523.066406 4010.398438 1527.601562 C 4011.332031 1531.332031 4013.199219 1535.601562 4016 1540.398438 C 4018.265625 1544.535156 4021.464844 1549.464844 4025.601562 1555.199219 L 4035.601562 1569.601562 L 4043.398438 1585.398438 L 4050.398438 1599 C 4030 1596.734375 4015.535156 1590.734375 4007 1581 C 3998.066406 1585.132812 3989.066406 1588 3980 1589.601562 C 3981.332031 1589.332031 3981.265625 1560.535156 3979.800781 1503.199219 L 3981.398438 1462.398438 L 3982.800781 1421.800781 L 3981.800781 1359.199219 L 3981 1326.199219 L 3980.398438 1293.199219 C 3978.933594 1259.199219 3978.199219 1236.066406 3978.199219 1223.800781 L 3978 1197.398438 C 3978.132812 1187 3978.601562 1178.199219 3979.398438 1171 C 3980.066406 1166.332031 3980.265625 1159.933594 3980 1151.800781 L 3980 1133 C 3980 1141.398438 3980.933594 1153.066406 3982.800781 1168 L 3986.199219 1203 "/>
<path style=" stroke:none;fill-rule:nonzero;fill:rgb(56.862745%,0%,0%);fill-opacity:1;" d="M 3835.601562 1475.800781 L 3841 1364.800781 C 3841.535156 1389.601562 3847.066406 1416.667969 3857.601562 1446 C 3863.601562 1462.667969 3874.734375 1487.933594 3891 1521.800781 L 3904.800781 1554.800781 C 3910.667969 1569.867188 3915.535156 1581.066406 3919.398438 1588.398438 L 3895.800781 1583.199219 C 3886.332031 1580.800781 3877.535156 1581.464844 3869.398438 1585.199219 C 3859.800781 1590.800781 3851.199219 1594.933594 3843.601562 1597.601562 L 3838.398438 1599.199219 L 3837 1586.800781 C 3833.933594 1557.332031 3833.464844 1520.332031 3835.601562 1475.800781 "/>
<path style=" stroke:none;fill-rule:nonzero;fill:rgb(56.862745%,0%,0%);fill-opacity:1;" d="M 3510.800781 591.199219 C 3511.332031 630.535156 3508.398438 678.667969 3502 735.601562 L 3485.398438 879.199219 L 3470.601562 1042 C 3465.667969 1102.800781 3462.265625 1157.066406 3460.398438 1204.800781 L 3457 1295.398438 C 3456.199219 1330.464844 3456.867188 1360.667969 3459 1386 L 3466.800781 1467.601562 C 3469.601562 1499.199219 3470.734375 1526.332031 3470.199219 1549 L 3470.199219 1553.398438 C 3464.867188 1550.199219 3458.601562 1548.066406 3451.398438 1547 L 3444.199219 1546.398438 C 3443.933594 1521.199219 3444.667969 1486.265625 3446.398438 1441.601562 L 3449.199219 1338 C 3448.265625 1230.800781 3448.265625 1150.265625 3449.199219 1096.398438 C 3450.800781 1002.933594 3457.199219 922.867188 3468.398438 856.199219 C 3471.199219 839.535156 3476.199219 816.265625 3483.398438 786.398438 L 3498.800781 716.398438 C 3504.265625 687.332031 3507.265625 662.800781 3507.800781 642.800781 L 3505.398438 615.800781 C 3504.601562 604.464844 3506.398438 596.265625 3510.800781 591.199219 M 3652.800781 1112 L 3650.199219 1267.601562 C 3648.867188 1331.066406 3649.132812 1382.667969 3651 1422.398438 L 3652.199219 1464.199219 C 3653.132812 1479.535156 3655.535156 1493.066406 3659.398438 1504.800781 L 3675.800781 1551 C 3681.667969 1569.933594 3683.734375 1585.867188 3682 1598.800781 L 3677.199219 1597.601562 L 3646.800781 1586 C 3635.332031 1581.464844 3624.933594 1578.933594 3615.601562 1578.398438 C 3606.800781 1577.734375 3595.601562 1577.867188 3582 1578.800781 L 3587 1547.199219 L 3608.800781 1391.800781 L 3629.398438 1236 C 3630.734375 1225.734375 3635.199219 1205 3642.800781 1173.800781 C 3649.066406 1147.800781 3652.398438 1127.199219 3652.800781 1112 "/>
<path style=" stroke:none;fill-rule:nonzero;fill:rgb(56.862745%,0%,0%);fill-opacity:1;" d="M 4028.199219 229.398438 C 4027.398438 258.601562 4027 302.601562 4027 361.398438 L 4025 598.199219 L 4026.199219 657.398438 C 4026.734375 681.667969 4026.066406 701.332031 4024.199219 716.398438 L 4017.199219 756.199219 C 4013.867188 773 4011.800781 786.535156 4011 796.800781 C 4006.867188 849.464844 4004.535156 898.734375 4004 944.601562 L 4003.800781 921.199219 L 4005.601562 761.199219 C 4005.601562 699.867188 4003.066406 624.734375 3998 535.800781 C 3991.464844 435.398438 3986.867188 360.265625 3984.199219 310.398438 C 3983.667969 299.332031 3982.066406 285.800781 3979.398438 269.800781 L 3972.800781 229.199219 L 4028.199219 229.398438 M 4189 231.398438 C 4190.332031 247.132812 4190.734375 266.132812 4190.199219 288.398438 L 4189 328.601562 C 4189 345.933594 4189.464844 366.601562 4190.398438 390.601562 L 4193 452.601562 L 4195.800781 510.199219 L 4198.601562 567.800781 C 4199.398438 591.398438 4198.535156 629.066406 4196 680.800781 C 4191.601562 650.265625 4189.464844 628.066406 4189.601562 614.199219 C 4190.535156 535.132812 4183.601562 466.132812 4168.800781 407.199219 C 4164.265625 388.933594 4162.132812 364.867188 4162.398438 335 C 4163.464844 301.800781 4163.667969 277.265625 4163 261.398438 L 4160.800781 231 L 4189 231.398438 M 3478 227.398438 C 3479.734375 236.332031 3481 247.265625 3481.800781 260.199219 C 3483.933594 291.535156 3487.867188 321.398438 3493.601562 349.800781 C 3496.800781 366.066406 3498.667969 386.800781 3499.199219 412 L 3499 463.199219 C 3498.734375 444.132812 3497.867188 426.933594 3496.398438 411.601562 C 3494.398438 392.667969 3491.066406 373.265625 3486.398438 353.398438 C 3484.933594 347.398438 3477.867188 326.867188 3465.199219 291.800781 C 3455.464844 264.734375 3450.464844 242.933594 3450.199219 226.398438 L 3478 227.398438 M 3662 229.398438 L 3661 241.398438 C 3659.535156 260.332031 3658.132812 285.601562 3656.800781 317.199219 L 3653.199219 393 C 3650 443.933594 3648 484.933594 3647.199219 516 L 3643 457 C 3642.464844 448.867188 3642.199219 426.398438 3642.199219 389.601562 C 3642.199219 362.667969 3640.667969 341 3637.601562 324.601562 C 3635.601562 310.199219 3631.933594 294.066406 3626.601562 276.199219 L 3611.199219 229.398438 L 3662 229.398438 M 3819.199219 229 C 3819.464844 268.066406 3820.332031 305.332031 3821.800781 340.800781 L 3822.398438 393.199219 C 3822.535156 414.667969 3823.332031 432.132812 3824.800781 445.601562 C 3825.867188 455.199219 3829.933594 477.933594 3837 513.800781 C 3842.199219 540.601562 3844.464844 563.734375 3843.800781 583.199219 L 3842 638.398438 C 3842.535156 586 3839.066406 543.601562 3831.601562 511.199219 C 3828 495.734375 3824.332031 477.800781 3820.601562 457.398438 L 3811 403.601562 C 3808.867188 391.332031 3802.535156 371.199219 3792 343.199219 C 3782.535156 317.867188 3777.132812 297.464844 3775.800781 282 C 3774.199219 263.464844 3773.332031 245.867188 3773.199219 229.199219 L 3819.199219 229 M 3647.199219 516 L 3653.398438 605.398438 C 3655.265625 638.601562 3656.199219 668.933594 3656.199219 696.398438 C 3648.601562 644.933594 3645.601562 584.800781 3647.199219 516 M 4335 235 L 4376.800781 236.398438 C 4377.332031 260.535156 4379.066406 281.199219 4382 298.398438 C 4387.332031 329.199219 4387.464844 367.867188 4382.398438 414.398438 L 4365.199219 530.199219 C 4361.332031 556.066406 4358.933594 593.933594 4358 643.800781 C 4357.066406 697 4355.398438 733.933594 4353 754.601562 L 4353 485.398438 C 4350.464844 526.867188 4345.066406 565.535156 4336.800781 601.398438 L 4337.601562 453 L 4337 304.601562 C 4335.535156 279.132812 4334.867188 255.933594 4335 235 "/>
<path style=" stroke:none;fill-rule:nonzero;fill:rgb(52.941176%,0%,0%);fill-opacity:1;" d="M 3209.199219 227 C 3196.667969 229.132812 3186.332031 232.265625 3178.199219 236.398438 C 3166.332031 242.398438 3158.199219 251.398438 3153.800781 263.398438 C 3150.734375 271.800781 3148.933594 284.199219 3148.398438 300.601562 C 3147.734375 325.800781 3147.601562 357.933594 3148 397 L 3149 493.398438 L 3149 892.601562 L 3148.601562 1090.199219 L 3149 1287.800781 C 3149.132812 1297.132812 3149.933594 1313.066406 3151.398438 1335.601562 C 3152.734375 1356 3153.332031 1371.933594 3153.199219 1383.398438 C 3152.667969 1411 3151.066406 1441.867188 3148.398438 1476 L 3147.601562 1503.601562 C 3147.734375 1510.132812 3149.066406 1514.601562 3151.601562 1517 C 3154 1519.398438 3158.464844 1520.667969 3165 1520.800781 C 3173.535156 1520.933594 3181.535156 1519.601562 3189 1516.800781 C 3192.332031 1515.601562 3199.265625 1512.265625 3209.800781 1506.800781 C 3212.066406 1505.601562 3214.734375 1505.933594 3217.800781 1507.800781 C 3228.332031 1514.066406 3237.066406 1517.867188 3244 1519.199219 C 3255.332031 1521.199219 3263.867188 1517.535156 3269.601562 1508.199219 C 3270.265625 1507.265625 3271.265625 1506.601562 3272.601562 1506.199219 L 3276.199219 1506.398438 C 3283.398438 1511.199219 3290.601562 1513.734375 3297.800781 1514 L 3320 1510.601562 C 3326.398438 1509 3333.667969 1508.867188 3341.800781 1510.199219 L 3343.199219 1510.601562 C 3352.132812 1513.132812 3362.132812 1518.535156 3373.199219 1526.800781 C 3382.265625 1533.601562 3391.199219 1538.332031 3400 1541 C 3408.667969 1543.667969 3418.800781 1544.734375 3430.398438 1544.199219 C 3442 1543.667969 3452.066406 1544.734375 3460.601562 1547.398438 C 3468.601562 1549.800781 3477.601562 1554.398438 3487.601562 1561.199219 C 3504.933594 1573.332031 3530.464844 1578.464844 3564.199219 1576.601562 L 3604.199219 1574.800781 C 3619.132812 1575.066406 3632.132812 1577.265625 3643.199219 1581.398438 L 3664.398438 1590 L 3686.199219 1597 L 3717 1600.199219 L 3748 1600 L 3799 1601.800781 C 3819.398438 1601.933594 3835.800781 1599.066406 3848.199219 1593.199219 C 3862.332031 1586.535156 3870.398438 1582.867188 3872.398438 1582.199219 C 3881.066406 1579.132812 3889.667969 1578.667969 3898.199219 1580.800781 C 3919.132812 1585.867188 3937.132812 1588.535156 3952.199219 1588.800781 C 3971.132812 1589.199219 3988.867188 1586 4005.398438 1579.199219 L 4010.601562 1579.398438 C 4022.199219 1591.132812 4039.601562 1597.464844 4062.800781 1598.398438 C 4075.867188 1598.800781 4095 1597.066406 4120.199219 1593.199219 C 4125.265625 1592.535156 4131.933594 1590.199219 4140.199219 1586.199219 L 4162.199219 1575.800781 C 4180.464844 1568.066406 4194.667969 1567.867188 4204.800781 1575.199219 C 4214.265625 1582.132812 4222.199219 1587.265625 4228.601562 1590.601562 C 4237.398438 1595.398438 4246.332031 1598.734375 4255.398438 1600.601562 L 4277.800781 1599.398438 L 4299.601562 1595 L 4337.199219 1593.601562 C 4351.199219 1592.535156 4363.332031 1589.734375 4373.601562 1585.199219 C 4385.332031 1580.132812 4402.398438 1571.667969 4424.800781 1559.800781 L 4427.199219 1559.199219 L 4429.398438 1559.800781 C 4443.667969 1571.265625 4462 1576.398438 4484.398438 1575.199219 C 4507.066406 1574 4524.601562 1566.601562 4537 1553 C 4550.199219 1538.601562 4554.933594 1519.601562 4551.199219 1496 C 4549.601562 1486.132812 4543.464844 1466.398438 4532.800781 1436.800781 C 4519.332031 1399.332031 4511.734375 1353.464844 4510 1299.199219 L 4511 1158.800781 C 4509.667969 1020.800781 4508.933594 917.265625 4508.800781 848.199219 C 4508.667969 727.667969 4511.199219 624.132812 4516.398438 537.601562 L 4528.398438 343.398438 L 4531.800781 290.601562 C 4532.601562 260.867188 4530.332031 245.800781 4525 245.398438 L 4429.398438 241 C 4314.066406 236.199219 4181.398438 233.199219 4031.398438 232 L 3833.398438 231.800781 L 3635.398438 232 C 3554.199219 232 3489 230.867188 3439.800781 228.601562 L 3340.601562 220.800781 C 3301.132812 218 3268.066406 218.535156 3241.398438 222.398438 L 3209.199219 227 M 3545.199219 226.398438 C 3581.601562 226.933594 3646.601562 227.066406 3740.199219 226.800781 C 3900.066406 226.265625 4032.667969 226.734375 4138 228.199219 L 4535.800781 240.800781 C 4537.398438 241.066406 4538.199219 241.800781 4538.199219 243 C 4539 266.601562 4538.265625 299.867188 4536 342.800781 L 4525.398438 538.800781 C 4521.265625 616 4518.867188 681.398438 4518.199219 735 C 4517.535156 789.933594 4517.332031 856.464844 4517.601562 934.601562 L 4518.601562 1134 L 4517.601562 1233.199219 C 4517.066406 1272.933594 4517.867188 1305.933594 4520 1332.199219 C 4523.199219 1370.464844 4528.800781 1401.066406 4536.800781 1424 L 4549.398438 1458 C 4554.199219 1471.332031 4557.332031 1482.933594 4558.800781 1492.800781 C 4561.601562 1512.535156 4558.933594 1529.332031 4550.800781 1543.199219 C 4542.667969 1557.199219 4529.332031 1567.464844 4510.800781 1574 C 4493.867188 1580.132812 4477.132812 1581.800781 4460.601562 1579 L 4437.601562 1571.199219 C 4428 1567.734375 4420.800781 1567.265625 4416 1569.800781 L 4382.398438 1586.398438 C 4369.734375 1592.132812 4357.933594 1596.066406 4347 1598.199219 L 4318.398438 1600 L 4297.199219 1601.398438 L 4276.601562 1605.199219 L 4253 1605.800781 C 4246.332031 1604.734375 4238.667969 1602.398438 4230 1598.800781 C 4220.667969 1594.933594 4212.734375 1590.332031 4206.199219 1585 C 4198.734375 1579 4190.734375 1576.199219 4182.199219 1576.601562 C 4175.132812 1576.867188 4166.800781 1579.464844 4157.199219 1584.398438 C 4140.535156 1592.933594 4121.933594 1598.535156 4101.398438 1601.199219 C 4082.199219 1603.734375 4062.535156 1603.601562 4042.398438 1600.800781 C 4032.398438 1599.332031 4024.199219 1596.867188 4017.800781 1593.398438 L 4010 1587.800781 C 4006.667969 1585.800781 4003.667969 1585.265625 4001 1586.199219 C 3978.734375 1593.933594 3956.601562 1596.332031 3934.601562 1593.398438 L 3914 1589.800781 L 3893.601562 1585.398438 C 3885.601562 1583.933594 3877.132812 1585.066406 3868.199219 1588.800781 L 3845.199219 1599.601562 C 3836.265625 1603.066406 3825.601562 1605.132812 3813.199219 1605.800781 L 3780.601562 1605.601562 L 3735 1605.601562 L 3689.398438 1603.199219 C 3681.398438 1602.132812 3668.933594 1598.132812 3652 1591.199219 C 3636.265625 1584.667969 3623.667969 1581.199219 3614.199219 1580.800781 L 3545.800781 1583 C 3518.734375 1582.867188 3497.265625 1577 3481.398438 1565.398438 C 3472.734375 1559.132812 3464.734375 1554.734375 3457.398438 1552.199219 C 3449.265625 1549.667969 3439.933594 1548.667969 3429.398438 1549.199219 L 3414.199219 1550 L 3399 1548.398438 C 3391.398438 1546.132812 3381.265625 1540.535156 3368.601562 1531.601562 C 3356.199219 1522.933594 3346.199219 1517.464844 3338.601562 1515.199219 L 3318.398438 1516.199219 L 3298.398438 1520.199219 C 3293.734375 1520.867188 3288.800781 1520.132812 3283.601562 1518 L 3274.398438 1513.199219 L 3273.398438 1514.199219 C 3269 1519.132812 3263.867188 1522.464844 3258 1524.199219 L 3239.398438 1523.800781 C 3229.800781 1521.265625 3222.199219 1518.265625 3216.601562 1514.800781 C 3213.800781 1513.066406 3209.265625 1513.800781 3203 1517 L 3189.601562 1523.601562 C 3164 1529.199219 3148.734375 1528.867188 3143.800781 1522.601562 C 3139.265625 1517 3137.398438 1507.132812 3138.199219 1493 L 3141.601562 1461.398438 L 3144.601562 1408.398438 C 3145.398438 1388.535156 3145.332031 1370.867188 3144.398438 1355.398438 C 3142.398438 1320.867188 3141.398438 1293.332031 3141.398438 1272.800781 L 3141.398438 478.199219 L 3139.601562 382.398438 C 3138.800781 343.867188 3139.398438 311.933594 3141.398438 286.601562 C 3144.066406 252.464844 3163.933594 231.667969 3201 224.199219 C 3246.601562 214.867188 3296.398438 212.535156 3350.398438 217.199219 L 3545.199219 226.398438 "/>
<path style=" stroke:none;fill-rule:nonzero;fill:rgb(74.117647%,0%,0%);fill-opacity:1;" d="M 1459 23.601562 L 1665.199219 23.800781 L 1806 31.398438 L 1946.601562 39.800781 C 1975.265625 40.464844 2017.066406 40.800781 2072 40.800781 L 2197.398438 41.800781 L 2480.199219 48.601562 C 2593.535156 51.398438 2687.734375 52.800781 2762.800781 52.800781 C 2816.535156 52.800781 2882.265625 46.535156 2960 34 C 3062 17.601562 3127 8.066406 3155 5.398438 C 3208.464844 0.734375 3241.398438 7.535156 3253.800781 25.800781 C 3259.132812 33.933594 3262.332031 45.933594 3263.398438 61.800781 L 3263.800781 113.398438 C 3263.800781 119.933594 3264.933594 137 3267.199219 164.601562 C 3268.933594 185.535156 3268.867188 202.667969 3267 216 C 3264.601562 233.199219 3252 250.464844 3229.199219 267.800781 C 3218.132812 276.332031 3197.464844 289.132812 3167.199219 306.199219 C 3135.867188 323.667969 3095.667969 334.398438 3046.601562 338.398438 C 3006.867188 341.734375 2964 340.464844 2918 334.601562 C 2892.265625 331.398438 2864.800781 325.667969 2835.601562 317.398438 C 2807.601562 309.535156 2781.464844 300.332031 2757.199219 289.800781 C 2737.066406 281.132812 2723.265625 276.332031 2715.800781 275.398438 C 2705.667969 274.066406 2692.066406 276.398438 2675 282.398438 C 2607.535156 306.535156 2546.933594 323.332031 2493.199219 332.800781 C 2423.066406 345.199219 2359.398438 346.464844 2302.199219 336.601562 C 2282.332031 333.132812 2258.265625 326.066406 2230 315.398438 L 2160.800781 287.601562 C 2130.398438 275.867188 2106.199219 269.265625 2088.199219 267.800781 C 2063.933594 265.667969 2039.535156 270.601562 2015 282.601562 C 1934.066406 321.667969 1857.800781 342.601562 1786.199219 345.398438 C 1714.601562 348.199219 1636.464844 333.398438 1551.800781 301 C 1520.601562 286.734375 1497.535156 277.601562 1482.601562 273.601562 C 1457.398438 267.066406 1434 270.535156 1412.398438 284 C 1390.667969 297.464844 1360.667969 305.398438 1322.398438 307.800781 C 1278.800781 310.601562 1251.601562 301.800781 1240.800781 281.398438 C 1235.332031 271 1235.734375 259.464844 1242 246.800781 C 1245.601562 239.332031 1254 227.667969 1267.199219 211.800781 C 1280.535156 195.667969 1289.464844 183.132812 1294 174.199219 C 1301.464844 159.398438 1303.332031 145.332031 1299.601562 132 C 1297.199219 122.800781 1291.332031 106.734375 1282 83.800781 C 1276.132812 63.265625 1278.535156 47.667969 1289.199219 37 C 1301.734375 24.464844 1328.667969 18.464844 1370 19 L 1459 23.601562 "/>
<path style=" stroke:none;fill-rule:nonzero;fill:rgb(56.862745%,0%,0%);fill-opacity:1;" d="M 1517.398438 177.601562 C 1510.066406 198.800781 1504.933594 215 1502 226.199219 C 1499.464844 236.066406 1497.933594 244 1497.398438 250 C 1496.601562 259.464844 1497.867188 267.332031 1501.199219 273.601562 C 1503.464844 278 1507.535156 281.601562 1513.398438 284.398438 L 1520.601562 287.800781 C 1500.199219 279 1484.933594 273.667969 1474.800781 271.800781 C 1455.332031 268.199219 1437 270.867188 1419.800781 279.800781 L 1458.601562 233.199219 C 1489.265625 193.332031 1512 158.132812 1526.800781 127.601562 C 1526.535156 141.867188 1523.398438 158.535156 1517.398438 177.601562 "/>
<path style=" stroke:none;fill-rule:nonzero;fill:rgb(56.862745%,0%,0%);fill-opacity:1;" d="M 2106.800781 229.800781 C 2118.800781 248.464844 2134.601562 266.933594 2154.199219 285.199219 C 2126.199219 274.535156 2103.199219 268.667969 2085.199219 267.601562 C 2062.132812 266.132812 2038.734375 271.132812 2015 282.601562 L 1990.199219 294 L 1998.398438 285.398438 L 2023 265.398438 C 2031.667969 257.667969 2038.800781 250 2044.398438 242.398438 C 2056.800781 225.464844 2064.933594 213.734375 2068.800781 207.199219 C 2078.132812 191.734375 2083.132812 178.734375 2083.800781 168.199219 C 2084.601562 187 2092.265625 207.535156 2106.800781 229.800781 "/>
<path style=" stroke:none;fill-rule:nonzero;fill:rgb(56.862745%,0%,0%);fill-opacity:1;" d="M 2761.398438 198.800781 L 2786 249 L 2799.800781 273.800781 C 2805.398438 283.132812 2811.265625 290.734375 2817.398438 296.601562 L 2835.800781 309.199219 C 2844.066406 314.265625 2850 318.601562 2853.601562 322.199219 C 2819.199219 313.398438 2787.066406 302.601562 2757.199219 289.800781 C 2737.066406 281.132812 2723.265625 276.332031 2715.800781 275.398438 C 2705.667969 274.066406 2692.066406 276.398438 2675 282.398438 C 2644.332031 293.332031 2616.199219 302.464844 2590.601562 309.800781 C 2597 300.734375 2608.667969 290.933594 2625.601562 280.398438 C 2645.199219 268.265625 2658.066406 259.199219 2664.199219 253.199219 C 2700.464844 217.867188 2723.398438 183.332031 2733 149.601562 C 2741.800781 162.265625 2751.265625 178.667969 2761.398438 198.800781 "/>
<path style=" stroke:none;fill-rule:nonzero;fill:rgb(52.941176%,0%,0%);fill-opacity:1;" d="M 1578.199219 20.199219 L 1731.800781 25 L 1885.398438 34 C 1925.800781 36.398438 1977.800781 37.734375 2041.398438 38 L 2197.800781 38.800781 L 2396.800781 43.601562 C 2483.199219 45.867188 2549.535156 47.398438 2595.800781 48.199219 L 2694.601562 50.199219 C 2732.601562 50.734375 2765.535156 50.464844 2793.398438 49.398438 C 2841.933594 47.398438 2901.066406 40.734375 2970.800781 29.398438 L 3059 14.800781 L 3147.800781 3.199219 L 3198.199219 0 C 3218.867188 0.535156 3234.800781 4.867188 3246 13 C 3254.265625 19 3260.132812 27.464844 3263.601562 38.398438 C 3266 46.265625 3267.398438 56.734375 3267.800781 69.800781 L 3267.800781 98.800781 L 3268.199219 127.800781 L 3272.199219 171.800781 C 3273.535156 189.398438 3273.066406 204.066406 3270.800781 215.800781 C 3267.601562 232.734375 3257.535156 248.535156 3240.601562 263.199219 C 3230.601562 272 3214.535156 282.734375 3192.398438 295.398438 C 3170.933594 307.667969 3150.066406 317.398438 3129.800781 324.601562 C 3107.933594 332.199219 3085.464844 337.332031 3062.398438 340 C 3010.800781 345.601562 2958.535156 344.265625 2905.601562 336 C 2853.464844 327.867188 2803.265625 313.332031 2755 292.398438 C 2739 285.601562 2726.066406 281.535156 2716.199219 280.199219 C 2703.398438 278.464844 2689.933594 280.132812 2675.800781 285.199219 C 2646.601562 295.601562 2620 304.265625 2596 311.199219 C 2531.464844 329.867188 2474.265625 341 2424.398438 344.601562 C 2360 348.867188 2305.464844 343.867188 2260.800781 329.601562 C 2252.398438 326.933594 2225.199219 316 2179.199219 296.800781 C 2145.867188 282.933594 2118.066406 274.601562 2095.800781 271.800781 C 2079.132812 269.667969 2062 271 2044.398438 275.800781 C 2033.867188 278.734375 2017.734375 285 1996 294.601562 C 1967.734375 307.265625 1942.933594 316.933594 1921.601562 323.601562 C 1867.199219 340.800781 1815.535156 349.199219 1766.601562 348.800781 C 1715.933594 348.398438 1664.800781 340.535156 1613.199219 325.199219 C 1580.933594 315.601562 1551.398438 304.933594 1524.601562 293.199219 C 1504.734375 284.535156 1490.800781 279.066406 1482.800781 276.800781 L 1438.601562 275.601562 C 1432.199219 277.464844 1423.265625 281.332031 1411.800781 287.199219 C 1400.066406 293.199219 1391.132812 297.132812 1385 299 C 1368.734375 304.066406 1352.398438 307.601562 1336 309.601562 L 1289 311 C 1269.933594 309.132812 1255.601562 303.535156 1246 294.199219 C 1236.667969 285 1232.667969 274.332031 1234 262.199219 C 1235.066406 252.066406 1239.933594 241.265625 1248.601562 229.800781 C 1265 210.734375 1276.667969 195.933594 1283.601562 185.398438 C 1295.601562 167 1299.667969 149.535156 1295.800781 133 C 1293.265625 124.601562 1287.535156 110 1278.601562 89.199219 C 1272.332031 70.265625 1272.667969 55.332031 1279.601562 44.398438 C 1285.601562 34.667969 1294.867188 27.601562 1307.398438 23.199219 C 1316.601562 19.734375 1328.332031 17.601562 1342.601562 16.800781 C 1356.199219 16 1372.066406 16 1390.199219 16.800781 L 1437.800781 19.800781 C 1456.601562 21 1480 21.398438 1508 21 L 1578.199219 20.199219 M 1396.398438 23 C 1372.535156 21.398438 1352.800781 21.398438 1337.199219 23 C 1298.933594 27.132812 1280.734375 41.132812 1282.601562 65 C 1283.398438 74.332031 1286.332031 85.464844 1291.398438 98.398438 L 1303.601562 130.800781 L 1303.601562 131 L 1303.800781 131.398438 C 1307.265625 147.265625 1304.066406 163.734375 1294.199219 180.800781 C 1291.132812 186 1280.535156 200 1262.398438 222.800781 C 1254.132812 233.199219 1248.601562 241.132812 1245.800781 246.601562 C 1240.464844 256.867188 1239.265625 266 1242.199219 274 C 1245.667969 283.601562 1252.398438 291.066406 1262.398438 296.398438 C 1270.535156 300.667969 1280.464844 303.332031 1292.199219 304.398438 C 1313.398438 306.398438 1334.867188 304.867188 1356.601562 299.800781 C 1375.535156 295.398438 1395.734375 288.066406 1417.199219 277.800781 C 1438.933594 267.265625 1463.332031 265.800781 1490.398438 273.398438 C 1506.132812 277.933594 1529.734375 287.132812 1561.199219 301 C 1686.132812 347 1801.398438 354 1907 322 C 1939.132812 312.265625 1969.933594 300.464844 1999.398438 286.601562 C 2014.734375 279.535156 2025.667969 274.800781 2032.199219 272.398438 C 2044.734375 267.867188 2056.398438 265.265625 2067.199219 264.601562 C 2089.199219 263.398438 2114.066406 267.464844 2141.800781 276.800781 C 2157.933594 282.265625 2181.601562 291.667969 2212.800781 305 C 2275.867188 330.199219 2336.933594 341.867188 2396 340 C 2454 338.132812 2515.601562 328 2580.800781 309.601562 C 2612 300.667969 2641 291.398438 2667.800781 281.800781 C 2680.332031 277.535156 2689.132812 274.800781 2694.199219 273.601562 C 2704.464844 271.332031 2713.535156 271.132812 2721.398438 273 C 2730.601562 275.132812 2742.066406 279.132812 2755.800781 285 L 2789.398438 299 C 2819.265625 309.933594 2847.332031 318.132812 2873.601562 323.601562 C 2930.132812 335.734375 2984.667969 339.933594 3037.199219 336.199219 C 3065.332031 334.332031 3091.601562 329.734375 3116 322.398438 C 3140.933594 314.933594 3165.265625 304.265625 3189 290.398438 C 3205 281.066406 3216.535156 273.867188 3223.601562 268.800781 C 3236.398438 259.601562 3246.066406 250.132812 3252.601562 240.398438 C 3260.199219 229.199219 3264.265625 214.734375 3264.800781 197 C 3265.066406 190.332031 3264.132812 175 3262 151 C 3261.464844 144.601562 3261.332031 126.601562 3261.601562 97 C 3261.867188 74.332031 3260.265625 56.464844 3256.800781 43.398438 C 3252.535156 27.667969 3242.265625 17 3226 11.398438 C 3214.535156 7.535156 3198.800781 6.066406 3178.800781 7 L 3088.601562 16 L 2998.800781 30.601562 L 2914.398438 44 L 2829.601562 53.398438 C 2801.601562 55.265625 2769.199219 56.199219 2732.398438 56.199219 L 2635.199219 54.800781 L 2436 50.601562 L 2237 45.601562 L 2044 44.199219 L 1851.398438 37.800781 L 1750.199219 30.601562 L 1649 26.601562 L 1552.199219 27 C 1511.667969 27.265625 1479.398438 27.132812 1455.398438 26.601562 L 1396.398438 23 "/>
<path style=" stroke:none;fill-rule:nonzero;fill:rgb(64.705882%,48.627451%,32.156863%);fill-opacity:1;" d="M 1287.800781 1632.199219 L 1122 1632.199219 L 1122 1313.199219 L 1287.800781 1313.199219 L 1287.800781 1632.199219 "/>
<path style=" stroke:none;fill-rule:nonzero;fill:rgb(54.509804%,38.823529%,22.352941%);fill-opacity:1;" d="M 1291.601562 1312.199219 L 1291.601562 1631.199219 L 1290.800781 1632.199219 C 1289.332031 1633.535156 1287.800781 1634.199219 1286.199219 1634.199219 L 1120.398438 1634.199219 C 1118.933594 1634.199219 1118.199219 1633.867188 1118.199219 1633.199219 L 1118.199219 1314.199219 C 1118.199219 1313.265625 1118.867188 1312.464844 1120.199219 1311.800781 L 1123.601562 1311.199219 L 1289.398438 1311.199219 C 1290.867188 1311.199219 1291.601562 1311.535156 1291.601562 1312.199219 M 1285 1314.800781 L 1280.601562 1315.199219 L 1125.800781 1315.199219 L 1125.800781 1628.800781 L 1125.398438 1630.601562 L 1129.199219 1630.199219 L 1284 1630.199219 L 1284 1316.601562 L 1285 1314.800781 "/>
<path style=" stroke:none;fill-rule:nonzero;fill:rgb(64.705882%,48.627451%,32.156863%);fill-opacity:1;" d="M 1453.601562 1272 L 1453.601562 1632.199219 L 1287.800781 1632.199219 L 1287.800781 1272 L 1453.601562 1272 "/>
<path style=" stroke:none;fill-rule:nonzero;fill:rgb(54.509804%,38.823529%,22.352941%);fill-opacity:1;" d="M 1286 1270.601562 L 1289.398438 1270 L 1455.199219 1270 C 1456.667969 1270 1457.398438 1270.265625 1457.398438 1270.800781 L 1457.398438 1631.199219 L 1456.601562 1632.199219 C 1455.132812 1633.535156 1453.601562 1634.199219 1452 1634.199219 L 1286.199219 1634.199219 C 1284.734375 1634.199219 1284 1633.867188 1284 1633.199219 L 1284 1273 C 1284 1272.066406 1284.667969 1271.265625 1286 1270.601562 M 1451.601562 1274 L 1291.601562 1274 L 1291.601562 1623.199219 L 1291.800781 1628.601562 C 1291.800781 1629.667969 1291.199219 1630.199219 1290 1630.199219 L 1449.800781 1630.199219 L 1449.800781 1280.800781 L 1449.601562 1275.398438 C 1449.601562 1274.464844 1450.265625 1274 1451.601562 1274 "/>
<path style=" stroke:none;fill-rule:nonzero;fill:rgb(64.705882%,48.627451%,32.156863%);fill-opacity:1;" d="M 1619.398438 1632.199219 L 1453.601562 1632.199219 L 1453.601562 1313.199219 L 1619.398438 1313.199219 L 1619.398438 1632.199219 "/>
<path style=" stroke:none;fill-rule:nonzero;fill:rgb(54.509804%,38.823529%,22.352941%);fill-opacity:1;" d="M 1623.199219 1312.199219 L 1623.199219 1631.199219 C 1623.066406 1632.398438 1621.800781 1633.332031 1619.398438 1634 L 1616.601562 1634.199219 L 1452 1634.199219 C 1450.535156 1634.199219 1449.800781 1633.867188 1449.800781 1633.199219 L 1449.800781 1314.199219 C 1449.800781 1313.265625 1450.464844 1312.464844 1451.800781 1311.800781 L 1455.199219 1311.199219 L 1621 1311.199219 C 1622.464844 1311.199219 1623.199219 1311.535156 1623.199219 1312.199219 M 1616.601562 1314.800781 L 1612.199219 1315.199219 L 1457.398438 1315.199219 L 1457.398438 1628.800781 L 1457 1630.601562 L 1460.800781 1630.199219 L 1615.601562 1630.199219 L 1615.601562 1316.601562 L 1616.601562 1314.800781 "/>
<path style=" stroke:none;fill-rule:nonzero;fill:rgb(64.705882%,48.627451%,32.156863%);fill-opacity:1;" d="M 1785.199219 1632.199219 L 1619.398438 1632.199219 L 1619.398438 1313.199219 L 1785.199219 1313.199219 L 1785.199219 1632.199219 "/>
<path style=" stroke:none;fill-rule:nonzero;fill:rgb(54.509804%,38.823529%,22.352941%);fill-opacity:1;" d="M 1789 1312.199219 L 1789 1631.199219 L 1788.199219 1632.199219 C 1786.734375 1633.535156 1785.199219 1634.199219 1783.601562 1634.199219 L 1617.800781 1634.199219 C 1616.332031 1634.199219 1615.601562 1633.867188 1615.601562 1633.199219 L 1615.601562 1314.199219 C 1615.601562 1313.265625 1616.265625 1312.464844 1617.601562 1311.800781 L 1621 1311.199219 L 1786.800781 1311.199219 C 1788.265625 1311.199219 1789 1311.535156 1789 1312.199219 M 1782.398438 1314.800781 L 1778 1315.199219 L 1623.199219 1315.199219 L 1623.199219 1628.800781 L 1622.800781 1630.601562 L 1626.601562 1630.199219 L 1781.398438 1630.199219 L 1781.398438 1316.601562 L 1782.398438 1314.800781 "/>
<path style=" stroke:none;fill-rule:nonzero;fill:rgb(64.705882%,48.627451%,32.156863%);fill-opacity:1;" d="M 1951 1391 L 1951 1710 L 1785.199219 1710 L 1785.199219 1391 L 1951 1391 "/>
<path style=" stroke:none;fill-rule:nonzero;fill:rgb(54.509804%,38.823529%,22.352941%);fill-opacity:1;" d="M 1954.800781 1390 L 1954.800781 1709 C 1954.667969 1710.199219 1953.398438 1711.132812 1951 1711.800781 L 1948.199219 1712 L 1783.601562 1712 C 1782.132812 1712 1781.398438 1711.667969 1781.398438 1711 L 1781.398438 1392 C 1781.398438 1391.066406 1782.066406 1390.265625 1783.398438 1389.601562 L 1786.800781 1389 L 1952.601562 1389 C 1954.066406 1389 1954.800781 1389.332031 1954.800781 1390 M 1948.199219 1392.601562 L 1943.800781 1393 L 1789 1393 L 1789 1706.601562 L 1788.601562 1708.398438 L 1792.398438 1708 L 1947.199219 1708 L 1947.199219 1394.199219 L 1948.199219 1392.601562 "/>
<path style=" stroke:none;fill-rule:nonzero;fill:rgb(64.705882%,48.627451%,32.156863%);fill-opacity:1;" d="M 3276.199219 1313.199219 L 3442 1313.199219 L 3442 1632.199219 L 3276.199219 1632.199219 L 3276.199219 1313.199219 "/>
<path style=" stroke:none;fill-rule:nonzero;fill:rgb(54.509804%,38.823529%,22.352941%);fill-opacity:1;" d="M 3439 1315 L 3434.800781 1315.199219 L 3280 1315.199219 L 3280 1630.199219 L 3438 1630.199219 L 3438 1316.601562 L 3439 1315 M 3445.800781 1312.199219 L 3445.800781 1631 L 3443.800781 1633.601562 L 3440.398438 1634.199219 L 3275 1634.199219 C 3273.132812 1634.464844 3272.199219 1634.132812 3272.199219 1633.199219 L 3272.199219 1314.199219 C 3272.199219 1313.265625 3272.933594 1312.464844 3274.398438 1311.800781 L 3277.800781 1311.199219 L 3443.601562 1311.199219 C 3445.066406 1311.199219 3445.800781 1311.535156 3445.800781 1312.199219 "/>
<path style=" stroke:none;fill-rule:nonzero;fill:rgb(64.705882%,48.627451%,32.156863%);fill-opacity:1;" d="M 3276.199219 1272 L 3276.199219 1632.199219 L 3110.398438 1632.199219 L 3110.398438 1272 L 3276.199219 1272 "/>
<path style=" stroke:none;fill-rule:nonzero;fill:rgb(54.509804%,38.823529%,22.352941%);fill-opacity:1;" d="M 3108.601562 1270.601562 L 3112 1270 L 3277.800781 1270 L 3280 1270.800781 L 3280 1631 C 3280 1632.066406 3279.332031 1632.933594 3278 1633.601562 L 3274.601562 1634.199219 L 3108.800781 1634.199219 L 3107 1634 L 3106.601562 1633.199219 L 3106.601562 1273 C 3106.601562 1272.066406 3107.265625 1271.265625 3108.601562 1270.601562 M 3274.199219 1274 L 3114.199219 1274 L 3114.199219 1630.199219 L 3272.199219 1630.199219 L 3272.199219 1280.800781 L 3272 1275.398438 C 3272.132812 1274.464844 3272.867188 1274 3274.199219 1274 "/>
<path style=" stroke:none;fill-rule:nonzero;fill:rgb(64.705882%,48.627451%,32.156863%);fill-opacity:1;" d="M 2944.601562 1313.199219 L 3110.398438 1313.199219 L 3110.398438 1632.199219 L 2944.601562 1632.199219 L 2944.601562 1313.199219 "/>
<path style=" stroke:none;fill-rule:nonzero;fill:rgb(54.509804%,38.823529%,22.352941%);fill-opacity:1;" d="M 3107.398438 1314.800781 L 3103.199219 1315.199219 L 2948.398438 1315.199219 L 2948.398438 1630.199219 L 3106.601562 1630.199219 L 3106.601562 1316.601562 L 3107.398438 1314.800781 M 3114.199219 1312.199219 L 3114.199219 1631 C 3114.199219 1633.132812 3112.398438 1634.199219 3108.800781 1634.199219 L 2943.398438 1634.199219 C 2941.535156 1634.464844 2940.601562 1634.132812 2940.601562 1633.199219 L 2940.601562 1314.199219 C 2940.601562 1313.265625 2941.332031 1312.464844 2942.800781 1311.800781 L 2946.199219 1311.199219 L 3112 1311.199219 C 3113.464844 1311.199219 3114.199219 1311.535156 3114.199219 1312.199219 "/>
<path style=" stroke:none;fill-rule:nonzero;fill:rgb(64.705882%,48.627451%,32.156863%);fill-opacity:1;" d="M 2944.601562 1632.199219 L 2778.800781 1632.199219 L 2778.800781 1313.199219 L 2944.601562 1313.199219 L 2944.601562 1632.199219 "/>
<path style=" stroke:none;fill-rule:nonzero;fill:rgb(54.509804%,38.823529%,22.352941%);fill-opacity:1;" d="M 2941.601562 1315 L 2937.398438 1315.199219 L 2782.601562 1315.199219 L 2782.601562 1630.199219 L 2940.601562 1630.199219 L 2940.601562 1316.601562 L 2941.601562 1315 M 2948.398438 1312.199219 L 2948.398438 1631 L 2946.398438 1633.601562 L 2943 1634.199219 L 2777.199219 1634.199219 L 2775.398438 1634 L 2775 1633.199219 L 2775 1314.199219 C 2775 1313.265625 2775.667969 1312.464844 2777 1311.800781 L 2780.398438 1311.199219 L 2946.199219 1311.199219 C 2947.667969 1311.199219 2948.398438 1311.535156 2948.398438 1312.199219 "/>
<path style=" stroke:none;fill-rule:nonzero;fill:rgb(64.705882%,48.627451%,32.156863%);fill-opacity:1;" d="M 2778.800781 1710 L 2613 1710 L 2613 1391 L 2778.800781 1391 L 2778.800781 1710 "/>
<path style=" stroke:none;fill-rule:nonzero;fill:rgb(54.509804%,38.823529%,22.352941%);fill-opacity:1;" d="M 2782.601562 1390 L 2782.601562 1708.800781 C 2782.601562 1709.867188 2781.933594 1710.734375 2780.601562 1711.398438 L 2777.199219 1712 L 2611.398438 1712 L 2609.601562 1711.800781 L 2609.199219 1711 L 2609.199219 1392 C 2609.199219 1391.066406 2609.867188 1390.265625 2611.199219 1389.601562 L 2614.601562 1389 L 2780.398438 1389 C 2781.867188 1389 2782.601562 1389.332031 2782.601562 1390 M 2616.800781 1393 L 2616.800781 1708 L 2775 1708 L 2775 1394.199219 L 2775.800781 1392.601562 L 2771.601562 1393 L 2616.800781 1393 "/>
<path style=" stroke:none;fill-rule:nonzero;fill:rgb(74.117647%,0%,0%);fill-opacity:1;" d="M 1294.800781 1046.800781 C 1310.800781 1043.066406 1325.933594 1045.265625 1340.199219 1053.398438 L 1377.601562 1082 L 1455.199219 1144.398438 C 1485.464844 1167.601562 1513.398438 1185.734375 1539 1198.800781 C 1564.601562 1212 1595.265625 1221.867188 1631 1228.398438 L 1726.601562 1242.800781 C 1764.734375 1249.066406 1807 1271.535156 1853.398438 1310.199219 L 1909.601562 1358 C 1931.464844 1376.132812 1951.132812 1390 1968.601562 1399.601562 C 2011.265625 1423.066406 2060.132812 1439.800781 2115.199219 1449.800781 C 2160.398438 1458.066406 2212.066406 1462 2270.199219 1461.601562 L 2293.800781 1461.601562 C 2351.933594 1462 2403.601562 1458.066406 2448.800781 1449.800781 C 2503.867188 1439.800781 2552.734375 1423.066406 2595.398438 1399.601562 C 2612.734375 1390 2632.398438 1376.132812 2654.398438 1358 L 2710.601562 1310.199219 C 2757 1271.535156 2799.265625 1249.066406 2837.398438 1242.800781 L 2933 1228.398438 C 2968.734375 1221.867188 2999.398438 1212 3025 1198.800781 C 3050.601562 1185.734375 3078.535156 1167.601562 3108.800781 1144.398438 L 3186.398438 1082 L 3223.800781 1053.398438 C 3238.066406 1045.265625 3253.199219 1043.066406 3269.199219 1046.800781 C 3290 1051.734375 3305.199219 1059.398438 3314.800781 1069.800781 C 3325.332031 1081.132812 3330.132812 1096.398438 3329.199219 1115.601562 L 3325.398438 1152.601562 C 3323.535156 1167.800781 3323 1180.199219 3323.800781 1189.800781 C 3327.933594 1236.734375 3307.464844 1267.265625 3262.398438 1281.398438 C 3233.332031 1290.464844 3190.800781 1292.734375 3134.800781 1288.199219 C 3127.332031 1287.667969 3117.734375 1294.199219 3106 1307.800781 L 3081.398438 1336.800781 C 3062.734375 1352.535156 3041.734375 1361.398438 3018.398438 1363.398438 C 2954.132812 1361.933594 2923.464844 1356.265625 2926.398438 1346.398438 C 2917.199219 1375.332031 2888.464844 1393.332031 2840.199219 1400.398438 L 2800.800781 1403.601562 C 2789.199219 1402.265625 2777.867188 1396.398438 2766.800781 1386 L 2763.601562 1434.800781 C 2760.265625 1451.199219 2751.464844 1464 2737.199219 1473.199219 C 2713.332031 1488.535156 2682.800781 1496.667969 2645.601562 1497.601562 C 2646.398438 1522.398438 2638.464844 1541.734375 2621.800781 1555.601562 C 2610.066406 1565.464844 2590.398438 1574.464844 2562.800781 1582.601562 L 2530.601562 1589.398438 C 2516.199219 1591.667969 2505.464844 1593.867188 2498.398438 1596 C 2492.535156 1597.734375 2478.734375 1603.132812 2457 1612.199219 C 2440.734375 1618.867188 2426.667969 1622.800781 2414.800781 1624 C 2398.667969 1625.734375 2385 1628.066406 2373.800781 1631 C 2360.332031 1634.734375 2347.464844 1640.199219 2335.199219 1647.398438 L 2282 1678.199219 C 2275.601562 1674.867188 2257.867188 1664.601562 2228.800781 1647.398438 C 2216.535156 1640.199219 2203.667969 1634.734375 2190.199219 1631 C 2179 1627.933594 2165.332031 1625.601562 2149.199219 1624 C 2137.332031 1622.800781 2123.265625 1618.867188 2107 1612.199219 C 2085.265625 1603.132812 2071.464844 1597.734375 2065.601562 1596 C 2058.535156 1593.867188 2047.800781 1591.667969 2033.398438 1589.398438 L 2001.199219 1582.601562 C 1973.601562 1574.464844 1953.933594 1565.464844 1942.199219 1555.601562 C 1925.535156 1541.734375 1917.601562 1522.398438 1918.398438 1497.601562 C 1881.199219 1496.667969 1850.667969 1488.535156 1826.800781 1473.199219 C 1812.535156 1464 1803.734375 1451.199219 1800.398438 1434.800781 L 1797.199219 1386 C 1786.132812 1396.398438 1774.800781 1402.265625 1763.199219 1403.601562 L 1723.800781 1400.398438 C 1675.535156 1393.332031 1646.800781 1375.332031 1637.601562 1346.398438 C 1640.535156 1356.265625 1609.867188 1361.933594 1545.601562 1363.398438 C 1522.265625 1361.398438 1501.265625 1352.535156 1482.601562 1336.800781 L 1458 1307.800781 C 1446.265625 1294.199219 1436.667969 1287.667969 1429.199219 1288.199219 C 1373.199219 1292.734375 1330.667969 1290.464844 1301.601562 1281.398438 C 1256.535156 1267.265625 1236.066406 1236.734375 1240.199219 1189.800781 C 1241 1180.066406 1240.464844 1167.667969 1238.601562 1152.601562 L 1234.601562 1115.601562 C 1233.800781 1096.398438 1238.667969 1081.132812 1249.199219 1069.800781 C 1258.800781 1059.398438 1274 1051.734375 1294.800781 1046.800781 "/>
<path style=" stroke:none;fill-rule:nonzero;fill:rgb(56.078431%,0%,0%);fill-opacity:1;" d="M 1241 1091 C 1238.199219 1102.199219 1238.066406 1117.199219 1240.601562 1136 C 1243.667969 1158.667969 1245 1173.734375 1244.601562 1181.199219 C 1243.933594 1194 1243.800781 1203.398438 1244.199219 1209.398438 C 1244.867188 1219.800781 1247 1228.800781 1250.601562 1236.398438 C 1263.933594 1264.667969 1293.199219 1281.398438 1338.398438 1286.601562 L 1398 1288.398438 L 1418.800781 1286 C 1427.867188 1285.066406 1434.601562 1285.601562 1439 1287.601562 C 1446.199219 1290.933594 1453.464844 1296.800781 1460.800781 1305.199219 L 1478.398438 1327.199219 C 1487.066406 1337.066406 1497.601562 1345.066406 1510 1351.199219 C 1522.398438 1357.332031 1535.066406 1360.734375 1548 1361.398438 L 1596 1359.601562 C 1622 1356.933594 1634.601562 1352.800781 1633.800781 1347.199219 C 1633.667969 1346 1634.800781 1345.066406 1637.199219 1344.398438 L 1641.601562 1345 C 1650.132812 1369.132812 1670.265625 1385.332031 1702 1393.601562 C 1722.398438 1398.933594 1738.398438 1401.601562 1750 1401.601562 C 1767.601562 1401.464844 1782.332031 1396.132812 1794.199219 1385.601562 C 1794.734375 1385.066406 1795.933594 1384.601562 1797.800781 1384.199219 C 1799.800781 1383.800781 1800.867188 1384.066406 1801 1385 L 1802.601562 1425 C 1804.464844 1440.867188 1809.398438 1452.867188 1817.398438 1461 C 1839.132812 1482.464844 1873.332031 1494 1920 1495.601562 L 1921.398438 1495.800781 L 1922.199219 1496.601562 C 1922.199219 1512.867188 1925.867188 1526.933594 1933.199219 1538.800781 C 1940.800781 1551.066406 1951.933594 1560.535156 1966.601562 1567.199219 C 1979 1572.933594 1995.933594 1577.933594 2017.398438 1582.199219 C 2043.398438 1587.667969 2060.464844 1591.667969 2068.601562 1594.199219 C 2075 1596.199219 2083.867188 1599.601562 2095.199219 1604.398438 L 2121.601562 1615 C 2128.933594 1617.398438 2138.199219 1619.535156 2149.398438 1621.398438 L 2177.398438 1625.800781 C 2193.535156 1629.132812 2210.933594 1635.667969 2229.601562 1645.398438 C 2240.535156 1651.132812 2256.800781 1660.332031 2278.398438 1673 C 2282.398438 1675.132812 2288.398438 1673.933594 2296.398438 1669.398438 L 2313 1658.601562 L 2339 1643.199219 C 2353.265625 1636 2365.734375 1631.199219 2376.398438 1628.800781 L 2405 1624.199219 L 2433.199219 1618.800781 C 2439.867188 1616.800781 2448.464844 1613.601562 2459 1609.199219 L 2484.601562 1598.800781 C 2493.933594 1595.464844 2510.398438 1591.332031 2534 1586.398438 C 2557.066406 1581.464844 2574.199219 1576.933594 2585.398438 1572.800781 C 2623.132812 1558.933594 2641.867188 1534.199219 2641.601562 1498.601562 C 2641.601562 1497.132812 2643.464844 1496.132812 2647.199219 1495.601562 C 2706.535156 1493.464844 2742.332031 1478.601562 2754.601562 1451 C 2758.332031 1442.464844 2760.734375 1431.867188 2761.800781 1419.199219 L 2763 1386.601562 C 2763.132812 1385.535156 2764.265625 1384.800781 2766.398438 1384.398438 L 2770.398438 1384.601562 C 2781.464844 1394.332031 2794.132812 1399.867188 2808.398438 1401.199219 C 2818.535156 1402 2832.601562 1400.601562 2850.601562 1397 C 2868.332031 1393.265625 2882.734375 1388 2893.800781 1381.199219 C 2907.800781 1372.535156 2917.398438 1361 2922.601562 1346.601562 C 2923 1345.667969 2924.398438 1344.933594 2926.800781 1344.398438 C 2929.199219 1343.867188 2930.332031 1344.265625 2930.199219 1345.601562 C 2929.398438 1350.933594 2938 1354.933594 2956 1357.601562 L 2989.199219 1360.601562 L 3036.398438 1358.199219 C 3052.800781 1354.464844 3066.800781 1347.199219 3078.398438 1336.398438 L 3100.601562 1308.800781 C 3109.933594 1297.066406 3119 1290 3127.800781 1287.601562 L 3159 1286.398438 L 3190.601562 1288.800781 C 3269.800781 1288.132812 3312.601562 1264.800781 3319 1218.800781 C 3319.800781 1212.800781 3320.066406 1204.332031 3319.800781 1193.398438 C 3319.398438 1181.535156 3319.464844 1173.066406 3320 1168 L 3324.398438 1134.800781 C 3326.132812 1121.332031 3326.265625 1110.199219 3324.800781 1101.398438 C 3322.265625 1086.601562 3315.464844 1074.734375 3304.398438 1065.800781 C 3295.332031 1058.464844 3282.867188 1052.867188 3267 1049 L 3266.601562 1048.800781 C 3252.867188 1046.132812 3239.667969 1048.132812 3227 1054.800781 C 3220.601562 1058 3209.601562 1065.933594 3194 1078.601562 L 3141.601562 1121.398438 L 3089.398438 1161.601562 C 3069.667969 1175.601562 3051 1187.199219 3033.398438 1196.398438 C 3000.464844 1213.601562 2962.332031 1225.667969 2919 1232.601562 L 2848.800781 1242.199219 C 2821.734375 1246.867188 2799.398438 1253.867188 2781.800781 1263.199219 C 2763.398438 1272.933594 2743.398438 1286.601562 2721.800781 1304.199219 L 2666.199219 1351.199219 C 2625.933594 1384.800781 2586 1409.132812 2546.398438 1424.199219 C 2499.867188 1441.933594 2447.398438 1453.734375 2389 1459.601562 C 2343.667969 1464.132812 2289.734375 1465.265625 2227.199219 1463 C 2168 1461 2115.800781 1454.199219 2070.601562 1442.601562 C 2014.734375 1428.332031 1967.199219 1406.398438 1928 1376.800781 C 1916.933594 1368.398438 1898.800781 1353.332031 1873.601562 1331.601562 C 1850.800781 1311.867188 1832.464844 1297.066406 1818.601562 1287.199219 C 1794.066406 1269.734375 1771.535156 1257.734375 1751 1251.199219 C 1739.800781 1247.734375 1726.265625 1244.800781 1710.398438 1242.398438 L 1669 1236.601562 C 1638.066406 1232.199219 1612 1227 1590.800781 1221 C 1563.332031 1213.265625 1538.800781 1203 1517.199219 1190.199219 C 1495.867188 1177.800781 1472.265625 1161.601562 1446.398438 1141.601562 L 1379.199219 1087.800781 C 1364.132812 1074.199219 1352.265625 1064.535156 1343.601562 1058.800781 C 1328.265625 1048.667969 1313.933594 1044.867188 1300.601562 1047.398438 C 1266.332031 1054.066406 1246.464844 1068.601562 1241 1091 M 1289.199219 1046.601562 C 1308.398438 1041.800781 1327 1044.265625 1345 1054 C 1352.066406 1057.867188 1367.667969 1069.601562 1391.800781 1089.199219 L 1461.398438 1145.199219 C 1488.332031 1165.734375 1513.199219 1182 1536 1194 C 1559.601562 1206.398438 1587.601562 1216.132812 1620 1223.199219 L 1708.199219 1237.800781 C 1754.199219 1244.464844 1794.933594 1261.132812 1830.398438 1287.800781 C 1842.132812 1296.464844 1860.265625 1311.535156 1884.800781 1333 C 1908 1353 1926.332031 1367.800781 1939.800781 1377.398438 C 1984.332031 1409.265625 2037.933594 1431.667969 2100.601562 1444.601562 C 2151 1455 2210.066406 1460.066406 2277.800781 1459.800781 C 2315.535156 1459.535156 2344.800781 1458.800781 2365.601562 1457.601562 C 2397.867188 1455.867188 2426.933594 1452.464844 2452.800781 1447.398438 C 2523.464844 1433.667969 2580.800781 1410.667969 2624.800781 1378.398438 L 2679.398438 1333.601562 C 2703 1313.199219 2721.265625 1298.265625 2734.199219 1288.800781 C 2771 1261.867188 2807.933594 1245.535156 2845 1239.800781 L 2939 1225.398438 C 2974.464844 1218.332031 3004.398438 1208.132812 3028.800781 1194.800781 C 3051.601562 1182.398438 3076.398438 1166.066406 3103.199219 1145.800781 L 3172.800781 1090.199219 C 3197.199219 1070.332031 3212.199219 1058.800781 3217.800781 1055.601562 C 3235.535156 1045.199219 3253.464844 1041.667969 3271.601562 1045 L 3272.601562 1045.398438 C 3289.800781 1049.667969 3303.398438 1056.066406 3313.398438 1064.601562 C 3325.800781 1075 3332.332031 1088.199219 3333 1104.199219 C 3333.265625 1112.601562 3332.265625 1125.464844 3330 1142.800781 C 3327.601562 1159.601562 3326.667969 1172.398438 3327.199219 1181.199219 L 3328 1203.601562 C 3327.867188 1212 3326.867188 1219.398438 3325 1225.800781 C 3318.066406 1249 3302.066406 1266.265625 3277 1277.601562 C 3257.800781 1286.132812 3233.800781 1291 3205 1292.199219 L 3160.800781 1292 L 3136.398438 1290.398438 C 3130.535156 1290 3124.464844 1292.601562 3118.199219 1298.199219 C 3115.398438 1300.734375 3110.933594 1305.867188 3104.800781 1313.601562 C 3093.867188 1327.332031 3083.066406 1338 3072.398438 1345.601562 C 3059.332031 1354.933594 3045.332031 1360.867188 3030.398438 1363.398438 C 3016.132812 1365.667969 2995.800781 1365.867188 2969.398438 1364 C 2947.132812 1362.398438 2932.800781 1359.199219 2926.398438 1354.398438 C 2920.535156 1365.332031 2911.867188 1374.464844 2900.398438 1381.800781 C 2888.800781 1389.265625 2873.800781 1395.132812 2855.398438 1399.398438 C 2834.867188 1404.066406 2818.734375 1406.066406 2807 1405.398438 C 2793.265625 1404.464844 2781 1400.332031 2770.199219 1393 L 2767.601562 1431.601562 C 2764.398438 1448.933594 2756.933594 1461.734375 2745.199219 1470 C 2731.066406 1480 2714.933594 1487.398438 2696.800781 1492.199219 C 2682.800781 1495.933594 2667 1498.265625 2649.398438 1499.199219 C 2648.867188 1532.265625 2633.066406 1555.933594 2602 1570.199219 C 2583.066406 1578.734375 2565.066406 1584.601562 2548 1587.800781 C 2513.332031 1594.601562 2483.535156 1603.132812 2458.601562 1613.398438 C 2449.398438 1617.132812 2438.867188 1620.199219 2427 1622.601562 L 2394.601562 1628.398438 C 2379.667969 1631.066406 2364.066406 1636.265625 2347.800781 1644 C 2340.601562 1647.464844 2326.132812 1655.464844 2304.398438 1668 L 2284.398438 1678.398438 C 2280.265625 1679.332031 2273.800781 1677.332031 2265 1672.398438 C 2249 1662.535156 2236.867188 1655.265625 2228.601562 1650.601562 C 2214.332031 1642.464844 2201.464844 1636.800781 2190 1633.601562 L 2152.398438 1627 C 2136.667969 1624.601562 2124.332031 1621.734375 2115.398438 1618.398438 L 2075.601562 1603 C 2060.667969 1597.535156 2047 1593.800781 2034.601562 1591.800781 C 2009.398438 1587.535156 1990.066406 1583.066406 1976.601562 1578.398438 C 1953.800781 1570.535156 1937.601562 1559.734375 1928 1546 C 1922.667969 1538.535156 1919.199219 1531.667969 1917.601562 1525.398438 L 1915.601562 1510.398438 C 1914.398438 1503.066406 1912.199219 1499.332031 1909 1499.199219 C 1878.464844 1497.464844 1854 1491.667969 1835.601562 1481.800781 C 1826 1476.601562 1818.398438 1471.332031 1812.800781 1466 C 1805.464844 1459.066406 1800.667969 1451.332031 1798.398438 1442.800781 C 1796.398438 1435.332031 1795.066406 1426.066406 1794.398438 1415 L 1793.601562 1391.800781 C 1783.066406 1399.265625 1771.332031 1403.667969 1758.398438 1405 C 1746.933594 1406.066406 1731.265625 1404.601562 1711.398438 1400.601562 C 1692.332031 1396.734375 1676.867188 1391.199219 1665 1384 C 1652.066406 1376.132812 1642.601562 1366.066406 1636.601562 1353.800781 C 1631.667969 1357 1623.199219 1359.535156 1611.199219 1361.398438 L 1571.800781 1364.601562 C 1548.601562 1365.800781 1528.398438 1363 1511.199219 1356.199219 C 1492.667969 1348.867188 1476.398438 1336.464844 1462.398438 1319 L 1449.398438 1302.800781 C 1443.398438 1296.265625 1437.867188 1292.332031 1432.800781 1291 L 1416 1290.398438 L 1399.199219 1292 C 1373.601562 1293.066406 1353.132812 1292.667969 1337.800781 1290.800781 C 1317 1288.398438 1299.800781 1284.332031 1286.199219 1278.601562 C 1267.535156 1270.867188 1254.265625 1259.734375 1246.398438 1245.199219 C 1238.265625 1230.398438 1234.800781 1213.800781 1236 1195.398438 C 1236.800781 1185 1236.066406 1170.132812 1233.800781 1150.800781 C 1231.535156 1130.535156 1230.601562 1115.667969 1231 1106.199219 C 1231.535156 1090.734375 1237.667969 1077.601562 1249.398438 1066.800781 C 1259.667969 1057.464844 1272.933594 1050.734375 1289.199219 1046.601562 "/>
</g>
</svg>
