<?xml version="1.0" encoding="UTF-8"?>
<svg xmlns="http://www.w3.org/2000/svg" xmlns:xlink="http://www.w3.org/1999/xlink" width="376pt" height="260pt" viewBox="0 0 376 260" version="1.1">
<g id="surface1">
<path style=" stroke:none;fill-rule:nonzero;fill:rgb(0%,0%,0%);fill-opacity:1;" d="M 6.398438 103.398438 C 12 100.199219 22.535156 95.265625 38 88.601562 L 38.601562 49.199219 C 38.601562 43.601562 41.265625 39.601562 46.601562 37.199219 L 51.800781 36.199219 C 55.265625 36.199219 58.265625 37.332031 60.800781 39.601562 L 77.601562 54.800781 L 88.199219 37.398438 C 90.867188 33.132812 94.667969 31 99.601562 31 L 102.800781 31.398438 C 105.734375 32.199219 108.132812 33.734375 110 36 C 111.734375 38.265625 112.667969 40.867188 112.800781 43.800781 L 113.199219 51.398438 L 133.398438 46 L 136.800781 45.398438 C 141.601562 45.398438 145.332031 47.464844 148 51.601562 C 150.265625 54.800781 150.800781 58.332031 149.601562 62.199219 L 150.800781 61 C 153.332031 58.066406 156.601562 56.601562 160.601562 56.601562 C 162.867188 56.601562 164.933594 57.132812 166.800781 58.199219 L 185.601562 68 L 185 62.199219 C 184.734375 59.265625 185.332031 56.535156 186.800781 54 C 188.398438 51.332031 190.601562 49.464844 193.398438 48.398438 L 198.199219 47.601562 C 202.601562 47.601562 206.199219 49.332031 209 52.800781 L 214.199219 60 L 219.601562 50.601562 C 222.265625 46.199219 226.066406 44 231 44 L 233.398438 44.199219 C 236.199219 44.734375 238.601562 46 240.601562 48 C 242.464844 50 243.667969 52.332031 244.199219 55 L 247 71.199219 L 261.398438 66 L 263.199219 65.601562 C 262 61.332031 262.601562 57.464844 265 54 C 267.535156 50.132812 271.132812 48.199219 275.800781 48.199219 L 276.800781 48.398438 C 282.398438 48.667969 289.265625 50.667969 297.398438 54.398438 L 300.398438 39.800781 C 300.933594 37 302.265625 34.601562 304.398438 32.601562 C 306.535156 30.601562 309 29.464844 311.800781 29.199219 L 313.398438 29.199219 C 316.066406 29.199219 318.464844 29.933594 320.601562 31.398438 C 322.867188 32.734375 324.535156 34.601562 325.601562 37 L 332.199219 52 L 339.601562 47.398438 C 341.734375 45.933594 344.132812 45.199219 346.800781 45.199219 C 350 45.199219 352.867188 46.265625 355.398438 48.398438 C 357.535156 50.265625 358.933594 52.667969 359.601562 55.601562 C 360.265625 58.398438 360.066406 61.132812 359 63.800781 L 354.199219 74.601562 L 364.398438 77.199219 C 367.066406 77.867188 369.332031 79.265625 371.199219 81.398438 C 373.066406 83.535156 374.132812 86 374.398438 88.800781 C 374.667969 91.464844 374.132812 94.066406 372.800781 96.601562 C 371.464844 99 369.535156 100.800781 367 102 L 357.199219 106.800781 L 367.398438 124 C 368.867188 126.535156 369.464844 129.332031 369.199219 132.398438 C 368.800781 135.199219 367.601562 137.734375 365.601562 140 C 362.933594 142.667969 359.667969 144 355.800781 144 L 349.800781 142.601562 L 346.199219 140.800781 L 345.199219 142.199219 L 336.601562 152.601562 L 353.800781 155 C 356.867188 155.265625 359.464844 156.535156 361.601562 158.800781 C 363.734375 160.933594 364.933594 163.535156 365.199219 166.601562 C 365.601562 169.667969 365 172.464844 363.398438 175 C 361.933594 177.667969 359.734375 179.464844 356.800781 180.398438 L 336.601562 188.601562 L 341.601562 192 C 344.132812 193.734375 345.867188 196 346.800781 198.800781 C 347.734375 201.734375 347.667969 204.601562 346.601562 207.398438 C 345.667969 210.066406 344.066406 212.199219 341.800781 213.800781 C 339.535156 215.398438 336.933594 216.199219 334 216.199219 L 323.800781 215.601562 L 327.601562 226.199219 C 328.535156 228.734375 328.601562 231.398438 327.800781 234.199219 C 327 236.734375 325.535156 238.933594 323.398438 240.800781 C 321 242.800781 318.199219 243.800781 315 243.800781 C 312.332031 243.800781 310.066406 243.132812 308.199219 241.800781 L 293.800781 233.199219 L 288.199219 247.800781 C 287.265625 250.332031 285.601562 252.398438 283.199219 254 C 280.933594 255.601562 278.464844 256.398438 275.800781 256.398438 L 275 256.398438 C 272.066406 256.265625 269.535156 255.265625 267.398438 253.398438 C 265.132812 251.535156 263.601562 249.199219 262.800781 246.398438 L 260.800781 238.199219 L 242.398438 252 C 240.265625 253.734375 237.601562 254.601562 234.398438 254.601562 C 231.867188 254.601562 229.535156 253.933594 227.398438 252.601562 C 225.132812 251.265625 223.464844 249.332031 222.398438 246.800781 C 221.199219 244.265625 220.867188 241.667969 221.398438 239 L 227 209.601562 L 224.800781 209 C 215.464844 206.601562 208.398438 204.199219 203.601562 201.800781 C 199.066406 199.398438 196.667969 195.601562 196.398438 190.398438 L 196.398438 188.601562 L 194 188.800781 L 188.199219 187.398438 C 185.933594 186.199219 184.132812 184.464844 182.800781 182.199219 C 181.332031 179.933594 180.667969 177.535156 180.800781 175 L 181 166.601562 L 163.199219 167 L 163 167.199219 C 160.464844 169.734375 157.332031 171 153.601562 171 L 151.601562 170.800781 C 148 173.734375 144.464844 175.199219 141 175.199219 L 134.601562 175.199219 C 130.199219 175.199219 126.265625 173.464844 122.800781 170 L 121 173.601562 C 120.199219 176.398438 118.601562 178.667969 116.199219 180.398438 C 113.933594 182.132812 111.332031 183 108.398438 183 L 94.398438 181.199219 L 92.199219 180.601562 L 75.800781 186.800781 L 47.800781 197.199219 L 35.601562 200 C 31.734375 200 28.398438 198.601562 25.601562 195.800781 C 22.933594 193.265625 21.398438 190 21 186 L 21.199219 175.601562 L 21.601562 169.800781 L 21 167.398438 L 21.398438 167.601562 C 19.265625 165.332031 17.867188 162.667969 17.199219 159.601562 C 16.667969 156.398438 17.066406 153.265625 18.398438 150.199219 C 20.535156 145.265625 24.132812 141.933594 29.199219 140.199219 L 30.398438 134.398438 L 28.398438 133.800781 C 19.066406 131.398438 12.066406 129.066406 7.398438 126.800781 C 2.734375 124.398438 0.265625 120.601562 0 115.398438 C -0.265625 110.199219 1.867188 106.199219 6.398438 103.398438 M 147 67.199219 L 138.800781 77.398438 L 150.601562 78.800781 L 149.398438 77.199219 C 147.265625 74 146.734375 70.398438 147.800781 66.398438 L 147 67.199219 "/>
<path style=" stroke:none;fill-rule:nonzero;fill:rgb(100%,100%,100%);fill-opacity:1;" d="M 26 162.800781 C 23.332031 160.132812 22.800781 156.800781 24.398438 152.800781 C 26.398438 148.398438 29.734375 146.199219 34.398438 146.199219 L 34.800781 146.199219 L 38 129.601562 L 29.800781 127.398438 L 10.398438 120.800781 C 8.132812 119.464844 6.867188 117.535156 6.601562 115 C 6.601562 112.464844 7.667969 110.535156 9.800781 109.199219 C 15.132812 106.132812 26.734375 100.734375 44.601562 93 L 45.199219 49.398438 C 45.199219 46.464844 46.535156 44.464844 49.199219 43.398438 L 51.800781 42.800781 C 53.667969 42.800781 55.199219 43.398438 56.398438 44.601562 L 79 65.199219 L 93.800781 41 C 95 38.867188 96.933594 37.800781 99.601562 37.800781 L 101.199219 38 C 104.265625 38.667969 105.933594 40.667969 106.199219 44 L 106.800781 59.800781 L 135.199219 52.398438 L 136.800781 52.199219 C 139.332031 52.199219 141.199219 53.199219 142.398438 55.199219 C 144.132812 57.867188 144 60.464844 142 63 L 126 82.398438 L 154.601562 86 C 158.066406 86.398438 160 88.332031 160.398438 91.800781 C 160.667969 94.464844 159.800781 96.535156 157.800781 98 L 170.800781 97.800781 L 155 73.601562 C 153.132812 70.667969 153.332031 67.933594 155.601562 65.398438 C 157.066406 63.933594 158.734375 63.199219 160.601562 63.199219 L 163.601562 64 L 193.601562 79.398438 L 191.601562 61.601562 C 191.332031 58.265625 192.734375 55.933594 195.800781 54.601562 L 198.199219 54.199219 C 200.464844 54.199219 202.265625 55.066406 203.601562 56.800781 L 215 72 L 225.398438 54 C 226.734375 51.734375 228.667969 50.601562 231.199219 50.601562 L 232.199219 50.800781 C 235.398438 51.199219 237.199219 53 237.601562 56.199219 L 241.800781 80 L 263.601562 72.199219 L 265.800781 71.800781 C 267.933594 71.800781 269.667969 72.667969 271 74.398438 C 273.132812 77.199219 273.199219 79.800781 271.199219 82.199219 L 268 87.199219 L 284.398438 84 L 280.800781 79.199219 L 277.199219 74.800781 C 273.601562 70.667969 271.132812 67.199219 269.800781 64.398438 C 268.734375 62.132812 268.933594 59.933594 270.398438 57.800781 C 271.601562 55.933594 273.398438 55 275.800781 55 L 276.398438 55 C 282.933594 55.535156 291.601562 58.601562 302.398438 64.199219 L 306.800781 41.199219 C 307.464844 38.132812 309.398438 36.332031 312.601562 35.800781 L 313.398438 35.800781 C 316.332031 35.800781 318.332031 37.132812 319.398438 39.800781 L 329.398438 62 L 343.199219 53 C 344.265625 52.199219 345.464844 51.800781 346.800781 51.800781 C 348.265625 51.800781 349.667969 52.332031 351 53.398438 C 353.535156 55.535156 354.132812 58.132812 352.800781 61.199219 L 344.800781 79 L 362.800781 83.601562 C 365.734375 84.535156 367.398438 86.464844 367.800781 89.398438 C 368.066406 92.464844 366.800781 94.667969 364 96 L 347.800781 104 L 361.601562 127.398438 C 363.332031 130.199219 363.066406 132.867188 360.800781 135.398438 C 359.464844 136.734375 357.800781 137.398438 355.800781 137.398438 L 352.800781 136.800781 L 340.199219 129.601562 L 340.601562 130.199219 C 342.332031 132.867188 342.199219 135.464844 340.199219 138 L 329.199219 151 L 328.601562 153.398438 C 327.933594 155.535156 326.601562 157 324.601562 157.800781 L 353 161.398438 C 354.464844 161.667969 355.734375 162.332031 356.800781 163.398438 C 357.867188 164.464844 358.464844 165.734375 358.601562 167.199219 C 359 170.800781 357.601562 173.132812 354.398438 174.199219 C 342.535156 178.734375 332 183.066406 322.800781 187.199219 L 337.800781 197.601562 C 339.132812 198.398438 340 199.535156 340.398438 201 C 340.933594 202.332031 340.933594 203.734375 340.398438 205.199219 C 339.332031 208.132812 337.199219 209.601562 334 209.601562 L 333.601562 209.601562 L 314.398438 208.199219 L 321.199219 228.398438 C 322.265625 231.199219 321.601562 233.601562 319.199219 235.601562 L 315 237.199219 L 311.601562 236.199219 L 290.398438 223.601562 L 282 245.398438 C 280.933594 248.332031 278.867188 249.800781 275.800781 249.800781 L 275.398438 249.601562 C 272.066406 249.601562 270.066406 248 269.398438 244.800781 L 264.601562 227 L 238.398438 246.601562 C 237.332031 247.535156 236 248 234.398438 248 L 231 247 C 228.332031 245.398438 227.332031 243.132812 228 240.199219 L 234.800781 205 L 226.398438 202.601562 C 217.867188 200.464844 211.265625 198.265625 206.601562 196 C 204.199219 194.667969 203 192.734375 203 190.199219 C 203 187.667969 204.066406 185.667969 206.199219 184.199219 L 216.601562 179 C 216.734375 173.933594 218.601562 169.601562 222.199219 166 C 225.667969 162.535156 229.933594 160.800781 235 160.800781 L 241.601562 162 L 241.601562 160 C 239.066406 159.734375 237.132812 158.734375 235.800781 157 L 225.800781 157.800781 L 198.398438 180.601562 C 197.332031 181.535156 195.867188 182 194 182 L 191.199219 181.398438 C 188.667969 180.199219 187.398438 178.132812 187.398438 175.199219 L 187.800781 159.800781 L 160 160.398438 L 158.398438 162.398438 C 157.066406 163.734375 155.464844 164.398438 153.601562 164.398438 L 151.199219 164 L 148.601562 164.601562 C 145.933594 167.265625 143.398438 168.601562 141 168.601562 L 134.601562 168.601562 C 132.601562 168.601562 130.667969 167.933594 128.800781 166.601562 L 125 161.601562 C 119.667969 162.800781 116.265625 166.132812 114.800781 171.601562 C 113.601562 174.800781 111.464844 176.398438 108.398438 176.398438 L 95.800781 174.601562 L 91.800781 173.800781 L 73.398438 180.601562 C 51.800781 189 39.199219 193.199219 35.601562 193.199219 C 33.332031 193.199219 31.535156 192.535156 30.199219 191.199219 C 28.601562 189.601562 27.667969 187.398438 27.398438 184.601562 L 27.800781 176.199219 L 28.398438 169.800781 L 27.199219 164.601562 L 26 162.800781 M 284.398438 122 L 270.398438 130.199219 L 282.601562 130.199219 L 284 127.800781 L 284.398438 122 M 335 127 L 336.601562 127.199219 L 335.199219 126.398438 L 335 127 M 139.199219 105.601562 L 125 111.601562 L 139.800781 121.800781 C 141.132812 122.601562 142 123.734375 142.398438 125.199219 C 142.933594 126.535156 142.933594 127.933594 142.398438 129.398438 L 142.199219 130 L 162.800781 130 L 166.199219 126.800781 L 142.199219 110.398438 C 140.464844 109.199219 139.464844 107.601562 139.199219 105.601562 M 116.800781 132.601562 L 117.601562 135.199219 L 122 133 L 116.800781 132.601562 "/>
<path style=" stroke:none;fill-rule:nonzero;fill:rgb(100%,94.509804%,0%);fill-opacity:1;" d="M 265.800781 78.601562 L 250 101.601562 L 291.199219 110.398438 L 255.601562 130.800781 L 262.398438 146.199219 C 265.601562 152.734375 267.734375 158.066406 268.800781 162.199219 L 246.199219 152 L 231.199219 144.601562 L 194 175.398438 L 195.199219 136.601562 L 159.199219 142.601562 L 176.800781 126 L 145.800781 104.800781 L 183 104.199219 L 160.601562 70 L 176 78 C 187.332031 83.867188 195.933594 87.933594 201.800781 90.199219 L 198.199219 60.800781 L 215.601562 84 L 231.199219 57.398438 L 236.800781 89 L 265.800781 78.601562 "/>
<path style=" stroke:none;fill-rule:nonzero;fill:rgb(98.039216%,68.627451%,23.137255%);fill-opacity:1;" d="M 200 60 L 215.800781 80.800781 L 229.199219 57.800781 L 229.398438 57.398438 C 229.667969 56.734375 230.464844 56.398438 231.800781 56.398438 L 232.800781 56.601562 L 233 56.800781 L 233.199219 57.199219 L 238.601562 87.398438 L 265 77.800781 L 267 77.601562 C 267.800781 77.734375 268 78.066406 267.601562 78.601562 L 256.601562 94.601562 L 252.601562 99.199219 C 252.066406 100.132812 252.867188 100.867188 255 101.398438 L 292.398438 109.398438 L 293 110.199219 L 292.398438 111 L 268.398438 124.800781 C 263.734375 127.332031 261.066406 129.667969 260.398438 131.800781 C 259.601562 134.066406 260.398438 137.667969 262.800781 142.601562 C 266 148.734375 268.667969 155.066406 270.800781 161.601562 L 269.398438 163 L 267.398438 163 C 261.667969 160.867188 251.535156 156.332031 237 149.398438 L 232.199219 147.398438 C 231.132812 147 231.199219 146.265625 232.398438 145.199219 L 195.601562 175.800781 L 193.601562 176.398438 C 192.667969 176.535156 192.199219 176.265625 192.199219 175.601562 L 193.398438 137.398438 L 178.398438 140.800781 L 159 143.601562 L 157.601562 143.398438 C 157.199219 143 157.199219 142.601562 157.601562 142.199219 L 168.601562 133.199219 C 173.132812 129.199219 174.199219 126.332031 171.800781 124.601562 L 144 105.601562 C 143.464844 105.199219 143.734375 104.800781 144.800781 104.398438 L 146.601562 103.800781 L 180.199219 103.199219 L 158.800781 70.601562 C 158.398438 70.066406 158.734375 69.601562 159.800781 69.199219 L 162 69 C 178.132812 77.535156 189.265625 83.132812 195.398438 85.800781 C 198.867188 87.265625 200.332031 86.265625 199.800781 82.800781 L 197.601562 72.398438 L 196.398438 61.398438 C 196.265625 60.734375 196.800781 60.199219 198 59.800781 L 200 60 M 248.199219 101.601562 L 256.199219 88.800781 C 259.667969 83.734375 262.867188 80.667969 265.800781 79.601562 L 237.398438 89.800781 L 234.800781 89.601562 L 230 62.601562 L 217.398438 84 L 215.800781 85 L 213.800781 84.800781 L 201 67.601562 L 203.601562 89.601562 L 202.199219 91 L 200.199219 91 C 192.734375 87.933594 182.734375 83.199219 170.199219 76.800781 L 165.800781 74.398438 L 184.800781 103.398438 L 184.199219 104.800781 L 182.199219 105.199219 L 150 105.800781 L 178.601562 125.398438 L 178.398438 126.398438 L 167 137 L 161.398438 140.800781 L 163.800781 140.800781 L 195.601562 135.601562 C 196.667969 135.601562 197.199219 135.867188 197.199219 136.398438 L 196 172.199219 L 229.601562 144.398438 C 230.535156 143.464844 231.535156 143.265625 232.601562 143.800781 C 241.800781 148.601562 249.601562 152.398438 256 155.199219 C 257.867188 156 260.464844 157.464844 263.800781 159.601562 C 265.933594 160.667969 266.265625 159.535156 264.800781 156.199219 L 253.601562 131.199219 L 254.398438 130.199219 L 282.398438 114.398438 L 288.398438 111.800781 C 289.199219 111.535156 288.464844 111.132812 286.199219 110.601562 L 248.800781 102.601562 C 248.132812 102.332031 247.933594 102 248.199219 101.601562 "/>
<path style=" stroke:none;fill-rule:nonzero;fill:rgb(100%,94.509804%,0%);fill-opacity:1;" d="M 13.199219 114.800781 C 17.199219 112.535156 24.734375 109 35.800781 104.199219 L 51.199219 97.601562 L 51.800781 49.398438 L 80.601562 75.601562 L 99.601562 44.398438 L 100.601562 68.398438 L 136.800781 58.800781 L 113.199219 87.398438 L 153.800781 92.601562 L 137.800781 99 C 125.933594 103.933594 117.199219 107.867188 111.601562 110.800781 L 136.199219 127.199219 L 107.199219 125.398438 L 117.398438 154.398438 L 89.800781 138 L 78.800781 167 L 71.601562 140 L 38 165.398438 C 41.199219 147.398438 43.800781 134 45.800781 125.199219 L 29.601562 120.398438 L 13.199219 114.800781 "/>
<path style=" stroke:none;fill-rule:nonzero;fill:rgb(98.039216%,68.627451%,23.137255%);fill-opacity:1;" d="M 12.199219 116.199219 L 11.398438 115 L 12.398438 113.601562 C 19.332031 109.734375 29.398438 105.066406 42.601562 99.601562 L 48.601562 97.199219 L 49.199219 92.199219 L 50 49.601562 C 50 48.933594 50.464844 48.398438 51.398438 48 L 53.398438 48.199219 L 80.398438 72.800781 L 97.601562 44 C 98 43.332031 98.734375 43 99.800781 43 C 100.867188 42.867188 101.398438 43.265625 101.398438 44.199219 L 102.601562 66.398438 L 136.398438 57.398438 L 138.398438 57.800781 C 138.933594 58.199219 138.933594 58.734375 138.398438 59.398438 L 116.398438 86.398438 L 154.398438 91.199219 L 155.800781 92.398438 L 154.601562 93.800781 C 139.132812 99.933594 127.667969 104.734375 120.199219 108.199219 C 116.199219 110.066406 117.199219 113.132812 123.199219 117.398438 L 137.601562 126 C 138.398438 126.535156 138.398438 127.132812 137.601562 127.800781 L 135.398438 128.601562 L 119 127.601562 L 110 127.199219 L 119.199219 153.601562 L 119.398438 154 L 119.398438 154.199219 L 118.601562 155.199219 L 116 155.601562 L 115.601562 155.398438 L 90.800781 140.601562 L 89.800781 142.800781 L 80.601562 167.199219 C 80.332031 168 79.667969 168.464844 78.601562 168.601562 L 76.800781 167.398438 L 70.398438 142.800781 L 69.800781 143.199219 L 39.199219 166.398438 L 37.199219 167 L 36 165.601562 L 41.199219 138.398438 C 42.132812 133.066406 42.132812 129.535156 41.199219 127.800781 C 40.132812 125.667969 37 123.933594 31.800781 122.601562 L 12.199219 116.199219 M 20 112.199219 C 16.933594 113.800781 17.199219 115.132812 20.800781 116.199219 L 46.800781 123.800781 L 47.800781 125 C 45.535156 134.867188 43.464844 145.398438 41.601562 156.601562 L 40.601562 161.601562 L 70.199219 139 C 70.734375 138.601562 71.332031 138.398438 72 138.398438 L 73.398438 139.398438 L 79.199219 160.601562 L 87.800781 137.800781 L 89.398438 136.601562 L 91.199219 136.800781 L 113.800781 150.199219 L 105.199219 125.800781 C 104.800781 124.464844 105.667969 123.800781 107.800781 123.800781 L 130.199219 125.398438 L 110.199219 112 L 109.601562 110.601562 L 110.800781 109.601562 C 119.867188 104.933594 130 100.464844 141.199219 96.199219 L 148 93.398438 L 112.601562 89 L 111.398438 88.199219 L 111.601562 86.800781 L 132.398438 61.601562 L 101 69.800781 L 99.398438 69.800781 L 98.601562 68.601562 L 98 50.601562 L 82.398438 75.800781 C 81.464844 77.398438 80.332031 77.734375 79 76.800781 L 53.800781 53.601562 L 53 97.398438 L 52 98.800781 C 43.464844 102.265625 35.535156 105.667969 28.199219 109 L 20 112.199219 "/>
<path style=" stroke:none;fill-rule:nonzero;fill:rgb(100%,94.509804%,0%);fill-opacity:1;" d="M 286.199219 75.398438 C 280.867188 69.398438 277.398438 64.800781 275.800781 61.601562 C 279.933594 62 285.199219 63.601562 291.601562 66.398438 L 307.199219 74.199219 L 313.398438 42.398438 L 326.398438 71.800781 L 346.800781 58.398438 L 335.601562 83.601562 L 361.199219 90.199219 L 338.398438 101.199219 L 355.800781 130.800781 C 343.800781 124.535156 335.867188 119.332031 332 115.199219 C 330.265625 119.601562 328.464844 125.601562 326.601562 133.199219 L 322.199219 151.601562 L 315.800781 135.601562 L 310.199219 123.601562 L 290 139.199219 L 291.800781 111.800781 L 255.199219 98 C 267.464844 93.464844 281.800781 90.535156 298.199219 89.199219 C 293.398438 84.535156 289.398438 79.933594 286.199219 75.398438 "/>
<path style=" stroke:none;fill-rule:nonzero;fill:rgb(98.039216%,68.627451%,23.137255%);fill-opacity:1;" d="M 315.398438 41.800781 L 327.601562 69.398438 L 327.601562 69.601562 L 345.601562 57.800781 L 347.800781 57.398438 C 348.734375 57.398438 349 57.800781 348.601562 58.601562 L 337.601562 83.199219 C 338 82.398438 346.199219 84.332031 362.199219 89 L 363 90 L 362 91 L 347.199219 98.199219 L 342 100.398438 C 341.066406 100.800781 340.867188 101.464844 341.398438 102.398438 L 357.601562 130 L 357.800781 130.800781 L 356.601562 131.800781 C 355.398438 132.332031 354.667969 132.332031 354.398438 131.800781 C 346.535156 127.800781 339.464844 123.398438 333.199219 118.601562 L 324.199219 151.398438 L 322.398438 152.800781 C 321.199219 153.066406 320.535156 152.800781 320.398438 152 L 313.601562 136.601562 C 310.535156 129.667969 309.667969 125.667969 311 124.601562 L 291.199219 140 L 289.398438 140.398438 L 288 139.398438 L 290.199219 112.800781 L 254 99 C 253.199219 98.734375 253 98.332031 253.398438 97.800781 L 254.800781 96.800781 C 267.332031 92.535156 279.800781 89.800781 292.199219 88.601562 L 274 62.398438 C 273.601562 61.734375 273.867188 61.199219 274.800781 60.800781 L 277 60.398438 C 284.332031 61.734375 291.464844 64.199219 298.398438 67.800781 C 300.933594 69.132812 303 70.667969 304.601562 72.398438 C 305.132812 72.800781 305.800781 71.066406 306.601562 67.199219 L 311.398438 42.601562 C 311.667969 41.933594 312.265625 41.464844 313.199219 41.199219 C 314.265625 40.933594 315 41.132812 315.398438 41.800781 M 280.601562 65.398438 L 300 88.398438 C 300.398438 88.800781 300.265625 89.265625 299.601562 89.800781 L 298 90.398438 C 281.867188 92 269.601562 94.265625 261.199219 97.199219 C 259.199219 97.867188 259.734375 98.734375 262.800781 99.800781 L 270 102 L 293 110.800781 L 293.800781 111.601562 L 292.199219 136 L 293.199219 135.199219 L 309 122.800781 L 310.601562 122.199219 L 312.199219 123 L 322 144.601562 L 324.800781 133.398438 C 326.265625 126.734375 328 120.734375 330 115.398438 L 331.601562 114 L 333.601562 114.398438 C 337.867188 118.132812 343.734375 122.132812 351.199219 126.398438 L 336.601562 102 C 336.332031 101.464844 336.667969 100.867188 337.601562 100.199219 L 357.601562 90.601562 L 334.398438 84.800781 C 333.734375 84.535156 333.535156 84.066406 333.800781 83.398438 L 343.199219 62.398438 L 327.601562 72.398438 L 326 73 C 325.199219 73 324.734375 72.734375 324.601562 72.199219 L 314 48.800781 L 309 74 L 307.601562 75.199219 L 305.601562 75.199219 L 290.601562 68.398438 C 282.867188 65.066406 279.535156 64.066406 280.601562 65.398438 "/>
<path style=" stroke:none;fill-rule:nonzero;fill:rgb(100%,94.509804%,0%);fill-opacity:1;" d="M 352 168 L 335.800781 174.398438 C 323.800781 179.332031 314.933594 183.265625 309.199219 186.199219 L 334 203 L 304.800781 201 L 315 230.398438 L 287 213.800781 L 275.800781 243 L 268.601562 215.601562 L 234.398438 241.398438 C 237.734375 223.132812 240.464844 209.535156 242.601562 200.601562 L 226.199219 195.601562 C 219 193.734375 213.464844 191.867188 209.601562 190 C 213.601562 187.601562 221.199219 184 232.398438 179.199219 L 248 172.601562 L 249 123.800781 L 278 150.398438 L 297.199219 119 L 298.199219 143.398438 L 335 133.601562 L 311 162.601562 L 352 168 "/>
<path style=" stroke:none;fill-rule:nonzero;fill:rgb(98.039216%,68.627451%,23.137255%);fill-opacity:1;" d="M 248.601562 122.800781 L 250.800781 123 L 277.800781 147.800781 L 280 144.199219 L 295.398438 118.800781 L 297.398438 117.800781 C 298.601562 117.535156 299.199219 117.734375 299.199219 118.398438 L 299.800781 134.199219 L 299.199219 140.601562 C 299.066406 141.535156 299.933594 141.734375 301.800781 141.199219 L 334.800781 132.601562 L 336.601562 132.800781 C 337.132812 133.066406 337.132812 133.464844 336.601562 134 L 324.398438 150.199219 C 318.535156 157.933594 314.535156 161.667969 312.398438 161.398438 L 352.800781 166.800781 L 354 167.800781 L 352.800781 169 C 338.132812 174.601562 326.535156 179.398438 318 183.398438 C 313.734375 185.265625 314.667969 188.464844 320.800781 193 L 335.601562 202 C 336.265625 202.535156 336.199219 203.066406 335.398438 203.601562 L 333.398438 204.199219 L 308.601562 202.398438 L 307.398438 202.398438 L 317 230 L 317.199219 230.398438 L 315.398438 231.601562 L 313.199219 231.199219 L 288 216.199219 L 277.601562 242.800781 L 275.800781 244.199219 C 274.601562 244.601562 273.933594 244.398438 273.800781 243.601562 L 268.800781 224.398438 L 267.398438 219.398438 C 267.265625 218.734375 267.734375 217.933594 268.800781 217 L 235.601562 242 L 233.800781 242.398438 L 232.601562 241.601562 L 237.800781 214 C 238.867188 208.667969 238.933594 205.066406 238 203.199219 C 236.800781 200.933594 233.601562 199.066406 228.398438 197.601562 C 220.933594 195.734375 214.199219 193.535156 208.199219 191 L 207.800781 190.199219 C 207.800781 189.800781 208 189.535156 208.398438 189.398438 C 215.464844 185.398438 224.601562 181.132812 235.800781 176.601562 L 244 173.398438 C 245.332031 172.601562 246.066406 170.535156 246.199219 167.199219 L 247 124 L 248.601562 122.800781 M 276.199219 151.199219 L 250.800781 128 L 250 172.398438 L 248.800781 173.601562 L 229 182 L 218.199219 186.800781 C 214.601562 189.332031 216.535156 191.601562 224 193.601562 L 243.800781 199.601562 L 244.398438 200.398438 L 238 232.199219 C 237.464844 235.132812 236.464844 237.601562 235 239.601562 L 267.398438 215 L 269 214.601562 C 269.800781 214.464844 270.265625 214.667969 270.398438 215.199219 L 276.199219 237 L 285 214 L 286.601562 212.800781 L 288.601562 212.800781 L 311.601562 226.601562 L 302.800781 201.398438 L 303.800781 200.199219 L 305.398438 199.800781 L 328.601562 201.398438 L 307.800781 187.199219 L 307.601562 186.199219 L 308.398438 185.398438 C 317.734375 180.867188 328.066406 176.332031 339.398438 171.800781 L 347.398438 168.800781 L 310.199219 163.800781 C 309 163.535156 308.734375 163 309.398438 162.199219 L 321.601562 146.199219 C 327.066406 139.535156 331.464844 135.734375 334.800781 134.800781 L 298.601562 144.398438 L 296.398438 143.800781 L 295.601562 125 L 279.800781 150.601562 L 278 151.601562 L 276.199219 151.199219 "/>
<path style=" stroke:none;fill-rule:nonzero;fill:rgb(29.803922%,29.803922%,29.803922%);fill-opacity:1;" d="M 188.800781 136.199219 C 188.800781 135.132812 189 134.332031 189.398438 133.800781 L 189.601562 136 L 191.398438 136.601562 L 191.398438 137.601562 L 188.800781 137.398438 L 188.800781 136.199219 "/>
<path style="fill:none;stroke-width:0.5;stroke-linecap:butt;stroke-linejoin:miter;stroke:rgb(9.803922%,9.803922%,9.803922%);stroke-opacity:1;stroke-miterlimit:4;" d="M 54.500196 69.699608 L 55.14961 69.750389 L 55.14961 69.500389 L 54.700391 69.349998 L 54.64961 68.800194 C 54.55 68.933006 54.500196 69.133202 54.500196 69.399803 Z M 54.500196 69.699608 " transform="matrix(4,0,0,4,-29.200001,-141.399994)"/>
<path style=" stroke:none;fill-rule:nonzero;fill:rgb(29.803922%,29.803922%,29.803922%);fill-opacity:1;" d="M 312.800781 138.398438 L 307.398438 138.398438 L 307.398438 133.800781 L 312.800781 133.800781 L 312.800781 138.398438 "/>
<path style=" stroke:none;fill-rule:nonzero;fill:rgb(9.803922%,9.803922%,9.803922%);fill-opacity:1;" d="M 305.601562 139 L 305.601562 134.199219 C 305.601562 133.132812 306.464844 132.601562 308.199219 132.601562 L 313.601562 132.601562 C 314.265625 132.601562 314.601562 132.800781 314.601562 133.199219 L 314.601562 138.398438 L 314.398438 138.800781 L 312 139.398438 L 306.800781 139.398438 L 305.601562 139 M 310.800781 137.398438 L 310.800781 134.800781 L 309.398438 134.800781 L 309.398438 137.398438 L 310.800781 137.398438 "/>
<path style=" stroke:none;fill-rule:nonzero;fill:rgb(38.039216%,22.352941%,9.019608%);fill-opacity:1;" d="M 30.800781 155.199219 C 31.464844 153.601562 32.667969 152.800781 34.398438 152.800781 L 98.800781 146 C 99.867188 146 100.800781 146.398438 101.601562 147.199219 L 105 148.199219 C 106.601562 148.199219 109.734375 146.933594 114.398438 144.398438 L 126 138.398438 C 128.933594 141.332031 134.867188 142.464844 143.800781 141.800781 L 167.800781 143.398438 L 167.800781 140.398438 L 252.800781 140.398438 C 253.464844 140.398438 253.800781 141.734375 253.800781 144.398438 C 253.800781 147.464844 253.132812 149 251.800781 149 L 242.800781 149 L 240.199219 150.199219 L 189.800781 153.199219 L 132.398438 154.199219 C 124 154.199219 117.734375 156.199219 113.601562 160.199219 C 111.332031 162.464844 109.601562 165.667969 108.398438 169.800781 L 98.800781 168.601562 L 91.398438 167.199219 L 62.800781 177.601562 C 45.066406 184.265625 35.800781 187.199219 35 186.398438 C 34.066406 185.601562 33.800781 183.398438 34.199219 179.800781 L 35 169.800781 C 35 165 33.535156 161.132812 30.601562 158.199219 C 29.933594 157.535156 30 156.535156 30.800781 155.199219 "/>
<path style=" stroke:none;fill-rule:nonzero;fill:rgb(9.803922%,9.803922%,9.803922%);fill-opacity:1;" d="M 34.800781 161.800781 L 36.800781 169.199219 L 36.199219 179 C 36.066406 183.535156 37.535156 185.332031 40.601562 184.398438 L 86.398438 167.398438 L 98.199219 166.601562 L 107 168.199219 C 109.398438 161.933594 112.734375 157.933594 117 156.199219 C 125.800781 152.601562 137.867188 150.867188 153.199219 151 L 190.398438 152 L 243 147.800781 C 247.800781 147.265625 250.464844 146.132812 251 144.398438 C 251.667969 142.535156 249.464844 141.601562 244.398438 141.601562 L 169.199219 141.601562 L 168.199219 141.398438 L 169.601562 143.199219 C 169.601562 144.132812 168.933594 144.601562 167.601562 144.601562 L 145.398438 144.800781 C 137 144.132812 130.464844 142.535156 125.800781 140 L 115.800781 146 C 110.734375 148.800781 106.734375 149.867188 103.800781 149.199219 C 97.800781 148 90.734375 147.867188 82.601562 148.800781 L 47 152.800781 L 34.800781 154 C 33.601562 154.132812 33.601562 156.734375 34.800781 161.800781 M 28.601562 156.199219 C 30.601562 152.066406 37.132812 149.535156 48.199219 148.601562 L 71.199219 147.800781 L 84.800781 146 L 98.398438 144.800781 C 107.066406 144.265625 116 141.867188 125.199219 137.601562 L 127 137.398438 L 127.601562 137.398438 L 140.398438 140.199219 L 155.601562 142.398438 L 166 142.199219 C 165.601562 142.066406 165.535156 141.535156 165.800781 140.601562 C 165.800781 139.667969 166.667969 139.199219 168.398438 139.199219 L 230.398438 139.199219 L 242.199219 138.601562 L 254 139.398438 C 255.464844 139.800781 256.199219 141.199219 256.199219 143.601562 C 256.199219 146 255.734375 147.601562 254.800781 148.398438 C 251.066406 151.199219 243.535156 152.800781 232.199219 153.199219 L 209 153.398438 C 186.066406 152.734375 167.601562 152.734375 153.601562 153.398438 C 127.734375 154.734375 113.265625 160.132812 110.199219 169.601562 C 109.933594 170.800781 109.066406 171.265625 107.601562 171 L 95.199219 169.601562 L 83 171.199219 L 65.398438 177.800781 L 52.398438 183 L 38.800781 187.199219 L 34.601562 187.800781 C 33.667969 187.535156 32.867188 186.398438 32.199219 184.398438 C 31.398438 182.265625 31.332031 178.066406 32 171.800781 C 32.398438 166.464844 31.332031 162.199219 28.800781 159 C 28.265625 157.933594 28.199219 157 28.601562 156.199219 "/>
<path style=" stroke:none;fill-rule:nonzero;fill:rgb(40%,40%,40%);fill-opacity:1;" d="M 314.398438 141.199219 L 173.601562 141.199219 L 173.601562 136.800781 L 314.601562 136.800781 L 314.398438 141.199219 "/>
<path style=" stroke:none;fill-rule:nonzero;fill:rgb(9.803922%,9.803922%,9.803922%);fill-opacity:1;" d="M 316.398438 140.601562 C 316.398438 141.132812 315.601562 141.464844 314 141.601562 L 313.199219 141.800781 L 172.398438 141.800781 L 171.601562 141.601562 L 171.601562 137.398438 C 171.601562 136.464844 172.667969 136 174.800781 136 L 315.800781 136 L 316.398438 136.199219 L 316.398438 140.601562 M 305 136.800781 L 292 137.601562 L 173.800781 137.601562 C 174.867188 137.734375 175.398438 138 175.398438 138.398438 C 175.398438 140.132812 178.800781 141 185.601562 141 L 199.199219 140.398438 L 312.601562 140.398438 C 311.933594 138 309.398438 136.800781 305 136.800781 "/>
<path style=" stroke:none;fill-rule:nonzero;fill:rgb(29.803922%,29.803922%,29.803922%);fill-opacity:1;" d="M 314.601562 141.601562 L 306 141.601562 L 306 136.800781 L 314.601562 136.800781 L 314.601562 141.601562 "/>
<path style=" stroke:none;fill-rule:nonzero;fill:rgb(9.803922%,9.803922%,9.803922%);fill-opacity:1;" d="M 306.800781 135.601562 L 315.199219 135.601562 L 316.398438 136.601562 L 316.398438 142 L 314.601562 143 L 305.199219 143 C 304.398438 143 304 142.667969 304 142 L 304 137 C 304 136.066406 304.933594 135.601562 306.800781 135.601562 M 308 140.398438 L 312.601562 140.398438 L 312.601562 138 L 308 138 L 308 140.398438 "/>
<path style=" stroke:none;fill-rule:nonzero;fill:rgb(29.803922%,29.803922%,29.803922%);fill-opacity:1;" d="M 244.199219 136 L 244.199219 151.601562 L 242.398438 153.398438 C 241.066406 153.398438 240.398438 152.800781 240.398438 151.601562 L 240.398438 136 L 244.199219 136 "/>
<path style=" stroke:none;fill-rule:nonzero;fill:rgb(9.803922%,9.803922%,9.803922%);fill-opacity:1;" d="M 245.601562 135.398438 L 246.199219 135.601562 L 246.199219 146.199219 L 246 151 C 245.601562 152.601562 244.464844 153.601562 242.601562 154 C 240.332031 154.398438 239 153.734375 238.601562 152 L 238.398438 146.601562 L 238.398438 136.601562 C 238.398438 135.800781 239.464844 135.398438 241.601562 135.398438 L 243.601562 135.398438 L 242.398438 135.800781 L 242.398438 136.398438 L 243.800781 135.398438 L 245.601562 135.398438 "/>
<path style=" stroke:none;fill-rule:nonzero;fill:rgb(29.803922%,29.803922%,29.803922%);fill-opacity:1;" d="M 173.601562 146.398438 L 138.601562 151 L 132.800781 147.601562 C 128.800781 144.800781 126.800781 142 126.800781 139.199219 C 129.464844 137.464844 136 136.601562 146.398438 136.601562 L 173.601562 136.800781 L 173.601562 146.398438 "/>
<path style=" stroke:none;fill-rule:nonzero;fill:rgb(9.803922%,9.803922%,9.803922%);fill-opacity:1;" d="M 126 138 C 129.601562 136.132812 135.601562 135.199219 144 135.199219 L 173.601562 135.398438 L 173.800781 135.398438 C 175 135.265625 175.601562 135.667969 175.601562 136.601562 L 175.601562 146.398438 L 173.398438 147.800781 L 142.398438 151.800781 C 138.535156 152.332031 134.867188 151.464844 131.398438 149.199219 C 127.667969 146.667969 125.535156 143.535156 125 139.800781 C 124.867188 139.132812 125.199219 138.535156 126 138 M 129.199219 140.398438 C 130.265625 143.066406 132.199219 145.265625 135 147 C 137.667969 148.734375 139.332031 149.535156 140 149.398438 L 171.601562 145.398438 L 171.601562 138.199219 L 155 137.800781 L 136.398438 138.199219 L 132.199219 138.800781 C 129.933594 139.199219 128.933594 139.734375 129.199219 140.398438 "/>
<path style=" stroke:none;fill-rule:nonzero;fill:rgb(29.803922%,29.803922%,29.803922%);fill-opacity:1;" d="M 137.199219 154.199219 L 136.199219 155 L 135 157 L 135.601562 159.199219 L 135.398438 160.800781 C 134.199219 159.601562 133.601562 158.332031 133.601562 157 C 133.601562 155.800781 134 154.867188 134.800781 154.199219 L 137.199219 154.199219 "/>
<path style="fill:none;stroke-width:0.5;stroke-linecap:butt;stroke-linejoin:miter;stroke:rgb(9.803922%,9.803922%,9.803922%);stroke-opacity:1;stroke-miterlimit:4;" d="M 41.000196 73.899803 C 40.8 74.066795 40.700391 74.300194 40.700391 74.599998 C 40.700391 74.933006 40.849805 75.250389 41.14961 75.550194 L 41.200391 75.149803 L 41.05 74.599998 L 41.349805 74.099998 L 41.599805 73.899803 Z M 41.000196 73.899803 " transform="matrix(4,0,0,4,-29.200001,-141.399994)"/>
<path style=" stroke:none;fill-rule:nonzero;fill:rgb(29.803922%,29.803922%,29.803922%);fill-opacity:1;" d="M 155.199219 153.800781 C 156 154.601562 155.464844 155.933594 153.601562 157.800781 L 153.601562 156.800781 L 154.199219 155.601562 L 154.601562 153.800781 L 155.199219 153.800781 "/>
<path style="fill:none;stroke-width:0.5;stroke-linecap:butt;stroke-linejoin:miter;stroke:rgb(9.803922%,9.803922%,9.803922%);stroke-opacity:1;stroke-miterlimit:4;" d="M 46.099805 73.800194 C 46.3 74.000389 46.166211 74.333397 45.700391 74.800194 L 45.700391 74.550194 L 45.849805 74.250389 L 45.950391 73.800194 Z M 46.099805 73.800194 " transform="matrix(4,0,0,4,-29.200001,-141.399994)"/>
<path style=" stroke:none;fill-rule:nonzero;fill:rgb(29.803922%,29.803922%,29.803922%);fill-opacity:1;" d="M 132.199219 160.601562 L 131 158.601562 C 131 156.066406 130.464844 154.601562 129.398438 154.199219 L 133.199219 154.199219 L 132.601562 154.800781 C 132.199219 155.332031 132 156 132 156.800781 L 133.199219 159.398438 C 134.132812 160.199219 135.199219 160.601562 136.398438 160.601562 L 141.800781 160.601562 C 143.933594 158.464844 144 156.265625 142 154 L 151.601562 154 L 150.601562 155.398438 L 148.601562 155.398438 L 148.601562 157.800781 L 145 157.800781 L 143.398438 160.398438 L 141 162 L 134.601562 162 L 132.199219 160.601562 "/>
<path style=" stroke:none;fill-rule:nonzero;fill:rgb(9.803922%,9.803922%,9.803922%);fill-opacity:1;" d="M 128.199219 153.800781 L 130.199219 153.199219 L 134 153 L 135 153.601562 L 134.800781 154.601562 C 133.199219 155.800781 133.132812 156.933594 134.601562 158 C 135.933594 158.933594 137.265625 159.398438 138.601562 159.398438 L 140.800781 159.398438 C 141.464844 157.933594 141.332031 156.535156 140.398438 155.199219 L 140.199219 154.800781 L 140.199219 154.601562 C 139.800781 154.199219 140.132812 153.734375 141.199219 153.199219 L 143.199219 153 L 152.398438 152.800781 C 153.464844 152.800781 153.800781 153.199219 153.398438 154 L 151 156.199219 L 150.398438 156.398438 L 150.398438 157.601562 C 150.398438 158.535156 149.535156 159 147.800781 159 L 146.398438 159 C 145.066406 161.667969 142.265625 163 138 163 L 134.398438 163.199219 L 131.199219 162 L 129 159 L 128 155.199219 C 127.332031 154.800781 127.398438 154.332031 128.199219 153.800781 M 146.601562 155.800781 L 147 155.199219 L 145 155.199219 L 145.398438 156.800781 L 146.601562 156.800781 L 146.601562 155.800781 "/>
<path style=" stroke:none;fill-rule:nonzero;fill:rgb(45.882353%,30.196078%,14.117647%);fill-opacity:1;" d="M 52.398438 157.199219 L 38.601562 158.601562 L 34.398438 157.199219 C 33.066406 156.265625 33.464844 155.535156 35.601562 155 L 56.601562 154 L 66.601562 152.800781 L 71.398438 150.800781 L 76.398438 149.398438 L 87.601562 149.199219 L 93.199219 148.601562 L 98.398438 148.800781 L 90.398438 150.601562 L 81.601562 150.398438 L 70 152.601562 L 52.398438 157.199219 "/>
<path style=" stroke:none;fill-rule:nonzero;fill:rgb(45.882353%,30.196078%,14.117647%);fill-opacity:1;" d="M 35.601562 160.199219 C 35.464844 158.734375 35.667969 158.265625 36.199219 158.800781 L 37.398438 161 L 40.398438 168.199219 L 40.199219 176.601562 C 39.535156 181 38.601562 183.066406 37.398438 182.800781 C 36.601562 182.667969 36.464844 181 37 177.800781 L 37.800781 173.601562 L 38 169.800781 L 35.601562 160.199219 "/>
<path style=" stroke:none;fill-rule:nonzero;fill:rgb(45.882353%,30.196078%,14.117647%);fill-opacity:1;" d="M 95.199219 164.398438 L 98.601562 165 L 104.800781 164.800781 L 105.601562 162.800781 L 106.199219 160.601562 L 110 157 L 114.800781 154.398438 C 117.601562 152.535156 120.199219 151.535156 122.601562 151.398438 L 126.199219 151.398438 L 129.199219 152.199219 L 129.199219 152.398438 L 125 152.398438 L 118.601562 153.601562 C 116.734375 154.132812 114.734375 155.132812 112.601562 156.601562 C 110.199219 158.332031 108.933594 160.066406 108.800781 161.800781 L 108.398438 164.601562 C 107.601562 166.199219 106.265625 167 104.398438 167 L 99.601562 166.398438 L 91.800781 165 L 95.199219 164.398438 "/>
<path style=" stroke:none;fill-rule:nonzero;fill:rgb(45.882353%,30.196078%,14.117647%);fill-opacity:1;" d="M 202.800781 151 L 176.800781 152.398438 L 174.398438 152.398438 L 170.398438 152.601562 L 167 152.601562 L 164.398438 152.398438 L 160.800781 152.800781 L 158.398438 152.398438 L 160.398438 151 L 167.601562 151.398438 L 180.601562 150.800781 L 188.199219 150 L 195.601562 149.199219 L 227.601562 149.199219 L 231.800781 148.800781 L 236 149.398438 L 228.601562 150.199219 L 202.800781 151 "/>
<path style=" stroke:none;fill-rule:nonzero;fill:rgb(40%,40%,40%);fill-opacity:1;" d="M 147 138.601562 L 136.601562 140.800781 L 133.199219 141.398438 L 130 140.601562 C 129.199219 139.667969 129.398438 139.066406 130.601562 138.800781 L 133.398438 138.601562 L 142 137.398438 C 145.199219 137.398438 146.867188 137.734375 147 138.398438 L 147 138.601562 "/>
<path style=" stroke:none;fill-rule:nonzero;fill:rgb(40%,40%,40%);fill-opacity:1;" d="M 246.800781 179.199219 C 246.800781 182.398438 245.667969 185.132812 243.398438 187.398438 C 241.132812 189.667969 238.332031 190.800781 235 190.800781 C 231.800781 190.800781 229.066406 189.667969 226.800781 187.398438 C 224.535156 185.132812 223.398438 182.398438 223.398438 179.199219 C 223.398438 175.867188 224.535156 173.066406 226.800781 170.800781 C 229.066406 168.535156 231.800781 167.398438 235 167.398438 C 238.332031 167.398438 241.132812 168.535156 243.398438 170.800781 C 245.667969 173.066406 246.800781 175.867188 246.800781 179.199219 "/>
<path style=" stroke:none;fill-rule:nonzero;fill:rgb(20%,20%,20%);fill-opacity:1;" d="M 248.800781 179.199219 C 248.667969 182.800781 247.265625 185.867188 244.601562 188.398438 C 241.933594 190.800781 238.667969 192.066406 234.800781 192.199219 C 231.199219 192.464844 228.066406 191.265625 225.398438 188.601562 C 222.601562 185.933594 221.265625 182.800781 221.398438 179.199219 C 221.800781 170.800781 226.332031 166.535156 235 166.398438 C 243.535156 166.265625 248.132812 170.398438 248.800781 178.800781 L 248.800781 179.199219 M 242.199219 172.199219 C 240.332031 170.066406 238.132812 168.933594 235.601562 168.800781 C 232.800781 168.667969 230.332031 169.601562 228.199219 171.601562 C 226.066406 173.601562 225.066406 176.066406 225.199219 179 C 225.464844 181.667969 226.398438 184 228 186 C 229.734375 188.132812 231.867188 189.265625 234.398438 189.398438 C 237.464844 189.535156 239.933594 188.601562 241.800781 186.601562 C 243.667969 184.734375 244.667969 182.265625 244.800781 179.199219 C 244.667969 176.667969 243.800781 174.332031 242.199219 172.199219 "/>
<path style=" stroke:none;fill-rule:nonzero;fill:rgb(20%,20%,20%);fill-opacity:1;" d="M 240.199219 174.601562 L 239.199219 172.601562 C 240 172.601562 240.667969 173.332031 241.199219 174.800781 L 241.398438 176.199219 L 241.398438 177 L 240.800781 177.199219 L 240.199219 174.601562 "/>
<path style=" stroke:none;fill-rule:nonzero;fill:rgb(20%,20%,20%);fill-opacity:1;" d="M 242.601562 175 L 242 173.199219 L 243.398438 174.800781 L 244.199219 177.199219 C 244.199219 178.265625 243.933594 178.398438 243.398438 177.601562 L 242.601562 175 "/>
<path style=" stroke:none;fill-rule:nonzero;fill:rgb(80%,80%,80%);fill-opacity:1;" d="M 228.800781 184.398438 C 228.535156 183.601562 228.734375 183.066406 229.398438 182.800781 C 230.332031 182.398438 230.933594 182.800781 231.199219 184 C 231.601562 185.332031 231.265625 185.933594 230.199219 185.800781 L 228.800781 184.398438 "/>
<path style=" stroke:none;fill-rule:nonzero;fill:rgb(40%,40%,40%);fill-opacity:1;" d="M 328.800781 106.601562 C 328.800781 108.867188 328 110.734375 326.398438 112.199219 C 324.800781 113.800781 322.867188 114.601562 320.601562 114.601562 C 318.464844 114.601562 316.601562 113.800781 315 112.199219 C 313.398438 110.734375 312.601562 108.867188 312.601562 106.601562 C 312.601562 104.464844 313.398438 102.601562 315 101 C 316.601562 99.398438 318.464844 98.601562 320.601562 98.601562 C 322.867188 98.601562 324.800781 99.398438 326.398438 101 C 328 102.464844 328.800781 104.332031 328.800781 106.601562 "/>
<path style=" stroke:none;fill-rule:nonzero;fill:rgb(20%,20%,20%);fill-opacity:1;" d="M 330.601562 106.398438 L 330.601562 107 C 330.332031 109.398438 329.265625 111.464844 327.398438 113.199219 C 325.535156 114.933594 323.265625 115.867188 320.601562 116 C 317.933594 116.132812 315.601562 115.265625 313.601562 113.398438 C 311.464844 111.535156 310.464844 109.332031 310.601562 106.800781 C 311 100.800781 314.332031 97.667969 320.601562 97.398438 C 326.734375 97.265625 330.066406 100.066406 330.601562 105.800781 L 330.601562 106.398438 M 325 102.199219 C 323.933594 100.867188 322.535156 100.132812 320.800781 100 C 319.066406 99.867188 317.601562 100.464844 316.398438 101.800781 C 315.066406 103.132812 314.464844 104.667969 314.601562 106.398438 C 314.734375 108.132812 315.332031 109.667969 316.398438 111 C 317.464844 112.332031 318.867188 113.066406 320.601562 113.199219 C 322.464844 113.332031 323.933594 112.734375 325 111.398438 C 326.066406 110.199219 326.667969 108.667969 326.800781 106.800781 C 326.667969 105.066406 326.066406 103.535156 325 102.199219 "/>
<path style=" stroke:none;fill-rule:nonzero;fill:rgb(20%,20%,20%);fill-opacity:1;" d="M 324.199219 103.601562 L 323.601562 102.199219 L 325 103.601562 L 325.199219 104.601562 L 325 105 L 324.601562 105.199219 L 324.199219 103.601562 "/>
<path style=" stroke:none;fill-rule:nonzero;fill:rgb(20%,20%,20%);fill-opacity:1;" d="M 325.398438 102.601562 L 326.398438 103.601562 L 327 105.199219 L 326.398438 105.601562 L 325.398438 102.601562 "/>
<path style=" stroke:none;fill-rule:nonzero;fill:rgb(80%,80%,80%);fill-opacity:1;" d="M 316.398438 110.199219 L 316.800781 109.199219 C 317.464844 108.933594 317.867188 109.199219 318 110 C 318.265625 110.933594 318.066406 111.332031 317.398438 111.199219 L 316.398438 110.199219 "/>
<path style=" stroke:none;fill-rule:nonzero;fill:rgb(40%,40%,40%);fill-opacity:1;" d="M 311.601562 164 C 311.601562 168 310.199219 171.464844 307.398438 174.398438 C 304.464844 177.199219 301 178.601562 297 178.601562 C 292.867188 178.601562 289.398438 177.199219 286.601562 174.398438 C 283.667969 171.464844 282.199219 168 282.199219 164 C 282.199219 160 283.667969 156.601562 286.601562 153.800781 C 289.398438 150.867188 292.867188 149.398438 297 149.398438 C 301 149.398438 304.464844 150.867188 307.398438 153.800781 C 310.199219 156.601562 311.601562 160 311.601562 164 "/>
<path style=" stroke:none;fill-rule:nonzero;fill:rgb(20%,20%,20%);fill-opacity:1;" d="M 284.199219 163.800781 C 284.464844 167.265625 285.601562 170.265625 287.601562 172.800781 C 289.867188 175.601562 292.667969 177.066406 296 177.199219 C 299.867188 177.332031 303.066406 176.199219 305.601562 173.800781 C 308 171.265625 309.332031 168.066406 309.601562 164.199219 C 309.332031 160.734375 308.199219 157.734375 306.199219 155.199219 C 303.933594 152.398438 301.132812 150.933594 297.800781 150.800781 C 294.066406 150.535156 290.867188 151.734375 288.199219 154.398438 C 285.398438 156.933594 284.066406 160.066406 284.199219 163.800781 M 297 148.398438 C 307.535156 148.265625 313.066406 153.332031 313.601562 163.601562 L 313.601562 164 C 313.332031 168.535156 311.601562 172.265625 308.398438 175.199219 C 305.199219 178.265625 301.332031 179.867188 296.800781 180 C 292.398438 180.265625 288.535156 178.734375 285.199219 175.398438 C 281.734375 172.199219 280.066406 168.464844 280.199219 164.199219 C 280.867188 153.933594 286.464844 148.667969 297 148.398438 "/>
<path style=" stroke:none;fill-rule:nonzero;fill:rgb(20%,20%,20%);fill-opacity:1;" d="M 303.398438 158.398438 L 302.199219 155.800781 C 303.132812 155.800781 303.933594 156.734375 304.601562 158.601562 L 305 160.199219 L 304.800781 161.199219 L 304.199219 161.601562 L 303.398438 158.398438 "/>
<path style=" stroke:none;fill-rule:nonzero;fill:rgb(20%,20%,20%);fill-opacity:1;" d="M 306.398438 159 L 305.601562 156.601562 L 307.398438 158.601562 L 308.398438 161.601562 C 308.398438 162.800781 308.066406 162.933594 307.398438 162 L 306.398438 159 "/>
<path style=" stroke:none;fill-rule:nonzero;fill:rgb(80%,80%,80%);fill-opacity:1;" d="M 289 170.601562 C 288.734375 169.667969 289 169 289.800781 168.601562 C 291 168.066406 291.800781 168.601562 292.199219 170.199219 C 292.601562 171.800781 292.132812 172.464844 290.800781 172.199219 L 289 170.601562 "/>
<path style=" stroke:none;fill-rule:nonzero;fill:rgb(0%,0%,0%);fill-opacity:1;" d="M 32.601562 8 C 38.066406 3.066406 43.332031 0.601562 48.398438 0.601562 C 53.199219 0.601562 57.398438 2.199219 61 5.398438 L 61.601562 5.800781 L 63 5.800781 C 65.535156 5.800781 67.734375 6.265625 69.601562 7.199219 L 71.800781 5.398438 C 77 1.800781 82.398438 0 88 0 C 93.199219 0 97.464844 1.398438 100.800781 4.199219 L 104.199219 8 L 106.800781 9 L 110.601562 8.199219 L 113.601562 6.601562 L 119.199219 5 L 124.800781 4.398438 L 131.800781 2.601562 C 134.601562 1.667969 137 1.199219 139 1.199219 C 144.867188 1.199219 149.398438 3.535156 152.601562 8.199219 L 154.800781 13 L 158.398438 12.601562 L 161.800781 13 C 164.199219 11.535156 166.601562 10.800781 169 10.800781 C 172.464844 6.398438 176.601562 4.199219 181.398438 4.199219 C 185.933594 4.199219 189.734375 5.933594 192.800781 9.398438 L 199.398438 8.398438 L 207.199219 10 C 208.535156 8.800781 210.265625 7.800781 212.398438 7 C 215.867188 5.265625 219.933594 4.398438 224.601562 4.398438 L 235 6.199219 L 240.601562 4 L 248.199219 3.199219 C 251.933594 3.199219 255.601562 3.933594 259.199219 5.398438 L 267.601562 10.601562 L 273.800781 16.800781 L 278.398438 24.398438 C 280.535156 29.734375 281.601562 35.332031 281.601562 41.199219 L 281 46.800781 C 284.867188 47.066406 288.265625 48.535156 291.199219 51.199219 L 299 50.199219 C 302.601562 50.199219 306.199219 50.867188 309.800781 52.199219 C 314.066406 54.066406 317.601562 57.265625 320.398438 61.800781 C 322.800781 65.800781 324 70.066406 324 74.601562 C 324 78.464844 323.398438 82.199219 322.199219 85.800781 L 321.398438 88 L 324.601562 93.800781 L 325.800781 101.398438 C 325.800781 105.398438 324.800781 109.066406 322.800781 112.398438 C 320.667969 115.734375 318 118.265625 314.800781 120 C 311.867188 121.734375 308.464844 122.601562 304.601562 122.601562 L 295.398438 120.398438 C 292.867188 121.867188 290.199219 122.601562 287.398438 122.601562 C 283.398438 122.601562 279.800781 121.132812 276.601562 118.199219 L 276.199219 118.199219 L 270 120.601562 L 269.601562 120.800781 C 266.933594 122.132812 264.398438 122.800781 262 122.800781 C 259.066406 122.800781 255.800781 121.933594 252.199219 120.199219 L 252 120.199219 C 249.601562 121.800781 246.867188 122.601562 243.800781 122.601562 C 240.867188 122.601562 238.199219 121.867188 235.800781 120.398438 C 233 122.132812 230 123 226.800781 123 C 224 123 221.398438 122.332031 219 121 C 216.332031 122.867188 213.332031 123.800781 210 123.800781 C 206.667969 123.800781 203.535156 122.667969 200.601562 120.398438 L 199 121 L 190.601562 122.398438 C 187.535156 122.398438 184.867188 121.867188 182.601562 120.800781 L 178.601562 121.398438 L 172.800781 120.398438 C 169.867188 122.667969 166.535156 123.800781 162.800781 123.800781 C 159.601562 123.800781 156.667969 122.933594 154 121.199219 C 150.667969 119.066406 148.332031 115.933594 147 111.800781 C 146.066406 108.601562 145.601562 105.265625 145.601562 101.800781 L 145.800781 98.800781 C 145.132812 97.066406 144.800781 95.199219 144.800781 93.199219 C 144.800781 90.265625 145.464844 87.535156 146.800781 85 L 147.199219 74.601562 L 148 68.199219 L 146.601562 64.398438 L 145 55 L 145 59.199219 C 144.601562 62.667969 143.601562 65.800781 142 68.601562 L 138.398438 72.800781 C 135.066406 75.464844 131.601562 76.800781 128 76.800781 C 124.800781 76.800781 121.867188 75.933594 119.199219 74.199219 L 112.800781 75.601562 L 107 74.601562 C 104.066406 76.867188 100.734375 78 97 78 C 92.734375 78 89.132812 76.601562 86.199219 73.800781 C 82.464844 76.199219 78.464844 77.398438 74.199219 77.398438 L 67 76 L 62.398438 76.800781 C 59.066406 76.800781 56 75.933594 53.199219 74.199219 C 49.734375 75.933594 45.867188 76.800781 41.601562 76.800781 C 37.199219 76.800781 33.265625 75.667969 29.800781 73.398438 C 26.199219 71 23.535156 67.933594 21.800781 64.199219 C 20.199219 61 19.398438 57.601562 19.398438 54 C 19.398438 50.800781 19.933594 47.734375 21 44.800781 C 20.066406 42.398438 19.601562 39.535156 19.601562 36.199219 C 19.601562 30.867188 21 25.464844 23.800781 20 C 26.199219 15.332031 29.132812 11.332031 32.601562 8 "/>
<path style=" stroke:none;fill-rule:nonzero;fill:rgb(100%,100%,100%);fill-opacity:1;" d="M 28.601562 61.199219 C 27.398438 59.066406 26.800781 56.667969 26.800781 54 C 26.800781 51.332031 27.332031 48.800781 28.398438 46.398438 L 29.199219 45 C 27.734375 42.332031 27 39.398438 27 36.199219 C 27 31.933594 28.132812 27.667969 30.398438 23.398438 C 32.398438 19.265625 34.867188 15.867188 37.800781 13.199219 C 41.535156 9.734375 45.066406 8 48.398438 8 C 51.464844 8 54.066406 9 56.199219 11 L 58.800781 14.199219 L 63 13.199219 C 66.199219 13.199219 68.535156 14.535156 70 17.199219 L 76 11.398438 C 79.867188 8.734375 83.867188 7.398438 88 7.398438 C 91.066406 7.398438 93.800781 8.265625 96.199219 10 L 99.398438 14.398438 C 102.199219 14.667969 104.332031 15.933594 105.800781 18.199219 C 107.667969 16.332031 109.933594 15.398438 112.601562 15.398438 L 113.199219 15.398438 L 116.398438 13.398438 L 120.199219 12.398438 L 126.199219 11.601562 L 133.800781 9.601562 L 139 8.601562 C 142.199219 8.601562 144.667969 9.867188 146.398438 12.398438 C 147.601562 14 148.199219 16.132812 148.199219 18.800781 L 148 20.398438 C 149.199219 20.398438 150.535156 21.132812 152 22.601562 L 152.199219 22.800781 C 153.933594 20.933594 156 20 158.398438 20 L 163.199219 21.601562 C 164.933594 19.199219 167.132812 18 169.800781 18 L 172.800781 18.601562 L 173.601562 17 C 175.601562 13.398438 178.199219 11.601562 181.398438 11.601562 C 183.132812 11.601562 184.667969 12.132812 186 13.199219 C 187.734375 14.398438 188.867188 16.066406 189.398438 18.199219 L 189.398438 18.800781 C 192.734375 16.800781 196.066406 15.800781 199.398438 15.800781 C 201.800781 15.800781 203.867188 16.398438 205.601562 17.601562 L 208 19.199219 L 208.800781 18.199219 L 215.398438 13.601562 L 224.601562 11.800781 C 227.667969 11.800781 230.332031 12.265625 232.601562 13.199219 L 235.398438 14.800781 L 237.398438 13.199219 L 242.398438 11.199219 L 248.199219 10.601562 L 256.398438 12.199219 C 258.667969 13.132812 260.867188 14.464844 263 16.199219 L 268 21.398438 L 271.601562 27.398438 C 273.332031 31.265625 274.199219 35.867188 274.199219 41.199219 C 274.199219 46.398438 272.332031 51.398438 268.601562 56.199219 L 266.800781 58.199219 L 269.199219 57.601562 L 276.398438 54.800781 L 280 54.199219 C 284.265625 54.199219 287.066406 56.199219 288.398438 60.199219 L 289.800781 59.601562 C 292.464844 58.265625 295.535156 57.601562 299 57.601562 L 306.800781 59 C 309.867188 60.199219 312.265625 62.398438 314 65.601562 C 315.734375 68.265625 316.601562 71.265625 316.601562 74.601562 C 316.601562 77.800781 316.132812 80.734375 315.199219 83.398438 L 311.800781 90.398438 C 314.601562 91.199219 316.535156 93.132812 317.601562 96.199219 L 318.398438 101.398438 C 318.398438 104.066406 317.734375 106.464844 316.398438 108.601562 L 311.398438 113.601562 L 304.601562 115.199219 C 302.199219 115.199219 299.867188 114.535156 297.601562 113.199219 L 294.800781 111.199219 C 293.066406 113.867188 290.601562 115.199219 287.398438 115.199219 C 285.132812 115.199219 283.132812 114.332031 281.398438 112.601562 L 279.601562 110 L 279.199219 109.199219 L 277 109.800781 L 273.800781 111.199219 L 266.398438 114.199219 L 262 115.398438 L 255.398438 113.601562 L 251.601562 110.199219 L 251.398438 110.601562 L 249.199219 113 C 247.199219 114.464844 245.398438 115.199219 243.800781 115.199219 C 240.066406 115.199219 237.398438 113.398438 235.800781 109.800781 L 235.199219 111.199219 C 233.066406 114.132812 230.265625 115.601562 226.800781 115.601562 C 224.265625 115.601562 221.332031 114.265625 218 111.601562 C 216.265625 114.800781 213.601562 116.398438 210 116.398438 C 206.667969 116.398438 204.199219 114.734375 202.601562 111.398438 L 196.800781 114 L 190.601562 115.199219 L 183.601562 113.199219 L 183 112.800781 L 178.601562 114 C 175.398438 114 173 112.867188 171.398438 110.601562 L 170 112.800781 C 168.132812 115.332031 165.734375 116.601562 162.800781 116.601562 C 158.535156 116.601562 155.601562 114.265625 154 109.601562 C 153.332031 107.199219 153 104.601562 153 101.800781 L 153.199219 97.601562 L 152.199219 93.199219 C 152.199219 91.332031 152.601562 89.601562 153.398438 88 L 154 87 L 154.398438 75 L 155.601562 68.199219 L 155.800781 67 L 153.800781 62.601562 L 153 57.800781 C 152.601562 55.535156 151.265625 52.800781 149 49.601562 L 145 43.398438 C 145.535156 44.066406 143.132812 47.800781 137.800781 54.601562 L 137.601562 58.601562 C 137.464844 60.734375 136.800781 62.734375 135.601562 64.601562 L 133.398438 67.199219 C 131.933594 68.667969 130.132812 69.398438 128 69.398438 C 124.265625 69.398438 121.667969 67.601562 120.199219 64 C 118.332031 66.800781 115.867188 68.199219 112.800781 68.199219 C 110 68.199219 107.601562 67 105.601562 64.601562 L 104.199219 66.800781 C 102.332031 69.332031 99.933594 70.601562 97 70.601562 C 92.734375 70.601562 89.867188 68.265625 88.398438 63.601562 L 88 62.601562 L 82.800781 67.199219 C 79.867188 69.066406 77 70 74.199219 70 C 71.667969 70 69.332031 69.265625 67.199219 67.800781 L 63.398438 69.199219 L 62.398438 69.398438 C 58.933594 69.398438 56.535156 68.199219 55.199219 65.800781 L 54.398438 64.601562 L 51.398438 66.800781 C 48.332031 68.535156 45.066406 69.398438 41.601562 69.398438 C 38.667969 69.398438 36.066406 68.667969 33.800781 67.199219 C 31.265625 65.601562 29.535156 63.601562 28.601562 61.199219 "/>
<path style=" stroke:none;fill-rule:nonzero;fill:rgb(0%,0%,0%);fill-opacity:1;" d="M 35 49.601562 C 35.667969 48.398438 36.265625 47.800781 36.800781 47.800781 L 37.800781 48.199219 L 38.199219 49.601562 L 39.601562 52.601562 L 42 53.601562 L 45.800781 53 L 48.398438 51.601562 L 50.199219 49.800781 L 52 47 L 52.199219 45.800781 L 52 44.398438 L 51.199219 43.601562 L 49.601562 43.199219 L 48.601562 43.398438 L 47 44 L 45.398438 44.199219 L 40.398438 43.398438 L 39.601562 43.398438 L 39.199219 43.601562 C 37.601562 43.601562 36.398438 42.867188 35.601562 41.398438 C 34.800781 39.800781 34.398438 38.066406 34.398438 36.199219 C 34.398438 33.132812 35.199219 30 36.800781 26.800781 C 38.398438 23.734375 40.398438 21 42.800781 18.601562 C 45.199219 16.464844 47.066406 15.398438 48.398438 15.398438 C 49.601562 15.398438 50.601562 15.800781 51.398438 16.601562 L 52.800781 19.199219 L 53 20.800781 L 52.199219 24.398438 C 51.667969 25.332031 50.933594 25.800781 50 25.800781 L 48.199219 24.800781 L 47.398438 23.800781 L 46.601562 23.601562 L 45.199219 24.199219 L 40.601562 29 L 39 31.199219 L 38.398438 33.601562 L 39.398438 35.398438 C 40.464844 35.933594 41.332031 36.199219 42 36.199219 L 51 35.199219 L 54 35.800781 L 55.601562 36.601562 L 57 39 L 57.199219 43.199219 L 56 49.800781 L 52.601562 56 L 47.601562 60.398438 L 41.601562 62.199219 L 37.800781 61 L 35.199219 58 C 34.535156 56.667969 34.199219 55.332031 34.199219 54 L 35 49.601562 "/>
<path style=" stroke:none;fill-rule:nonzero;fill:rgb(0%,0%,0%);fill-opacity:1;" d="M 62 21.199219 C 62.398438 20.800781 62.734375 20.601562 63 20.601562 C 63.535156 20.601562 63.867188 21.066406 64 22 L 64.398438 28.601562 L 64.398438 58.199219 L 63.800781 60.601562 L 62.398438 62 L 61.199219 61.601562 L 60.398438 58.800781 L 60.199219 54 L 60.398438 52.199219 L 61.199219 23.199219 L 62 21.199219 "/>
<path style=" stroke:none;fill-rule:nonzero;fill:rgb(0%,0%,0%);fill-opacity:1;" d="M 92.601562 20.398438 L 91.800781 21.800781 L 91 22.601562 L 88.601562 22.199219 L 84.800781 22.800781 L 81 24.398438 L 77.601562 26.800781 L 75 30.199219 C 73.800781 31.800781 73 33.464844 72.601562 35.199219 L 71.398438 40.601562 L 71 46.800781 L 71 49 L 72 52.199219 L 74.398438 54.601562 L 78.800781 53.601562 L 82.398438 50.800781 L 84.800781 47.800781 L 85.800781 45.800781 C 85.800781 44.867188 85.398438 44.398438 84.601562 44.398438 L 77 45.199219 C 75.667969 45.199219 75 44.398438 75 42.800781 L 75.601562 40.398438 L 77.398438 38.601562 L 81.398438 36 L 85 35.199219 L 87.800781 36 L 88.800781 38.601562 L 88 44.601562 L 88 45.601562 L 88.199219 46.800781 L 86.800781 51.601562 L 83.398438 56.800781 L 78.800781 61 L 74.199219 62.601562 L 71.199219 61.601562 L 69 58.800781 L 67.398438 54 L 67 47.800781 C 67 43.933594 67.535156 39.867188 68.601562 35.601562 C 69.800781 31.601562 71.398438 28 73.398438 24.800781 C 75.265625 22 77.535156 19.601562 80.199219 17.601562 C 82.867188 15.734375 85.464844 14.800781 88 14.800781 L 91.601562 15.800781 L 92.800781 18.601562 L 92.601562 20.398438 "/>
<path style=" stroke:none;fill-rule:nonzero;fill:rgb(0%,0%,0%);fill-opacity:1;" d="M 113.398438 24 L 114.800781 55.199219 L 114.199219 59.199219 L 112.800781 60.800781 C 112.132812 60.800781 111.601562 60.535156 111.199219 60 L 110.398438 57.398438 L 110 49 L 109.601562 47.800781 L 108.601562 47 L 106.601562 46.601562 L 104.800781 46.800781 L 101 47.601562 C 100.199219 47.867188 99.601562 48.265625 99.199219 48.800781 C 98.800781 49.199219 98.601562 49.800781 98.601562 50.601562 L 99.398438 55 L 99.199219 60.398438 L 98.398438 62.398438 L 97 63.199219 C 96.332031 63.199219 95.800781 62.535156 95.398438 61.199219 L 94.601562 55.800781 L 94.800781 50.199219 L 93.800781 47.398438 L 94.199219 45.398438 L 95 44.199219 L 95.398438 42.800781 L 96 29.601562 L 96.800781 24.199219 C 97.199219 22.867188 97.867188 22 98.800781 21.601562 L 99.601562 22.398438 L 99.398438 39.199219 L 99.601562 40.601562 L 100.398438 40.800781 L 107.199219 40 L 107.800781 40 L 108.199219 40.199219 L 109.398438 39 L 109.800781 36 L 109.800781 29.398438 L 110.199219 25.601562 L 111 23.398438 C 111.398438 23 111.933594 22.800781 112.601562 22.800781 L 113.398438 24 "/>
<path style=" stroke:none;fill-rule:nonzero;fill:rgb(0%,0%,0%);fill-opacity:1;" d="M 131.800781 18 L 139 16 C 139.535156 16 140 16.199219 140.398438 16.601562 L 140.800781 18.800781 L 140.398438 20.800781 L 139.601562 23 L 137.398438 24.800781 L 133.398438 26.199219 L 130.800781 27.199219 C 130.398438 27.601562 130.199219 28.398438 130.199219 29.601562 L 130.601562 46 L 130.398438 48 L 130.199219 58 L 129.398438 60.800781 L 128.601562 61.601562 L 128 62 C 126.933594 62 126.398438 60.398438 126.398438 57.199219 L 126.601562 31.800781 L 126 28.199219 L 125.199219 27.800781 L 120.199219 27.601562 C 118.066406 27.601562 117 26.398438 117 24 L 117.199219 22.800781 L 117.800781 21.398438 L 119.199219 20.199219 L 121.398438 19.601562 L 131.800781 18 "/>
<path style=" stroke:none;fill-rule:nonzero;fill:rgb(0%,0%,0%);fill-opacity:1;" d="M 179.199219 70 L 180.601562 101.199219 L 180 105.199219 L 178.601562 106.601562 C 177.933594 106.601562 177.398438 106.332031 177 105.800781 L 176.199219 103.199219 L 175.398438 93.601562 L 174.199219 93 L 172.398438 92.398438 L 170.398438 92.601562 L 166.800781 93.601562 C 166 93.601562 165.398438 93.933594 165 94.601562 L 164.398438 96.601562 L 165.199219 100.800781 L 165 106.398438 L 164 108.398438 L 162.800781 109.199219 L 161 107.199219 C 160.601562 105.867188 160.398438 104.066406 160.398438 101.800781 L 160.601562 97.398438 L 160.398438 96 L 160 95 L 159.601562 93.199219 L 160 91.398438 L 160.800781 90 L 161.199219 88.601562 L 161.800781 75.398438 L 162.601562 70 C 163 68.535156 163.667969 67.734375 164.601562 67.601562 L 165.398438 68.199219 L 165.199219 85 L 165.398438 86.398438 L 166.199219 86.601562 L 173 85.800781 L 173.601562 86 L 174 86 L 175.199219 85 L 176 71.398438 L 176.800781 69.398438 C 177.199219 69 177.734375 68.800781 178.398438 68.800781 L 179.199219 70 "/>
<path style=" stroke:none;fill-rule:nonzero;fill:rgb(0%,0%,0%);fill-opacity:1;" d="M 200 68.398438 L 200.800781 67 L 201.800781 65.800781 L 202.398438 65.398438 L 203.800781 66.800781 L 205 69.199219 L 205.601562 87.601562 L 204.800781 95.800781 L 203.199219 99 L 202.398438 100.199219 L 202.199219 101.398438 L 201 103.199219 L 198.800781 105 L 194.398438 107 L 190.601562 107.800781 L 187.398438 106.800781 L 185 104.800781 C 183.933594 103.332031 183.398438 101.601562 183.398438 99.601562 L 183.800781 93.601562 L 185 86 L 187.398438 76.800781 L 188.800781 75.199219 L 189.398438 75.398438 L 189.398438 76.398438 L 187.601562 87.199219 L 187.199219 94 L 187.398438 96.199219 L 187.800781 97.800781 L 189.800781 99.800781 L 193.601562 100.800781 L 195.800781 100.398438 L 197.800781 99.199219 L 199.398438 98.199219 L 200.800781 95.199219 L 201.800781 91.398438 L 199.601562 70 L 200 68.398438 "/>
<path style=" stroke:none;fill-rule:nonzero;fill:rgb(0%,0%,0%);fill-opacity:1;" d="M 228 63 C 228.800781 63 229.265625 63.601562 229.398438 64.800781 L 230 70.199219 L 230.199219 72.601562 L 230.398438 97.800781 L 230 103.398438 L 229 107 L 226.800781 108.199219 C 226 108.199219 224.667969 107.464844 222.800781 106 L 217.800781 100.398438 L 214.398438 94.398438 L 213.601562 92.398438 L 213 91.800781 L 212.800781 92.601562 L 211.800781 107.601562 C 211.398438 108.535156 210.867188 109 210.199219 109 L 209.398438 108.398438 L 209 106.199219 L 209.601562 84.800781 L 208.601562 78.800781 L 209.398438 76.800781 L 210.601562 75.199219 L 212 75 L 223.601562 97 L 225.800781 99.601562 L 226.601562 99.398438 L 227 97.800781 L 226.601562 94.199219 L 225.800781 66.601562 L 226.398438 64.601562 L 227.199219 63.398438 L 228 63 "/>
<path style=" stroke:none;fill-rule:nonzero;fill:rgb(0%,0%,0%);fill-opacity:1;" d="M 233 68.601562 L 233.601562 67.398438 C 233.734375 66.867188 234.199219 66.464844 235 66.199219 L 237 65.601562 L 243.398438 64.800781 L 254.800781 61.800781 L 256.199219 62.398438 L 256.601562 64.601562 L 256.199219 66.800781 L 255.398438 69 L 253.199219 70.601562 L 249.199219 72 L 246.601562 73.199219 C 246.199219 73.464844 246 74.199219 246 75.398438 L 246 104 L 245.199219 106.601562 L 244.398438 107.398438 L 243.800781 107.800781 C 242.601562 107.800781 242 106.265625 242 103.199219 L 242.398438 77.800781 L 241.800781 74 L 241 73.800781 L 236 73.398438 C 233.734375 73.398438 232.601562 72.265625 232.601562 70 L 233 68.601562 "/>
<path style=" stroke:none;fill-rule:nonzero;fill:rgb(0%,0%,0%);fill-opacity:1;" d="M 280 61.601562 C 281.332031 61.601562 282 62.800781 282 65.199219 L 281.601562 67.199219 L 280.800781 69 L 278.398438 71.199219 L 277.199219 71 L 275.398438 70.199219 L 273.398438 70.601562 L 272.800781 70.601562 L 268.199219 71.398438 C 266.464844 71.800781 265.464844 72.132812 265.199219 72.398438 L 264.199219 73.601562 L 264.199219 81.601562 L 264.601562 83 L 265.800781 82.601562 L 268.398438 81.601562 L 276 80.199219 C 277.066406 80.199219 277.867188 80.535156 278.398438 81.199219 L 279.199219 83.800781 L 278.800781 86.601562 L 277.601562 88.398438 L 275.398438 89 L 269.601562 89.398438 L 266 90.199219 L 264.398438 91.398438 L 264 92.601562 L 263.398438 97.199219 L 263.800781 98.199219 L 264.398438 98.800781 L 268.398438 97.398438 L 272.601562 95.800781 L 275.800781 94.398438 L 277.800781 94 L 279.398438 95 L 280 97.398438 L 279.601562 99.800781 L 279 101.398438 L 278 102 L 264.601562 106.800781 L 262 108 L 258.601562 107 L 257.601562 106 L 257.199219 104.199219 L 258 101.199219 L 260 99 L 260.601562 98.398438 L 260.800781 97.800781 L 260.800781 96.601562 L 261 95.800781 L 260.800781 91.800781 L 260.199219 90.800781 L 259.199219 89.800781 L 258.800781 88.199219 L 259.398438 86.199219 L 260.601562 84 L 261.199219 82.800781 L 261.398438 81.601562 L 261.398438 77.199219 L 261.199219 75.199219 L 260.398438 74.199219 L 259.800781 73.601562 L 259.601562 72.800781 L 260.398438 70.601562 L 261.601562 68.601562 L 264.601562 67 L 279 61.800781 L 280 61.601562 "/>
<path style=" stroke:none;fill-rule:nonzero;fill:rgb(0%,0%,0%);fill-opacity:1;" d="M 307.800781 69.601562 C 308.867188 71.332031 309.398438 73 309.398438 74.601562 L 308.199219 81 L 305.398438 86.800781 L 301.199219 90.601562 L 299.199219 92 C 298.800781 92.265625 298.601562 92.800781 298.601562 93.601562 C 298.601562 94.265625 298.800781 94.800781 299.199219 95.199219 L 302.800781 99.199219 C 303.867188 100.132812 304.933594 100.601562 306 100.601562 L 307.800781 99.601562 L 309 97.800781 L 309.601562 97.601562 L 310.601562 98.601562 L 311 101.398438 L 310.199219 104.800781 L 307.800781 107 L 304.601562 107.800781 L 301.398438 106.800781 L 297.601562 103.601562 L 294.601562 99.199219 L 293.601562 97 L 292.800781 95.800781 L 291.398438 95.398438 L 290.398438 96 L 290.199219 97.398438 L 290.199219 99 L 289.398438 105.199219 L 287.398438 107.800781 L 286.601562 107.398438 L 286 106.398438 L 285.199219 99.800781 L 285.601562 80.601562 L 285.398438 78.800781 L 285 77.398438 L 285 76.199219 L 285.800781 73 L 288.601562 69.199219 L 293 66.199219 L 299 65 L 304 65.800781 L 307.800781 69.601562 M 302.800781 73.199219 L 299.800781 71.800781 L 296 71.398438 L 293.199219 71.800781 L 291.398438 72.398438 L 290.199219 74.398438 L 289.601562 77.800781 L 289.398438 83.601562 L 289.601562 85.800781 L 290 87.398438 L 292.199219 88.199219 L 298.398438 86.800781 L 303 83.199219 L 304.800781 80.601562 L 305.199219 78.398438 L 304.398438 74.601562 L 302.800781 73.199219 "/>
<path style=" stroke:none;fill-rule:nonzero;fill:rgb(0%,0%,0%);fill-opacity:1;" d="M 181.398438 19 L 182.199219 20 L 181.398438 36.398438 L 180.199219 44.800781 L 178.601562 53 L 176.398438 60.601562 L 174.398438 62.601562 L 173.398438 62.199219 L 172.800781 60.800781 L 170.800781 50.601562 L 170 47.800781 L 168.601562 44.601562 L 167.398438 50.398438 L 165.800781 59 L 164.601562 62 L 163.601562 62.601562 L 162.601562 62.800781 C 162.066406 62.800781 161.734375 62.667969 161.601562 62.398438 L 161 60.800781 L 156.199219 32.601562 L 157 29.199219 L 158.398438 27.398438 L 159.398438 28.398438 L 163.601562 47.601562 L 164 48 L 164.398438 47 L 166.800781 31.398438 L 167.398438 29.199219 L 168.601562 26.601562 L 169.800781 25.398438 L 170.398438 26 L 170.601562 27.800781 L 170.601562 29.199219 L 170.398438 29.800781 L 174.199219 45.199219 L 175.398438 48.398438 L 176 47.398438 L 177.601562 36 L 177.601562 35.398438 L 178 33.398438 L 178.800781 24.601562 L 179.199219 22.398438 L 180 20.800781 L 181.398438 19 "/>
<path style=" stroke:none;fill-rule:nonzero;fill:rgb(0%,0%,0%);fill-opacity:1;" d="M 208.199219 41.398438 L 207.800781 45.800781 L 206.601562 50.199219 L 204.601562 53.601562 L 203.800781 55.398438 L 201.800781 58.800781 L 198.199219 61.601562 L 192.398438 62.800781 L 189 62 L 186.398438 59.601562 C 185.464844 58.535156 184.734375 57.199219 184.199219 55.601562 L 183.199219 52.601562 L 183 49.199219 L 184 40.800781 L 187.601562 32.398438 C 189.332031 29.199219 191.066406 26.933594 192.800781 25.601562 C 194.667969 24 196.867188 23.199219 199.398438 23.199219 L 202 23.800781 L 204.398438 26.199219 L 206.199219 29.199219 L 207.398438 32.800781 L 208.199219 41.398438 M 200.398438 33.601562 C 199.464844 32.667969 198.265625 32.199219 196.800781 32.199219 L 192.601562 33.199219 L 189.601562 36 L 188 39.601562 L 187.199219 43 L 187 46 L 188 49.800781 L 191 53.601562 C 192.332031 54.667969 193.601562 55.199219 194.800781 55.199219 L 198.398438 54 L 201.398438 51.398438 C 202.867188 49.265625 203.601562 46.398438 203.601562 42.800781 L 202.800781 37.601562 L 200.398438 33.601562 "/>
<path style=" stroke:none;fill-rule:nonzero;fill:rgb(0%,0%,0%);fill-opacity:1;" d="M 229.601562 20 L 233.398438 23.601562 C 234.464844 25.332031 235 27 235 28.601562 L 233.800781 35.199219 L 231 40.800781 L 226.800781 44.601562 L 224.800781 46 C 224.398438 46.398438 224.199219 46.933594 224.199219 47.601562 L 224.800781 49.398438 L 228.398438 53.398438 L 231.601562 54.601562 C 232.535156 54.601562 233.132812 54.265625 233.398438 53.601562 L 234.601562 52 L 235.199219 51.601562 L 236.199219 52.601562 L 236.601562 55.601562 L 235.800781 58.800781 L 233.398438 61.199219 L 230.199219 62 L 227 60.800781 L 223.199219 57.800781 L 220.199219 53.398438 L 219.199219 51.199219 L 218.398438 50 L 217 49.601562 L 216 50 L 215.800781 51.601562 L 215.800781 53 L 215 59.398438 C 214.601562 61.132812 213.933594 62 213 62 L 211.601562 60.601562 L 210.800781 53.800781 L 211.199219 34.601562 L 210.601562 31.398438 L 210.601562 30.199219 L 211.398438 27.199219 L 214.199219 23.398438 L 218.601562 20.398438 L 224.601562 19.199219 L 229.601562 20 M 230 28.800781 L 228.398438 27.199219 L 225.601562 26 L 221.601562 25.398438 L 220 25.601562 L 218.800781 26 C 218 26 217.398438 26.199219 217 26.601562 L 215.800781 28.398438 L 215.199219 32 L 215 37.601562 L 215.199219 39.800781 L 215.601562 41.398438 L 218 42.398438 L 224 41 L 228.601562 37.398438 L 230.398438 34.800781 L 231 32.601562 L 230 28.800781 "/>
<path style=" stroke:none;fill-rule:nonzero;fill:rgb(0%,0%,0%);fill-opacity:1;" d="M 253.601562 19 L 258.398438 22 L 262.199219 26 L 264.800781 30.398438 C 266.132812 33.066406 266.800781 36.667969 266.800781 41.199219 C 266.800781 44.667969 265.464844 48.132812 262.800781 51.601562 C 260.265625 54.933594 256.398438 57.933594 251.199219 60.601562 L 246 62 L 242 61.199219 L 240 58.800781 L 239.199219 55.601562 L 239.800781 53.800781 L 241.800781 50.800781 L 242 48.398438 L 241.800781 44.398438 L 242 26.398438 L 241.800781 25.199219 L 241.199219 25 L 239.800781 25.398438 C 239.132812 25.398438 238.800781 24.734375 238.800781 23.398438 L 239.398438 21.398438 C 239.800781 20.601562 240.398438 20 241.199219 19.601562 C 242 19.066406 243 18.667969 244.199219 18.398438 L 248.199219 18 L 253.601562 19 M 259.601562 34.199219 C 258.933594 32.464844 256.601562 30.535156 252.601562 28.398438 L 245.800781 26 L 245.199219 26.601562 L 245 48.398438 L 245.800781 54 L 246.601562 54.601562 L 249 54.199219 L 253.601562 51.601562 L 257.199219 48.800781 L 260.398438 45.601562 L 261.199219 43 L 261.601562 39.601562 L 261.398438 37.800781 L 260.601562 36.398438 L 259.601562 34.199219 "/>
</g>
</svg>
