<?xml version="1.0" encoding="UTF-8"?>
<svg xmlns="http://www.w3.org/2000/svg" xmlns:xlink="http://www.w3.org/1999/xlink" width="1240pt" height="1500pt" viewBox="0 0 1240 1500" version="1.1">
<g id="surface1">
<path style=" stroke:none;fill-rule:nonzero;fill:rgb(0%,0%,0%);fill-opacity:1;" d="M 763.398438 1067.199219 L 763.398438 1487.398438 L 475 1487.398438 L 475 1067.199219 L 763.398438 1067.199219 "/>
<path style="fill:none;stroke-width:5;stroke-linecap:butt;stroke-linejoin:miter;stroke:rgb(0%,0%,0%);stroke-opacity:1;stroke-miterlimit:4;" d="M 190.849609 266.799805 L 190.849609 371.849609 L 118.75 371.849609 L 118.75 266.799805 Z M 190.849609 266.799805 " transform="matrix(4,0,0,4,0,0)"/>
<path style=" stroke:none;fill-rule:nonzero;fill:rgb(100%,100%,100%);fill-opacity:1;" d="M 722.199219 1108.398438 L 722.199219 1446.398438 L 516.199219 1446.398438 L 516.199219 1108.398438 L 722.199219 1108.398438 "/>
<path style="fill:none;stroke-width:5;stroke-linecap:butt;stroke-linejoin:miter;stroke:rgb(0%,0%,0%);stroke-opacity:1;stroke-miterlimit:4;" d="M 129.049805 277.099609 L 129.049805 361.599609 L 180.549805 361.599609 L 180.549805 277.099609 Z M 129.049805 277.099609 " transform="matrix(4,0,0,4,0,0)"/>
<path style=" stroke:none;fill-rule:nonzero;fill:rgb(100%,94.509804%,0%);fill-opacity:1;" d="M 852.601562 58.800781 C 924.332031 89.066406 987.933594 131.933594 1043.398438 187.398438 C 1098.734375 242.734375 1141.535156 306.265625 1171.800781 378 C 1203.265625 452.265625 1219 530.066406 1219 611.398438 C 1219 692.734375 1203.265625 770.601562 1171.800781 845 C 1141.535156 916.734375 1098.734375 980.265625 1043.398438 1035.601562 C 987.933594 1091.066406 924.332031 1133.933594 852.601562 1164.199219 C 778.332031 1195.667969 700.535156 1211.398438 619.199219 1211.398438 C 537.867188 1211.398438 460 1195.667969 385.601562 1164.199219 C 313.867188 1133.933594 250.332031 1091.066406 195 1035.601562 C 139.535156 980.265625 96.667969 916.734375 66.398438 845 C 34.933594 770.601562 19.199219 692.734375 19.199219 611.398438 C 19.199219 530.066406 34.933594 452.265625 66.398438 378 C 96.667969 306.265625 139.535156 242.734375 195 187.398438 C 250.332031 131.933594 313.867188 89.066406 385.601562 58.800781 C 460 27.332031 537.867188 11.601562 619.199219 11.601562 C 700.535156 11.601562 778.332031 27.332031 852.601562 58.800781 "/>
<path style=" stroke:none;fill-rule:nonzero;fill:rgb(0%,0%,0%);fill-opacity:1;" d="M 560.800781 25.398438 C 471.464844 34.066406 388.265625 62.601562 311.199219 111 C 234.132812 159.398438 172.265625 222 125.601562 298.800781 C 77.734375 377.734375 49.667969 463.667969 41.398438 556.601562 C 33 650.199219 45.734375 739.667969 79.601562 825 C 112.800781 908.464844 162.601562 981.132812 229 1043 C 296.199219 1105.800781 372.398438 1149.800781 457.601562 1175 C 546.265625 1201.265625 636 1206.332031 726.800781 1190.199219 C 819.199219 1173.667969 901.199219 1137.132812 972.800781 1080.601562 C 1044.265625 1024.199219 1099.867188 955.066406 1139.601562 873.199219 C 1179.199219 791.734375 1199.265625 705.398438 1199.800781 614.199219 L 1199.800781 613.601562 C 1199.398438 540.800781 1186.066406 470.199219 1159.800781 401.800781 C 1133.398438 332.601562 1095.867188 271.265625 1047.199219 217.800781 C 985.332031 149.800781 911.734375 98.734375 826.398438 64.601562 C 739.601562 29.800781 651.066406 16.734375 560.800781 25.398438 M 522.199219 8.398438 C 611.535156 -6.132812 699.933594 -1.667969 787.398438 21.800781 C 875.933594 45.535156 954.332031 86.332031 1022.601562 144.199219 C 1090.867188 202.066406 1143.867188 271.667969 1181.601562 353 C 1218.933594 433.933594 1237.867188 519.132812 1238.398438 608.601562 L 1238.398438 609.800781 C 1237.734375 724.199219 1206.667969 830.800781 1145.199219 929.601562 C 1083.734375 1028.132812 1001.667969 1103.265625 899 1155 C 817.800781 1195.800781 731.265625 1218.199219 639.398438 1222.199219 C 546.464844 1226.066406 458.398438 1210.667969 375.199219 1176 C 294.132812 1142.132812 223.265625 1092.734375 162.601562 1027.800781 C 101.398438 962.332031 57.265625 888.132812 30.199219 805.199219 C 2.066406 719.066406 -6.398438 630.535156 4.800781 539.601562 C 16.132812 447.867188 46.199219 364.132812 95 288.398438 C 142.867188 214.132812 204.199219 152.464844 279 103.398438 C 353.933594 54.199219 435 22.535156 522.199219 8.398438 "/>
<path style=" stroke:none;fill-rule:nonzero;fill:rgb(100%,94.509804%,47.843137%);fill-opacity:1;" d="M 783.398438 147.601562 C 776.867188 119.601562 788.398438 109.734375 818 118 C 832.667969 122 854.398438 132.066406 883.199219 148.199219 C 936.132812 177.800781 982.734375 215.933594 1023 262.601562 C 1063.132812 309.265625 1094.066406 361.800781 1115.800781 420.199219 C 1137.398438 478.464844 1148.199219 538.398438 1148.199219 600 C 1148.199219 639.464844 1146.933594 669.398438 1144.398438 689.800781 C 1140 724.332031 1131.066406 752.667969 1117.601562 774.800781 C 1105.066406 795.332031 1087.265625 814.398438 1064.199219 832 C 1033.800781 855.066406 1012.398438 856.398438 1000 836 L 997.398438 830.800781 C 992.066406 816.398438 992.867188 799.066406 999.800781 778.800781 L 1020.398438 729.199219 C 1045.066406 663.734375 1048.066406 595.066406 1029.398438 523.199219 C 1012.066406 457.199219 978.933594 396.398438 930 340.800781 C 920.800781 330.265625 906.265625 315.867188 886.398438 297.601562 C 866.132812 278.933594 851.601562 264.734375 842.800781 255 C 828.933594 239.667969 816.867188 223 806.601562 205 C 795.398438 185.398438 787.667969 166.265625 783.398438 147.601562 "/>
<path style=" stroke:none;fill-rule:nonzero;fill:rgb(100%,100%,100%);fill-opacity:1;" d="M 361.199219 355.398438 C 375.734375 355.398438 388.066406 360.464844 398.199219 370.601562 C 408.464844 380.734375 413.601562 393.066406 413.601562 407.601562 C 413.601562 422 408.464844 434.332031 398.199219 444.601562 C 388.066406 454.734375 375.734375 459.800781 361.199219 459.800781 C 346.800781 459.800781 334.535156 454.734375 324.398438 444.601562 C 314.132812 434.332031 309 422 309 407.601562 C 309 393.066406 314.132812 380.734375 324.398438 370.601562 C 334.535156 360.464844 346.800781 355.398438 361.199219 355.398438 "/>
<path style="fill:none;stroke-width:1;stroke-linecap:butt;stroke-linejoin:miter;stroke:rgb(100%,100%,100%);stroke-opacity:1;stroke-miterlimit:4;" d="M 90.299805 88.849609 C 93.933594 88.849609 97.016602 90.116211 99.549805 92.650391 C 102.116211 95.183594 103.400391 98.266602 103.400391 101.900391 C 103.400391 105.5 102.116211 108.583008 99.549805 111.150391 C 97.016602 113.683594 93.933594 114.950195 90.299805 114.950195 C 86.700195 114.950195 83.633789 113.683594 81.099609 111.150391 C 78.533203 108.583008 77.25 105.5 77.25 101.900391 C 77.25 98.266602 78.533203 95.183594 81.099609 92.650391 C 83.633789 90.116211 86.700195 88.849609 90.299805 88.849609 Z M 90.299805 88.849609 " transform="matrix(4,0,0,4,0,0)"/>
<path style=" stroke:none;fill-rule:nonzero;fill:rgb(100%,100%,100%);fill-opacity:1;" d="M 840.199219 370.601562 C 850.332031 360.464844 862.601562 355.398438 877 355.398438 C 891.398438 355.398438 903.734375 360.464844 914 370.601562 C 924.132812 380.734375 929.199219 393.066406 929.199219 407.601562 C 929.199219 422 924.132812 434.332031 914 444.601562 C 903.734375 454.734375 891.398438 459.800781 877 459.800781 C 862.601562 459.800781 850.332031 454.734375 840.199219 444.601562 C 829.933594 434.332031 824.800781 422 824.800781 407.601562 C 824.800781 393.066406 829.933594 380.734375 840.199219 370.601562 "/>
<path style="fill:none;stroke-width:1;stroke-linecap:butt;stroke-linejoin:miter;stroke:rgb(100%,100%,100%);stroke-opacity:1;stroke-miterlimit:4;" d="M 210.049805 92.650391 C 212.583008 90.116211 215.650391 88.849609 219.25 88.849609 C 222.849609 88.849609 225.933594 90.116211 228.5 92.650391 C 231.033203 95.183594 232.299805 98.266602 232.299805 101.900391 C 232.299805 105.5 231.033203 108.583008 228.5 111.150391 C 225.933594 113.683594 222.849609 114.950195 219.25 114.950195 C 215.650391 114.950195 212.583008 113.683594 210.049805 111.150391 C 207.483398 108.583008 206.200195 105.5 206.200195 101.900391 C 206.200195 98.266602 207.483398 95.183594 210.049805 92.650391 Z M 210.049805 92.650391 " transform="matrix(4,0,0,4,0,0)"/>
<path style=" stroke:none;fill-rule:nonzero;fill:rgb(100%,100%,100%);fill-opacity:1;" d="M 986.601562 751.601562 C 994.464844 750.535156 998.332031 752.734375 998.199219 758.199219 L 997.398438 777.398438 C 988.867188 862.332031 942 930.265625 856.800781 981.199219 C 820.398438 1002.933594 779.867188 1019.464844 735.199219 1030.800781 C 692.535156 1041.601562 650.332031 1046.601562 608.601562 1045.800781 C 566.601562 1045 524.667969 1038.464844 482.800781 1026.199219 C 438.535156 1013.265625 399 995.199219 364.199219 972 C 282.464844 917.601562 241.066406 847.066406 240 760.398438 C 240 755.601562 243.933594 752.667969 251.800781 751.601562 C 259.535156 750.535156 263.398438 752.734375 263.398438 758.199219 C 264.332031 840.601562 304.199219 908 383 960.398438 C 416.601562 982.800781 454.535156 1000.132812 496.800781 1012.398438 C 537.199219 1024.132812 577.265625 1030.132812 617 1030.398438 C 657.535156 1030.667969 698.132812 1025.199219 738.800781 1014 C 781.734375 1002.398438 820.132812 985.601562 854 963.601562 C 933.601562 912.132812 973.867188 844.398438 974.800781 760.398438 C 974.933594 755.601562 978.867188 752.667969 986.601562 751.601562 "/>
</g>
</svg>
