<?xml version="1.0" encoding="UTF-8"?>
<svg xmlns="http://www.w3.org/2000/svg" xmlns:xlink="http://www.w3.org/1999/xlink" width="280pt" height="280pt" viewBox="0 0 280 280" version="1.1">
<g id="surface1">
<path style=" stroke:none;fill-rule:nonzero;fill:rgb(0%,0%,0%);fill-opacity:1;" d="M 138.398438 0 C 176.667969 0 209.332031 13.535156 236.398438 40.601562 C 263.464844 67.667969 277 100.265625 277 138.398438 C 277 176.667969 263.464844 209.332031 236.398438 236.398438 C 209.332031 263.464844 176.667969 277 138.398438 277 C 100.265625 277 67.667969 263.464844 40.601562 236.398438 C 13.535156 209.199219 0 176.535156 0 138.398438 C 0 100.265625 13.535156 67.667969 40.601562 40.601562 C 67.667969 13.535156 100.265625 0 138.398438 0 "/>
<path style=" stroke:none;fill-rule:nonzero;fill:rgb(100%,100%,100%);fill-opacity:1;" d="M 138.398438 17 C 172 17 200.667969 28.867188 224.398438 52.601562 C 248.132812 76.332031 260 104.933594 260 138.398438 C 260 172 248.132812 200.667969 224.398438 224.398438 C 200.667969 248.132812 172 260 138.398438 260 C 104.933594 260 76.332031 248.132812 52.601562 224.398438 C 28.867188 200.667969 17 172 17 138.398438 C 17 104.933594 28.867188 76.332031 52.601562 52.601562 C 76.332031 28.867188 104.933594 17 138.398438 17 "/>
<path style=" stroke:none;fill-rule:nonzero;fill:rgb(0%,0%,0%);fill-opacity:1;" d="M 62.800781 87 L 187.398438 70.398438 L 192.800781 69.800781 L 195.398438 69.800781 C 206.066406 71.132812 214.199219 78.601562 219.800781 92.199219 C 225.398438 105.667969 227.066406 121.867188 224.800781 140.800781 C 222.667969 158.933594 217.601562 173.867188 209.601562 185.601562 C 201.734375 197.332031 192.667969 203.199219 182.398438 203.199219 L 179.601562 203 C 176.265625 202.601562 173.066406 201.464844 170 199.601562 L 107.398438 171.398438 L 106.199219 175 C 104.734375 178.464844 102.867188 181.132812 100.601562 183 L 101.199219 188.800781 L 102.199219 191.601562 C 104.332031 196.667969 104.464844 200.800781 102.601562 204 C 100.601562 207.464844 96.867188 209.464844 91.398438 210 L 86.601562 210.398438 C 71.800781 210.398438 62.601562 207 59 200.199219 C 56.867188 196.199219 57.265625 191.734375 60.199219 186.800781 L 60.601562 186.199219 L 62.800781 176.800781 L 66.398438 153 L 59.601562 149.800781 L 55 148.199219 C 48.734375 148.066406 43.535156 144.867188 39.398438 138.601562 C 35.398438 132.601562 33.398438 125.800781 33.398438 118.199219 C 33.398438 111 35.667969 104.332031 40.199219 98.199219 C 45.132812 91.667969 50.800781 88.332031 57.199219 88.199219 L 62.800781 87 "/>
<path style=" stroke:none;fill-rule:nonzero;fill:rgb(0%,100%,0%);fill-opacity:1;" d="M 96 146.199219 L 93 170.800781 C 91.933594 179.734375 91.867188 186.332031 92.800781 190.601562 L 95.398438 198 C 95.933594 200 94.332031 201.199219 90.601562 201.601562 L 77.800781 201.199219 C 71.535156 200.265625 67.800781 198.601562 66.601562 196.199219 C 66.066406 195.265625 66 194.265625 66.398438 193.199219 L 68 190.398438 L 70.800781 182.800781 L 71.601562 175 L 73.199219 164.398438 L 76.601562 143.199219 L 96 146.199219 "/>
<path style=" stroke:none;fill-rule:nonzero;fill:rgb(0%,85.882353%,0%);fill-opacity:1;" d="M 76.800781 142.601562 C 77.464844 142.464844 77.734375 142.601562 77.601562 143 L 72.199219 178.199219 C 71.667969 183.132812 70.601562 187.199219 69 190.398438 C 66.734375 194.265625 67.800781 197.132812 72.199219 199 L 82.199219 201 L 89.398438 201 C 93.398438 200.464844 95 199.199219 94.199219 197.199219 L 92.601562 193.199219 C 91.535156 189.601562 91 186.132812 91 182.800781 C 91.132812 177.867188 91.667969 171.800781 92.601562 164.601562 L 95 146.199219 C 95 145.800781 95.332031 145.601562 96 145.601562 C 96.667969 145.464844 97 145.667969 97 146.199219 L 93.398438 174.800781 C 93.132812 178.535156 93.332031 182.535156 94 186.800781 L 96.398438 198.398438 C 96.800781 200.398438 95.199219 201.667969 91.601562 202.199219 L 84.199219 202.398438 L 72.398438 201 C 67.867188 199.667969 65.535156 197.066406 65.398438 193.199219 C 65.398438 192.132812 66.066406 190.265625 67.398438 187.601562 L 69.800781 181.398438 L 71 171.601562 L 75.601562 143.199219 C 75.734375 142.800781 76.132812 142.601562 76.800781 142.601562 "/>
<path style=" stroke:none;fill-rule:nonzero;fill:rgb(0%,100%,0%);fill-opacity:1;" d="M 86 169.800781 L 88.601562 171.199219 L 91.398438 170.800781 C 94.066406 168.667969 95.332031 164.132812 95.199219 157.199219 L 101 159.800781 C 100.332031 165.398438 99.464844 169.398438 98.398438 171.800781 C 97.066406 174.867188 95.199219 176.867188 92.800781 177.800781 C 90.265625 178.734375 87.800781 177.933594 85.398438 175.398438 L 86 169.800781 "/>
<path style=" stroke:none;fill-rule:nonzero;fill:rgb(0%,85.882353%,0%);fill-opacity:1;" d="M 98.800781 159.601562 L 96.199219 158.398438 C 96.066406 162.132812 95.464844 165.265625 94.398438 167.800781 C 92.800781 171.667969 89.734375 172.535156 85.199219 170.398438 C 84.800781 170.265625 84.867188 170 85.398438 169.601562 L 86.800781 169.398438 C 90.800781 171.535156 93.132812 169.265625 93.800781 162.601562 L 94.199219 157.398438 L 94.800781 156.800781 L 96 156.601562 L 101.601562 159.199219 L 101.800781 159.601562 C 101 167.332031 99.464844 172.601562 97.199219 175.398438 C 95.464844 177.398438 93.398438 178.464844 91 178.601562 C 88.734375 178.601562 86.601562 177.667969 84.601562 175.800781 L 85 175.199219 L 86.398438 175 C 90.265625 178.734375 93.464844 178.398438 96 174 C 97.734375 171.199219 98.933594 167.265625 99.601562 162.199219 L 100 160 L 98.800781 159.601562 "/>
<path style=" stroke:none;fill-rule:nonzero;fill:rgb(81.176471%,100%,78.823529%);fill-opacity:1;" d="M 86.601562 167.199219 L 88.199219 157.800781 L 90.199219 150 L 94.199219 151 L 93 157.398438 L 89.199219 165 L 86.601562 167.199219 "/>
<path style=" stroke:none;fill-rule:nonzero;fill:rgb(0%,58.039216%,0%);fill-opacity:1;" d="M 55.398438 139.800781 C 51.800781 139.800781 48.601562 137.535156 45.800781 133 C 43.132812 128.601562 41.800781 123.667969 41.800781 118.199219 C 41.800781 113 43.464844 108.132812 46.800781 103.601562 C 50.132812 99.066406 53.667969 96.800781 57.398438 96.800781 L 55.398438 139.800781 "/>
<path style=" stroke:none;fill-rule:nonzero;fill:rgb(0%,45.098039%,0%);fill-opacity:1;" d="M 58.199219 96.800781 L 57.199219 97.398438 C 48.132812 98.464844 43.332031 105.464844 42.800781 118.398438 C 42.265625 131.199219 46.601562 138.132812 55.800781 139.199219 L 56.398438 139.800781 L 55.199219 140.398438 C 44.933594 139.199219 40.199219 131.800781 41 118.199219 C 41.800781 104.601562 47.265625 97.265625 57.398438 96.199219 C 58.066406 96.066406 58.332031 96.265625 58.199219 96.800781 "/>
<path style=" stroke:none;fill-rule:nonzero;fill:rgb(0%,58.039216%,0%);fill-opacity:1;" d="M 173.800781 98.199219 C 179.933594 88.867188 186.535156 84.601562 193.601562 85.398438 C 200.535156 86.199219 205.933594 91.867188 209.800781 102.398438 C 213.535156 112.933594 214.601562 125.265625 213 139.398438 C 211.265625 153.535156 207.332031 165.265625 201.199219 174.601562 C 195.066406 184.066406 188.464844 188.398438 181.398438 187.601562 C 174.464844 186.667969 169.066406 180.933594 165.199219 170.398438 C 161.464844 159.867188 160.398438 147.535156 162 133.398438 C 163.734375 119.265625 167.667969 107.535156 173.800781 98.199219 "/>
<path style=" stroke:none;fill-rule:nonzero;fill:rgb(0%,45.098039%,0%);fill-opacity:1;" d="M 163.199219 167.601562 C 160.132812 155.734375 159.464844 144.398438 161.199219 133.601562 C 165.464844 104.132812 175.132812 88 190.199219 85.199219 C 200.867188 83.199219 208.066406 89.933594 211.800781 105.398438 C 214.199219 115.800781 214.867188 127.066406 213.800781 139.199219 L 213.800781 139.398438 C 209.667969 168.734375 200 184.867188 184.800781 187.800781 C 174.265625 189.800781 167.066406 183.066406 163.199219 167.601562 "/>
<path style=" stroke:none;fill-rule:nonzero;fill:rgb(0%,100%,0%);fill-opacity:1;" d="M 171.800781 121.398438 C 176.601562 123.398438 180 125.066406 182 126.398438 C 185.601562 128.933594 187.667969 131.933594 188.199219 135.398438 C 189.667969 145.132812 182.933594 150.066406 168 150.199219 L 137 147.601562 C 139.800781 146.265625 141.535156 143.734375 142.199219 140 L 142.601562 130.601562 C 142.867188 124.867188 144.066406 119.132812 146.199219 113.398438 L 159.199219 116.601562 L 171.800781 121.398438 "/>
<path style=" stroke:none;fill-rule:nonzero;fill:rgb(0%,85.882353%,0%);fill-opacity:1;" d="M 178.398438 125.199219 L 165 119.601562 L 153.601562 115.199219 C 148.800781 114.265625 146 115.867188 145.199219 120 C 144.535156 122.933594 144.132812 128 144 135.199219 C 143.464844 140.535156 141.800781 144.464844 139 147 L 168.398438 149.601562 C 183.332031 149.332031 189.601562 144.667969 187.199219 135.601562 C 186.132812 131.332031 183.199219 127.867188 178.398438 125.199219 M 187.199219 130.398438 C 189.199219 132.933594 189.867188 136 189.199219 139.601562 C 188.535156 143.199219 186.800781 145.800781 184 147.398438 C 178.265625 150.601562 170.535156 151.734375 160.800781 150.800781 L 136.800781 148.199219 L 136.199219 147.800781 L 136.199219 147.398438 L 136.398438 147.199219 L 136.601562 147.199219 L 136.800781 147 C 139.199219 145.265625 140.667969 142.800781 141.199219 139.601562 L 141.601562 130.601562 C 141.867188 125.800781 143.066406 120.066406 145.199219 113.398438 C 145.464844 112.734375 146 112.535156 146.800781 112.800781 C 154.800781 114.132812 162.066406 116 168.601562 118.398438 C 177.398438 121.734375 183.601562 125.734375 187.199219 130.398438 "/>
<path style=" stroke:none;fill-rule:nonzero;fill:rgb(0%,100%,0%);fill-opacity:1;" d="M 187 130 C 189.535156 130 191.667969 130.867188 193.398438 132.601562 C 195.132812 134.332031 196 136.464844 196 139 C 196 141.535156 195.132812 143.667969 193.398438 145.398438 C 191.667969 147.132812 189.535156 148 187 148 C 184.464844 148 182.332031 147.132812 180.601562 145.398438 C 178.867188 143.667969 178 141.535156 178 139 C 178 136.464844 178.867188 134.332031 180.601562 132.601562 C 182.332031 130.867188 184.464844 130 187 130 "/>
<path style=" stroke:none;fill-rule:nonzero;fill:rgb(0%,85.882353%,0%);fill-opacity:1;" d="M 180 146 C 177.867188 144 176.867188 141.734375 177 139.199219 C 177.265625 133.066406 180.601562 129.933594 187 129.800781 C 193.265625 129.535156 196.601562 132.535156 197 138.800781 L 197 139 C 196.867188 141.800781 195.800781 144.066406 193.800781 145.800781 C 191.933594 147.535156 189.601562 148.464844 186.800781 148.601562 C 184.265625 148.867188 182 148 180 146 M 181.199219 133.199219 C 179.332031 135.066406 178.601562 137.265625 179 139.800781 C 179.265625 141.800781 180.066406 143.464844 181.398438 144.800781 C 182.734375 146.398438 184.398438 147.265625 186.398438 147.398438 C 188.800781 147.535156 190.867188 146.800781 192.601562 145.199219 C 194.066406 143.601562 194.867188 141.601562 195 139.199219 C 194.867188 137.066406 194.132812 135.199219 192.800781 133.601562 C 191.464844 131.867188 189.734375 130.933594 187.601562 130.800781 C 185.199219 130.535156 183.066406 131.332031 181.199219 133.199219 "/>
<path style=" stroke:none;fill-rule:nonzero;fill:rgb(0%,100%,0%);fill-opacity:1;" d="M 169.800781 96.601562 C 164.066406 106.734375 160.332031 118.867188 158.601562 133 C 157 146.464844 157.667969 158.734375 160.601562 169.800781 C 163.398438 180.601562 167.800781 188 173.800781 192 L 61.800781 141.398438 C 58.464844 141.398438 55.535156 139 53 134.199219 C 50.601562 129.398438 49.398438 124.132812 49.398438 118.398438 C 49.398438 112.800781 50.867188 107.601562 53.800781 102.800781 C 56.867188 97.867188 60.066406 95.398438 63.398438 95.398438 L 188.800781 78.800781 C 181.734375 80.535156 175.398438 86.464844 169.800781 96.601562 "/>
<path style=" stroke:none;fill-rule:nonzero;fill:rgb(0%,85.882353%,0%);fill-opacity:1;" d="M 69.398438 94.601562 C 60.066406 96.601562 54.398438 100.867188 52.398438 107.398438 C 49.199219 118.464844 50.332031 127.265625 55.800781 133.800781 C 59.535156 138.199219 67 143 78.199219 148.199219 L 169.398438 189.199219 C 166.199219 185.601562 164.066406 182.398438 163 179.601562 C 157.800781 167.066406 156 151.601562 157.601562 133.199219 C 162.535156 99.601562 172.535156 81.667969 187.601562 79.398438 L 92.199219 92 L 69.398438 94.601562 M 107.199219 89.398438 L 189.199219 78.398438 C 190.535156 78.132812 190.535156 78.332031 189.199219 79 C 174 84.464844 164.132812 102.398438 159.601562 132.800781 C 156.933594 161.867188 162 181.464844 174.800781 191.601562 C 174.933594 191.867188 174.332031 192.132812 173 192.398438 L 62.199219 142.398438 C 55.265625 139.332031 50.800781 133.601562 48.800781 125.199219 C 46.800781 116.667969 48.199219 109.265625 53 103 C 57.535156 97.132812 66 93.332031 78.398438 91.601562 L 107.199219 89.398438 "/>
<path style=" stroke:none;fill-rule:nonzero;fill:rgb(0%,100%,0%);fill-opacity:1;" d="M 162.199219 175.199219 C 157.933594 163.199219 156.734375 149.132812 158.601562 133 C 160.464844 117 164.933594 103.667969 172 93 C 178.933594 82.332031 186.398438 77.464844 194.398438 78.398438 C 202.398438 79.332031 208.535156 85.800781 212.800781 97.800781 C 217.066406 109.800781 218.265625 123.800781 216.398438 139.800781 C 214.535156 155.933594 210.066406 169.332031 203 180 C 196.066406 190.667969 188.601562 195.535156 180.601562 194.601562 C 172.601562 193.667969 166.464844 187.199219 162.199219 175.199219 M 162 133.398438 C 160.398438 147.535156 161.464844 159.867188 165.199219 170.398438 C 169.066406 180.933594 174.464844 186.667969 181.398438 187.601562 C 188.464844 188.398438 195.066406 184.066406 201.199219 174.601562 C 207.332031 165.265625 211.265625 153.535156 213 139.398438 C 214.601562 125.265625 213.535156 112.933594 209.800781 102.398438 C 205.933594 91.867188 200.535156 86.199219 193.601562 85.398438 C 186.535156 84.601562 179.933594 88.867188 173.800781 98.199219 C 167.667969 107.535156 163.734375 119.265625 162 133.398438 "/>
<path style=" stroke:none;fill-rule:nonzero;fill:rgb(0%,85.882353%,0%);fill-opacity:1;" d="M 159 139.800781 C 158.464844 155.265625 159.867188 166.933594 163.199219 174.800781 C 166.933594 183.867188 171.265625 190 176.199219 193.199219 C 183.667969 198 191.398438 194.933594 199.398438 184 C 205.667969 175.199219 210.265625 165.066406 213.199219 153.601562 C 216.132812 142.398438 217.132812 131.332031 216.199219 120.398438 C 215.265625 109.734375 213.601562 101.398438 211.199219 95.398438 C 207.464844 86.199219 201.667969 80.667969 193.800781 78.800781 C 182.601562 78.933594 173.734375 86.734375 167.199219 102.199219 C 162.132812 114.066406 159.398438 126.601562 159 139.800781 M 159 172.601562 C 155.132812 161.132812 154.066406 147.867188 155.800781 132.800781 C 157.667969 117.601562 161.867188 104.867188 168.398438 94.601562 C 175.601562 83.535156 184.332031 77.933594 194.601562 77.800781 L 195.199219 77.800781 C 207.464844 80.867188 214.933594 91.601562 217.601562 110 C 219.734375 124.667969 218.867188 139 215 153 C 212.066406 163.933594 208.332031 173.132812 203.800781 180.601562 C 196.734375 192.332031 188.800781 197.132812 180 195 C 170.265625 192.734375 163.265625 185.265625 159 172.601562 "/>
<path style=" stroke:none;fill-rule:nonzero;fill:rgb(0%,85.882353%,0%);fill-opacity:1;" d="M 162.800781 167.398438 C 159.867188 156.734375 159.332031 145.464844 161.199219 133.601562 C 162.933594 122.265625 165.535156 112.464844 169 104.199219 C 174.601562 91.535156 181.734375 85.132812 190.398438 85 C 201.332031 84.867188 208.535156 91.734375 212 105.601562 C 214.398438 114.933594 215 126.132812 213.800781 139.199219 L 213.800781 139.601562 C 212.199219 150.800781 209.601562 160.464844 206 168.601562 C 200.398438 181.398438 193.265625 187.867188 184.601562 188 C 173.933594 188.132812 166.667969 181.265625 162.800781 167.398438 M 167.398438 113.601562 C 165 121.464844 163.535156 128.066406 163 133.398438 C 160.867188 158.066406 164.199219 174.265625 173 182 C 180.734375 188.933594 188.332031 188.398438 195.800781 180.398438 C 201.132812 174.800781 205.066406 167.734375 207.601562 159.199219 C 209.601562 152.667969 211.066406 146.132812 212 139.601562 C 214.132812 114.800781 210.800781 98.601562 202 91 C 194.265625 84.066406 186.667969 84.601562 179.199219 92.601562 C 173.867188 98.199219 169.933594 105.199219 167.398438 113.601562 "/>
<path style=" stroke:none;fill-rule:nonzero;fill:rgb(81.176471%,100%,78.823529%);fill-opacity:1;" d="M 109.398438 98 L 88.199219 101.199219 L 77.199219 103.398438 L 66 104.398438 L 62.601562 102.601562 C 61.933594 101.398438 62.734375 100.265625 65 99.199219 L 73.800781 98.199219 L 83 98.199219 L 104.199219 94.398438 L 125.199219 90.800781 L 146.398438 88.601562 L 152.800781 87.800781 C 156 87.667969 157.464844 88.535156 157.199219 90.398438 C 156.933594 93.066406 153.398438 94.398438 146.601562 94.398438 L 112.800781 97.398438 L 109.398438 98 "/>
<path style=" stroke:none;fill-rule:nonzero;fill:rgb(81.176471%,100%,78.823529%);fill-opacity:1;" d="M 89.601562 191.601562 L 91.199219 194.800781 L 91.601562 198 L 88.800781 199.199219 L 84.398438 200 C 76.265625 200 71.933594 197.734375 71.398438 193.199219 C 71.398438 190.667969 71.867188 189.332031 72.800781 189.199219 C 73.867188 188.933594 74.535156 189.601562 74.800781 191.199219 L 75.601562 194.800781 C 76.265625 195.601562 78.132812 196.535156 81.199219 197.601562 L 85.398438 197.800781 L 89.398438 196.199219 L 88.800781 193.601562 C 88.398438 192.265625 88.464844 191.535156 89 191.398438 L 89.601562 191.601562 "/>
</g>
</svg>
