<?xml version="1.0" encoding="UTF-8"?>
<svg xmlns="http://www.w3.org/2000/svg" xmlns:xlink="http://www.w3.org/1999/xlink" width="280pt" height="280pt" viewBox="0 0 280 280" version="1.1">
<g id="surface1">
<path style=" stroke:none;fill-rule:nonzero;fill:rgb(0%,0%,0%);fill-opacity:1;" d="M 102.800781 5 C 139.734375 -4.867188 174.800781 -0.199219 208 19 C 241.199219 38.199219 262.734375 66.199219 272.601562 103 C 282.464844 139.933594 277.800781 174.933594 258.601562 208 C 239.535156 241.199219 211.535156 262.734375 174.601562 272.601562 C 137.667969 282.464844 102.601562 277.867188 69.398438 258.800781 C 36.332031 239.464844 14.867188 211.398438 5 174.601562 C -4.867188 137.800781 -0.265625 102.867188 18.800781 69.800781 C 37.867188 36.464844 65.867188 14.867188 102.800781 5 "/>
<path style=" stroke:none;fill-rule:nonzero;fill:rgb(100%,100%,40%);fill-opacity:1;" d="M 107.199219 21.601562 C 139.601562 12.933594 170.332031 17 199.398438 33.800781 C 228.601562 50.464844 247.535156 75 256.199219 107.398438 C 264.867188 139.800781 260.800781 170.535156 244 199.601562 C 227.199219 228.667969 202.601562 247.535156 170.199219 256.199219 C 137.800781 264.867188 107.066406 260.800781 78 244 C 48.933594 227.199219 30.066406 202.601562 21.398438 170.199219 C 12.734375 137.800781 16.734375 107.132812 33.398438 78.199219 C 50.199219 49.132812 74.800781 30.265625 107.199219 21.601562 "/>
<path style=" stroke:none;fill-rule:nonzero;fill:rgb(0%,0%,0%);fill-opacity:1;" d="M 52.199219 108.800781 L 168.398438 60.398438 L 173.398438 58.601562 L 176 58 C 186.535156 56.398438 196.332031 61.464844 205.398438 73.199219 C 214.199219 84.667969 220 99.800781 222.800781 118.601562 C 225.332031 136.867188 224.265625 152.667969 219.601562 166 C 214.933594 179.332031 207.667969 187.332031 197.800781 190 L 195 190.601562 L 185 189.601562 L 117.199219 178.601562 L 117 182.601562 C 116.464844 186.332031 115.332031 189.332031 113.601562 191.601562 L 115.800781 197 L 117.398438 199.601562 C 120.734375 204 121.933594 208 121 211.601562 C 119.933594 215.332031 116.867188 218.199219 111.800781 220.199219 L 107.199219 221.800781 C 92.933594 225.667969 83.199219 224.734375 78 219 C 74.933594 215.667969 74.132812 211.265625 75.601562 205.800781 L 75.800781 205.199219 C 76.332031 202.933594 76.199219 199.667969 75.398438 195.398438 L 72.800781 171.398438 L 65.398438 170.199219 L 60.601562 169.800781 C 54.464844 171.265625 48.601562 169.535156 43 164.601562 C 37.535156 159.800781 33.800781 153.734375 31.800781 146.398438 C 29.933594 139.464844 30.464844 132.464844 33.398438 125.398438 C 36.464844 117.800781 41.066406 113.066406 47.199219 111.199219 L 52.199219 108.800781 "/>
<path style=" stroke:none;fill-rule:nonzero;fill:rgb(0%,100%,0%);fill-opacity:1;" d="M 99.800781 157.398438 L 103 181.800781 C 104.464844 190.734375 106.132812 197.132812 108 201 L 112.601562 207.601562 C 113.667969 209.332031 112.398438 210.867188 108.800781 212.199219 L 96.398438 215.199219 C 90 215.867188 85.933594 215.199219 84.199219 213.199219 L 83.199219 210.398438 L 84 207.199219 L 84.800781 199.199219 L 83.601562 191.601562 L 82.398438 180.800781 L 80.199219 159.398438 L 99.800781 157.398438 "/>
<path style=" stroke:none;fill-rule:nonzero;fill:rgb(0%,85.882353%,0%);fill-opacity:1;" d="M 80.199219 158.800781 L 81 159 L 85 194.398438 C 85.800781 199.332031 85.800781 203.535156 85 207 C 83.800781 211.265625 85.601562 213.800781 90.398438 214.601562 L 100.601562 213.800781 L 107.601562 212 C 111.332031 210.398438 112.535156 208.734375 111.199219 207 L 108.398438 203.800781 L 104.398438 194 L 101 176 L 98.800781 157.601562 C 98.667969 157.199219 98.933594 156.933594 99.601562 156.800781 C 100.265625 156.535156 100.667969 156.667969 100.800781 157.199219 L 104.601562 185.800781 L 108.199219 197.199219 L 113.601562 207.800781 C 114.535156 209.535156 113.265625 211.132812 109.800781 212.601562 L 102.800781 214.601562 L 91.199219 216.398438 C 86.398438 216.265625 83.398438 214.398438 82.199219 210.800781 C 81.933594 209.734375 82.132812 207.734375 82.800781 204.800781 L 83.398438 198.199219 L 82 188.199219 L 79.199219 159.800781 C 79.199219 159.265625 79.535156 158.933594 80.199219 158.800781 "/>
<path style=" stroke:none;fill-rule:nonzero;fill:rgb(0%,100%,0%);fill-opacity:1;" d="M 96 182.800781 L 99 183.398438 C 100.199219 183.535156 101.066406 183.132812 101.601562 182.199219 C 103.601562 179.535156 103.667969 174.867188 101.800781 168.199219 L 108 169.199219 L 108.601562 181.398438 C 108.199219 184.734375 106.933594 187.132812 104.800781 188.601562 L 97 188.398438 L 96 182.800781 "/>
<path style=" stroke:none;fill-rule:nonzero;fill:rgb(0%,85.882353%,0%);fill-opacity:1;" d="M 108.800781 168.800781 C 110 176.398438 109.867188 181.933594 108.398438 185.398438 C 107.199219 187.667969 105.535156 189.199219 103.398438 190 L 96.398438 189 L 96.601562 188.199219 L 97.800781 187.800781 C 102.464844 190.332031 105.535156 189.132812 107 184.199219 C 107.800781 181.132812 107.867188 177 107.199219 171.800781 L 107 169.601562 L 105.800781 169.601562 L 103 169 C 103.933594 172.734375 104.199219 175.933594 103.800781 178.601562 C 103.132812 182.734375 100.398438 184.332031 95.601562 183.398438 C 95.199219 183.398438 95.199219 183.199219 95.601562 182.800781 C 96 182.398438 96.398438 182.199219 96.800781 182.199219 C 101.199219 183.132812 102.867188 180.332031 101.800781 173.800781 L 100.800781 168.601562 L 101.199219 168 C 101.734375 167.601562 102.132812 167.398438 102.398438 167.398438 L 108.398438 168.398438 L 108.800781 168.800781 "/>
<path style=" stroke:none;fill-rule:nonzero;fill:rgb(81.176471%,100%,78.823529%);fill-opacity:1;" d="M 96 180 L 95.199219 170.601562 L 95.199219 162.601562 L 99.199219 162.398438 L 99.601562 169 L 98 177.199219 L 96 180 "/>
<path style=" stroke:none;fill-rule:nonzero;fill:rgb(0%,58.039216%,0%);fill-opacity:1;" d="M 58.800781 161.800781 C 55.332031 162.734375 51.667969 161.332031 47.800781 157.601562 C 44.066406 154 41.464844 149.535156 40 144.199219 C 38.667969 139.265625 39 134.199219 41 129 C 43.132812 123.667969 46 120.535156 49.601562 119.601562 L 58.800781 161.800781 "/>
<path style=" stroke:none;fill-rule:nonzero;fill:rgb(0%,45.098039%,0%);fill-opacity:1;" d="M 50.398438 119.398438 L 49.398438 120.199219 C 41.132812 123.667969 38.398438 131.667969 41.199219 144.199219 C 43.867188 156.734375 49.867188 162.332031 59.199219 161 L 59.601562 161.398438 L 58.800781 162.398438 C 48.535156 163.867188 42 157.867188 39.199219 144.398438 C 36.535156 131.199219 39.933594 122.734375 49.398438 119 C 50.066406 118.734375 50.398438 118.867188 50.398438 119.398438 "/>
<path style=" stroke:none;fill-rule:nonzero;fill:rgb(0%,58.039216%,0%);fill-opacity:1;" d="M 162.398438 90.800781 C 165.867188 80.265625 171.132812 74.464844 178.199219 73.398438 C 185 72.332031 191.667969 76.398438 198.199219 85.601562 C 204.464844 94.800781 208.734375 106.464844 211 120.601562 C 212.867188 134.601562 212.066406 146.933594 208.601562 157.601562 C 205.132812 168.265625 199.867188 174.199219 192.800781 175.398438 C 185.867188 176.199219 179.199219 172 172.800781 162.800781 C 166.398438 153.601562 162.132812 142 160 128 C 158.132812 113.734375 158.933594 101.332031 162.398438 90.800781 "/>
<path style=" stroke:none;fill-rule:nonzero;fill:rgb(0%,45.098039%,0%);fill-opacity:1;" d="M 170 160.601562 C 164 149.933594 160.464844 139.199219 159.398438 128.398438 C 155.933594 98.667969 161.132812 80.535156 175 74 C 184.734375 69.332031 193.398438 74 201 88 C 205.933594 97.464844 209.535156 108.199219 211.800781 120.199219 L 211.800781 120.398438 C 215.398438 149.734375 210.199219 167.734375 196.199219 174.398438 C 186.464844 179.199219 177.734375 174.601562 170 160.601562 "/>
<path style=" stroke:none;fill-rule:nonzero;fill:rgb(0%,100%,0%);fill-opacity:1;" d="M 166.601562 113.800781 L 177.601562 116 C 181.734375 117.464844 184.535156 119.800781 186 123 C 190 132.066406 184.734375 138.601562 170.199219 142.601562 L 139.601562 148 C 142 146.132812 143.066406 143.265625 142.800781 139.398438 L 140.601562 130.199219 C 139.398438 124.601562 139.066406 118.734375 139.601562 112.601562 C 143.332031 112.066406 147.800781 112 153 112.398438 L 166.601562 113.800781 "/>
<path style=" stroke:none;fill-rule:nonzero;fill:rgb(0%,85.882353%,0%);fill-opacity:1;" d="M 183.601562 118.398438 C 186.265625 120.398438 187.734375 123.265625 188 127 C 188.265625 130.601562 187.265625 133.464844 185 135.601562 C 180.199219 140.265625 173.066406 143.398438 163.601562 145 L 139.601562 148.601562 L 139 148.398438 L 138.800781 148 L 139 147.800781 L 139.199219 147.800781 L 139.398438 147.398438 C 141.132812 145.265625 141.867188 142.601562 141.601562 139.398438 L 139.601562 130.398438 C 138.667969 125.734375 138.332031 119.867188 138.601562 112.800781 L 140 111.800781 C 148.132812 111.132812 155.667969 111.066406 162.601562 111.601562 C 171.933594 112.535156 178.933594 114.800781 183.601562 118.398438 M 173.800781 115.800781 L 159.398438 113.800781 L 147.398438 112.601562 C 142.464844 112.867188 140.132812 115.066406 140.398438 119.199219 C 140.535156 122.265625 141.464844 127.265625 143.199219 134.199219 C 144.132812 139.535156 143.535156 143.734375 141.398438 146.800781 L 170.398438 141.800781 C 184.933594 137.667969 189.800781 131.535156 185 123.398438 C 182.867188 119.535156 179.132812 117 173.800781 115.800781 "/>
<path style=" stroke:none;fill-rule:nonzero;fill:rgb(0%,100%,0%);fill-opacity:1;" d="M 183.398438 118 C 185.933594 117.332031 188.199219 117.667969 190.199219 119 C 192.332031 120.199219 193.734375 122.066406 194.398438 124.601562 C 195.066406 127 194.800781 129.265625 193.601562 131.398438 C 192.398438 133.398438 190.535156 134.734375 188 135.398438 L 181.199219 134.800781 C 179.066406 133.464844 177.667969 131.601562 177 129.199219 C 176.332031 126.667969 176.601562 124.398438 177.800781 122.398438 C 179.132812 120.132812 181 118.667969 183.398438 118 "/>
<path style=" stroke:none;fill-rule:nonzero;fill:rgb(0%,85.882353%,0%);fill-opacity:1;" d="M 178.601562 122.800781 C 177.265625 125.066406 177.132812 127.398438 178.199219 129.800781 C 179 131.535156 180.199219 132.933594 181.800781 134 L 187.199219 135 C 189.601562 134.464844 191.398438 133.265625 192.601562 131.398438 C 193.667969 129.398438 194 127.265625 193.601562 125 C 192.800781 122.867188 191.535156 121.265625 189.800781 120.199219 C 188.199219 118.734375 186.332031 118.265625 184.199219 118.800781 C 181.800781 119.066406 179.933594 120.398438 178.601562 122.800781 M 180.601562 135.398438 C 178.066406 134.066406 176.601562 132.132812 176.199219 129.601562 C 174.867188 123.601562 177.199219 119.667969 183.199219 117.800781 C 189.332031 115.933594 193.398438 118 195.398438 124 L 195.398438 124.199219 C 196.066406 127 195.601562 129.535156 194 131.800781 C 192.667969 133.800781 190.667969 135.265625 188 136.199219 L 180.601562 135.398438 "/>
<path style=" stroke:none;fill-rule:nonzero;fill:rgb(0%,100%,0%);fill-opacity:1;" d="M 158 90.398438 C 155.199219 101.601562 154.800781 114.265625 156.800781 128.398438 C 158.667969 141.734375 162.464844 153.464844 168.199219 163.601562 C 173.667969 173.199219 179.800781 179.132812 186.601562 181.398438 L 65.398438 161.398438 C 62.066406 162.332031 58.601562 160.867188 55 157 C 51.535156 152.867188 49.066406 148 47.601562 142.398438 C 46.132812 137.066406 46.132812 131.734375 47.601562 126.398438 C 49.332031 120.800781 51.800781 117.535156 55 116.601562 L 171.800781 68.199219 C 165.535156 71.800781 160.933594 79.199219 158 90.398438 "/>
<path style=" stroke:none;fill-rule:nonzero;fill:rgb(0%,85.882353%,0%);fill-opacity:1;" d="M 95.800781 99.601562 L 172.199219 67.800781 C 173.398438 67.132812 173.464844 67.332031 172.398438 68.398438 C 159.066406 77.601562 154.132812 97.464844 157.601562 128 C 162.667969 156.667969 172.601562 174.265625 187.398438 180.800781 L 186 182 L 66 162.398438 C 58.535156 161.199219 52.734375 156.800781 48.601562 149.199219 C 44.464844 141.464844 43.933594 134 47 126.800781 C 49.800781 119.867188 57 114 68.601562 109.199219 L 95.800781 99.601562 M 60.601562 114.398438 C 52.199219 118.800781 47.800781 124.398438 47.398438 131.199219 C 47.265625 142.667969 50.734375 150.867188 57.800781 155.800781 C 62.464844 159.132812 70.867188 161.800781 83 163.800781 L 181.601562 179.800781 L 173 172.199219 C 164.867188 161.535156 159.132812 147.066406 155.800781 128.800781 C 151.933594 95.066406 156.933594 75.199219 170.800781 69.199219 L 81.800781 106 C 72.464844 109.066406 65.398438 111.867188 60.601562 114.398438 "/>
<path style=" stroke:none;fill-rule:nonzero;fill:rgb(0%,100%,0%);fill-opacity:1;" d="M 160 128 C 162.132812 142 166.398438 153.601562 172.800781 162.800781 C 179.199219 172 185.867188 176.199219 192.800781 175.398438 C 199.867188 174.199219 205.132812 168.265625 208.601562 157.601562 C 212.066406 146.933594 212.867188 134.601562 211 120.601562 C 208.734375 106.464844 204.464844 94.800781 198.199219 85.601562 C 191.667969 76.398438 185 72.332031 178.199219 73.398438 C 171.132812 74.464844 165.867188 80.265625 162.398438 90.800781 C 158.933594 101.332031 158.132812 113.734375 160 128 M 171 168.199219 C 163.933594 157.800781 159.199219 144.535156 156.800781 128.398438 C 154.398438 112.535156 155.265625 98.535156 159.398438 86.398438 C 163.265625 74.132812 169.199219 67.464844 177.199219 66.398438 C 185.199219 65.199219 192.800781 69.867188 200 80.398438 C 207.199219 90.933594 211.933594 104.132812 214.199219 120 C 216.734375 136.132812 215.867188 150.265625 211.601562 162.398438 C 207.734375 174.398438 201.800781 181 193.800781 182.199219 C 185.800781 183.398438 178.199219 178.734375 171 168.199219 "/>
<path style=" stroke:none;fill-rule:nonzero;fill:rgb(0%,85.882353%,0%);fill-opacity:1;" d="M 167.398438 166.601562 C 160.734375 156.464844 156.265625 143.933594 154 129 C 151.867188 113.800781 152.601562 100.332031 156.199219 88.601562 C 160.332031 76.066406 167.332031 68.464844 177.199219 65.800781 L 177.398438 65.601562 L 177.800781 65.601562 C 190.464844 65.332031 200.464844 73.800781 207.800781 91 C 213.535156 104.601562 216.332031 118.601562 216.199219 133 C 216.332031 144.464844 215.132812 154.398438 212.601562 162.800781 C 208.867188 175.867188 202.464844 182.464844 193.398438 182.601562 C 183.398438 183 174.734375 177.667969 167.398438 166.601562 M 158.800781 135 C 162.265625 150.066406 166.667969 160.933594 172 167.601562 C 177.867188 175.332031 183.601562 180.132812 189.199219 182 C 197.734375 184.667969 204.464844 179.667969 209.398438 167 C 213.132812 156.867188 214.933594 145.867188 214.800781 134 C 214.667969 122.535156 212.734375 111.667969 209 101.398438 C 205.398438 91.265625 201.667969 83.601562 197.800781 78.398438 C 191.800781 70.535156 184.734375 66.734375 176.601562 67 C 165.933594 69.933594 159.464844 79.734375 157.199219 96.398438 C 155.332031 109.199219 155.867188 122.066406 158.800781 135 "/>
<path style=" stroke:none;fill-rule:nonzero;fill:rgb(0%,85.882353%,0%);fill-opacity:1;" d="M 160.199219 107.398438 C 159.933594 115.535156 160.199219 122.265625 161 127.601562 C 165.398438 152 172.867188 166.734375 183.398438 171.800781 C 192.601562 176.601562 199.800781 174.199219 205 164.601562 C 208.601562 157.800781 210.535156 149.933594 210.800781 141 C 211.066406 134.199219 210.800781 127.535156 210 121 C 205.601562 96.464844 198.199219 81.667969 187.800781 76.601562 C 178.601562 71.933594 171.398438 74.398438 166.199219 84 C 162.464844 90.800781 160.464844 98.601562 160.199219 107.398438 M 169.601562 160.601562 C 164 151 160.601562 140.265625 159.398438 128.398438 C 158.066406 116.933594 158 106.800781 159.199219 98 C 161.464844 84.265625 166.734375 76.199219 175 73.800781 C 185.535156 70.867188 194.265625 75.601562 201.199219 88 C 205.867188 96.398438 209.398438 107.132812 211.800781 120.199219 L 211.800781 120.601562 C 213.132812 131.800781 213.132812 141.800781 211.800781 150.601562 C 209.535156 164.332031 204.332031 172.332031 196.199219 174.601562 C 185.800781 177.535156 176.933594 172.867188 169.601562 160.601562 "/>
<path style=" stroke:none;fill-rule:nonzero;fill:rgb(81.176471%,100%,78.823529%);fill-opacity:1;" d="M 100 107.398438 L 80.398438 115.800781 L 70.398438 120.800781 C 66.132812 123.066406 62.667969 124.398438 60 124.800781 L 56 123.800781 C 55.199219 122.867188 55.734375 121.601562 57.601562 120 C 58.933594 118.800781 61.734375 117.734375 66 116.800781 L 74.800781 114.398438 C 79.066406 112.800781 85.535156 109.734375 94.199219 105.199219 C 102.332031 100.800781 108.800781 97.800781 113.601562 96.199219 L 133.398438 88.601562 L 139.398438 86.398438 C 142.464844 85.332031 144.066406 85.734375 144.199219 87.601562 C 144.734375 90.132812 141.734375 92.332031 135.199219 94.199219 C 128.933594 95.800781 118.265625 99.667969 103.199219 105.800781 L 100 107.398438 "/>
<path style=" stroke:none;fill-rule:nonzero;fill:rgb(81.176471%,100%,78.823529%);fill-opacity:1;" d="M 105.199219 202.800781 L 107.800781 205.398438 L 108.800781 208.601562 L 106.398438 210.398438 L 102.398438 212.199219 C 94.535156 214.332031 89.734375 213.332031 88 209.199219 C 87.464844 206.667969 87.601562 205.199219 88.398438 204.800781 C 89.332031 204.265625 90.132812 204.800781 90.800781 206.398438 L 92.601562 209.601562 L 98.601562 210.800781 L 102.800781 210 L 106.199219 207.398438 L 105 204.800781 C 104.199219 203.734375 104.066406 203.066406 104.601562 202.800781 L 105.199219 202.800781 "/>
<path style=" stroke:none;fill-rule:nonzero;fill:rgb(0%,0%,0%);fill-opacity:1;" d="M 212.800781 70.601562 L 218.398438 68.601562 L 218.601562 68.601562 L 223 68.199219 C 228.601562 68.734375 232.066406 71.332031 233.398438 76 C 234.867188 81.332031 232.867188 86.066406 227.398438 90.199219 C 220.199219 95.535156 213.800781 98.800781 208.199219 100 C 203.265625 101.066406 199.332031 99.867188 196.398438 96.398438 C 193.867188 92.933594 193.066406 89.265625 194 85.398438 C 195.601562 79.800781 201.464844 75 211.601562 71 L 212.800781 70.601562 "/>
<path style=" stroke:none;fill-rule:nonzero;fill:rgb(85.098039%,87.843137%,12.941176%);fill-opacity:1;" d="M 220.199219 76.800781 L 222.601562 76.398438 C 224.601562 76.800781 225.535156 77.800781 225.398438 79.398438 C 225.132812 80.734375 224.066406 82.066406 222.199219 83.398438 L 212.800781 89.398438 C 207.464844 91.933594 204.199219 92.535156 203 91.199219 C 199.800781 87.199219 203.734375 83.066406 214.800781 78.800781 L 220.199219 76.800781 "/>
<path style=" stroke:none;fill-rule:nonzero;fill:rgb(0%,0%,0%);fill-opacity:1;" d="M 248.199219 113.601562 C 252.332031 117.734375 253.734375 122.066406 252.398438 126.601562 C 251.199219 131 247.332031 133.867188 240.800781 135.199219 L 232 136.398438 L 230.398438 136.398438 L 228 136.800781 L 210.800781 137.199219 C 203.199219 136 198.601562 132.332031 197 126.199219 C 196.464844 123.132812 197 120.398438 198.601562 118 C 200.601562 114.667969 205.199219 112.132812 212.398438 110.398438 L 229.601562 109 C 238.535156 109 244.734375 110.535156 248.199219 113.601562 "/>
<path style=" stroke:none;fill-rule:nonzero;fill:rgb(85.098039%,87.843137%,12.941176%);fill-opacity:1;" d="M 242.398438 119.601562 C 245.601562 123.066406 244.933594 125.398438 240.398438 126.601562 L 229.601562 128 L 216.398438 129.199219 C 209.867188 129.066406 206.265625 127.398438 205.601562 124.199219 C 204.667969 121 209.933594 118.867188 221.398438 117.800781 C 232.601562 116.601562 239.601562 117.199219 242.398438 119.601562 "/>
<path style=" stroke:none;fill-rule:nonzero;fill:rgb(0%,0%,0%);fill-opacity:1;" d="M 207.601562 147 L 209 146.601562 C 213.667969 146.199219 220.132812 148.066406 228.398438 152.199219 C 234.933594 155.535156 237.800781 159.933594 237 165.398438 C 236.734375 167.800781 235.734375 169.867188 234 171.601562 C 232.398438 173.332031 230.265625 174.464844 227.601562 175 L 218.398438 174.601562 L 209.199219 170.601562 C 205.464844 168.601562 202.867188 166.667969 201.398438 164.800781 C 198.734375 161.464844 198 157.867188 199.199219 154 C 200.535156 150.265625 203.332031 147.933594 207.601562 147 "/>
<path style=" stroke:none;fill-rule:nonzero;fill:rgb(85.098039%,87.843137%,12.941176%);fill-opacity:1;" d="M 220.800781 166.398438 L 212.800781 162.800781 L 208.199219 159.398438 C 207.265625 158.332031 207 157.398438 207.398438 156.601562 L 209.800781 155.199219 C 213.398438 154.800781 218.265625 156.332031 224.398438 159.800781 C 228.132812 161.667969 229.464844 163.535156 228.398438 165.398438 C 227.199219 167.132812 224.667969 167.464844 220.800781 166.398438 "/>
</g>
</svg>
