<?xml version="1.0" encoding="UTF-8"?>
<svg xmlns="http://www.w3.org/2000/svg" xmlns:xlink="http://www.w3.org/1999/xlink" width="252pt" height="224pt" viewBox="0 0 252 224" version="1.1">
<g id="surface1">
<path style=" stroke:none;fill-rule:nonzero;fill:rgb(100%,94.509804%,0%);fill-opacity:1;" d="M 184.398438 103.199219 L 175.601562 135.800781 L 161.800781 106.601562 L 123.601562 128.398438 L 130.800781 116 C 136.132812 107.066406 140.535156 101.066406 144 98 C 138.398438 95.601562 130.800781 93.199219 121.199219 90.800781 L 97.601562 84.800781 C 102.265625 84 114.332031 79.066406 133.800781 70 L 114.199219 43.800781 L 149 46.601562 L 167.601562 0 C 173.199219 15.601562 176.667969 34.066406 178 55.398438 C 184.132812 49.265625 190.066406 44.199219 195.800781 40.199219 L 204.601562 33.199219 C 208.332031 30.265625 211.398438 28.265625 213.800781 27.199219 C 213.265625 32.535156 211.132812 39.199219 207.398438 47.199219 L 197 67 L 250.398438 75.800781 L 199.800781 91.800781 L 216.398438 118 L 184.398438 103.199219 "/>
<path style=" stroke:none;fill-rule:nonzero;fill:rgb(100%,94.509804%,0%);fill-opacity:1;" d="M 47.199219 128.800781 C 57.464844 130.398438 64.734375 132.132812 69 134 L 66.601562 110.199219 L 63 86.199219 C 65.398438 90.199219 74.601562 99.398438 90.601562 113.800781 L 107.199219 85.398438 L 118 118.800781 L 168.398438 117.601562 C 156.132812 128.800781 140.464844 139.199219 121.398438 148.800781 C 129.535156 152 136.464844 155.464844 142.199219 159.199219 L 152 164.800781 L 161.199219 170.800781 L 140.398438 172.601562 L 118 170.800781 L 130.601562 223.398438 L 96.199219 183 L 78.601562 208.398438 L 79.601562 173.398438 L 46.199219 177.800781 L 67.800781 153.800781 L 33 127 L 47.199219 128.800781 "/>
<path style=" stroke:none;fill-rule:nonzero;fill:rgb(100%,100%,100%);fill-opacity:1;" d="M 23 48.800781 L 68 60.199219 L 84.398438 13.601562 L 90.199219 28.800781 C 93.933594 39.867188 95.667969 47.867188 95.398438 52.800781 C 103.667969 50.132812 114 45.933594 126.398438 40.199219 C 143.066406 32.464844 153.199219 27.867188 156.800781 26.398438 C 154.398438 29.066406 150.132812 36.464844 144 48.601562 L 135.398438 66 L 183.398438 70.601562 L 144.398438 95.800781 L 174.800781 145.800781 C 152.535156 138.332031 129.464844 127 105.601562 111.800781 C 106 121.398438 105.265625 129.933594 103.398438 137.398438 L 101.800781 149.601562 L 98.800781 161.398438 C 93.734375 157 88.867188 150.265625 84.199219 141.199219 L 73.800781 118 L 9.800781 153 L 44.800781 101.199219 L 0 94.199219 L 48.398438 80.398438 L 23 48.800781 "/>
</g>
</svg>
