<?xml version="1.0" encoding="UTF-8"?>
<svg xmlns="http://www.w3.org/2000/svg" xmlns:xlink="http://www.w3.org/1999/xlink" width="312pt" height="204pt" viewBox="0 0 312 204" version="1.1">
<g id="surface1">
<path style=" stroke:none;fill-rule:nonzero;fill:rgb(100%,94.509804%,0%);fill-opacity:1;" d="M 51.398438 111.800781 L 70 65 C 75.601562 80.601562 79.066406 99.066406 80.398438 120.398438 C 86.535156 114.265625 92.464844 109.199219 98.199219 105.199219 L 107 98.398438 L 116.199219 92.199219 C 115.667969 97.535156 113.535156 104.199219 109.800781 112.199219 L 99.398438 132 L 152.800781 141 L 102.199219 156.800781 L 118.800781 183.199219 L 86.800781 168.398438 L 78 201 L 64.199219 171.601562 L 26 193.398438 L 33.199219 181 C 38.535156 172.066406 42.933594 166.066406 46.398438 163 C 40.667969 160.601562 33.066406 158.265625 23.601562 156 L 0 150 C 4.667969 149.199219 16.734375 144.199219 36.199219 135 L 16.601562 108.800781 L 51.398438 111.800781 "/>
<path style=" stroke:none;fill-rule:nonzero;fill:rgb(100%,94.509804%,0%);fill-opacity:1;" d="M 151.800781 49.199219 L 168.398438 51.199219 C 180.398438 53.066406 188.867188 55.132812 193.800781 57.398438 C 193.667969 50.332031 192.734375 41.066406 191 29.601562 L 186.800781 1.601562 C 189.734375 6.265625 200.535156 17 219.199219 33.800781 L 238.398438 0.601562 L 251 39.601562 L 309.601562 38.199219 C 295.464844 51.265625 277.265625 63.398438 255 74.601562 C 264.199219 78.199219 272.332031 82.265625 279.398438 86.800781 L 290.800781 93.199219 C 295.601562 95.867188 299.132812 98.199219 301.398438 100.199219 L 277.199219 102.398438 L 251 100.199219 L 265.800781 161.601562 L 225.601562 114.601562 L 205 144.199219 L 206.398438 103.199219 L 167.398438 108.398438 L 192.601562 80.398438 L 151.800781 49.199219 "/>
<path style=" stroke:none;fill-rule:nonzero;fill:rgb(100%,100%,100%);fill-opacity:1;" d="M 175.199219 44.601562 L 181 59.800781 C 184.734375 70.867188 186.464844 78.867188 186.199219 83.800781 C 194.332031 81.132812 204.667969 76.933594 217.199219 71.199219 C 233.734375 63.464844 243.867188 58.867188 247.601562 57.398438 C 245.199219 60.066406 240.933594 67.464844 234.800781 79.601562 L 226.199219 97 L 274.199219 101.601562 L 235.199219 126.800781 L 265.601562 176.800781 C 243.332031 169.332031 220.265625 158 196.398438 142.800781 C 196.800781 151.867188 196.066406 160.398438 194.199219 168.398438 L 192.601562 180.601562 L 189.601562 192.398438 C 184.535156 188 179.667969 181.265625 175 172.199219 L 164.601562 149 L 100.601562 184 L 135.601562 132.199219 L 90.800781 125.199219 L 139.199219 111.398438 L 113.800781 79.800781 L 158.800781 91.199219 L 175.199219 44.601562 "/>
<path style=" stroke:none;fill-rule:nonzero;fill:rgb(100%,100%,100%);fill-opacity:1;" d="M 21.601562 61.800781 L 58.800781 51.199219 L 39.398438 27 L 73.800781 35.601562 L 86.199219 0 L 90.601562 11.601562 C 93.535156 20 94.933594 26.132812 94.800781 30 C 105.464844 26.535156 121.132812 19.800781 141.800781 9.800781 C 139.933594 11.800781 136.601562 17.464844 131.800781 26.800781 L 125.398438 40.199219 L 162.199219 43.601562 L 132.398438 63 L 155.601562 101.398438 C 138.265625 95.535156 120.601562 86.800781 102.601562 75.199219 C 102.867188 82.265625 102.332031 88.800781 101 94.800781 L 99.601562 104.199219 C 99.066406 108.066406 98.265625 111.066406 97.199219 113.199219 C 93.332031 109.867188 89.667969 104.734375 86.199219 97.800781 L 78.199219 80 L 29.199219 106.800781 L 56 67.199219 L 21.601562 61.800781 "/>
</g>
</svg>
