<?xml version="1.0" encoding="UTF-8"?>
<svg xmlns="http://www.w3.org/2000/svg" xmlns:xlink="http://www.w3.org/1999/xlink" width="120pt" height="696pt" viewBox="0 0 120 696" version="1.1">
<g id="surface1">
<path style=" stroke:none;fill-rule:nonzero;fill:rgb(0%,0%,0%);fill-opacity:1;" d="M 116.398438 7.398438 L 116.398438 687.601562 C 116.398438 689.734375 115.667969 691.464844 114.199219 692.800781 C 112.734375 694.265625 111 695 109 695 L 7.398438 695 C 5.265625 695 3.535156 694.265625 2.199219 692.800781 C 0.734375 691.464844 0 689.734375 0 687.601562 L 0 7.398438 C 0 5.398438 0.734375 3.667969 2.199219 2.199219 C 3.535156 0.734375 5.265625 0 7.398438 0 L 109 0 C 111 0 112.734375 0.734375 114.199219 2.199219 C 115.667969 3.667969 116.398438 5.398438 116.398438 7.398438 "/>
<path style=" stroke:none;fill-rule:nonzero;fill:rgb(100%,100%,100%);fill-opacity:1;" d="M 109 7.398438 L 109 687.601562 L 7.398438 687.601562 L 7.398438 7.398438 L 109 7.398438 "/>
<path style=" stroke:none;fill-rule:nonzero;fill:rgb(100%,100%,100%);fill-opacity:1;" d="M 17.199219 15.199219 L 99.199219 15.199219 C 100.398438 15.199219 101 15.867188 101 17.199219 L 101 677.800781 L 99.199219 679.800781 L 17.199219 679.800781 C 15.867188 679.800781 15.199219 679.132812 15.199219 677.800781 L 15.199219 17.199219 C 15.199219 15.867188 15.867188 15.199219 17.199219 15.199219 "/>
<path style="fill:none;stroke-width:1;stroke-linecap:butt;stroke-linejoin:miter;stroke:rgb(0%,0%,0%);stroke-opacity:1;stroke-miterlimit:4;" d="M 37.399803 78.249802 L 57.899803 78.249802 C 58.199608 78.249802 58.349998 78.416794 58.349998 78.749802 L 58.349998 243.900192 L 57.899803 244.400192 L 37.399803 244.400192 C 37.066795 244.400192 36.899803 244.2332 36.899803 243.900192 L 36.899803 78.749802 C 36.899803 78.416794 37.066795 78.249802 37.399803 78.249802 Z M 37.399803 78.249802 " transform="matrix(4,0,0,4,-132.399994,-297.799988)"/>
</g>
</svg>
