<?xml version="1.0" encoding="utf-8"?>
<svg version="1.1" id="Layer_1"
xmlns="http://www.w3.org/2000/svg"
xmlns:xlink="http://www.w3.org/1999/xlink"
xmlns:author="http://www.sothink.com"
width="209px" height="289px"
xml:space="preserve">
<g id="251" transform="matrix(1, 0, 0, 1, 110.1, 138.05)">
<path style="fill:#FFFFFF;fill-opacity:1" d="M48.4,-135.25Q95.15 -130.3 97.3 -117.95L49.55 -117.95L4.75 -132.35Q14.25 -138.85 48.4 -135.25" />
<path style="fill:none;stroke-width:3;stroke-linecap:round;stroke-linejoin:round;stroke-miterlimit:3;stroke:#000000;stroke-opacity:1" d="M48.4,-135.25Q95.15 -130.3 97.3 -117.95L49.55 -117.95L4.75 -132.35Q14.25 -138.85 48.4 -135.25z" />
<path style="fill:#FFFFFF;fill-opacity:1" d="M-6.1,-87.65Q-4.8 -105.45 7.7 -117.95L88.05 -112.05Q94 -98.85 94.65 -88.3Q95.3 -77.7 94 -64.55Q92.25 -47 87.4 -34.3Q79.6 -13.55 83.45 9.8L85.2 20.5L89.4 38.6Q93.35 53.45 87.4 75Q83.15 90.55 62.3 99.6Q55.3 102.6 47.3 104.5L38.7 105.95Q13.25 107.55 -4.45 117.15Q-30.15 134.95 -64.05 146.8Q-95.85 154.7 -106.2 129.65Q-115 108.2 -91.65 87.1Q-83.55 79.85 -69.85 71.05L-48.9 57.9Q-32.85 47.2 -24.4 31.95Q-18.35 21.15 -14.65 4.55Q-12.2 -6.65 -9.4 -41.55L-6.1 -87.65" />
<path style="fill:none;stroke-width:3;stroke-linecap:round;stroke-linejoin:round;stroke-miterlimit:3;stroke:#000000;stroke-opacity:1" d="M-9.4,-41.55Q-12.2 -6.65 -14.65 4.55Q-18.35 21.15 -24.4 31.95Q-32.85 47.2 -48.9 57.9L-69.85 71.05Q-83.55 79.85 -91.65 87.1Q-115 108.2 -106.2 129.65Q-95.85 154.7 -64.05 146.8Q-30.15 134.95 -4.45 117.15Q13.25 107.55 38.7 105.95L47.3 104.5Q55.3 102.6 62.3 99.6Q83.15 90.55 87.4 75Q93.35 53.45 89.4 38.6L85.2 20.5L83.45 9.8Q79.6 -13.55 87.4 -34.3Q92.25 -47 94 -64.55Q95.3 -77.7 94.65 -88.3Q94 -98.85 88.05 -112.05L7.7 -117.95Q-4.8 -105.45 -6.1 -87.65L-9.4 -41.55z" />
<path style="fill:#FFFFFF;fill-opacity:1" d="M75,-104.45Q60.5 -103.65 45.9 -105.6Q38.25 -106.6 19.75 -111.05Q7.55 -113.7 4.1 -115.75Q-1.1 -118.8 0.15 -125.55Q2.8 -140 17.25 -133.1Q33.1 -126.05 57.6 -124.4Q65.6 -123.9 76.05 -123.9L90.05 -123.9Q94 -123.8 95.9 -121.1Q97.6 -118.7 97.35 -115.15Q97.05 -111.8 95.25 -109.15Q93.15 -106.35 90.4 -106.1L75 -104.45" />
<path style="fill:none;stroke-width:3;stroke-linecap:round;stroke-linejoin:round;stroke-miterlimit:3;stroke:#000000;stroke-opacity:1" d="M90.4,-106.1Q93.15 -106.35 95.25 -109.15Q97.05 -111.8 97.35 -115.15Q97.6 -118.7 95.9 -121.1Q94 -123.8 90.05 -123.9L76.05 -123.9Q65.6 -123.9 57.6 -124.4Q33.1 -126.05 17.25 -133.1Q2.8 -140 0.15 -125.55Q-1.1 -118.8 4.1 -115.75Q7.55 -113.7 19.75 -111.05Q38.25 -106.6 45.9 -105.6Q60.5 -103.65 75 -104.45L90.4 -106.1z" />
<path style="fill:#FFFFFF;fill-opacity:1" d="M-82.85,80.75L-45.3 139.4Q-75.6 123.6 -82.85 80.75" />
<path style="fill:none;stroke-width:3;stroke-linecap:round;stroke-linejoin:round;stroke-miterlimit:3;stroke:#000000;stroke-opacity:1" d="M-45.3,139.4Q-75.6 123.6 -82.85 80.75" />
<path style="fill:#FFFFFF;fill-opacity:1" d="M41.95,105.8Q48.9 58.4 38 41.6Q51.85 40.6 85.45 25.8L41.95 105.8" />
<path style="fill:none;stroke-width:3;stroke-linecap:round;stroke-linejoin:round;stroke-miterlimit:3;stroke:#000000;stroke-opacity:1" d="M41.95,105.8Q48.9 58.4 38 41.6Q51.85 40.6 85.45 25.8" />
<path style="fill:none;stroke-width:2;stroke-linecap:round;stroke-linejoin:round;stroke-miterlimit:3;stroke:#000000;stroke-opacity:1" d="M14,-133.45Q4.6 -128 7.4 -114.85" />
<path style="fill:none;stroke-width:2;stroke-linecap:round;stroke-linejoin:round;stroke-miterlimit:3;stroke:#000000;stroke-opacity:1" d="M20.4,-131.3Q11.35 -121 15.45 -112.35" />
<path style="fill:none;stroke-width:2;stroke-linecap:round;stroke-linejoin:round;stroke-miterlimit:3;stroke:#000000;stroke-opacity:1" d="M27.4,-128.8Q20 -119.75 22.85 -110.3" />
<path style="fill:none;stroke-width:2;stroke-linecap:round;stroke-linejoin:round;stroke-miterlimit:3;stroke:#000000;stroke-opacity:1" d="M34,-126.35Q27.4 -115.25 30.7 -108.25" />
<path style="fill:none;stroke-width:2;stroke-linecap:round;stroke-linejoin:round;stroke-miterlimit:3;stroke:#000000;stroke-opacity:1" d="M41.4,-124.7Q36.85 -114 37.7 -107.85" />
<path style="fill:none;stroke-width:2;stroke-linecap:round;stroke-linejoin:round;stroke-miterlimit:3;stroke:#000000;stroke-opacity:1" d="M49.6,-123.05L45.9 -105.6" />
<path style="fill:none;stroke-width:2;stroke-linecap:round;stroke-linejoin:round;stroke-miterlimit:3;stroke:#000000;stroke-opacity:1" d="M58.7,-123.45Q58.25 -107.85 55.4 -103.7" />
<path style="fill:none;stroke-width:2;stroke-linecap:round;stroke-linejoin:round;stroke-miterlimit:3;stroke:#000000;stroke-opacity:1" d="M66.9,-123.05Q68.15 -109.5 63.2 -104.15" />
<path style="fill:none;stroke-width:2;stroke-linecap:round;stroke-linejoin:round;stroke-miterlimit:3;stroke:#000000;stroke-opacity:1" d="M75.55,-122.65Q78.45 -113.2 73.5 -103.3" />
<path style="fill:none;stroke-width:2;stroke-linecap:round;stroke-linejoin:round;stroke-miterlimit:3;stroke:#000000;stroke-opacity:1" d="M84.2,-122.65Q87.1 -111.55 81.75 -104.55" />
<path style="fill:#FFFFFF;fill-opacity:1" d="M49.8,48.15Q72.25 44.4 88.15 35L50.3 104.75Q56.4 66.85 49.8 48.15" />
<path style="fill:none;stroke-width:2;stroke-linecap:round;stroke-linejoin:round;stroke-miterlimit:3;stroke:#000000;stroke-opacity:1" d="M53.15,67.1L53.25 73.75M52,57L52.9 63.75M50.95,48L49.8 48.15L51.35 53.6M60.75,45.85L54.25 47.35M51.45,97.15L50.45 103.9M52.5,87.2L51.75 93.8M53.15,77.15L52.85 83.8M79.45,39.55L73.35 42M88.15,35L82.4 38.15M70.2,43.15L64.05 45.05" />
<path style="fill:none;stroke-width:2;stroke-linecap:round;stroke-linejoin:round;stroke-miterlimit:3;stroke:#000000;stroke-opacity:1" d="M-88.7,88.6L-89.25 84M-86.8,98.45L-88.2 91.9M-83.8,107.85L-85.95 101.6M-79.6,116.65L-82.6 110.8M-74.1,124.75L-77.9 119.45M-59.95,138L-65.15 134.05M-51.65,142.85L-57.25 139.7M-67.5,131.9L-72.05 127.2" />
</g>
</svg>
