<?xml version="1.0" encoding="utf-8"?>
<svg version="1.1" id="Layer_1"
xmlns="http://www.w3.org/2000/svg"
xmlns:xlink="http://www.w3.org/1999/xlink"
xmlns:author="http://www.sothink.com"
width="228px" height="212px"
xml:space="preserve">
<g id="246" transform="matrix(1, 0, 0, 1, 115.35, 105.9)">
<path style="fill:#52FF01;fill-opacity:1" d="M111.4,43.15Q90.1 55.85 89.4 87.85L79.4 88.5Q84.1 44.5 111.4 43.15" />
<path style="fill:none;stroke-width:2;stroke-linecap:round;stroke-linejoin:round;stroke-miterlimit:3;stroke:#000000;stroke-opacity:1" d="M89.4,87.85Q90.1 55.85 111.4 43.15Q84.1 44.5 79.4 88.5" />
<path style="fill:#52FF01;fill-opacity:1" d="M80.75,89.85Q91.4 63.85 106.1 64.5Q92.75 77.15 90.1 89.85L80.75 89.85" />
<path style="fill:none;stroke-width:2;stroke-linecap:round;stroke-linejoin:round;stroke-miterlimit:3;stroke:#000000;stroke-opacity:1" d="M90.1,89.85Q92.75 77.15 106.1 64.5Q91.4 63.85 80.75 89.85" />
<path style="fill:#666666;fill-opacity:1" d="M14.3,-74.15Q20.2 -66.7 24.75 -63.85Q34.6 -57.7 42.5 -54.1L56.75 -47.85Q77.7 -37.9 86.4 -14.1Q99.55 22.05 83.75 87.15Q-34.25 114.15 -69.25 91.15Q-99.25 47.15 -108.25 7.15Q-111.9 -8.95 -111.25 -17.45Q-110.1 -33.05 -97.25 -37.85Q-81.25 -43.85 -80.25 -66.85Q-80.25 -100.85 -40.25 -101.85Q-24.35 -102.2 -12.95 -97.75Q-3.8 -94.15 3.5 -86.95Q6.5 -84 14.3 -74.15" />
<path style="fill:none;stroke-width:8;stroke-linecap:round;stroke-linejoin:round;stroke-miterlimit:3;stroke:#000000;stroke-opacity:1" d="M3.5,-86.95Q-3.8 -94.15 -12.95 -97.75Q-24.35 -102.2 -40.25 -101.85Q-80.25 -100.85 -80.25 -66.85Q-81.25 -43.85 -97.25 -37.85Q-110.1 -33.05 -111.25 -17.45Q-111.9 -8.95 -108.25 7.15Q-99.25 47.15 -69.25 91.15Q-34.25 114.15 83.75 87.15Q99.55 22.05 86.4 -14.1Q77.7 -37.9 56.75 -47.85L42.5 -54.1Q34.6 -57.7 24.75 -63.85Q20.2 -66.7 14.3 -74.15Q6.5 -84 3.5 -86.95z" />
<path style="fill:#52FF01;fill-opacity:1" d="M-76.6,99.15Q-81.25 89.15 -101.9 87.15Q-88.6 76.5 -72.6 89.85L-66.6 98.5L-76.6 99.15" />
<path style="fill:none;stroke-width:2;stroke-linecap:round;stroke-linejoin:round;stroke-miterlimit:3;stroke:#000000;stroke-opacity:1" d="M-66.6,98.5L-72.6 89.85Q-88.6 76.5 -101.9 87.15Q-81.25 89.15 -76.6 99.15" />
<path style="fill:none;stroke-width:4;stroke-linecap:round;stroke-linejoin:round;stroke-miterlimit:3;stroke:#000000;stroke-opacity:1" d="M-71.9,38.5Q-67.25 87.85 -33.25 99.85" />
<path style="fill:none;stroke-width:4;stroke-linecap:round;stroke-linejoin:round;stroke-miterlimit:3;stroke:#000000;stroke-opacity:1" d="M-79.25,53.15Q-70.6 89.85 -45.25 95.85" />
<path style="fill:#52FF01;fill-opacity:1" d="M-35.25,51.15Q-61.9 79.85 -55.9 101.85L-68.6 85.85Q-65.9 61.15 -35.25 51.15" />
<path style="fill:none;stroke-width:2;stroke-linecap:round;stroke-linejoin:round;stroke-miterlimit:3;stroke:#000000;stroke-opacity:1" d="M-55.9,101.85Q-61.9 79.85 -35.25 51.15Q-65.9 61.15 -68.6 85.85" />
<path style="fill:#52FF01;fill-opacity:1" d="M-94.6,64.5Q-63.9 75.85 -55.9 101.85L-69.25 101.15Q-78.6 81.15 -94.6 64.5" />
<path style="fill:none;stroke-width:2;stroke-linecap:round;stroke-linejoin:round;stroke-miterlimit:3;stroke:#000000;stroke-opacity:1" d="M-55.9,101.85Q-63.9 75.85 -94.6 64.5Q-78.6 81.15 -69.25 101.15" />
<path style="fill:none;stroke-width:4;stroke-linecap:round;stroke-linejoin:round;stroke-miterlimit:3;stroke:#000000;stroke-opacity:1" d="M29.75,-41.15Q70.4 -20.5 64.75 9.15" />
<path style="fill:none;stroke-width:8;stroke-linecap:round;stroke-linejoin:round;stroke-miterlimit:3;stroke:#000000;stroke-opacity:1" d="M6.1,-38.15Q27.15 -26.35 42.75 -19.5Q64.1 -10.15 66.75 24.5Q70.75 79.15 51.4 92.5" />
<path style="fill:none;stroke-width:4;stroke-linecap:round;stroke-linejoin:round;stroke-miterlimit:3;stroke:#000000;stroke-opacity:1" d="M-39.25,-91.5Q-14.6 -92.15 -5.9 -74.85" />
<path style="fill:none;stroke-width:5;stroke-linecap:round;stroke-linejoin:round;stroke-miterlimit:3;stroke:#000000;stroke-opacity:1" d="M15.75,-1.15Q23.75 32.15 23.75 48.15Q23.75 64.15 15.1 82.15" />
<path style="fill:none;stroke-width:6;stroke-linecap:round;stroke-linejoin:round;stroke-miterlimit:3;stroke:#000000;stroke-opacity:1" d="M-78.6,-48.85Q-91.9 -43.5 -96.6 -32.15Q-104.45 -13.05 -88.6 0.5" />
<path style="fill:none;stroke-width:6;stroke-linecap:round;stroke-linejoin:round;stroke-miterlimit:3;stroke:#000000;stroke-opacity:1" d="M-20.6,-55.5Q8.1 -49.5 6.75 -30.85" />
<path style="fill:none;stroke-width:4;stroke-linecap:round;stroke-linejoin:round;stroke-miterlimit:3;stroke:#000000;stroke-opacity:1" d="M90.75,46.5Q81.4 75.85 61.4 91.15" />
<path style="fill:none;stroke-width:6;stroke-linecap:round;stroke-linejoin:round;stroke-miterlimit:3;stroke:#000000;stroke-opacity:1" d="M6.4,53.5Q4.4 70.85 -0.9 80.15Q-6.25 89.5 -16.25 100.85" />
<path style="fill:#52FF01;fill-opacity:1" d="M19.4,101.85Q18.1 83.85 6.75 77.85Q16.1 76.5 24.1 90.5Q26.75 74.5 46.75 72.5Q29.4 87.15 30.75 101.85L19.4 101.85" />
<path style="fill:none;stroke-width:2;stroke-linecap:round;stroke-linejoin:round;stroke-miterlimit:3;stroke:#000000;stroke-opacity:1" d="M30.75,101.85Q29.4 87.15 46.75 72.5Q26.75 74.5 24.1 90.5Q16.1 76.5 6.75 77.85Q18.1 83.85 19.4 101.85" />
<path style="fill:none;stroke-width:3;stroke-linecap:round;stroke-linejoin:round;stroke-miterlimit:3;stroke:#000000;stroke-opacity:1" d="M74.4,-7.15Q86.4 31.5 78.4 56.85" />
<path style="fill:none;stroke-width:3;stroke-linecap:round;stroke-linejoin:round;stroke-miterlimit:3;stroke:#000000;stroke-opacity:1" d="M73.1,32.15Q74.4 69.5 65.75 87.5" />
<path style="fill:none;stroke-width:3;stroke-linecap:round;stroke-linejoin:round;stroke-miterlimit:3;stroke:#000000;stroke-opacity:1" d="M51.1,-38.5Q63.75 -29.85 71.75 -25.15Q77.3 -21.9 82.75 -13.75Q87.5 -6.65 89.75 0.15" />
<path style="fill:none;stroke-width:3;stroke-linecap:round;stroke-linejoin:round;stroke-miterlimit:3;stroke:#000000;stroke-opacity:1" d="M83.1,-1.15Q93.1 32.85 83.75 64.15" />
</g>
</svg>
