<?xml version="1.0" encoding="utf-8"?>
<svg version="1.1" id="Layer_1"
xmlns="http://www.w3.org/2000/svg"
xmlns:xlink="http://www.w3.org/1999/xlink"
xmlns:author="http://www.sothink.com"
width="471px" height="118px"
xml:space="preserve">
<g id="262" transform="matrix(1, 0, 0, 1, 193.95, 57.35)">
<path style="fill:#FFFFFF;fill-opacity:1" d="M-21,-50.95Q49.4 -50.95 99.15 -35.1Q148.95 -19.3 148.95 3.05Q148.95 25.4 99.15 41.25Q49.4 57.05 -21 57.05Q-91.4 57.05 -141.2 41.25Q-190.95 25.4 -190.95 3.05Q-190.95 -19.3 -141.2 -35.1Q-91.4 -50.95 -21 -50.95" />
<path style="fill:none;stroke-width:6;stroke-linecap:round;stroke-linejoin:round;stroke-miterlimit:3;stroke:#000000;stroke-opacity:1" d="M-141.2,-35.1Q-190.95 -19.3 -190.95 3.05Q-190.95 25.4 -141.2 41.25Q-91.4 57.05 -21 57.05Q49.4 57.05 99.15 41.25Q148.95 25.4 148.95 3.05Q148.95 -19.3 99.15 -35.1Q49.4 -50.95 -21 -50.95Q-91.4 -50.95 -141.2 -35.1z" />
<path style="fill:#FFFFFF;fill-opacity:1" d="M247.15,-40.45Q246 -39.2 243.75 -39.2L204.2 -39L193.05 -39Q184.6 -37.9 176.25 -35.6L173.75 -35Q173.35 -33.65 172.25 -32.5L171.75 -32.05L169.55 -31.65L154.2 -29.6Q148.6 -25.05 142.2 -22.15Q141.75 -21.4 141.1 -20.8Q130.9 -13.4 117.75 -14.75Q116.85 -14.8 116.2 -15.8Q114.3 -18.6 114.55 -20.85L113.6 -21.15Q109.2 -19.45 105.05 -17.1Q103 -15.95 100.3 -16.6Q99.05 -16.85 98.35 -18.15Q94.9 -24.35 100.65 -29.15L103.15 -31.55L103.95 -32.35L104.55 -32.5L108 -33.75L109.85 -34.1L110.8 -34.85Q119.65 -38.55 129.15 -40.4Q129.8 -41.5 130.8 -42.35L148.35 -49.45Q149.65 -50 150.95 -50Q165.4 -49.85 179.55 -51.95L180.5 -52.5Q185.25 -53.75 188.35 -51.2L188.5 -51.05L189.3 -51.25Q195.35 -52.6 201.55 -52.95L201.75 -53.15Q205.15 -53.2 207.1 -52.1L225.5 -51.35L238.5 -50.4Q242.1 -50.1 244.35 -47.85Q246.65 -47.65 247.6 -46.35Q248.45 -45.1 248.1 -42.85Q247.9 -41.35 247.15 -40.45" />
<path style="fill:none;stroke-width:6;stroke-linecap:round;stroke-linejoin:round;stroke-miterlimit:3;stroke:#000000;stroke-opacity:1" d="M225.5,-51.35Q183.8 -58.55 143.35 -48.6Q123.5 -43.7 106.4 -35.2Q101.05 -32.55 96.55 -29.8L93.2 -27.65M225.5,-51.35Q233.5 -49.95 241.55 -47.95L245.15 -47L247.6 -46.35Q260.3 -42.8 273.15 -37.65Q261.1 -39.85 247.15 -40.45L244.15 -40.6L235.55 -40.75L222.1 -40.45L204.2 -39Q187 -37 172.25 -32.5L169.55 -31.65Q147.2 -24.45 130.7 -11.4" />
</g>
</svg>
