<?xml version="1.0" encoding="utf-8"?>
<svg version="1.1" id="Layer_1"
xmlns="http://www.w3.org/2000/svg"
xmlns:xlink="http://www.w3.org/1999/xlink"
xmlns:author="http://www.sothink.com"
width="321px" height="272px"
xml:space="preserve">
<g id="272" transform="matrix(1, 0, 0, 1, 352.95, 140.05)">
<path style="fill:#66FFFF;fill-opacity:1" d="M-352.95,-140.05L-34 -140.05L-34 -51.5L-352.95 -51.5L-352.95 -140.05M-34,-51.5L-34 21.75Q-32.95 22.6 -32.9 23.6Q-32.95 26.65 -43.2 28.8Q-53.45 31 -67.95 31Q-82.45 31 -92.75 28.8Q-103 26.65 -102.95 23.6L-102.95 23.5L-103.5 23.5L-103.5 62.5L-120.95 62.5L-120.95 131.05L-352.95 131.05L-352.95 54.05L-132.5 54.05L-132.5 54L-352.95 54L-352.95 -51.5L-34 -51.5" />
</g>
</svg>
