<?xml version="1.0" encoding="utf-8"?>
<svg version="1.1" id="Layer_1"
xmlns="http://www.w3.org/2000/svg"
xmlns:xlink="http://www.w3.org/1999/xlink"
xmlns:author="http://www.sothink.com"
width="333px" height="333px"
xml:space="preserve">
<g id="115" transform="matrix(1, 0, 0, 1, 166.05, 166.05)">
<path style="fill:#CCFFFF;fill-opacity:1" d="M-164.05,-164.05L163.9 -164.05L163.9 163.9L-164.05 163.9L-164.05 -164.05" />
<path style="fill:none;stroke-width:4;stroke-linecap:round;stroke-linejoin:round;stroke-miterlimit:3;stroke:#000000;stroke-opacity:1" d="M-164.05,163.9L163.9 163.9L163.9 -164.05L-164.05 -164.05L-164.05 163.9z" />
<path style="fill:#FFBFBF;fill-opacity:1" d="M-133.7,-89.25Q-137.15 -68.6 -137.55 -45.25L-142.05 -45.95Q-142.7 -65.95 -138.85 -89.95L-133.7 -89.25" />
<path style="fill:none;stroke-width:2;stroke-linecap:round;stroke-linejoin:round;stroke-miterlimit:3;stroke:#8D7B32;stroke-opacity:1" d="M-138.85,-89.95Q-142.7 -65.95 -142.05 -45.95L-137.55 -45.25Q-137.15 -68.6 -133.7 -89.25L-138.85 -89.95z" />
<path style="fill:#FFDFBF;fill-opacity:1" d="M-130.4,-92.95Q-130.4 -90.3 -132.25 -88.45Q-134.1 -86.6 -136.7 -86.6Q-139.3 -86.6 -141.2 -88.45Q-143.05 -90.3 -143.05 -92.95Q-143.05 -95.55 -141.2 -97.4Q-139.3 -99.25 -136.7 -99.25Q-134.1 -99.25 -132.25 -97.4Q-130.4 -95.55 -130.4 -92.95" />
<path style="fill:none;stroke-width:2;stroke-linecap:round;stroke-linejoin:round;stroke-miterlimit:3;stroke:#8D7B32;stroke-opacity:1" d="M-130.4,-92.95Q-130.4 -90.3 -132.25 -88.45Q-134.1 -86.6 -136.7 -86.6Q-139.3 -86.6 -141.2 -88.45Q-143.05 -90.3 -143.05 -92.95Q-143.05 -95.55 -141.2 -97.4Q-139.3 -99.25 -136.7 -99.25Q-134.1 -99.25 -132.25 -97.4Q-130.4 -95.55 -130.4 -92.95z" />
<path style="fill:#FFBF7F;fill-opacity:1" d="M-139.25,-62.35Q-134.4 -83.35 -135.05 -88.95Q-114.4 -80.95 -91.7 -78.95Q-118.4 -77.6 -138.4 -58.95Q-141.15 -52.1 -141.05 -53.65Q-141.05 -54.6 -139.25 -62.35" />
<path style="fill:none;stroke-width:3;stroke-linecap:round;stroke-linejoin:round;stroke-miterlimit:3;stroke:#8D7B32;stroke-opacity:1" d="M-139.25,-62.35Q-134.4 -83.35 -135.05 -88.95Q-114.4 -80.95 -91.7 -78.95Q-118.4 -77.6 -138.4 -58.95Q-141.15 -52.1 -141.05 -53.65Q-141.05 -54.6 -139.25 -62.35z" />
<path style="fill:#FFFFFF;fill-opacity:1" d="M70.3,-108.95L110.3 -103.6Q116.3 -104.25 114.3 -94.25L112.3 -80.25L42.3 -85.6Q49.6 -98.25 55.6 -104.25Q61.6 -110.25 70.3 -108.95" />
<path style="fill:none;stroke-width:4;stroke-linecap:round;stroke-linejoin:round;stroke-miterlimit:3;stroke:#007FFF;stroke-opacity:1" d="M70.3,-108.95L110.3 -103.6Q116.3 -104.25 114.3 -94.25L112.3 -80.25L42.3 -85.6Q49.6 -98.25 55.6 -104.25Q61.6 -110.25 70.3 -108.95z" />
<path style="fill:#66CCFF;fill-opacity:1" d="M122.95,-68.6L119.95 -31.6L-67.05 -38.6Q-44.4 -79.6 -32.4 -87.6Q-20.4 -95.6 0.95 -93.6Q54.95 -90.6 113.95 -84.6Q123.95 -81.6 122.95 -68.6" />
<path style="fill:none;stroke-width:4;stroke-linecap:round;stroke-linejoin:round;stroke-miterlimit:3;stroke:#007FFF;stroke-opacity:1" d="M122.95,-68.6L119.95 -31.6L-67.05 -38.6Q-44.4 -79.6 -32.4 -87.6Q-20.4 -95.6 0.95 -93.6Q54.95 -90.6 113.95 -84.6Q123.95 -81.6 122.95 -68.6z" />
<path style="fill:#FFDFBF;fill-opacity:1" d="M-28.05,150.4Q-113.05 119.4 -142.05 -48.6L134.95 -38.6Q147.95 136.4 113.95 146.4Q15.05 175 -28.05 150.4" />
<path style="fill:none;stroke-width:6;stroke-linecap:round;stroke-linejoin:round;stroke-miterlimit:3;stroke:#8D7B32;stroke-opacity:1" d="M113.95,146.4Q147.95 136.4 134.95 -38.6L-142.05 -48.6Q-113.05 119.4 -28.05 150.4Q15.05 175 113.95 146.4z" />
<path style="fill:#FFFFE3;fill-opacity:1" d="M-27.05,155.4Q-46.3 148.4 -64.6 128.8Q-80.85 111.4 -95.55 85Q-108.55 61.65 -119 33.65Q-128.45 8.5 -134.05 -15.6L135.95 -14.6Q137.5 43.1 134.05 83.1Q129 141.95 113.95 146.4L-27.05 155.4" />
<path style="fill:none;stroke-width:4;stroke-linecap:round;stroke-linejoin:round;stroke-miterlimit:3;stroke:#FFBF7F;stroke-opacity:1" d="M-27.05,155.4Q-46.3 148.4 -64.6 128.8Q-80.85 111.4 -95.55 85Q-108.55 61.65 -119 33.65Q-128.45 8.5 -134.05 -15.6L135.95 -14.6Q137.5 43.1 134.05 83.1Q129 141.95 113.95 146.4" />
<path style="fill:#FFFFFF;fill-opacity:1" d="M110.9,-72.55Q113.8 -69.7 113.8 -65.6Q113.8 -61.5 110.9 -58.65Q108.05 -55.75 103.95 -55.75Q99.9 -55.75 97 -58.65Q94.1 -61.5 94.1 -65.6Q94.1 -69.7 97 -72.55Q99.9 -75.45 103.95 -75.45Q108.05 -75.45 110.9 -72.55" />
<path style="fill:none;stroke-width:3;stroke-linecap:round;stroke-linejoin:round;stroke-miterlimit:3;stroke:#409FFF;stroke-opacity:1" d="M110.9,-72.55Q113.8 -69.7 113.8 -65.6Q113.8 -61.5 110.9 -58.65Q108.05 -55.75 103.95 -55.75Q99.9 -55.75 97 -58.65Q94.1 -61.5 94.1 -65.6Q94.1 -69.7 97 -72.55Q99.9 -75.45 103.95 -75.45Q108.05 -75.45 110.9 -72.55z" />
<path style="fill:none;stroke-width:6;stroke-linecap:round;stroke-linejoin:round;stroke-miterlimit:3;stroke:#8D7B32;stroke-opacity:1" d="M113.95,146.4Q147.95 136.4 134.95 -38.6L-142.05 -48.6Q-113.05 119.4 -28.05 150.4Q15.05 175 113.95 146.4z" />
<path style="fill:#FFFFFF;fill-opacity:1" d="M84.8,-68.6Q84.8 -64.5 81.9 -61.65Q79.05 -58.75 74.95 -58.75Q70.9 -58.75 68 -61.65Q65.1 -64.5 65.1 -68.6Q65.1 -72.7 68 -75.55Q70.9 -78.45 74.95 -78.45Q79.05 -78.45 81.9 -75.55Q84.8 -72.7 84.8 -68.6" />
<path style="fill:none;stroke-width:3;stroke-linecap:round;stroke-linejoin:round;stroke-miterlimit:3;stroke:#409FFF;stroke-opacity:1" d="M84.8,-68.6Q84.8 -64.5 81.9 -61.65Q79.05 -58.75 74.95 -58.75Q70.9 -58.75 68 -61.65Q65.1 -64.5 65.1 -68.6Q65.1 -72.7 68 -75.55Q70.9 -78.45 74.95 -78.45Q79.05 -78.45 81.9 -75.55Q84.8 -72.7 84.8 -68.6z" />
<path style="fill:#FFFFFF;fill-opacity:1" d="M54.8,-70.6Q54.8 -66.5 51.9 -63.65Q49.05 -60.75 44.95 -60.75Q40.9 -60.75 38 -63.65Q35.1 -66.5 35.1 -70.6Q35.1 -74.7 38 -77.55Q40.9 -80.45 44.95 -80.45Q49.05 -80.45 51.9 -77.55Q54.8 -74.7 54.8 -70.6" />
<path style="fill:none;stroke-width:3;stroke-linecap:round;stroke-linejoin:round;stroke-miterlimit:3;stroke:#409FFF;stroke-opacity:1" d="M54.8,-70.6Q54.8 -66.5 51.9 -63.65Q49.05 -60.75 44.95 -60.75Q40.9 -60.75 38 -63.65Q35.1 -66.5 35.1 -70.6Q35.1 -74.7 38 -77.55Q40.9 -80.45 44.95 -80.45Q49.05 -80.45 51.9 -77.55Q54.8 -74.7 54.8 -70.6z" />
<path style="fill:#FFFFFF;fill-opacity:1" d="M6,-79.55Q8.9 -82.45 12.95 -82.45Q17.05 -82.45 19.9 -79.55Q22.8 -76.7 22.8 -72.6Q22.8 -68.5 19.9 -65.65Q17.05 -62.75 12.95 -62.75Q8.9 -62.75 6 -65.65Q3.1 -68.5 3.1 -72.6Q3.1 -76.7 6 -79.55" />
<path style="fill:none;stroke-width:3;stroke-linecap:round;stroke-linejoin:round;stroke-miterlimit:3;stroke:#409FFF;stroke-opacity:1" d="M6,-79.55Q8.9 -82.45 12.95 -82.45Q17.05 -82.45 19.9 -79.55Q22.8 -76.7 22.8 -72.6Q22.8 -68.5 19.9 -65.65Q17.05 -62.75 12.95 -62.75Q8.9 -62.75 6 -65.65Q3.1 -68.5 3.1 -72.6Q3.1 -76.7 6 -79.55z" />
<path style="fill:#FFFFFF;fill-opacity:1" d="M-8.2,-73.6Q-8.2 -69.5 -11.1 -66.65Q-13.95 -63.75 -18.05 -63.75Q-22.1 -63.75 -25 -66.65Q-27.9 -69.5 -27.9 -73.6Q-27.9 -77.7 -25 -80.55Q-22.1 -83.45 -18.05 -83.45Q-13.95 -83.45 -11.1 -80.55Q-8.2 -77.7 -8.2 -73.6" />
<path style="fill:none;stroke-width:3;stroke-linecap:round;stroke-linejoin:round;stroke-miterlimit:3;stroke:#409FFF;stroke-opacity:1" d="M-8.2,-73.6Q-8.2 -69.5 -11.1 -66.65Q-13.95 -63.75 -18.05 -63.75Q-22.1 -63.75 -25 -66.65Q-27.9 -69.5 -27.9 -73.6Q-27.9 -77.7 -25 -80.55Q-22.1 -83.45 -18.05 -83.45Q-13.95 -83.45 -11.1 -80.55Q-8.2 -77.7 -8.2 -73.6z" />
<path style="fill:#007FFF;fill-opacity:1" d="M124.75,50.75L149.95 52.55L149.95 163.9L-164.05 163.9L-164.05 57.1Q-142.75 54.35 -130.9 42.55Q-126.15 52.55 -100.9 54.35Q-74.9 54.35 -58.3 40.75Q-46.5 56.2 -28.35 53.45Q1.65 53.45 15.85 44.35Q22.95 50.75 49.8 50.75Q72.65 48.9 93.2 38.9Q104.2 50.75 124.75 50.75" />
<path style="fill:none;stroke-width:4;stroke-linecap:round;stroke-linejoin:round;stroke-miterlimit:3;stroke:#000000;stroke-opacity:1" d="M149.95,52.55L149.95 163.9L-164.05 163.9L-164.05 57.1Q-142.75 54.35 -130.9 42.55Q-126.15 52.55 -100.9 54.35Q-74.9 54.35 -58.3 40.75Q-46.5 56.2 -28.35 53.45Q1.65 53.45 15.85 44.35Q22.95 50.75 49.8 50.75Q72.65 48.9 93.2 38.9Q104.2 50.75 124.75 50.75" />
<path style="fill:none;stroke-width:4;stroke-linecap:round;stroke-linejoin:round;stroke-miterlimit:3;stroke:#000000;stroke-opacity:1" d="M-118.15,107.7Q-100.85 108.4 -92.85 95.7Q-86.85 107.7 -74.15 107.7Q-60.85 109.7 -53.5 97.05Q-48.85 109.7 -31.5 108.4" />
<path style="fill:none;stroke-width:4;stroke-linecap:round;stroke-linejoin:round;stroke-miterlimit:3;stroke:#000000;stroke-opacity:1" d="M-140.85,80.05Q-125.35 78.55 -119.85 69.55Q-112.85 81.05 -99.85 80.05" />
<path style="fill:none;stroke-width:4;stroke-linecap:round;stroke-linejoin:round;stroke-miterlimit:3;stroke:#000000;stroke-opacity:1" d="M-163.5,142.7Q-146.15 143.4 -138.15 130.7Q-132.15 142.7 -119.5 142.7Q-106.15 144.7 -98.85 132.05Q-94.15 144.7 -76.85 143.4" />
<path style="fill:#D36E03;fill-opacity:1" d="M164.05,164L-40.95 164L-40.95 32L164.05 32L164.05 164" />
<path style="fill:none;stroke-width:4;stroke-linecap:round;stroke-linejoin:round;stroke-miterlimit:3;stroke:#000000;stroke-opacity:1" d="M164.05,164L-40.95 164L-40.95 32L164.05 32L164.05 164z" />
<path style="fill:#666666;fill-opacity:1" d="M22.45,23.15L-24.35 23.15L-24.35 -28L22.45 -28L22.45 23.15" />
<path style="fill:none;stroke-width:3;stroke-linecap:round;stroke-linejoin:round;stroke-miterlimit:3;stroke:#000000;stroke-opacity:1" d="M22.45,23.15L-24.35 23.15L-24.35 -28L22.45 -28L22.45 23.15z" />
<path style="fill:#666666;fill-opacity:1" d="M-26.95,20.55L25.05 20.55Q27.05 20.55 28.4 21.95Q29.8 23.35 29.8 25.3Q29.8 27.3 28.4 28.7Q27.05 30.1 25.05 30.1L-26.95 30.1Q-28.95 30.1 -30.3 28.7Q-31.7 27.3 -31.7 25.3Q-31.7 23.35 -30.3 21.95Q-28.95 20.55 -26.95 20.55" />
<path style="fill:none;stroke-width:3;stroke-linecap:round;stroke-linejoin:round;stroke-miterlimit:3;stroke:#000000;stroke-opacity:1" d="M-26.95,20.55L25.05 20.55Q27.05 20.55 28.4 21.95Q29.8 23.35 29.8 25.3Q29.8 27.3 28.4 28.7Q27.05 30.1 25.05 30.1L-26.95 30.1Q-28.95 30.1 -30.3 28.7Q-31.7 27.3 -31.7 25.3Q-31.7 23.35 -30.3 21.95Q-28.95 20.55 -26.95 20.55z" />
<path style="fill:#999999;fill-opacity:1" d="M29.8,-23.2Q29.8 -21.25 28.4 -19.85Q27.05 -18.45 25.05 -18.45L-26.95 -18.45Q-28.95 -18.45 -30.3 -19.85Q-31.7 -21.25 -31.7 -23.2Q-31.7 -25.2 -30.3 -26.6Q-28.95 -28 -26.95 -28L25.05 -28Q27.05 -28 28.4 -26.6Q29.8 -25.2 29.8 -23.2" />
<path style="fill:none;stroke-width:3;stroke-linecap:round;stroke-linejoin:round;stroke-miterlimit:3;stroke:#000000;stroke-opacity:1" d="M29.8,-23.2Q29.8 -21.25 28.4 -19.85Q27.05 -18.45 25.05 -18.45L-26.95 -18.45Q-28.95 -18.45 -30.3 -19.85Q-31.7 -21.25 -31.7 -23.2Q-31.7 -25.2 -30.3 -26.6Q-28.95 -28 -26.95 -28L25.05 -28Q27.05 -28 28.4 -26.6Q29.8 -25.2 29.8 -23.2z" />
<path style="fill:#666666;fill-opacity:1" d="M-114.15,-31.5Q-112.55 -29.9 -112.55 -27.6Q-112.55 -25.3 -114.15 -23.7Q-115.75 -22.1 -118.05 -22.1Q-120.35 -22.1 -121.95 -23.7Q-123.55 -25.3 -123.55 -27.6Q-123.55 -29.9 -121.95 -31.5Q-120.35 -33.1 -118.05 -33.1Q-115.75 -33.1 -114.15 -31.5" />
<path style="fill:none;stroke-width:2;stroke-linecap:round;stroke-linejoin:round;stroke-miterlimit:3;stroke:#8D7B32;stroke-opacity:1" d="M-114.15,-31.5Q-112.55 -29.9 -112.55 -27.6Q-112.55 -25.3 -114.15 -23.7Q-115.75 -22.1 -118.05 -22.1Q-120.35 -22.1 -121.95 -23.7Q-123.55 -25.3 -123.55 -27.6Q-123.55 -29.9 -121.95 -31.5Q-120.35 -33.1 -118.05 -33.1Q-115.75 -33.1 -114.15 -31.5z" />
<path style="fill:#FFBF7F;fill-opacity:1" d="M-25.4,12.3L23.3 12.3Q24.2 12.3 24.85 13.15Q25.45 14 25.45 15.15Q25.45 16.35 24.85 17.2Q24.2 18 23.3 18L-25.4 18Q-26.3 18 -26.9 17.2Q-27.55 16.35 -27.55 15.15Q-27.55 14 -26.9 13.15Q-26.3 12.3 -25.4 12.3" />
<path style="fill:none;stroke-width:2;stroke-linecap:round;stroke-linejoin:round;stroke-miterlimit:3;stroke:#D36E03;stroke-opacity:1" d="M-25.4,12.3L23.3 12.3Q24.2 12.3 24.85 13.15Q25.45 14 25.45 15.15Q25.45 16.35 24.85 17.2Q24.2 18 23.3 18L-25.4 18Q-26.3 18 -26.9 17.2Q-27.55 16.35 -27.55 15.15Q-27.55 14 -26.9 13.15Q-26.3 12.3 -25.4 12.3z" />
<path style="fill:#FFBF7F;fill-opacity:1" d="M-24.05,6.1Q-90.55 24.4 -119.05 -26.6Q-120.2 -31.1 -115.4 -28.6Q-90.7 17.4 -24.05 0.75L-24.05 6.1" />
<path style="fill:none;stroke-width:3;stroke-linecap:round;stroke-linejoin:round;stroke-miterlimit:3;stroke:#D36E03;stroke-opacity:1" d="M-24.05,6.1Q-90.55 24.4 -119.05 -26.6Q-120.2 -31.1 -115.4 -28.6Q-90.7 17.4 -24.05 0.75L-24.05 6.1z" />
<path style="fill:#FFBF7F;fill-opacity:1" d="M-25.4,5.8L23.3 5.8Q24.2 5.8 24.85 6.65Q25.45 7.5 25.45 8.65Q25.45 9.85 24.85 10.7Q24.2 11.5 23.3 11.5L-25.4 11.5Q-26.3 11.5 -26.9 10.7Q-27.55 9.85 -27.55 8.65Q-27.55 7.5 -26.9 6.65Q-26.3 5.8 -25.4 5.8" />
<path style="fill:none;stroke-width:2;stroke-linecap:round;stroke-linejoin:round;stroke-miterlimit:3;stroke:#D36E03;stroke-opacity:1" d="M-25.4,5.8L23.3 5.8Q24.2 5.8 24.85 6.65Q25.45 7.5 25.45 8.65Q25.45 9.85 24.85 10.7Q24.2 11.5 23.3 11.5L-25.4 11.5Q-26.3 11.5 -26.9 10.7Q-27.55 9.85 -27.55 8.65Q-27.55 7.5 -26.9 6.65Q-26.3 5.8 -25.4 5.8z" />
<path style="fill:#FFBF7F;fill-opacity:1" d="M-25.4,-0.2L23.3 -0.2Q24.2 -0.2 24.85 0.65Q25.45 1.5 25.45 2.65Q25.45 3.85 24.85 4.7Q24.2 5.5 23.3 5.5L-25.4 5.5Q-26.3 5.5 -26.9 4.7Q-27.55 3.85 -27.55 2.65Q-27.55 1.5 -26.9 0.65Q-26.3 -0.2 -25.4 -0.2" />
<path style="fill:none;stroke-width:2;stroke-linecap:round;stroke-linejoin:round;stroke-miterlimit:3;stroke:#D36E03;stroke-opacity:1" d="M-25.4,-0.2L23.3 -0.2Q24.2 -0.2 24.85 0.65Q25.45 1.5 25.45 2.65Q25.45 3.85 24.85 4.7Q24.2 5.5 23.3 5.5L-25.4 5.5Q-26.3 5.5 -26.9 4.7Q-27.55 3.85 -27.55 2.65Q-27.55 1.5 -26.9 0.65Q-26.3 -0.2 -25.4 -0.2z" />
<path style="fill:#FFBF7F;fill-opacity:1" d="M-25.4,-6.2L23.3 -6.2Q24.2 -6.2 24.85 -5.35Q25.45 -4.5 25.45 -3.35Q25.45 -2.15 24.85 -1.3Q24.2 -0.5 23.3 -0.5L-25.4 -0.5Q-26.3 -0.5 -26.9 -1.3Q-27.55 -2.15 -27.55 -3.35Q-27.55 -4.5 -26.9 -5.35Q-26.3 -6.2 -25.4 -6.2" />
<path style="fill:none;stroke-width:2;stroke-linecap:round;stroke-linejoin:round;stroke-miterlimit:3;stroke:#D36E03;stroke-opacity:1" d="M-25.4,-6.2L23.3 -6.2Q24.2 -6.2 24.85 -5.35Q25.45 -4.5 25.45 -3.35Q25.45 -2.15 24.85 -1.3Q24.2 -0.5 23.3 -0.5L-25.4 -0.5Q-26.3 -0.5 -26.9 -1.3Q-27.55 -2.15 -27.55 -3.35Q-27.55 -4.5 -26.9 -5.35Q-26.3 -6.2 -25.4 -6.2z" />
</g>
</svg>
