<?xml version="1.0" encoding="utf-8"?>
<svg version="1.1" id="Layer_1"
xmlns="http://www.w3.org/2000/svg"
xmlns:xlink="http://www.w3.org/1999/xlink"
xmlns:author="http://www.sothink.com"
width="217px" height="299px"
xml:space="preserve">
<g id="113" transform="matrix(1, 0, 0, 1, 123.2, 138.55)">
<path style="fill:#FFFFFF;fill-opacity:1" d="M40.85,-135.7Q89.25 -130.6 91.45 -117.8L42.05 -117.8L-4.35 -132.7Q5.45 -139.45 40.85 -135.7" />
<path style="fill:none;stroke-width:3;stroke-linecap:round;stroke-linejoin:round;stroke-miterlimit:3;stroke:#000000;stroke-opacity:1" d="M40.85,-135.7Q89.25 -130.6 91.45 -117.8L42.05 -117.8L-4.35 -132.7Q5.45 -139.45 40.85 -135.7z" />
<path style="fill:#FFFFFF;fill-opacity:1" d="M-15.6,-86.45Q-14.2 -104.85 -1.25 -117.8L81.9 -111.7Q88.05 -98.05 88.7 -87.15Q89.4 -76.15 88.05 -62.5Q86.25 -44.35 81.2 -31.25Q73.15 -9.75 77.15 14.45L78.9 25.5L83.25 44.25Q87.35 59.6 81.2 81.9Q76.8 98 55.25 107.4Q48 110.45 39.75 112.4L30.8 113.95Q4.45 115.6 -13.85 125.55Q-40.45 143.95 -75.55 156.2Q-108.45 164.4 -119.2 138.5Q-128.3 116.25 -104.1 94.45Q-95.75 86.95 -81.55 77.85L-59.9 64.2Q-43.25 53.1 -34.5 37.35Q-28.25 26.2 -24.45 9Q-21.9 -2.6 -19 -38.75L-15.6 -86.45" />
<path style="fill:none;stroke-width:3;stroke-linecap:round;stroke-linejoin:round;stroke-miterlimit:3;stroke:#000000;stroke-opacity:1" d="M-19,-38.75Q-21.9 -2.6 -24.45 9Q-28.25 26.2 -34.5 37.35Q-43.25 53.1 -59.9 64.2L-81.55 77.85Q-95.75 86.95 -104.1 94.45Q-128.3 116.25 -119.2 138.5Q-108.45 164.4 -75.55 156.2Q-40.45 143.95 -13.85 125.55Q4.45 115.6 30.8 113.95L39.75 112.4Q48 110.45 55.25 107.4Q76.8 98 81.2 81.9Q87.35 59.6 83.25 44.25L78.9 25.5L77.15 14.45Q73.15 -9.75 81.2 -31.25Q86.25 -44.35 88.05 -62.5Q89.4 -76.15 88.7 -87.15Q88.05 -98.05 81.9 -111.7L-1.25 -117.8Q-14.2 -104.85 -15.6 -86.45L-19 -38.75z" />
<path style="fill:#FFFFFF;fill-opacity:1" d="M68.35,-103.85Q53.35 -103 38.3 -105.05Q30.35 -106.05 11.2 -110.65Q-1.45 -113.4 -5 -115.5Q-10.4 -118.65 -9.1 -125.65Q-6.35 -140.65 8.6 -133.5Q25 -126.15 50.4 -124.45Q58.65 -123.95 69.45 -123.95L83.95 -123.95Q88.05 -123.85 90 -121.05Q91.8 -118.6 91.55 -114.9Q91.2 -111.4 89.3 -108.7Q87.2 -105.8 84.3 -105.55L68.35 -103.85" />
<path style="fill:none;stroke-width:3;stroke-linecap:round;stroke-linejoin:round;stroke-miterlimit:3;stroke:#000000;stroke-opacity:1" d="M84.3,-105.55Q87.2 -105.8 89.3 -108.7Q91.2 -111.4 91.55 -114.9Q91.8 -118.6 90 -121.05Q88.05 -123.85 83.95 -123.95L69.45 -123.95Q58.65 -123.95 50.4 -124.45Q25 -126.15 8.6 -133.5Q-6.35 -140.65 -9.1 -125.65Q-10.4 -118.65 -5 -115.5Q-1.45 -113.4 11.2 -110.65Q30.35 -106.05 38.3 -105.05Q53.35 -103 68.35 -103.85L84.3 -105.55z" />
<path style="fill:#FFFFFF;fill-opacity:1" d="M-95,87.9L-56.15 148.55Q-87.5 132.2 -95 87.9" />
<path style="fill:none;stroke-width:3;stroke-linecap:round;stroke-linejoin:round;stroke-miterlimit:3;stroke:#000000;stroke-opacity:1" d="M-56.15,148.55Q-87.5 132.2 -95 87.9" />
<path style="fill:#FFFFFF;fill-opacity:1" d="M34.2,113.8Q41.35 64.7 30.1 47.3Q44.4 46.3 79.2 30.95L34.2 113.8" />
<path style="fill:none;stroke-width:3;stroke-linecap:round;stroke-linejoin:round;stroke-miterlimit:3;stroke:#000000;stroke-opacity:1" d="M34.2,113.8Q41.35 64.7 30.1 47.3Q44.4 46.3 79.2 30.95" />
<path style="fill:none;stroke-width:2;stroke-linecap:round;stroke-linejoin:round;stroke-miterlimit:3;stroke:#000000;stroke-opacity:1" d="M5.2,-133.85Q-4.5 -128.2 -1.6 -114.55" />
<path style="fill:none;stroke-width:2;stroke-linecap:round;stroke-linejoin:round;stroke-miterlimit:3;stroke:#000000;stroke-opacity:1" d="M11.85,-131.6Q2.5 -120.95 6.75 -112" />
<path style="fill:none;stroke-width:2;stroke-linecap:round;stroke-linejoin:round;stroke-miterlimit:3;stroke:#000000;stroke-opacity:1" d="M19.1,-129.05Q11.45 -119.7 14.4 -109.9" />
<path style="fill:none;stroke-width:2;stroke-linecap:round;stroke-linejoin:round;stroke-miterlimit:3;stroke:#000000;stroke-opacity:1" d="M25.9,-126.5Q19.1 -115 22.5 -107.75" />
<path style="fill:none;stroke-width:2;stroke-linecap:round;stroke-linejoin:round;stroke-miterlimit:3;stroke:#000000;stroke-opacity:1" d="M33.6,-124.8Q28.9 -113.7 29.75 -107.35" />
<path style="fill:none;stroke-width:2;stroke-linecap:round;stroke-linejoin:round;stroke-miterlimit:3;stroke:#000000;stroke-opacity:1" d="M42.1,-123.1L38.3 -105.05" />
<path style="fill:none;stroke-width:2;stroke-linecap:round;stroke-linejoin:round;stroke-miterlimit:3;stroke:#000000;stroke-opacity:1" d="M51.5,-123.5Q51.05 -107.35 48.1 -103.05" />
<path style="fill:none;stroke-width:2;stroke-linecap:round;stroke-linejoin:round;stroke-miterlimit:3;stroke:#000000;stroke-opacity:1" d="M60,-123.1Q61.3 -109.05 56.15 -103.5" />
<path style="fill:none;stroke-width:2;stroke-linecap:round;stroke-linejoin:round;stroke-miterlimit:3;stroke:#000000;stroke-opacity:1" d="M68.95,-122.65Q71.95 -112.85 66.8 -102.65" />
<path style="fill:none;stroke-width:2;stroke-linecap:round;stroke-linejoin:round;stroke-miterlimit:3;stroke:#000000;stroke-opacity:1" d="M77.9,-122.65Q80.9 -111.15 75.35 -103.9" />
<path style="fill:#FFFFFF;fill-opacity:1" d="M42.3,54.15Q65.55 50.2 82 40.5L42.8 112.7Q49.1 73.5 42.3 54.15" />
<path style="fill:none;stroke-width:2;stroke-linecap:round;stroke-linejoin:round;stroke-miterlimit:3;stroke:#000000;stroke-opacity:1" d="M45.8,73.75L45.85 80.65M44.6,63.25L45.5 70.25M43.45,53.95L42.3 54.15L43.9 59.75M53.6,51.75L46.9 53.3M44,104.85L42.95 111.85M45.1,94.55L44.35 101.35M45.8,84.15L45.45 91.05M72.95,45.2L66.65 47.75M82,40.5L76 43.75M63.4,48.95L57 50.9" />
<path style="fill:none;stroke-width:2;stroke-linecap:round;stroke-linejoin:round;stroke-miterlimit:3;stroke:#000000;stroke-opacity:1" d="M-101.05,96L-101.65 91.2M-99.1,106.2L-100.55 99.4M-96,115.9L-98.25 109.45M-91.65,125.05L-94.75 119M-85.95,133.4L-89.9 127.95M-71.3,147.1L-76.65 143M-62.7,152.15L-68.5 148.9M-79.15,140.8L-83.85 135.95" />
</g>
</svg>
