<?xml version="1.0" encoding="utf-8"?>
<svg version="1.1" id="Layer_1"
xmlns="http://www.w3.org/2000/svg"
xmlns:xlink="http://www.w3.org/1999/xlink"
xmlns:author="http://www.sothink.com"
width="155px" height="321px"
xml:space="preserve">
<g id="364" transform="matrix(1, 0, 0, 1, 74.5, 163.8)">
<path style="fill:#000000;fill-opacity:1" d="M-62.25,152.65Q-53.6 105.65 -46.6 98.35Q-39.6 91 38.75 97.65Q60.1 138.65 61.4 150.35L-62.25 152.65" />
<path style="fill:#000000;fill-opacity:1" d="M42.4,97.65Q37.75 111.65 39.75 155.35L-47.25 155.35Q-44.6 131.65 -47.25 97.35L42.4 97.65" />
<path style="fill:none;stroke-width:2;stroke-linecap:round;stroke-linejoin:round;stroke-miterlimit:3;stroke:#666666;stroke-opacity:1" d="M-47.25,97.35Q-44.6 131.65 -47.25 155.35L39.75 155.35Q37.75 111.65 42.4 97.65L-47.25 97.35z" />
<path style="fill:#FFBFBF;fill-opacity:1" d="M15.1,14.5Q15.1 17.3 11.85 19.35Q8.65 21.35 4.1 21.35Q-0.45 21.35 -3.7 19.35Q-6.9 17.3 -6.9 14.5Q-6.9 11.7 -3.7 9.65Q-0.45 7.65 4.1 7.65Q8.65 7.65 11.85 9.65Q15.1 11.7 15.1 14.5" />
<path style="fill:#FFFFFF;fill-opacity:1" d="M17.4,11.35L20.4 15.35L25.75 14.65Q34.4 24.35 11.4 115L-2.6 99L-14.9 113L-21.6 102.65L-17.9 15.65L-11.9 14L-8.6 10Q-2.9 12.35 5.1 19Q7.75 15 17.4 11.35" />
<path style="fill:none;stroke-width:2;stroke-linecap:round;stroke-linejoin:round;stroke-miterlimit:3;stroke:#000000;stroke-opacity:1" d="M5.1,19Q-2.9 12.35 -8.6 10L-11.9 14L-17.9 15.65L-21.6 102.65L-14.9 113L-2.6 99L11.4 115Q34.4 24.35 25.75 14.65L20.4 15.35L17.4 11.35Q7.75 15 5.1 19z" />
<path style="fill:none;stroke-width:2;stroke-linecap:round;stroke-linejoin:round;stroke-miterlimit:3;stroke:#000000;stroke-opacity:1" d="M3.4,24Q-0.25 48.35 4.75 66" />
<path style="fill:#FFFFFF;fill-opacity:1" d="M16.1,24.65Q16.1 45.8 7.2 60.1L16.1 24.65M7.2,60.1L-2.6 99L0.1 69Q4.15 64.95 7.2 60.1" />
<path style="fill:none;stroke-width:2;stroke-linecap:round;stroke-linejoin:round;stroke-miterlimit:3;stroke:#000000;stroke-opacity:1" d="M-2.6,99L0.1 69Q4.15 64.95 7.2 60.1Q16.1 45.8 16.1 24.65" />
<path style="fill:none;stroke-width:2;stroke-linecap:round;stroke-linejoin:round;stroke-miterlimit:3;stroke:#000000;stroke-opacity:1" d="M-9.9,28.65Q-11.9 47 0.1 69" />
<path style="fill:#FFFFFF;fill-opacity:1" d="M2.1,24.65Q-4.6 29 -9.6 30.35Q-19.25 25 -11.25 15.65Q1.75 17.35 2.75 21.65L2.1 24.65" />
<path style="fill:none;stroke-width:2;stroke-linecap:round;stroke-linejoin:round;stroke-miterlimit:3;stroke:#000000;stroke-opacity:1" d="M2.75,21.65Q1.75 17.35 -11.25 15.65Q-19.25 25 -9.6 30.35Q-4.6 29 2.1 24.65L2.75 21.65z" />
<path style="fill:#FFFFFF;fill-opacity:1" d="M7.4,22Q11.4 16.35 20.75 17.65Q25.75 21.35 19.75 31.65L7.75 26L7.4 22" />
<path style="fill:none;stroke-width:2;stroke-linecap:round;stroke-linejoin:round;stroke-miterlimit:3;stroke:#000000;stroke-opacity:1" d="M7.4,22Q11.4 16.35 20.75 17.65Q25.75 21.35 19.75 31.65L7.75 26L7.4 22z" />
<path style="fill:#FFFFFF;fill-opacity:1" d="M9.7,24.25Q9.6 25.3 8.1 25.9L4.5 26.3Q2.45 26.1 1.05 25.25Q-0.35 24.35 -0.25 23.35Q-0.15 22.3 1.4 21.7L4.95 21.3Q7 21.5 8.4 22.35Q9.8 23.25 9.7 24.25" />
<path style="fill:none;stroke-width:2;stroke-linecap:round;stroke-linejoin:round;stroke-miterlimit:3;stroke:#000000;stroke-opacity:1" d="M9.7,24.25Q9.6 25.3 8.1 25.9L4.5 26.3Q2.45 26.1 1.05 25.25Q-0.35 24.35 -0.25 23.35Q-0.15 22.3 1.4 21.7L4.95 21.3Q7 21.5 8.4 22.35Q9.8 23.25 9.7 24.25z" />
<path style="fill:#000000;fill-opacity:1" d="M48.4,22Q53.75 26.65 49.75 35.65Q40.4 61.65 41.75 82.35Q42.2 89.3 44.6 95.85Q46.05 99.8 50.35 108.55Q55.05 118.15 57.8 125.05Q62.35 136.4 65.9 150L58.9 150.65Q43.4 126.65 37.75 98.65Q23.1 110.35 16.1 113Q9.1 98 7.75 89.65Q30.4 58 25.75 14.65Q44.1 17 48.4 22" />
<path style="fill:none;stroke-width:2;stroke-linecap:round;stroke-linejoin:round;stroke-miterlimit:3;stroke:#666666;stroke-opacity:1" d="M25.75,14.65Q30.4 58 7.75 89.65Q9.1 98 16.1 113Q23.1 110.35 37.75 98.65Q43.4 126.65 58.9 150.65L65.9 150Q62.35 136.4 57.8 125.05Q55.05 118.15 50.35 108.55Q46.05 99.8 44.6 95.85Q42.2 89.3 41.75 82.35Q40.4 61.65 49.75 35.65Q53.75 26.65 48.4 22Q44.1 17 25.75 14.65z" />
<path style="fill:#000000;fill-opacity:1" d="M30.1,19Q33.1 26.65 36.1 38.65L26.75 47.65L43.1 42.35Q28.4 74.65 7.75 89.65Q28.1 42.65 25.1 11.65Q27.1 11.35 30.1 19" />
<path style="fill:none;stroke-width:2;stroke-linecap:round;stroke-linejoin:round;stroke-miterlimit:3;stroke:#666666;stroke-opacity:1" d="M30.1,19Q33.1 26.65 36.1 38.65L26.75 47.65L43.1 42.35Q28.4 74.65 7.75 89.65Q28.1 42.65 25.1 11.65Q27.1 11.35 30.1 19z" />
<path style="fill:#000000;fill-opacity:1" d="M-39.25,19Q-30.25 15.65 -16.6 15.35Q-27.9 47 -10.6 88.65Q-14.25 106 -24.9 114.35Q-36.25 107.35 -43.25 98.35Q-55.25 118.35 -54.9 153.35L-69.6 153.35Q-68.6 129.65 -51.6 98.65Q-39.9 85.35 -45.25 55.35Q-49.9 36.35 -42.6 23.65L-39.25 19" />
<path style="fill:none;stroke-width:2;stroke-linecap:round;stroke-linejoin:round;stroke-miterlimit:3;stroke:#666666;stroke-opacity:1" d="M-42.6,23.65Q-49.9 36.35 -45.25 55.35Q-39.9 85.35 -51.6 98.65Q-68.6 129.65 -69.6 153.35L-54.9 153.35Q-55.25 118.35 -43.25 98.35Q-36.25 107.35 -24.9 114.35Q-14.25 106 -10.6 88.65Q-27.9 47 -16.6 15.35Q-30.25 15.65 -39.25 19L-42.6 23.65z" />
<path style="fill:#000000;fill-opacity:1" d="M-32.25,37Q-24.9 13.65 -14.9 12.65Q-24.25 50.35 -10.6 88.65Q-29.25 72.35 -39.9 39L-24.25 47.65L-32.25 37" />
<path style="fill:none;stroke-width:2;stroke-linecap:round;stroke-linejoin:round;stroke-miterlimit:3;stroke:#666666;stroke-opacity:1" d="M-32.25,37Q-24.9 13.65 -14.9 12.65Q-24.25 50.35 -10.6 88.65Q-29.25 72.35 -39.9 39L-24.25 47.65L-32.25 37z" />
<path style="fill:#FFFFFF;fill-opacity:1" d="M31.8,100.1L20.05 110.75Q12 114.75 12 104.15Q11.6 98.25 15.3 95.7Q21.15 90.2 31.4 89.45L31.8 100.1" />
<path style="fill:none;stroke-width:2;stroke-linecap:round;stroke-linejoin:round;stroke-miterlimit:3;stroke:#000000;stroke-opacity:1" d="M31.4,89.45Q21.15 90.2 15.3 95.7Q11.6 98.25 12 104.15Q12 114.75 20.05 110.75L31.8 100.1L31.4 89.45z" />
<path style="fill:#007FFF;fill-opacity:1" d="M-12.2,49.65L54.7 129.85L49.65 134L-17.2 53.8L-12.2 49.65" />
<path style="fill:none;stroke-width:1;stroke-linecap:round;stroke-linejoin:round;stroke-miterlimit:3;stroke:#1CFFF4;stroke-opacity:1" d="M-12.2,49.65L54.7 129.85L49.65 134L-17.2 53.8L-12.2 49.65z" />
<path style="fill:#007FFF;fill-opacity:1" d="M-11.6,46.85Q-11.15 47.35 -11.2 48.05Q-11.25 48.75 -11.8 49.2L-17.7 54.1L-18.9 54.45Q-19.6 54.35 -20.05 53.85Q-20.5 53.35 -20.45 52.65Q-20.4 51.95 -19.85 51.5L-13.9 46.65Q-13.4 46.2 -12.7 46.25Q-12 46.3 -11.6 46.85" />
<path style="fill:none;stroke-width:1;stroke-linecap:round;stroke-linejoin:round;stroke-miterlimit:3;stroke:#1CFFF4;stroke-opacity:1" d="M-11.6,46.85Q-11.15 47.35 -11.2 48.05Q-11.25 48.75 -11.8 49.2L-17.7 54.1L-18.9 54.45Q-19.6 54.35 -20.05 53.85Q-20.5 53.35 -20.45 52.65Q-20.4 51.95 -19.85 51.5L-13.9 46.65Q-13.4 46.2 -12.7 46.25Q-12 46.3 -11.6 46.85z" />
<path style="fill:#FFFF00;fill-opacity:1" d="M-15.4,39.3Q-13.35 41.75 -13.65 44.9Q-13.95 48.05 -16.4 50.05Q-18.85 52.05 -22 51.75Q-25.15 51.45 -27.15 49Q-29.15 46.55 -28.85 43.45Q-28.55 40.3 -26.1 38.3Q-23.65 36.3 -20.5 36.55Q-17.4 36.85 -15.4 39.3" />
<path style="fill:none;stroke-width:1;stroke-linecap:round;stroke-linejoin:round;stroke-miterlimit:3;stroke:#1CFFF4;stroke-opacity:1" d="M-15.4,39.3Q-13.35 41.75 -13.65 44.9Q-13.95 48.05 -16.4 50.05Q-18.85 52.05 -22 51.75Q-25.15 51.45 -27.15 49Q-29.15 46.55 -28.85 43.45Q-28.55 40.3 -26.1 38.3Q-23.65 36.3 -20.5 36.55Q-17.4 36.85 -15.4 39.3z" />
<path style="fill:#007FFF;fill-opacity:1" d="M57.2,132L51.3 136.85Q50.8 137.3 50.1 137.25Q49.4 137.2 48.95 136.65Q48.5 136.15 48.55 135.45Q48.6 134.75 49.15 134.3L55.1 129.4Q55.65 129 56.3 129.05Q57 129.15 57.4 129.65Q58.5 130.9 57.2 132" />
<path style="fill:none;stroke-width:1;stroke-linecap:round;stroke-linejoin:round;stroke-miterlimit:3;stroke:#1CFFF4;stroke-opacity:1" d="M57.4,129.65Q57 129.15 56.3 129.05Q55.65 129 55.1 129.4L49.15 134.3Q48.6 134.75 48.55 135.45Q48.5 136.15 48.95 136.65Q49.4 137.2 50.1 137.25Q50.8 137.3 51.3 136.85L57.2 132Q58.5 130.9 57.4 129.65z" />
<path style="fill:#FF0000;fill-opacity:1" d="M65.85,140.4Q65.55 143.55 63.1 145.55Q60.65 147.55 57.5 147.25Q54.4 146.95 52.35 144.5Q50.35 142.1 50.65 138.95Q50.95 135.8 53.4 133.8Q55.85 131.8 59 132.05Q62.15 132.35 64.15 134.8Q66.15 137.25 65.85 140.4" />
<path style="fill:none;stroke-width:1;stroke-linecap:round;stroke-linejoin:round;stroke-miterlimit:3;stroke:#1CFFF4;stroke-opacity:1" d="M64.15,134.8Q62.15 132.35 59 132.05Q55.85 131.8 53.4 133.8Q50.95 135.8 50.65 138.95Q50.35 142.1 52.35 144.5Q54.4 146.95 57.5 147.25Q60.65 147.55 63.1 145.55Q65.55 143.55 65.85 140.4Q66.15 137.25 64.15 134.8z" />
<path style="fill:#FFFFFF;fill-opacity:1" d="M34.35,88.35L47.2 102.65L44.25 105.25Q38.4 116.95 30.3 116.6Q24.8 117.7 21.9 111.85Q17.85 110.75 16.75 105.6Q11.6 101.95 17.85 97.15Q24.1 95.7 24.8 92.4Q28.1 90.55 34.35 88.35" />
<path style="fill:none;stroke-width:2;stroke-linecap:round;stroke-linejoin:round;stroke-miterlimit:3;stroke:#000000;stroke-opacity:1" d="M24.8,92.4Q24.1 95.7 17.85 97.15Q11.6 101.95 16.75 105.6Q17.85 110.75 21.9 111.85Q24.8 117.7 30.3 116.6Q38.4 116.95 44.25 105.25L47.2 102.65L34.35 88.35Q28.1 90.55 24.8 92.4z" />
<path style="fill:#000000;fill-opacity:1" d="M49.1,29.65Q73.75 50 79.4 64Q73.75 83 44.75 107Q40.4 96 30.4 88.35Q41.4 73.5 53.4 65Q46.1 57.35 43.4 52.35L49.1 29.65" />
<path style="fill:none;stroke-width:2;stroke-linecap:round;stroke-linejoin:round;stroke-miterlimit:3;stroke:#666666;stroke-opacity:1" d="M49.1,29.65Q73.75 50 79.4 64Q73.75 83 44.75 107Q40.4 96 30.4 88.35Q41.4 73.5 53.4 65Q46.1 57.35 43.4 52.35" />
<path style="fill:#FFBFBF;fill-opacity:1" d="M29.8,-41.25Q39.5 -45.25 41.8 -33.9Q43.5 -24.55 32.15 -21.55L29.8 -41.25" />
<path style="fill:none;stroke-width:2;stroke-linecap:round;stroke-linejoin:round;stroke-miterlimit:3;stroke:#000000;stroke-opacity:1" d="M29.8,-41.25Q39.5 -45.25 41.8 -33.9Q43.5 -24.55 32.15 -21.55L29.8 -41.25z" />
<path style="fill:none;stroke-width:2;stroke-linecap:round;stroke-linejoin:round;stroke-miterlimit:3;stroke:#000000;stroke-opacity:1" d="M32.15,-31.9Q33.8 -34.55 37.5 -33.25" />
<path style="fill:#FFBFBF;fill-opacity:1" d="M28.15,14.45Q4.15 31.1 -23.85 10.75Q-28.5 5.75 -28.85 0.45Q-29.5 -27.55 -27.5 -36.25L31.15 -44.55Q36.8 -8.25 36.5 1.1Q38.15 8.1 28.15 14.45" />
<path style="fill:none;stroke-width:2;stroke-linecap:round;stroke-linejoin:round;stroke-miterlimit:3;stroke:#000000;stroke-opacity:1" d="M28.15,14.45Q4.15 31.1 -23.85 10.75Q-28.5 5.75 -28.85 0.45Q-29.5 -27.55 -27.5 -36.25L31.15 -44.55Q36.8 -8.25 36.5 1.1Q38.15 8.1 28.15 14.45z" />
<path style="fill:#000000;fill-opacity:1" d="M-8.3,-25.25L-4 -25.75Q-12.35 -20.4 -16.35 -25.75Q-13.6 -24.55 -8.3 -25.25" />
<path style="fill:none;stroke-width:1;stroke-linecap:round;stroke-linejoin:round;stroke-miterlimit:3;stroke:#000000;stroke-opacity:1" d="M-16.35,-25.75Q-12.35 -20.4 -4 -25.75L-8.3 -25.25Q-13.6 -24.55 -16.35 -25.75z" />
<path style="fill:#000000;fill-opacity:1" d="M22.5,-28.9Q15.8 -22.25 8.8 -27.9Q14.15 -25.55 22.5 -28.9" />
<path style="fill:none;stroke-width:1;stroke-linecap:round;stroke-linejoin:round;stroke-miterlimit:3;stroke:#000000;stroke-opacity:1" d="M8.8,-27.9Q15.8 -22.25 22.5 -28.9Q14.15 -25.55 8.8 -27.9z" />
<path style="fill:none;stroke-width:2;stroke-linecap:round;stroke-linejoin:round;stroke-miterlimit:3;stroke:#FF4040;stroke-opacity:1" d="M-13.5,2.45Q0.8 8.1 24.15 0.75" />
<path style="fill:#000000;fill-opacity:1" d="M33.8,-69.35Q41.65 -67.3 46.15 -64.1Q50.85 -60.75 51.3 -56.55Q51.75 -52.35 47.9 -48.05Q44.2 -43.9 37 -40.25Q21.75 -32.5 -0.8 -30Q-23.3 -27.55 -39.9 -31.85Q-47.7 -33.9 -52.25 -37.15Q-56.95 -40.5 -57.4 -44.7Q-57.85 -48.9 -54 -53.15Q-50.25 -57.3 -43.05 -60.95Q-27.8 -68.7 -5.3 -71.2Q17.25 -73.65 33.8 -69.35" />
<path style="fill:none;stroke-width:1;stroke-linecap:round;stroke-linejoin:round;stroke-miterlimit:3;stroke:#000000;stroke-opacity:1" d="M33.8,-69.35Q41.65 -67.3 46.15 -64.1Q50.85 -60.75 51.3 -56.55Q51.75 -52.35 47.9 -48.05Q44.2 -43.9 37 -40.25Q21.75 -32.5 -0.8 -30Q-23.3 -27.55 -39.9 -31.85Q-47.7 -33.9 -52.25 -37.15Q-56.95 -40.5 -57.4 -44.7Q-57.85 -48.9 -54 -53.15Q-50.25 -57.3 -43.05 -60.95Q-27.8 -68.7 -5.3 -71.2Q17.25 -73.65 33.8 -69.35z" />
<path style="fill:#000000;fill-opacity:1" d="M-39.85,-52.25L-57.85 -133.25Q-59.5 -140.25 -54.2 -144.55Q-41.2 -158.9 -11.85 -162.55Q17.5 -166.25 37.15 -151.9Q42.8 -148.9 41.8 -138.25L40.15 -59.9L-39.85 -52.25" />
<path style="fill:none;stroke-width:1;stroke-linecap:round;stroke-linejoin:round;stroke-miterlimit:3;stroke:#000000;stroke-opacity:1" d="M-39.85,-52.25L-57.85 -133.25Q-59.5 -140.25 -54.2 -144.55Q-41.2 -158.9 -11.85 -162.55Q17.5 -166.25 37.15 -151.9Q42.8 -148.9 41.8 -138.25L40.15 -59.9" />
<path style="fill:none;stroke-width:4;stroke-linecap:round;stroke-linejoin:round;stroke-miterlimit:3;stroke:#666666;stroke-opacity:1" d="M-50.2,-134.55Q-7.85 -106.55 37.15 -143.55" />
<path style="fill:none;stroke-width:6;stroke-linecap:round;stroke-linejoin:round;stroke-miterlimit:3;stroke:#666666;stroke-opacity:1" d="M33.5,-131.9L32.8 -58.55" />
<path style="fill:#000000;fill-opacity:1" d="M-46.2,-5.9Q-35.2 -2.25 -36.2 4.45Q-57.5 9.45 -61.5 -8.9Q-56.85 -16.25 -46.2 -5.9" />
<path style="fill:none;stroke-width:2;stroke-linecap:round;stroke-linejoin:round;stroke-miterlimit:3;stroke:#666666;stroke-opacity:1" d="M-46.2,-5.9Q-35.2 -2.25 -36.2 4.45Q-57.5 9.45 -61.5 -8.9Q-56.85 -16.25 -46.2 -5.9z" />
<path style="fill:#FFFFFF;fill-opacity:1" d="M-19.45,-28.75Q-9.2 -27.75 -16.2 -22.75Q-19.2 -21.75 -26.2 -15.25Q-28.45 -9.3 -34.2 -5.35Q-35.75 -4.3 -37.95 -3.2Q-39.5 -2.4 -39.5 -2.25Q-42.5 1.1 -45.2 7.75L-59.85 3.1L-57.2 -6.55Q-54.5 -17.25 -49.85 -24.9Q-51.2 -30.9 -44.85 -33.9L-26.45 -27.25L-19.45 -28.75" />
<path style="fill:none;stroke-width:2;stroke-linecap:round;stroke-linejoin:round;stroke-miterlimit:3;stroke:#000000;stroke-opacity:1" d="M-26.45,-27.25L-44.85 -33.9Q-51.2 -30.9 -49.85 -24.9Q-54.5 -17.25 -57.2 -6.55L-59.85 3.1L-45.2 7.75Q-42.5 1.1 -39.5 -2.25Q-39.5 -2.4 -37.95 -3.2Q-35.75 -4.3 -34.2 -5.35Q-28.45 -9.3 -26.2 -15.25Q-19.2 -21.75 -16.2 -22.75Q-9.2 -27.75 -19.45 -28.75L-26.45 -27.25z" />
<path style="fill:#000000;fill-opacity:1" d="M-61.5,-8.9Q-56.5 5.75 -36.2 4.45Q-38.25 21.45 -39.2 37.1Q-39.5 42.1 -39.95 44.7Q-40.7 49.1 -42.5 51.95Q-47.1 59.5 -59.6 58.5Q-78.6 57 -71.6 29.5Q-67.1 8.5 -61.5 -8.9" />
<path style="fill:none;stroke-width:2;stroke-linecap:round;stroke-linejoin:round;stroke-miterlimit:3;stroke:#666666;stroke-opacity:1" d="M-71.6,29.5Q-78.6 57 -59.6 58.5Q-47.1 59.5 -42.5 51.95Q-40.7 49.1 -39.95 44.7Q-39.5 42.1 -39.2 37.1Q-38.25 21.45 -36.2 4.45Q-56.5 5.75 -61.5 -8.9Q-67.1 8.5 -71.6 29.5z" />
<path style="fill:#FFFFFF;fill-opacity:1" d="M-27.2,-29.55Q-19.2 -29.9 -20.2 -22.9Q-21.2 -12.25 -28.5 -15.55L-27.2 -29.55" />
<path style="fill:none;stroke-width:1;stroke-linecap:round;stroke-linejoin:round;stroke-miterlimit:3;stroke:#000000;stroke-opacity:1" d="M-27.2,-29.55Q-19.2 -29.9 -20.2 -22.9Q-21.2 -12.25 -28.5 -15.55" />
<path style="fill:#FFFFFF;fill-opacity:1" d="M-29.2,-30.9Q-20.85 -31.55 -22.85 -22.9Q-24.5 -11.9 -31.2 -14.55L-29.2 -30.9" />
<path style="fill:none;stroke-width:2;stroke-linecap:round;stroke-linejoin:round;stroke-miterlimit:3;stroke:#000000;stroke-opacity:1" d="M-29.2,-30.9Q-20.85 -31.55 -22.85 -22.9Q-24.5 -11.9 -31.2 -14.55" />
<path style="fill:#FFFFFF;fill-opacity:1" d="M-51.85,-12.55Q-50.2 -21.55 -48.85 -24.55Q-49.5 -31.55 -42.5 -32.25Q-31.85 -33.55 -28.2 -30.9Q-24.5 -28.9 -26.2 -21.9Q-29.2 -15.25 -32.2 -13.55Q-37.85 -16.25 -33.5 -21.55Q-32.85 -21.55 -31.2 -23.55Q-37.85 -23.55 -39.2 -26.25Q-35.2 -15.9 -41.2 -8.55L-51.85 -12.55" />
<path style="fill:none;stroke-width:2;stroke-linecap:round;stroke-linejoin:round;stroke-miterlimit:3;stroke:#000000;stroke-opacity:1" d="M-51.85,-12.55Q-50.2 -21.55 -48.85 -24.55Q-49.5 -31.55 -42.5 -32.25Q-31.85 -33.55 -28.2 -30.9Q-24.5 -28.9 -26.2 -21.9Q-29.2 -15.25 -32.2 -13.55Q-37.85 -16.25 -33.5 -21.55Q-32.85 -21.55 -31.2 -23.55Q-37.85 -23.55 -39.2 -26.25Q-35.2 -15.9 -41.2 -8.55" />
<path style="fill:#FFFFFF;fill-opacity:1" d="M-32.2,-31.55L-37.45 -32Q-40.95 -33.3 -46.95 -32L-44.85 -33.9L-34.5 -38.25L-31.6 -39.1L-27.2 -39.75Q-18.7 -40.9 -13.7 -42.25Q-10.35 -36.75 -17.7 -34.75Q-25.5 -31.25 -32.2 -31.55" />
<path style="fill:none;stroke-width:2;stroke-linecap:round;stroke-linejoin:round;stroke-miterlimit:3;stroke:#000000;stroke-opacity:1" d="M-32.2,-31.55L-37.45 -32Q-40.95 -33.3 -46.95 -32L-44.85 -33.9L-34.5 -38.25L-31.6 -39.1L-27.2 -39.75Q-18.7 -40.9 -13.7 -42.25Q-10.35 -36.75 -17.7 -34.75Q-25.5 -31.25 -32.2 -31.55z" />
<path style="fill:none;stroke-width:2;stroke-linecap:round;stroke-linejoin:round;stroke-miterlimit:3;stroke:#000000;stroke-opacity:1" d="M-0.95,-28Q-8.95 -21 -5.95 -2L12.55 -4" />
</g>
</svg>
