<?xml version="1.0" encoding="utf-8"?>
<svg version="1.1" id="Layer_1"
xmlns="http://www.w3.org/2000/svg"
xmlns:xlink="http://www.w3.org/1999/xlink"
xmlns:author="http://www.sothink.com"
width="222px" height="217px"
xml:space="preserve">
<g id="371" transform="matrix(1, 0, 0, 1, 128.05, 108.3)">
<path style="fill:#FFBF7F;fill-opacity:1" d="M33.75,67.05L45.5 70.95L60.65 88.7Q54.6 87.4 46.8 93.9Q41.15 88.25 33.3 90.4L33.75 67.05" />
<path style="fill:none;stroke-width:2;stroke-linecap:round;stroke-linejoin:round;stroke-miterlimit:3;stroke:#000000;stroke-opacity:1" d="M33.3,90.4Q41.15 88.25 46.8 93.9Q54.6 87.4 60.65 88.7L45.5 70.95L33.75 67.05L33.3 90.4z" />
<path style="fill:#FFCC00;fill-opacity:1" d="M22.95,41.5L34.65 58.4Q45.05 57.1 52 68.35L62.8 87.45L58.5 89.6Q48.9 77.05 45.5 75.3Q53.7 93.9 48.5 96.95Q45.9 100.35 43.75 89.6Q37.65 74.45 35.5 73.15Q37.25 93.45 32.9 93.5Q30.25 94.3 30.75 84.85Q29.45 76.15 27.7 70.1Q27.3 63.6 27.7 61Q18.55 45.4 15.6 43.25Q12.5 41.05 22.95 41.5" />
<path style="fill:none;stroke-width:2;stroke-linecap:round;stroke-linejoin:round;stroke-miterlimit:3;stroke:#000000;stroke-opacity:1" d="M22.95,41.5L34.65 58.4Q45.05 57.1 52 68.35L62.8 87.45L58.5 89.6Q48.9 77.05 45.5 75.3Q53.7 93.9 48.5 96.95Q45.9 100.35 43.75 89.6Q37.65 74.45 35.5 73.15Q37.25 93.45 32.9 93.5Q30.25 94.3 30.75 84.85Q29.45 76.15 27.7 70.1Q27.3 63.6 27.7 61Q18.55 45.4 15.6 43.25Q12.5 41.05 22.95 41.5z" />
<path style="fill:#FFFFFF;fill-opacity:1" d="M-9.6,15.15Q-2.8 20.35 -5.4 33.8Q-8 47.25 -18.5 61Q-29.05 74.75 -41.3 80.75Q-53.55 86.8 -60.4 81.6Q-67.2 76.45 -64.6 63Q-62 49.6 -51.5 35.8Q-40.95 22.05 -28.7 16Q-22.9 13.15 -18 12.85Q-12.95 12.6 -9.6 15.15" />
<path style="fill:none;stroke-width:3;stroke-linecap:round;stroke-linejoin:round;stroke-miterlimit:3;stroke:#000000;stroke-opacity:1" d="M-9.6,15.15Q-2.8 20.35 -5.4 33.8Q-8 47.25 -18.5 61Q-29.05 74.75 -41.3 80.75Q-53.55 86.8 -60.4 81.6Q-67.2 76.45 -64.6 63Q-62 49.6 -51.5 35.8Q-40.95 22.05 -28.7 16Q-22.9 13.15 -18 12.85Q-12.95 12.6 -9.6 15.15z" />
<path style="fill:#FFFFFF;fill-opacity:1" d="M-35.8,13L-35.3 24Q-65.3 62.15 -64.8 80.1L-70.3 85.1Q-86.8 81.6 -35.8 13" />
<path style="fill:none;stroke-width:3;stroke-linecap:round;stroke-linejoin:round;stroke-miterlimit:3;stroke:#000000;stroke-opacity:1" d="M-35.3,24Q-65.3 62.15 -64.8 80.1L-70.3 85.1Q-86.8 81.6 -35.8 13" />
<path style="fill:#FFFFFF;fill-opacity:1" d="M-79.25,-53.1Q-84.45 -70 -72.1 -83Q-53.9 -99.9 -37.65 -88.85Q-26.95 -81.6 -24.85 -68.9Q-23.4 -60.4 -25.95 -50.5Q-26.65 -47.9 -28.45 -44.55L-31 -39.5Q-32.1 -36.8 -31.65 -34.45Q-31.1 -31.65 -28.3 -28.5Q-20.8 -19.5 -4.8 -19Q24.7 -17 47.75 12.5Q55.25 21 65.75 24Q81.25 25.5 79.75 30Q81.25 45 55.25 50Q33.7 56 8.7 51Q-10.7 47.1 -23.9 35.4Q-37.95 22.9 -43.8 2.5Q-47.3 -16.5 -58.8 -25.5Q-74.05 -36.2 -79.25 -53.1" />
<path style="fill:none;stroke-width:3;stroke-linecap:round;stroke-linejoin:round;stroke-miterlimit:3;stroke:#000000;stroke-opacity:1" d="M-79.25,-53.1Q-84.45 -70 -72.1 -83Q-53.9 -99.9 -37.65 -88.85Q-26.95 -81.6 -24.85 -68.9Q-23.4 -60.4 -25.95 -50.5Q-26.65 -47.9 -28.45 -44.55L-31 -39.5Q-32.1 -36.8 -31.65 -34.45Q-31.1 -31.65 -28.3 -28.5Q-20.8 -19.5 -4.8 -19Q24.7 -17 47.75 12.5Q55.25 21 65.75 24Q81.25 25.5 79.75 30Q81.25 45 55.25 50Q33.7 56 8.7 51Q-10.7 47.1 -23.9 35.4Q-37.95 22.9 -43.8 2.5Q-47.3 -16.5 -58.8 -25.5Q-74.05 -36.2 -79.25 -53.1z" />
<path style="fill:#FFFFFF;fill-opacity:1" d="M73.4,29.85Q82.1 31.85 90.1 31.85Q92 31.85 91.7 33.5Q91.4 35.2 89.15 36.65Q86.45 38.35 82.6 38.45L78.7 38.15Q83.9 39.5 87.75 39.5Q90 39.5 89.35 40.75Q88.7 42.05 85.95 43.15Q78.6 46.2 69.95 43.05Q87.35 49.8 61.75 47.5L73.4 29.85" />
<path style="fill:none;stroke-width:3;stroke-linecap:round;stroke-linejoin:round;stroke-miterlimit:3;stroke:#000000;stroke-opacity:1" d="M73.4,29.85Q82.1 31.85 90.1 31.85Q92 31.85 91.7 33.5Q91.4 35.2 89.15 36.65Q86.45 38.35 82.6 38.45L78.7 38.15Q83.9 39.5 87.75 39.5Q90 39.5 89.35 40.75Q88.7 42.05 85.95 43.15Q78.6 46.2 69.95 43.05Q87.35 49.8 61.75 47.5M69.95,43.05L69.4 42.85M78.7,38.15Q75.7 37.6 72.4 36.15" />
<path style="fill:#FFFF00;fill-opacity:1" d="M-108.1,-72.15L-77.75 -57.85Q-74.7 -53.55 -79.5 -51.8Q-107.2 -53.95 -117.6 -52.25Q-132.35 -54.4 -122.8 -64.35Q-113.3 -74.35 -108.1 -72.15" />
<path style="fill:none;stroke-width:3;stroke-linecap:round;stroke-linejoin:round;stroke-miterlimit:3;stroke:#000000;stroke-opacity:1" d="M-108.1,-72.15L-77.75 -57.85Q-74.7 -53.55 -79.5 -51.8Q-107.2 -53.95 -117.6 -52.25Q-132.35 -54.4 -122.8 -64.35Q-113.3 -74.35 -108.1 -72.15z" />
<path style="fill:#FF4040;fill-opacity:1" d="M-82.95,-58.75Q-91.2 -61.75 -117.6 -58.3Q-120.2 -66.55 -105.9 -69.15L-82.95 -58.75" />
<path style="fill:none;stroke-width:2;stroke-linecap:round;stroke-linejoin:round;stroke-miterlimit:3;stroke:#000000;stroke-opacity:1" d="M-105.9,-69.15Q-120.2 -66.55 -117.6 -58.3Q-91.2 -61.75 -82.95 -58.75L-105.9 -69.15z" />
<path style="fill:#FFFF00;fill-opacity:1" d="M-113.7,-101.6Q-111.35 -98.7 -106.4 -95.2Q-101.15 -91.5 -95.15 -88.65Q-80.1 -81.5 -70.4 -83.85Q-59.1 -69.55 -77.75 -57.85Q-129.75 -66.1 -121.95 -105.9Q-119.8 -108.95 -113.7 -101.6" />
<path style="fill:none;stroke-width:3;stroke-linecap:round;stroke-linejoin:round;stroke-miterlimit:3;stroke:#000000;stroke-opacity:1" d="M-113.7,-101.6Q-111.35 -98.7 -106.4 -95.2Q-101.15 -91.5 -95.15 -88.65Q-80.1 -81.5 -70.4 -83.85Q-59.1 -69.55 -77.75 -57.85Q-129.75 -66.1 -121.95 -105.9Q-119.8 -108.95 -113.7 -101.6z" />
<path style="fill:#FFFFFF;fill-opacity:1" d="M-51.3,-89.95Q-42.4 -97.1 -34.4 -87.75Q-27.65 -79.85 -34 -72.15L-51.3 -89.95" />
<path style="fill:none;stroke-width:2;stroke-linecap:round;stroke-linejoin:round;stroke-miterlimit:3;stroke:#000000;stroke-opacity:1" d="M-51.3,-89.95Q-42.4 -97.1 -34.4 -87.75Q-27.65 -79.85 -34 -72.15" />
<path style="fill:none;stroke-width:2;stroke-linecap:round;stroke-linejoin:round;stroke-miterlimit:3;stroke:#000000;stroke-opacity:1" d="M-49.15,-86.05Q-36.85 -86.45 -40.9 -73.05" />
<path style="fill:none;stroke-width:2;stroke-linecap:round;stroke-linejoin:round;stroke-miterlimit:3;stroke:#000000;stroke-opacity:1" d="M-47.65,-80.75Q-44.1 -82.05 -42.1 -80.35Q-40.15 -78.6 -40.9 -74.9Q-41.65 -71.2 -44.7 -67.7Q-47.7 -64.15 -51.3 -62.85Q-54.85 -61.55 -56.8 -63.25Q-58.8 -64.95 -58.05 -68.65Q-57.3 -72.35 -54.25 -75.9Q-51.2 -79.4 -47.65 -80.75z" />
<path style="fill:#000000;fill-opacity:1" d="M-48.35,-80.8Q-45.35 -82.35 -43.95 -81.15Q-42.6 -80 -43.7 -76.8Q-44.8 -73.55 -47.7 -70.2Q-50.6 -66.8 -53.6 -65.25Q-56.6 -63.7 -57.95 -64.9Q-59.35 -66.05 -58.25 -69.25Q-57.15 -72.45 -54.25 -75.85Q-51.35 -79.25 -48.35 -80.8" />
<path style="fill:none;stroke-width:1;stroke-linecap:round;stroke-linejoin:round;stroke-miterlimit:3;stroke:#000000;stroke-opacity:1" d="M-48.35,-80.8Q-45.35 -82.35 -43.95 -81.15Q-42.6 -80 -43.7 -76.8Q-44.8 -73.55 -47.7 -70.2Q-50.6 -66.8 -53.6 -65.25Q-56.6 -63.7 -57.95 -64.9Q-59.35 -66.05 -58.25 -69.25Q-57.15 -72.45 -54.25 -75.85Q-51.35 -79.25 -48.35 -80.8z" />
<path style="fill:#FFBF7F;fill-opacity:1" d="M72.4,75.15L86.25 87.7Q83.2 88.1 81.9 100.7L78.45 105.45Q74.1 100.25 62 96.35L61.1 77.35L72.4 75.15" />
<path style="fill:none;stroke-width:2;stroke-linecap:round;stroke-linejoin:round;stroke-miterlimit:3;stroke:#000000;stroke-opacity:1" d="M61.1,77.35L62 96.35Q74.1 100.25 78.45 105.45L81.9 100.7Q83.2 88.1 86.25 87.7L72.4 75.15L61.1 77.35z" />
<path style="fill:#FFCC00;fill-opacity:1" d="M82.35,87.75Q76.7 79.95 71.1 79.95Q87.1 97.2 82.35 105.95Q76.65 109.35 74.1 101.6Q69.35 87.75 63.7 81.25Q67.2 96.35 63.3 99.85Q58.45 100.25 57.2 87.75Q54.6 77.75 50.3 69.1Q48.05 64.35 49 61.75Q37.25 47.45 30.35 43.95Q35.05 37.45 43.35 43.95L53.3 53.95Q56.8 55.6 59.4 56.1Q68.5 56.95 75.85 66.5Q83.2 76 85.4 77.35Q93.6 87.7 90.15 94.25Q86.25 97.2 82.35 87.75" />
<path style="fill:none;stroke-width:2;stroke-linecap:round;stroke-linejoin:round;stroke-miterlimit:3;stroke:#000000;stroke-opacity:1" d="M82.35,87.75Q76.7 79.95 71.1 79.95Q87.1 97.2 82.35 105.95Q76.65 109.35 74.1 101.6Q69.35 87.75 63.7 81.25Q67.2 96.35 63.3 99.85Q58.45 100.25 57.2 87.75Q54.6 77.75 50.3 69.1Q48.05 64.35 49 61.75Q37.25 47.45 30.35 43.95Q35.05 37.45 43.35 43.95L53.3 53.95Q56.8 55.6 59.4 56.1Q68.5 56.95 75.85 66.5Q83.2 76 85.4 77.35Q93.6 87.7 90.15 94.25Q86.25 97.2 82.35 87.75z" />
<path style="fill:#FFFFFF;fill-opacity:1" d="M19.7,19.5Q25.2 35 17.7 36Q19.2 45.5 13.7 45.5Q17.7 54 8.7 56.5Q12.7 63.5 4.7 63Q11.2 70.5 0.7 71Q4.7 80.45 -5.3 78.5Q-2.3 85.45 -10.3 85.45Q-9.3 93.45 -17.8 92.45Q-16.3 100.45 -27.3 96.95Q-25.3 105.45 -40.8 99.45Q-57.8 98.95 -63.3 89.95Q-81.8 92.95 -66.3 77.5Q-26.8 37.5 -15.8 -8L19.7 19.5" />
<path style="fill:none;stroke-width:3;stroke-linecap:round;stroke-linejoin:round;stroke-miterlimit:3;stroke:#000000;stroke-opacity:1" d="M-15.8,-8Q-26.8 37.5 -66.3 77.5Q-81.8 92.95 -63.3 89.95Q-57.8 98.95 -40.8 99.45Q-25.3 105.45 -27.3 96.95Q-16.3 100.45 -17.8 92.45Q-9.3 93.45 -10.3 85.45Q-2.3 85.45 -5.3 78.5Q4.7 80.45 0.7 71Q11.2 70.5 4.7 63Q12.7 63.5 8.7 56.5Q17.7 54 13.7 45.5Q19.2 45.5 17.7 36Q25.2 35 19.7 19.5" />
<path style="fill:#FFFFFF;fill-opacity:1" d="M-9.3,20.65Q7.7 52.65 -10.3 57.65Q-0.8 69.15 -16.8 74.65Q-10.8 87.6 -41.3 81.1L-9.3 20.65" />
<path style="fill:none;stroke-width:3;stroke-linecap:round;stroke-linejoin:round;stroke-miterlimit:3;stroke:#000000;stroke-opacity:1" d="M-41.3,81.1Q-10.8 87.6 -16.8 74.65Q-0.8 69.15 -10.3 57.65Q7.7 52.65 -9.3 20.65" />
</g>
</svg>
