<?xml version="1.0" encoding="utf-8"?>
<svg version="1.1" id="Layer_1"
xmlns="http://www.w3.org/2000/svg"
xmlns:xlink="http://www.w3.org/1999/xlink"
xmlns:author="http://www.sothink.com"
width="211px" height="260px"
xml:space="preserve">
<g id="365" transform="matrix(1, 0, 0, 1, 129.85, 84.2)">
<path style="fill:#FFFF00;fill-opacity:1" d="M-16.05,-74.65Q25.95 -95 42.25 -67Q54.95 -62 41.95 -35.35L-25.75 -38.65Q-31.05 -44.35 -28.05 -54Q-25.05 -63.65 -21.05 -66Q-23.4 -72.35 -16.05 -74.65" />
<path style="fill:none;stroke-width:2;stroke-linecap:round;stroke-linejoin:round;stroke-miterlimit:3;stroke:#000000;stroke-opacity:1" d="M-16.05,-74.65Q25.95 -95 42.25 -67Q54.95 -62 41.95 -35.35L-25.75 -38.65Q-31.05 -44.35 -28.05 -54Q-25.05 -63.65 -21.05 -66Q-23.4 -72.35 -16.05 -74.65z" />
<path style="fill:#FFBFBF;fill-opacity:1" d="M35.95,-37.65Q44.6 -40.35 46.25 -34Q50.6 -17.7 35.95 -17.35L35.95 -37.65" />
<path style="fill:none;stroke-width:2;stroke-linecap:round;stroke-linejoin:round;stroke-miterlimit:3;stroke:#000000;stroke-opacity:1" d="M35.95,-37.65Q44.6 -40.35 46.25 -34Q50.6 -17.7 35.95 -17.35L35.95 -37.65z" />
<path style="fill:#000000;fill-opacity:1" d="M-46.75,98.35Q-39.75 91 38.6 97.65Q59.95 138.65 61.25 150.35L-62.4 152.65Q-53.75 105.65 -46.75 98.35" />
<path style="fill:#000000;fill-opacity:1" d="M-47.4,97.35L42.25 97.65Q37.6 111.65 39.6 155.35L-47.4 155.35Q-44.75 131.65 -47.4 97.35" />
<path style="fill:none;stroke-width:2;stroke-linecap:round;stroke-linejoin:round;stroke-miterlimit:3;stroke:#666666;stroke-opacity:1" d="M-47.4,155.35L39.6 155.35Q37.6 111.65 42.25 97.65L-47.4 97.35Q-44.75 131.65 -47.4 155.35z" />
<path style="fill:none;stroke-width:2;stroke-linecap:round;stroke-linejoin:round;stroke-miterlimit:3;stroke:#000000;stroke-opacity:1" d="M36.25,-28.35Q39.25 -30.35 42.6 -28" />
<path style="fill:#FFBFBF;fill-opacity:1" d="M14.95,14.5Q14.95 17.3 11.7 19.35Q8.5 21.35 3.95 21.35Q-0.6 21.35 -3.85 19.35Q-7.05 17.3 -7.05 14.5Q-7.05 11.7 -3.85 9.65Q-0.6 7.65 3.95 7.65Q8.5 7.65 11.7 9.65Q14.95 11.7 14.95 14.5" />
<path style="fill:#FFBFBF;fill-opacity:1" d="M-11.75,-70.65Q-9.05 -69.35 -1.05 -69L19.95 -69.35Q38.6 -69.65 38.25 -65L37.25 -53Q35.25 -32.35 37.95 -6.65Q39.1 1.8 35.3 6.4Q32.1 10.3 24.95 11.65Q10.65 14.45 -10.75 11.65Q-26.05 9.65 -24.75 -1.35Q-26.4 -30.35 -18.4 -55.65Q-16.4 -63.65 -11.75 -70.65" />
<path style="fill:none;stroke-width:2;stroke-linecap:round;stroke-linejoin:round;stroke-miterlimit:3;stroke:#000000;stroke-opacity:1" d="M-18.4,-55.65Q-26.4 -30.35 -24.75 -1.35Q-26.05 9.65 -10.75 11.65Q10.65 14.45 24.95 11.65Q32.1 10.3 35.3 6.4Q39.1 1.8 37.95 -6.65Q35.25 -32.35 37.25 -53L38.25 -65Q38.6 -69.65 19.95 -69.35L-1.05 -69Q-9.05 -69.35 -11.75 -70.65Q-16.4 -63.65 -18.4 -55.65z" />
<path style="fill:#FFBFBF;fill-opacity:1" d="M-24.4,-19.65Q-39.4 -18.65 -33.4 -35.35Q-28.4 -47 -22.4 -39.35L-24.4 -19.65" />
<path style="fill:none;stroke-width:2;stroke-linecap:round;stroke-linejoin:round;stroke-miterlimit:3;stroke:#000000;stroke-opacity:1" d="M-22.4,-39.35Q-28.4 -47 -33.4 -35.35Q-39.4 -18.65 -24.4 -19.65L-22.4 -39.35z" />
<path style="fill:none;stroke-width:2;stroke-linecap:round;stroke-linejoin:round;stroke-miterlimit:3;stroke:#000000;stroke-opacity:1" d="M-30.4,-32.65Q-26.75 -33 -24.05 -29" />
<path style="fill:#000000;fill-opacity:1" d="M20.95,-31.1Q20.95 -28 19.7 -25.85Q18.4 -23.65 16.6 -23.65Q14.8 -23.65 13.55 -25.85Q12.25 -28 12.25 -31.1Q12.25 -34.15 13.55 -36.35Q14.8 -38.5 16.6 -38.5Q18.4 -38.5 19.7 -36.35Q20.95 -34.15 20.95 -31.1" />
<path style="fill:none;stroke-width:1;stroke-linecap:round;stroke-linejoin:round;stroke-miterlimit:3;stroke:#000000;stroke-opacity:1" d="M20.95,-31.1Q20.95 -28 19.7 -25.85Q18.4 -23.65 16.6 -23.65Q14.8 -23.65 13.55 -25.85Q12.25 -28 12.25 -31.1Q12.25 -34.15 13.55 -36.35Q14.8 -38.5 16.6 -38.5Q18.4 -38.5 19.7 -36.35Q20.95 -34.15 20.95 -31.1z" />
<path style="fill:#000000;fill-opacity:1" d="M22.95,-31.85L15.6 -38.2Q21.6 -40.9 22.95 -31.85" />
<path style="fill:none;stroke-width:1;stroke-linecap:round;stroke-linejoin:round;stroke-miterlimit:3;stroke:#000000;stroke-opacity:1" d="M22.95,-31.85Q21.6 -40.9 15.6 -38.2" />
<path style="fill:#000000;fill-opacity:1" d="M-9.8,-35.8Q-8.55 -38 -6.75 -38Q-4.95 -38 -3.65 -35.8Q-2.4 -33.65 -2.4 -30.6Q-2.4 -27.5 -3.65 -25.35Q-4.95 -23.15 -6.75 -23.15Q-8.55 -23.15 -9.8 -25.35Q-11.05 -27.5 -11.05 -30.6Q-11.05 -33.65 -9.8 -35.8" />
<path style="fill:none;stroke-width:1;stroke-linecap:round;stroke-linejoin:round;stroke-miterlimit:3;stroke:#000000;stroke-opacity:1" d="M-11.05,-30.6Q-11.05 -27.5 -9.8 -25.35Q-8.55 -23.15 -6.75 -23.15Q-4.95 -23.15 -3.65 -25.35Q-2.4 -27.5 -2.4 -30.6Q-2.4 -33.65 -3.65 -35.8Q-4.95 -38 -6.75 -38Q-8.55 -38 -9.8 -35.8Q-11.05 -33.65 -11.05 -30.6z" />
<path style="fill:#000000;fill-opacity:1" d="M-5.75,-37.7L-13.05 -31.35Q-11.75 -40.4 -5.75 -37.7" />
<path style="fill:none;stroke-width:1;stroke-linecap:round;stroke-linejoin:round;stroke-miterlimit:3;stroke:#000000;stroke-opacity:1" d="M-13.05,-31.35Q-11.75 -40.4 -5.75 -37.7" />
<path style="fill:#FFBFBF;fill-opacity:1" d="M2.95,-40L10.95 -14Q-4.75 -13.65 -7.75 -14Q-8.4 -33.65 2.95 -40" />
<path style="fill:none;stroke-width:2;stroke-linecap:round;stroke-linejoin:round;stroke-miterlimit:3;stroke:#000000;stroke-opacity:1" d="M10.95,-14Q-4.75 -13.65 -7.75 -14Q-8.4 -33.65 2.95 -40" />
<path style="fill:#FFFF00;fill-opacity:1" d="M13.25,-41.65Q12.25 -45.35 17.25 -45.65Q22.25 -46 24.6 -43Q16.6 -42.65 13.25 -41.65" />
<path style="fill:none;stroke-width:1;stroke-linecap:round;stroke-linejoin:round;stroke-miterlimit:3;stroke:#000000;stroke-opacity:1" d="M13.25,-41.65Q12.25 -45.35 17.25 -45.65Q22.25 -46 24.6 -43Q16.6 -42.65 13.25 -41.65z" />
<path style="fill:#FFFF00;fill-opacity:1" d="M-7.05,-46Q-1.05 -45 -2.05 -41Q-6.4 -44 -13.4 -42Q-13.05 -47 -7.05 -46" />
<path style="fill:none;stroke-width:1;stroke-linecap:round;stroke-linejoin:round;stroke-miterlimit:3;stroke:#000000;stroke-opacity:1" d="M-13.4,-42Q-6.4 -44 -2.05 -41Q-1.05 -45 -7.05 -46Q-13.05 -47 -13.4 -42z" />
<path style="fill:none;stroke-width:2;stroke-linecap:round;stroke-linejoin:round;stroke-miterlimit:3;stroke:#FF4040;stroke-opacity:1" d="M-16.05,-7.65Q-5.05 -2.35 24.6 -6.65" />
<path style="fill:#FFFFFF;fill-opacity:1" d="M17.25,11.35L20.25 15.35L25.6 14.65Q34.25 24.35 11.25 115L-2.75 99L-15.05 113L-21.75 102.65L-18.05 15.65L-12.05 14L-8.75 10Q-3.05 12.35 4.95 19Q7.6 15 17.25 11.35" />
<path style="fill:none;stroke-width:2;stroke-linecap:round;stroke-linejoin:round;stroke-miterlimit:3;stroke:#000000;stroke-opacity:1" d="M4.95,19Q-3.05 12.35 -8.75 10L-12.05 14L-18.05 15.65L-21.75 102.65L-15.05 113L-2.75 99L11.25 115Q34.25 24.35 25.6 14.65L20.25 15.35L17.25 11.35Q7.6 15 4.95 19z" />
<path style="fill:none;stroke-width:2;stroke-linecap:round;stroke-linejoin:round;stroke-miterlimit:3;stroke:#000000;stroke-opacity:1" d="M3.25,24Q-0.4 48.35 4.6 66" />
<path style="fill:#FFFFFF;fill-opacity:1" d="M-2.75,99L-0.05 69Q4 64.95 7.05 60.1L-2.75 99M7.05,60.1L15.95 24.65Q15.95 45.8 7.05 60.1" />
<path style="fill:none;stroke-width:2;stroke-linecap:round;stroke-linejoin:round;stroke-miterlimit:3;stroke:#000000;stroke-opacity:1" d="M15.95,24.65Q15.95 45.8 7.05 60.1Q4 64.95 -0.05 69L-2.75 99" />
<path style="fill:none;stroke-width:2;stroke-linecap:round;stroke-linejoin:round;stroke-miterlimit:3;stroke:#000000;stroke-opacity:1" d="M-10.05,28.65Q-12.05 47 -0.05 69" />
<path style="fill:#FFFFFF;fill-opacity:1" d="M1.95,24.65Q-4.75 29 -9.75 30.35Q-19.4 25 -11.4 15.65Q1.6 17.35 2.6 21.65L1.95 24.65" />
<path style="fill:none;stroke-width:2;stroke-linecap:round;stroke-linejoin:round;stroke-miterlimit:3;stroke:#000000;stroke-opacity:1" d="M2.6,21.65Q1.6 17.35 -11.4 15.65Q-19.4 25 -9.75 30.35Q-4.75 29 1.95 24.65L2.6 21.65z" />
<path style="fill:#FFFFFF;fill-opacity:1" d="M7.25,22Q11.25 16.35 20.6 17.65Q25.6 21.35 19.6 31.65L7.6 26L7.25 22" />
<path style="fill:none;stroke-width:2;stroke-linecap:round;stroke-linejoin:round;stroke-miterlimit:3;stroke:#000000;stroke-opacity:1" d="M7.25,22Q11.25 16.35 20.6 17.65Q25.6 21.35 19.6 31.65L7.6 26L7.25 22z" />
<path style="fill:#FFFFFF;fill-opacity:1" d="M9.55,24.25Q9.45 25.3 7.95 25.9L4.35 26.3Q2.3 26.1 0.9 25.25Q-0.5 24.35 -0.4 23.35Q-0.3 22.3 1.2 21.7Q2.75 21.1 4.8 21.3Q6.85 21.5 8.25 22.35Q9.65 23.25 9.55 24.25" />
<path style="fill:none;stroke-width:2;stroke-linecap:round;stroke-linejoin:round;stroke-miterlimit:3;stroke:#000000;stroke-opacity:1" d="M9.55,24.25Q9.45 25.3 7.95 25.9L4.35 26.3Q2.3 26.1 0.9 25.25Q-0.5 24.35 -0.4 23.35Q-0.3 22.3 1.2 21.7Q2.75 21.1 4.8 21.3Q6.85 21.5 8.25 22.35Q9.65 23.25 9.55 24.25z" />
<path style="fill:#000000;fill-opacity:1" d="M49.6,35.65Q40.25 61.65 41.6 82.35Q42.05 89.3 44.45 95.85Q45.9 99.8 50.2 108.55Q54.9 118.15 57.65 125.05Q62.2 136.4 65.75 150L58.75 150.65Q43.25 126.65 37.6 98.65Q22.95 110.35 15.95 113Q8.95 98 7.6 89.65Q30.25 58 25.6 14.65Q43.95 17 48.25 22Q53.6 26.65 49.6 35.65" />
<path style="fill:none;stroke-width:2;stroke-linecap:round;stroke-linejoin:round;stroke-miterlimit:3;stroke:#666666;stroke-opacity:1" d="M48.25,22Q43.95 17 25.6 14.65Q30.25 58 7.6 89.65Q8.95 98 15.95 113Q22.95 110.35 37.6 98.65Q43.25 126.65 58.75 150.65L65.75 150Q62.2 136.4 57.65 125.05Q54.9 118.15 50.2 108.55Q45.9 99.8 44.45 95.85Q42.05 89.3 41.6 82.35Q40.25 61.65 49.6 35.65Q53.6 26.65 48.25 22z" />
<path style="fill:#000000;fill-opacity:1" d="M35.95,38.65L26.6 47.65L42.95 42.35Q28.25 74.65 7.6 89.65Q27.95 42.65 24.95 11.65Q26.95 11.35 29.95 19Q32.95 26.65 35.95 38.65" />
<path style="fill:none;stroke-width:2;stroke-linecap:round;stroke-linejoin:round;stroke-miterlimit:3;stroke:#666666;stroke-opacity:1" d="M35.95,38.65L26.6 47.65L42.95 42.35Q28.25 74.65 7.6 89.65Q27.95 42.65 24.95 11.65Q26.95 11.35 29.95 19Q32.95 26.65 35.95 38.65z" />
<path style="fill:#000000;fill-opacity:1" d="M-16.75,15.35Q-28.05 47 -10.75 88.65Q-14.4 106 -25.05 114.35Q-36.4 107.35 -43.4 98.35Q-55.4 118.35 -55.05 153.35L-69.75 153.35Q-68.75 129.65 -51.75 98.65Q-40.05 85.35 -45.4 55.35Q-50.05 36.35 -48.6 30Q-47.9 28.7 -37.9 21.35Q-31.25 17.35 -16.75 15.35" />
<path style="fill:none;stroke-width:2;stroke-linecap:round;stroke-linejoin:round;stroke-miterlimit:3;stroke:#666666;stroke-opacity:1" d="M-37.9,21.35Q-47.9 28.7 -48.6 30Q-50.05 36.35 -45.4 55.35Q-40.05 85.35 -51.75 98.65Q-68.75 129.65 -69.75 153.35L-55.05 153.35Q-55.4 118.35 -43.4 98.35Q-36.4 107.35 -25.05 114.35Q-14.4 106 -10.75 88.65Q-28.05 47 -16.75 15.35Q-31.25 17.35 -37.9 21.35z" />
<path style="fill:#000000;fill-opacity:1" d="M-41.25,54Q-48.25 58.5 -51.25 81.7Q-68.9 82 -66.6 64.35L-71.9 65.35Q-76.6 50.7 -60.75 35Q-46.4 21 -39.75 24.5L-41.25 54" />
<path style="fill:none;stroke-width:2;stroke-linecap:round;stroke-linejoin:round;stroke-miterlimit:3;stroke:#666666;stroke-opacity:1" d="M-39.75,24.5Q-46.4 21 -60.75 35Q-76.6 50.7 -71.9 65.35L-66.6 64.35Q-68.9 82 -51.25 81.7Q-48.25 58.5 -41.25 54" />
<path style="fill:#000000;fill-opacity:1" d="M-15.05,12.65Q-24.4 50.35 -10.75 88.65Q-29.4 72.35 -40.05 39L-24.4 47.65L-32.4 37Q-25.05 13.65 -15.05 12.65" />
<path style="fill:none;stroke-width:2;stroke-linecap:round;stroke-linejoin:round;stroke-miterlimit:3;stroke:#666666;stroke-opacity:1" d="M-15.05,12.65Q-24.4 50.35 -10.75 88.65Q-29.4 72.35 -40.05 39L-24.4 47.65L-32.4 37Q-25.05 13.65 -15.05 12.65z" />
<path style="fill:#FFFFFF;fill-opacity:1" d="M31.65,100.1L19.9 110.75Q11.85 114.75 11.85 104.15Q11.45 98.25 15.15 95.7Q21 90.2 31.25 89.45L31.65 100.1" />
<path style="fill:none;stroke-width:2;stroke-linecap:round;stroke-linejoin:round;stroke-miterlimit:3;stroke:#000000;stroke-opacity:1" d="M31.25,89.45Q21 90.2 15.15 95.7Q11.45 98.25 11.85 104.15Q11.85 114.75 19.9 110.75L31.65 100.1L31.25 89.45z" />
<path style="fill:#007FFF;fill-opacity:1" d="M-12.3,49.65L54.6 129.85L49.6 134L-17.3 53.8L-12.3 49.65" />
<path style="fill:none;stroke-width:1;stroke-linecap:round;stroke-linejoin:round;stroke-miterlimit:3;stroke:#1CFFF4;stroke-opacity:1" d="M-12.3,49.65L54.6 129.85L49.6 134L-17.3 53.8L-12.3 49.65z" />
<path style="fill:#007FFF;fill-opacity:1" d="M-11.65,46.85Q-11.2 47.4 -11.25 48.05Q-11.35 48.75 -11.9 49.2L-17.8 54.1Q-18.35 54.55 -19 54.5L-20.15 53.85Q-21.15 52.6 -19.9 51.5L-14 46.65Q-12.75 45.6 -11.65 46.85" />
<path style="fill:none;stroke-width:1;stroke-linecap:round;stroke-linejoin:round;stroke-miterlimit:3;stroke:#1CFFF4;stroke-opacity:1" d="M-11.65,46.85Q-11.2 47.4 -11.25 48.05Q-11.35 48.75 -11.9 49.2L-17.8 54.1Q-18.35 54.55 -19 54.5L-20.15 53.85Q-21.15 52.6 -19.9 51.5L-14 46.65Q-12.75 45.6 -11.65 46.85z" />
<path style="fill:#FFFF00;fill-opacity:1" d="M-15.45,39.3Q-13.45 41.75 -13.75 44.9Q-14.05 48.05 -16.5 50.05Q-18.95 52.05 -22.05 51.75Q-25.2 51.45 -27.2 49Q-29.2 46.6 -28.95 43.45Q-28.65 40.3 -26.2 38.3Q-23.75 36.3 -20.6 36.55Q-17.45 36.85 -15.45 39.3" />
<path style="fill:none;stroke-width:1;stroke-linecap:round;stroke-linejoin:round;stroke-miterlimit:3;stroke:#1CFFF4;stroke-opacity:1" d="M-15.45,39.3Q-13.45 41.75 -13.75 44.9Q-14.05 48.05 -16.5 50.05Q-18.95 52.05 -22.05 51.75Q-25.2 51.45 -27.2 49Q-29.2 46.6 -28.95 43.45Q-28.65 40.3 -26.2 38.3Q-23.75 36.3 -20.6 36.55Q-17.45 36.85 -15.45 39.3z" />
<path style="fill:#007FFF;fill-opacity:1" d="M57.75,130.85Q57.65 131.55 57.1 132L51.2 136.9L50 137.25Q49.3 137.15 48.85 136.65Q47.85 135.4 49.1 134.3L55 129.45Q56.25 128.4 57.35 129.65Q57.8 130.2 57.75 130.85" />
<path style="fill:none;stroke-width:1;stroke-linecap:round;stroke-linejoin:round;stroke-miterlimit:3;stroke:#1CFFF4;stroke-opacity:1" d="M57.35,129.65Q56.25 128.4 55 129.45L49.1 134.3Q47.85 135.4 48.85 136.65Q49.3 137.15 50 137.25L51.2 136.9L57.1 132Q57.65 131.55 57.75 130.85Q57.8 130.2 57.35 129.65z" />
<path style="fill:#FF0000;fill-opacity:1" d="M58.9,132.05Q62.05 132.35 64.05 134.8Q66.05 137.25 65.75 140.4Q65.45 143.5 63 145.55Q60.6 147.6 57.45 147.3Q54.3 147 52.3 144.55Q50.3 142.1 50.55 138.95Q50.85 135.85 53.3 133.8Q55.75 131.8 58.9 132.05" />
<path style="fill:none;stroke-width:1;stroke-linecap:round;stroke-linejoin:round;stroke-miterlimit:3;stroke:#1CFFF4;stroke-opacity:1" d="M53.3,133.8Q50.85 135.85 50.55 138.95Q50.3 142.1 52.3 144.55Q54.3 147 57.45 147.3Q60.6 147.6 63 145.55Q65.45 143.5 65.75 140.4Q66.05 137.25 64.05 134.8Q62.05 132.35 58.9 132.05Q55.75 131.8 53.3 133.8z" />
<path style="fill:#FFFFFF;fill-opacity:1" d="M44.1,105.25Q38.25 116.95 30.15 116.6Q24.65 117.7 21.75 111.85Q17.7 110.75 16.6 105.6Q11.45 101.95 17.7 97.15Q23.95 95.7 24.65 92.4Q27.95 90.55 34.2 88.35L47.05 102.65L44.1 105.25" />
<path style="fill:none;stroke-width:2;stroke-linecap:round;stroke-linejoin:round;stroke-miterlimit:3;stroke:#000000;stroke-opacity:1" d="M47.05,102.65L34.2 88.35Q27.95 90.55 24.65 92.4Q23.95 95.7 17.7 97.15Q11.45 101.95 16.6 105.6Q17.7 110.75 21.75 111.85Q24.65 117.7 30.15 116.6Q38.25 116.95 44.1 105.25L47.05 102.65z" />
<path style="fill:#000000;fill-opacity:1" d="M48.95,29.65Q73.6 50 79.25 64Q73.6 83 44.6 107Q40.25 96 30.25 88.35Q41.25 73.5 53.25 65Q45.95 57.35 43.25 52.35L48.95 29.65" />
<path style="fill:none;stroke-width:2;stroke-linecap:round;stroke-linejoin:round;stroke-miterlimit:3;stroke:#666666;stroke-opacity:1" d="M48.95,29.65Q73.6 50 79.25 64Q73.6 83 44.6 107Q40.25 96 30.25 88.35Q41.25 73.5 53.25 65Q45.95 57.35 43.25 52.35" />
<path style="fill:#000000;fill-opacity:1" d="M-62.25,52L-73.6 72.7L-80.6 64Q-74.9 51.35 -62.25 52" />
<path style="fill:none;stroke-width:1;stroke-linecap:round;stroke-linejoin:round;stroke-miterlimit:3;stroke:#666666;stroke-opacity:1" d="M-73.6,72.7L-80.6 64Q-74.9 51.35 -62.25 52" />
<path style="fill:none;stroke-width:2;stroke-linecap:round;stroke-linejoin:round;stroke-miterlimit:3;stroke:#666666;stroke-opacity:1" d="M-51.85,67.65Q-51.85 72.75 -55.45 76.35Q-59.05 79.95 -64.15 79.95Q-69.25 79.95 -72.85 76.35Q-76.45 72.75 -76.45 67.65Q-76.45 62.55 -72.85 58.95Q-69.25 55.35 -64.15 55.35Q-59.05 55.35 -55.45 58.95Q-51.85 62.55 -51.85 67.65z" />
<path style="fill:#FFFFFF;fill-opacity:1" d="M-57,65.25L-70.2 59.75Q-68.35 54.25 -62.15 56.45Q-55.9 58.65 -57 65.25" />
<path style="fill:none;stroke-width:1;stroke-linecap:round;stroke-linejoin:round;stroke-miterlimit:3;stroke:#000000;stroke-opacity:1" d="M-70.2,59.75Q-68.35 54.25 -62.15 56.45Q-55.9 58.65 -57 65.25" />
<path style="fill:#000000;fill-opacity:1" d="M-128.95,71.05Q-126.55 80.3 -80.65 80.05L-80.35 80.05Q-34.45 80.3 -32.05 71.05Q-29.35 75.85 -44.35 83.05L-33.55 161.05Q-51.85 176.2 -80.35 175.15Q-114.85 175.15 -127.45 161.05L-116.65 83.05Q-131.65 75.85 -128.95 71.05" />
<path style="fill:none;stroke-width:1;stroke-linecap:round;stroke-linejoin:round;stroke-miterlimit:3;stroke:#000000;stroke-opacity:1" d="M-116.65,83.05L-127.45 161.05Q-114.85 175.15 -80.35 175.15Q-51.85 176.2 -33.55 161.05L-44.35 83.05Q-29.35 75.85 -32.05 71.05Q-34.45 80.3 -80.35 80.05L-80.65 80.05Q-126.55 80.3 -128.95 71.05Q-131.65 75.85 -116.65 83.05z" />
<path style="fill:#333333;fill-opacity:1" d="M-128.5,71.2Q-128.5 67.8 -114.4 65.35Q-100.3 62.95 -80.3 62.95Q-60.3 62.95 -46.2 65.35Q-32.05 67.8 -32.05 71.2Q-32.05 74.6 -46.2 77.05Q-60.3 79.45 -80.3 79.45Q-100.25 79.45 -114.4 77.05Q-128.5 74.6 -128.5 71.2" />
<path style="fill:none;stroke-width:1;stroke-linecap:round;stroke-linejoin:round;stroke-miterlimit:3;stroke:#000000;stroke-opacity:1" d="M-128.5,71.2Q-128.5 67.8 -114.4 65.35Q-100.3 62.95 -80.3 62.95Q-60.3 62.95 -46.2 65.35Q-32.05 67.8 -32.05 71.2Q-32.05 74.6 -46.2 77.05Q-60.3 79.45 -80.3 79.45Q-100.25 79.45 -114.4 77.05Q-128.5 74.6 -128.5 71.2z" />
<path style="fill:#000000;fill-opacity:1" d="M-114.25,71.2Q-114.25 68.9 -104.1 67.25Q-93.95 65.6 -79.6 65.6Q-65.25 65.6 -55.1 67.25Q-44.95 68.9 -44.95 71.2Q-44.95 73.55 -55.1 75.2Q-65.3 76.85 -79.6 76.85Q-93.95 76.85 -104.1 75.2Q-114.25 73.55 -114.25 71.2" />
<path style="fill:none;stroke-width:1;stroke-linecap:round;stroke-linejoin:round;stroke-miterlimit:3;stroke:#000000;stroke-opacity:1" d="M-114.25,71.2Q-114.25 68.9 -104.1 67.25Q-93.95 65.6 -79.6 65.6Q-65.25 65.6 -55.1 67.25Q-44.95 68.9 -44.95 71.2Q-44.95 73.55 -55.1 75.2Q-65.3 76.85 -79.6 76.85Q-93.95 76.85 -104.1 75.2Q-114.25 73.55 -114.25 71.2z" />
<path style="fill:#FFFFFF;fill-opacity:1" d="M-62.2,66.8Q-63.55 65.5 -70.8 64.6Q-77.35 60.8 -68.85 57.8L-65 59.4Q-57.75 63.65 -62.2 66.8" />
<path style="fill:none;stroke-width:1;stroke-linecap:round;stroke-linejoin:round;stroke-miterlimit:3;stroke:#000000;stroke-opacity:1" d="M-68.85,57.8Q-77.35 60.8 -70.8 64.6Q-63.55 65.5 -62.2 66.8Q-57.75 63.65 -65 59.4" />
<path style="fill:none;stroke-width:6;stroke-linecap:round;stroke-linejoin:round;stroke-miterlimit:3;stroke:#666666;stroke-opacity:1" d="M-54.6,88L-42.6 158.7" />
</g>
</svg>
