<?xml version="1.0" encoding="utf-8"?>
<svg version="1.1" id="Layer_1"
xmlns="http://www.w3.org/2000/svg"
xmlns:xlink="http://www.w3.org/1999/xlink"
xmlns:author="http://www.sothink.com"
width="256px" height="217px"
xml:space="preserve">
<g id="372" transform="matrix(1, 0, 0, 1, 127.95, 108.4)">
<path style="fill:#FFBF7F;fill-opacity:1" d="M33.85,67.05L45.55 70.95L60.7 88.7Q54.65 87.4 46.85 93.9Q41.2 88.25 33.4 90.45L33.85 67.05" />
<path style="fill:none;stroke-width:2;stroke-linecap:round;stroke-linejoin:round;stroke-miterlimit:3;stroke:#000000;stroke-opacity:1" d="M33.4,90.45Q41.2 88.25 46.85 93.9Q54.65 87.4 60.7 88.7L45.55 70.95L33.85 67.05L33.4 90.45z" />
<path style="fill:#FFCC00;fill-opacity:1" d="M23,41.45L34.7 58.35Q45.1 57.05 52.05 68.35L62.85 87.4L58.55 89.55Q49 77 45.55 75.25Q53.75 93.9 48.55 96.95Q45.95 100.4 43.8 89.55Q37.75 74.4 35.55 73.1Q37.3 93.45 32.95 93.45Q30.35 94.35 30.8 84.8Q29.5 76.15 27.75 70.05Q27.35 63.55 27.75 60.95Q18.65 45.35 15.65 43.2Q12.6 41.05 23 41.45" />
<path style="fill:none;stroke-width:2;stroke-linecap:round;stroke-linejoin:round;stroke-miterlimit:3;stroke:#000000;stroke-opacity:1" d="M23,41.45L34.7 58.35Q45.1 57.05 52.05 68.35L62.85 87.4L58.55 89.55Q49 77 45.55 75.25Q53.75 93.9 48.55 96.95Q45.95 100.4 43.8 89.55Q37.75 74.4 35.55 73.1Q37.3 93.45 32.95 93.45Q30.35 94.35 30.8 84.8Q29.5 76.15 27.75 70.05Q27.35 63.55 27.75 60.95Q18.65 45.35 15.65 43.2Q12.6 41.05 23 41.45z" />
<path style="fill:#FFFFFF;fill-opacity:1" d="M108.45,-70.55Q108.8 -66.7 107.7 -64.65Q105.9 -61.4 100.15 -60.55Q98.85 -60.35 95.9 -60.5L89.65 -60.8Q80.2 -61.05 71.4 -59.1Q43.15 -52.9 12.45 -23.2L-3.55 -8.85L-14.85 -16.85Q8.8 -43.85 12.45 -46.85L18.2 -52.15Q23.7 -57.2 28.95 -61.1Q45.5 -73.55 60.15 -75.85Q76.2 -78.4 92.95 -75.95Q99.7 -74.95 104.05 -73.45Q108.35 -71.95 108.45 -70.55" />
<path style="fill:none;stroke-width:3;stroke-linecap:round;stroke-linejoin:round;stroke-miterlimit:3;stroke:#000000;stroke-opacity:1" d="M108.45,-70.55Q108.8 -66.7 107.7 -64.65Q105.9 -61.4 100.15 -60.55Q98.85 -60.35 95.9 -60.5L89.65 -60.8Q80.2 -61.05 71.4 -59.1Q43.15 -52.9 12.45 -23.2L-3.55 -8.85L-14.85 -16.85Q8.8 -43.85 12.45 -46.85L18.2 -52.15Q23.7 -57.2 28.95 -61.1Q45.5 -73.55 60.15 -75.85Q76.2 -78.4 92.95 -75.95Q99.7 -74.95 104.05 -73.45Q108.35 -71.95 108.45 -70.55z" />
<path style="fill:#FFFFFF;fill-opacity:1" d="M65.8,23.95Q81.3 25.45 79.8 29.95Q81.3 44.95 55.3 49.95Q33.8 55.95 8.8 50.95Q-10.6 47.05 -23.8 35.35Q-37.85 22.85 -43.7 2.45Q-47.2 -16.55 -58.7 -25.55Q-73.95 -36.25 -79.15 -53.15Q-84.35 -70.05 -72 -83.05Q-53.8 -99.95 -37.55 -88.9Q-26.85 -81.65 -24.75 -68.95Q-23.3 -60.45 -25.85 -50.55Q-26.55 -47.95 -28.35 -44.6L-30.9 -39.55Q-32 -36.85 -31.55 -34.5Q-31 -31.7 -28.2 -28.55Q-20.7 -19.55 -4.7 -19.05Q24.8 -17.05 47.8 12.45Q55.3 20.95 65.8 23.95" />
<path style="fill:none;stroke-width:3;stroke-linecap:round;stroke-linejoin:round;stroke-miterlimit:3;stroke:#000000;stroke-opacity:1" d="M65.8,23.95Q81.3 25.45 79.8 29.95Q81.3 44.95 55.3 49.95Q33.8 55.95 8.8 50.95Q-10.6 47.05 -23.8 35.35Q-37.85 22.85 -43.7 2.45Q-47.2 -16.55 -58.7 -25.55Q-73.95 -36.25 -79.15 -53.15Q-84.35 -70.05 -72 -83.05Q-53.8 -99.95 -37.55 -88.9Q-26.85 -81.65 -24.75 -68.95Q-23.3 -60.45 -25.85 -50.55Q-26.55 -47.95 -28.35 -44.6L-30.9 -39.55Q-32 -36.85 -31.55 -34.5Q-31 -31.7 -28.2 -28.55Q-20.7 -19.55 -4.7 -19.05Q24.8 -17.05 47.8 12.45Q55.3 20.95 65.8 23.95z" />
<path style="fill:#FFFFFF;fill-opacity:1" d="M73.45,29.8Q82.15 31.8 90.15 31.8Q92.05 31.8 91.75 33.45Q91.45 35.15 89.2 36.6Q86.5 38.3 82.65 38.4L78.9 38.15Q84 39.45 87.8 39.45Q90.05 39.45 89.4 40.75Q88.75 42 86 43.15Q78.8 46.15 70.35 43.15Q87.15 49.75 61.8 47.45L73.45 29.8" />
<path style="fill:none;stroke-width:3;stroke-linecap:round;stroke-linejoin:round;stroke-miterlimit:3;stroke:#000000;stroke-opacity:1" d="M73.45,29.8Q82.15 31.8 90.15 31.8Q92.05 31.8 91.75 33.45Q91.45 35.15 89.2 36.6Q86.5 38.3 82.65 38.4L78.9 38.15Q84 39.45 87.8 39.45Q90.05 39.45 89.4 40.75Q88.75 42 86 43.15Q78.8 46.15 70.35 43.15Q87.15 49.75 61.8 47.45M69.45,42.8L69.8 42.95L70.35 43.15M78.9,38.15Q75.8 37.6 72.45 36.15" />
<path style="fill:#FFFF00;fill-opacity:1" d="M-108,-72.2L-77.65 -57.9Q-74.6 -53.55 -79.4 -51.85Q-107.1 -54 -117.5 -52.25Q-132.25 -54.45 -122.7 -64.4Q-113.2 -74.35 -108 -72.2" />
<path style="fill:none;stroke-width:3;stroke-linecap:round;stroke-linejoin:round;stroke-miterlimit:3;stroke:#000000;stroke-opacity:1" d="M-108,-72.2L-77.65 -57.9Q-74.6 -53.55 -79.4 -51.85Q-107.1 -54 -117.5 -52.25Q-132.25 -54.45 -122.7 -64.4Q-113.2 -74.35 -108 -72.2z" />
<path style="fill:#FF4040;fill-opacity:1" d="M-105.8,-69.15L-82.85 -58.75Q-91.1 -61.8 -117.5 -58.35Q-120.1 -66.55 -105.8 -69.15" />
<path style="fill:none;stroke-width:2;stroke-linecap:round;stroke-linejoin:round;stroke-miterlimit:3;stroke:#000000;stroke-opacity:1" d="M-117.5,-58.35Q-91.1 -61.8 -82.85 -58.75L-105.8 -69.15Q-120.1 -66.55 -117.5 -58.35z" />
<path style="fill:#FFFF00;fill-opacity:1" d="M-113.6,-101.65Q-111.25 -98.8 -106.3 -95.3Q-101.05 -91.6 -95.05 -88.7Q-80 -81.55 -70.3 -83.9Q-59 -69.6 -77.65 -57.9Q-129.65 -66.15 -121.85 -106Q-119.7 -109.05 -113.6 -101.65" />
<path style="fill:none;stroke-width:3;stroke-linecap:round;stroke-linejoin:round;stroke-miterlimit:3;stroke:#000000;stroke-opacity:1" d="M-113.6,-101.65Q-111.25 -98.8 -106.3 -95.3Q-101.05 -91.6 -95.05 -88.7Q-80 -81.55 -70.3 -83.9Q-59 -69.6 -77.65 -57.9Q-129.65 -66.15 -121.85 -106Q-119.7 -109.05 -113.6 -101.65z" />
<path style="fill:#FFFFFF;fill-opacity:1" d="M-51.2,-89.95Q-42.3 -97.15 -34.3 -87.8Q-27.55 -79.85 -33.9 -72.2L-51.2 -89.95" />
<path style="fill:none;stroke-width:2;stroke-linecap:round;stroke-linejoin:round;stroke-miterlimit:3;stroke:#000000;stroke-opacity:1" d="M-51.2,-89.95Q-42.3 -97.15 -34.3 -87.8Q-27.55 -79.85 -33.9 -72.2" />
<path style="fill:none;stroke-width:2;stroke-linecap:round;stroke-linejoin:round;stroke-miterlimit:3;stroke:#000000;stroke-opacity:1" d="M-49.05,-86.05Q-36.75 -86.5 -40.8 -73.05" />
<path style="fill:none;stroke-width:2;stroke-linecap:round;stroke-linejoin:round;stroke-miterlimit:3;stroke:#000000;stroke-opacity:1" d="M-40.8,-74.95Q-41.55 -71.25 -44.6 -67.7Q-47.65 -64.15 -51.2 -62.85Q-54.75 -61.55 -56.7 -63.25Q-58.7 -64.95 -57.95 -68.65Q-57.2 -72.35 -54.15 -75.9Q-51.1 -79.45 -47.55 -80.75Q-44 -82.05 -42 -80.35Q-40.05 -78.65 -40.8 -74.95z" />
<path style="fill:#000000;fill-opacity:1" d="M-43.6,-76.85Q-44.7 -73.6 -47.6 -70.25Q-50.5 -66.85 -53.5 -65.3Q-56.5 -63.75 -57.85 -64.9Q-59.25 -66.05 -58.15 -69.3Q-57.05 -72.5 -54.15 -75.9Q-51.25 -79.25 -48.25 -80.8Q-45.25 -82.35 -43.85 -81.2Q-42.5 -80.05 -43.6 -76.85" />
<path style="fill:none;stroke-width:1;stroke-linecap:round;stroke-linejoin:round;stroke-miterlimit:3;stroke:#000000;stroke-opacity:1" d="M-43.6,-76.85Q-44.7 -73.6 -47.6 -70.25Q-50.5 -66.85 -53.5 -65.3Q-56.5 -63.75 -57.85 -64.9Q-59.25 -66.05 -58.15 -69.3Q-57.05 -72.5 -54.15 -75.9Q-51.25 -79.25 -48.25 -80.8Q-45.25 -82.35 -43.85 -81.2Q-42.5 -80.05 -43.6 -76.85z" />
<path style="fill:#FFFFFF;fill-opacity:1" d="M63.45,-58.2Q97.45 -60.55 97.15 -53.55Q96.9 -48.4 86.35 -33.35Q76.1 -18.65 64.8 -6.85Q50.15 8.45 19.8 19.45L-11.2 -2.85L11.15 -21.85L63.45 -58.2" />
<path style="fill:#FFFFFF;fill-opacity:1" d="M54.45,5.8Q53.6 12.9 40.8 11.8Q33.15 11.15 33.15 10.45L44.95 7.9L44.55 7.25Q43.95 4.95 46.25 4.6Q49.6 4.1 52.6 5.25Q53.2 5.5 53.4 6.05L54.45 5.8" />
<path style="fill:none;stroke-width:2;stroke-linecap:round;stroke-linejoin:round;stroke-miterlimit:3;stroke:#000000;stroke-opacity:1" d="M54.45,5.8Q53.6 12.9 40.8 11.8Q33.15 11.15 33.15 10.45" />
<path style="fill:#FFFFFF;fill-opacity:1" d="M51.75,5.15L50.6 4.65L49.7 3.9Q48 2.1 50 0.7Q50.3 0.4 50.7 0.35L49.4 0.1Q48.35 -0.05 48.25 -1.15Q48 -3.2 50 -3.4L53.85 -3.1L54.5 -3.25Q57.7 -3.65 59.65 -2.35Q61.5 -3.15 62.25 -1.3Q65 0.5 62.7 2.55L62 2.75L61.7 2.7Q61.25 3.5 60.2 4.1L58.5 4.75L54.85 4.9L53.8 5.3L51.75 5.15" />
<path style="fill:none;stroke-width:2;stroke-linecap:round;stroke-linejoin:round;stroke-miterlimit:3;stroke:#000000;stroke-opacity:1" d="M53.8,5.3Q63.45 6.95 64.15 0.15M53.8,5.3L53.15 5.15L50.6 4.65Q43.2 3.1 45.8 2.8" />
<path style="fill:#FFFFFF;fill-opacity:1" d="M72.45,-6.2Q72.15 0.45 61.45 -0.85Q50.8 -2.2 51.45 -4.85L62 -5.5Q60.75 -7.1 61.4 -10.05Q61.75 -11.65 63.25 -12.05L64.5 -12.25Q71.25 -11.3 69.25 -6L72.45 -6.2" />
<path style="fill:none;stroke-width:2;stroke-linecap:round;stroke-linejoin:round;stroke-miterlimit:3;stroke:#000000;stroke-opacity:1" d="M72.45,-6.2Q72.15 0.45 61.45 -0.85Q50.8 -2.2 51.45 -4.85" />
<path style="fill:#FFFFFF;fill-opacity:1" d="M60.45,-10.85L67.65 -11.7L67.35 -12.7Q66.65 -15.85 69.1 -17.9L69.6 -18.05L70.35 -18.45L70.35 -18.5Q77.25 -18.8 76.5 -12.8L79.8 -13.2Q80.8 -4.55 69.8 -6.55Q58.8 -8.55 60.45 -10.85" />
<path style="fill:none;stroke-width:2;stroke-linecap:round;stroke-linejoin:round;stroke-miterlimit:3;stroke:#000000;stroke-opacity:1" d="M79.8,-13.2Q80.8 -4.55 69.8 -6.55Q58.8 -8.55 60.45 -10.85" />
<path style="fill:#FFFFFF;fill-opacity:1" d="M88.8,-21.55Q89.15 -11.2 76.45 -13.2Q63.8 -15.2 65.8 -15.85L69.65 -16.8L69.4 -17.1Q66.3 -21.3 70.1 -24.9L70.6 -25.05L71.35 -25.45L71.35 -25.5L79.8 -24.7Q80.75 -24.55 81.35 -23.55Q82.5 -21.65 82.4 -19.95L88.8 -21.55" />
<path style="fill:none;stroke-width:2;stroke-linecap:round;stroke-linejoin:round;stroke-miterlimit:3;stroke:#000000;stroke-opacity:1" d="M88.8,-21.55Q89.15 -11.2 76.45 -13.2Q63.8 -15.2 65.8 -15.85" />
<path style="fill:#FFFFFF;fill-opacity:1" d="M70.45,-21.2L77.15 -23.3L76.9 -23.6Q73.8 -27.8 77.6 -31.4L78.1 -31.55L78.85 -31.95L78.85 -32L84.45 -31.6L85.6 -32.9L86.1 -33.05L86.85 -33.45L86.85 -33.5L93.3 -32.7Q94.25 -32.55 94.85 -31.55L95.85 -29.25L98.8 -30.2Q96.45 -17.85 83.8 -18.85Q71.15 -19.85 70.45 -21.2" />
<path style="fill:none;stroke-width:2;stroke-linecap:round;stroke-linejoin:round;stroke-miterlimit:3;stroke:#000000;stroke-opacity:1" d="M98.8,-30.2Q96.45 -17.85 83.8 -18.85Q71.15 -19.85 70.45 -21.2" />
<path style="fill:#FFFFFF;fill-opacity:1" d="M95.45,-27.2Q82.8 -25.85 80.8 -30.85L84.7 -31.8Q81.1 -36 85.1 -39.9L85.6 -40.05L86.35 -40.45L86.35 -40.5L99.35 -39.75L100.6 -39Q101.7 -37.5 101.9 -36.1L107.8 -37.55Q108.15 -28.55 95.45 -27.2" />
<path style="fill:none;stroke-width:2;stroke-linecap:round;stroke-linejoin:round;stroke-miterlimit:3;stroke:#000000;stroke-opacity:1" d="M80.8,-30.85Q82.8 -25.85 95.45 -27.2Q108.15 -28.55 107.8 -37.55" />
<path style="fill:#FFFFFF;fill-opacity:1" d="M85.8,-38.85L91.55 -40.85L88.15 -41.15Q87.45 -41.25 87.05 -41.95Q84.35 -46.8 89 -49.95L89.75 -50.2Q98.75 -49.9 106.85 -52.5L114.3 -51.7Q115.25 -51.55 115.85 -50.55L116.4 -49.5L118.45 -50.2Q123.15 -40.2 104.45 -37.2Q85.8 -34.2 85.8 -38.85" />
<path style="fill:none;stroke-width:2;stroke-linecap:round;stroke-linejoin:round;stroke-miterlimit:3;stroke:#000000;stroke-opacity:1" d="M118.45,-50.2Q123.15 -40.2 104.45 -37.2Q85.8 -34.2 85.8 -38.85" />
<path style="fill:#FFFFFF;fill-opacity:1" d="M-16.85,-6.85Q-6.2 -13.55 5.15 -25.2Q16.45 -36.85 53.45 -61.2Q71.8 -73.2 96.15 -65.55Q105.45 -62.2 116.8 -62.2Q124.45 -62.85 126.45 -58.2Q125.15 -47.85 108.15 -49.55Q91.15 -51.2 88.15 -52.55Q68.45 -56.2 58.15 -49.55Q42.45 -42.85 14.8 -17.85Q-5.55 0.15 -7.55 -2.55L-16.85 -6.85" />
<path style="fill:none;stroke-width:3;stroke-linecap:round;stroke-linejoin:round;stroke-miterlimit:3;stroke:#000000;stroke-opacity:1" d="M-16.85,-6.85Q-6.2 -13.55 5.15 -25.2Q16.45 -36.85 53.45 -61.2Q71.8 -73.2 96.15 -65.55Q105.45 -62.2 116.8 -62.2Q124.45 -62.85 126.45 -58.2Q125.15 -47.85 108.15 -49.55Q91.15 -51.2 88.15 -52.55Q68.45 -56.2 58.15 -49.55Q42.45 -42.85 14.8 -17.85Q-5.55 0.15 -7.55 -2.55" />
<path style="fill:none;stroke-width:2;stroke-linecap:round;stroke-linejoin:round;stroke-miterlimit:3;stroke:#000000;stroke-opacity:1" d="M43.15,11.45Q42.8 20.45 34.15 16.15Q25.45 11.8 28.45 12.45" />
<path style="fill:none;stroke-width:2;stroke-linecap:round;stroke-linejoin:round;stroke-miterlimit:3;stroke:#000000;stroke-opacity:1" d="M34.15,16.15Q29.8 25.15 20.8 15.15" />
<path style="fill:#FFBF7F;fill-opacity:1" d="M72.45,75.15L86.3 87.7Q83.25 88.15 81.95 100.7L78.5 105.45Q74.15 100.25 62.05 96.35L61.15 77.3L72.45 75.15" />
<path style="fill:none;stroke-width:2;stroke-linecap:round;stroke-linejoin:round;stroke-miterlimit:3;stroke:#000000;stroke-opacity:1" d="M61.15,77.3L62.05 96.35Q74.15 100.25 78.5 105.45L81.95 100.7Q83.25 88.15 86.3 87.7L72.45 75.15L61.15 77.3z" />
<path style="fill:#FFCC00;fill-opacity:1" d="M82.4,87.7Q76.75 79.9 71.15 79.9Q87.15 97.25 82.4 105.9Q76.75 109.35 74.15 101.55Q69.4 87.7 63.75 81.2Q67.25 96.35 63.35 99.85Q58.55 100.25 57.25 87.7Q54.65 77.75 50.35 69.05Q48.15 64.3 49.05 61.7Q37.35 47.4 30.4 43.95Q35.15 37.45 43.4 43.95L53.35 53.9Q56.85 55.65 59.45 56.05Q68.55 56.95 75.9 66.45Q83.25 76 85.45 77.3Q93.65 87.7 90.2 94.2Q86.3 97.25 82.4 87.7" />
<path style="fill:none;stroke-width:2;stroke-linecap:round;stroke-linejoin:round;stroke-miterlimit:3;stroke:#000000;stroke-opacity:1" d="M82.4,87.7Q76.75 79.9 71.15 79.9Q87.15 97.25 82.4 105.9Q76.75 109.35 74.15 101.55Q69.4 87.7 63.75 81.2Q67.25 96.35 63.35 99.85Q58.55 100.25 57.25 87.7Q54.65 77.75 50.35 69.05Q48.15 64.3 49.05 61.7Q37.35 47.4 30.4 43.95Q35.15 37.45 43.4 43.95L53.35 53.9Q56.85 55.65 59.45 56.05Q68.55 56.95 75.9 66.45Q83.25 76 85.45 77.3Q93.65 87.7 90.2 94.2Q86.3 97.25 82.4 87.7z" />
</g>
</svg>
