<?xml version="1.0" encoding="utf-8"?>
<svg version="1.1" id="Layer_1"
xmlns="http://www.w3.org/2000/svg"
xmlns:xlink="http://www.w3.org/1999/xlink"
xmlns:author="http://www.sothink.com"
width="237px" height="260px"
xml:space="preserve">
<g id="366" transform="matrix(1, 0, 0, 1, 129.6, 84.4)">
<path style="fill:#FFFF00;fill-opacity:1" d="M-15.75,-74.85Q26.25 -95.15 42.55 -67.15Q55.25 -62.15 42.25 -35.5L-25.45 -38.85Q-30.75 -44.5 -27.75 -54.15Q-24.75 -63.85 -20.75 -66.15Q-23.1 -72.5 -15.75 -74.85" />
<path style="fill:none;stroke-width:2;stroke-linecap:round;stroke-linejoin:round;stroke-miterlimit:3;stroke:#000000;stroke-opacity:1" d="M-15.75,-74.85Q26.25 -95.15 42.55 -67.15Q55.25 -62.15 42.25 -35.5L-25.45 -38.85Q-30.75 -44.5 -27.75 -54.15Q-24.75 -63.85 -20.75 -66.15Q-23.1 -72.5 -15.75 -74.85z" />
<path style="fill:#FFBFBF;fill-opacity:1" d="M36.25,-37.85Q44.9 -40.5 46.55 -34.15Q50.95 -17.9 36.25 -17.5L36.25 -37.85" />
<path style="fill:none;stroke-width:2;stroke-linecap:round;stroke-linejoin:round;stroke-miterlimit:3;stroke:#000000;stroke-opacity:1" d="M36.25,-37.85Q44.9 -40.5 46.55 -34.15Q50.95 -17.9 36.25 -17.5L36.25 -37.85z" />
<path style="fill:#000000;fill-opacity:1" d="M38.9,97.45Q60.25 138.45 61.55 150.1L-62.1 152.45Q-53.45 105.45 -46.45 98.1Q-39.45 90.8 38.9 97.45" />
<path style="fill:#000000;fill-opacity:1" d="M42.55,97.45Q37.9 111.45 39.9 155.1L-47.1 155.1Q-44.45 131.45 -47.1 97.1L42.55 97.45" />
<path style="fill:none;stroke-width:2;stroke-linecap:round;stroke-linejoin:round;stroke-miterlimit:3;stroke:#666666;stroke-opacity:1" d="M-47.1,97.1Q-44.45 131.45 -47.1 155.1L39.9 155.1Q37.9 111.45 42.55 97.45L-47.1 97.1z" />
<path style="fill:none;stroke-width:2;stroke-linecap:round;stroke-linejoin:round;stroke-miterlimit:3;stroke:#000000;stroke-opacity:1" d="M36.55,-28.5Q39.55 -30.5 42.9 -28.15" />
<path style="fill:#FFBFBF;fill-opacity:1" d="M12,9.45Q15.25 11.45 15.25 14.3Q15.25 17.1 12 19.1Q8.8 21.1 4.25 21.1Q-0.3 21.1 -3.55 19.1Q-6.75 17.1 -6.75 14.3Q-6.75 11.45 -3.55 9.45Q-0.3 7.5 4.25 7.5Q8.8 7.5 12 9.45" />
<path style="fill:#FFBFBF;fill-opacity:1" d="M-0.75,-69.15L20.25 -69.5Q38.9 -69.85 38.55 -65.15L37.55 -53.15Q35.55 -32.5 38.25 -6.85Q40.4 8.55 25.25 11.45Q10.7 14.2 -10.45 11.45Q-25.75 9.45 -24.45 -1.5Q-26.1 -30.5 -18.1 -55.85Q-16.1 -63.85 -11.45 -70.85Q-8.75 -69.5 -0.75 -69.15" />
<path style="fill:none;stroke-width:2;stroke-linecap:round;stroke-linejoin:round;stroke-miterlimit:3;stroke:#000000;stroke-opacity:1" d="M-11.45,-70.85Q-16.1 -63.85 -18.1 -55.85Q-26.1 -30.5 -24.45 -1.5Q-25.75 9.45 -10.45 11.45Q10.7 14.2 25.25 11.45Q40.4 8.55 38.25 -6.85Q35.55 -32.5 37.55 -53.15L38.55 -65.15Q38.9 -69.85 20.25 -69.5L-0.75 -69.15Q-8.75 -69.5 -11.45 -70.85z" />
<path style="fill:#FFBFBF;fill-opacity:1" d="M-24.1,-19.85Q-39.1 -18.85 -33.1 -35.5Q-28.1 -47.15 -22.1 -39.5L-24.1 -19.85" />
<path style="fill:none;stroke-width:2;stroke-linecap:round;stroke-linejoin:round;stroke-miterlimit:3;stroke:#000000;stroke-opacity:1" d="M-22.1,-39.5Q-28.1 -47.15 -33.1 -35.5Q-39.1 -18.85 -24.1 -19.85L-22.1 -39.5z" />
<path style="fill:none;stroke-width:2;stroke-linecap:round;stroke-linejoin:round;stroke-miterlimit:3;stroke:#000000;stroke-opacity:1" d="M-30.1,-32.85Q-26.45 -33.15 -23.75 -29.15" />
<path style="fill:#000000;fill-opacity:1" d="M21.25,-31.25Q21.25 -28.2 20 -26Q18.7 -23.85 16.9 -23.85Q15.1 -23.85 13.85 -26Q12.55 -28.2 12.55 -31.25Q12.55 -34.3 13.85 -36.5Q15.1 -38.65 16.9 -38.65Q18.7 -38.65 20 -36.5Q21.25 -34.3 21.25 -31.25" />
<path style="fill:none;stroke-width:1;stroke-linecap:round;stroke-linejoin:round;stroke-miterlimit:3;stroke:#000000;stroke-opacity:1" d="M21.25,-31.25Q21.25 -28.2 20 -26Q18.7 -23.85 16.9 -23.85Q15.1 -23.85 13.85 -26Q12.55 -28.2 12.55 -31.25Q12.55 -34.3 13.85 -36.5Q15.1 -38.65 16.9 -38.65Q18.7 -38.65 20 -36.5Q21.25 -34.3 21.25 -31.25z" />
<path style="fill:#000000;fill-opacity:1" d="M15.9,-38.35Q21.9 -41.1 23.25 -32L15.9 -38.35" />
<path style="fill:none;stroke-width:1;stroke-linecap:round;stroke-linejoin:round;stroke-miterlimit:3;stroke:#000000;stroke-opacity:1" d="M23.25,-32Q21.9 -41.1 15.9 -38.35" />
<path style="fill:#000000;fill-opacity:1" d="M-9.5,-36Q-8.25 -38.15 -6.45 -38.15Q-4.65 -38.15 -3.35 -36Q-2.1 -33.8 -2.1 -30.75Q-2.1 -27.7 -3.35 -25.5Q-4.65 -23.35 -6.45 -23.35Q-8.25 -23.35 -9.5 -25.5Q-10.75 -27.65 -10.75 -30.75Q-10.75 -33.85 -9.5 -36" />
<path style="fill:none;stroke-width:1;stroke-linecap:round;stroke-linejoin:round;stroke-miterlimit:3;stroke:#000000;stroke-opacity:1" d="M-10.75,-30.75Q-10.75 -27.65 -9.5 -25.5Q-8.25 -23.35 -6.45 -23.35Q-4.65 -23.35 -3.35 -25.5Q-2.1 -27.7 -2.1 -30.75Q-2.1 -33.8 -3.35 -36Q-4.65 -38.15 -6.45 -38.15Q-8.25 -38.15 -9.5 -36Q-10.75 -33.85 -10.75 -30.75z" />
<path style="fill:#000000;fill-opacity:1" d="M-12.75,-31.5Q-11.45 -40.55 -5.45 -37.85L-12.75 -31.5" />
<path style="fill:none;stroke-width:1;stroke-linecap:round;stroke-linejoin:round;stroke-miterlimit:3;stroke:#000000;stroke-opacity:1" d="M-12.75,-31.5Q-11.45 -40.55 -5.45 -37.85" />
<path style="fill:#FFBFBF;fill-opacity:1" d="M11.25,-14.15Q-4.45 -13.85 -7.45 -14.15Q-8.1 -33.85 3.25 -40.15L11.25 -14.15" />
<path style="fill:none;stroke-width:2;stroke-linecap:round;stroke-linejoin:round;stroke-miterlimit:3;stroke:#000000;stroke-opacity:1" d="M3.25,-40.15Q-8.1 -33.85 -7.45 -14.15Q-4.45 -13.85 11.25 -14.15" />
<path style="fill:#FFFF00;fill-opacity:1" d="M13.55,-41.85Q12.55 -45.5 17.55 -45.85Q22.55 -46.15 24.9 -43.15Q16.9 -42.85 13.55 -41.85" />
<path style="fill:none;stroke-width:1;stroke-linecap:round;stroke-linejoin:round;stroke-miterlimit:3;stroke:#000000;stroke-opacity:1" d="M13.55,-41.85Q12.55 -45.5 17.55 -45.85Q22.55 -46.15 24.9 -43.15Q16.9 -42.85 13.55 -41.85z" />
<path style="fill:#FFFF00;fill-opacity:1" d="M-13.1,-42.15Q-12.75 -47.15 -6.75 -46.15Q-0.75 -45.15 -1.75 -41.15Q-6.1 -44.15 -13.1 -42.15" />
<path style="fill:none;stroke-width:1;stroke-linecap:round;stroke-linejoin:round;stroke-miterlimit:3;stroke:#000000;stroke-opacity:1" d="M-1.75,-41.15Q-0.75 -45.15 -6.75 -46.15Q-12.75 -47.15 -13.1 -42.15Q-6.1 -44.15 -1.75 -41.15z" />
<path style="fill:none;stroke-width:2;stroke-linecap:round;stroke-linejoin:round;stroke-miterlimit:3;stroke:#FF4040;stroke-opacity:1" d="M-15.75,-7.85Q-4.75 -2.5 24.9 -6.85" />
<path style="fill:#FFFFFF;fill-opacity:1" d="M-11.75,13.8L-8.45 9.8Q-2.75 12.1 5.25 18.8Q7.9 14.8 17.55 11.1L20.55 15.1L25.9 14.45Q34.55 24.1 11.55 114.8L-2.45 98.8L-14.75 112.8L-21.45 102.45L-17.75 15.45L-11.75 13.8" />
<path style="fill:none;stroke-width:2;stroke-linecap:round;stroke-linejoin:round;stroke-miterlimit:3;stroke:#000000;stroke-opacity:1" d="M-17.75,15.45L-21.45 102.45L-14.75 112.8L-2.45 98.8L11.55 114.8Q34.55 24.1 25.9 14.45L20.55 15.1L17.55 11.1Q7.9 14.8 5.25 18.8Q-2.75 12.1 -8.45 9.8L-11.75 13.8L-17.75 15.45z" />
<path style="fill:none;stroke-width:2;stroke-linecap:round;stroke-linejoin:round;stroke-miterlimit:3;stroke:#000000;stroke-opacity:1" d="M3.55,23.8Q-0.1 48.1 4.9 65.8" />
<path style="fill:#FFFFFF;fill-opacity:1" d="M-2.45,98.8L0.25 68.8Q4.3 64.75 7.35 59.9L-2.45 98.8M7.35,59.9L16.25 24.45Q16.25 45.6 7.35 59.9" />
<path style="fill:none;stroke-width:2;stroke-linecap:round;stroke-linejoin:round;stroke-miterlimit:3;stroke:#000000;stroke-opacity:1" d="M16.25,24.45Q16.25 45.6 7.35 59.9Q4.3 64.75 0.25 68.8L-2.45 98.8" />
<path style="fill:none;stroke-width:2;stroke-linecap:round;stroke-linejoin:round;stroke-miterlimit:3;stroke:#000000;stroke-opacity:1" d="M-9.75,28.45Q-11.75 46.8 0.25 68.8" />
<path style="fill:#FFFFFF;fill-opacity:1" d="M2.25,24.45Q-4.45 28.8 -9.45 30.1Q-19.1 24.8 -11.1 15.45Q1.9 17.1 2.9 21.45L2.25 24.45" />
<path style="fill:none;stroke-width:2;stroke-linecap:round;stroke-linejoin:round;stroke-miterlimit:3;stroke:#000000;stroke-opacity:1" d="M2.9,21.45Q1.9 17.1 -11.1 15.45Q-19.1 24.8 -9.45 30.1Q-4.45 28.8 2.25 24.45L2.9 21.45z" />
<path style="fill:#FFFFFF;fill-opacity:1" d="M7.55,21.8Q11.55 16.1 20.9 17.45Q25.9 21.1 19.9 31.45Q13.9 28.65 7.9 25.8L7.55 21.8" />
<path style="fill:none;stroke-width:2;stroke-linecap:round;stroke-linejoin:round;stroke-miterlimit:3;stroke:#000000;stroke-opacity:1" d="M7.55,21.8Q11.55 16.1 20.9 17.45Q25.9 21.1 19.9 31.45Q13.9 28.65 7.9 25.8L7.55 21.8z" />
<path style="fill:#FFFFFF;fill-opacity:1" d="M9.85,24.05Q9.75 25.1 8.25 25.7Q6.7 26.3 4.65 26.1Q2.55 25.85 1.2 25Q-0.2 24.15 -0.1 23.1Q0 22.1 1.55 21.5L5.1 21.1Q7.15 21.3 8.55 22.15Q9.95 23.05 9.85 24.05" />
<path style="fill:none;stroke-width:2;stroke-linecap:round;stroke-linejoin:round;stroke-miterlimit:3;stroke:#000000;stroke-opacity:1" d="M9.85,24.05Q9.75 25.1 8.25 25.7Q6.7 26.3 4.65 26.1Q2.55 25.85 1.2 25Q-0.2 24.15 -0.1 23.1Q0 22.1 1.55 21.5L5.1 21.1Q7.15 21.3 8.55 22.15Q9.95 23.05 9.85 24.05z" />
<path style="fill:#000000;fill-opacity:1" d="M48.55,21.8Q53.9 26.45 49.9 35.45Q40.55 61.45 41.9 82.1Q42.35 89.05 44.75 95.65Q46.2 99.6 50.5 108.35Q55.2 117.95 57.95 124.85Q62.5 136.2 66.05 149.8L59.05 150.45Q43.55 126.45 37.9 98.45Q23.25 110.1 16.25 112.8Q9.25 97.8 7.9 89.45Q30.55 57.8 25.9 14.45Q44.25 16.8 48.55 21.8" />
<path style="fill:none;stroke-width:2;stroke-linecap:round;stroke-linejoin:round;stroke-miterlimit:3;stroke:#666666;stroke-opacity:1" d="M25.9,14.45Q30.55 57.8 7.9 89.45Q9.25 97.8 16.25 112.8Q23.25 110.1 37.9 98.45Q43.55 126.45 59.05 150.45L66.05 149.8Q62.5 136.2 57.95 124.85Q55.2 117.95 50.5 108.35Q46.2 99.6 44.75 95.65Q42.35 89.05 41.9 82.1Q40.55 61.45 49.9 35.45Q53.9 26.45 48.55 21.8Q44.25 16.8 25.9 14.45z" />
<path style="fill:#000000;fill-opacity:1" d="M30.25,18.8Q33.25 26.45 36.25 38.45L26.9 47.45L43.25 42.1Q28.55 74.45 7.9 89.45Q28.25 42.45 25.25 11.45Q27.25 11.1 30.25 18.8" />
<path style="fill:none;stroke-width:2;stroke-linecap:round;stroke-linejoin:round;stroke-miterlimit:3;stroke:#666666;stroke-opacity:1" d="M30.25,18.8Q33.25 26.45 36.25 38.45L26.9 47.45L43.25 42.1Q28.55 74.45 7.9 89.45Q28.25 42.45 25.25 11.45Q27.25 11.1 30.25 18.8z" />
<path style="fill:#000000;fill-opacity:1" d="M-37.6,21.15Q-30.95 17.15 -16.45 15.1Q-27.75 46.8 -10.45 88.45Q-14.1 105.8 -24.75 114.1Q-36.1 107.1 -43.1 98.1Q-55.1 118.1 -54.75 153.1L-69.45 153.1Q-68.45 129.45 -51.45 98.45Q-39.75 85.1 -45.1 55.1Q-49.75 36.1 -48.3 29.8Q-47.6 28.45 -37.6 21.15" />
<path style="fill:none;stroke-width:2;stroke-linecap:round;stroke-linejoin:round;stroke-miterlimit:3;stroke:#666666;stroke-opacity:1" d="M-48.3,29.8Q-49.75 36.1 -45.1 55.1Q-39.75 85.1 -51.45 98.45Q-68.45 129.45 -69.45 153.1L-54.75 153.1Q-55.1 118.1 -43.1 98.1Q-36.1 107.1 -24.75 114.1Q-14.1 105.8 -10.45 88.45Q-27.75 46.8 -16.45 15.1Q-30.95 17.15 -37.6 21.15Q-47.6 28.45 -48.3 29.8z" />
<path style="fill:#000000;fill-opacity:1" d="M-40.95,53.8Q-47.95 58.3 -50.95 81.45Q-68.6 81.8 -66.3 64.15L-71.6 65.15Q-76.3 50.45 -60.45 34.8Q-46.1 20.8 -39.45 24.3L-40.95 53.8" />
<path style="fill:none;stroke-width:2;stroke-linecap:round;stroke-linejoin:round;stroke-miterlimit:3;stroke:#666666;stroke-opacity:1" d="M-39.45,24.3Q-46.1 20.8 -60.45 34.8Q-76.3 50.45 -71.6 65.15L-66.3 64.15Q-68.6 81.8 -50.95 81.45Q-47.95 58.3 -40.95 53.8" />
<path style="fill:#000000;fill-opacity:1" d="M-14.75,12.45Q-24.1 50.1 -10.45 88.45Q-29.1 72.1 -39.75 38.8L-24.1 47.45L-32.1 36.8Q-24.75 13.45 -14.75 12.45" />
<path style="fill:none;stroke-width:2;stroke-linecap:round;stroke-linejoin:round;stroke-miterlimit:3;stroke:#666666;stroke-opacity:1" d="M-14.75,12.45Q-24.1 50.1 -10.45 88.45Q-29.1 72.1 -39.75 38.8L-24.1 47.45L-32.1 36.8Q-24.75 13.45 -14.75 12.45z" />
<path style="fill:#000000;fill-opacity:1" d="M-73.3,72.45L-80.3 63.8Q-74.6 51.15 -61.95 51.8L-73.3 72.45" />
<path style="fill:none;stroke-width:1;stroke-linecap:round;stroke-linejoin:round;stroke-miterlimit:3;stroke:#666666;stroke-opacity:1" d="M-61.95,51.8Q-74.6 51.15 -80.3 63.8L-73.3 72.45" />
<path style="fill:none;stroke-width:2;stroke-linecap:round;stroke-linejoin:round;stroke-miterlimit:3;stroke:#666666;stroke-opacity:1" d="M-51.55,67.45Q-51.55 72.5 -55.15 76.1Q-58.75 79.7 -63.85 79.7Q-68.95 79.7 -72.55 76.1Q-76.15 72.5 -76.15 67.45Q-76.15 62.35 -72.55 58.75Q-68.95 55.15 -63.85 55.15Q-58.75 55.15 -55.15 58.75Q-51.55 62.35 -51.55 67.45z" />
<path style="fill:#000000;fill-opacity:1" d="M41.7,56.85L48.05 25Q64.4 28.3 72.8 49.2Q86.2 74.6 69.55 82.25Q52.9 89.95 41.7 56.85" />
<path style="fill:none;stroke-width:2;stroke-linecap:round;stroke-linejoin:round;stroke-miterlimit:3;stroke:#666666;stroke-opacity:1" d="M48.05,25Q64.4 28.3 72.8 49.2Q86.2 74.6 69.55 82.25Q52.9 89.95 41.7 56.85" />
<path style="fill:#FFFFFF;fill-opacity:1" d="M-69.9,59.55Q-68.05 54.05 -61.85 56.25Q-55.6 58.45 -56.7 65.05L-69.9 59.55" />
<path style="fill:none;stroke-width:1;stroke-linecap:round;stroke-linejoin:round;stroke-miterlimit:3;stroke:#000000;stroke-opacity:1" d="M-56.7,65.05Q-55.6 58.45 -61.85 56.25Q-68.05 54.05 -69.9 59.55" />
<path style="fill:#000000;fill-opacity:1" d="M-128.7,70.85Q-126.3 80.1 -80.35 79.85L-80.05 79.85Q-34.15 80.1 -31.75 70.85Q-29.05 75.65 -44.05 82.85L-33.25 160.85Q-51.55 176 -80.05 174.95Q-114.6 174.95 -127.2 160.85L-116.4 82.85Q-131.4 75.65 -128.7 70.85" />
<path style="fill:none;stroke-width:1;stroke-linecap:round;stroke-linejoin:round;stroke-miterlimit:3;stroke:#000000;stroke-opacity:1" d="M-116.4,82.85L-127.2 160.85Q-114.6 174.95 -80.05 174.95Q-51.55 176 -33.25 160.85L-44.05 82.85Q-29.05 75.65 -31.75 70.85Q-34.15 80.1 -80.05 79.85L-80.35 79.85Q-126.3 80.1 -128.7 70.85Q-131.4 75.65 -116.4 82.85z" />
<path style="fill:#333333;fill-opacity:1" d="M-128.25,71Q-128.25 67.6 -114.1 65.15Q-100 62.75 -80 62.75Q-60 62.75 -45.9 65.15Q-31.75 67.6 -31.75 71Q-31.75 74.4 -45.9 76.85Q-60 79.25 -80 79.25Q-100 79.25 -114.1 76.85Q-128.25 74.4 -128.25 71" />
<path style="fill:none;stroke-width:1;stroke-linecap:round;stroke-linejoin:round;stroke-miterlimit:3;stroke:#000000;stroke-opacity:1" d="M-128.25,71Q-128.25 67.6 -114.1 65.15Q-100 62.75 -80 62.75Q-60 62.75 -45.9 65.15Q-31.75 67.6 -31.75 71Q-31.75 74.4 -45.9 76.85Q-60 79.25 -80 79.25Q-100 79.25 -114.1 76.85Q-128.25 74.4 -128.25 71z" />
<path style="fill:#000000;fill-opacity:1" d="M-54.8,74.95Q-64.95 76.6 -79.3 76.6Q-93.7 76.6 -103.85 74.95Q-114 73.35 -114 71Q-114 68.65 -103.85 67Q-93.7 65.35 -79.3 65.35Q-65 65.35 -54.8 67Q-44.65 68.65 -44.65 71Q-44.65 73.3 -54.8 74.95" />
<path style="fill:none;stroke-width:1;stroke-linecap:round;stroke-linejoin:round;stroke-miterlimit:3;stroke:#000000;stroke-opacity:1" d="M-54.8,74.95Q-64.95 76.6 -79.3 76.6Q-93.7 76.6 -103.85 74.95Q-114 73.35 -114 71Q-114 68.65 -103.85 67Q-93.7 65.35 -79.3 65.35Q-65 65.35 -54.8 67Q-44.65 68.65 -44.65 71Q-44.65 73.3 -54.8 74.95z" />
<path style="fill:#FFFFFF;fill-opacity:1" d="M-64.7,59.2Q-57.45 63.45 -61.9 66.55Q-63.25 65.3 -70.5 64.35Q-77.05 60.6 -68.55 57.6L-64.7 59.2" />
<path style="fill:none;stroke-width:1;stroke-linecap:round;stroke-linejoin:round;stroke-miterlimit:3;stroke:#000000;stroke-opacity:1" d="M-64.7,59.2Q-57.45 63.45 -61.9 66.55Q-63.25 65.3 -70.5 64.35Q-77.05 60.6 -68.55 57.6" />
<path style="fill:none;stroke-width:6;stroke-linecap:round;stroke-linejoin:round;stroke-miterlimit:3;stroke:#666666;stroke-opacity:1" d="M-54.3,87.8L-42.3 158.45" />
<path style="fill:#000000;fill-opacity:1" d="M46.15,45.3Q50.25 42.3 56.05 42.3Q61.85 42.3 65.95 45.3Q70.05 48.3 70.05 52.55Q70.05 56.8 65.95 59.8Q61.85 62.8 56.05 62.8Q50.25 62.8 46.15 59.8Q42.05 56.8 42.05 52.55Q42.05 48.3 46.15 45.3" />
<path style="fill:none;stroke-width:2;stroke-linecap:round;stroke-linejoin:round;stroke-miterlimit:3;stroke:#666666;stroke-opacity:1" d="M46.15,45.3Q50.25 42.3 56.05 42.3Q61.85 42.3 65.95 45.3Q70.05 48.3 70.05 52.55Q70.05 56.8 65.95 59.8Q61.85 62.8 56.05 62.8Q50.25 62.8 46.15 59.8Q42.05 56.8 42.05 52.55Q42.05 48.3 46.15 45.3z" />
<path style="fill:#000000;fill-opacity:1" d="M47.15,48.55Q51.8 46.5 57.45 47.75Q63.1 49 66.45 52.85Q69.8 56.65 68.9 60.8Q67.95 64.95 63.3 67Q58.65 69.05 53 67.8Q47.35 66.55 44 62.7Q40.65 58.9 41.55 54.75Q42.5 50.6 47.15 48.55" />
<path style="fill:none;stroke-width:2;stroke-linecap:round;stroke-linejoin:round;stroke-miterlimit:3;stroke:#666666;stroke-opacity:1" d="M47.15,48.55Q51.8 46.5 57.45 47.75Q63.1 49 66.45 52.85Q69.8 56.65 68.9 60.8Q67.95 64.95 63.3 67Q58.65 69.05 53 67.8Q47.35 66.55 44 62.7Q40.65 58.9 41.55 54.75Q42.5 50.6 47.15 48.55z" />
<path style="fill:#FFFFFF;fill-opacity:1" d="M62.3,65.95Q48.5 68 45.6 61.2Q46.7 56.3 47.85 53.95L62.3 65.95" />
<path style="fill:none;stroke-width:2;stroke-linecap:round;stroke-linejoin:round;stroke-miterlimit:3;stroke:#FFFFFF;stroke-opacity:1" d="M47.85,53.95Q46.7 56.3 45.6 61.2Q48.5 68 62.3 65.95" />
<path style="fill:#007FFF;fill-opacity:1" d="M-15.45,53.3L88.3 41.5L89.05 47.95L-14.75 59.75L-15.45 53.3" />
<path style="fill:none;stroke-width:1;stroke-linecap:round;stroke-linejoin:round;stroke-miterlimit:3;stroke:#1CFFF4;stroke-opacity:1" d="M-15.45,53.3L88.3 41.5L89.05 47.95L-14.75 59.75L-15.45 53.3z" />
<path style="fill:#007FFF;fill-opacity:1" d="M-17.45,51.25Q-15.75 51.1 -15.6 52.75L-14.75 60.35Q-14.65 61 -15.1 61.6Q-15.55 62.15 -16.25 62.2Q-16.9 62.3 -17.45 61.85L-18.1 60.7L-18.9 53.1Q-19.05 51.45 -17.45 51.25" />
<path style="fill:none;stroke-width:1;stroke-linecap:round;stroke-linejoin:round;stroke-miterlimit:3;stroke:#1CFFF4;stroke-opacity:1" d="M-17.45,51.25Q-15.75 51.1 -15.6 52.75L-14.75 60.35Q-14.65 61 -15.1 61.6Q-15.55 62.15 -16.25 62.2Q-16.9 62.3 -17.45 61.85L-18.1 60.7L-18.9 53.1Q-19.05 51.45 -17.45 51.25z" />
<path style="fill:#FFFF00;fill-opacity:1" d="M-30.95,53.1Q-29 50.65 -25.85 50.3Q-22.7 49.95 -20.25 51.9Q-17.8 53.9 -17.45 57.05Q-17.1 60.15 -19.1 62.65Q-21.05 65.1 -24.2 65.45Q-27.3 65.8 -29.8 63.8Q-32.25 61.85 -32.6 58.7Q-32.95 55.55 -30.95 53.1" />
<path style="fill:none;stroke-width:1;stroke-linecap:round;stroke-linejoin:round;stroke-miterlimit:3;stroke:#1CFFF4;stroke-opacity:1" d="M-30.95,53.1Q-29 50.65 -25.85 50.3Q-22.7 49.95 -20.25 51.9Q-17.8 53.9 -17.45 57.05Q-17.1 60.15 -19.1 62.65Q-21.05 65.1 -24.2 65.45Q-27.3 65.8 -29.8 63.8Q-32.25 61.85 -32.6 58.7Q-32.95 55.55 -30.95 53.1z" />
<path style="fill:#007FFF;fill-opacity:1" d="M90.9,39.45Q91.45 39.9 91.5 40.55L92.3 48.2Q92.5 49.8 90.85 50Q90.15 50.1 89.65 49.65Q89.1 49.2 89 48.55L88.15 40.9Q88.1 40.25 88.55 39.7Q88.95 39.2 89.65 39.1Q90.35 39.05 90.9 39.45" />
<path style="fill:none;stroke-width:1;stroke-linecap:round;stroke-linejoin:round;stroke-miterlimit:3;stroke:#1CFFF4;stroke-opacity:1" d="M89.65,39.1Q88.95 39.2 88.55 39.7Q88.1 40.25 88.15 40.9L89 48.55Q89.1 49.2 89.65 49.65Q90.15 50.1 90.85 50Q92.5 49.8 92.3 48.2L91.5 40.55Q91.45 39.9 90.9 39.45Q90.35 39.05 89.65 39.1z" />
<path style="fill:#FF0000;fill-opacity:1" d="M103.25,37.95Q105.7 39.95 106.05 43.05Q106.4 46.2 104.4 48.7Q102.45 51.15 99.3 51.5Q96.15 51.85 93.7 49.85Q91.25 47.85 90.9 44.75Q90.55 41.6 92.55 39.15Q94.5 36.7 97.65 36.3Q100.8 35.95 103.25 37.95" />
<path style="fill:none;stroke-width:1;stroke-linecap:round;stroke-linejoin:round;stroke-miterlimit:3;stroke:#1CFFF4;stroke-opacity:1" d="M97.65,36.3Q94.5 36.7 92.55 39.15Q90.55 41.6 90.9 44.75Q91.25 47.85 93.7 49.85Q96.15 51.85 99.3 51.5Q102.45 51.15 104.4 48.7Q106.4 46.2 106.05 43.05Q105.7 39.95 103.25 37.95Q100.8 35.95 97.65 36.3z" />
<path style="fill:#FFFFFF;fill-opacity:1" d="M66.4,62.75L60.45 65.65Q45.8 63.65 48.6 52.9L56.3 52.85L66.4 62.75" />
<path style="fill:none;stroke-width:2;stroke-linecap:round;stroke-linejoin:round;stroke-miterlimit:3;stroke:#000000;stroke-opacity:1" d="M56.3,52.85L48.6 52.9Q45.8 63.65 60.45 65.65L66.4 62.75L56.3 52.85z" />
<path style="fill:#FFFFFF;fill-opacity:1" d="M58.45,44L56.75 43.95Q50.7 51.15 47.5 45.65Q46.2 45.35 50.35 40.5Q54.5 35.6 59 40.05L64 43.55L58.45 44" />
<path style="fill:none;stroke-width:2;stroke-linecap:round;stroke-linejoin:round;stroke-miterlimit:3;stroke:#000000;stroke-opacity:1" d="M58.45,44L56.75 43.95Q50.7 51.15 47.5 45.65Q46.2 45.35 50.35 40.5Q54.5 35.6 59 40.05L64 43.55" />
<path style="fill:#FFFFFF;fill-opacity:1" d="M69.05,64.5Q68.55 69 62.65 67.5Q53.3 65.6 55.4 60L69.05 64.5" />
<path style="fill:none;stroke-width:1;stroke-linecap:round;stroke-linejoin:round;stroke-miterlimit:3;stroke:#000000;stroke-opacity:1" d="M55.4,60Q53.3 65.6 62.65 67.5Q68.55 69 69.05 64.5" />
<path style="fill:#FFFFFF;fill-opacity:1" d="M70.3,59.2Q72.6 63.9 70 64.9Q61.9 67.55 57 62.15Q51.5 56.45 55.65 56.1L70.3 59.2" />
<path style="fill:none;stroke-width:2;stroke-linecap:round;stroke-linejoin:round;stroke-miterlimit:3;stroke:#000000;stroke-opacity:1" d="M55.65,56.1Q51.5 56.45 57 62.15Q61.9 67.55 70 64.9Q72.6 63.9 70.3 59.2" />
<path style="fill:#FFFFFF;fill-opacity:1" d="M70.65,54.3Q75.85 59.85 69.65 61.5Q62.95 64.35 57.4 58.7Q50.65 51.7 56.45 51.7L70.65 54.3" />
<path style="fill:none;stroke-width:2;stroke-linecap:round;stroke-linejoin:round;stroke-miterlimit:3;stroke:#000000;stroke-opacity:1" d="M56.45,51.7Q50.65 51.7 57.4 58.7Q62.95 64.35 69.65 61.5Q75.85 59.85 70.65 54.3" />
<path style="fill:#FFFFFF;fill-opacity:1" d="M69,49.6Q73.05 51.2 71.95 53.85Q64.5 60.55 59.05 58.85Q56.3 57.55 47.85 53.95Q39.35 54.7 39.6 51.95Q41.8 45.25 49.1 48.4Q57.2 51.25 62.05 52.3L69 49.6" />
<path style="fill:none;stroke-width:2;stroke-linecap:round;stroke-linejoin:round;stroke-miterlimit:3;stroke:#000000;stroke-opacity:1" d="M62.05,52.3Q57.2 51.25 49.1 48.4Q41.8 45.25 39.6 51.95Q39.35 54.7 47.85 53.95Q56.3 57.55 59.05 58.85Q64.5 60.55 71.95 53.85Q73.05 51.2 69 49.6" />
</g>
</svg>
