<?xml version="1.0" encoding="utf-8"?>
<svg version="1.1" id="Layer_1"
xmlns="http://www.w3.org/2000/svg"
xmlns:xlink="http://www.w3.org/1999/xlink"
xmlns:author="http://www.sothink.com"
width="176px" height="315px"
xml:space="preserve">
<g id="353" transform="matrix(1, 0, 0, 1, 94.6, 158.15)">
<path style="fill:#333333;fill-opacity:1" d="M62.3,-37.8Q62.3 -34 46.15 -31.35Q30 -28.65 7.15 -28.65Q-15.7 -28.65 -31.85 -31.35Q-48 -34 -48 -37.8Q-48 -41.6 -31.85 -44.25Q-15.7 -46.95 7.15 -46.95Q30 -46.95 46.15 -44.25Q62.3 -41.6 62.3 -37.8" />
<path style="fill:none;stroke-width:2;stroke-linecap:round;stroke-linejoin:round;stroke-miterlimit:3;stroke:#000000;stroke-opacity:1" d="M62.3,-37.8Q62.3 -34 46.15 -31.35Q30 -28.65 7.15 -28.65Q-15.7 -28.65 -31.85 -31.35Q-48 -34 -48 -37.8Q-48 -41.6 -31.85 -44.25Q-15.7 -46.95 7.15 -46.95Q30 -46.95 46.15 -44.25Q62.3 -41.6 62.3 -37.8z" />
<path style="fill:#FFFF00;fill-opacity:1" d="M42.3,-34.95L-25.35 -38.3Q-30.7 -43.95 -27.7 -53.65Q-24.7 -63.3 -20.7 -65.65Q-23 -71.95 -15.7 -74.3Q26.3 -94.65 42.65 -66.65Q55.3 -61.65 42.3 -34.95" />
<path style="fill:none;stroke-width:2;stroke-linecap:round;stroke-linejoin:round;stroke-miterlimit:3;stroke:#000000;stroke-opacity:1" d="M42.3,-34.95L-25.35 -38.3Q-30.7 -43.95 -27.7 -53.65Q-24.7 -63.3 -20.7 -65.65Q-23 -71.95 -15.7 -74.3Q26.3 -94.65 42.65 -66.65Q55.3 -61.65 42.3 -34.95z" />
<path style="fill:#FFBFBF;fill-opacity:1" d="M36.3,-16.95L36.3 -37.3Q45 -39.95 46.65 -33.65Q50.9 -17.35 36.3 -16.95" />
<path style="fill:none;stroke-width:2;stroke-linecap:round;stroke-linejoin:round;stroke-miterlimit:3;stroke:#000000;stroke-opacity:1" d="M36.3,-16.95L36.3 -37.3Q45 -39.95 46.65 -33.65Q50.9 -17.35 36.3 -16.95z" />
<path style="fill:#000000;fill-opacity:1" d="M61.65,150.7L-62 153.05Q-53.35 106.05 -46.35 98.7Q-39.35 91.35 39 98.05Q60.3 139.05 61.65 150.7" />
<path style="fill:#000000;fill-opacity:1" d="M40,155.7L-47 155.7Q-44.35 132.05 -47 97.7L42.65 98.05Q38 112.05 40 155.7" />
<path style="fill:none;stroke-width:2;stroke-linecap:round;stroke-linejoin:round;stroke-miterlimit:3;stroke:#666666;stroke-opacity:1" d="M42.65,98.05L-47 97.7Q-44.35 132.05 -47 155.7L40 155.7Q38 112.05 42.65 98.05z" />
<path style="fill:none;stroke-width:2;stroke-linecap:round;stroke-linejoin:round;stroke-miterlimit:3;stroke:#000000;stroke-opacity:1" d="M36.65,-27.95Q39.65 -29.95 43 -27.65" />
<path style="fill:#FFBFBF;fill-opacity:1" d="M12.1,10.05Q15.3 12.05 15.3 14.85Q15.3 17.7 12.1 19.7Q8.9 21.7 4.3 21.7Q-0.25 21.7 -3.45 19.7Q-6.7 17.7 -6.7 14.85Q-6.7 12.05 -3.45 10.05Q-0.25 8.05 4.3 8.05Q8.85 8.05 12.1 10.05" />
<path style="fill:#FFBFBF;fill-opacity:1" d="M38.65,-64.65L37.65 -52.65Q35.65 -31.95 38.3 -6.3Q39.5 2.15 35.7 6.75Q32.45 10.65 25.3 12.05Q10.85 14.8 -10.35 12.05Q-25.7 10.05 -24.35 -0.95Q-26 -29.95 -18 -55.3Q-16 -63.3 -11.35 -70.3Q-8.7 -68.95 -0.7 -68.65L20.3 -68.95Q39 -69.3 38.65 -64.65" />
<path style="fill:none;stroke-width:2;stroke-linecap:round;stroke-linejoin:round;stroke-miterlimit:3;stroke:#000000;stroke-opacity:1" d="M20.3,-68.95L-0.7 -68.65Q-8.7 -68.95 -11.35 -70.3Q-16 -63.3 -18 -55.3Q-26 -29.95 -24.35 -0.95Q-25.7 10.05 -10.35 12.05Q10.85 14.8 25.3 12.05Q32.45 10.65 35.7 6.75Q39.5 2.15 38.3 -6.3Q35.65 -31.95 37.65 -52.65L38.65 -64.65Q39 -69.3 20.3 -68.95z" />
<path style="fill:#FFBFBF;fill-opacity:1" d="M-22,-38.95L-24 -19.3Q-39 -18.3 -33 -34.95Q-28 -46.65 -22 -38.95" />
<path style="fill:none;stroke-width:2;stroke-linecap:round;stroke-linejoin:round;stroke-miterlimit:3;stroke:#000000;stroke-opacity:1" d="M-33,-34.95Q-39 -18.3 -24 -19.3L-22 -38.95Q-28 -46.65 -33 -34.95z" />
<path style="fill:none;stroke-width:2;stroke-linecap:round;stroke-linejoin:round;stroke-miterlimit:3;stroke:#000000;stroke-opacity:1" d="M-30,-32.3Q-26.35 -32.65 -23.7 -28.65" />
<path style="fill:#000000;fill-opacity:1" d="M23.3,-34.45Q23.3 -31.05 22.05 -28.7Q20.8 -26.3 19 -26.3Q17.2 -26.3 15.95 -28.7Q14.65 -31.05 14.65 -34.45Q14.65 -37.85 15.95 -40.25Q17.2 -42.65 19 -42.65Q20.8 -42.65 22.05 -40.25Q23.3 -37.85 23.3 -34.45" />
<path style="fill:none;stroke-width:1;stroke-linecap:round;stroke-linejoin:round;stroke-miterlimit:3;stroke:#000000;stroke-opacity:1" d="M23.3,-34.45Q23.3 -31.05 22.05 -28.7Q20.8 -26.3 19 -26.3Q17.2 -26.3 15.95 -28.7Q14.65 -31.05 14.65 -34.45Q14.65 -37.85 15.95 -40.25Q17.2 -42.65 19 -42.65Q20.8 -42.65 22.05 -40.25Q23.3 -37.85 23.3 -34.45z" />
<path style="fill:#000000;fill-opacity:1" d="M18,-42.3Q24 -45.3 25.3 -35.3L18 -42.3" />
<path style="fill:none;stroke-width:1;stroke-linecap:round;stroke-linejoin:round;stroke-miterlimit:3;stroke:#000000;stroke-opacity:1" d="M25.3,-35.3Q24 -45.3 18 -42.3" />
<path style="fill:#000000;fill-opacity:1" d="M-8.4,-40.75Q-7.15 -43.15 -5.35 -43.15Q-3.55 -43.15 -2.25 -40.75Q-1 -38.35 -1 -34.95Q-1 -31.55 -2.25 -29.2Q-3.55 -26.8 -5.35 -26.8Q-7.15 -26.8 -8.4 -29.2Q-9.7 -31.55 -9.7 -34.95Q-9.7 -38.35 -8.4 -40.75" />
<path style="fill:none;stroke-width:1;stroke-linecap:round;stroke-linejoin:round;stroke-miterlimit:3;stroke:#000000;stroke-opacity:1" d="M-9.7,-34.95Q-9.7 -31.55 -8.4 -29.2Q-7.15 -26.8 -5.35 -26.8Q-3.55 -26.8 -2.25 -29.2Q-1 -31.55 -1 -34.95Q-1 -38.35 -2.25 -40.75Q-3.55 -43.15 -5.35 -43.15Q-7.15 -43.15 -8.4 -40.75Q-9.7 -38.35 -9.7 -34.95z" />
<path style="fill:#000000;fill-opacity:1" d="M-11.7,-35.8Q-10.35 -45.8 -4.35 -42.8L-11.7 -35.8" />
<path style="fill:none;stroke-width:1;stroke-linecap:round;stroke-linejoin:round;stroke-miterlimit:3;stroke:#000000;stroke-opacity:1" d="M-11.7,-35.8Q-10.35 -45.8 -4.35 -42.8" />
<path style="fill:#FFBFBF;fill-opacity:1" d="M11.3,-14.65Q-4.35 -14.3 -7.35 -14.65Q-8 -34.3 3.3 -40.65L11.3 -14.65" />
<path style="fill:none;stroke-width:2;stroke-linecap:round;stroke-linejoin:round;stroke-miterlimit:3;stroke:#000000;stroke-opacity:1" d="M3.3,-40.65Q-8 -34.3 -7.35 -14.65Q-4.35 -14.3 11.3 -14.65" />
<path style="fill:#FFFF00;fill-opacity:1" d="M14.65,-45.3Q13.65 -48.95 18.65 -49.3Q23.65 -49.65 26 -46.65Q18 -46.3 14.65 -45.3" />
<path style="fill:none;stroke-width:1;stroke-linecap:round;stroke-linejoin:round;stroke-miterlimit:3;stroke:#000000;stroke-opacity:1" d="M14.65,-45.3Q13.65 -48.95 18.65 -49.3Q23.65 -49.65 26 -46.65Q18 -46.3 14.65 -45.3z" />
<path style="fill:#FFFF00;fill-opacity:1" d="M-12,-45.65Q-11.7 -50.65 -5.7 -49.65Q0.3 -48.65 -0.7 -44.65Q-5 -47.65 -12 -45.65" />
<path style="fill:none;stroke-width:1;stroke-linecap:round;stroke-linejoin:round;stroke-miterlimit:3;stroke:#000000;stroke-opacity:1" d="M-0.7,-44.65Q0.3 -48.65 -5.7 -49.65Q-11.7 -50.65 -12 -45.65Q-5 -47.65 -0.7 -44.65z" />
<path style="fill:#000000;fill-opacity:1" d="M11,-157.65Q49.3 -157.65 63.3 -136.95L48.3 -50.3Q65 -42.3 62 -36.95Q59.3 -47.3 8 -46.95Q-43.35 -46.65 -48 -37.8Q-47.7 -45.95 -32.35 -49.95L-39.35 -138.65Q-27.35 -157.65 11 -157.65" />
<path style="fill:none;stroke-width:1;stroke-linecap:round;stroke-linejoin:round;stroke-miterlimit:3;stroke:#000000;stroke-opacity:1" d="M11,-157.65Q49.3 -157.65 63.3 -136.95L48.3 -50.3Q65 -42.3 62 -36.95Q59.3 -47.3 8 -46.95Q-43.35 -46.65 -48 -37.8Q-47.7 -45.95 -32.35 -49.95L-39.35 -138.65Q-27.35 -157.65 11 -157.65z" />
<path style="fill:#FFFFFF;fill-opacity:1" d="M20.65,15.7L26 15.05Q34.65 24.7 11.65 115.35L-2.35 99.35L-14.7 113.35L-21.35 103.05L-17.7 16.05L-11.7 14.35L-8.35 10.35Q-2.7 12.7 5.3 19.35Q8 15.35 17.65 11.7L20.65 15.7" />
<path style="fill:none;stroke-width:2;stroke-linecap:round;stroke-linejoin:round;stroke-miterlimit:3;stroke:#000000;stroke-opacity:1" d="M17.65,11.7Q8 15.35 5.3 19.35Q-2.7 12.7 -8.35 10.35L-11.7 14.35L-17.7 16.05L-21.35 103.05L-14.7 113.35L-2.35 99.35L11.65 115.35Q34.65 24.7 26 15.05L20.65 15.7L17.65 11.7z" />
<path style="fill:none;stroke-width:2;stroke-linecap:round;stroke-linejoin:round;stroke-miterlimit:3;stroke:#000000;stroke-opacity:1" d="M3.65,24.35Q0 48.7 5 66.35" />
<path style="fill:#FFFFFF;fill-opacity:1" d="M-2.35,99.35L0.3 69.35Q4.4 65.25 7.45 60.4L-2.35 99.35M7.45,60.4L16.3 25.05Q16.3 46.1 7.45 60.4" />
<path style="fill:none;stroke-width:2;stroke-linecap:round;stroke-linejoin:round;stroke-miterlimit:3;stroke:#000000;stroke-opacity:1" d="M16.3,25.05Q16.3 46.1 7.45 60.4Q4.4 65.25 0.3 69.35L-2.35 99.35" />
<path style="fill:none;stroke-width:2;stroke-linecap:round;stroke-linejoin:round;stroke-miterlimit:3;stroke:#000000;stroke-opacity:1" d="M-9.7,29.05Q-11.7 47.35 0.3 69.35" />
<path style="fill:#FFFFFF;fill-opacity:1" d="M2.3,25.05Q-4.35 29.35 -9.35 30.7Q-19 25.35 -11 16.05Q2 17.7 3 22.05L2.3 25.05" />
<path style="fill:none;stroke-width:2;stroke-linecap:round;stroke-linejoin:round;stroke-miterlimit:3;stroke:#000000;stroke-opacity:1" d="M3,22.05Q2 17.7 -11 16.05Q-19 25.35 -9.35 30.7Q-4.35 29.35 2.3 25.05L3 22.05z" />
<path style="fill:#FFFFFF;fill-opacity:1" d="M20,32.05L8 26.35L7.65 22.35Q11.65 16.7 21 18.05Q26 21.7 20 32.05" />
<path style="fill:none;stroke-width:2;stroke-linecap:round;stroke-linejoin:round;stroke-miterlimit:3;stroke:#000000;stroke-opacity:1" d="M20,32.05L8 26.35L7.65 22.35Q11.65 16.7 21 18.05Q26 21.7 20 32.05z" />
<path style="fill:#FFFFFF;fill-opacity:1" d="M9.95,24.65Q9.85 25.65 8.35 26.25L4.75 26.65Q2.7 26.45 1.3 25.6Q-0.1 24.7 0 23.7Q0.1 22.65 1.6 22.05Q3.15 21.45 5.2 21.65Q7.25 21.9 8.65 22.75Q10.05 23.6 9.95 24.65" />
<path style="fill:none;stroke-width:2;stroke-linecap:round;stroke-linejoin:round;stroke-miterlimit:3;stroke:#000000;stroke-opacity:1" d="M9.95,24.65Q9.85 25.65 8.35 26.25L4.75 26.65Q2.7 26.45 1.3 25.6Q-0.1 24.7 0 23.7Q0.1 22.65 1.6 22.05Q3.15 21.45 5.2 21.65Q7.25 21.9 8.65 22.75Q10.05 23.6 9.95 24.65z" />
<path style="fill:#000000;fill-opacity:1" d="M50,36.05Q40.65 62.05 42 82.7Q42.45 89.65 44.8 96.2Q46.25 100.15 50.55 108.9Q55.3 118.5 58.05 125.4Q62.65 136.8 66.15 150.35L59.15 151.05Q43.65 127.05 38 99.05Q23.3 110.7 16.3 113.35Q9.3 98.35 8 90.05Q30.65 58.35 26 15.05Q44.3 17.35 48.65 22.35Q54 27.05 50 36.05" />
<path style="fill:none;stroke-width:2;stroke-linecap:round;stroke-linejoin:round;stroke-miterlimit:3;stroke:#666666;stroke-opacity:1" d="M48.65,22.35Q44.3 17.35 26 15.05Q30.65 58.35 8 90.05Q9.3 98.35 16.3 113.35Q23.3 110.7 38 99.05Q43.65 127.05 59.15 151.05L66.15 150.35Q62.65 136.8 58.05 125.4Q55.3 118.5 50.55 108.9Q46.25 100.15 44.8 96.2Q42.45 89.65 42 82.7Q40.65 62.05 50 36.05Q54 27.05 48.65 22.35z" />
<path style="fill:#000000;fill-opacity:1" d="M43.3,42.7Q28.65 75.05 8 90.05Q28.3 43.05 25.3 12.05Q27.3 11.7 30.3 19.35Q33.3 27.05 36.3 39.05L27 48.05L43.3 42.7" />
<path style="fill:none;stroke-width:2;stroke-linecap:round;stroke-linejoin:round;stroke-miterlimit:3;stroke:#666666;stroke-opacity:1" d="M43.3,42.7Q28.65 75.05 8 90.05Q28.3 43.05 25.3 12.05Q27.3 11.7 30.3 19.35Q33.3 27.05 36.3 39.05L27 48.05L43.3 42.7z" />
<path style="fill:#000000;fill-opacity:1" d="M-42.35,24.05Q-41.7 22.7 -39 19.35Q-30 16.05 -16.35 15.7Q-27.7 47.35 -10.35 89.05Q-14 106.35 -24.7 114.7Q-36 107.7 -43 98.7Q-55 118.7 -54.7 153.7L-69.35 153.7Q-68.35 130.05 -51.35 99.05Q-39.7 85.7 -45 55.7Q-49.7 36.7 -42.35 24.05" />
<path style="fill:none;stroke-width:2;stroke-linecap:round;stroke-linejoin:round;stroke-miterlimit:3;stroke:#666666;stroke-opacity:1" d="M-45,55.7Q-39.7 85.7 -51.35 99.05Q-68.35 130.05 -69.35 153.7L-54.7 153.7Q-55 118.7 -43 98.7Q-36 107.7 -24.7 114.7Q-14 106.35 -10.35 89.05Q-27.7 47.35 -16.35 15.7Q-30 16.05 -39 19.35Q-41.7 22.7 -42.35 24.05Q-49.7 36.7 -45 55.7z" />
<path style="fill:#000000;fill-opacity:1" d="M-14.7,13.05Q-24 50.7 -10.35 89.05Q-29 72.7 -39.7 39.35L-24 48.05L-32 37.35Q-24.7 14.05 -14.7 13.05" />
<path style="fill:none;stroke-width:2;stroke-linecap:round;stroke-linejoin:round;stroke-miterlimit:3;stroke:#666666;stroke-opacity:1" d="M-14.7,13.05Q-24 50.7 -10.35 89.05Q-29 72.7 -39.7 39.35L-24 48.05L-32 37.35Q-24.7 14.05 -14.7 13.05z" />
<path style="fill:#FFFFFF;fill-opacity:1" d="M32,100.45L20.3 111.1Q12.2 115.15 12.2 104.5Q11.85 98.65 15.5 96.05Q21.4 90.55 31.65 89.85L32 100.45" />
<path style="fill:none;stroke-width:2;stroke-linecap:round;stroke-linejoin:round;stroke-miterlimit:3;stroke:#000000;stroke-opacity:1" d="M31.65,89.85Q21.4 90.55 15.5 96.05Q11.85 98.65 12.2 104.5Q12.2 115.15 20.3 111.1L32 100.45L31.65 89.85z" />
<path style="fill:#007FFF;fill-opacity:1" d="M49.9,134.35L-16.95 54.15L-11.95 50L54.9 130.2L49.9 134.35" />
<path style="fill:none;stroke-width:1;stroke-linecap:round;stroke-linejoin:round;stroke-miterlimit:3;stroke:#1CFFF4;stroke-opacity:1" d="M49.9,134.35L-16.95 54.15L-11.95 50L54.9 130.2L49.9 134.35z" />
<path style="fill:#007FFF;fill-opacity:1" d="M-11.35,47.2Q-10.25 48.45 -11.55 49.55L-17.45 54.45Q-18 54.9 -18.7 54.85L-19.8 54.2Q-20.25 53.7 -20.2 53Q-20.15 52.3 -19.6 51.85L-13.7 47Q-12.45 45.95 -11.35 47.2" />
<path style="fill:none;stroke-width:1;stroke-linecap:round;stroke-linejoin:round;stroke-miterlimit:3;stroke:#1CFFF4;stroke-opacity:1" d="M-11.35,47.2Q-10.25 48.45 -11.55 49.55L-17.45 54.45Q-18 54.9 -18.7 54.85L-19.8 54.2Q-20.25 53.7 -20.2 53Q-20.15 52.3 -19.6 51.85L-13.7 47Q-12.45 45.95 -11.35 47.2z" />
<path style="fill:#FFFF00;fill-opacity:1" d="M-15.15,39.65Q-13.1 42.1 -13.4 45.25Q-13.7 48.4 -16.15 50.4Q-18.6 52.4 -21.75 52.1Q-24.85 51.8 -26.9 49.35Q-28.9 46.95 -28.65 43.8Q-28.35 40.65 -25.9 38.65Q-23.45 36.65 -20.3 36.9Q-17.15 37.2 -15.15 39.65" />
<path style="fill:none;stroke-width:1;stroke-linecap:round;stroke-linejoin:round;stroke-miterlimit:3;stroke:#1CFFF4;stroke-opacity:1" d="M-15.15,39.65Q-13.1 42.1 -13.4 45.25Q-13.7 48.4 -16.15 50.4Q-18.6 52.4 -21.75 52.1Q-24.85 51.8 -26.9 49.35Q-28.9 46.95 -28.65 43.8Q-28.35 40.65 -25.9 38.65Q-23.45 36.65 -20.3 36.9Q-17.15 37.2 -15.15 39.65z" />
<path style="fill:#007FFF;fill-opacity:1" d="M49.2,137Q48.75 136.5 48.8 135.8Q48.85 135.1 49.4 134.65L55.3 129.8Q56.65 128.7 57.65 130Q58.75 131.25 57.45 132.35L51.55 137.25Q50.2 138.25 49.2 137" />
<path style="fill:none;stroke-width:1;stroke-linecap:round;stroke-linejoin:round;stroke-miterlimit:3;stroke:#1CFFF4;stroke-opacity:1" d="M51.55,137.25L57.45 132.35Q58.75 131.25 57.65 130Q56.65 128.7 55.3 129.8L49.4 134.65Q48.85 135.1 48.8 135.8Q48.75 136.5 49.2 137Q50.2 138.25 51.55 137.25z" />
<path style="fill:#FF0000;fill-opacity:1" d="M50.9,139.3Q51.2 136.2 53.65 134.15Q56.05 132.15 59.2 132.4Q62.35 132.7 64.35 135.15Q66.4 137.6 66.1 140.75Q65.8 143.9 63.35 145.9Q60.9 147.95 57.75 147.65Q54.65 147.35 52.6 144.9Q50.6 142.45 50.9 139.3" />
<path style="fill:none;stroke-width:1;stroke-linecap:round;stroke-linejoin:round;stroke-miterlimit:3;stroke:#1CFFF4;stroke-opacity:1" d="M52.6,144.9Q54.65 147.35 57.75 147.65Q60.9 147.95 63.35 145.9Q65.8 143.9 66.1 140.75Q66.4 137.6 64.35 135.15Q62.35 132.7 59.2 132.4Q56.05 132.15 53.65 134.15Q51.2 136.2 50.9 139.3Q50.6 142.45 52.6 144.9z" />
<path style="fill:#FFFFFF;fill-opacity:1" d="M34.6,88.75L47.4 103.05L44.5 105.6Q38.6 117.35 30.55 116.95Q25.05 118.05 22.1 112.2Q18.1 111.1 17 105.95Q11.85 102.3 18.1 97.55Q24.3 96.05 25.05 92.75Q28.35 90.95 34.6 88.75" />
<path style="fill:none;stroke-width:2;stroke-linecap:round;stroke-linejoin:round;stroke-miterlimit:3;stroke:#000000;stroke-opacity:1" d="M25.05,92.75Q24.3 96.05 18.1 97.55Q11.85 102.3 17 105.95Q18.1 111.1 22.1 112.2Q25.05 118.05 30.55 116.95Q38.6 117.35 44.5 105.6L47.4 103.05L34.6 88.75Q28.35 90.95 25.05 92.75z" />
<path style="fill:#000000;fill-opacity:1" d="M79.65,64.35Q74 83.35 45 107.35Q40.65 96.35 30.65 88.7Q41.65 73.85 53.65 65.35Q46.3 57.7 43.65 52.7L49.3 30.05Q74 50.35 79.65 64.35" />
<path style="fill:none;stroke-width:2;stroke-linecap:round;stroke-linejoin:round;stroke-miterlimit:3;stroke:#666666;stroke-opacity:1" d="M43.65,52.7Q46.3 57.7 53.65 65.35Q41.65 73.85 30.65 88.7Q40.65 96.35 45 107.35Q74 83.35 79.65 64.35Q74 50.35 49.3 30.05" />
<path style="fill:#000000;fill-opacity:1" d="M-61.5,20.35Q-79.5 33.05 -83.5 17.05Q-68.5 10.05 -61.5 20.35" />
<path style="fill:none;stroke-width:1;stroke-linecap:round;stroke-linejoin:round;stroke-miterlimit:3;stroke:#666666;stroke-opacity:1" d="M-61.5,20.35Q-79.5 33.05 -83.5 17.05Q-68.5 10.05 -61.5 20.35z" />
<path style="fill:#FFFFFF;fill-opacity:1" d="M-79,11.05Q-70.35 6.7 -63.35 12.35L-65.35 24.85Q-75.35 29.2 -81.35 23.55L-79 11.05" />
<path style="fill:none;stroke-width:2;stroke-linecap:round;stroke-linejoin:round;stroke-miterlimit:3;stroke:#000000;stroke-opacity:1" d="M-79,11.05Q-70.35 6.7 -63.35 12.35L-65.35 24.85Q-75.35 29.2 -81.35 23.55L-79 11.05z" />
<path style="fill:#000000;fill-opacity:1" d="M-43,47.7Q-51 54.7 -73.35 65.7Q-91 66.05 -88.7 48.35Q-88.35 25.35 -83.7 17.55Q-75.2 30.7 -61.5 21.2L-65.35 37.35Q-51 23.35 -41 24.35L-43 47.7" />
<path style="fill:none;stroke-width:2;stroke-linecap:round;stroke-linejoin:round;stroke-miterlimit:3;stroke:#666666;stroke-opacity:1" d="M-41,24.35Q-51 23.35 -65.35 37.35L-61.5 21.2Q-75.2 30.7 -83.7 17.55Q-88.35 25.35 -88.7 48.35Q-91 66.05 -73.35 65.7Q-51 54.7 -43 47.7" />
<path style="fill:#FFFFFF;fill-opacity:1" d="M-76.95,-20.9Q-73.65 -11.35 -74.75 -4.75L-71.8 -5.15Q-70.7 -22 -71.45 -28.95Q-63.4 -34.1 -63.4 -20.55Q-62.65 -11.75 -65.6 -3.3L-64.1 -2.55Q-60.45 -15.4 -55.7 -20.15Q-52.75 -24.2 -49.45 -19.8Q-55.3 -8.05 -58.25 0Q-55.7 3.3 -55.3 6.25L-57.9 14.65Q-65.6 20.15 -75.1 18.35Q-85.4 15.75 -87.6 1.45Q-87.95 -2 -93.45 -9.35Q-94.55 -16.85 -87.95 -12.1Q-82.45 -8.05 -81.7 -2.2L-80.6 -2.95Q-82.8 -17.95 -85.75 -24.95Q-79.5 -28.6 -76.95 -20.9" />
<path style="fill:none;stroke-width:2;stroke-linecap:round;stroke-linejoin:round;stroke-miterlimit:3;stroke:#000000;stroke-opacity:1" d="M-76.95,-20.9Q-73.65 -11.35 -74.75 -4.75L-71.8 -5.15Q-70.7 -22 -71.45 -28.95Q-63.4 -34.1 -63.4 -20.55Q-62.65 -11.75 -65.6 -3.3L-64.1 -2.55Q-60.45 -15.4 -55.7 -20.15Q-52.75 -24.2 -49.45 -19.8Q-55.3 -8.05 -58.25 0Q-55.7 3.3 -55.3 6.25L-57.9 14.65Q-65.6 20.15 -75.1 18.35Q-85.4 15.75 -87.6 1.45Q-87.95 -2 -93.45 -9.35Q-94.55 -16.85 -87.95 -12.1Q-82.45 -8.05 -81.7 -2.2L-80.6 -2.95Q-82.8 -17.95 -85.75 -24.95Q-79.5 -28.6 -76.95 -20.9z" />
<path style="fill:#FFFFFF;fill-opacity:1" d="M-54.95,4.4Q-52 4.4 -49.8 3.65Q-43.2 -0.35 -40.65 5.5Q-38.1 11.35 -46.5 9.9Q-50.2 10.25 -53.85 13.2Q-64.8 22.05 -72.9 17.05L-68.9 7.7Q-64.5 0 -54.95 4.4" />
<path style="fill:none;stroke-width:2;stroke-linecap:round;stroke-linejoin:round;stroke-miterlimit:3;stroke:#000000;stroke-opacity:1" d="M-72.9,17.05Q-64.8 22.05 -53.85 13.2Q-50.2 10.25 -46.5 9.9Q-38.1 11.35 -40.65 5.5Q-43.2 -0.35 -49.8 3.65Q-52 4.4 -54.95 4.4Q-64.5 0 -68.9 7.7" />
<path style="fill:none;stroke-width:6;stroke-linecap:round;stroke-linejoin:round;stroke-miterlimit:3;stroke:#666666;stroke-opacity:1" d="M55.15,-137.15L40.15 -54.65" />
</g>
</svg>
