<?xml version="1.0" encoding="utf-8"?>
<svg version="1.1" id="Layer_1"
xmlns="http://www.w3.org/2000/svg"
xmlns:xlink="http://www.w3.org/1999/xlink"
xmlns:author="http://www.sothink.com"
width="689px" height="580px"
xml:space="preserve">
<g id="352" transform="matrix(1, 0, 0, 1, 344.15, 290)">
<path style="fill:#FFBF7F;fill-opacity:1" d="M-297.5,-268L-297.5 290L-330.35 290L-330.35 -268L-297.5 -268" />
<path style="fill:#FF7F00;fill-opacity:1" d="M-323.9,-268L-323.9 290L-344.15 290L-344.15 -268L-323.9 -268" />
<path style="fill:#FFBF7F;fill-opacity:1" d="M-251.5,-268L-251.5 290L-284.35 290L-284.35 -268L-251.5 -268" />
<path style="fill:#FF7F00;fill-opacity:1" d="M-277.9,290L-298.15 290L-298.15 -268L-277.9 -268L-277.9 290" />
<path style="fill:#FFBF7F;fill-opacity:1" d="M-205.5,-268L-205.5 290L-238.35 290L-238.35 -268L-205.5 -268" />
<path style="fill:#FF7F00;fill-opacity:1" d="M-231.9,-268L-231.9 290L-252.15 290L-252.15 -268L-231.9 -268" />
<path style="fill:#FFBF7F;fill-opacity:1" d="M-159.5,-268L-159.5 290L-192.35 290L-192.35 -268L-159.5 -268" />
<path style="fill:#FF7F00;fill-opacity:1" d="M-185.9,-268L-185.9 290L-206.15 290L-206.15 -268L-185.9 -268" />
<path style="fill:#FFBF7F;fill-opacity:1" d="M-114.5,-268L-114.5 290L-147.35 290L-147.35 -268L-114.5 -268" />
<path style="fill:#FF7F00;fill-opacity:1" d="M-140.9,-268L-140.9 290L-161.15 290L-161.15 -268L-140.9 -268" />
<path style="fill:#FFBF7F;fill-opacity:1" d="M-68.5,-268L-68.5 290L-101.35 290L-101.35 -268L-68.5 -268" />
<path style="fill:#FF7F00;fill-opacity:1" d="M-94.9,-268L-94.9 290L-115.15 290L-115.15 -268L-94.9 -268" />
<path style="fill:#FFBF7F;fill-opacity:1" d="M-22.5,-268L-22.5 290L-55.35 290L-55.35 -268L-22.5 -268" />
<path style="fill:#FF7F00;fill-opacity:1" d="M-48.9,-268L-48.9 290L-69.15 290L-69.15 -268L-48.9 -268" />
<path style="fill:#FFBF7F;fill-opacity:1" d="M23.5,-268L23.5 290L-9.35 290L-9.35 -268L23.5 -268" />
<path style="fill:#FF7F00;fill-opacity:1" d="M-2.9,-268L-2.9 290L-23.15 290L-23.15 -268L-2.9 -268" />
<path style="fill:#FFBF7F;fill-opacity:1" d="M69.5,290L36.65 290L36.65 -268L69.5 -268L69.5 290" />
<path style="fill:#FF7F00;fill-opacity:1" d="M43.1,290L22.85 290L22.85 -268L43.1 -268L43.1 290" />
<path style="fill:#FFBF7F;fill-opacity:1" d="M114.5,-268L114.5 290L81.65 290L81.65 -268L114.5 -268" />
<path style="fill:#FF7F00;fill-opacity:1" d="M88.1,-268L88.1 290L67.85 290L67.85 -268L88.1 -268" />
<path style="fill:#FFBF7F;fill-opacity:1" d="M160.15,-268L160.15 290L127.3 290L127.3 -268L160.15 -268" />
<path style="fill:#FF7F00;fill-opacity:1" d="M133.75,-268L133.75 290L113.5 290L113.5 -268L133.75 -268" />
<path style="fill:#FFBF7F;fill-opacity:1" d="M206.15,-268L206.15 290L173.3 290L173.3 -268L206.15 -268" />
<path style="fill:#FF7F00;fill-opacity:1" d="M179.75,-268L179.75 290L159.5 290L159.5 -268L179.75 -268" />
<path style="fill:#FFBF7F;fill-opacity:1" d="M252.15,-268L252.15 290L219.3 290L219.3 -268L252.15 -268" />
<path style="fill:#FF7F00;fill-opacity:1" d="M225.75,-268L225.75 290L205.5 290L205.5 -268L225.75 -268" />
<path style="fill:#FFBF7F;fill-opacity:1" d="M298.15,-268L298.15 290L265.3 290L265.3 -268L298.15 -268" />
<path style="fill:#FF7F00;fill-opacity:1" d="M271.75,-268L271.75 290L251.5 290L251.5 -268L271.75 -268" />
<path style="fill:#FFBF7F;fill-opacity:1" d="M344.15,-268L344.15 290L311.3 290L311.3 -268L344.15 -268" />
<path style="fill:#FF7F00;fill-opacity:1" d="M317.75,-268L317.75 290L297.5 290L297.5 -268L317.75 -268" />
<path style="fill:none;stroke-width:2;stroke-linecap:round;stroke-linejoin:round;stroke-miterlimit:3;stroke:#000000;stroke-opacity:1" d="M178.15,2L241.15 283" />
<path style="fill:none;stroke-width:2;stroke-linecap:round;stroke-linejoin:round;stroke-miterlimit:3;stroke:#000000;stroke-opacity:1" d="M236.15,-32L243.15 274" />
<path style="fill:none;stroke-width:2;stroke-linecap:round;stroke-linejoin:round;stroke-miterlimit:3;stroke:#000000;stroke-opacity:1" d="M281.15,-14L239.15 278" />
<path style="fill:none;stroke-width:2;stroke-linecap:round;stroke-linejoin:round;stroke-miterlimit:3;stroke:#000000;stroke-opacity:1" d="M194.15,-66L245.15 282" />
<path style="fill:none;stroke-width:2;stroke-linecap:round;stroke-linejoin:round;stroke-miterlimit:3;stroke:#000000;stroke-opacity:1" d="M256.15,-73L237.15 281" />
<path style="fill:none;stroke-width:2;stroke-linecap:round;stroke-linejoin:round;stroke-miterlimit:3;stroke:#000000;stroke-opacity:1" d="M-225.85,8L-248.85 284" />
<path style="fill:none;stroke-width:2;stroke-linecap:round;stroke-linejoin:round;stroke-miterlimit:3;stroke:#000000;stroke-opacity:1" d="M-274.85,-30L-248.85 284" />
<path style="fill:none;stroke-width:2;stroke-linecap:round;stroke-linejoin:round;stroke-miterlimit:3;stroke:#000000;stroke-opacity:1" d="M-292.85,-51L-253.85 280" />
<path style="fill:none;stroke-width:2;stroke-linecap:round;stroke-linejoin:round;stroke-miterlimit:3;stroke:#000000;stroke-opacity:1" d="M-226.85,-65L-251.85 273" />
<path style="fill:none;stroke-width:2;stroke-linecap:round;stroke-linejoin:round;stroke-miterlimit:3;stroke:#000000;stroke-opacity:1" d="M-177.75,-42.95L-243.85 275" />
<path style="fill:#9F53FF;fill-opacity:1" d="M278.65,-174.35Q280.6 -126.6 277.15 -128Q272.15 -130 254.15 -131Q223.15 -124 205.15 -130Q192.7 -134.15 169.4 -136.1Q148.95 -137.85 135.15 -137L120.25 -135.7L102.15 -134Q79.55 -132.15 72.15 -134Q63.55 -136.15 43.4 -136.35L13.15 -135Q1.85 -133.4 -10.45 -133.75Q-24.2 -134.15 -34.85 -137Q-49.85 -141 -72.85 -137Q-119.85 -135 -133.85 -139Q-142.55 -141.5 -164.95 -141L-187.85 -140L-193.8 -139.35L-205.6 -138.35Q-223.75 -137.65 -236.85 -142Q-257.85 -149 -289.85 -142Q-294.85 -144 -283.85 -182Q-272.85 -220 -283.85 -285L278.15 -290Q271.15 -245 274.15 -232Q275.25 -227.2 276.6 -210Q277.9 -193.15 278.65 -174.35" />
<path style="fill:#7F1AFF;fill-opacity:1" d="M258.8,-258.65Q141.5 -188.65 12.8 -256.65Q138.15 -210 258.8 -258.65" />
<path style="fill:#7F1AFF;fill-opacity:1" d="M-261.2,-245.3Q-206.5 -220.65 -167.2 -254Q-215.85 -208.65 -261.2 -245.3" />
<path style="fill:#7F1AFF;fill-opacity:1" d="M232.95,-229.85Q241.25 -232.45 249.15 -237.5Q233.15 -205.5 233.15 -186.5Q232.15 -161.5 247.15 -153.5Q224.35 -151.15 196.15 -158.5Q184 -161.65 161.4 -161Q140.9 -160.4 128.15 -157.5Q119.8 -155.6 92.55 -157.85L73.95 -159.6L64.15 -160.5L55.2 -161.7L37.65 -164Q10.95 -166.95 -3.85 -164.5Q-18.8 -162 -45.75 -162.75L-83.2 -164.3L-104.3 -163.45L-126 -161.2L-147.5 -159.7Q-159 -159.45 -167.85 -161Q-189.75 -164.8 -200.55 -162.6Q-211.15 -160.5 -215.85 -151.5Q-224.85 -165.5 -216.35 -197.5Q-207.85 -229.5 -216.85 -242.5Q-202.85 -229.5 -180.85 -226.5Q-168.85 -221.5 -120.85 -226.5Q-90.85 -230.5 -48.85 -226.5Q-23 -224.05 -1.35 -224.5L14.45 -225.1L28.15 -225.5Q43.4 -225.5 70.95 -224.3L111.5 -221.65Q116.55 -221 123.15 -221.55L136.6 -223.3Q158.1 -226.5 175.15 -226.5L197.55 -226.25Q209.2 -226.15 216.3 -226.75Q225.5 -227.55 232.95 -229.85" />
<path style="fill:#FFFF00;fill-opacity:1" d="M230.95,-234.85Q239.25 -237.45 247.15 -242.5Q231.15 -210.5 231.15 -191.5Q230.15 -166.5 245.15 -158.5Q222.35 -156.15 194.15 -163.5Q182 -166.65 159.4 -166Q138.9 -165.4 126.15 -162.5Q117.8 -160.6 90.55 -162.85L71.95 -164.6L62.15 -165.5L53.2 -166.7L35.65 -169Q8.95 -171.95 -5.85 -169.5Q-20.8 -167 -47.75 -167.75L-85.2 -169.3L-106.3 -168.45L-128 -166.2L-149.5 -164.7Q-161 -164.45 -169.85 -166Q-191.75 -169.8 -202.55 -167.6Q-213.15 -165.5 -217.85 -156.5Q-226.85 -170.5 -218.35 -202.5Q-209.85 -234.5 -218.85 -247.5Q-204.85 -234.5 -182.85 -231.5Q-170.85 -226.5 -122.85 -231.5Q-92.85 -235.5 -50.85 -231.5Q-25 -229.05 -3.35 -229.5L12.45 -230.1L26.15 -230.5Q41.4 -230.5 68.95 -229.3L109.5 -226.65Q114.55 -226 121.15 -226.55L134.6 -228.3Q156.1 -231.5 173.15 -231.5L195.55 -231.25Q207.2 -231.15 214.3 -231.75Q223.5 -232.55 230.95 -234.85" />
<path style="fill:#FF7F00;fill-opacity:1" d="M-151.15,-216.3Q-151.15 -214.7 -152.75 -213.95L-154.1 -213Q-154.45 -212.65 -154.6 -211.4L-155.05 -197.3Q-155.05 -192 -154.65 -190.5Q-154.4 -189.65 -154.15 -189.45L-152.5 -188.4Q-151.5 -187.8 -151.5 -186.7Q-151.5 -184.7 -153.9 -183.8Q-156.25 -182.85 -161.65 -182.85Q-166.35 -182.85 -168.55 -183.8Q-170.6 -184.65 -170.6 -186.4Q-170.6 -187.95 -169.05 -188.75L-168 -189.6L-167.45 -191.15Q-167 -193.3 -167 -196.6Q-167 -198.2 -167.45 -198.65L-170 -199.05L-176.05 -198.5Q-176.55 -198.3 -176.7 -197.25L-176.85 -194.15Q-176.85 -191.15 -176 -189.85L-174.65 -188.75Q-173.5 -188.05 -173.5 -186.65Q-173.5 -184.85 -176.1 -183.85Q-178.7 -182.85 -183.4 -182.85Q-187.65 -182.85 -190.45 -183.75L-192.3 -184.9Q-193 -185.6 -193 -186.5Q-193 -187.35 -192.55 -187.8L-190.7 -189.05L-189.65 -190Q-189.35 -190.5 -189.2 -191.95Q-188.8 -195.25 -188.8 -200L-188.95 -209.4Q-188.95 -211.8 -189.35 -212.4Q-189.75 -213.2 -191.5 -214Q-192.65 -214.55 -192.65 -215.65Q-192.65 -218.3 -187.45 -219.35L-181.3 -219.95Q-173.05 -219.95 -173.05 -216.55Q-173.05 -215.65 -173.5 -215.05L-175.1 -213.75Q-176.2 -213.15 -176.4 -212.1Q-176.7 -211.05 -176.7 -207.95Q-176.7 -206.1 -176 -205.65L-174.8 -205.35L-171 -205.3L-167.65 -205.6Q-167 -205.9 -167 -207.05Q-167 -210.55 -167.3 -211.9Q-167.6 -213.3 -168.55 -213.75L-170.05 -214.9Q-170.45 -215.4 -170.45 -216.1Q-170.45 -217.15 -169.6 -218.1Q-168.9 -218.9 -167.5 -219.3L-160.6 -219.95Q-155.75 -219.95 -153.45 -219.05Q-151.15 -218.15 -151.15 -216.3" />
<path style="fill:none;stroke-width:1;stroke-linecap:round;stroke-linejoin:round;stroke-miterlimit:3;stroke:#000000;stroke-opacity:1" d="M-151.15,-216.3Q-151.15 -214.7 -152.75 -213.95L-154.1 -213Q-154.45 -212.65 -154.6 -211.4L-155.05 -197.3Q-155.05 -192 -154.65 -190.5Q-154.4 -189.65 -154.15 -189.45L-152.5 -188.4Q-151.5 -187.8 -151.5 -186.7Q-151.5 -184.7 -153.9 -183.8Q-156.25 -182.85 -161.65 -182.85Q-166.35 -182.85 -168.55 -183.8Q-170.6 -184.65 -170.6 -186.4Q-170.6 -187.95 -169.05 -188.75L-168 -189.6L-167.45 -191.15Q-167 -193.3 -167 -196.6Q-167 -198.2 -167.45 -198.65L-170 -199.05L-176.05 -198.5Q-176.55 -198.3 -176.7 -197.25L-176.85 -194.15Q-176.85 -191.15 -176 -189.85L-174.65 -188.75Q-173.5 -188.05 -173.5 -186.65Q-173.5 -184.85 -176.1 -183.85Q-178.7 -182.85 -183.4 -182.85Q-187.65 -182.85 -190.45 -183.75L-192.3 -184.9Q-193 -185.6 -193 -186.5Q-193 -187.35 -192.55 -187.8L-190.7 -189.05L-189.65 -190Q-189.35 -190.5 -189.2 -191.95Q-188.8 -195.25 -188.8 -200L-188.95 -209.4Q-188.95 -211.8 -189.35 -212.4Q-189.75 -213.2 -191.5 -214Q-192.65 -214.55 -192.65 -215.65Q-192.65 -218.3 -187.45 -219.35L-181.3 -219.95Q-173.05 -219.95 -173.05 -216.55Q-173.05 -215.65 -173.5 -215.05L-175.1 -213.75Q-176.2 -213.15 -176.4 -212.1Q-176.7 -211.05 -176.7 -207.95Q-176.7 -206.1 -176 -205.65L-174.8 -205.35L-171 -205.3L-167.65 -205.6Q-167 -205.9 -167 -207.05Q-167 -210.55 -167.3 -211.9Q-167.6 -213.3 -168.55 -213.75L-170.05 -214.9Q-170.45 -215.4 -170.45 -216.1Q-170.45 -217.15 -169.6 -218.1Q-168.9 -218.9 -167.5 -219.3L-160.6 -219.95Q-155.75 -219.95 -153.45 -219.05Q-151.15 -218.15 -151.15 -216.3z" />
<path style="fill:#FF7F00;fill-opacity:1" d="M-124.5,-183.35Q-125.8 -183.6 -126.6 -184.3Q-127.35 -185.05 -127.35 -186.05Q-127.35 -186.8 -126.95 -187.3Q-126.55 -187.7 -125.45 -188.1Q-124.2 -188.45 -124.2 -189.5Q-124.2 -191.3 -126.35 -191.6L-132.8 -191.9L-137 -191.5L-137.7 -190.55L-138.05 -189.2L-137.8 -188.45L-136.35 -187.9Q-134.75 -187.45 -134.75 -186Q-134.75 -182.85 -142.25 -182.85L-148.55 -183.45Q-150.35 -183.95 -150.35 -185.85Q-150.35 -186.75 -149.95 -187.15Q-149.6 -187.55 -148.5 -187.95Q-146.8 -188.55 -145.9 -189.65Q-145.1 -190.65 -143.4 -194.35L-139.65 -202.5Q-137.75 -206.65 -136.9 -209.2Q-136.2 -211.45 -136.2 -213.55L-135.9 -216.7Q-135.7 -217.45 -134.8 -218.45Q-132.95 -220.3 -130.15 -220.3Q-127.5 -220.3 -125.05 -218.2Q-121.75 -215.4 -115.25 -201.6L-110.25 -190.95L-109.1 -189Q-108.6 -188.55 -107.65 -188.35Q-105.75 -188.15 -105.75 -186.45Q-105.75 -184.5 -108.05 -183.7Q-110.25 -182.85 -115.65 -182.85L-124.5 -183.35M-132.95,-204.05L-133.7 -202.15L-134.8 -198.95Q-134.8 -198.3 -133.6 -198.3L-128.45 -198.3Q-127 -198.3 -127 -198.9Q-127 -199.8 -129 -203.2L-130.35 -205.25Q-130.85 -205.8 -131.35 -205.8Q-132.25 -205.8 -132.95 -204.05" />
<path style="fill:none;stroke-width:1;stroke-linecap:round;stroke-linejoin:round;stroke-miterlimit:3;stroke:#000000;stroke-opacity:1" d="M-124.5,-183.35Q-125.8 -183.6 -126.6 -184.3Q-127.35 -185.05 -127.35 -186.05Q-127.35 -186.8 -126.95 -187.3Q-126.55 -187.7 -125.45 -188.1Q-124.2 -188.45 -124.2 -189.5Q-124.2 -191.3 -126.35 -191.6L-132.8 -191.9L-137 -191.5L-137.7 -190.55L-138.05 -189.2L-137.8 -188.45L-136.35 -187.9Q-134.75 -187.45 -134.75 -186Q-134.75 -182.85 -142.25 -182.85L-148.55 -183.45Q-150.35 -183.95 -150.35 -185.85Q-150.35 -186.75 -149.95 -187.15Q-149.6 -187.55 -148.5 -187.95Q-146.8 -188.55 -145.9 -189.65Q-145.1 -190.65 -143.4 -194.35L-139.65 -202.5Q-137.75 -206.65 -136.9 -209.2Q-136.2 -211.45 -136.2 -213.55L-135.9 -216.7Q-135.7 -217.45 -134.8 -218.45Q-132.95 -220.3 -130.15 -220.3Q-127.5 -220.3 -125.05 -218.2Q-121.75 -215.4 -115.25 -201.6L-110.25 -190.95L-109.1 -189Q-108.6 -188.55 -107.65 -188.35Q-105.75 -188.15 -105.75 -186.45Q-105.75 -184.5 -108.05 -183.7Q-110.25 -182.85 -115.65 -182.85L-124.5 -183.35M-132.95,-204.05L-133.7 -202.15L-134.8 -198.95Q-134.8 -198.3 -133.6 -198.3L-128.45 -198.3Q-127 -198.3 -127 -198.9Q-127 -199.8 -129 -203.2L-130.35 -205.25Q-130.85 -205.8 -131.35 -205.8Q-132.25 -205.8 -132.95 -204.05" />
<path style="fill:#FF7F00;fill-opacity:1" d="M-75.45,-217.95Q-69.55 -214.9 -69.55 -208.25Q-69.55 -202.95 -73.65 -199.6Q-77.55 -196.6 -83.05 -196.6L-87.85 -196.85Q-88.6 -196.85 -88.6 -196L-88.4 -191.5Q-88.35 -190.3 -87.95 -189.6Q-87.6 -189.1 -86.25 -188.35Q-84.55 -187.35 -84.55 -186.35Q-84.55 -184.6 -87.1 -183.8Q-89.65 -182.9 -94.25 -182.9Q-104 -182.9 -104 -186.25Q-104 -187.05 -103.6 -187.45Q-102.9 -188.05 -101.6 -188.65Q-100.65 -189.2 -100.5 -190.05L-100.3 -209.7Q-100.3 -212.45 -100.65 -213.1Q-101 -213.85 -102.65 -214.3Q-105.05 -214.95 -105.05 -216.65Q-105.05 -217.8 -104.05 -218.5Q-103.05 -219.1 -101.15 -219.1L-83.15 -219.7Q-78.75 -219.7 -75.45 -217.95M-88.4,-213.05L-88.4 -204.1Q-88.4 -203.05 -87.95 -202.85L-86.05 -202.45Q-84.35 -202.45 -83.1 -203.45Q-81.4 -204.85 -81.4 -208.15Q-81.4 -211.6 -83.4 -213.1Q-84.65 -214.05 -86.45 -214.05Q-88.4 -214.05 -88.4 -213.05" />
<path style="fill:none;stroke-width:1;stroke-linecap:round;stroke-linejoin:round;stroke-miterlimit:3;stroke:#000000;stroke-opacity:1" d="M-75.45,-217.95Q-69.55 -214.9 -69.55 -208.25Q-69.55 -202.95 -73.65 -199.6Q-77.55 -196.6 -83.05 -196.6L-87.85 -196.85Q-88.6 -196.85 -88.6 -196L-88.4 -191.5Q-88.35 -190.3 -87.95 -189.6Q-87.6 -189.1 -86.25 -188.35Q-84.55 -187.35 -84.55 -186.35Q-84.55 -184.6 -87.1 -183.8Q-89.65 -182.9 -94.25 -182.9Q-104 -182.9 -104 -186.25Q-104 -187.05 -103.6 -187.45Q-102.9 -188.05 -101.6 -188.65Q-100.65 -189.2 -100.5 -190.05L-100.3 -209.7Q-100.3 -212.45 -100.65 -213.1Q-101 -213.85 -102.65 -214.3Q-105.05 -214.95 -105.05 -216.65Q-105.05 -217.8 -104.05 -218.5Q-103.05 -219.1 -101.15 -219.1L-83.15 -219.7Q-78.75 -219.7 -75.45 -217.95M-88.4,-213.05L-88.4 -204.1Q-88.4 -203.05 -87.95 -202.85L-86.05 -202.45Q-84.35 -202.45 -83.1 -203.45Q-81.4 -204.85 -81.4 -208.15Q-81.4 -211.6 -83.4 -213.1Q-84.65 -214.05 -86.45 -214.05Q-88.4 -214.05 -88.4 -213.05" />
<path style="fill:#FF7F00;fill-opacity:1" d="M-46.2,-219.7Q-41.8 -219.7 -38.5 -217.95Q-32.6 -214.85 -32.6 -208.25Q-32.6 -202.9 -36.75 -199.6Q-40.55 -196.6 -46.1 -196.6L-50.9 -196.85Q-51.65 -196.85 -51.65 -196L-51.45 -191.5Q-51.45 -190.25 -51 -189.6Q-50.65 -189.05 -49.35 -188.35Q-47.6 -187.35 -47.6 -186.35Q-47.6 -184.6 -50.15 -183.8Q-52.7 -182.9 -57.3 -182.9Q-67.1 -182.9 -67.1 -186.25Q-67.1 -187 -66.65 -187.45L-64.7 -188.65Q-63.75 -189.15 -63.55 -190.05L-63.35 -209.7Q-63.35 -212.4 -63.75 -213.1Q-64.15 -213.85 -65.75 -214.3Q-68.1 -215 -68.1 -216.65Q-68.1 -217.8 -67.1 -218.5Q-66.1 -219.1 -64.2 -219.1L-46.2 -219.7M-51.45,-213.05L-51.45 -204.1Q-51.45 -203.05 -51 -202.85L-49.1 -202.45Q-47.4 -202.45 -46.15 -203.45Q-44.45 -204.9 -44.45 -208.15Q-44.45 -211.6 -46.45 -213.1Q-47.7 -214.05 -49.5 -214.05Q-51.45 -214.05 -51.45 -213.05" />
<path style="fill:none;stroke-width:1;stroke-linecap:round;stroke-linejoin:round;stroke-miterlimit:3;stroke:#000000;stroke-opacity:1" d="M-46.2,-219.7Q-41.8 -219.7 -38.5 -217.95Q-32.6 -214.85 -32.6 -208.25Q-32.6 -202.9 -36.75 -199.6Q-40.55 -196.6 -46.1 -196.6L-50.9 -196.85Q-51.65 -196.85 -51.65 -196L-51.45 -191.5Q-51.45 -190.25 -51 -189.6Q-50.65 -189.05 -49.35 -188.35Q-47.6 -187.35 -47.6 -186.35Q-47.6 -184.6 -50.15 -183.8Q-52.7 -182.9 -57.3 -182.9Q-67.1 -182.9 -67.1 -186.25Q-67.1 -187 -66.65 -187.45L-64.7 -188.65Q-63.75 -189.15 -63.55 -190.05L-63.35 -209.7Q-63.35 -212.4 -63.75 -213.1Q-64.15 -213.85 -65.75 -214.3Q-68.1 -215 -68.1 -216.65Q-68.1 -217.8 -67.1 -218.5Q-66.1 -219.1 -64.2 -219.1L-46.2 -219.7M-51.45,-213.05L-51.45 -204.1Q-51.45 -203.05 -51 -202.85L-49.1 -202.45Q-47.4 -202.45 -46.15 -203.45Q-44.45 -204.9 -44.45 -208.15Q-44.45 -211.6 -46.45 -213.1Q-47.7 -214.05 -49.5 -214.05Q-51.45 -214.05 -51.45 -213.05" />
<path style="fill:#FF7F00;fill-opacity:1" d="M10.25,-216.95Q10.25 -215.8 9.6 -215.3Q8.9 -214.75 7.3 -214.45Q5.75 -214.15 4.7 -213.3L0.65 -209.3Q-2.95 -205.4 -3.85 -203.6Q-4.7 -201.85 -4.7 -198.1L-4.5 -192.45Q-4.35 -190.75 -4 -190.2L-2.45 -189Q-0.55 -188 -0.55 -186.5Q-0.55 -182.9 -11.15 -182.9Q-15.65 -182.9 -19.35 -183.75Q-22.65 -184.4 -22.65 -186.55Q-22.65 -188.2 -20.6 -188.9Q-19.15 -189.4 -18.75 -190.25Q-17.9 -192.1 -17.9 -198.85Q-17.9 -200.95 -18.35 -202.15Q-18.7 -203.25 -20.15 -205.15Q-23.25 -209.15 -26.3 -212.15Q-27.7 -213.5 -28.95 -214Q-30.6 -214.55 -31.1 -214.95Q-31.85 -215.6 -31.85 -216.65Q-31.85 -218.35 -29.2 -219.2L-20.3 -219.95L-12.4 -219.4Q-11.1 -219.15 -10.4 -218.45Q-9.65 -217.75 -9.65 -216.9Q-9.65 -216.15 -10.25 -215.5L-11.1 -213.95Q-11.1 -212.95 -9.55 -210.9Q-8.55 -209.55 -7.75 -209.55Q-7.2 -209.55 -6.65 -209.95L-5.3 -211.4Q-4.25 -212.75 -4.25 -213.5L-4.35 -214.2L-5.2 -215.3Q-5.75 -216 -5.75 -216.95Q-5.75 -219.95 2.3 -219.95L8.25 -219.5L9.7 -218.5Q10.25 -217.7 10.25 -216.95" />
<path style="fill:none;stroke-width:1;stroke-linecap:round;stroke-linejoin:round;stroke-miterlimit:3;stroke:#000000;stroke-opacity:1" d="M10.25,-216.95Q10.25 -215.8 9.6 -215.3Q8.9 -214.75 7.3 -214.45Q5.75 -214.15 4.7 -213.3L0.65 -209.3Q-2.95 -205.4 -3.85 -203.6Q-4.7 -201.85 -4.7 -198.1L-4.5 -192.45Q-4.35 -190.75 -4 -190.2L-2.45 -189Q-0.55 -188 -0.55 -186.5Q-0.55 -182.9 -11.15 -182.9Q-15.65 -182.9 -19.35 -183.75Q-22.65 -184.4 -22.65 -186.55Q-22.65 -188.2 -20.6 -188.9Q-19.15 -189.4 -18.75 -190.25Q-17.9 -192.1 -17.9 -198.85Q-17.9 -200.95 -18.35 -202.15Q-18.7 -203.25 -20.15 -205.15Q-23.25 -209.15 -26.3 -212.15Q-27.7 -213.5 -28.95 -214Q-30.6 -214.55 -31.1 -214.95Q-31.85 -215.6 -31.85 -216.65Q-31.85 -218.35 -29.2 -219.2L-20.3 -219.95L-12.4 -219.4Q-11.1 -219.15 -10.4 -218.45Q-9.65 -217.75 -9.65 -216.9Q-9.65 -216.15 -10.25 -215.5L-11.1 -213.95Q-11.1 -212.95 -9.55 -210.9Q-8.55 -209.55 -7.75 -209.55Q-7.2 -209.55 -6.65 -209.95L-5.3 -211.4Q-4.25 -212.75 -4.25 -213.5L-4.35 -214.2L-5.2 -215.3Q-5.75 -216 -5.75 -216.95Q-5.75 -219.95 2.3 -219.95L8.25 -219.5L9.7 -218.5Q10.25 -217.7 10.25 -216.95z" />
<path style="fill:#33FFFF;fill-opacity:1" d="M54.05,-217.95Q59.95 -214.85 59.95 -208.25Q59.95 -202.9 55.8 -199.6Q52 -196.6 46.45 -196.6L41.65 -196.85Q40.9 -196.85 40.9 -196L41.1 -191.5Q41.1 -190.25 41.55 -189.6Q41.9 -189.05 43.2 -188.35Q44.95 -187.35 44.95 -186.35Q44.95 -184.6 42.4 -183.8Q39.85 -182.9 35.25 -182.9Q25.45 -182.9 25.45 -186.25Q25.45 -187 25.9 -187.45L27.85 -188.65Q28.8 -189.15 29 -190.05L29.2 -209.7Q29.2 -212.4 28.8 -213.1Q28.4 -213.85 26.8 -214.3Q24.45 -215 24.45 -216.65Q24.45 -217.8 25.45 -218.5Q26.45 -219.1 28.35 -219.1L46.35 -219.7Q50.75 -219.7 54.05 -217.95M41.1,-213.05L41.1 -204.1Q41.1 -203.05 41.55 -202.85L43.45 -202.45Q45.15 -202.45 46.4 -203.45Q48.1 -204.9 48.1 -208.15Q48.1 -211.6 46.1 -213.1Q44.85 -214.05 43.05 -214.05Q41.1 -214.05 41.1 -213.05" />
<path style="fill:none;stroke-width:1;stroke-linecap:round;stroke-linejoin:round;stroke-miterlimit:3;stroke:#000000;stroke-opacity:1" d="M54.05,-217.95Q59.95 -214.85 59.95 -208.25Q59.95 -202.9 55.8 -199.6Q52 -196.6 46.45 -196.6L41.65 -196.85Q40.9 -196.85 40.9 -196L41.1 -191.5Q41.1 -190.25 41.55 -189.6Q41.9 -189.05 43.2 -188.35Q44.95 -187.35 44.95 -186.35Q44.95 -184.6 42.4 -183.8Q39.85 -182.9 35.25 -182.9Q25.45 -182.9 25.45 -186.25Q25.45 -187 25.9 -187.45L27.85 -188.65Q28.8 -189.15 29 -190.05L29.2 -209.7Q29.2 -212.4 28.8 -213.1Q28.4 -213.85 26.8 -214.3Q24.45 -215 24.45 -216.65Q24.45 -217.8 25.45 -218.5Q26.45 -219.1 28.35 -219.1L46.35 -219.7Q50.75 -219.7 54.05 -217.95M41.1,-213.05L41.1 -204.1Q41.1 -203.05 41.55 -202.85L43.45 -202.45Q45.15 -202.45 46.4 -203.45Q48.1 -204.9 48.1 -208.15Q48.1 -211.6 46.1 -213.1Q44.85 -214.05 43.05 -214.05Q41.1 -214.05 41.1 -213.05" />
<path style="fill:#33FFFF;fill-opacity:1" d="M76.9,-220.3Q79.55 -220.3 81.95 -218.2Q85.35 -215.35 91.8 -201.6L96.75 -190.95Q97.5 -189.45 97.95 -189Q98.35 -188.6 99.4 -188.35Q101.3 -188.1 101.3 -186.45Q101.3 -184.5 99 -183.7Q96.8 -182.85 91.4 -182.85L82.55 -183.35Q81.25 -183.55 80.45 -184.3Q79.7 -185.05 79.7 -186.05Q79.7 -186.9 80.1 -187.3L81.6 -188.1Q82.85 -188.45 82.85 -189.5Q82.85 -191.3 80.7 -191.6L74.25 -191.9L70.05 -191.5L69.3 -190.55Q69 -189.85 69 -189.2L69.2 -188.45L70.7 -187.9Q72.3 -187.45 72.3 -186Q72.3 -182.85 64.8 -182.85L58.5 -183.45Q56.65 -184 56.65 -185.85Q56.65 -186.65 57.05 -187.15Q57.45 -187.55 58.55 -187.95Q60.25 -188.55 61.15 -189.65L63.65 -194.35L67.35 -202.5Q69.35 -206.75 70.1 -209.2Q70.85 -211.35 70.85 -213.55Q70.85 -215.7 71.1 -216.7Q71.4 -217.6 72.25 -218.45Q74.1 -220.3 76.9 -220.3M75.65,-205.8Q74.7 -205.8 74.1 -204.05L73.3 -202.15L72.2 -198.95Q72.2 -198.3 73.45 -198.3L78.6 -198.3Q80 -198.3 80 -198.9Q80 -199.75 78.05 -203.2L76.65 -205.25Q76.25 -205.8 75.65 -205.8" />
<path style="fill:none;stroke-width:1;stroke-linecap:round;stroke-linejoin:round;stroke-miterlimit:3;stroke:#000000;stroke-opacity:1" d="M76.9,-220.3Q79.55 -220.3 81.95 -218.2Q85.35 -215.35 91.8 -201.6L96.75 -190.95Q97.5 -189.45 97.95 -189Q98.35 -188.6 99.4 -188.35Q101.3 -188.1 101.3 -186.45Q101.3 -184.5 99 -183.7Q96.8 -182.85 91.4 -182.85L82.55 -183.35Q81.25 -183.55 80.45 -184.3Q79.7 -185.05 79.7 -186.05Q79.7 -186.9 80.1 -187.3L81.6 -188.1Q82.85 -188.45 82.85 -189.5Q82.85 -191.3 80.7 -191.6L74.25 -191.9L70.05 -191.5L69.3 -190.55Q69 -189.85 69 -189.2L69.2 -188.45L70.7 -187.9Q72.3 -187.45 72.3 -186Q72.3 -182.85 64.8 -182.85L58.5 -183.45Q56.65 -184 56.65 -185.85Q56.65 -186.65 57.05 -187.15Q57.45 -187.55 58.55 -187.95Q60.25 -188.55 61.15 -189.65L63.65 -194.35L67.35 -202.5Q69.35 -206.75 70.1 -209.2Q70.85 -211.35 70.85 -213.55Q70.85 -215.7 71.1 -216.7Q71.4 -217.6 72.25 -218.45Q74.1 -220.3 76.9 -220.3M75.65,-205.8Q74.7 -205.8 74.1 -204.05L73.3 -202.15L72.2 -198.95Q72.2 -198.3 73.45 -198.3L78.6 -198.3Q80 -198.3 80 -198.9Q80 -199.75 78.05 -203.2L76.65 -205.25Q76.25 -205.8 75.65 -205.8" />
<path style="fill:#33FFFF;fill-opacity:1" d="M112.3,-219.4L124.2 -219.85Q129.9 -219.85 133.55 -217.1Q136.85 -214.7 136.85 -210.3Q136.85 -207.85 135.7 -205.9Q134.6 -204 132.5 -202.9Q131.7 -202.55 131.7 -201.9Q131.7 -201.15 132.95 -200.65Q135.7 -199.7 137.05 -197.65Q138.3 -195.7 138.9 -191.4Q139.15 -189.65 139.55 -189.15Q139.95 -188.7 141.65 -188.15L142.5 -187.5L142.85 -186.35Q142.85 -185.6 142.2 -184.7Q141.6 -183.85 140.55 -183.4Q138.4 -182.35 134.5 -182.35Q129.35 -182.35 127.15 -185.1Q126.15 -186.25 125.45 -188.15L123.8 -193.9Q123.2 -196.35 122.25 -197.45Q121.3 -198.5 119.55 -198.55Q118.6 -198.55 118.3 -197.95Q118 -197.25 118 -195.1Q118 -191.75 118.45 -189.9L118.85 -189.05L119.85 -188.35Q121.4 -187.55 121.4 -186.05Q121.4 -184.35 119.2 -183.6Q117.05 -182.85 111.75 -182.85Q102 -182.85 102 -186.55Q102 -187.15 102.3 -187.6L103.6 -188.65Q104.75 -189.35 105.2 -190.45Q105.6 -191.6 105.75 -194.05L105.9 -207.45Q105.9 -211.1 105.5 -212.45Q105.2 -213.75 103.95 -214.4Q102.8 -214.9 102.4 -215.4Q102 -215.8 102 -216.6Q102 -217.55 102.75 -218.3Q103.5 -219.05 104.85 -219.35L107.95 -219.65L112.3 -219.4M117.75,-205.6Q117.75 -204.65 118.05 -204.35Q118.25 -204 119.15 -204Q121.45 -204 122.55 -205.2Q123.6 -206.4 123.6 -209.05Q123.6 -214.15 119.95 -214.15Q118.95 -214.15 118.5 -213.65Q118.15 -213.2 118.05 -212L117.75 -205.6" />
<path style="fill:none;stroke-width:1;stroke-linecap:round;stroke-linejoin:round;stroke-miterlimit:3;stroke:#000000;stroke-opacity:1" d="M112.3,-219.4L124.2 -219.85Q129.9 -219.85 133.55 -217.1Q136.85 -214.7 136.85 -210.3Q136.85 -207.85 135.7 -205.9Q134.6 -204 132.5 -202.9Q131.7 -202.55 131.7 -201.9Q131.7 -201.15 132.95 -200.65Q135.7 -199.7 137.05 -197.65Q138.3 -195.7 138.9 -191.4Q139.15 -189.65 139.55 -189.15Q139.95 -188.7 141.65 -188.15L142.5 -187.5L142.85 -186.35Q142.85 -185.6 142.2 -184.7Q141.6 -183.85 140.55 -183.4Q138.4 -182.35 134.5 -182.35Q129.35 -182.35 127.15 -185.1Q126.15 -186.25 125.45 -188.15L123.8 -193.9Q123.2 -196.35 122.25 -197.45Q121.3 -198.5 119.55 -198.55Q118.6 -198.55 118.3 -197.95Q118 -197.25 118 -195.1Q118 -191.75 118.45 -189.9L118.85 -189.05L119.85 -188.35Q121.4 -187.55 121.4 -186.05Q121.4 -184.35 119.2 -183.6Q117.05 -182.85 111.75 -182.85Q102 -182.85 102 -186.55Q102 -187.15 102.3 -187.6L103.6 -188.65Q104.75 -189.35 105.2 -190.45Q105.6 -191.6 105.75 -194.05L105.9 -207.45Q105.9 -211.1 105.5 -212.45Q105.2 -213.75 103.95 -214.4Q102.8 -214.9 102.4 -215.4Q102 -215.8 102 -216.6Q102 -217.55 102.75 -218.3Q103.5 -219.05 104.85 -219.35L107.95 -219.65L112.3 -219.4M117.75,-205.6Q117.75 -204.65 118.05 -204.35Q118.25 -204 119.15 -204Q121.45 -204 122.55 -205.2Q123.6 -206.4 123.6 -209.05Q123.6 -214.15 119.95 -214.15Q118.95 -214.15 118.5 -213.65Q118.15 -213.2 118.05 -212L117.75 -205.6" />
<path style="fill:#33FFFF;fill-opacity:1" d="M177.1,-217.05Q179.1 -213.95 179.1 -210.55Q179.1 -208.25 177.7 -207.2Q176.7 -206.4 175.2 -206.4Q173.75 -206.4 172.75 -207.2Q171.75 -207.9 170.75 -209.75L169.35 -211.9Q168.75 -212.4 168.15 -212.4Q167.2 -212.4 166.75 -211.55Q166.3 -210.7 166.3 -208.9L166.3 -194.1Q166.3 -191.95 166.8 -190.8Q167.3 -189.75 168.6 -189.25L170.55 -188.1Q171.05 -187.5 171.05 -186.6Q171.05 -184.7 168.45 -183.8Q165.95 -182.85 160.55 -182.85Q154 -182.85 150.85 -183.95Q148.2 -184.85 148.2 -186.85Q148.2 -187.9 149.15 -188.5L151.05 -189.15Q152.05 -189.45 152.4 -190.25L153.05 -193.4L153.6 -208.05Q153.6 -210.5 153.25 -211.4Q152.9 -212.4 152.05 -212.4Q151.05 -212.4 150.05 -210.95Q148.2 -208.2 147.15 -207.35Q145.75 -206.35 144.5 -206.35Q143.15 -206.35 142.15 -207.4Q141.25 -208.45 141.25 -210.15Q141.25 -211.8 142 -213.75Q142.75 -215.7 143.95 -217.35Q146 -220.05 147.9 -220.05L151.45 -219.5L167.45 -219.4L171.55 -220L172.95 -220.2Q175.1 -220.2 177.1 -217.05" />
<path style="fill:none;stroke-width:1;stroke-linecap:round;stroke-linejoin:round;stroke-miterlimit:3;stroke:#000000;stroke-opacity:1" d="M177.1,-217.05Q179.1 -213.95 179.1 -210.55Q179.1 -208.25 177.7 -207.2Q176.7 -206.4 175.2 -206.4Q173.75 -206.4 172.75 -207.2Q171.75 -207.9 170.75 -209.75L169.35 -211.9Q168.75 -212.4 168.15 -212.4Q167.2 -212.4 166.75 -211.55Q166.3 -210.7 166.3 -208.9L166.3 -194.1Q166.3 -191.95 166.8 -190.8Q167.3 -189.75 168.6 -189.25L170.55 -188.1Q171.05 -187.5 171.05 -186.6Q171.05 -184.7 168.45 -183.8Q165.95 -182.85 160.55 -182.85Q154 -182.85 150.85 -183.95Q148.2 -184.85 148.2 -186.85Q148.2 -187.9 149.15 -188.5L151.05 -189.15Q152.05 -189.45 152.4 -190.25L153.05 -193.4L153.6 -208.05Q153.6 -210.5 153.25 -211.4Q152.9 -212.4 152.05 -212.4Q151.05 -212.4 150.05 -210.95Q148.2 -208.2 147.15 -207.35Q145.75 -206.35 144.5 -206.35Q143.15 -206.35 142.15 -207.4Q141.25 -208.45 141.25 -210.15Q141.25 -211.8 142 -213.75Q142.75 -215.7 143.95 -217.35Q146 -220.05 147.9 -220.05L151.45 -219.5L167.45 -219.4L171.55 -220L172.95 -220.2Q175.1 -220.2 177.1 -217.05z" />
<path style="fill:#33FFFF;fill-opacity:1" d="M221.75,-216.95Q221.75 -215.8 221.1 -215.3Q220.4 -214.75 218.8 -214.45Q217.25 -214.15 216.2 -213.3Q215.15 -212.55 212.15 -209.3Q208.5 -205.35 207.7 -203.6Q206.8 -201.7 206.8 -198.1Q206.8 -194.65 207.05 -192.45Q207.1 -190.9 207.55 -190.2Q207.95 -189.6 209.05 -189Q211 -187.95 211 -186.5Q211 -182.9 200.4 -182.9Q195.85 -182.9 192.15 -183.75Q188.9 -184.45 188.9 -186.55Q188.9 -188.25 190.9 -188.9Q192.35 -189.4 192.75 -190.25Q193.6 -191.95 193.6 -198.85Q193.6 -200.85 193.2 -202.15L191.35 -205.15Q188.25 -209.15 185.2 -212.15L182.55 -214Q180.9 -214.55 180.4 -214.95Q179.65 -215.6 179.65 -216.65Q179.65 -218.35 182.35 -219.2L191.25 -219.95L199.1 -219.4Q200.4 -219.15 201.1 -218.45Q201.85 -217.75 201.85 -216.9Q201.85 -216.2 201.3 -215.5Q200.45 -214.45 200.45 -213.95Q200.45 -213 201.95 -210.9Q202.95 -209.55 203.8 -209.55L204.85 -209.95L206.25 -211.4Q207.25 -212.7 207.25 -213.5L207.15 -214.2L206.3 -215.3Q205.75 -216 205.75 -216.95Q205.75 -219.95 213.85 -219.95L219.75 -219.5Q220.65 -219.25 221.2 -218.5Q221.75 -217.8 221.75 -216.95" />
<path style="fill:none;stroke-width:1;stroke-linecap:round;stroke-linejoin:round;stroke-miterlimit:3;stroke:#000000;stroke-opacity:1" d="M221.75,-216.95Q221.75 -215.8 221.1 -215.3Q220.4 -214.75 218.8 -214.45Q217.25 -214.15 216.2 -213.3Q215.15 -212.55 212.15 -209.3Q208.5 -205.35 207.7 -203.6Q206.8 -201.7 206.8 -198.1Q206.8 -194.65 207.05 -192.45Q207.1 -190.9 207.55 -190.2Q207.95 -189.6 209.05 -189Q211 -187.95 211 -186.5Q211 -182.9 200.4 -182.9Q195.85 -182.9 192.15 -183.75Q188.9 -184.45 188.9 -186.55Q188.9 -188.25 190.9 -188.9Q192.35 -189.4 192.75 -190.25Q193.6 -191.95 193.6 -198.85Q193.6 -200.85 193.2 -202.15L191.35 -205.15Q188.25 -209.15 185.2 -212.15L182.55 -214Q180.9 -214.55 180.4 -214.95Q179.65 -215.6 179.65 -216.65Q179.65 -218.35 182.35 -219.2L191.25 -219.95L199.1 -219.4Q200.4 -219.15 201.1 -218.45Q201.85 -217.75 201.85 -216.9Q201.85 -216.2 201.3 -215.5Q200.45 -214.45 200.45 -213.95Q200.45 -213 201.95 -210.9Q202.95 -209.55 203.8 -209.55L204.85 -209.95L206.25 -211.4Q207.25 -212.7 207.25 -213.5L207.15 -214.2L206.3 -215.3Q205.75 -216 205.75 -216.95Q205.75 -219.95 213.85 -219.95L219.75 -219.5Q220.65 -219.25 221.2 -218.5Q221.75 -217.8 221.75 -216.95z" />
<path style="fill:#33FF00;fill-opacity:1" d="M-177.4,-125.5Q-170.2 -125.5 -163.55 -122Q-157.2 -118.6 -152.25 -112.4Q-147.3 -106.15 -144.6 -98.1Q-141.75 -89.75 -141.75 -80.6Q-141.75 -71.45 -144.5 -63.1Q-147.2 -55 -152.1 -48.75Q-157 -42.5 -163.35 -39.05Q-169.95 -35.5 -177.2 -35.5Q-184.45 -35.5 -191.05 -39Q-197.45 -42.4 -202.35 -48.6Q-207.3 -54.8 -210 -62.9Q-212.85 -71.25 -212.85 -80.4Q-212.85 -89.55 -210.1 -97.9Q-207.4 -106 -202.5 -112.25Q-197.6 -118.5 -191.25 -121.95Q-184.65 -125.5 -177.4 -125.5" />
<path style="fill:none;stroke-width:3;stroke-linecap:round;stroke-linejoin:round;stroke-miterlimit:3;stroke:#000000;stroke-opacity:1" d="M-177.4,-125.5Q-170.2 -125.5 -163.55 -122Q-157.2 -118.6 -152.25 -112.4Q-147.3 -106.15 -144.6 -98.1Q-141.75 -89.75 -141.75 -80.6Q-141.75 -71.45 -144.5 -63.1Q-147.2 -55 -152.1 -48.75Q-157 -42.5 -163.35 -39.05Q-169.95 -35.5 -177.2 -35.5Q-184.45 -35.5 -191.05 -39Q-197.45 -42.4 -202.35 -48.6Q-207.3 -54.8 -210 -62.9Q-212.85 -71.25 -212.85 -80.4Q-212.85 -89.55 -210.1 -97.9Q-207.4 -106 -202.5 -112.25Q-197.6 -118.5 -191.25 -121.95Q-184.65 -125.5 -177.4 -125.5z" />
<path style="fill:#9F53FF;fill-opacity:1" d="M-260.1,-120.5Q-254.5 -114.15 -251.45 -105.95Q-248.25 -97.45 -248.25 -88.15Q-248.25 -78.85 -251.45 -70.35Q-254.5 -62.15 -260.1 -55.8Q-265.7 -49.45 -273 -46Q-280.5 -42.4 -288.75 -42.4Q-297 -42.4 -304.5 -46Q-311.75 -49.45 -317.4 -55.8Q-323 -62.15 -326.05 -70.35Q-329.25 -78.85 -329.25 -88.15Q-329.25 -97.45 -326.05 -105.95Q-323 -114.15 -317.4 -120.5Q-311.75 -126.85 -304.5 -130.3Q-297 -133.9 -288.75 -133.9Q-280.5 -133.9 -273 -130.3Q-265.75 -126.85 -260.1 -120.5" />
<path style="fill:none;stroke-width:3;stroke-linecap:round;stroke-linejoin:round;stroke-miterlimit:3;stroke:#000000;stroke-opacity:1" d="M-260.1,-120.5Q-254.5 -114.15 -251.45 -105.95Q-248.25 -97.45 -248.25 -88.15Q-248.25 -78.85 -251.45 -70.35Q-254.5 -62.15 -260.1 -55.8Q-265.7 -49.45 -273 -46Q-280.5 -42.4 -288.75 -42.4Q-297 -42.4 -304.5 -46Q-311.75 -49.45 -317.4 -55.8Q-323 -62.15 -326.05 -70.35Q-329.25 -78.85 -329.25 -88.15Q-329.25 -97.45 -326.05 -105.95Q-323 -114.15 -317.4 -120.5Q-311.75 -126.85 -304.5 -130.3Q-297 -133.9 -288.75 -133.9Q-280.5 -133.9 -273 -130.3Q-265.75 -126.85 -260.1 -120.5z" />
<path style="fill:#33FFFF;fill-opacity:1" d="M-185.95,-121.8Q-182.85 -113.05 -182.85 -103.5Q-182.85 -93.95 -185.95 -85.2Q-188.95 -76.75 -194.4 -70.25Q-199.9 -63.75 -207 -60.2Q-214.3 -56.5 -222.35 -56.5Q-230.4 -56.5 -237.7 -60.2Q-244.8 -63.75 -250.25 -70.25Q-255.75 -76.75 -258.75 -85.2Q-261.85 -93.95 -261.85 -103.5Q-261.85 -113.05 -258.75 -121.8Q-255.75 -130.2 -250.25 -136.75Q-244.8 -143.25 -237.7 -146.8Q-230.4 -150.5 -222.35 -150.5Q-214.3 -150.5 -207 -146.8Q-199.9 -143.25 -194.4 -136.75Q-188.95 -130.2 -185.95 -121.8" />
<path style="fill:none;stroke-width:3;stroke-linecap:round;stroke-linejoin:round;stroke-miterlimit:3;stroke:#000000;stroke-opacity:1" d="M-185.95,-121.8Q-182.85 -113.05 -182.85 -103.5Q-182.85 -93.95 -185.95 -85.2Q-188.95 -76.75 -194.4 -70.25Q-199.9 -63.75 -207 -60.2Q-214.3 -56.5 -222.35 -56.5Q-230.4 -56.5 -237.7 -60.2Q-244.8 -63.75 -250.25 -70.25Q-255.75 -76.75 -258.75 -85.2Q-261.85 -93.95 -261.85 -103.5Q-261.85 -113.05 -258.75 -121.8Q-255.75 -130.2 -250.25 -136.75Q-244.8 -143.25 -237.7 -146.8Q-230.4 -150.5 -222.35 -150.5Q-214.3 -150.5 -207 -146.8Q-199.9 -143.25 -194.4 -136.75Q-188.95 -130.2 -185.95 -121.8z" />
<path style="fill:#FFFF00;fill-opacity:1" d="M-256.95,-121.05Q-249.15 -117.2 -243.1 -110.25Q-237.1 -103.3 -233.75 -94.25Q-230.35 -84.9 -230.35 -74.7Q-230.35 -64.45 -233.75 -55.1Q-237.1 -46.1 -243.1 -39.1Q-249.15 -32.15 -256.95 -28.35Q-265.05 -24.4 -273.9 -24.4Q-282.75 -24.4 -290.85 -28.35Q-298.65 -32.15 -304.7 -39.1Q-310.7 -46.1 -314.05 -55.1Q-317.45 -64.45 -317.45 -74.7Q-317.45 -84.9 -314.05 -94.25Q-310.7 -103.3 -304.7 -110.25Q-298.65 -117.2 -290.85 -121.05Q-282.75 -125 -273.9 -125Q-265.05 -125 -256.95 -121.05" />
<path style="fill:none;stroke-width:3;stroke-linecap:round;stroke-linejoin:round;stroke-miterlimit:3;stroke:#000000;stroke-opacity:1" d="M-256.95,-121.05Q-249.15 -117.2 -243.1 -110.25Q-237.1 -103.3 -233.75 -94.25Q-230.35 -84.9 -230.35 -74.7Q-230.35 -64.45 -233.75 -55.1Q-237.1 -46.1 -243.1 -39.1Q-249.15 -32.15 -256.95 -28.35Q-265.05 -24.4 -273.9 -24.4Q-282.75 -24.4 -290.85 -28.35Q-298.65 -32.15 -304.7 -39.1Q-310.7 -46.1 -314.05 -55.1Q-317.45 -64.45 -317.45 -74.7Q-317.45 -84.9 -314.05 -94.25Q-310.7 -103.3 -304.7 -110.25Q-298.65 -117.2 -290.85 -121.05Q-282.75 -125 -273.9 -125Q-265.05 -125 -256.95 -121.05z" />
<path style="fill:#FFFFFF;fill-opacity:1" d="M-249.35,-108Q-243.85 -103.6 -239.5 -95.6Q-235.15 -87.6 -234.5 -80.6Q-233.8 -73.65 -237.2 -71.8Q-240.6 -69.95 -246.05 -74.35Q-251.55 -78.75 -255.9 -86.75Q-260.25 -94.75 -260.9 -101.75Q-261.6 -108.7 -258.2 -110.55Q-254.8 -112.4 -249.35 -108" />
<path style="fill:#FF0000;fill-opacity:1" d="M-191.15,-81.5Q-184.8 -73.95 -181.35 -64.15Q-177.75 -54.05 -177.75 -42.95Q-177.75 -31.85 -181.35 -21.7Q-184.8 -11.9 -191.15 -4.35Q-197.5 3.15 -205.7 7.3Q-214.2 11.6 -223.5 11.6Q-232.8 11.6 -241.3 7.3Q-249.5 3.2 -255.85 -4.35Q-262.2 -11.9 -265.65 -21.7Q-269.25 -31.85 -269.25 -42.95Q-269.25 -54.05 -265.65 -64.15Q-262.2 -73.95 -255.85 -81.5Q-249.5 -89.05 -241.3 -93.2Q-232.8 -97.5 -223.5 -97.5Q-214.2 -97.5 -205.7 -93.2Q-197.5 -89.05 -191.15 -81.5" />
<path style="fill:none;stroke-width:3;stroke-linecap:round;stroke-linejoin:round;stroke-miterlimit:3;stroke:#000000;stroke-opacity:1" d="M-191.15,-81.5Q-184.8 -73.95 -181.35 -64.15Q-177.75 -54.05 -177.75 -42.95Q-177.75 -31.85 -181.35 -21.7Q-184.8 -11.9 -191.15 -4.35Q-197.5 3.15 -205.7 7.3Q-214.2 11.6 -223.5 11.6Q-232.8 11.6 -241.3 7.3Q-249.5 3.2 -255.85 -4.35Q-262.2 -11.9 -265.65 -21.7Q-269.25 -31.85 -269.25 -42.95Q-269.25 -54.05 -265.65 -64.15Q-262.2 -73.95 -255.85 -81.5Q-249.5 -89.05 -241.3 -93.2Q-232.8 -97.5 -223.5 -97.5Q-214.2 -97.5 -205.7 -93.2Q-197.5 -89.05 -191.15 -81.5z" />
<path style="fill:#FFFF00;fill-opacity:1" d="M191.65,-145Q199.7 -145 207 -141.3Q214.1 -137.75 219.6 -131.25Q225.05 -124.7 228.05 -116.3Q231.15 -107.55 231.15 -98Q231.15 -88.45 228.05 -79.7Q225.05 -71.25 219.6 -64.75Q214.1 -58.25 207 -54.7Q199.7 -51 191.65 -51Q183.6 -51 176.3 -54.7Q169.2 -58.25 163.75 -64.75Q158.25 -71.25 155.25 -79.7Q152.15 -88.45 152.15 -98Q152.15 -107.55 155.25 -116.3Q158.25 -124.7 163.75 -131.25Q169.2 -137.75 176.3 -141.3Q183.6 -145 191.65 -145" />
<path style="fill:none;stroke-width:3;stroke-linecap:round;stroke-linejoin:round;stroke-miterlimit:3;stroke:#000000;stroke-opacity:1" d="M191.65,-145Q199.7 -145 207 -141.3Q214.1 -137.75 219.6 -131.25Q225.05 -124.7 228.05 -116.3Q231.15 -107.55 231.15 -98Q231.15 -88.45 228.05 -79.7Q225.05 -71.25 219.6 -64.75Q214.1 -58.25 207 -54.7Q199.7 -51 191.65 -51Q183.6 -51 176.3 -54.7Q169.2 -58.25 163.75 -64.75Q158.25 -71.25 155.25 -79.7Q152.15 -88.45 152.15 -98Q152.15 -107.55 155.25 -116.3Q158.25 -124.7 163.75 -131.25Q169.2 -137.75 176.3 -141.3Q183.6 -145 191.65 -145z" />
<path style="fill:#FFFFFF;fill-opacity:1" d="M219.25,-118.45Q222.65 -110.65 222.9 -104.25Q223.15 -97.8 220.15 -96.5Q217.2 -95.2 212.7 -99.8Q208.15 -104.4 204.8 -112.2Q201.45 -119.95 201.15 -126.4Q200.9 -132.8 203.9 -134.1Q206.9 -135.4 211.4 -130.85Q215.85 -126.25 219.25 -118.45" />
<path style="fill:#33FF00;fill-opacity:1" d="M289.15,-123.85Q292.15 -114.35 292.15 -104Q292.15 -93.65 289.15 -84.15Q286.3 -75 281.05 -67.95Q275.75 -60.9 268.95 -57Q261.9 -53 254.15 -53Q246.4 -53 239.35 -57Q232.55 -60.9 227.3 -67.95Q222 -75 219.15 -84.15Q216.15 -93.65 216.15 -104Q216.15 -114.35 219.15 -123.85Q222 -133 227.3 -140.05Q232.55 -147.1 239.35 -151Q246.4 -155 254.15 -155Q261.9 -155 268.95 -151Q275.75 -147.1 281.05 -140.05Q286.3 -133 289.15 -123.85" />
<path style="fill:none;stroke-width:3;stroke-linecap:round;stroke-linejoin:round;stroke-miterlimit:3;stroke:#000000;stroke-opacity:1" d="M289.15,-123.85Q292.15 -114.35 292.15 -104Q292.15 -93.65 289.15 -84.15Q286.3 -75 281.05 -67.95Q275.75 -60.9 268.95 -57Q261.9 -53 254.15 -53Q246.4 -53 239.35 -57Q232.55 -60.9 227.3 -67.95Q222 -75 219.15 -84.15Q216.15 -93.65 216.15 -104Q216.15 -114.35 219.15 -123.85Q222 -133 227.3 -140.05Q232.55 -147.1 239.35 -151Q246.4 -155 254.15 -155Q261.9 -155 268.95 -151Q275.75 -147.1 281.05 -140.05Q286.3 -133 289.15 -123.85z" />
<path style="fill:#33FFFF;fill-opacity:1" d="M237.15,-126Q245.5 -126 253.1 -122.05Q260.45 -118.2 266.15 -111.2Q271.8 -104.25 274.95 -95.15Q278.15 -85.8 278.15 -75.5Q278.15 -65.2 274.95 -55.85Q271.8 -46.75 266.15 -39.8Q260.45 -32.8 253.1 -28.95Q245.5 -25 237.15 -25Q228.8 -25 221.2 -28.95Q213.85 -32.8 208.15 -39.8Q202.5 -46.8 199.35 -55.85Q196.15 -65.2 196.15 -75.5Q196.15 -85.75 199.35 -95.15Q202.5 -104.2 208.15 -111.2Q213.85 -118.2 221.2 -122.05Q228.8 -126 237.15 -126" />
<path style="fill:none;stroke-width:3;stroke-linecap:round;stroke-linejoin:round;stroke-miterlimit:3;stroke:#000000;stroke-opacity:1" d="M237.15,-126Q245.5 -126 253.1 -122.05Q260.45 -118.2 266.15 -111.2Q271.8 -104.25 274.95 -95.15Q278.15 -85.8 278.15 -75.5Q278.15 -65.2 274.95 -55.85Q271.8 -46.75 266.15 -39.8Q260.45 -32.8 253.1 -28.95Q245.5 -25 237.15 -25Q228.8 -25 221.2 -28.95Q213.85 -32.8 208.15 -39.8Q202.5 -46.8 199.35 -55.85Q196.15 -65.2 196.15 -75.5Q196.15 -85.75 199.35 -95.15Q202.5 -104.2 208.15 -111.2Q213.85 -118.2 221.2 -122.05Q228.8 -126 237.15 -126z" />
<path style="fill:none;stroke-width:4;stroke-linecap:round;stroke-linejoin:round;stroke-miterlimit:3;stroke:#FFFFFF;stroke-opacity:1" d="M214.15,-42.65Q226.15 -31.3 240.15 -31.3" />
<path style="fill:#FF0000;fill-opacity:1" d="M179.45,-92Q187.7 -92 195.3 -88.1Q202.6 -84.3 208.2 -77.4Q213.85 -70.5 216.95 -61.6Q220.15 -52.35 220.15 -42.2Q220.15 -32.05 216.95 -22.8Q213.85 -13.9 208.2 -7Q202.6 -0.1 195.3 3.7Q187.7 7.6 179.45 7.6Q171.15 7.6 163.6 3.7Q156.3 -0.1 150.65 -7Q145.05 -13.9 141.95 -22.8Q138.75 -32.05 138.75 -42.2Q138.75 -52.35 141.95 -61.6Q145.05 -70.5 150.65 -77.4Q156.3 -84.3 163.6 -88.1Q171.15 -92 179.45 -92" />
<path style="fill:none;stroke-width:3;stroke-linecap:round;stroke-linejoin:round;stroke-miterlimit:3;stroke:#000000;stroke-opacity:1" d="M163.6,-88.1Q156.3 -84.3 150.65 -77.4Q145.05 -70.5 141.95 -61.6Q138.75 -52.35 138.75 -42.2Q138.75 -32.05 141.95 -22.8Q145.05 -13.9 150.65 -7Q156.3 -0.1 163.6 3.7Q171.15 7.6 179.45 7.6Q187.7 7.6 195.3 3.7Q202.6 -0.1 208.2 -7Q213.85 -13.9 216.95 -22.8Q220.15 -32.05 220.15 -42.2Q220.15 -52.35 216.95 -61.6Q213.85 -70.5 208.2 -77.4Q202.6 -84.3 195.3 -88.1Q187.7 -92 179.45 -92Q171.15 -92 163.6 -88.1z" />
<path style="fill:#FFFFFF;fill-opacity:1" d="M281.55,-107.75Q278.65 -106.65 274.85 -110.65Q271 -114.65 268.45 -121.35Q265.95 -128.1 266.25 -133.65Q266.5 -139.15 269.4 -140.25Q272.3 -141.35 276.15 -137.35Q280 -133.35 282.5 -126.6Q285 -119.9 284.75 -114.35Q284.45 -108.85 281.55 -107.75" />
<path style="fill:#FFFFFF;fill-opacity:1" d="M267.65,-93Q270.25 -83.65 269.25 -76.25Q268.3 -68.9 264.3 -67.8Q260.3 -66.7 255.65 -72.5Q251 -78.35 248.4 -87.65Q245.8 -97 246.8 -104.35Q247.8 -111.7 251.75 -112.8Q255.75 -113.9 260.4 -108.1Q265.05 -102.3 267.65 -93" />
<path style="fill:#7F1AFF;fill-opacity:1" d="M312.45,-92.55Q318 -85.5 321 -76.35Q324.15 -66.85 324.15 -56.5Q324.15 -46.15 321 -36.65Q317.95 -27.5 312.45 -20.45Q306.9 -13.4 299.7 -9.5Q292.3 -5.5 284.15 -5.5Q276 -5.5 268.6 -9.5Q261.4 -13.4 255.85 -20.45Q250.35 -27.5 247.3 -36.65Q244.15 -46.15 244.15 -56.5Q244.15 -66.85 247.3 -76.35Q250.35 -85.5 255.85 -92.55Q261.4 -99.6 268.6 -103.5Q276 -107.5 284.15 -107.5Q292.3 -107.5 299.7 -103.5Q306.9 -99.6 312.45 -92.55" />
<path style="fill:none;stroke-width:3;stroke-linecap:round;stroke-linejoin:round;stroke-miterlimit:3;stroke:#000000;stroke-opacity:1" d="M312.45,-92.55Q318 -85.5 321 -76.35Q324.15 -66.85 324.15 -56.5Q324.15 -46.15 321 -36.65Q317.95 -27.5 312.45 -20.45Q306.9 -13.4 299.7 -9.5Q292.3 -5.5 284.15 -5.5Q276 -5.5 268.6 -9.5Q261.4 -13.4 255.85 -20.45Q250.35 -27.5 247.3 -36.65Q244.15 -46.15 244.15 -56.5Q244.15 -66.85 247.3 -76.35Q250.35 -85.5 255.85 -92.55Q261.4 -99.6 268.6 -103.5Q276 -107.5 284.15 -107.5Q292.3 -107.5 299.7 -103.5Q306.9 -99.6 312.45 -92.55z" />
<path style="fill:#FFFFFF;fill-opacity:1" d="M-194.9,-77.65Q-190.05 -71.5 -187.35 -61.75Q-184.6 -51.95 -185.6 -44.25Q-186.6 -36.5 -190.75 -35.35Q-194.9 -34.2 -199.7 -40.3Q-204.55 -46.4 -207.25 -56.2Q-210 -65.95 -209 -73.7Q-208 -81.45 -203.85 -82.6Q-199.7 -83.7 -194.9 -77.65" />
<path style="fill:none;stroke-width:4;stroke-linecap:round;stroke-linejoin:round;stroke-miterlimit:3;stroke:#FFFFFF;stroke-opacity:1" d="M-257.2,-23.3Q-253.85 -4.65 -228.5 4" />
<path style="fill:none;stroke-width:4;stroke-linecap:round;stroke-linejoin:round;stroke-miterlimit:3;stroke:#FFFFFF;stroke-opacity:1" d="M-303.85,-48Q-295.85 -35.3 -278.5 -30" />
<path style="fill:#FFFFFF;fill-opacity:1" d="M-167.35,-105.2Q-166.75 -111.45 -163.65 -112.3Q-160.6 -113.15 -156.85 -108.1Q-153.1 -103.05 -150.85 -95.05Q-148.65 -87.05 -149.25 -80.8Q-149.85 -74.5 -152.95 -73.65Q-156 -72.8 -159.8 -77.85Q-163.55 -82.9 -165.75 -90.9Q-167.95 -98.95 -167.35 -105.2" />
<path style="fill:#FFFFFF;fill-opacity:1" d="M-196.85,-121.1Q-193.65 -112.8 -193.8 -105.95Q-193.9 -99.2 -197.25 -97.9Q-200.6 -96.6 -205.25 -101.55Q-209.85 -106.5 -213.1 -114.85Q-216.3 -123.15 -216.15 -129.95Q-216.05 -136.75 -212.7 -138.05Q-209.3 -139.35 -204.7 -134.4Q-200.05 -129.45 -196.85 -121.1" />
<path style="fill:#FFFFFF;fill-opacity:1" d="M312.65,-74.1Q315.4 -64.3 314.4 -56.6Q313.4 -48.85 309.25 -47.7Q305.15 -46.55 300.3 -52.65Q295.45 -58.75 292.75 -68.55Q290 -78.3 291 -86.05Q292 -93.75 296.15 -94.9Q300.25 -96.05 305.1 -89.95Q309.95 -83.85 312.65 -74.1" />
<path style="fill:none;stroke-width:4;stroke-linecap:round;stroke-linejoin:round;stroke-miterlimit:3;stroke:#FFFFFF;stroke-opacity:1" d="M256.8,-35.3Q265.5 -13.3 285.5 -11.3" />
<path style="fill:#FFFFFF;fill-opacity:1" d="M195.3,-78.4Q199.25 -79.5 203.75 -73.9Q208.3 -68.3 210.8 -59.25Q213.3 -50.25 212.3 -43.1Q211.3 -36 207.4 -34.9Q203.5 -33.8 198.95 -39.4Q194.4 -45 191.9 -54Q189.4 -63 190.4 -70.15Q191.4 -77.3 195.3 -78.4" />
<path style="fill:none;stroke-width:4;stroke-linecap:round;stroke-linejoin:round;stroke-miterlimit:3;stroke:#FFFFFF;stroke-opacity:1" d="M150.15,-23.3Q159.5 -1.3 181.5 0.7" />
<path style="fill:#7F1AFF;fill-opacity:1" d="M-229.85,-173.3Q-265.2 -144 -267.2 -216Q-259.85 -157.3 -229.85 -173.3" />
<path style="fill:#7F1AFF;fill-opacity:1" d="M31.5,-144Q64.8 -164.65 73.5 -147.3Q60.15 -154 31.5 -144" />
<path style="fill:#7F1AFF;fill-opacity:1" d="M-66.5,-144.65Q-37.85 -163.3 -26.5 -144Q-39.2 -154.65 -66.5 -144.65" />
<path style="fill:#7F1AFF;fill-opacity:1" d="M237.5,-272Q186.8 -245.3 146.15 -264.65Q188.8 -255.3 237.5 -272" />
</g>
</svg>
