<?xml version="1.0" encoding="utf-8"?>
<svg version="1.1" id="Layer_1"
xmlns="http://www.w3.org/2000/svg"
xmlns:xlink="http://www.w3.org/1999/xlink"
xmlns:author="http://www.sothink.com"
width="233px" height="260px"
xml:space="preserve">
<g id="367" transform="matrix(1, 0, 0, 1, 129.5, 84.7)">
<path style="fill:#FFFF00;fill-opacity:1" d="M-15.7,-75.15Q26.3 -95.45 42.6 -67.45Q55.3 -62.45 42.3 -35.8L-25.4 -39.15Q-30.7 -44.8 -27.7 -54.45Q-24.7 -64.15 -20.7 -66.45Q-23.05 -72.8 -15.7 -75.15" />
<path style="fill:none;stroke-width:2;stroke-linecap:round;stroke-linejoin:round;stroke-miterlimit:3;stroke:#000000;stroke-opacity:1" d="M-15.7,-75.15Q26.3 -95.45 42.6 -67.45Q55.3 -62.45 42.3 -35.8L-25.4 -39.15Q-30.7 -44.8 -27.7 -54.45Q-24.7 -64.15 -20.7 -66.45Q-23.05 -72.8 -15.7 -75.15z" />
<path style="fill:#FFBFBF;fill-opacity:1" d="M36.3,-38.15Q44.95 -40.8 46.6 -34.45Q51 -18.2 36.3 -17.8L36.3 -38.15" />
<path style="fill:none;stroke-width:2;stroke-linecap:round;stroke-linejoin:round;stroke-miterlimit:3;stroke:#000000;stroke-opacity:1" d="M36.3,-38.15Q44.95 -40.8 46.6 -34.45Q51 -18.2 36.3 -17.8L36.3 -38.15z" />
<path style="fill:#000000;fill-opacity:1" d="M-62.05,152.2Q-53.4 105.2 -46.4 97.85Q-39.4 90.55 38.95 97.2Q60.3 138.2 61.6 149.85L-62.05 152.2" />
<path style="fill:#000000;fill-opacity:1" d="M42.6,97.2Q37.95 111.2 39.95 154.85L-47.05 154.85Q-44.4 131.2 -47.05 96.85L42.6 97.2" />
<path style="fill:none;stroke-width:2;stroke-linecap:round;stroke-linejoin:round;stroke-miterlimit:3;stroke:#666666;stroke-opacity:1" d="M-47.05,96.85Q-44.4 131.2 -47.05 154.85L39.95 154.85Q37.95 111.2 42.6 97.2L-47.05 96.85z" />
<path style="fill:none;stroke-width:2;stroke-linecap:round;stroke-linejoin:round;stroke-miterlimit:3;stroke:#000000;stroke-opacity:1" d="M36.6,-28.8Q39.6 -30.8 42.95 -28.45" />
<path style="fill:#FFBFBF;fill-opacity:1" d="M-3.5,9.2Q-0.25 7.2 4.3 7.2Q8.85 7.2 12.05 9.2Q15.3 11.2 15.3 14.05Q15.3 16.85 12.05 18.85Q8.85 20.85 4.3 20.85Q-0.25 20.85 -3.5 18.85Q-6.7 16.85 -6.7 14.05Q-6.7 11.2 -3.5 9.2" />
<path style="fill:#FFBFBF;fill-opacity:1" d="M20.3,-69.8Q38.95 -70.15 38.6 -65.45L37.6 -53.45Q35.6 -32.8 38.3 -7.15Q40.45 8.3 25.3 11.2Q10.75 13.95 -10.4 11.2Q-25.7 9.2 -24.4 -1.8Q-26.05 -30.8 -18.05 -56.15Q-16.05 -64.15 -11.4 -71.15Q-8.7 -69.8 -0.7 -69.45L20.3 -69.8" />
<path style="fill:none;stroke-width:2;stroke-linecap:round;stroke-linejoin:round;stroke-miterlimit:3;stroke:#000000;stroke-opacity:1" d="M-0.7,-69.45Q-8.7 -69.8 -11.4 -71.15Q-16.05 -64.15 -18.05 -56.15Q-26.05 -30.8 -24.4 -1.8Q-25.7 9.2 -10.4 11.2Q10.75 13.95 25.3 11.2Q40.45 8.3 38.3 -7.15Q35.6 -32.8 37.6 -53.45L38.6 -65.45Q38.95 -70.15 20.3 -69.8L-0.7 -69.45z" />
<path style="fill:#FFBFBF;fill-opacity:1" d="M-24.05,-20.15Q-39.05 -19.15 -33.05 -35.8Q-28.05 -47.45 -22.05 -39.8L-24.05 -20.15" />
<path style="fill:none;stroke-width:2;stroke-linecap:round;stroke-linejoin:round;stroke-miterlimit:3;stroke:#000000;stroke-opacity:1" d="M-22.05,-39.8Q-28.05 -47.45 -33.05 -35.8Q-39.05 -19.15 -24.05 -20.15L-22.05 -39.8z" />
<path style="fill:none;stroke-width:2;stroke-linecap:round;stroke-linejoin:round;stroke-miterlimit:3;stroke:#000000;stroke-opacity:1" d="M-30.05,-33.15Q-26.4 -33.45 -23.7 -29.45" />
<path style="fill:#000000;fill-opacity:1" d="M21.3,-31.55Q21.3 -28.5 20.05 -26.3Q18.75 -24.15 16.95 -24.15Q15.15 -24.15 13.9 -26.3Q12.6 -28.5 12.6 -31.55Q12.6 -34.6 13.9 -36.8Q15.15 -38.95 16.95 -38.95Q18.75 -38.95 20.05 -36.8Q21.3 -34.6 21.3 -31.55" />
<path style="fill:none;stroke-width:1;stroke-linecap:round;stroke-linejoin:round;stroke-miterlimit:3;stroke:#000000;stroke-opacity:1" d="M21.3,-31.55Q21.3 -28.5 20.05 -26.3Q18.75 -24.15 16.95 -24.15Q15.15 -24.15 13.9 -26.3Q12.6 -28.5 12.6 -31.55Q12.6 -34.6 13.9 -36.8Q15.15 -38.95 16.95 -38.95Q18.75 -38.95 20.05 -36.8Q21.3 -34.6 21.3 -31.55z" />
<path style="fill:#000000;fill-opacity:1" d="M23.3,-32.3L15.95 -38.65Q21.95 -41.4 23.3 -32.3" />
<path style="fill:none;stroke-width:1;stroke-linecap:round;stroke-linejoin:round;stroke-miterlimit:3;stroke:#000000;stroke-opacity:1" d="M23.3,-32.3Q21.95 -41.4 15.95 -38.65" />
<path style="fill:#000000;fill-opacity:1" d="M-2.05,-31.05Q-2.05 -28 -3.3 -25.8Q-4.6 -23.65 -6.4 -23.65Q-8.2 -23.65 -9.45 -25.8Q-10.7 -27.95 -10.7 -31.05Q-10.7 -34.15 -9.45 -36.3Q-8.2 -38.45 -6.4 -38.45Q-4.6 -38.45 -3.3 -36.3Q-2.05 -34.1 -2.05 -31.05" />
<path style="fill:none;stroke-width:1;stroke-linecap:round;stroke-linejoin:round;stroke-miterlimit:3;stroke:#000000;stroke-opacity:1" d="M-3.3,-36.3Q-4.6 -38.45 -6.4 -38.45Q-8.2 -38.45 -9.45 -36.3Q-10.7 -34.15 -10.7 -31.05Q-10.7 -27.95 -9.45 -25.8Q-8.2 -23.65 -6.4 -23.65Q-4.6 -23.65 -3.3 -25.8Q-2.05 -28 -2.05 -31.05Q-2.05 -34.1 -3.3 -36.3z" />
<path style="fill:#000000;fill-opacity:1" d="M-5.4,-38.15L-12.7 -31.8Q-11.4 -40.85 -5.4 -38.15" />
<path style="fill:none;stroke-width:1;stroke-linecap:round;stroke-linejoin:round;stroke-miterlimit:3;stroke:#000000;stroke-opacity:1" d="M-12.7,-31.8Q-11.4 -40.85 -5.4 -38.15" />
<path style="fill:#FFBFBF;fill-opacity:1" d="M3.3,-40.45L11.3 -14.45Q-4.4 -14.15 -7.4 -14.45Q-8.05 -34.15 3.3 -40.45" />
<path style="fill:none;stroke-width:2;stroke-linecap:round;stroke-linejoin:round;stroke-miterlimit:3;stroke:#000000;stroke-opacity:1" d="M11.3,-14.45Q-4.4 -14.15 -7.4 -14.45Q-8.05 -34.15 3.3 -40.45" />
<path style="fill:#FFFF00;fill-opacity:1" d="M13.6,-42.15Q12.6 -45.8 17.6 -46.15Q22.6 -46.45 24.95 -43.45Q16.95 -43.15 13.6 -42.15" />
<path style="fill:none;stroke-width:1;stroke-linecap:round;stroke-linejoin:round;stroke-miterlimit:3;stroke:#000000;stroke-opacity:1" d="M13.6,-42.15Q12.6 -45.8 17.6 -46.15Q22.6 -46.45 24.95 -43.45Q16.95 -43.15 13.6 -42.15z" />
<path style="fill:#FFFF00;fill-opacity:1" d="M-6.7,-46.45Q-0.7 -45.45 -1.7 -41.45Q-6.05 -44.45 -13.05 -42.45Q-12.7 -47.45 -6.7 -46.45" />
<path style="fill:none;stroke-width:1;stroke-linecap:round;stroke-linejoin:round;stroke-miterlimit:3;stroke:#000000;stroke-opacity:1" d="M-13.05,-42.45Q-6.05 -44.45 -1.7 -41.45Q-0.7 -45.45 -6.7 -46.45Q-12.7 -47.45 -13.05 -42.45z" />
<path style="fill:none;stroke-width:2;stroke-linecap:round;stroke-linejoin:round;stroke-miterlimit:3;stroke:#FF4040;stroke-opacity:1" d="M-15.7,-8.15Q-4.7 -2.8 24.95 -7.15" />
<path style="fill:#FFFFFF;fill-opacity:1" d="M-11.7,13.55L-8.4 9.55Q-2.7 11.85 5.3 18.55Q7.95 14.55 17.6 10.85L20.6 14.85L25.95 14.2Q34.6 23.85 11.6 114.55L-2.4 98.55L-14.7 112.55L-21.4 102.2L-17.7 15.2L-11.7 13.55" />
<path style="fill:none;stroke-width:2;stroke-linecap:round;stroke-linejoin:round;stroke-miterlimit:3;stroke:#000000;stroke-opacity:1" d="M-17.7,15.2L-21.4 102.2L-14.7 112.55L-2.4 98.55L11.6 114.55Q34.6 23.85 25.95 14.2L20.6 14.85L17.6 10.85Q7.95 14.55 5.3 18.55Q-2.7 11.85 -8.4 9.55L-11.7 13.55L-17.7 15.2z" />
<path style="fill:none;stroke-width:2;stroke-linecap:round;stroke-linejoin:round;stroke-miterlimit:3;stroke:#000000;stroke-opacity:1" d="M3.6,23.55Q-0.05 47.85 4.95 65.55" />
<path style="fill:#FFFFFF;fill-opacity:1" d="M-2.4,98.55L0.3 68.55Q4.35 64.5 7.4 59.65L-2.4 98.55M7.4,59.65L16.3 24.2Q16.3 45.35 7.4 59.65" />
<path style="fill:none;stroke-width:2;stroke-linecap:round;stroke-linejoin:round;stroke-miterlimit:3;stroke:#000000;stroke-opacity:1" d="M16.3,24.2Q16.3 45.35 7.4 59.65Q4.35 64.5 0.3 68.55L-2.4 98.55" />
<path style="fill:none;stroke-width:2;stroke-linecap:round;stroke-linejoin:round;stroke-miterlimit:3;stroke:#000000;stroke-opacity:1" d="M-9.7,28.2Q-11.7 46.55 0.3 68.55" />
<path style="fill:#FFFFFF;fill-opacity:1" d="M-11.05,15.2Q1.95 16.85 2.95 21.2L2.3 24.2Q-4.4 28.55 -9.4 29.85Q-19.05 24.55 -11.05 15.2" />
<path style="fill:none;stroke-width:2;stroke-linecap:round;stroke-linejoin:round;stroke-miterlimit:3;stroke:#000000;stroke-opacity:1" d="M-9.4,29.85Q-4.4 28.55 2.3 24.2L2.95 21.2Q1.95 16.85 -11.05 15.2Q-19.05 24.55 -9.4 29.85z" />
<path style="fill:#FFFFFF;fill-opacity:1" d="M7.6,21.55Q11.6 15.85 20.95 17.2Q25.95 20.85 19.95 31.2L7.95 25.55L7.6 21.55" />
<path style="fill:none;stroke-width:2;stroke-linecap:round;stroke-linejoin:round;stroke-miterlimit:3;stroke:#000000;stroke-opacity:1" d="M7.6,21.55Q11.6 15.85 20.95 17.2Q25.95 20.85 19.95 31.2L7.95 25.55L7.6 21.55z" />
<path style="fill:#FFFFFF;fill-opacity:1" d="M9.9,23.8Q9.8 24.85 8.3 25.45Q6.75 26.05 4.7 25.85Q2.6 25.6 1.25 24.75Q-0.15 23.9 -0.05 22.85Q0.05 21.85 1.6 21.25Q3.1 20.65 5.15 20.85Q7.2 21.05 8.6 21.9Q10 22.8 9.9 23.8" />
<path style="fill:none;stroke-width:2;stroke-linecap:round;stroke-linejoin:round;stroke-miterlimit:3;stroke:#000000;stroke-opacity:1" d="M9.9,23.8Q9.8 24.85 8.3 25.45Q6.75 26.05 4.7 25.85Q2.6 25.6 1.25 24.75Q-0.15 23.9 -0.05 22.85Q0.05 21.85 1.6 21.25Q3.1 20.65 5.15 20.85Q7.2 21.05 8.6 21.9Q10 22.8 9.9 23.8z" />
<path style="fill:#000000;fill-opacity:1" d="M7.95,89.2Q30.6 57.55 25.95 14.2Q44.3 16.55 48.6 21.55Q53.95 26.2 49.95 35.2Q40.6 61.2 41.95 81.85Q42.4 88.8 44.8 95.4Q46.25 99.35 50.55 108.1Q55.25 117.7 58 124.6Q62.55 135.95 66.1 149.55L59.1 150.2Q43.6 126.2 37.95 98.2Q23.3 109.85 16.3 112.55Q9.3 97.55 7.95 89.2" />
<path style="fill:none;stroke-width:2;stroke-linecap:round;stroke-linejoin:round;stroke-miterlimit:3;stroke:#666666;stroke-opacity:1" d="M16.3,112.55Q23.3 109.85 37.95 98.2Q43.6 126.2 59.1 150.2L66.1 149.55Q62.55 135.95 58 124.6Q55.25 117.7 50.55 108.1Q46.25 99.35 44.8 95.4Q42.4 88.8 41.95 81.85Q40.6 61.2 49.95 35.2Q53.95 26.2 48.6 21.55Q44.3 16.55 25.95 14.2Q30.6 57.55 7.95 89.2Q9.3 97.55 16.3 112.55z" />
<path style="fill:#000000;fill-opacity:1" d="M30.3,18.55Q33.3 26.2 36.3 38.2L26.95 47.2L43.3 41.85Q28.6 74.2 7.95 89.2Q28.3 42.2 25.3 11.2Q27.3 10.85 30.3 18.55" />
<path style="fill:none;stroke-width:2;stroke-linecap:round;stroke-linejoin:round;stroke-miterlimit:3;stroke:#666666;stroke-opacity:1" d="M30.3,18.55Q33.3 26.2 36.3 38.2L26.95 47.2L43.3 41.85Q28.6 74.2 7.95 89.2Q28.3 42.2 25.3 11.2Q27.3 10.85 30.3 18.55z" />
<path style="fill:#000000;fill-opacity:1" d="M-16.4,14.85Q-27.7 46.55 -10.4 88.2Q-14.05 105.55 -24.7 113.85Q-36.05 106.85 -43.05 97.85Q-55.05 117.85 -54.7 152.85L-69.4 152.85Q-68.4 129.2 -51.4 98.2Q-39.7 84.85 -45.05 54.85Q-49.7 35.85 -48.25 29.55Q-47.55 28.2 -37.55 20.9Q-30.9 16.9 -16.4 14.85" />
<path style="fill:none;stroke-width:2;stroke-linecap:round;stroke-linejoin:round;stroke-miterlimit:3;stroke:#666666;stroke-opacity:1" d="M-37.55,20.9Q-47.55 28.2 -48.25 29.55Q-49.7 35.85 -45.05 54.85Q-39.7 84.85 -51.4 98.2Q-68.4 129.2 -69.4 152.85L-54.7 152.85Q-55.05 117.85 -43.05 97.85Q-36.05 106.85 -24.7 113.85Q-14.05 105.55 -10.4 88.2Q-27.7 46.55 -16.4 14.85Q-30.9 16.9 -37.55 20.9z" />
<path style="fill:#000000;fill-opacity:1" d="M-39.4,24.05L-40.9 53.55Q-47.9 58.05 -50.9 81.2Q-68.55 81.55 -66.25 63.9L-71.55 64.9Q-76.25 50.2 -60.4 34.55Q-46.05 20.55 -39.4 24.05" />
<path style="fill:none;stroke-width:2;stroke-linecap:round;stroke-linejoin:round;stroke-miterlimit:3;stroke:#666666;stroke-opacity:1" d="M-40.9,53.55Q-47.9 58.05 -50.9 81.2Q-68.55 81.55 -66.25 63.9L-71.55 64.9Q-76.25 50.2 -60.4 34.55Q-46.05 20.55 -39.4 24.05" />
<path style="fill:#000000;fill-opacity:1" d="M-32.05,36.55Q-24.7 13.2 -14.7 12.2Q-24.05 49.85 -10.4 88.2Q-29.05 71.85 -39.7 38.55L-24.05 47.2L-32.05 36.55" />
<path style="fill:none;stroke-width:2;stroke-linecap:round;stroke-linejoin:round;stroke-miterlimit:3;stroke:#666666;stroke-opacity:1" d="M-32.05,36.55Q-24.7 13.2 -14.7 12.2Q-24.05 49.85 -10.4 88.2Q-29.05 71.85 -39.7 38.55L-24.05 47.2L-32.05 36.55z" />
<path style="fill:#000000;fill-opacity:1" d="M-61.9,51.55L-73.25 72.2L-80.25 63.55Q-74.55 50.9 -61.9 51.55" />
<path style="fill:none;stroke-width:1;stroke-linecap:round;stroke-linejoin:round;stroke-miterlimit:3;stroke:#666666;stroke-opacity:1" d="M-73.25,72.2L-80.25 63.55Q-74.55 50.9 -61.9 51.55" />
<path style="fill:none;stroke-width:2;stroke-linecap:round;stroke-linejoin:round;stroke-miterlimit:3;stroke:#666666;stroke-opacity:1" d="M-51.5,67.2Q-51.5 72.25 -55.1 75.85Q-58.7 79.45 -63.8 79.45Q-68.9 79.45 -72.5 75.85Q-76.1 72.25 -76.1 67.2Q-76.1 62.1 -72.5 58.5Q-68.9 54.9 -63.8 54.9Q-58.7 54.9 -55.1 58.5Q-51.5 62.1 -51.5 67.2z" />
<path style="fill:#000000;fill-opacity:1" d="M48.1,24.75Q64.45 28.05 72.85 48.95Q86.25 74.35 69.6 82Q52.95 89.7 41.75 56.6L48.1 24.75" />
<path style="fill:none;stroke-width:2;stroke-linecap:round;stroke-linejoin:round;stroke-miterlimit:3;stroke:#666666;stroke-opacity:1" d="M41.75,56.6Q52.95 89.7 69.6 82Q86.25 74.35 72.85 48.95Q64.45 28.05 48.1 24.75" />
<path style="fill:#FFFFFF;fill-opacity:1" d="M-56.65,64.8L-69.85 59.3Q-68 53.8 -61.8 56Q-55.55 58.2 -56.65 64.8" />
<path style="fill:none;stroke-width:1;stroke-linecap:round;stroke-linejoin:round;stroke-miterlimit:3;stroke:#000000;stroke-opacity:1" d="M-69.85,59.3Q-68 53.8 -61.8 56Q-55.55 58.2 -56.65 64.8" />
<path style="fill:#000000;fill-opacity:1" d="M-80,79.6Q-34.1 79.85 -31.7 70.6Q-29 75.4 -44 82.6L-33.2 160.6Q-51.5 175.75 -80 174.7Q-114.5 174.7 -127.1 160.6L-116.3 82.6Q-131.3 75.4 -128.6 70.6Q-126.2 79.85 -80.3 79.6L-80 79.6" />
<path style="fill:none;stroke-width:1;stroke-linecap:round;stroke-linejoin:round;stroke-miterlimit:3;stroke:#000000;stroke-opacity:1" d="M-80.3,79.6Q-126.2 79.85 -128.6 70.6Q-131.3 75.4 -116.3 82.6L-127.1 160.6Q-114.5 174.7 -80 174.7Q-51.5 175.75 -33.2 160.6L-44 82.6Q-29 75.4 -31.7 70.6Q-34.1 79.85 -80 79.6L-80.3 79.6z" />
<path style="fill:#333333;fill-opacity:1" d="M-79.95,79Q-99.9 79 -114 76.6Q-128.15 74.15 -128.15 70.75Q-128.15 67.35 -114 64.9Q-99.9 62.5 -79.95 62.5Q-59.95 62.5 -45.85 64.9Q-31.7 67.35 -31.7 70.75Q-31.7 74.15 -45.85 76.6Q-59.95 79 -79.95 79" />
<path style="fill:none;stroke-width:1;stroke-linecap:round;stroke-linejoin:round;stroke-miterlimit:3;stroke:#000000;stroke-opacity:1" d="M-79.95,79Q-99.9 79 -114 76.6Q-128.15 74.15 -128.15 70.75Q-128.15 67.35 -114 64.9Q-99.9 62.5 -79.95 62.5Q-59.95 62.5 -45.85 64.9Q-31.7 67.35 -31.7 70.75Q-31.7 74.15 -45.85 76.6Q-59.95 79 -79.95 79z" />
<path style="fill:#000000;fill-opacity:1" d="M-79.25,76.35Q-93.6 76.35 -103.75 74.7Q-113.9 73.1 -113.9 70.75Q-113.9 68.4 -103.75 66.75Q-93.6 65.1 -79.25 65.1Q-64.95 65.1 -54.75 66.75Q-44.6 68.4 -44.6 70.75Q-44.6 73.05 -54.75 74.7Q-64.9 76.35 -79.25 76.35" />
<path style="fill:none;stroke-width:1;stroke-linecap:round;stroke-linejoin:round;stroke-miterlimit:3;stroke:#000000;stroke-opacity:1" d="M-79.25,76.35Q-93.6 76.35 -103.75 74.7Q-113.9 73.1 -113.9 70.75Q-113.9 68.4 -103.75 66.75Q-93.6 65.1 -79.25 65.1Q-64.95 65.1 -54.75 66.75Q-44.6 68.4 -44.6 70.75Q-44.6 73.05 -54.75 74.7Q-64.9 76.35 -79.25 76.35z" />
<path style="fill:#FFFFFF;fill-opacity:1" d="M-61.85,66.3Q-63.2 65.05 -70.45 64.1Q-77 60.35 -68.5 57.35L-64.65 58.95Q-57.4 63.2 -61.85 66.3" />
<path style="fill:none;stroke-width:1;stroke-linecap:round;stroke-linejoin:round;stroke-miterlimit:3;stroke:#000000;stroke-opacity:1" d="M-68.5,57.35Q-77 60.35 -70.45 64.1Q-63.2 65.05 -61.85 66.3Q-57.4 63.2 -64.65 58.95" />
<path style="fill:none;stroke-width:6;stroke-linecap:round;stroke-linejoin:round;stroke-miterlimit:3;stroke:#666666;stroke-opacity:1" d="M-54.25,87.55L-42.25 158.2" />
<path style="fill:#000000;fill-opacity:1" d="M70.1,52.3Q70.1 56.55 66 59.55Q61.9 62.55 56.1 62.55Q50.3 62.55 46.2 59.55Q42.1 56.55 42.1 52.3Q42.1 48.05 46.2 45.05Q50.3 42.05 56.1 42.05Q61.9 42.05 66 45.05Q70.1 48.05 70.1 52.3" />
<path style="fill:none;stroke-width:2;stroke-linecap:round;stroke-linejoin:round;stroke-miterlimit:3;stroke:#666666;stroke-opacity:1" d="M70.1,52.3Q70.1 56.55 66 59.55Q61.9 62.55 56.1 62.55Q50.3 62.55 46.2 59.55Q42.1 56.55 42.1 52.3Q42.1 48.05 46.2 45.05Q50.3 42.05 56.1 42.05Q61.9 42.05 66 45.05Q70.1 48.05 70.1 52.3z" />
<path style="fill:#FFFFFF;fill-opacity:1" d="M48.1,50.15L64.75 58.75Q51.75 63.75 47.45 57.75Q47.45 52.75 48.1 50.15" />
<path style="fill:none;stroke-width:2;stroke-linecap:round;stroke-linejoin:round;stroke-miterlimit:3;stroke:#FFFFFF;stroke-opacity:1" d="M64.75,58.75Q51.75 63.75 47.45 57.75Q47.45 52.75 48.1 50.15" />
<path style="fill:#007FFF;fill-opacity:1" d="M-13.85,63.3L84.85 29.2L86.95 35.35L-11.75 69.5L-13.85 63.3" />
<path style="fill:none;stroke-width:1;stroke-linecap:round;stroke-linejoin:round;stroke-miterlimit:3;stroke:#1CFFF4;stroke-opacity:1" d="M-13.85,63.3L84.85 29.2L86.95 35.35L-11.75 69.5L-13.85 63.3z" />
<path style="fill:#007FFF;fill-opacity:1" d="M-16.25,61.75Q-14.7 61.25 -14.15 62.8L-11.65 70.05Q-11.15 71.6 -12.7 72.15L-13.95 72.1L-14.8 71.15L-17.3 63.85Q-17.5 63.2 -17.2 62.6Q-16.9 62 -16.25 61.75" />
<path style="fill:none;stroke-width:1;stroke-linecap:round;stroke-linejoin:round;stroke-miterlimit:3;stroke:#1CFFF4;stroke-opacity:1" d="M-16.25,61.75Q-14.7 61.25 -14.15 62.8L-11.65 70.05Q-11.15 71.6 -12.7 72.15L-13.95 72.1L-14.8 71.15L-17.3 63.85Q-17.5 63.2 -17.2 62.6Q-16.9 62 -16.25 61.75z" />
<path style="fill:#FFFF00;fill-opacity:1" d="M-24.65,62.65Q-21.65 61.65 -18.85 63Q-16 64.4 -15 67.4Q-13.95 70.4 -15.35 73.25Q-16.75 76.05 -19.75 77.1Q-22.75 78.1 -25.55 76.7Q-28.4 75.3 -29.4 72.3Q-30.45 69.35 -29.05 66.5Q-27.65 63.65 -24.65 62.65" />
<path style="fill:none;stroke-width:1;stroke-linecap:round;stroke-linejoin:round;stroke-miterlimit:3;stroke:#1CFFF4;stroke-opacity:1" d="M-24.65,62.65Q-21.65 61.65 -18.85 63Q-16 64.4 -15 67.4Q-13.95 70.4 -15.35 73.25Q-16.75 76.05 -19.75 77.1Q-22.75 78.1 -25.55 76.7Q-28.4 75.3 -29.4 72.3Q-30.45 69.35 -29.05 66.5Q-27.65 63.65 -24.65 62.65z" />
<path style="fill:#007FFF;fill-opacity:1" d="M87.75,27.6L90.2 34.85Q90.75 36.45 89.15 37L87.9 36.9Q87.3 36.6 87.05 35.95L84.6 28.7Q84.05 27.1 85.65 26.55Q87.2 26.1 87.75 27.6" />
<path style="fill:none;stroke-width:1;stroke-linecap:round;stroke-linejoin:round;stroke-miterlimit:3;stroke:#1CFFF4;stroke-opacity:1" d="M85.65,26.55Q84.05 27.1 84.6 28.7L87.05 35.95Q87.3 36.6 87.9 36.9L89.15 37Q90.75 36.45 90.2 34.85L87.75 27.6Q87.2 26.1 85.65 26.55z" />
<path style="fill:#FF0000;fill-opacity:1" d="M98.65,22.5Q101.5 23.9 102.5 26.9Q103.5 29.9 102.15 32.7Q100.75 35.55 97.75 36.55Q94.75 37.6 91.95 36.2Q89.1 34.8 88.05 31.8Q87.05 28.85 88.45 26Q89.85 23.15 92.85 22.15Q95.8 21.15 98.65 22.5" />
<path style="fill:none;stroke-width:1;stroke-linecap:round;stroke-linejoin:round;stroke-miterlimit:3;stroke:#1CFFF4;stroke-opacity:1" d="M92.85,22.15Q89.85 23.15 88.45 26Q87.05 28.85 88.05 31.8Q89.1 34.8 91.95 36.2Q94.75 37.6 97.75 36.55Q100.75 35.55 102.15 32.7Q103.5 29.9 102.5 26.9Q101.5 23.9 98.65 22.5Q95.8 21.15 92.85 22.15z" />
<path style="fill:#FFFFFF;fill-opacity:1" d="M56.1,47.25L68.1 54.75L62.9 58.85Q48.15 60.1 48.6 49L56.1 47.25" />
<path style="fill:none;stroke-width:2;stroke-linecap:round;stroke-linejoin:round;stroke-miterlimit:3;stroke:#000000;stroke-opacity:1" d="M48.6,49Q48.15 60.1 62.9 58.85L68.1 54.75L56.1 47.25L48.6 49z" />
<path style="fill:#FFFFFF;fill-opacity:1" d="M54.6,38.5Q50.25 46.85 45.9 42.15Q44.6 42.15 47.6 36.5Q50.6 30.85 55.9 34.15L61.6 36.5L56.25 38.15L54.6 38.5" />
<path style="fill:none;stroke-width:2;stroke-linecap:round;stroke-linejoin:round;stroke-miterlimit:3;stroke:#000000;stroke-opacity:1" d="M61.6,36.5L55.9 34.15Q50.6 30.85 47.6 36.5Q44.6 42.15 45.9 42.15Q50.25 46.85 54.6 38.5L56.25 38.15" />
<path style="fill:#FFFFFF;fill-opacity:1" d="M65.45,60.2Q55.9 60.35 56.75 54.4L71.05 55.85Q71.55 60.4 65.45 60.2" />
<path style="fill:none;stroke-width:1;stroke-linecap:round;stroke-linejoin:round;stroke-miterlimit:3;stroke:#000000;stroke-opacity:1" d="M56.75,54.4Q55.9 60.35 65.45 60.2Q71.55 60.4 71.05 55.85" />
<path style="fill:#FFFFFF;fill-opacity:1" d="M72.05,56.05Q64.75 60.4 58.8 56.2Q52.15 51.8 56.15 50.55L71.1 50.45Q74.4 54.5 72.05 56.05" />
<path style="fill:none;stroke-width:2;stroke-linecap:round;stroke-linejoin:round;stroke-miterlimit:3;stroke:#000000;stroke-opacity:1" d="M56.15,50.55Q52.15 51.8 58.8 56.2Q64.75 60.4 72.05 56.05Q74.4 54.5 71.1 50.45" />
<path style="fill:#FFFFFF;fill-opacity:1" d="M71,52.8Q65.05 57.05 58.45 52.7Q50.3 47.4 56 46.1L70.4 45.55Q76.65 49.85 71 52.8" />
<path style="fill:none;stroke-width:2;stroke-linecap:round;stroke-linejoin:round;stroke-miterlimit:3;stroke:#000000;stroke-opacity:1" d="M56,46.1Q50.3 47.4 58.45 52.7Q65.05 57.05 71 52.8Q76.65 49.85 70.4 45.55" />
<path style="fill:#FFFFFF;fill-opacity:1" d="M61.6,45.5L67.75 41.35Q72.1 42 71.6 44.85Q65.75 53 60.1 52.5L48.1 50.15Q39.9 52.75 39.6 50Q40.25 43 48.1 44.5L61.6 45.5" />
<path style="fill:none;stroke-width:2;stroke-linecap:round;stroke-linejoin:round;stroke-miterlimit:3;stroke:#000000;stroke-opacity:1" d="M67.75,41.35Q72.1 42 71.6 44.85Q65.75 53 60.1 52.5L48.1 50.15Q39.9 52.75 39.6 50Q40.25 43 48.1 44.5L61.6 45.5" />
</g>
</svg>
