<?xml version="1.0" encoding="utf-8"?>
<svg version="1.1" id="Layer_1"
xmlns="http://www.w3.org/2000/svg"
xmlns:xlink="http://www.w3.org/1999/xlink"
xmlns:author="http://www.sothink.com"
width="230px" height="153px"
xml:space="preserve">
<g id="291" transform="matrix(1, 0, 0, 1, 115.05, 76.55)">
<path style="fill:#FF9F40;fill-opacity:1" d="M-52.6,8.95Q-49.45 4.55 -46.85 4.3Q-40.2 3.6 -32.55 -0.4Q-14.85 -15.7 16.15 -14.7Q33.45 -15.05 32.45 -24.05Q29.15 -41.4 35.15 -46.7Q28.8 -46.05 24.45 -37.4Q23.45 -51.05 39.8 -59.4Q35.45 -61.05 20.15 -53.7Q27.8 -62.7 41.8 -66.7Q36.45 -67.4 28.15 -65.4Q43.15 -78.7 65.45 -72.7Q87.8 -68.05 84.8 -44.4Q82.45 -34.05 79.45 -26.4Q76.45 -18.7 60.8 -10.7Q50.15 -6.4 46.8 4.95Q45.15 17.95 33.45 31.6Q4.8 58.6 -43.55 37.3Q-52 35.3 -55.25 29.85Q-58 25.25 -56.8 18.9Q-55.85 13.5 -52.6 8.95" />
<path style="fill:none;stroke-width:4;stroke-linecap:round;stroke-linejoin:round;stroke-miterlimit:3;stroke:#000000;stroke-opacity:1" d="M-56.8,18.9Q-58 25.25 -55.25 29.85Q-52 35.3 -43.55 37.3Q4.8 58.6 33.45 31.6Q45.15 17.95 46.8 4.95Q50.15 -6.4 60.8 -10.7Q76.45 -18.7 79.45 -26.4Q82.45 -34.05 84.8 -44.4Q87.8 -68.05 65.45 -72.7Q43.15 -78.7 28.15 -65.4Q36.45 -67.4 41.8 -66.7Q27.8 -62.7 20.15 -53.7Q35.45 -61.05 39.8 -59.4Q23.45 -51.05 24.45 -37.4Q28.8 -46.05 35.15 -46.7Q29.15 -41.4 32.45 -24.05Q33.45 -15.05 16.15 -14.7Q-14.85 -15.7 -32.55 -0.4Q-40.2 3.6 -46.85 4.3Q-49.45 4.55 -52.6 8.95Q-55.85 13.5 -56.8 18.9z" />
<path style="fill:#FFBFBF;fill-opacity:1" d="M102.8,-39.7Q117.8 -26.7 110.8 -18.7Q106.8 -32.7 80.15 -32.05Q76.45 -35.4 83.8 -44.7Q94.45 -46.4 102.8 -39.7" />
<path style="fill:none;stroke-width:3;stroke-linecap:round;stroke-linejoin:round;stroke-miterlimit:3;stroke:#000000;stroke-opacity:1" d="M83.8,-44.7Q76.45 -35.4 80.15 -32.05Q106.8 -32.7 110.8 -18.7Q117.8 -26.7 102.8 -39.7Q94.45 -46.4 83.8 -44.7z" />
<path style="fill:#FFBFBF;fill-opacity:1" d="M78.8,-32.4Q103.45 -32.05 107.8 -20.4Q91.45 -30.05 75.15 -20.4Q72.45 -27.7 78.8 -32.4" />
<path style="fill:none;stroke-width:3;stroke-linecap:round;stroke-linejoin:round;stroke-miterlimit:3;stroke:#000000;stroke-opacity:1" d="M75.15,-20.4Q91.45 -30.05 107.8 -20.4Q103.45 -32.05 78.8 -32.4Q72.45 -27.7 75.15 -20.4z" />
<path style="fill:#FF9F40;fill-opacity:1" d="M-46.85,4.3L-52.2 17.1L-77.85 23.95L-92.85 26.3Q-98.85 17.05 -90.05 13Q-86.95 11.55 -81.4 10.5L-72.55 8.95L-46.85 4.3" />
<path style="fill:none;stroke-width:4;stroke-linecap:round;stroke-linejoin:round;stroke-miterlimit:3;stroke:#000000;stroke-opacity:1" d="M-52.2,17.1L-77.85 23.95L-92.85 26.3Q-98.85 17.05 -90.05 13Q-86.95 11.55 -81.4 10.5L-72.55 8.95L-46.85 4.3" />
<path style="fill:#FF9F40;fill-opacity:1" d="M-56.2,27.6Q-67.2 27.6 -106.2 51.95Q-116.2 46.95 -111.55 36.3Q-108.5 29.35 -98.35 25.9Q-94.65 24.65 -88.65 23.4L-78.2 21.3Q-64.2 18.3 -46.55 11.3L-56.2 27.6" />
<path style="fill:none;stroke-width:4;stroke-linecap:round;stroke-linejoin:round;stroke-miterlimit:3;stroke:#000000;stroke-opacity:1" d="M-46.55,11.3Q-64.2 18.3 -78.2 21.3L-88.65 23.4Q-94.65 24.65 -98.35 25.9Q-108.5 29.35 -111.55 36.3Q-116.2 46.95 -106.2 51.95Q-67.2 27.6 -56.2 27.6" />
<path style="fill:#FF9F40;fill-opacity:1" d="M-44.2,35.3Q-59.85 34.95 -94.85 62.95Q-107.95 75.4 -111.2 59.3Q-114.2 44.3 -55.2 22.95L-44.2 35.3" />
<path style="fill:none;stroke-width:4;stroke-linecap:round;stroke-linejoin:round;stroke-miterlimit:3;stroke:#000000;stroke-opacity:1" d="M-55.2,22.95Q-114.2 44.3 -111.2 59.3Q-107.95 75.4 -94.85 62.95Q-59.85 34.95 -44.2 35.3" />
<path style="fill:none;stroke-width:4;stroke-linecap:round;stroke-linejoin:round;stroke-miterlimit:3;stroke:#000000;stroke-opacity:1" d="M1.8,0.95Q-7.2 -12.05 -27.55 0.3Q-34.55 4.95 -38.85 13.3Q-47.2 22.6 -53.55 24.6Q-36.85 59.6 1.15 31.3" />
<path style="fill:none;stroke-width:3;stroke-linecap:round;stroke-linejoin:round;stroke-miterlimit:3;stroke:#000000;stroke-opacity:1" d="M-51.2,27.95Q-41.2 38.3 -15.55 23.6" />
<path style="fill:#FF7F7F;fill-opacity:1" d="M-1.2,60.95Q13.15 56.6 17.8 57.95Q22.45 59.3 20.15 61.6Q9.15 65.3 -1.2 60.95" />
<path style="fill:none;stroke-width:2;stroke-linecap:round;stroke-linejoin:round;stroke-miterlimit:3;stroke:#000000;stroke-opacity:1" d="M-1.2,60.95Q13.15 56.6 17.8 57.95Q22.45 59.3 20.15 61.6Q9.15 65.3 -1.2 60.95z" />
<path style="fill:none;stroke-width:3;stroke-linecap:round;stroke-linejoin:round;stroke-miterlimit:3;stroke:#000000;stroke-opacity:1" d="M-38.2,39.3Q-18.2 39.6 -7.55 27.3" />
<path style="fill:#FF7F7F;fill-opacity:1" d="M1.45,44.6Q-3.55 56.95 -1.2 60.3L15.15 60.95Q21.45 60.6 23.45 60.95Q27.25 61.65 27.45 64.95Q27.8 69.95 19.15 65.95L4.8 66.3L-5.2 65.6Q-9.2 56.3 -4.85 44.3L1.45 44.6" />
<path style="fill:none;stroke-width:2;stroke-linecap:round;stroke-linejoin:round;stroke-miterlimit:3;stroke:#000000;stroke-opacity:1" d="M1.45,44.6Q-3.55 56.95 -1.2 60.3L15.15 60.95Q21.45 60.6 23.45 60.95Q27.25 61.65 27.45 64.95Q27.8 69.95 19.15 65.95L4.8 66.3L-5.2 65.6Q-9.2 56.3 -4.85 44.3L1.45 44.6z" />
<path style="fill:#FF7F7F;fill-opacity:1" d="M-11.2,63.95Q8.15 60.95 13.45 65.3Q19.8 74.6 6.8 70.3Q-6.2 65.95 -11.2 63.95" />
<path style="fill:none;stroke-width:2;stroke-linecap:round;stroke-linejoin:round;stroke-miterlimit:3;stroke:#000000;stroke-opacity:1" d="M-11.2,63.95Q8.15 60.95 13.45 65.3Q19.8 74.6 6.8 70.3Q-6.2 65.95 -11.2 63.95z" />
<path style="fill:#FF7F7F;fill-opacity:1" d="M-6.85,44.6Q-8.4 46.8 -9.9 53.75Q-11.2 59.65 -11.2 61.6Q-11.2 63.3 -0.55 65.6L3.45 66.6Q13.8 70.3 6.8 74.6Q-0.85 70.3 -10.85 67.95Q-20.85 65.6 -25.55 69.95Q-34.85 75.95 -33.2 68.3Q-31.55 60.6 -25.2 62.95L-16.85 61.95Q-16.2 49 -12.85 44.35L-6.85 44.6" />
<path style="fill:none;stroke-width:2;stroke-linecap:round;stroke-linejoin:round;stroke-miterlimit:3;stroke:#000000;stroke-opacity:1" d="M-12.85,44.35Q-16.2 49 -16.85 61.95L-25.2 62.95Q-31.55 60.6 -33.2 68.3Q-34.85 75.95 -25.55 69.95Q-20.85 65.6 -10.85 67.95Q-0.85 70.3 6.8 74.6Q13.8 70.3 3.45 66.6L-0.55 65.6Q-11.2 63.3 -11.2 61.6Q-11.2 59.65 -9.9 53.75Q-8.4 46.8 -6.85 44.6L-12.85 44.35L-13.55 44.3" />
<path style="fill:none;stroke-width:4;stroke-linecap:round;stroke-linejoin:round;stroke-miterlimit:3;stroke:#000000;stroke-opacity:1" d="M31.45,-2.05Q30.45 50.6 -15.2 45.3" />
<path style="fill:#99FFFF;fill-opacity:1" d="M69.55,-52.95Q70.5 -48.9 68.9 -45.5Q67.3 -42.15 64.15 -41.4Q61 -40.7 58.1 -43Q55.2 -45.35 54.3 -49.4Q53.35 -53.45 54.95 -56.8Q56.5 -60.2 59.65 -60.9Q62.85 -61.65 65.75 -59.3Q68.6 -57 69.55 -52.95" />
<path style="fill:none;stroke-width:2;stroke-linecap:round;stroke-linejoin:round;stroke-miterlimit:3;stroke:#000000;stroke-opacity:1" d="M69.55,-52.95Q70.5 -48.9 68.9 -45.5Q67.3 -42.15 64.15 -41.4Q61 -40.7 58.1 -43Q55.2 -45.35 54.3 -49.4Q53.35 -53.45 54.95 -56.8Q56.5 -60.2 59.65 -60.9Q62.85 -61.65 65.75 -59.3Q68.6 -57 69.55 -52.95z" />
<path style="fill:#000000;fill-opacity:1" d="M68.7,-53.6Q69.5 -50.15 68.65 -47.4Q67.75 -44.65 65.75 -44.2Q63.75 -43.7 61.75 -45.8Q59.75 -47.9 58.95 -51.35Q58.15 -54.75 59.05 -57.55Q59.9 -60.3 61.9 -60.75Q63.95 -61.2 65.9 -59.1Q67.9 -57 68.7 -53.6" />
<path style="fill:none;stroke-width:2;stroke-linecap:round;stroke-linejoin:round;stroke-miterlimit:3;stroke:#000000;stroke-opacity:1" d="M68.7,-53.6Q69.5 -50.15 68.65 -47.4Q67.75 -44.65 65.75 -44.2Q63.75 -43.7 61.75 -45.8Q59.75 -47.9 58.95 -51.35Q58.15 -54.75 59.05 -57.55Q59.9 -60.3 61.9 -60.75Q63.95 -61.2 65.9 -59.1Q67.9 -57 68.7 -53.6z" />
<path style="fill:#FFFFFF;fill-opacity:1" d="M67.2,-54.45Q67.75 -52.05 67.25 -50.2Q66.7 -48.35 65.45 -48.1Q64.2 -47.8 62.95 -49.25Q61.65 -50.7 61.15 -53.05Q60.6 -55.35 61.1 -57.25Q61.6 -59.1 62.85 -59.4Q64.1 -59.65 65.4 -58.2Q66.65 -56.8 67.2 -54.45" />
<path style="fill:none;stroke-width:1;stroke-linecap:round;stroke-linejoin:round;stroke-miterlimit:3;stroke:#000000;stroke-opacity:1" d="M67.2,-54.45Q67.75 -52.05 67.25 -50.2Q66.7 -48.35 65.45 -48.1Q64.2 -47.8 62.95 -49.25Q61.65 -50.7 61.15 -53.05Q60.6 -55.35 61.1 -57.25Q61.6 -59.1 62.85 -59.4Q64.1 -59.65 65.4 -58.2Q66.65 -56.8 67.2 -54.45z" />
<path style="fill:#FF9F40;fill-opacity:1" d="M51.6,-56.1Q51.75 -59 53.3 -61.75Q54.9 -64.5 57.25 -66.1Q59.8 -67.85 62.6 -67.7Q70.35 -67.3 74.4 -54.7Q65.05 -49.4 52.85 -50.65Q51.4 -53 51.6 -56.1" />
<path style="fill:none;stroke-width:2;stroke-linecap:round;stroke-linejoin:round;stroke-miterlimit:3;stroke:#000000;stroke-opacity:1" d="M52.85,-50.65Q65.05 -49.4 74.4 -54.7" />
</g>
</svg>
