<?xml version="1.0" encoding="utf-8"?>
<svg version="1.1" id="Layer_1"
xmlns="http://www.w3.org/2000/svg"
xmlns:xlink="http://www.w3.org/1999/xlink"
xmlns:author="http://www.sothink.com"
width="246px" height="164px"
xml:space="preserve">
<g id="295" transform="matrix(1, 0, 0, 1, 123.2, 82.05)">
<path style="fill:#FF7F7F;fill-opacity:1" d="M23.3,71.9Q11.9 69.7 5.05 60.8Q19.65 64.1 23.05 67.55Q26.45 71 23.3 71.9" />
<path style="fill:none;stroke-width:2;stroke-linecap:round;stroke-linejoin:round;stroke-miterlimit:3;stroke:#000000;stroke-opacity:1" d="M23.3,71.9Q11.9 69.7 5.05 60.8Q19.65 64.1 23.05 67.55Q26.45 71 23.3 71.9z" />
<path style="fill:#FF7F7F;fill-opacity:1" d="M18.05,45.25Q4.95 56.2 5.35 60.25Q10.05 64.2 15.45 66.85Q25.2 71.65 21.45 76.85Q18.95 80.35 13.95 72.85L-0.75 62.9Q0.35 52.85 12.7 41.85L18.05 45.25" />
<path style="fill:none;stroke-width:2;stroke-linecap:round;stroke-linejoin:round;stroke-miterlimit:3;stroke:#000000;stroke-opacity:1" d="M18.05,45.25Q4.95 56.2 5.35 60.25Q10.05 64.2 15.45 66.85Q25.2 71.65 21.45 76.85Q18.95 80.35 13.95 72.85L-0.75 62.9Q0.35 52.85 12.7 41.85L18.05 45.25z" />
<path style="fill:#FF7F7F;fill-opacity:1" d="M4.1,73Q-2.95 61.25 -5.45 56.5Q11.2 66.75 12.45 73.5Q11.2 84.75 4.1 73" />
<path style="fill:none;stroke-width:2;stroke-linecap:round;stroke-linejoin:round;stroke-miterlimit:3;stroke:#000000;stroke-opacity:1" d="M4.1,73Q-2.95 61.25 -5.45 56.5Q11.2 66.75 12.45 73.5Q11.2 84.75 4.1 73z" />
<path style="fill:#FF7F7F;fill-opacity:1" d="M-26.45,51.5Q-21.2 45.6 -16.85 50.75L-9.1 54Q-2.2 43.05 3 40.6L8.1 43.8Q5.7 44.95 1 50.25Q-3.05 54.8 -4 56.5Q-4.5 57.35 -2.65 59.1L1.85 63.45Q5.3 67.3 5.55 71.1Q8.95 81.35 -0.55 79.85Q-0.55 69.05 -8.15 62.1Q-15.7 55.15 -20.6 56.7Q-31.65 57.35 -26.45 51.5" />
<path style="fill:none;stroke-width:2;stroke-linecap:round;stroke-linejoin:round;stroke-miterlimit:3;stroke:#000000;stroke-opacity:1" d="M-20.6,56.7Q-15.7 55.15 -8.15 62.1Q-0.55 69.05 -0.55 79.85Q8.95 81.35 5.55 71.1Q5.3 67.3 1.85 63.45L-2.65 59.1Q-4.5 57.35 -4 56.5Q-3.05 54.8 1 50.25Q5.7 44.95 8.1 43.8L3 40.6Q-2.2 43.05 -9.1 54L-16.85 50.75Q-21.2 45.6 -26.45 51.5Q-31.65 57.35 -20.6 56.7M3,40.6L2.5 40.25" />
<path style="fill:#FF9F40;fill-opacity:1" d="M36.85,-4.6L-13.1 -1.45Q-38.3 -17.25 -34.15 -53.5Q-72 -73.9 -50.5 -78.55Q16.9 -69.1 36.85 -4.6" />
<path style="fill:none;stroke-width:4;stroke-linecap:round;stroke-linejoin:round;stroke-miterlimit:3;stroke:#000000;stroke-opacity:1" d="M-13.1,-1.45Q-38.3 -17.25 -34.15 -53.5Q-72 -73.9 -50.5 -78.55Q16.9 -69.1 36.85 -4.6" />
<path style="fill:#FF9F40;fill-opacity:1" d="M-32.65,-18.75L4.2 1.55Q-36.8 -0.05 -32.65 -18.75" />
<path style="fill:none;stroke-width:4;stroke-linecap:round;stroke-linejoin:round;stroke-miterlimit:3;stroke:#000000;stroke-opacity:1" d="M4.2,1.55Q-36.8 -0.05 -32.65 -18.75" />
<path style="fill:#FF9F40;fill-opacity:1" d="M-45.5,-43.95L-12.15 -12.45Q-52.55 -21 -45.5 -43.95" />
<path style="fill:none;stroke-width:4;stroke-linecap:round;stroke-linejoin:round;stroke-miterlimit:3;stroke:#000000;stroke-opacity:1" d="M-12.15,-12.45Q-52.55 -21 -45.5 -43.95" />
<path style="fill:#FF9F40;fill-opacity:1" d="M-19.45,-26.6Q-30.55 -29.95 -40.4 -38.8Q-50.7 -48.1 -51.45 -56.55Q-52.45 -68.15 -20 -43.25L-19.45 -26.6" />
<path style="fill:none;stroke-width:4;stroke-linecap:round;stroke-linejoin:round;stroke-miterlimit:3;stroke:#000000;stroke-opacity:1" d="M-20,-43.25Q-52.45 -68.15 -51.45 -56.55Q-50.7 -48.1 -40.4 -38.8Q-30.55 -29.95 -19.45 -26.6" />
<path style="fill:#FF7F7F;fill-opacity:1" d="M87.9,-46.25Q100.85 -54.3 109.9 -51.05Q119 -47.85 109.6 -47.6Q101.45 -46.75 98.15 -43.55L87.9 -46.25" />
<path style="fill:none;stroke-width:2;stroke-linecap:round;stroke-linejoin:round;stroke-miterlimit:3;stroke:#000000;stroke-opacity:1" d="M87.9,-46.25Q100.85 -54.3 109.9 -51.05Q119 -47.85 109.6 -47.6Q101.45 -46.75 98.15 -43.55" />
<path style="fill:#FF9F40;fill-opacity:1" d="M24.6,-49.1Q29.45 -59.85 41.8 -67.6Q36.45 -66.75 29 -62.5Q39.7 -79.5 62.85 -79.95Q85.6 -81.7 89.3 -58.15Q89.95 -47.55 89.2 -39.35Q88.45 -31.15 75.65 -19.1Q66.6 -12 59.55 4.45Q54.35 17.95 42.7 31.6Q14.05 58.6 -30.8 36.8Q-39.25 34.8 -43 29.3Q-46.15 24.65 -45.6 18.25Q-45.15 12.75 -42.4 8.15Q-39.75 3.7 -37.15 3.45Q-30.45 2.8 -19.8 -0.9Q-2.15 -16.2 28.85 -15.2Q46.2 -15.55 44.7 -24Q36.65 -39.75 40.95 -46.55Q35.05 -44.15 33.3 -34.6Q28.55 -47.45 41.9 -60Q37.25 -60.4 24.6 -49.1" />
<path style="fill:none;stroke-width:4;stroke-linecap:round;stroke-linejoin:round;stroke-miterlimit:3;stroke:#000000;stroke-opacity:1" d="M41.9,-60Q28.55 -47.45 33.3 -34.6Q35.05 -44.15 40.95 -46.55Q36.65 -39.75 44.7 -24Q46.2 -15.55 28.85 -15.2Q-2.15 -16.2 -19.8 -0.9Q-30.45 2.8 -37.15 3.45Q-39.75 3.7 -42.4 8.15Q-45.15 12.75 -45.6 18.25Q-46.15 24.65 -43 29.3Q-39.25 34.8 -30.8 36.8Q14.05 58.6 42.7 31.6Q54.35 17.95 59.55 4.45Q66.6 -12 75.65 -19.1Q88.45 -31.15 89.2 -39.35Q89.95 -47.55 89.3 -58.15Q85.6 -81.7 62.85 -79.95Q39.7 -79.5 29 -62.5Q36.45 -66.75 41.8 -67.6Q29.45 -59.85 24.6 -49.1Q37.25 -60.4 41.9 -60z" />
<path style="fill:#FFBFBF;fill-opacity:1" d="M87.9,-44.95Q110.85 -45.2 118.85 -40.2Q101.55 -39.9 84.75 -32.8Q81.75 -40 87.9 -44.95" />
<path style="fill:none;stroke-width:3;stroke-linecap:round;stroke-linejoin:round;stroke-miterlimit:3;stroke:#000000;stroke-opacity:1" d="M84.75,-32.8Q101.55 -39.9 118.85 -40.2Q110.85 -45.2 87.9 -44.95Q81.75 -40 84.75 -32.8z" />
<path style="fill:#FF9F40;fill-opacity:1" d="M-32.15,4.8L-46.85 8.15L-69.25 -6.1L-81.15 -15.55Q-78.4 -26.35 -69.2 -22.8Q-64.05 -20.8 -54.6 -12.35Q-44.8 -3.55 -32.15 4.8" />
<path style="fill:none;stroke-width:4;stroke-linecap:round;stroke-linejoin:round;stroke-miterlimit:3;stroke:#000000;stroke-opacity:1" d="M-46.85,8.15L-69.25 -6.1L-81.15 -15.55Q-78.4 -26.35 -69.2 -22.8Q-64.05 -20.8 -54.6 -12.35Q-44.8 -3.55 -32.15 4.8" />
<path style="fill:#FF9F40;fill-opacity:1" d="M-36.15,9.45L-43.15 18.8Q-50.6 10.7 -109.05 -8Q-112.15 -18.75 -101.15 -22.5Q-93.9 -25 -84.5 -19.95Q-80.9 -18.05 -76.05 -14.55L-67.5 -8.15Q-52.45 3.1 -36.15 9.45" />
<path style="fill:none;stroke-width:4;stroke-linecap:round;stroke-linejoin:round;stroke-miterlimit:3;stroke:#000000;stroke-opacity:1" d="M-43.15,18.8Q-50.6 10.7 -109.05 -8Q-112.15 -18.75 -101.15 -22.5Q-93.9 -25 -84.5 -19.95Q-80.9 -18.05 -76.05 -14.55L-67.5 -8.15Q-52.45 3.1 -36.15 9.45" />
<path style="fill:#FF9F40;fill-opacity:1" d="M-40.15,15.1L-43.15 28.8Q-67.8 16.45 -109.45 7.8Q-127.5 6.6 -117.85 -6.7Q-108.8 -19.05 -40.15 15.1" />
<path style="fill:none;stroke-width:4;stroke-linecap:round;stroke-linejoin:round;stroke-miterlimit:3;stroke:#000000;stroke-opacity:1" d="M-43.15,28.8Q-67.8 16.45 -109.45 7.8Q-127.5 6.6 -117.85 -6.7Q-108.8 -19.05 -40.15 15.1" />
<path style="fill:none;stroke-width:3;stroke-linecap:round;stroke-linejoin:round;stroke-miterlimit:3;stroke:#000000;stroke-opacity:1" d="M55.9,-66.85Q62.55 -67.75 70.8 -63.2Q61.55 -60.5 58.45 -54.4" />
<path style="fill:none;stroke-width:2;stroke-linecap:round;stroke-linejoin:round;stroke-miterlimit:3;stroke:#000000;stroke-opacity:1" d="M69.85,-62.9Q63.1 -63.35 55.1 -60" />
<path style="fill:#FFBFBF;fill-opacity:1" d="M84.85,-56.2Q95.85 -71.2 121.2 -65.9Q102.2 -58.2 88.85 -45.55Q83.2 -46.55 84.85 -56.2" />
<path style="fill:none;stroke-width:3;stroke-linecap:round;stroke-linejoin:round;stroke-miterlimit:3;stroke:#000000;stroke-opacity:1" d="M84.85,-56.2Q95.85 -71.2 121.2 -65.9Q102.2 -58.2 88.85 -45.55Q83.2 -46.55 84.85 -56.2z" />
<path style="fill:#FF9F40;fill-opacity:1" d="M24.7,-5.9L-24.8 1.6Q-51.3 -11.9 -50.3 -48.4Q-89.8 -65.4 -68.8 -71.9Q-0.8 -68.4 24.7 -5.9" />
<path style="fill:none;stroke-width:4;stroke-linecap:round;stroke-linejoin:round;stroke-miterlimit:3;stroke:#000000;stroke-opacity:1" d="M-24.8,1.6Q-51.3 -11.9 -50.3 -48.4Q-89.8 -65.4 -68.8 -71.9Q-0.8 -68.4 24.7 -5.9" />
<path style="fill:#FF9F40;fill-opacity:1" d="M-45.8,-13.9L-7.3 3.1Q-48.3 5.1 -45.8 -13.9" />
<path style="fill:none;stroke-width:4;stroke-linecap:round;stroke-linejoin:round;stroke-miterlimit:3;stroke:#000000;stroke-opacity:1" d="M-7.3,3.1Q-48.3 5.1 -45.8 -13.9" />
<path style="fill:#FF9F40;fill-opacity:1" d="M-60.8,-37.9L-24.8 -9.4Q-65.8 -14.4 -60.8 -37.9" />
<path style="fill:none;stroke-width:4;stroke-linecap:round;stroke-linejoin:round;stroke-miterlimit:3;stroke:#000000;stroke-opacity:1" d="M-24.8,-9.4Q-65.8 -14.4 -60.8 -37.9" />
<path style="fill:#FF9F40;fill-opacity:1" d="M-33.3,-22.9Q-44.65 -25.25 -55.25 -33.2Q-66.35 -41.55 -67.8 -49.9Q-69.8 -61.4 -35.3 -39.4L-33.3 -22.9" />
<path style="fill:none;stroke-width:4;stroke-linecap:round;stroke-linejoin:round;stroke-miterlimit:3;stroke:#000000;stroke-opacity:1" d="M-35.3,-39.4Q-69.8 -61.4 -67.8 -49.9Q-66.35 -41.55 -55.25 -33.2Q-44.65 -25.25 -33.3 -22.9" />
</g>
</svg>
