<?xml version="1.0" encoding="utf-8"?>
<svg version="1.1" id="Layer_1"
xmlns="http://www.w3.org/2000/svg"
xmlns:xlink="http://www.w3.org/1999/xlink"
xmlns:author="http://www.sothink.com"
width="223px" height="144px"
xml:space="preserve">
<g id="294" transform="matrix(1, 0, 0, 1, 111.45, 71.95)">
<path style="fill:#FF7F7F;fill-opacity:1" d="M-4.7,49.3Q9.65 44.95 14.3 46.3Q18.95 47.65 16.65 49.95Q5.65 53.65 -4.7 49.3" />
<path style="fill:none;stroke-width:2;stroke-linecap:round;stroke-linejoin:round;stroke-miterlimit:3;stroke:#000000;stroke-opacity:1" d="M-4.7,49.3Q9.65 44.95 14.3 46.3Q18.95 47.65 16.65 49.95Q5.65 53.65 -4.7 49.3z" />
<path style="fill:#FF7F7F;fill-opacity:1" d="M-2.05,32.95Q-7.05 45.3 -4.7 48.65L11.65 49.3Q17.95 48.95 19.95 49.3Q23.75 50 23.95 53.3Q24.3 58.3 15.65 54.3L1.3 54.65L-8.7 53.95Q-12.7 44.65 -8.35 32.65L-2.05 32.95" />
<path style="fill:none;stroke-width:2;stroke-linecap:round;stroke-linejoin:round;stroke-miterlimit:3;stroke:#000000;stroke-opacity:1" d="M-2.05,32.95Q-7.05 45.3 -4.7 48.65L11.65 49.3Q17.95 48.95 19.95 49.3Q23.75 50 23.95 53.3Q24.3 58.3 15.65 54.3L1.3 54.65L-8.7 53.95Q-12.7 44.65 -8.35 32.65L-2.05 32.95z" />
<path style="fill:#FF7F7F;fill-opacity:1" d="M-14.7,52.3Q4.65 49.3 9.95 53.65Q16.3 62.95 3.3 58.65L-14.7 52.3" />
<path style="fill:none;stroke-width:2;stroke-linecap:round;stroke-linejoin:round;stroke-miterlimit:3;stroke:#000000;stroke-opacity:1" d="M-14.7,52.3Q4.65 49.3 9.95 53.65Q16.3 62.95 3.3 58.65L-14.7 52.3z" />
<path style="fill:#FF7F7F;fill-opacity:1" d="M-10.35,32.95Q-11.9 35.15 -13.4 42.1Q-14.7 48 -14.7 49.95Q-14.7 51.65 -3.55 52.3L0.55 52.65Q11.35 54.55 5.15 60Q-3.1 56.95 -13.35 56.3Q-23.6 55.6 -28.7 56.65Q-38.35 60.95 -36.7 53.3Q-35.05 45.65 -28.35 49.65L-20.35 50.3Q-19.7 37.35 -16.35 32.7L-10.35 32.95" />
<path style="fill:none;stroke-width:2;stroke-linecap:round;stroke-linejoin:round;stroke-miterlimit:3;stroke:#000000;stroke-opacity:1" d="M-16.35,32.7Q-19.7 37.35 -20.35 50.3L-28.35 49.65Q-35.05 45.65 -36.7 53.3Q-38.35 60.95 -28.7 56.65Q-23.6 55.6 -13.35 56.3Q-3.1 56.95 5.15 60Q11.35 54.55 0.55 52.65L-3.55 52.3Q-14.7 51.65 -14.7 49.95Q-14.7 48 -13.4 42.1Q-11.9 35.15 -10.35 32.95L-16.35 32.7L-17.05 32.65" />
<path style="fill:#FF9F40;fill-opacity:1" d="M-51.45,-3.1Q-42.45 -6.8 -37.05 -7.7Q-15.7 -17.35 12.8 -17.35Q30.1 -16.4 30.5 -24.05Q31.05 -41.7 38.05 -45.6Q31.75 -46.3 25.6 -38.8Q27.6 -52.35 45.4 -56.9Q41.5 -59.5 19.65 -55.95Q28 -64.35 48.95 -63.65Q43.85 -65.45 35.3 -65.3Q52.85 -75.05 73.35 -64.35Q94.1 -54.9 86.05 -32.5Q81.5 -22.9 76.9 -16.05Q72.3 -9.25 55.25 -4.85Q43.9 -2.95 41.9 4.5Q39.25 17.35 26.6 30.1Q-3.95 54.9 -50.6 30.05Q-58.9 27.45 -61.65 22.1Q-64 17.6 -62.3 11.6Q-60.9 6.7 -57.3 2.1Q-54.05 -2.05 -51.45 -3.1" />
<path style="fill:none;stroke-width:4;stroke-linecap:round;stroke-linejoin:round;stroke-miterlimit:3;stroke:#000000;stroke-opacity:1" d="M-57.3,2.1Q-60.9 6.7 -62.3 11.6Q-64 17.6 -61.65 22.1Q-58.9 27.45 -50.6 30.05Q-3.95 54.9 26.6 30.1Q39.25 17.35 41.9 4.5Q43.9 -2.95 55.25 -4.85Q72.3 -9.25 76.9 -16.05Q81.5 -22.9 86.05 -32.5Q94.1 -54.9 73.35 -64.35Q52.85 -75.05 35.3 -65.3Q43.85 -65.45 48.95 -63.65Q28 -64.35 19.65 -55.95Q41.5 -59.5 45.4 -56.9Q27.6 -52.35 25.6 -38.8Q31.75 -46.3 38.05 -45.6Q31.05 -41.7 30.5 -24.05Q30.1 -16.4 12.8 -17.35Q-15.7 -17.35 -37.05 -7.7Q-42.45 -6.8 -51.45 -3.1Q-54.05 -2.05 -57.3 2.1z" />
<path style="fill:#FFBFBF;fill-opacity:1" d="M105.8,-1.75Q104.95 -16.3 78.8 -21.45Q75.95 -25.5 85.1 -33Q95.9 -32.35 102.6 -24Q114.4 -8.05 105.8 -1.75" />
<path style="fill:none;stroke-width:3;stroke-linecap:round;stroke-linejoin:round;stroke-miterlimit:3;stroke:#000000;stroke-opacity:1" d="M102.6,-24Q95.9 -32.35 85.1 -33Q75.95 -25.5 78.8 -21.45Q104.95 -16.3 105.8 -1.75Q114.4 -8.05 102.6 -24z" />
<path style="fill:#FFBFBF;fill-opacity:1" d="M77.55,-22.05Q101.55 -16.4 103.25 -4.05Q89.4 -17.05 71.35 -11.15Q70.35 -18.9 77.55 -22.05" />
<path style="fill:none;stroke-width:3;stroke-linecap:round;stroke-linejoin:round;stroke-miterlimit:3;stroke:#000000;stroke-opacity:1" d="M71.35,-11.15Q89.4 -17.05 103.25 -4.05Q101.55 -16.4 77.55 -22.05Q70.35 -18.9 71.35 -11.15z" />
<path style="fill:none;stroke-width:2;stroke-linecap:round;stroke-linejoin:round;stroke-miterlimit:3;stroke:#000000;stroke-opacity:1" d="M70.2,-36.2Q68.1 -34.05 65.35 -34Q62.1 -34 59.8 -36.9Q57.5 -39.85 57.45 -43.95Q52.8 -37.55 57.3 -33.05" />
<path style="fill:#FF9F40;fill-opacity:1" d="M-52.7,-2.35L-53.6 10.55L-77.75 21.6L-92.15 26.4Q-99.6 18.3 -91.6 12.85Q-88.8 10.9 -83.45 8.9L-62.25 0.95Q-56.1 -1.45 -52.7 -2.35" />
<path style="fill:none;stroke-width:4;stroke-linecap:round;stroke-linejoin:round;stroke-miterlimit:3;stroke:#000000;stroke-opacity:1" d="M-53.6,10.55L-77.75 21.6L-92.15 26.4Q-99.6 18.3 -91.6 12.85Q-88.8 10.9 -83.45 8.9L-62.25 0.95Q-56.1 -1.45 -52.7 -2.35" />
<path style="fill:#FF9F40;fill-opacity:1" d="M-55.75,21.6Q-66.6 23.45 -100.95 53.95Q-111.65 50.7 -108.85 39.4Q-107.05 32.05 -97.6 27Q-94.15 25.1 -88.45 22.9L-78.5 19.05Q-65.2 13.7 -48.95 3.85L-55.75 21.6" />
<path style="fill:none;stroke-width:4;stroke-linecap:round;stroke-linejoin:round;stroke-miterlimit:3;stroke:#000000;stroke-opacity:1" d="M-48.95,3.85Q-65.2 13.7 -78.5 19.05L-88.45 22.9Q-94.15 25.1 -97.6 27Q-107.05 32.05 -108.85 39.4Q-111.65 50.7 -100.95 53.95Q-66.6 23.45 -55.75 21.6" />
<path style="fill:#FF9F40;fill-opacity:1" d="M-50.6,30.05Q-65.35 35.25 -87.95 62.9Q-98.8 77.4 -104.65 62Q-110.15 47.75 -58.35 19.65L-50.6 30.05" />
<path style="fill:none;stroke-width:4;stroke-linecap:round;stroke-linejoin:round;stroke-miterlimit:3;stroke:#000000;stroke-opacity:1" d="M-58.35,19.65Q-110.15 47.75 -104.65 62Q-98.8 77.4 -87.95 62.9Q-65.35 35.25 -50.6 30.05" />
<path style="fill:none;stroke-width:4;stroke-linecap:round;stroke-linejoin:round;stroke-miterlimit:3;stroke:#000000;stroke-opacity:1" d="M-2.7,-2.8Q-10.7 -16.45 -31.9 -5.65Q-39.2 -1.55 -44.15 6.45Q-53.15 15.15 -59.6 16.65Q-45.6 52.8 -5.6 27.4" />
<path style="fill:none;stroke-width:3;stroke-linecap:round;stroke-linejoin:round;stroke-miterlimit:3;stroke:#000000;stroke-opacity:1" d="M-57.55,20.15Q-48.35 31.2 -21.65 18.5" />
<path style="fill:none;stroke-width:3;stroke-linecap:round;stroke-linejoin:round;stroke-miterlimit:3;stroke:#000000;stroke-opacity:1" d="M-45.4,32.45Q-25.5 34.25 -13.95 22.75" />
<path style="fill:none;stroke-width:4;stroke-linecap:round;stroke-linejoin:round;stroke-miterlimit:3;stroke:#000000;stroke-opacity:1" d="M27.15,-3.6Q22.2 48.85 -22.9 40.15" />
</g>
</svg>
