<?xml version="1.0" encoding="utf-8"?>
<svg version="1.1" id="Layer_1"
xmlns="http://www.w3.org/2000/svg"
xmlns:xlink="http://www.w3.org/1999/xlink"
xmlns:author="http://www.sothink.com"
width="181px" height="196px"
xml:space="preserve">
<g id="303" transform="matrix(1, 0, 0, 1, 90.5, 98)">
<path style="fill:#FFFFFF;fill-opacity:1" d="M24.05,-25.85L88 -16.5L24.2 -6.7L36.65 19L10.8 6.9L1.4 95.5L-8.35 7.05L-34.05 19.5L-22 -6.35L-88 -15.7L-22.15 -25.5L-34.6 -51.2L-8.7 -39.1L0.65 -95.5L10.45 -39.25L36.15 -51.75L24.05 -25.85" />
<path style="fill:none;stroke-width:5;stroke-linecap:round;stroke-linejoin:round;stroke-miterlimit:3;stroke:#FFFF00;stroke-opacity:1" d="M24.05,-25.85L88 -16.5L24.2 -6.7L36.65 19L10.8 6.9L1.4 95.5L-8.35 7.05L-34.05 19.5L-22 -6.35L-88 -15.7L-22.15 -25.5L-34.6 -51.2L-8.7 -39.1L0.65 -95.5L10.45 -39.25L36.15 -51.75L24.05 -25.85z" />
</g>
</svg>
