<?xml version="1.0" encoding="utf-8"?>
<svg version="1.1" id="Layer_1"
xmlns="http://www.w3.org/2000/svg"
xmlns:xlink="http://www.w3.org/1999/xlink"
xmlns:author="http://www.sothink.com"
width="366px" height="265px"
xml:space="preserve">
<g id="299" transform="matrix(1, 0, 0, 1, 182.5, 132.25)">
<path style="fill:#800000;fill-opacity:1" d="M175.3,-62.5L176 -60.9L176.25 -59.45L176.15 -59.35L176.5 -58.95L176.75 -58.75L176.85 -58.5L176.6 -58L178.7 -52.05L182.55 -27.9L182.2 -27.2L180.5 -6.9L178.8 2.9L175.9 13.7L168.5 32.65L163.9 42.1L158.95 50.15L150.35 60.2L141.15 69.8L131 78.9L120.45 87.4L97.95 102.8L74.7 116.5L71.2 117.85L54.85 122.45L40.55 125.85L38.85 126.6L35.7 127.45L3.55 132.15L-3.25 132.3L-10.4 131.8L-24.45 129.5L-51.3 122.35L-84.95 108.85L-86.55 108.4L-100.55 99.75L-101.4 99.05L-104.1 97.8L-112.8 90.8L-135.65 69.9L-136.15 68.95L-158.55 40.65L-159.75 39.35L-167.65 24.65L-169.3 21L-172.45 15.8L-174.05 12.15L-174.4 10.3L-175.25 9.1L-175.85 7.9L-177.3 2.8L-178.5 0.6L-179 -3.65L-182.05 -14.2L-182.5 -20.15L-182.5 -34.45L-181.65 -41.6L-180.8 -45.25L-180.1 -44.9L-179.6 -47.1L-178.05 -51.35L-175 -57.4L-170.65 -67.85L-165.8 -74.5L-159.65 -81.55L-152.25 -88.35L-144.5 -94.75L-136.5 -100.1L-128.9 -104.35L-122 -106.8L-119.7 -108L-105.65 -113.95L-81.7 -122.1L-66.8 -125.7L-50.6 -128.75L-33.15 -130.2L-31.2 -130.7L-28.2 -131.05L22.3 -132.25L44.55 -131.65L55.2 -130.7L65 -129.1L73.75 -126.8L74.35 -126.95L100.35 -119.4L112.6 -115.05L122.85 -110.45L132.2 -105.1L140.8 -98.9L149.5 -91.25L158.6 -82.05L169.1 -70.6L169.25 -70L170.2 -69.05L175.3 -62.5" />
<path style="fill:#DFBFBF;fill-opacity:1" d="M22.3,-129.7L5 -91.85L4 -91.35L1.45 -89.3L0.5 -88.85L-0.35 -88.2L-1.3 -87.85L-2.15 -87.35L15.65 -127.65L16.85 -129.6L17.35 -130.1L18.05 -130.45L18.8 -130.55L19.5 -130.45L20.25 -130.45L20.95 -130.35L22.3 -129.7" />
<path style="fill:#DFBFBF;fill-opacity:1" d="M9.45,-128.65L9.1 -129.35L7.4 -128.75L6.05 -127.55L4.85 -125.95L1 -116.85L-3.15 -108.6L-8.95 -94.3L-48.15 -7.65L-49.95 -7.25L-52.9 -5.55L-55.4 -3.4L-57.6 -0.85L-58.55 0.6L-24.2 -77.4L-21.9 -78.25L-20.3 -80.1L-19.85 -81.2L-19.25 -82.25L-18.75 -83.5L-18.15 -84.45L-18 -88L-16.7 -92.95L-8.7 -113L-1.3 -128.5L-2.75 -129.35L-0.95 -129.7L12.25 -129.7L9.45 -128.65" />
<path style="fill:#DFBFBF;fill-opacity:1" d="M36.55,-129.25L24.1 -100.95L23.4 -100.6L22.65 -100.1L20.95 -99.5L19.85 -99.4L18.15 -98.65L17.45 -98.15L31.5 -129.6L36.55 -129.25" />
<path style="fill:#DFBFBF;fill-opacity:1" d="M-19.85,-126.8L-22.25 -125.25L-22.5 -126.95L-23.35 -127.2L-24.05 -126.95L-24.7 -126.55L-25.3 -125.95L-26.35 -125.5L-27 -125.95L-27.45 -126.8L-28.8 -125.7L-32.9 -118.45L-37.75 -108.1L-42.45 -96.7L-44.15 -96.7L-45 -96.85L-45.75 -96.85L-46.6 -97.1L-48.9 -97.45L-45.85 -103.75L-37.75 -123.8L-38.6 -124.15L-38.95 -124.5L-39.95 -126.35L-40.3 -126.7L-40.75 -126.95L-41.4 -126.8L-39.8 -127.2L-13.05 -129.1L-11.35 -129L-26.6 -96.35L-27.8 -96.7L-28.9 -96.7L-31.1 -96.95L-30.85 -98.65L-18.85 -127.3L-19.6 -127.4L-19.85 -126.8" />
<path style="fill:#DFBFBF;fill-opacity:1" d="M62.25,-122.8L60.65 -119.15L58.85 -115.65L56.8 -112.15L52.3 -111.75L52.2 -112.75L52.9 -114.2L53.5 -114.9L54.25 -116.25L54.35 -117L54.35 -117.7L55.6 -120.6L56.2 -121.45L56.55 -122.55L57.15 -123.4L57.65 -124.4L58.35 -125.1L57.4 -126.2L56.65 -125.95L55.95 -125.95L55.35 -126.2L54.75 -126.35L53.3 -126.95L52.55 -127.05L51.8 -126.8L51 -127.2L49.3 -126.95L48.8 -127.2L45.65 -119.9L39.7 -108.25L35.95 -106.8L45.15 -128.25L47.45 -128.25L58.5 -126.8L63.45 -126.45L62.25 -122.8" />
<path style="fill:#DFBFBF;fill-opacity:1" d="M-47.05,-122.2L-48.15 -120.75L-48.75 -118.45L-49.75 -115.9L-56.5 -103L-57.35 -100.5L-58.7 -101.35L-59.4 -101.7L-59.9 -102.05L-61.1 -103.15L-61.85 -104.25L-57 -116L-53.35 -122.7L-53.5 -123.15L-53.5 -123.65L-53.75 -124.25L-53.85 -124.65L-54.4 -125.45L-50.95 -126.2L-45 -126.7L-43.45 -126.45L-44.55 -126.2L-45.85 -125L-46.2 -124L-46.7 -123.15L-47.05 -122.2" />
<path style="fill:#800000;fill-opacity:1" d="M68.4,-124.85L67.7 -124.85L67.3 -125.25L66.95 -125.1L66.7 -125.85L67.45 -125.7L68.75 -125.25L69.6 -125.1L68.4 -124.85" />
<path style="fill:#800000;fill-opacity:1" d="M-56.15,-125.25L-56.65 -124.85L-57.35 -124.75L-57 -125.25L-56.15 -125.25" />
<path style="fill:#800000;fill-opacity:1" d="M-58.95,-124.5L-59.15 -124.85L-58.2 -124.85L-58.95 -124.5" />
<path style="fill:#DFBFBF;fill-opacity:1" d="M-69.7,-123.15L-60.65 -124.75L-61.6 -123.05L-63.4 -123.3L-65 -121.7L-66.45 -119.3L-71.5 -109.2L-73.8 -106.4L-76.6 -104.5L-76.95 -103.65L-77.55 -102.9L-78.3 -102.2L-78.55 -101.2L-78.9 -101.2L-81.95 -97.2L-82.3 -96.45L-81.55 -98.55L-70.8 -122.7L-69.7 -123.15" />
<path style="fill:#DFBFBF;fill-opacity:1" d="M76.9,-123.55L70.7 -108.75L68.3 -109.35L66.25 -110.2L66.85 -112L70.95 -121.1L72.15 -124.75L76.9 -123.55" />
<path style="fill:#DFBFBF;fill-opacity:1" d="M100.7,-113L98.55 -108.5L98.05 -106.9L96.75 -103.85L91.5 -104.95L91.75 -106.4L92.75 -109.2L96 -115.5L94.55 -117.2L93.45 -117.35L92.5 -117.2L91.5 -117.45L91.15 -118.05L90.45 -117.6L89.7 -117.6Q89.3 -117.8 88.85 -118.05L88.25 -118.55L87.15 -117L81.95 -104.6L81.25 -104.85L79.8 -104.6L79.2 -104.25L78.45 -104.1L77.85 -104.1L77.25 -104.25L76.9 -104.7L83.3 -119.05L81 -120.75L79.65 -120.6L79.55 -121.45L78.55 -122.3L78.95 -122.8L91.15 -120.15L113.05 -111.75L115 -110.7L115.15 -110.8L117.3 -109.8L117.8 -109.3L124.95 -105.55L125.25 -105.4L125.05 -105.45L124.2 -105.45L123.5 -105.35L114.5 -85.05L114.5 -86.15L114.3 -86.9L113.05 -88.85L112.95 -89.45L112.95 -90.3L113.45 -91.25L119 -104.95L120.2 -106.8L117.8 -109.3L115 -110.7L113.3 -110.05L112 -108.25L110.75 -105.8L108.85 -100.5L107.85 -98.65L107 -99.15L104.6 -100.1L104.85 -101.55L105.7 -104.35L106.4 -105.7L108.6 -111.05L108 -111.9L107.4 -112.5L106.55 -112.85L105.95 -112.15L105.55 -112L105.3 -112.25L105.1 -112.75L105.55 -112.85L104.1 -113.45L102.9 -115.15L101.55 -114.2L100.7 -113M126,-104.5L125.7 -105.2L127.1 -104.6L126 -104.5" />
<path style="fill:#DFBFBF;fill-opacity:1" d="M-78.4,-120L-79.4 -120L-80.35 -119.75L-81.2 -119.3L-95.1 -92.2L-95.6 -90.75L-95.95 -90.05L-96.2 -89.2L-96.7 -88.45L-97.05 -87.75L-97.3 -87L-97.4 -86.15L-98.9 -83.35L-101.9 -85.05L-89.3 -113.95L-89.8 -114.55L-92.35 -115.5L-93.3 -114.9L-93.8 -113.95L-94.5 -113.2L-95.6 -113.2L-95.95 -112.75L-96.45 -112.35L-97.65 -112.15L-98.4 -112.15L-98.9 -112L-99.35 -111.75L-99.5 -111.05L-100.2 -113.2L-85.1 -119.15L-78.8 -121L-75.5 -121.45L-76.1 -120.75L-76.7 -120.25L-78.4 -120" />
<path style="fill:#DFBFBF;fill-opacity:1" d="M-113.95,-107.15L-112.2 -107.9L-102.15 -112.6L-102.5 -111.9L-102.5 -111.15L-102.15 -110.55L-101.4 -110.05L-102.25 -108.5L-111.2 -87.75L-111.95 -87.35L-112.65 -87.25L-113.4 -87.35L-114.15 -87.35L-115.6 -87.85L-116.3 -88L-116.9 -87.85L-108.8 -107.25L-110 -107.75L-111.1 -107.9L-112.2 -107.75L-113.95 -107.15M-114.45,-106.95L-116.3 -105.55L-117.05 -104.7L-117.9 -104.5L-118.6 -103.15L-118.75 -102.3L-119.35 -100.85L-119.8 -100.35L-120.4 -99.85L-121.75 -98.15L-124.3 -91.5L-125.4 -89.55L-126.85 -88.1L-128.75 -87.35L-131.3 -87.5L-131.05 -88.95L-130.1 -91.6L-129.4 -92.7L-128.15 -95.25L-127.2 -97.8L-128.55 -98.05L-129.75 -97.55L-131.05 -97.2L-132.3 -97.1L-132.65 -96.35L-133 -95.85L-133.6 -95.75L-134.2 -95.5L-134.95 -95.5L-135.65 -95L-136.3 -94.4L-136.65 -93.2L-140.65 -83.1L-157.6 -46L-159.05 -44.4L-170.9 -18.2L-174.05 -12.5L-176.35 -18.55L-159.65 -56.8L-143.9 -90.9L-140.15 -94.55L-129.85 -100.6L-114.45 -106.95" />
<path style="fill:#FFDFBF;fill-opacity:1" d="M107.4,-91.75L107.75 -90.65L109.1 -88.6L111.5 -79.25L112.85 -69.4L112.45 -68.9L112.85 -63.1L112.6 -55.55L111.6 -47.2L109.9 -38.45L107.25 -30.2L104 -22.95L99.75 -17.45L94.65 -14.05L95.65 -13.1L96.75 -13.1L97.1 -12L98.2 -13L99.5 -13.45L100.25 -13.85L100.95 -13.95L101.7 -14.3L102.4 -14.45L100.25 -2.9L99.4 8.85L99.25 9.45L99.05 12.65L98.55 14.55L97.7 15.8L96.6 15.9L95.5 15.4L92.15 12.85L91.05 12.5L89.85 12.75L88.75 13.95L86.55 13.6L85.85 12.5L86.1 10.7L87.15 8.6L91.65 1.7L92.25 -5.7L91.5 -12.25L89.45 -18.2L86.45 -23.4L82.7 -28.65L78.55 -33.5L70.7 -43.9L76.25 -46.95L82.55 -52.2L88.85 -59.1L94.9 -66.6L99.75 -74.4L103.25 -81.3L104.7 -86.9L103.65 -90.3L102.8 -89.9L102.3 -89.3L101.95 -88.7L101.7 -87.85L101.35 -87.15L101.2 -86.3L100.85 -85.55L100.7 -84.7L91.3 -67.85L82.2 -56.8L78.7 -53.5L75.05 -50.7L70.45 -46.45L69.6 -45.25L65.6 -51.1L64.05 -55.2L63.95 -57.25L64.15 -59.45L65.25 -61.5L65 -62.5L65.75 -65.55L65.75 -66.6L65.6 -67.45L65.15 -68.2Q64.75 -68.35 64.3 -68.55L62.95 -67L61.75 -64.8L56.9 -53.5L54.35 -49L45.55 -42.7L33.65 -39.55L20.25 -39.45L6.9 -41.75L-4.85 -46.6L-13.2 -53.15L-16.55 -61.4L-13.4 -70.6L-10.4 -74.85L-4.95 -79.7L3.05 -83.6L9.95 -87.85L9.95 -86.75L9.2 -83.35L11.5 -83.95L11.75 -84.8L12.1 -85.55L12.35 -86.4L12.75 -87.15L12.85 -88L13.1 -88.85L13.7 -90.3L18.05 -93.45L19.65 -94.15L21.1 -95.15Q22.65 -95.85 24.2 -96.6L26.05 -96.95L26.15 -96.25L26.15 -95.25L25.45 -92.45L25.7 -91.6L26.15 -90.9L27.35 -90.3L28.95 -94.4L29.05 -95.5L29.65 -98.65L31.1 -99.4L40.2 -103.25L41.8 -103.65L41.8 -101.45L41.55 -100.35L41.55 -99L41.4 -97.95L42 -95.85L43 -94.9L44.2 -97.45L45.3 -100.25L45.9 -103.15L46.15 -105.95L55.8 -107.9L58.6 -108L61 -107.75L63.8 -107.05L66.7 -105.7L72.15 -102.4L69.15 -100L68.15 -98.8L67.9 -98.05L68.65 -97.7L70 -97.55L73.25 -98.4L78.1 -100.6L83.3 -101.8L90.9 -101.7L98.05 -99.15L104.7 -95.15L108 -92.6L107.4 -91.75" />
<path style="fill:#800000;fill-opacity:1" d="M43.7,-104.7L43.95 -104.7L43.95 -103.85L43.7 -103.85L43.7 -104.7" />
<path style="fill:#FFDFBF;fill-opacity:1" d="M-50.6,-92.95L-41 -92L-27.45 -91.75L-26 -91.25L-25.65 -91L-25.05 -90.4L-24.05 -88.85L-23.6 -87.25L-23.6 -86.5L-23.7 -85.8L-30.75 -84.2L-45.35 -82.15L-53.35 -82.15L-60.4 -83.1L-65.45 -85.65L-67.65 -89.9L-68.75 -90.15L-70.3 -91L-70.65 -90.9L-71.05 -90.55L-71.05 -88.6L-70.2 -86.4L-68.6 -84.2L-67.65 -83.25L-65.7 -81.9L-66.05 -81.2L-66.55 -79.35L-66.7 -78.4L-68 -74.85L-67.9 -61.65L-69.6 -46.35L-71.75 -39.3L-75.05 -33.1L-79.75 -28.5L-86.05 -25.85L-89.55 -25.85L-92.95 -26.7L-96.35 -28.4L-109.15 -37.35Q-111.65 -38.6 -114.15 -39.9L-116.9 -41.6L-126.25 -45.6L-132.3 -49.25L-137.35 -54L-139.2 -56.9L-140.15 -59.8L-141 -65.05L-140.75 -69.4L-139.65 -73.05L-137.6 -75.95L-134.85 -78.4L-131.3 -80.35L-127.3 -81.9L-122.7 -83L-120.4 -82.25L-128.4 -75L-133.35 -69.75L-135.2 -66.85L-136.5 -63.6L-137.1 -59.8L-134.6 -59.1L-132.9 -61.65L-125.85 -69.15L-116.9 -76.7L-112.8 -79.1L-109.55 -80.1L-107.35 -78.85L-105.4 -78.65L-112.3 -72.8L-117.9 -66.6L-119.7 -63.45L-120.2 -61.05L-118.75 -59.1L-117.65 -58.95L-116.8 -59.6L-116.2 -60.55L-115.45 -61.4L-114.15 -63.45L-111 -67.45L-107.35 -71.1L-103.25 -73.8L-100.8 -74.4L-98.75 -71.95L-100.1 -71.1L-103.25 -68.05L-106.4 -64.05L-107.45 -62.15L-107.95 -60.3L-107.7 -58.6L-107.45 -58.1L-107.1 -57.9L-106.4 -58.1L-105.55 -58.85L-104.55 -59.1L-104.2 -60.2L-101.65 -63.2L-99.5 -65.3L-100.55 -63.45L-102.15 -59.35L-105.3 -48.65L-105.3 -48.3L-105.05 -46.95L-104.1 -45.4L-103 -44.65L-101.8 -45L-100.7 -46L-100.35 -46.6L-99.85 -47.2L-99.6 -47.95L-99.5 -48.4L-99.25 -53.05L-98.4 -56.8L-97.2 -59.95L-87.5 -75.1L-80.5 -92L-78.4 -96.1L-75.75 -99.65L-72.6 -102.55L-68.75 -104.5L-66.8 -103.4L-62.3 -97.7L-59.9 -95.85L-56.05 -94.15L-50.6 -92.95" />
<path style="fill:#DFBFBF;fill-opacity:1" d="M134.75,-100.1L118.65 -64.2L117.55 -72.45L117.8 -73.9L118.3 -75.35L119.5 -76.55L119.35 -77.3L119.85 -78.5L120.2 -79L120.8 -80.2L120.95 -81.3L128.7 -99.25L130.25 -101.55L129.55 -102.4L127.85 -103.5L127.7 -104.5L129.55 -103.65L132.8 -101.1L134.75 -100.1" />
<path style="fill:#DFBFBF;fill-opacity:1" d="M146.85,-89.8L143.55 -84.6L118.05 -29.25L103.65 4.4L103.85 -3.75L106.8 -15.05L111.6 -28.5L140.05 -93.2L138.85 -93.7L139.35 -96L140.3 -95.6L144.05 -92.6L146.85 -89.8" />
<path style="fill:#800000;fill-opacity:1" d="M44.55,-87.85L45.05 -87.35L44.55 -86.5L44.45 -84.8L44.7 -83.85L45.05 -80.2L43.85 -73.05L42.75 -69.3L39.6 -62L37.65 -58.75L33.2 -52.9L31.5 -54L31.85 -55.35L37.2 -64.8L41.05 -74L42.25 -78.75L42.6 -83.25L41.8 -86.3L41.4 -87.25L41.3 -88.85L41.4 -89.2L41.9 -90.05L42.4 -90.3L42.85 -90.15L43.35 -89.7L43.7 -89.05L44.2 -88.45L44.55 -87.85" />
<path style="fill:#DFBFBF;fill-opacity:1" d="M152.55,-84.45L153.85 -83.85L154.35 -83.5L154.85 -83L155.55 -81.65L133.75 -33.25L101.8 39.45L94.9 52.2L91.4 59.95L87.75 71.35L81.6 73.05L83.4 67.6L84 66.65L84.75 65.8L85.85 65.2L86.1 63.25L87.4 59.6L91.65 51.1L122.15 -16.6L151.3 -84.45L151.9 -84.6L152.55 -84.45" />
<path style="fill:#800000;fill-opacity:1" d="M19,-61.05L21.2 -63.85L21.95 -64.45L22.15 -65.65L22.9 -67.35L23.5 -69.4L24.35 -71.35L25.7 -75.5L26.3 -77.9L26.15 -78.65L26.15 -79.35L26.05 -79.95L26.05 -82.65L26.3 -83.25L28 -83.6L28.8 -81.65L29.2 -79.6L28.7 -75.5L27.6 -71.45L27.25 -69.4L27.35 -67.35L25.8 -65.55L22.75 -60.05L20.25 -56.9L16 -54L15.65 -54.7L16 -55.95L16.7 -57.5L19 -61.05" />
<path style="fill:#800000;fill-opacity:1" d="M10.65,-78.5L11.05 -76.8L11.05 -75.95L10.8 -75.1L10.8 -73.8L10.2 -71L9.7 -69.55L7.15 -64.2L7.9 -62.85L7.05 -62.35L1.35 -57.25L-0.6 -56.05L-1.8 -55.7L-2.3 -56.9L-1.3 -59.8L1 -61.4L3.15 -64.05L6.65 -71.45L9.8 -81.05L10.2 -81.9L9.95 -81.05L10.05 -80.2L10.65 -78.5" />
<path style="fill:#DFBFBF;fill-opacity:1" d="M-33.25,-79.95L-56.25 -33L-86.05 38.7L-94.05 53.9L-97.05 61.55L-98.4 64.1L-101.4 62.85L-101.9 62.5L-102.4 61.9L-102.5 61.15L-102.4 60.3L-101.9 59.25L-98.9 51.45L-74.55 -1.7L-46 -67L-40.05 -78.65L-39.3 -79.5L-37.5 -80.35L-34.95 -80.35L-33.25 -79.95" />
<path style="fill:#DFBFBF;fill-opacity:1" d="M-62.95,-66.25L-60.25 -73.8L-57.35 -78.85L-51.05 -78.5L-51.65 -76.55L-63.65 -49.4L-64 -49.4L-63.3 -54L-62.95 -66.25" />
<path style="fill:#DFBFBF;fill-opacity:1" d="M165.7,-71L164.75 -70L164.15 -68.8L163.65 -68.3L163.3 -67.85L162.8 -67.6L162.2 -67.2L109.3 50.75L108.6 54.4L107.4 57.9L106.55 59.6L104.5 65.4L103.65 65.65L102.9 66.05L102.2 66.25L101.45 66.65L99.15 67.35L98.4 67.75L104.85 49.75L124.55 2.9L158.2 -70.75L158.7 -71.45L159.05 -72.45L159.55 -73.3L159.9 -74.15L160.65 -74.75L161.25 -75.1L162.2 -75.1L165.7 -71" />
<path style="fill:#DFBFBF;fill-opacity:1" d="M-173.8,-54.25L-172.45 -57.9L-169.2 -64.55L-162.65 -73.8L-176.35 -43.55L-175.35 -46.7L-173.8 -54.25" />
<path style="fill:#800000;fill-opacity:1" d="M82.35,-38.45L90.7 -45.5L94.45 -49.15L101.1 -56.8L103.85 -61.15L106.3 -66L108.25 -71.1L108.35 -72.1L109.3 -73.3L110.3 -73.4L109.45 -68.8L108 -64.3L105.2 -57.75L104.5 -55.45L104.1 -55.45L95.05 -42.95L89 -38.1L85.6 -36.9L82.2 -36.65L82.35 -38.45" />
<path style="fill:#DFBFBF;fill-opacity:1" d="M-142.8,-55.1L-142.2 -52.3L-142.2 -51.2L-154.55 -23.65L-166.9 1.1L-166.9 2.3L-169.8 -3.05L-144.5 -58.6L-144.15 -57.9L-143.8 -56.9L-142.8 -55.1" />
<path style="fill:#DFBFBF;fill-opacity:1" d="M-14.4,-48.65L-31.45 -10.3L-32.2 -10.55L-32.9 -10.55L-33.65 -10.45L-34.25 -10.3L-35.55 -10.3L-36.55 -10.65L-34.35 -16.15L-17.4 -52.8L-14.4 -48.65" />
<path style="fill:#DFBFBF;fill-opacity:1" d="M-132.4,-43.7L-132.05 -43.05L-131.9 -42.1L-132.3 -40.05L-132.9 -39.05L-133.25 -38L-133.75 -37L-134 -36.05L-158.05 15.8L-158.55 15.05L-159.15 14.45L-160.75 12.5L-161.2 11.05L-160.95 10.3L-160.75 9L-159.4 5.6L-158.3 3.9L-157.45 2.05L-155.5 -0.95L-154.55 -1.8L-153.85 -4.5L-152 -9.35L-135.65 -45.6L-132.4 -43.7" />
<path style="fill:#DFBFBF;fill-opacity:1" d="M49.15,-41L50 -41.35L51.6 -42.35L52.3 -42.95L54 -43.9L54.95 -44.15L38.15 -6.2L37.4 -6.55L36.7 -6.55L35.95 -6.65L35.35 -6.8L34.25 -7.4L33.9 -7.9L33.9 -8.6L48.45 -40.55L49.15 -41" />
<path style="fill:#DFBFBF;fill-opacity:1" d="M67.45,-38.35L50.5 -0.1L49.15 -0.85L47.85 -1.35L46.75 -2.05L46 -3.05L47.85 -8.35L64.15 -44.15L67.45 -38.35" />
<path style="fill:#DFBFBF;fill-opacity:1" d="M-3.85,-42.35L-2.75 -41.6L-17.05 -8.75L-18 -8.95L-19 -8.85L-19.85 -9.1L-20.45 -9.7L-22.15 -9.2L-21.05 -13.45L-17.8 -21.95L-7.25 -42.95L-6.15 -42.95L-3.85 -42.35" />
<path style="fill:#800000;fill-opacity:1" d="M108.35,-40.55L105.2 -34.35L100.25 -28.5L97.1 -26.55L94.05 -25.35L90.8 -25.35L87.75 -26.7L87.75 -27.55L88.15 -28.05L88.75 -28.25L90.2 -28.25L91.05 -28.15L92.6 -28.15L96.85 -30.7L100.6 -33.95L107.25 -41.5L108.35 -40.55" />
<path style="fill:#DFBFBF;fill-opacity:1" d="M7.15,-38.45L8.15 -38.35L9.1 -37.85L1.85 -21.1L-4.1 -8.95L-5.8 -4.7L-9.55 -5.55L-7.85 -9.95L5.45 -38.85L7.15 -38.45" />
<path style="fill:#DFBFBF;fill-opacity:1" d="M-118.75,-36.3L-147.3 28.65L-150.8 24.65L-147.05 17L-122.7 -38.35L-118.75 -36.3" />
<path style="fill:#DFBFBF;fill-opacity:1" d="M178.7,-36.4L179.75 -30.2L180.15 -26.1L179.75 -21.95L179.05 -21.7L178.3 -20.5L178.2 -19.75L177.7 -18.55L176.75 -17.6L171.55 -2.8L165.1 12.15L156.9 25.85L151.9 31.95L146.35 37.25L147.7 32.9L155.7 13.35L178.7 -38.35L178.7 -36.4" />
<path style="fill:#DFBFBF;fill-opacity:1" d="M22.65,-35.45L9.1 -3.5L8.25 -3.4L7.65 -3.25L6.55 -3.25L5.85 -3.5L4.6 -3.5L4 -3.4L5.45 -7.65L18.3 -36.05L22.65 -35.45" />
<path style="fill:#DFBFBF;fill-opacity:1" d="M35.35,-35.55L35.95 -35.9L36.55 -36.05L37.3 -36.15L38.25 -36.05L24.95 -6.9L19.5 -6.3L25.55 -20.85L32.45 -34.95L33.2 -35.05L33.9 -35.05L35.35 -35.55" />
<path style="fill:#DFBFBF;fill-opacity:1" d="M57.4,4L70 -22.8L73.5 -31.65L76.65 -28.4L65.4 -1.7L61.15 6.8L59.1 5.6L58 4.85L57.4 4" />
<path style="fill:#DFBFBF;fill-opacity:1" d="M-108.2,-28.25L-107 -27.2L-130.35 24.9L-130.6 24.9L-136.75 38.25L-139.05 36.65L-141.25 34.7L-141.1 32.9L-140.75 32.9L-111.45 -30.55L-110.6 -29.85L-108.2 -28.25" />
<path style="fill:#DFBFBF;fill-opacity:1" d="M-116.9,54.5L-84.1 -18.55L-81.95 -19.15L-79.85 -20.15L-75.9 -22.7L-80.5 -10.8L-80.7 -8.95L-83 -5.35L-96.8 24.05L-109.75 53.75L-111.1 58.15L-111.95 57.55Q-114.1 56.3 -116.3 55L-116.9 54.5" />
<path style="fill:#DFBFBF;fill-opacity:1" d="M-104.95,-9.1L-98.75 -22.3L-98.15 -22.2L-97.4 -21.85L-95.95 -21L-94.05 -19.4L-93.45 -18.8L-124.15 49.65L-124.9 48.8L-125.75 48.2L-127.55 47.2L-128.4 46.5L-128.9 45.9L-129.15 44.9L-128.65 43.8L-127.95 43.45L-125.5 36.9L-105.65 -7.5L-105.05 -7.75L-104.8 -8.35L-104.95 -9.1" />
<path style="fill:#DFBFBF;fill-opacity:1" d="M84.75,-18.55L68.05 20.15L67.45 19.3L66.85 17.75L66.45 16.05L66.35 15.2L65.85 13.7L69.35 4.6L81.6 -22.1L82.55 -21.6L83.4 -20.6L84 -19.55L84.75 -18.55" />
<path style="fill:#FFDFBF;fill-opacity:1" d="M36.1,-3.05L39.6 -1.45L40.95 -0.5L41.4 0.5L40.8 1.85L39.6 3.05L33.3 11.05L31.85 14.2L31.35 16.15L28 17.95L22.3 22.6L17.7 28.4L15.85 31.7L13.35 38.7L12.35 38.35L11.4 38.35L10.45 38.6L7.4 40.05L6.3 40.4L5.45 40.8L-1.9 40.65L-23.35 36.15L-33.65 35.2L-41.4 34.1L-43.55 33.6L-47.65 31.8L-51.2 29.4L-53.95 26.1L-56.05 22.6L-57.5 18.45L-58.1 14.2L-57.95 9.95L-57.6 8.6L-57.7 10.2L-57.6 12L-57.35 13L-56.4 13.35L-56.15 12.65L-56.15 12.15L-56.25 11.3L-56.05 10.55L-51.65 0.6L-50.6 -0.85L-49.35 -2.05L-49.6 -2.8L-45 -4.5L-43.3 -4.85L-41.75 -5.45L-38.5 -6.2L-36.65 -6.2L-39.7 -0.35L-41.4 3.65L-42.45 7.9L-42.45 10.2L-41.75 10.2L-38.85 3.3L-36.55 -0.95L-33.65 -4.85L-31.7 -6.55L-30.25 -6.4L-22.75 -6.3L-21.3 -5.95L-19.85 -5.2L-18.5 -5.45L-18.4 -4.85L-18.5 -4.1L-19.45 -2.65L-20.7 -1.2L-21.05 -0.5L-21.15 0.25L-22.5 2.05L-24.7 6.3L-27 12.85L-27.95 17.5L-27.45 18.1L-26.6 17.25L-26.15 16.05L-26 15.4L-25.75 14.95L-25.4 14.55L-24.7 14.45L-23.85 12.4L-18 2.55L-14.65 -1.7L-12.95 -3.15L-3.15 -1.2L-9.2 8.85L-10.65 12.15L-13.05 23.2L-11.7 24.65L-10.9 20.9L-9.65 17.35L-4.1 7.8L0.75 2.05L3.4 -0.5L13.2 0.35L14.65 0.6L7.15 11.9L7.15 12.85L6.8 13.6L6.3 14.1L5.1 16.25L4 19.65L3.3 23.3L3.15 26.95L3.3 28.65L5.7 30.45L6.8 26.35L10.65 15.9L16.1 5.25L19.4 1L23.15 -2.05L27.25 -3.15L28.45 -3.9L30.15 -4.1L32.1 -4.1L36.1 -3.05" />
<path style="fill:#800000;fill-opacity:1" d="M88,-0.1L86.7 1.95L84.15 3.75L84.75 1.2L86.2 -2.3L87.9 -5.55L88.25 -2.65L88 -0.1" />
<path style="fill:#800000;fill-opacity:1" d="M-59.4,2.7L-58.95 1.35L-58.95 2.7L-59.4 2.7" />
<path style="fill:#FFDFBF;fill-opacity:1" d="M39.6,6.95L42.5 4.25L44.1 3.15L45.55 3.15L51.95 5.6L57.75 9.1L59.1 10.3L57.15 10.95L56.65 11.05L56.4 11.4L56.2 11.8L56.4 12.65L54 15.9L51.1 20.5L50.6 21.85L52.3 22.2L53.9 21.85L55.35 20.65L56.8 19.05L60.05 11.65L61.25 13.1L63.2 16.65L63.95 18.6L65.6 26.6L66.1 33.4L65.85 39.8L64.4 45.9L62.1 51.35L58.6 56.1L54 60.2L48.3 63.5L41.65 66.05L43.35 64.45L49.9 60.1L53.4 56.55L54.5 54.4L55.1 52.05L38.85 62.4L38.15 62.5L35.5 63.6L29.8 66.9L29.3 67.5L29.9 67.95L30.75 68.35L31.75 68.6L32.7 68.6L28.1 69.8L19.15 71.35L16.85 71.95L14.65 73.05L11.75 74.05L0.75 75.6L-10.65 74.9L-13.4 74.4L-14.75 76.45L-15.95 76.1L-16.55 75.5L-16.8 74.75L-16.8 74.05L-17.05 72.2L-17.4 71.5L-17.9 71L-17.05 68.8L-16.2 68.8L-15.35 69.05L-14.65 69.45L-13.3 70.05L-12.45 70.25L-10.25 70.15L2.05 66.5L8 63.85L10.3 61.9L12.25 59.7L13.35 55.95L17.2 36.9L19.65 30.1L23.5 24.4L28.8 20.3L36.2 18.6L37.05 18.6L38.4 18.8L43 20.05L45.75 21.25L46.75 21.85L47.45 20.3L47.1 18.95L45.55 17.75L43.45 16.75L38.4 15.3L36.1 14.95L34.75 15.05L37.3 9.85L39.6 6.95" />
<path style="fill:#800000;fill-opacity:1" d="M-61.95,8.5L-61.6 7.15L-61.6 8.15L-61.95 8.5" />
<path style="fill:#DFBFBF;fill-opacity:1" d="M-62.3,23.65L-65.6 32.3L-83 70.5L-84.6 69.8L-85.3 69.3L-88.2 67.85L-88.95 67.85L-78.9 46.35L-62.95 10.3L-63.9 18.8L-63.65 20.5L-63.15 22.1L-62.3 23.65" />
<path style="fill:#DFBFBF;fill-opacity:1" d="M80.85,14.55L81.1 15.3L81.95 16.65L82.7 17.35L56.65 76.7L56.55 77.3L56.8 77.9L57.15 78.3L57.75 78.75L55.7 78.75L54.6 78.9L53.65 79.15L50.6 79.25L49.9 79.4L52.05 73.05L56.4 63.1L62.45 56.95L66.95 49.75L69.85 41.75L70.95 33.15L80.75 11.3L80.5 12L80.65 12.85L80.65 13.6L80.85 14.55" />
<path style="fill:#DFBFBF;fill-opacity:1" d="M91.4,18.7L92.15 18.45L92.85 18.45L95.4 19.45L96.1 19.65L97.1 19.8L81.35 56.2L79.2 59.25L76.4 65.2L73.25 73.45L72.65 75.6L70.95 76L67.05 76.6L66.35 76.85L86.45 28.65L90.9 19.45L91.4 18.7" />
<path style="fill:#800000;fill-opacity:1" d="M40.45,26.2L39.7 26.35L41.05 26.6L38.5 30.25L34.9 33.5L30.65 35.45L28.45 35.7L26.3 35.3L26.75 34.45L39.25 25.6L40.7 24.9L41.05 25.15L41.05 25.75L40.45 26.2" />
<path style="fill:#800000;fill-opacity:1" d="M57.85,29.85L58.25 29L59.55 26.85L60.15 26.35L60.8 26.1L61.65 26.35L62.25 26.2L62.85 25.75L62.6 28.55L61.15 32.05L55.45 39.1L48.2 45.05L44.7 46.85L41.8 47.7L50.6 39.55L54.35 35.2L57.85 29.85" />
<path style="fill:#800000;fill-opacity:1" d="M59.95,29L60.3 28.55L60.8 28.05L60.65 29.15L60.05 30.35L59.7 29.6L59.95 29" />
<path style="fill:#DFBFBF;fill-opacity:1" d="M-53.35,33.6L-51.55 35.3L-69.45 75.85L-70.05 75.35L-71.4 74.9L-72 74.9L-73.35 74.65L-73.95 74.3L-74.3 73.9L-55.65 32.55L-55.05 32.55L-53.35 33.6" />
<path style="fill:#800000;fill-opacity:1" d="M28.7,34.45L29.3 33.85L30.15 33.6L31 33.5L31.75 33.25L31 33.6L30.4 34L28.7 34.45" />
<path style="fill:#DFBFBF;fill-opacity:1" d="M-40.15,39.2L-38.95 39.8L-54.55 75.75L-56.15 78.75L-57.35 78.9L-58.55 78.75L-60.65 77.9L-59.4 72.8L-57.6 67.95L-43.55 38.7L-40.15 39.2" />
<path style="fill:#DFBFBF;fill-opacity:1" d="M-25.3,38.95L-43.55 80.95L-48.3 80.25L-29.75 39.45L-28.65 39.2L-27.45 39.35L-26.35 39.35L-25.3 38.95" />
<path style="fill:#DFBFBF;fill-opacity:1" d="M-12.1,43.8L-25.9 74.75L-27.7 79.5L-28.55 80.1L-29.05 82.15L-29.4 82.9L-30.1 82.65L-32.2 82.65L-32.9 82.55L-33.65 82.55L-34.6 82.3L-34.95 81.45L-34.95 80.95L-34.7 80.35L-34.1 80L-33.75 79.5L-33.15 79L-32.55 77.9L-23.1 55.35L-16.45 42.1L-15.6 42.75L-14.5 43.2L-13.4 43.35L-12.1 43.8" />
<path style="fill:#DFBFBF;fill-opacity:1" d="M11.25,44.45L10.2 52.45L9.35 54.85L8.15 57.05L6.3 58.85L4 60.3L6.45 53.15L11.9 42.1L11.25 44.45" />
<path style="fill:#DFBFBF;fill-opacity:1" d="M-2.75,45.3L1.7 46L-6.75 65.4L-7.6 65.4L-9.8 66.15L-10.5 66.15L-11.25 66.25L-11.85 66.05L-12.35 65.55L-7.25 52.55L-4.85 47.45L-3.35 45.3L-2.75 45.3" />
<path style="fill:#800000;fill-opacity:1" d="M34.15,46.5L34.15 47.35L33.8 48.05L32.7 49.15L31.95 49.5L30.5 50.35L30.15 51.1L28.7 51.35L27.25 51.95L24.6 53.55L21.95 54.5L20.45 54.6L19 54.5L19.85 53.3L23.6 50.6L28.35 48.3L32.6 46.75L34.15 46.5" />
<path style="fill:#800000;fill-opacity:1" d="M46.5,60.2L47 59.7L47.6 59.7L46.5 60.2" />
<path style="fill:#800000;fill-opacity:1" d="M42.15,63.5L41.05 63.95L40.1 64.55L38.75 64.8L35.1 66.05L39.6 63.85L40.7 63.1L43 62.15L44.3 61.8L42.15 63.5" />
<path style="fill:#800000;fill-opacity:1" d="M39.25,66.9L39.7 66.4L40.7 66.4L39.25 66.9" />
<path style="fill:#DFBFBF;fill-opacity:1" d="M46.4,69.8L42.25 80.25L40.95 80.45L40.2 80.45L39.6 80.6L38.85 80.6L37.55 80.85L36.95 81.2L36.95 80L37.05 79.15L37.3 78.4L37.65 77.8L37.9 77.05L39.25 75L39.1 73.9L39.95 72.35L40.55 71.6L41.15 71.35L41.9 71.25L43.35 70.75L44.1 70.4L45.55 69.9L46.4 69.8" />
<path style="fill:#DFBFBF;fill-opacity:1" d="M31.5,74.3L30.05 77.2L28.6 81.2L28.6 82.3L27.75 82.55L26.9 82.65L25.45 82.65L24.7 82.55L24 82.55L23.25 82.65L22.55 82.9L24.2 79.15L24.6 77.9L26.3 74.65L26.75 74.3L27.5 74.15L30.75 74.15L31.5 74.3" />
<path style="fill:#DFBFBF;fill-opacity:1" d="M16.85,75.75L15.4 79.5L14.9 80.35L14.4 82.3L14.55 83.4L13.55 83.6L12.75 84L11.75 84.25L10.9 84.35L9.1 84.35L8.15 84.1L7.3 84L7.3 83L7.75 81.8L8.6 80.35L11.15 77.45L14.65 75.75L16.85 75.75" />
<path style="fill:#DFBFBF;fill-opacity:1" d="M-0.25,80.7L-0.6 81.3L-0.85 82.05L-1.2 82.65L-1.45 83.25L-1.55 84L-1.3 84.7L-2.75 84.7L-3.5 84.6L-4.1 84.6L-4.85 84.35L-6.75 84L-5.3 81.45L-4.85 80L-4.45 79.5L-3.75 79.25L-2.3 79.15L0 79.4L-0.25 80.7" />
<path style="fill:#DFBFBF;fill-opacity:1" d="M-13.9,82.65L-14.15 84L-19.6 83.85L-19.6 82.9L-18.15 80.95L-17.55 81.3L-16.7 81.45L-15 81.55L-14.4 81.55L-14 81.95L-13.9 82.65" />
<path style="fill:#FFBF80;fill-opacity:1" d="M-22.25,98.55L-4.2 100.75L13.7 102.3L29.8 102.45L42.75 100.85L68.75 95.15L70 95.05L70.7 94.45L72.65 93.7L73.75 93.6L74.7 93.2L75.8 92.95L77.6 91.9L81 91.15L78.1 92.85L67.55 97.6L48.7 104L40.3 105.95L39.25 106.3L38.25 106.45L37.3 106.45L36.55 107.3L18.05 109.45L2.45 109.1L-5.2 108.15L-32.55 103.4L-53.85 97.2L-71.4 88.5L-66.3 89.1L-62.7 90.55L-39.1 95.65L-22.25 98.55" />
<path style="fill:#DFBFBF;fill-opacity:1" d="M173.45,-60.45L174.3 -59.7L175.55 -57.15L175.3 -57.25L175.3 -56.8L175.15 -56.4L175.05 -56.3L163.9 -27.8L162.35 -24.85L161.25 -23.3L159.8 -19.4L155.05 -9.95L155.2 -9.2L154.95 -8.75L127.7 52.3L126.75 52.8L117.8 58.15L116.2 58.85L115.25 59.6L121.55 44.65L161.75 -43.9L169.95 -59.95L172.5 -63.2L172.75 -62.25L173.45 -60.45" />
</g>
</svg>
