<?xml version="1.0" encoding="utf-8"?>
<svg version="1.1" id="Layer_1"
xmlns="http://www.w3.org/2000/svg"
xmlns:xlink="http://www.w3.org/1999/xlink"
xmlns:author="http://www.sothink.com"
width="243px" height="205px"
xml:space="preserve">
<g id="296" transform="matrix(1, 0, 0, 1, 121.65, 102.1)">
<path style="fill:#FF7F00;fill-opacity:1" d="M6.4,84.25Q-12.25 104.4 -8.95 60.95Q-62.25 39.55 -16.25 -20.8L35.75 -29.85Q9.65 51.95 6.4 84.25" />
<path style="fill:none;stroke-width:4;stroke-linecap:round;stroke-linejoin:round;stroke-miterlimit:3;stroke:#000000;stroke-opacity:1" d="M-16.25,-20.8Q-62.25 39.55 -8.95 60.95Q-12.25 104.4 6.4 84.25Q9.65 51.95 35.75 -29.85" />
<path style="fill:#FF7F7F;fill-opacity:1" d="M21.75,51.85Q10.35 49.65 3.5 40.75Q18.1 44.05 21.5 47.5Q24.9 50.95 21.75 51.85" />
<path style="fill:none;stroke-width:2;stroke-linecap:round;stroke-linejoin:round;stroke-miterlimit:3;stroke:#000000;stroke-opacity:1" d="M21.75,51.85Q10.35 49.65 3.5 40.75Q18.1 44.05 21.5 47.5Q24.9 50.95 21.75 51.85z" />
<path style="fill:#FF7F7F;fill-opacity:1" d="M16.5,25.2Q3.4 36.15 3.8 40.2Q8.5 44.15 13.9 46.8Q23.65 51.6 19.9 56.8Q17.4 60.3 12.4 52.8L-2.3 42.85Q-1.2 32.8 11.15 21.8L16.5 25.2" />
<path style="fill:none;stroke-width:2;stroke-linecap:round;stroke-linejoin:round;stroke-miterlimit:3;stroke:#000000;stroke-opacity:1" d="M16.5,25.2Q3.4 36.15 3.8 40.2Q8.5 44.15 13.9 46.8Q23.65 51.6 19.9 56.8Q17.4 60.3 12.4 52.8L-2.3 42.85Q-1.2 32.8 11.15 21.8L16.5 25.2z" />
<path style="fill:#FF7F7F;fill-opacity:1" d="M2.55,52.95Q-4.5 41.2 -7 36.45Q9.65 46.7 10.9 53.45Q9.65 64.7 2.55 52.95" />
<path style="fill:none;stroke-width:2;stroke-linecap:round;stroke-linejoin:round;stroke-miterlimit:3;stroke:#000000;stroke-opacity:1" d="M2.55,52.95Q-4.5 41.2 -7 36.45Q9.65 46.7 10.9 53.45Q9.65 64.7 2.55 52.95z" />
<path style="fill:#FF7F7F;fill-opacity:1" d="M-28,31.45Q-22.75 25.55 -18.4 30.7L-10.65 33.95Q-3.75 23 1.45 20.55L6.55 23.75Q4.15 24.9 -0.55 30.2Q-4.6 34.75 -5.55 36.45Q-6.05 37.3 -4.2 39.05L0.3 43.4Q3.75 47.25 4 51.05Q7.4 61.3 -2.1 59.8Q-2.1 49 -9.7 42.05Q-17.25 35.1 -22.15 36.65Q-33.2 37.3 -28 31.45" />
<path style="fill:none;stroke-width:2;stroke-linecap:round;stroke-linejoin:round;stroke-miterlimit:3;stroke:#000000;stroke-opacity:1" d="M-22.15,36.65Q-17.25 35.1 -9.7 42.05Q-2.1 49 -2.1 59.8Q7.4 61.3 4 51.05Q3.75 47.25 0.3 43.4L-4.2 39.05Q-6.05 37.3 -5.55 36.45Q-4.6 34.75 -0.55 30.2Q4.15 24.9 6.55 23.75L1.45 20.55Q-3.75 23 -10.65 33.95L-18.4 30.7Q-22.75 25.55 -28 31.45Q-33.2 37.3 -22.15 36.65M1.45,20.55L0.95 20.2" />
<path style="fill:#FF7F7F;fill-opacity:1" d="M86.35,-66.3Q99.3 -74.35 108.35 -71.1Q117.45 -67.9 108.05 -67.65Q99.9 -66.8 96.6 -63.6L86.35 -66.3" />
<path style="fill:none;stroke-width:2;stroke-linecap:round;stroke-linejoin:round;stroke-miterlimit:3;stroke:#000000;stroke-opacity:1" d="M86.35,-66.3Q99.3 -74.35 108.35 -71.1Q117.45 -67.9 108.05 -67.65Q99.9 -66.8 96.6 -63.6" />
<path style="fill:#FF9F40;fill-opacity:1" d="M23.05,-69.15Q27.9 -79.9 40.25 -87.65Q34.9 -86.8 27.45 -82.55Q38.15 -99.55 61.3 -100Q84.05 -101.75 87.75 -78.2Q88.4 -67.6 87.65 -59.4Q86.9 -51.2 74.1 -39.15Q65.05 -32.05 58 -15.6Q52.8 -2.1 41.15 11.55Q12.5 38.55 -32.35 16.75Q-40.8 14.75 -44.55 9.25Q-47.7 4.6 -47.15 -1.8Q-46.7 -7.3 -43.95 -11.9Q-41.3 -16.35 -38.7 -16.6Q-32 -17.25 -21.35 -20.95Q-3.7 -36.25 27.3 -35.25Q44.65 -35.6 43.15 -44.05Q35.1 -59.8 39.4 -66.6Q33.5 -64.2 31.75 -54.65Q27 -67.5 40.35 -80.05Q35.7 -80.45 23.05 -69.15" />
<path style="fill:none;stroke-width:4;stroke-linecap:round;stroke-linejoin:round;stroke-miterlimit:3;stroke:#000000;stroke-opacity:1" d="M40.35,-80.05Q27 -67.5 31.75 -54.65Q33.5 -64.2 39.4 -66.6Q35.1 -59.8 43.15 -44.05Q44.65 -35.6 27.3 -35.25Q-3.7 -36.25 -21.35 -20.95Q-32 -17.25 -38.7 -16.6Q-41.3 -16.35 -43.95 -11.9Q-46.7 -7.3 -47.15 -1.8Q-47.7 4.6 -44.55 9.25Q-40.8 14.75 -32.35 16.75Q12.5 38.55 41.15 11.55Q52.8 -2.1 58 -15.6Q65.05 -32.05 74.1 -39.15Q86.9 -51.2 87.65 -59.4Q88.4 -67.6 87.75 -78.2Q84.05 -101.75 61.3 -100Q38.15 -99.55 27.45 -82.55Q34.9 -86.8 40.25 -87.65Q27.9 -79.9 23.05 -69.15Q35.7 -80.45 40.35 -80.05z" />
<path style="fill:#FFBFBF;fill-opacity:1" d="M86.35,-65Q109.3 -65.25 117.3 -60.25Q100 -59.95 83.2 -52.85Q80.2 -60.05 86.35 -65" />
<path style="fill:none;stroke-width:3;stroke-linecap:round;stroke-linejoin:round;stroke-miterlimit:3;stroke:#000000;stroke-opacity:1" d="M83.2,-52.85Q100 -59.95 117.3 -60.25Q109.3 -65.25 86.35 -65Q80.2 -60.05 83.2 -52.85z" />
<path style="fill:#FF9F40;fill-opacity:1" d="M-31.3,-14.35L-46.3 -12.4L-67.2 -28.75L-78.1 -39.35Q-74.3 -49.8 -65.55 -45.35Q-60.6 -42.85 -52 -33.55Q-43.1 -23.85 -31.3 -14.35" />
<path style="fill:none;stroke-width:4;stroke-linecap:round;stroke-linejoin:round;stroke-miterlimit:3;stroke:#000000;stroke-opacity:1" d="M-46.3,-12.4L-67.2 -28.75L-78.1 -39.35Q-74.3 -49.8 -65.55 -45.35Q-60.6 -42.85 -52 -33.55Q-43.1 -23.85 -31.3 -14.35" />
<path style="fill:#FF9F40;fill-opacity:1" d="M-35.75,-10.1L-43.6 -1.5Q-50.25 -10.25 -106.65 -34.5Q-108.65 -45.5 -97.35 -48.2Q-89.9 -49.95 -81 -44.05Q-77.6 -41.8 -73.15 -37.85L-65.3 -30.65Q-51.4 -18 -35.75 -10.1" />
<path style="fill:none;stroke-width:4;stroke-linecap:round;stroke-linejoin:round;stroke-miterlimit:3;stroke:#000000;stroke-opacity:1" d="M-43.6,-1.5Q-50.25 -10.25 -106.65 -34.5Q-108.65 -45.5 -97.35 -48.2Q-89.9 -49.95 -81 -44.05Q-77.6 -41.8 -73.15 -37.85L-65.3 -30.65Q-51.4 -18 -35.75 -10.1" />
<path style="fill:#FF9F40;fill-opacity:1" d="M-40.25,-4.85L-44.55 8.45Q-67.95 -6.2 -108.55 -18.85Q-126.4 -21.8 -115.5 -34.05Q-105.35 -45.5 -40.25 -4.85" />
<path style="fill:none;stroke-width:4;stroke-linecap:round;stroke-linejoin:round;stroke-miterlimit:3;stroke:#000000;stroke-opacity:1" d="M-44.55,8.45Q-67.95 -6.2 -108.55 -18.85Q-126.4 -21.8 -115.5 -34.05Q-105.35 -45.5 -40.25 -4.85" />
<path style="fill:none;stroke-width:3;stroke-linecap:round;stroke-linejoin:round;stroke-miterlimit:3;stroke:#000000;stroke-opacity:1" d="M54.35,-86.9Q61 -87.8 69.25 -83.25Q60 -80.55 56.9 -74.45" />
<path style="fill:none;stroke-width:2;stroke-linecap:round;stroke-linejoin:round;stroke-miterlimit:3;stroke:#000000;stroke-opacity:1" d="M68.3,-82.95Q61.55 -83.4 53.55 -80.05" />
<path style="fill:#FFBFBF;fill-opacity:1" d="M83.3,-76.25Q94.3 -91.25 119.65 -85.95Q100.65 -78.25 87.3 -65.6Q81.65 -66.6 83.3 -76.25" />
<path style="fill:none;stroke-width:3;stroke-linecap:round;stroke-linejoin:round;stroke-miterlimit:3;stroke:#000000;stroke-opacity:1" d="M83.3,-76.25Q94.3 -91.25 119.65 -85.95Q100.65 -78.25 87.3 -65.6Q81.65 -66.6 83.3 -76.25z" />
<path style="fill:#FF9F40;fill-opacity:1" d="M-1.85,94.05Q-24 113.75 -20.7 69.05Q-78.85 44.55 -25.85 -13.95L24 -24.25Q1.4 60.8 -1.85 94.05" />
<path style="fill:none;stroke-width:4;stroke-linecap:round;stroke-linejoin:round;stroke-miterlimit:3;stroke:#000000;stroke-opacity:1" d="M-25.85,-13.95Q-78.85 44.55 -20.7 69.05Q-24 113.75 -1.85 94.05Q1.4 60.8 24 -24.25" />
<path style="fill:#FF9F40;fill-opacity:1" d="M-42,9.75L-46 47.05Q-58.7 29.75 -42 9.75" />
<path style="fill:none;stroke-width:4;stroke-linecap:round;stroke-linejoin:round;stroke-miterlimit:3;stroke:#000000;stroke-opacity:1" d="M-46,47.05Q-58.7 29.75 -42 9.75" />
<path style="fill:#FF9F40;fill-opacity:1" d="M-35.35,19.05L-35.35 66.4Q-58.7 64.4 -35.35 19.05" />
<path style="fill:none;stroke-width:4;stroke-linecap:round;stroke-linejoin:round;stroke-miterlimit:3;stroke:#000000;stroke-opacity:1" d="M-35.35,66.4Q-58.7 64.4 -35.35 19.05" />
<path style="fill:#FF9F40;fill-opacity:1" d="M-20,72.4Q-21.35 88.4 -31.35 76.4Q-41.35 64.4 -24 24.4L-20 72.4" />
<path style="fill:none;stroke-width:4;stroke-linecap:round;stroke-linejoin:round;stroke-miterlimit:3;stroke:#000000;stroke-opacity:1" d="M-24,24.4Q-41.35 64.4 -31.35 76.4Q-21.35 88.4 -20 72.4" />
<path style="fill:#FF9F40;fill-opacity:1" d="M-12.7,30.4L-22 81.05Q-20 65.05 -12.7 30.4" />
<path style="fill:none;stroke-width:4;stroke-linecap:round;stroke-linejoin:round;stroke-miterlimit:3;stroke:#000000;stroke-opacity:1" d="M-22,81.05Q-20 65.05 -12.7 30.4" />
</g>
</svg>
