<?xml version="1.0" encoding="utf-8"?>
<svg version="1.1" id="Layer_1"
xmlns="http://www.w3.org/2000/svg"
xmlns:xlink="http://www.w3.org/1999/xlink"
xmlns:author="http://www.sothink.com"
width="367px" height="349px"
xml:space="preserve">
<g id="302" transform="matrix(1, 0, 0, 1, 183.35, 174.4)">
<path style="fill:#000000;fill-opacity:1" d="M172.6,-45.7L175.15 -43.15L179.3 -36.85L181.1 -33L183.4 -14.65L180.25 -4.25L175.15 -0.5L169.45 2.9L161.75 4L159.9 3.75L155.3 1.7L152.15 2.45L147.2 -0.95L138.1 5.6L130.15 12.5L115.95 28.05L68.4 92.3L66 96.2L62.25 107.6L65.25 112.2L67.05 117.9L65 129.3L62 139.75L51.1 153.95L43.6 161.45L40.45 161.95L39.7 163.25L29.3 168.25L11.25 174.45L9.7 174.2L6.05 172.85L-8.35 173.1L-24.2 167.4L-51.3 158.9L-91.6 142.9L-107.6 134.3L-114.35 131.5L-130.7 123.6L-151.9 100.55L-164.25 85.05L-171.5 73.65L-174.55 67.7L-179.5 55.1L-181.3 48.05L-183.35 33.5L-176.95 10.9L-167.4 -4L-148.5 -16.75L-143.8 -15.4L-138.7 -21.1L-130.7 -33.6L-109.4 -78.6L-105.8 -91.35L-103.85 -104.2L-102.5 -107.6L-100.7 -119.85L-101.9 -130.4L-103.25 -133.55L-106.6 -143.85L-107.85 -150.9L-107.6 -154.3L-106.6 -157.7L-100.45 -170.3L-90.3 -174.4L-80.5 -173.45L-75.75 -172.35L-67.65 -166.15L-63.9 -159.4L-64.5 -157.05L-62.95 -147L-63.4 -144.7L-66.55 -133.55L-70.2 -126L-75.05 -125.55L-74.55 -116.45L-71.75 -112.8L-66.55 -81L-65.45 -76.75L-69.1 -63.05L-69.6 -58.2L-71.15 -50.1L-71.15 -45.95L-76.6 -20.85L-69.6 -24.5L-54.6 -35.05L-46.95 -42.1L-42.25 -47.05L-33.4 -57.95L-33.75 -69.5L-32.9 -80.65L-30.15 -89.5L-22.6 -98L-19.25 -99.35L-14.05 -100.45L-6.9 -97.05L-3.5 -94.95L-0.35 -92.4L4.75 -85.85L7.15 -82L9.2 -77.6L11.05 -69L10.4 -64.15L8.1 -57.6L5.6 -52.25L-1.7 -48.05L-10.4 -48.25L-11 -45.95L-10.4 -41.35L-13.05 -22.45L-16.45 -11.25L-23.35 6.3L-29.05 24.75L-9.2 2.2L4.25 -10.4L41.75 -35.9L42.25 -41.85L46.5 -52.4L67.3 -65.6L69.35 -66.2L73.35 -65.5L85.45 -48.5L86.2 -38.45L85.7 -35.05L84.4 -31.75L78.2 -20.35L64.55 -11.5L33.8 28.05L40.7 22.1L64.75 6.3L95.05 -10.8L128.55 -28.6L137.4 -31.05L153.15 -47.55L155.55 -51.4L159.45 -50.45L160.4 -53.5L167.05 -49.85L172.6 -45.7" />
<path style="fill:#FF6633;fill-opacity:1" d="M151.45,-30.7L154.45 -34.3L161.95 -41.85L173.1 -33L175.15 -27.9L175.15 -23.75L170.8 -15.65L159.45 -10.4L153.15 -11.75L145.15 -17.2L146.7 -22.2L148.8 -26.55L151.45 -30.7" />
<path style="fill:#FFCC00;fill-opacity:1" d="M-19.95,-42.95L-28.3 -19.05L-35.2 4L-35.8 8.15L-40.9 22.7L-40.4 31.65L-40.9 36.65L-40.15 40.75L-36.05 41.5L-36.05 48.05L-38.6 45.25L-43.55 43.05L-50.2 43.9L-57.25 46.7L-60.15 48.75L-64.75 52.9L-67.9 58.35L-68.6 61.5L-69.1 69.25L-66.8 75.2L-63.4 78.35L-60.4 77.5L-51.3 84.3L-45.6 87.95L-35.8 86.35L-28.3 67.95L-28.8 63.3L-30.15 58.95L-34.25 50.95L-29.05 46.95L-26.25 41.25L-22.4 35.9L-13.3 26.35L7.9 8.6L45.9 -20.15L47.95 -23.15L51.6 -19.05L42.25 -7.9L34.05 3.75L26.5 15.9L12.25 41.85L12.25 43.45L14.9 51.45L16.5 61.5L17.7 62.25L26.5 52.4L47.7 35.05L55.7 29.85L138.35 -15.4L138.75 -11.5L131.2 -7.15L124.45 -2.3L115.5 6.05L110.05 12L91.9 33.75L70 64.05L55.7 98.25L47 105.05L24.2 111.7L16.7 112.2L2.45 111L-1.9 109.65L-14.85 107.6L-32.45 101.9L-37.05 100.95L-41.75 99.35L-54.95 93.65L-67.65 86.15L-80.95 79.35L-84.35 76.3L-99.85 66.1L-102.75 62.6L-114.15 52.4L-119.45 46.45L-124.4 40.05L-133.25 25.85L-140.75 9.45L-141 6.05L-140.75 1.7L-113.5 -32.5L-112.55 -35.4L-110.25 -39.05L-97.55 -72.65L-95 -78.1L-93.9 -87.95L-94.15 -92.9L-92.35 -99.6L-93.2 -102.75L-91.6 -105.05L-89.8 -124.45L-83.25 -113.05L-80.7 -104.05L-78.9 -94.35L-78.65 -89.75L-82.8 -54.2L-84.35 -50.1L-86.15 -36.75L-88 -31.05L-92.1 -13.35L-88 -0.7L-85.45 0.85L-80.5 -1.2L-72 -6.3L-59.8 -12.85Q-55.65 -15.8 -51.55 -18.8L-45.6 -21.1L-32.65 -34.3L-23.6 -47.05L-20.2 -44.85L-19.95 -42.95" />
<path style="fill:#FFFFFF;fill-opacity:1" d="M-148.75,4.25L-125.75 51.2L-123.45 55.1L-115.7 65.15L-110 71.1L-103.85 76.55L-97.55 81.5L-84.1 90.75L-59.3 105.55Q-50.25 110 -41.25 114.4L-31.45 117.8L-21.05 119.75L6.05 127.6L10.8 127L24.45 127.85L32.95 125.45L43.35 120.35L46.5 124.2L45.4 127L39.45 138.65L35.6 142.55L30.4 145.95L20.35 149.1L16.7 149.3L8.75 152.1L-5.05 152.85L-13.55 151L-16.7 151.85L-24.45 148.5L-29.9 148.7L-34 146.9L-36.55 146.9L-38.1 145.2L-96.35 122.15L-114.6 112.55L-123.45 107.1L-131.7 101.15L-139.65 94.4L-147.15 87.2L-154.2 79.1L-160.6 70L-166.3 60.3L-171.5 49.4L-172.45 44.15L-169.45 32.25L-167.65 27.55L-164.95 23.4L-148.75 4.25" />
<path style="fill:#000000;fill-opacity:1" d="M-6.9,73.4L-5.05 71.1L-0.35 67.45Q1.05 66.8 2.45 66.1L6.05 65.15L10.3 64.65L14.4 66.1L19.75 69.75L24.95 74.1L27.25 76.8L28.8 80.2L29.8 83.8L30.4 88.2L26.05 102.15L12.25 108.45L6.65 105.8L-2.65 102.4L-5.05 103.45L-7.6 101.9L-12.2 89.75L-11.75 84.8L-9.9 78.1L-6.9 73.4" />
<path style="fill:#000000;fill-opacity:1" d="M-41.5,124.2L-5.55 134.3L-2.4 135.4L-1.9 138.4L-5.05 141.8L-10.15 144.35L-21.55 141.55L-34.5 136.6L-44.75 126.5L-41.5 124.2" />
<path style="fill:#99FF00;fill-opacity:1" d="M11.05,77.25L22.4 84.05L21.9 88.9L19 92.3L10.8 95.25L1 93.9L-5.05 91L-6.3 87.45L0.6 79.7L11.05 77.25" />
<path style="fill:#FF6633;fill-opacity:1" d="M55.45,-47.55L69.15 -51.9L70.7 -51.9L74.6 -53.75L80 -44.15L74.1 -34.8L65.5 -31.15L50 -35.9L47.95 -39.8L55.45 -47.55" />
<path style="fill:#000000;fill-opacity:1" d="M-52.05,120.1L-57.25 121.3L-59.05 121.05L-61.95 122.65L-73.2 122.4L-78.4 121.05L-85.45 113.8L-89.55 104.7L-87.5 103.45L-67.65 109.4L-62.95 110.4L-56.15 115.6L-50.2 118.5L-52.05 120.1" />
<path style="fill:#99FF00;fill-opacity:1" d="M-63.9,63.8L-60.85 59.45L-51.55 55.55L-47.9 57.15L-40.15 55.8L-36.05 60.3L-36.8 68.8L-39.95 74L-43.8 76.8L-52.05 74.75L-55.2 72.2L-63.4 68.4L-63.9 63.8" />
<path style="fill:#000000;fill-opacity:1" d="M-126,74.95L-106.25 93.05L-108.45 96.2L-110.5 104.7L-124.2 96.7L-131.7 83.8L-131.7 78.6L-130.7 76.8L-126 74.95" />
<path style="fill:#FF6633;fill-opacity:1" d="M-1.2,-66.45L-8.35 -63.8L-16.95 -65.6L-26.75 -74L-26.5 -75.45L-24.45 -81.5L-22 -83.55L-14.05 -86.95L-9.65 -89.5L2.45 -76.3L2.8 -74.45L-1.2 -66.45" />
<path style="fill:#000000;fill-opacity:1" d="M-97.8,6.55L-93.65 15.15L-91.35 22.7L-98.65 35.05L-101.65 37.35L-103 36.65L-104.55 37.35L-105.3 41.5L-109.4 44.9L-111 44.65L-113.05 43.9L-115.1 42.85L-116.9 41.5L-119.8 37.95L-125.15 25.85L-122.1 8.4L-119.45 2.9L-116.45 -0.5L-111.95 -2.3L-108.7 -1.7L-106.15 -0.7L-101.4 2.2L-97.8 6.55" />
<path style="fill:#99FF00;fill-opacity:1" d="M-97.8,17.7L-103.5 24.75L-108.45 29.6L-111.85 30.95L-117.15 28.4L-119.2 21.6L-115.7 13.35L-108.9 9L-107.1 9.95L-105.55 9.95L-102.5 9.45L-97.8 17.7" />
<path style="fill:#000000;fill-opacity:1" d="M-149.25,35.3L-140.5 56.05L-140.15 64.05L-142.45 66.1L-154.9 58.1L-159.65 47.2L-161.2 34.6L-155.4 31.2L-149.25 35.3" />
<path style="fill:#FF6633;fill-opacity:1" d="M-78.65,-162.55L-76.1 -160.95L-72.25 -154.75L-73.2 -150.05L-77.1 -142.9L-89.3 -137.4L-95.5 -137.9L-98.25 -141.3L-101.2 -146.75L-98.65 -155L-80.25 -162.75L-78.65 -162.55" />
</g>
</svg>
