<?xml version="1.0" encoding="utf-8"?>
<svg version="1.1" id="Layer_1"
xmlns="http://www.w3.org/2000/svg"
xmlns:xlink="http://www.w3.org/1999/xlink"
xmlns:author="http://www.sothink.com"
width="246px" height="189px"
xml:space="preserve">
<g id="297" transform="matrix(1, 0, 0, 1, 123.2, 94.55)">
<path style="fill:#FF7F7F;fill-opacity:1" d="M23.3,59.4Q11.9 57.2 5.05 48.3Q19.65 51.6 23.05 55.05Q26.45 58.5 23.3 59.4" />
<path style="fill:none;stroke-width:2;stroke-linecap:round;stroke-linejoin:round;stroke-miterlimit:3;stroke:#000000;stroke-opacity:1" d="M23.3,59.4Q11.9 57.2 5.05 48.3Q19.65 51.6 23.05 55.05Q26.45 58.5 23.3 59.4z" />
<path style="fill:#FF7F7F;fill-opacity:1" d="M18.05,32.75Q4.95 43.7 5.35 47.75Q10.05 51.7 15.45 54.35Q25.2 59.15 21.45 64.35Q18.95 67.85 13.95 60.35L-0.75 50.4Q0.35 40.35 12.7 29.35L18.05 32.75" />
<path style="fill:none;stroke-width:2;stroke-linecap:round;stroke-linejoin:round;stroke-miterlimit:3;stroke:#000000;stroke-opacity:1" d="M18.05,32.75Q4.95 43.7 5.35 47.75Q10.05 51.7 15.45 54.35Q25.2 59.15 21.45 64.35Q18.95 67.85 13.95 60.35L-0.75 50.4Q0.35 40.35 12.7 29.35L18.05 32.75z" />
<path style="fill:#FF7F7F;fill-opacity:1" d="M4.1,60.5Q-2.95 48.75 -5.45 44Q11.2 54.25 12.45 61Q11.2 72.25 4.1 60.5" />
<path style="fill:none;stroke-width:2;stroke-linecap:round;stroke-linejoin:round;stroke-miterlimit:3;stroke:#000000;stroke-opacity:1" d="M4.1,60.5Q-2.95 48.75 -5.45 44Q11.2 54.25 12.45 61Q11.2 72.25 4.1 60.5z" />
<path style="fill:#FF7F7F;fill-opacity:1" d="M-26.45,39Q-21.2 33.1 -16.85 38.25L-9.1 41.5Q-2.2 30.55 3 28.1L8.1 31.3Q5.7 32.45 1 37.75Q-3.05 42.3 -4 44Q-4.5 44.85 -2.65 46.6L1.85 50.95Q5.3 54.8 5.55 58.6Q8.95 68.85 -0.55 67.35Q-0.55 56.55 -8.15 49.6Q-15.7 42.65 -20.6 44.2Q-31.65 44.85 -26.45 39" />
<path style="fill:none;stroke-width:2;stroke-linecap:round;stroke-linejoin:round;stroke-miterlimit:3;stroke:#000000;stroke-opacity:1" d="M-20.6,44.2Q-15.7 42.65 -8.15 49.6Q-0.55 56.55 -0.55 67.35Q8.95 68.85 5.55 58.6Q5.3 54.8 1.85 50.95L-2.65 46.6Q-4.5 44.85 -4 44Q-3.05 42.3 1 37.75Q5.7 32.45 8.1 31.3L3 28.1Q-2.2 30.55 -9.1 41.5L-16.85 38.25Q-21.2 33.1 -26.45 39Q-31.65 44.85 -20.6 44.2M3,28.1L2.5 27.75" />
<path style="fill:#FF9F40;fill-opacity:1" d="M36.85,-17.1L-13.1 -13.95Q-38.3 -29.75 -34.15 -66Q-72 -86.4 -50.5 -91.05Q16.9 -81.6 36.85 -17.1" />
<path style="fill:none;stroke-width:4;stroke-linecap:round;stroke-linejoin:round;stroke-miterlimit:3;stroke:#000000;stroke-opacity:1" d="M-13.1,-13.95Q-38.3 -29.75 -34.15 -66Q-72 -86.4 -50.5 -91.05Q16.9 -81.6 36.85 -17.1" />
<path style="fill:#FF9F40;fill-opacity:1" d="M-32.65,-31.25L4.2 -10.95Q-36.8 -12.55 -32.65 -31.25" />
<path style="fill:none;stroke-width:4;stroke-linecap:round;stroke-linejoin:round;stroke-miterlimit:3;stroke:#000000;stroke-opacity:1" d="M4.2,-10.95Q-36.8 -12.55 -32.65 -31.25" />
<path style="fill:#FF9F40;fill-opacity:1" d="M-45.5,-56.45L-12.15 -24.95Q-52.55 -33.5 -45.5 -56.45" />
<path style="fill:none;stroke-width:4;stroke-linecap:round;stroke-linejoin:round;stroke-miterlimit:3;stroke:#000000;stroke-opacity:1" d="M-12.15,-24.95Q-52.55 -33.5 -45.5 -56.45" />
<path style="fill:#FF9F40;fill-opacity:1" d="M-19.45,-39.1Q-30.55 -42.45 -40.4 -51.3Q-50.7 -60.6 -51.45 -69.05Q-52.45 -80.65 -20 -55.75L-19.45 -39.1" />
<path style="fill:none;stroke-width:4;stroke-linecap:round;stroke-linejoin:round;stroke-miterlimit:3;stroke:#000000;stroke-opacity:1" d="M-20,-55.75Q-52.45 -80.65 -51.45 -69.05Q-50.7 -60.6 -40.4 -51.3Q-30.55 -42.45 -19.45 -39.1" />
<path style="fill:#FF7F7F;fill-opacity:1" d="M87.9,-58.75Q100.85 -66.8 109.9 -63.55Q119 -60.35 109.6 -60.1Q101.45 -59.25 98.15 -56.05L87.9 -58.75" />
<path style="fill:none;stroke-width:2;stroke-linecap:round;stroke-linejoin:round;stroke-miterlimit:3;stroke:#000000;stroke-opacity:1" d="M87.9,-58.75Q100.85 -66.8 109.9 -63.55Q119 -60.35 109.6 -60.1Q101.45 -59.25 98.15 -56.05" />
<path style="fill:#FF9F40;fill-opacity:1" d="M24.6,-61.6Q29.45 -72.35 41.8 -80.1Q36.45 -79.25 29 -75Q39.7 -92 62.85 -92.45Q85.6 -94.2 89.3 -70.65Q89.95 -60.05 89.2 -51.85Q88.45 -43.65 75.65 -31.6Q66.6 -24.5 59.55 -8.05Q54.35 5.45 42.7 19.1Q14.05 46.1 -30.8 24.3Q-39.25 22.3 -43 16.8Q-46.15 12.15 -45.6 5.75Q-45.15 0.25 -42.4 -4.35Q-39.75 -8.8 -37.15 -9.05Q-30.45 -9.7 -19.8 -13.4Q-2.15 -28.7 28.85 -27.7Q46.2 -28.05 44.7 -36.5Q36.65 -52.25 40.95 -59.05Q35.05 -56.65 33.3 -47.1Q28.55 -59.95 41.9 -72.5Q37.25 -72.9 24.6 -61.6" />
<path style="fill:none;stroke-width:4;stroke-linecap:round;stroke-linejoin:round;stroke-miterlimit:3;stroke:#000000;stroke-opacity:1" d="M41.9,-72.5Q28.55 -59.95 33.3 -47.1Q35.05 -56.65 40.95 -59.05Q36.65 -52.25 44.7 -36.5Q46.2 -28.05 28.85 -27.7Q-2.15 -28.7 -19.8 -13.4Q-30.45 -9.7 -37.15 -9.05Q-39.75 -8.8 -42.4 -4.35Q-45.15 0.25 -45.6 5.75Q-46.15 12.15 -43 16.8Q-39.25 22.3 -30.8 24.3Q14.05 46.1 42.7 19.1Q54.35 5.45 59.55 -8.05Q66.6 -24.5 75.65 -31.6Q88.45 -43.65 89.2 -51.85Q89.95 -60.05 89.3 -70.65Q85.6 -94.2 62.85 -92.45Q39.7 -92 29 -75Q36.45 -79.25 41.8 -80.1Q29.45 -72.35 24.6 -61.6Q37.25 -72.9 41.9 -72.5z" />
<path style="fill:#FFBFBF;fill-opacity:1" d="M87.9,-57.45Q110.85 -57.7 118.85 -52.7Q101.55 -52.4 84.75 -45.3Q81.75 -52.5 87.9 -57.45" />
<path style="fill:none;stroke-width:3;stroke-linecap:round;stroke-linejoin:round;stroke-miterlimit:3;stroke:#000000;stroke-opacity:1" d="M84.75,-45.3Q101.55 -52.4 118.85 -52.7Q110.85 -57.7 87.9 -57.45Q81.75 -52.5 84.75 -45.3z" />
<path style="fill:#FF9F40;fill-opacity:1" d="M-32.15,-7.7L-46.85 -4.35L-69.25 -18.6L-81.15 -28.05Q-78.4 -38.85 -69.2 -35.3Q-64.05 -33.3 -54.6 -24.85Q-44.8 -16.05 -32.15 -7.7" />
<path style="fill:none;stroke-width:4;stroke-linecap:round;stroke-linejoin:round;stroke-miterlimit:3;stroke:#000000;stroke-opacity:1" d="M-46.85,-4.35L-69.25 -18.6L-81.15 -28.05Q-78.4 -38.85 -69.2 -35.3Q-64.05 -33.3 -54.6 -24.85Q-44.8 -16.05 -32.15 -7.7" />
<path style="fill:#FF9F40;fill-opacity:1" d="M-36.15,-3.05L-43.15 6.3Q-50.6 -1.8 -109.05 -20.5Q-112.15 -31.25 -101.15 -35Q-93.9 -37.5 -84.5 -32.45Q-80.9 -30.55 -76.05 -27.05L-67.5 -20.65Q-52.45 -9.4 -36.15 -3.05" />
<path style="fill:none;stroke-width:4;stroke-linecap:round;stroke-linejoin:round;stroke-miterlimit:3;stroke:#000000;stroke-opacity:1" d="M-43.15,6.3Q-50.6 -1.8 -109.05 -20.5Q-112.15 -31.25 -101.15 -35Q-93.9 -37.5 -84.5 -32.45Q-80.9 -30.55 -76.05 -27.05L-67.5 -20.65Q-52.45 -9.4 -36.15 -3.05" />
<path style="fill:#FF9F40;fill-opacity:1" d="M-40.15,2.6L-43.15 16.3Q-67.8 3.95 -109.45 -4.7Q-127.5 -5.9 -117.85 -19.2Q-108.8 -31.55 -40.15 2.6" />
<path style="fill:none;stroke-width:4;stroke-linecap:round;stroke-linejoin:round;stroke-miterlimit:3;stroke:#000000;stroke-opacity:1" d="M-43.15,16.3Q-67.8 3.95 -109.45 -4.7Q-127.5 -5.9 -117.85 -19.2Q-108.8 -31.55 -40.15 2.6" />
<path style="fill:none;stroke-width:3;stroke-linecap:round;stroke-linejoin:round;stroke-miterlimit:3;stroke:#000000;stroke-opacity:1" d="M55.9,-79.35Q62.55 -80.25 70.8 -75.7Q61.55 -73 58.45 -66.9" />
<path style="fill:none;stroke-width:2;stroke-linecap:round;stroke-linejoin:round;stroke-miterlimit:3;stroke:#000000;stroke-opacity:1" d="M69.85,-75.4Q63.1 -75.85 55.1 -72.5" />
<path style="fill:#FFBFBF;fill-opacity:1" d="M84.85,-68.7Q95.85 -83.7 121.2 -78.4Q102.2 -70.7 88.85 -58.05Q83.2 -59.05 84.85 -68.7" />
<path style="fill:none;stroke-width:3;stroke-linecap:round;stroke-linejoin:round;stroke-miterlimit:3;stroke:#000000;stroke-opacity:1" d="M84.85,-68.7Q95.85 -83.7 121.2 -78.4Q102.2 -70.7 88.85 -58.05Q83.2 -59.05 84.85 -68.7z" />
<path style="fill:#FF9F40;fill-opacity:1" d="M24.7,-18.4L-24.8 -10.9Q-51.3 -24.4 -50.3 -60.9Q-89.8 -77.9 -68.8 -84.4Q-0.8 -80.9 24.7 -18.4" />
<path style="fill:none;stroke-width:4;stroke-linecap:round;stroke-linejoin:round;stroke-miterlimit:3;stroke:#000000;stroke-opacity:1" d="M-24.8,-10.9Q-51.3 -24.4 -50.3 -60.9Q-89.8 -77.9 -68.8 -84.4Q-0.8 -80.9 24.7 -18.4" />
<path style="fill:#FF9F40;fill-opacity:1" d="M-45.8,-26.4L-7.3 -9.4Q-48.3 -7.4 -45.8 -26.4" />
<path style="fill:none;stroke-width:4;stroke-linecap:round;stroke-linejoin:round;stroke-miterlimit:3;stroke:#000000;stroke-opacity:1" d="M-7.3,-9.4Q-48.3 -7.4 -45.8 -26.4" />
<path style="fill:#FF9F40;fill-opacity:1" d="M-60.8,-50.4L-24.8 -21.9Q-65.8 -26.9 -60.8 -50.4" />
<path style="fill:none;stroke-width:4;stroke-linecap:round;stroke-linejoin:round;stroke-miterlimit:3;stroke:#000000;stroke-opacity:1" d="M-24.8,-21.9Q-65.8 -26.9 -60.8 -50.4" />
<path style="fill:#FF9F40;fill-opacity:1" d="M-33.3,-35.4Q-44.65 -37.75 -55.25 -45.7Q-66.35 -54.05 -67.8 -62.4Q-69.8 -73.9 -35.3 -51.9L-33.3 -35.4" />
<path style="fill:none;stroke-width:4;stroke-linecap:round;stroke-linejoin:round;stroke-miterlimit:3;stroke:#000000;stroke-opacity:1" d="M-35.3,-51.9Q-69.8 -73.9 -67.8 -62.4Q-66.35 -54.05 -55.25 -45.7Q-44.65 -37.75 -33.3 -35.4" />
<path style="fill:#FF9F40;fill-opacity:1" d="M-76.8,65.1Q-70.3 43.1 -47.3 42.1Q-53.8 71.6 -76.8 65.1" />
<path style="fill:none;stroke-width:3;stroke-linecap:round;stroke-linejoin:round;stroke-miterlimit:3;stroke:#000000;stroke-opacity:1" d="M-47.3,42.1Q-70.3 43.1 -76.8 65.1Q-53.8 71.6 -47.3 42.1z" />
<path style="fill:#FF9F40;fill-opacity:1" d="M-25.8,76.1L-20.3 72.1Q-17.8 87.6 -25.3 92.6Q-45.8 79.1 -29.3 62.1Q-22.8 68.1 -25.8 76.1" />
<path style="fill:none;stroke-width:3;stroke-linecap:round;stroke-linejoin:round;stroke-miterlimit:3;stroke:#000000;stroke-opacity:1" d="M-29.3,62.1Q-45.8 79.1 -25.3 92.6Q-17.8 87.6 -20.3 72.1L-25.8 76.1Q-22.8 68.1 -29.3 62.1z" />
</g>
</svg>
