<?xml version="1.0" encoding="utf-8"?>
<svg version="1.1" id="Layer_1"
xmlns="http://www.w3.org/2000/svg"
xmlns:xlink="http://www.w3.org/1999/xlink"
xmlns:author="http://www.sothink.com"
width="234px" height="500px"
xml:space="preserve">
<g id="301" transform="matrix(1, 0, 0, 1, 111.9, 272.25)">
<path style="fill:#FFFFFF;fill-opacity:1" d="M39.6,-262.65L39.45 -261.55Q23.05 -220.25 20.4 -141.1Q18.55 -86.4 28.85 -41.05Q32.2 -26.35 37.25 -11.35L43.5 7Q49.7 27 52.2 47.25L52.2 47.3Q54.8 68.25 53.75 91.45Q51.6 137.15 33.7 203.3L33.6 203.6Q25.55 220.75 9.85 219.35Q-5.75 218 -12.8 203.65L-13 202.9L-12.95 202.1Q4.85 136.55 6.95 91.25Q8 68.45 5.45 47.85Q3 28 -3.05 8.4L-9.3 -9.9L-9.35 -9.9Q-14.4 -25.1 -17.8 -40.05Q-28.3 -85.9 -26.4 -141.25Q-23.7 -221.4 -7.05 -263.2L-6.65 -263.8L-6.05 -264L38.45 -264L39.2 -263.65L39.6 -262.65" />
<path style="fill:#FFFFFF;fill-opacity:0.160784" d="M45.3,-264.15Q45.7 -260.65 44.5 -257.45Q28.75 -217.4 26.2 -140.7Q24.35 -87.6 34.35 -43.65L34.35 -43.6Q37.6 -29.4 42.45 -14.9L42.4 -15L48.7 3.35L48.8 3.7Q55.3 24.65 57.9 45.85Q60.6 67.75 59.55 92Q57.35 138.75 39.1 206.25L38.4 208.2Q28.65 229.25 9.55 227.55L9.5 227.55Q-9.2 225.95 -17.5 208.4Q-18.5 206.35 -18.7 203.9Q-18.95 201.4 -18.3 199.1Q-0.95 135 1.25 90.7L1.25 90.65Q2.2 68.95 -0.25 49.3L-0.25 49.25Q-2.55 30.55 -8.25 12.05L-14.5 -6.3L-14.5 -6.35Q-19.8 -22.05 -23.3 -37.5L-23.25 -37.5Q-34.1 -84.7 -32.15 -141.65Q-29.4 -224.25 -12.05 -267.25Q-11.15 -269.55 -9.55 -270.9Q-7.95 -272.3 -6.05 -272.25L38.45 -272.25Q40.95 -272.25 42.85 -269.95Q44.85 -267.65 45.3 -264.15M42.15,-268.7Q40.55 -270.65 38.45 -270.6L-6.05 -270.6Q-7.65 -270.65 -8.95 -269.5Q-10.3 -268.35 -11.1 -266.45Q-28.3 -223.65 -31 -141.6Q-32.95 -84.95 -22.2 -38Q-18.7 -22.65 -13.5 -7.05L-7.2 11.3Q-1.45 30.05 0.9 49Q3.35 68.85 2.4 90.8Q0.2 135.3 -17.25 199.7Q-17.8 201.65 -17.6 203.7Q-17.45 205.7 -16.55 207.45Q-8.5 224.35 9.6 225.9Q28.05 227.55 37.4 207.3L38 205.65Q56.25 138.4 58.4 91.9L58.4 91.85Q59.45 67.85 56.75 46.15L56.75 46.1Q54.2 25.1 47.75 4.35L47.65 4.05L41.4 -14.25Q36.5 -28.8 33.3 -43.1Q23.2 -87.35 25 -140.8Q27.6 -217.95 43.45 -258.3Q44.5 -260.9 44.15 -263.85Q43.75 -266.75 42.15 -268.7" />
<path style="fill:#FFFFFF;fill-opacity:0.329412" d="M44.15,-263.85Q44.5 -260.9 43.45 -258.3Q27.6 -217.95 25 -140.8Q23.2 -87.35 33.3 -43.1Q36.5 -28.8 41.4 -14.25L47.65 4.05L47.75 4.35Q54.2 25.1 56.75 46.1L56.75 46.15Q59.45 67.85 58.4 91.85L58.4 91.9Q56.25 138.4 38 205.65L37.4 207.3Q28.05 227.55 9.6 225.9Q-8.5 224.35 -16.55 207.45Q-17.45 205.7 -17.6 203.7Q-17.8 201.65 -17.25 199.7Q0.2 135.3 2.4 90.8Q3.35 68.85 0.9 49Q-1.45 30.05 -7.2 11.3L-13.5 -7.05Q-18.7 -22.65 -22.2 -38Q-32.95 -84.95 -31 -141.6Q-28.3 -223.65 -11.1 -266.45Q-10.3 -268.35 -8.95 -269.5Q-7.65 -270.65 -6.05 -270.6L38.45 -270.6Q40.55 -270.65 42.15 -268.7Q43.75 -266.75 44.15 -263.85M38.45,-268.95L-6.05 -268.95Q-7.3 -269 -8.4 -268.05Q-9.5 -267.15 -10.1 -265.6Q-27.1 -223.1 -29.85 -141.5Q-31.8 -85.15 -21.1 -38.5L-21.1 -38.55Q-17.65 -23.3 -12.45 -7.8L-6.15 10.6Q-0.3 29.55 2.05 48.7Q4.5 68.75 3.55 90.9Q1.35 135.65 -16.15 200.3Q-16.6 201.85 -16.45 203.5Q-16.3 205.1 -15.65 206.5Q-7.8 222.8 9.7 224.3L9.65 224.25Q27.4 225.85 36.45 206.35L36.9 205.05Q55.05 138.1 57.2 91.8L57.2 91.75Q58.3 67.95 55.6 46.4Q53.05 25.6 46.7 5L46.6 4.8L40.35 -13.55Q35.4 -28.2 32.15 -42.6Q22.05 -87.15 23.85 -140.85Q26.45 -218.55 42.45 -259.1Q43.3 -261.2 43 -263.55Q42.7 -265.9 41.4 -267.4Q40.1 -268.95 38.45 -268.95" />
<path style="fill:#FFFFFF;fill-opacity:0.498039" d="M41.4,-267.4Q42.7 -265.9 43 -263.55Q43.3 -261.2 42.45 -259.1Q26.45 -218.55 23.85 -140.85Q22.05 -87.15 32.15 -42.6Q35.4 -28.2 40.35 -13.55L46.6 4.8L46.7 5Q53.05 25.6 55.6 46.4Q58.3 67.95 57.2 91.75L57.2 91.8Q55.05 138.1 36.9 205.05L36.45 206.35Q27.4 225.85 9.65 224.25L9.7 224.3Q-7.8 222.8 -15.65 206.5Q-16.3 205.1 -16.45 203.5Q-16.6 201.85 -16.15 200.3Q1.35 135.65 3.55 90.9Q4.5 68.75 2.05 48.7Q-0.3 29.55 -6.15 10.6L-12.45 -7.8Q-17.65 -23.3 -21.1 -38.55L-21.1 -38.5Q-31.8 -85.15 -29.85 -141.5Q-27.1 -223.1 -10.1 -265.6Q-9.5 -267.15 -8.4 -268.05Q-7.3 -269 -6.05 -268.95L38.45 -268.95Q40.1 -268.95 41.4 -267.4M40.65,-266.15Q39.7 -267.35 38.45 -267.3L-6.05 -267.3Q-7 -267.35 -7.8 -266.65Q-8.6 -266 -9.05 -264.8Q-25.95 -222.55 -28.7 -141.45L-28.7 -141.4Q-30.6 -85.4 -20 -39.05Q-16.6 -23.9 -11.4 -8.5L-11.4 -8.45L-5.15 9.85Q0.75 29 3.2 48.4L3.2 48.45Q5.65 68.65 4.65 91Q2.5 135.95 -15.1 200.9Q-15.45 202.05 -15.3 203.3Q-15.2 204.5 -14.7 205.55Q-7.15 221.2 9.75 222.65Q26.8 224.15 35.5 205.45L35.85 204.45Q53.95 137.8 56.05 91.65Q57.15 68.05 54.5 46.7Q51.95 26.05 45.65 5.7L45.55 5.5L39.3 -12.8L39.35 -12.8Q34.35 -27.55 31.1 -42.1Q20.85 -86.85 22.7 -140.95Q25.3 -219.1 41.45 -259.9Q42.05 -261.5 41.85 -263.25Q41.65 -265 40.65 -266.15" />
<path style="fill:#FFFFFF;fill-opacity:0.662745" d="M41.85,-263.25Q42.05 -261.5 41.45 -259.9Q25.3 -219.1 22.7 -140.95Q20.85 -86.85 31.1 -42.1Q34.35 -27.55 39.35 -12.8L39.3 -12.8L45.55 5.5L45.65 5.7Q51.95 26.05 54.5 46.7Q57.15 68.05 56.05 91.65Q53.95 137.8 35.85 204.45L35.5 205.45Q26.8 224.15 9.75 222.65Q-7.15 221.2 -14.7 205.55Q-15.2 204.5 -15.3 203.3Q-15.45 202.05 -15.1 200.9Q2.5 135.95 4.65 91Q5.65 68.65 3.2 48.45L3.2 48.4Q0.75 29 -5.15 9.85L-11.4 -8.45L-11.4 -8.5Q-16.6 -23.9 -20 -39.05Q-30.6 -85.4 -28.7 -141.4L-28.7 -141.45Q-25.95 -222.55 -9.05 -264.8Q-8.6 -266 -7.8 -266.65Q-7 -267.35 -6.05 -267.3L38.45 -267.3Q39.7 -267.35 40.65 -266.15Q41.65 -265 41.85 -263.25M39.95,-264.9Q39.25 -265.65 38.45 -265.65L-6.05 -265.65Q-6.7 -265.7 -7.2 -265.2L-8.1 -264Q-24.85 -221.95 -27.55 -141.35Q-29.45 -85.65 -18.9 -39.55Q-15.5 -24.5 -10.35 -9.2L-4.1 9.15Q1.9 28.5 4.3 48.15Q6.85 68.55 5.8 91.1Q3.7 136.25 -14 201.5Q-14.25 202.25 -14.15 203.1L-13.75 204.6Q-6.45 219.6 9.8 221Q26.2 222.45 34.55 204.55L34.8 203.9Q52.8 137.5 54.9 91.55Q55.95 68.15 53.35 47Q50.8 26.55 44.6 6.35L44.55 6.25L38.3 -12.1L38.3 -12.05Q33.3 -26.95 30 -41.6Q19.7 -86.65 21.55 -141.05Q24.2 -219.7 40.45 -260.75Q40.9 -261.8 40.75 -262.95Q40.55 -264.15 39.95 -264.9" />
<path style="fill:#FFFFFF;fill-opacity:0.831373" d="M40.75,-262.95Q40.9 -261.8 40.45 -260.75Q24.2 -219.7 21.55 -141.05Q19.7 -86.65 30 -41.6Q33.3 -26.95 38.3 -12.05L38.3 -12.1L44.55 6.25L44.6 6.35Q50.8 26.55 53.35 47Q55.95 68.15 54.9 91.55Q52.8 137.5 34.8 203.9L34.55 204.55Q26.2 222.45 9.8 221Q-6.45 219.6 -13.75 204.6L-14.15 203.1Q-14.25 202.25 -14 201.5Q3.7 136.25 5.8 91.1Q6.85 68.55 4.3 48.15Q1.9 28.5 -4.1 9.15L-10.35 -9.2Q-15.5 -24.5 -18.9 -39.55Q-29.45 -85.65 -27.55 -141.35Q-24.85 -221.95 -8.1 -264L-7.2 -265.2Q-6.7 -265.7 -6.05 -265.65L38.45 -265.65Q39.25 -265.65 39.95 -264.9Q40.55 -264.15 40.75 -262.95M39.2,-263.65L38.45 -264L-6.05 -264L-6.65 -263.8L-7.05 -263.2Q-23.7 -221.4 -26.4 -141.25Q-28.3 -85.9 -17.8 -40.05Q-14.4 -25.1 -9.35 -9.9L-9.3 -9.9L-3.05 8.4Q3 28 5.45 47.85Q8 68.45 6.95 91.25Q4.85 136.55 -12.95 202.1L-13 202.9L-12.8 203.65Q-5.75 218 9.85 219.35Q25.55 220.75 33.6 203.6L33.7 203.3Q51.6 137.15 53.75 91.45Q54.8 68.25 52.2 47.3L52.2 47.25Q49.7 27 43.5 7L37.25 -11.35Q32.2 -26.35 28.85 -41.05Q18.55 -86.4 20.4 -141.1Q23.05 -220.25 39.45 -261.55L39.6 -262.65L39.2 -263.65" />
<path style="fill:#FFFFFF;fill-opacity:1" d="M-94.85,-246.5L-68.2 -246.5Q-67.9 -246.5 -67.6 -246.1L-67.3 -245.15L-67.4 -244.05Q-77.15 -211.1 -78.75 -147.8Q-79.85 -104.1 -73.7 -67.85Q-71.7 -56.1 -68.7 -44.05L-64.95 -29.45L-64.95 -29.4Q-57.55 2.55 -58.8 38.3Q-60.05 74.95 -70.8 127.95L-70.95 128.4Q-75.9 139.65 -85.4 138.55Q-94.85 137.45 -99 128.45L-99.15 127.65L-99.15 126.8Q-88.55 74.4 -87.25 38.1Q-86.05 3.15 -93.25 -28.05L-97 -42.65L-97 -42.7Q-100.05 -54.9 -102.05 -66.9L-102.05 -66.85Q-108.35 -103.6 -107.25 -147.95Q-105.6 -212.15 -95.6 -245.6L-95.3 -246.25L-94.85 -246.5" />
<path style="fill:#FFFFFF;fill-opacity:0.160784" d="M-94.85,-254.75L-68.2 -254.75Q-66.25 -254.75 -64.75 -252.5Q-63.25 -250.25 -62.85 -246.75Q-62.5 -243.3 -63.4 -240.15Q-72.7 -208.35 -74.2 -147.45Q-75.3 -105.3 -69.4 -70.3Q-67.45 -59.1 -64.6 -47.55L-60.85 -32.95L-60.75 -32.6Q-52.95 1.1 -54.25 38.85Q-55.55 76.45 -66.55 130.8L-67.4 133.6Q-73.65 148.15 -85.7 146.75Q-97.45 145.4 -102.45 133.75Q-103.4 131.7 -103.65 129.1Q-103.9 126.45 -103.4 123.95Q-93.05 72.95 -91.75 37.6Q-90.6 4.7 -97.35 -24.7L-101.1 -39.15L-101.15 -39.25Q-104.3 -51.95 -106.4 -64.45Q-112.9 -102.4 -111.75 -148.35Q-110.05 -214.9 -99.6 -249.55Q-98.9 -251.95 -97.6 -253.35Q-96.3 -254.75 -94.85 -254.75M-97.15,-251.9Q-98.2 -250.75 -98.8 -248.75Q-109.2 -214.35 -110.85 -148.25Q-112 -102.65 -105.5 -64.9L-105.55 -64.95Q-103.45 -52.55 -100.3 -39.95L-100.3 -39.85L-96.5 -25.25L-96.6 -25.55Q-89.7 4.3 -90.85 37.7Q-92.15 73.25 -102.55 124.5Q-102.95 126.6 -102.75 128.8Q-102.55 130.95 -101.75 132.7Q-96.9 143.8 -85.65 145.1Q-74.1 146.45 -68.1 132.55L-67.4 130.2Q-56.45 76.15 -55.15 38.75Q-53.9 1.4 -61.6 -31.95L-61.65 -32.25L-65.4 -46.85Q-68.3 -58.5 -70.25 -69.8Q-76.2 -105.05 -75.1 -147.5Q-73.6 -208.9 -64.2 -240.9Q-63.4 -243.55 -63.7 -246.45Q-64.05 -249.35 -65.3 -251.2Q-66.6 -253.1 -68.2 -253.1L-94.85 -253.1Q-96.05 -253.1 -97.15 -251.9" />
<path style="fill:#FFFFFF;fill-opacity:0.329412" d="M-94.85,-253.1L-68.2 -253.1Q-66.6 -253.1 -65.3 -251.2Q-64.05 -249.35 -63.7 -246.45Q-63.4 -243.55 -64.2 -240.9Q-73.6 -208.9 -75.1 -147.5Q-76.2 -105.05 -70.25 -69.8Q-68.3 -58.5 -65.4 -46.85L-61.65 -32.25L-61.6 -31.95Q-53.9 1.4 -55.15 38.75Q-56.45 76.15 -67.4 130.2L-68.1 132.55Q-74.1 146.45 -85.65 145.1Q-96.9 143.8 -101.75 132.7Q-102.55 130.95 -102.75 128.8Q-102.95 126.6 -102.55 124.5Q-92.15 73.25 -90.85 37.7Q-89.7 4.3 -96.6 -25.55L-96.5 -25.25L-100.3 -39.85L-100.3 -39.95Q-103.45 -52.55 -105.55 -64.95L-105.5 -64.9Q-112 -102.65 -110.85 -148.25Q-109.2 -214.35 -98.8 -248.75Q-98.2 -250.75 -97.15 -251.9Q-96.05 -253.1 -94.85 -253.1M-96.65,-250.5Q-97.55 -249.6 -98 -248Q-108.25 -213.8 -109.95 -148.2Q-111.1 -102.9 -104.65 -65.4L-104.65 -65.45Q-102.6 -53.15 -99.45 -40.65L-99.45 -40.55L-95.7 -25.95Q-88.8 4.1 -89.95 37.8Q-91.25 73.55 -101.7 125.1Q-102.05 126.75 -101.85 128.5Q-101.7 130.25 -101.05 131.6Q-96.4 142.2 -85.6 143.45Q-74.55 144.75 -68.85 131.5L-68.25 129.65Q-57.35 75.85 -56.1 38.65Q-54.8 1.7 -62.45 -31.3L-62.5 -31.55L-66.25 -46.15L-66.2 -46.1Q-69.15 -57.85 -71.1 -69.35L-71.1 -69.3Q-77.1 -104.8 -76 -147.6Q-74.5 -209.45 -65 -241.7Q-64.4 -243.8 -64.65 -246.1Q-64.9 -248.45 -65.9 -249.95Q-66.9 -251.45 -68.2 -251.45L-94.85 -251.45Q-95.8 -251.45 -96.65 -250.5" />
<path style="fill:#FFFFFF;fill-opacity:0.498039" d="M-94.85,-251.45L-68.2 -251.45Q-66.9 -251.45 -65.9 -249.95Q-64.9 -248.45 -64.65 -246.1Q-64.4 -243.8 -65 -241.7Q-74.5 -209.45 -76 -147.6Q-77.1 -104.8 -71.1 -69.3L-71.1 -69.35Q-69.15 -57.85 -66.2 -46.1L-66.25 -46.15L-62.5 -31.55L-62.45 -31.3Q-54.8 1.7 -56.1 38.65Q-57.35 75.85 -68.25 129.65L-68.85 131.5Q-74.55 144.75 -85.6 143.45Q-96.4 142.2 -101.05 131.6Q-101.7 130.25 -101.85 128.5Q-102.05 126.75 -101.7 125.1Q-91.25 73.55 -89.95 37.8Q-88.8 4.1 -95.7 -25.95L-99.45 -40.55L-99.45 -40.65Q-102.6 -53.15 -104.65 -65.45L-104.65 -65.4Q-111.1 -102.9 -109.95 -148.2Q-108.25 -213.8 -98 -248Q-97.55 -249.6 -96.65 -250.5Q-95.8 -251.45 -94.85 -251.45M-96.2,-249.1Q-96.85 -248.4 -97.2 -247.2Q-107.4 -213.25 -109.05 -148.1Q-110.15 -103.1 -103.8 -65.9Q-101.75 -53.7 -98.65 -41.3L-94.85 -26.65L-94.9 -26.85Q-87.85 3.7 -89.05 37.9Q-90.35 73.8 -100.85 125.65Q-101.1 126.9 -100.95 128.2Q-100.85 129.5 -100.35 130.55Q-95.9 140.65 -85.55 141.85Q-75 143.05 -69.55 130.5L-69.1 129.05Q-58.25 75.55 -57 38.55Q-55.7 1.95 -63.25 -30.7L-63.3 -30.85L-67.05 -45.45Q-70 -57.3 -71.95 -68.85L-71.95 -68.8Q-78 -104.55 -76.9 -147.65Q-75.4 -210 -65.8 -242.5Q-65.35 -244.05 -65.5 -245.8Q-65.7 -247.55 -66.45 -248.65Q-67.2 -249.8 -68.2 -249.8L-94.85 -249.8Q-95.55 -249.8 -96.2 -249.1" />
<path style="fill:#FFFFFF;fill-opacity:0.662745" d="M-94.85,-249.8L-68.2 -249.8Q-67.2 -249.8 -66.45 -248.65Q-65.7 -247.55 -65.5 -245.8Q-65.35 -244.05 -65.8 -242.5Q-75.4 -210 -76.9 -147.65Q-78 -104.55 -71.95 -68.8L-71.95 -68.85Q-70 -57.3 -67.05 -45.45L-63.3 -30.85L-63.25 -30.7Q-55.7 1.95 -57 38.55Q-58.25 75.55 -69.1 129.05L-69.55 130.5Q-75 143.05 -85.55 141.85Q-95.9 140.65 -100.35 130.55Q-100.85 129.5 -100.95 128.2Q-101.1 126.9 -100.85 125.65Q-90.35 73.8 -89.05 37.9Q-87.85 3.7 -94.9 -26.85L-94.85 -26.65L-98.65 -41.3Q-101.75 -53.7 -103.8 -65.9Q-110.15 -103.1 -109.05 -148.1Q-107.4 -213.25 -97.2 -247.2Q-96.85 -248.4 -96.2 -249.1Q-95.55 -249.8 -94.85 -249.8M-95.75,-247.65L-96.4 -246.4Q-106.5 -212.7 -108.15 -148.05Q-109.25 -103.35 -102.95 -66.4Q-100.9 -54.3 -97.8 -42L-97.8 -41.95L-94.05 -27.35L-94.1 -27.5Q-86.95 3.4 -88.15 38Q-89.45 74.1 -100 126.2L-100.1 127.95L-99.65 129.5Q-95.4 139.05 -85.45 140.2Q-75.45 141.35 -70.25 129.45L-69.95 128.5Q-59.15 75.25 -57.9 38.4Q-56.65 2.25 -64.1 -30.05L-64.1 -30.15L-67.9 -44.75L-67.9 -44.7Q-70.85 -56.7 -72.85 -68.35Q-78.95 -104.35 -77.85 -147.75Q-76.3 -210.55 -66.6 -243.25Q-66.3 -244.3 -66.4 -245.45Q-66.55 -246.65 -67 -247.4Q-67.55 -248.15 -68.2 -248.15L-94.85 -248.15Q-95.3 -248.15 -95.75 -247.65" />
<path style="fill:#FFFFFF;fill-opacity:0.831373" d="M-94.85,-248.15L-68.2 -248.15Q-67.55 -248.15 -67 -247.4Q-66.55 -246.65 -66.4 -245.45Q-66.3 -244.3 -66.6 -243.25Q-76.3 -210.55 -77.85 -147.75Q-78.95 -104.35 -72.85 -68.35Q-70.85 -56.7 -67.9 -44.7L-67.9 -44.75L-64.1 -30.15L-64.1 -30.05Q-56.65 2.25 -57.9 38.4Q-59.15 75.25 -69.95 128.5L-70.25 129.45Q-75.45 141.35 -85.45 140.2Q-95.4 139.05 -99.65 129.5L-100.1 127.95L-100 126.2Q-89.45 74.1 -88.15 38Q-86.95 3.4 -94.1 -27.5L-94.05 -27.35L-97.8 -41.95L-97.8 -42Q-100.9 -54.3 -102.95 -66.4Q-109.25 -103.35 -108.15 -148.05Q-106.5 -212.7 -96.4 -246.4L-95.75 -247.65Q-95.3 -248.15 -94.85 -248.15M-95.3,-246.25L-95.6 -245.6Q-105.6 -212.15 -107.25 -147.95Q-108.35 -103.6 -102.05 -66.85L-102.05 -66.9Q-100.05 -54.9 -97 -42.7L-97 -42.65L-93.25 -28.05Q-86.05 3.15 -87.25 38.1Q-88.55 74.4 -99.15 126.8L-99.15 127.65L-99 128.45Q-94.85 137.45 -85.4 138.55Q-75.9 139.65 -70.95 128.4L-70.8 127.95Q-60.05 74.95 -58.8 38.3Q-57.55 2.55 -64.95 -29.4L-64.95 -29.45L-68.7 -44.05Q-71.7 -56.1 -73.7 -67.85Q-79.85 -104.1 -78.75 -147.8Q-77.15 -211.1 -67.4 -244.05L-67.3 -245.15L-67.6 -246.1Q-67.9 -246.5 -68.2 -246.5L-94.85 -246.5L-95.3 -246.25" />
<path style="fill:#FFFFFF;fill-opacity:1" d="M63.3,-255.35Q63.6 -255.75 64.05 -255.75L99.4 -255.75L100 -255.5L100.4 -254.85Q113.65 -218.6 115.75 -149Q117.25 -101 109 -61.15Q106.3 -48.2 102.25 -35L102.25 -34.95L97.25 -19.15L97.2 -19.1Q87.65 14.8 89.25 52.7Q90.9 92.05 105.05 148.9L105.1 149.95L104.65 150.8L104 151.1L83.45 151.5L68.6 151.1Q68.25 151.1 68 150.8Q67.7 150.5 67.55 150Q53.3 92.6 51.6 52.9Q49.95 14.2 59.75 -20.4L59.8 -20.45L64.8 -36.3L64.75 -36.3Q68.75 -49.35 71.4 -62.1Q79.6 -101.4 78.1 -148.85Q75.95 -217.5 63 -253.35Q62.8 -253.85 62.9 -254.4Q62.95 -255 63.3 -255.35" />
<path style="fill:#FFFFFF;fill-opacity:0.329412" d="M59.5,-255.45Q59.15 -253.15 59.95 -251.05Q72.6 -215.9 74.65 -148.65Q76.1 -102.05 68.1 -63.5L68.1 -63.55Q65.45 -51 61.6 -38.25L61.6 -38.35L56.6 -22.45L56.55 -22.25Q46.45 13.35 48.1 53.2Q49.85 93.45 64.3 151.65Q64.75 153.6 65.95 154.8Q67.1 156 68.55 156.05L83.4 156.45L83.55 156.45L104.05 156.05Q105.55 156.05 106.75 154.75Q107.95 153.4 108.4 151.35Q108.85 149.3 108.35 147.25Q94.4 91.15 92.7 52.4Q91.15 15.75 100.4 -17.05L105.4 -32.9L105.45 -33Q109.55 -46.5 112.3 -59.75Q120.75 -100.35 119.25 -149.25Q117.05 -220.2 103.5 -257.15Q102.85 -258.8 101.75 -259.75Q100.65 -260.7 99.4 -260.7L64.05 -260.7Q62.4 -260.7 61.15 -259.2Q59.85 -257.75 59.5 -255.45M64.05,-262.35L99.4 -262.35Q100.95 -262.35 102.35 -261.15Q103.75 -259.95 104.5 -257.9Q118.2 -220.7 120.4 -149.3Q121.95 -100.1 113.4 -59.3Q110.6 -45.95 106.5 -32.35L101.45 -16.35Q92.3 16.05 93.85 52.3Q95.55 90.9 109.45 146.7Q110.05 149.25 109.5 151.85Q108.95 154.4 107.45 156.05Q105.95 157.65 104.1 157.7L83.55 158.1L83.4 158.1L68.55 157.7Q66.75 157.65 65.3 156.15Q63.8 154.65 63.2 152.2Q48.65 93.75 47 53.3Q45.3 13.1 55.5 -22.85L55.55 -23.15L60.55 -38.9L60.55 -39.05Q64.4 -51.65 67 -64Q74.9 -102.3 73.5 -148.55L73.5 -148.6Q71.4 -215.4 58.9 -250.3Q57.95 -252.9 58.35 -255.75Q58.8 -258.65 60.4 -260.5Q61.95 -262.35 64.05 -262.35" />
<path style="fill:#FFFFFF;fill-opacity:0.498039" d="M61.15,-259.2Q62.4 -260.7 64.05 -260.7L99.4 -260.7Q100.65 -260.7 101.75 -259.75Q102.85 -258.8 103.5 -257.15Q117.05 -220.2 119.25 -149.25Q120.75 -100.35 112.3 -59.75Q109.55 -46.5 105.45 -33L105.4 -32.9L100.4 -17.05Q91.15 15.75 92.7 52.4Q94.4 91.15 108.35 147.25Q108.85 149.3 108.4 151.35Q107.95 153.4 106.75 154.75Q105.55 156.05 104.05 156.05L83.55 156.45L83.4 156.45L68.55 156.05Q67.1 156 65.95 154.8Q64.75 153.6 64.3 151.65Q49.85 93.45 48.1 53.2Q46.45 13.35 56.55 -22.25L56.6 -22.45L61.6 -38.35L61.6 -38.25Q65.45 -51 68.1 -63.55L68.1 -63.5Q76.1 -102.05 74.65 -148.65Q72.6 -215.9 59.95 -251.05Q59.15 -253.15 59.5 -255.45Q59.85 -257.75 61.15 -259.2M60.65,-255.1Q60.35 -253.4 60.95 -251.8Q73.7 -216.45 75.8 -148.7Q77.25 -101.85 69.2 -63.05Q66.55 -50.5 62.65 -37.65L62.65 -37.6L57.65 -21.8L57.65 -21.6Q47.6 13.65 49.25 53.1Q51 93.15 65.35 151.1Q65.75 152.55 66.65 153.5Q67.5 154.4 68.6 154.4L83.45 154.8L83.55 154.8L104.05 154.4Q105.15 154.4 106.05 153.4Q107 152.4 107.3 150.9Q107.6 149.35 107.25 147.8Q93.25 91.45 91.55 52.5Q89.95 15.3 99.4 -17.9L99.3 -17.7L104.35 -33.6L104.4 -33.65Q108.45 -47.1 111.2 -60.25L111.2 -60.2Q119.6 -100.55 118.1 -149.15Q115.9 -219.65 102.45 -256.35Q102 -257.6 101.15 -258.3Q100.35 -259.05 99.4 -259.05L64.05 -259.05Q62.8 -259.05 61.85 -257.95Q60.9 -256.85 60.65 -255.1" />
<path style="fill:#FFFFFF;fill-opacity:0.662745" d="M61.85,-257.95Q62.8 -259.05 64.05 -259.05L99.4 -259.05Q100.35 -259.05 101.15 -258.3Q102 -257.6 102.45 -256.35Q115.9 -219.65 118.1 -149.15Q119.6 -100.55 111.2 -60.2L111.2 -60.25Q108.45 -47.1 104.4 -33.65L104.35 -33.6L99.3 -17.7L99.4 -17.9Q89.95 15.3 91.55 52.5Q93.25 91.45 107.25 147.8Q107.6 149.35 107.3 150.9Q107 152.4 106.05 153.4Q105.15 154.4 104.05 154.4L83.55 154.8L83.45 154.8L68.6 154.4Q67.5 154.4 66.65 153.5Q65.75 152.55 65.35 151.1Q51 93.15 49.25 53.1Q47.6 13.65 57.65 -21.6L57.65 -21.8L62.65 -37.6L62.65 -37.65Q66.55 -50.5 69.2 -63.05Q77.25 -101.85 75.8 -148.7Q73.7 -216.45 60.95 -251.8Q60.35 -253.4 60.65 -255.1Q60.9 -256.85 61.85 -257.95M62.55,-256.65Q61.95 -255.9 61.75 -254.75Q61.6 -253.6 61.95 -252.55Q74.85 -217 76.95 -148.8Q78.4 -101.6 70.3 -62.6L70.35 -62.6Q67.65 -49.9 63.75 -37L63.7 -36.95L58.75 -21.1L58.7 -21Q48.8 13.95 50.4 53Q52.15 92.9 66.5 150.55Q66.7 151.5 67.3 152.15Q67.9 152.75 68.6 152.75L83.45 153.15L83.55 153.15L104 152.75Q104.75 152.75 105.35 152.1Q105.95 151.45 106.2 150.4Q106.4 149.35 106.15 148.35Q92.05 91.75 90.4 52.6Q88.8 15.05 98.3 -18.5L103.3 -34.3Q107.35 -47.65 110.1 -60.7Q118.45 -100.8 116.9 -149.1Q114.75 -219.1 101.4 -255.6L100.6 -256.9Q100 -257.4 99.4 -257.4L64.05 -257.4Q63.2 -257.4 62.55 -256.65" />
<path style="fill:#FFFFFF;fill-opacity:0.831373" d="M62.9,-254.4Q62.8 -253.85 63 -253.35Q75.95 -217.5 78.1 -148.85Q79.6 -101.4 71.4 -62.1Q68.75 -49.35 64.75 -36.3L64.8 -36.3L59.8 -20.45L59.75 -20.4Q49.95 14.2 51.6 52.9Q53.3 92.6 67.55 150Q67.7 150.5 68 150.8Q68.25 151.1 68.6 151.1L83.45 151.5L104 151.1L104.65 150.8L105.1 149.95L105.05 148.9Q90.9 92.05 89.25 52.7Q87.65 14.8 97.2 -19.1L97.25 -19.15L102.25 -34.95L102.25 -35Q106.3 -48.2 109 -61.15Q117.25 -101 115.75 -149Q113.65 -218.6 100.4 -254.85L100 -255.5L99.4 -255.75L64.05 -255.75Q63.6 -255.75 63.3 -255.35Q62.95 -255 62.9 -254.4M64.05,-257.4L99.4 -257.4Q100 -257.4 100.6 -256.9L101.4 -255.6Q114.75 -219.1 116.9 -149.1Q118.45 -100.8 110.1 -60.7Q107.35 -47.65 103.3 -34.3L98.3 -18.5Q88.8 15.05 90.4 52.6Q92.05 91.75 106.15 148.35Q106.4 149.35 106.2 150.4Q105.95 151.45 105.35 152.1Q104.75 152.75 104 152.75L83.55 153.15L83.45 153.15L68.6 152.75Q67.9 152.75 67.3 152.15Q66.7 151.5 66.5 150.55Q52.15 92.9 50.4 53Q48.8 13.95 58.7 -21L58.75 -21.1L63.7 -36.95L63.75 -37Q67.65 -49.9 70.35 -62.6L70.3 -62.6Q78.4 -101.6 76.95 -148.8Q74.85 -217 61.95 -252.55Q61.6 -253.6 61.75 -254.75Q61.95 -255.9 62.55 -256.65Q63.2 -257.4 64.05 -257.4" />
<path style="fill:#FFFFFF;fill-opacity:0.160784" d="M60.4,-260.5Q58.8 -258.65 58.35 -255.75Q57.95 -252.9 58.9 -250.3Q71.4 -215.4 73.5 -148.6L73.5 -148.55Q74.9 -102.3 67 -64Q64.4 -51.65 60.55 -39.05L60.55 -38.9L55.55 -23.15L55.5 -22.85Q45.3 13.1 47 53.3Q48.65 93.75 63.2 152.2Q63.8 154.65 65.3 156.15Q66.75 157.65 68.55 157.7L83.4 158.1L83.55 158.1L104.1 157.7Q105.95 157.65 107.45 156.05Q108.95 154.4 109.5 151.85Q110.05 149.25 109.45 146.7Q95.55 90.9 93.85 52.3Q92.3 16.05 101.45 -16.35L106.5 -32.35Q110.6 -45.95 113.4 -59.3Q121.95 -100.1 120.4 -149.3Q118.2 -220.7 104.5 -257.9Q103.75 -259.95 102.35 -261.15Q100.95 -262.35 99.4 -262.35L64.05 -262.35Q61.95 -262.35 60.4 -260.5M64.05,-264L99.4 -264Q101.3 -264 102.95 -262.55Q104.6 -261.1 105.5 -258.65Q119.3 -221.25 121.55 -149.4Q123.1 -99.9 114.5 -58.8L114.5 -58.85Q111.7 -45.4 107.55 -31.7L102.6 -16.05L102.55 -15.85L102.5 -15.7Q93.45 16.35 95 52.2Q96.7 90.6 110.5 146.15Q111.25 149.2 110.6 152.3Q109.95 155.4 108.15 157.35Q106.3 159.3 104.1 159.35L83.55 159.75L83.35 159.75L68.5 159.35Q66.35 159.3 64.6 157.5Q62.85 155.65 62.1 152.8Q47.5 94.05 45.85 53.4Q44.1 12.8 54.4 -23.5L54.5 -23.85L59.5 -39.7L59.5 -39.55Q63.3 -52.15 65.9 -64.5L65.9 -64.45Q73.75 -102.5 72.35 -148.5Q70.25 -214.85 57.9 -249.55Q56.7 -252.7 57.25 -256.1Q57.75 -259.55 59.65 -261.75Q61.55 -264 64.05 -264" />
</g>
</svg>
