<?xml version="1.0" encoding="utf-8"?>
<svg version="1.1" id="Layer_1"
xmlns="http://www.w3.org/2000/svg"
xmlns:xlink="http://www.w3.org/1999/xlink"
xmlns:author="http://www.sothink.com"
width="273px" height="273px"
xml:space="preserve">
<g id="30" transform="matrix(1, 0, 0, 1, 134.2, 132.15)">
<path style="fill:#000000;fill-opacity:1" d="M53,-116.9Q76.5 -106.95 94.7 -88.7Q112.8 -70.6 122.85 -47.05Q133.1 -22.7 133.15 4Q133.1 30.7 122.85 55.05Q112.8 78.6 94.7 96.75Q76.5 114.9 53 124.9Q28.6 135.2 1.95 135.2Q-24.75 135.2 -49.1 124.9Q-72.65 114.95 -90.75 96.75Q-108.95 78.6 -118.95 55.05Q-129.25 30.7 -129.2 4Q-129.25 -22.7 -118.95 -47.05Q-109 -70.6 -90.75 -88.7Q-72.65 -106.95 -49.1 -116.9Q-24.75 -127.2 1.95 -127.15Q28.6 -127.2 53 -116.9" />
<path style="fill:none;stroke-width:10;stroke-linecap:round;stroke-linejoin:round;stroke-miterlimit:3;stroke:#000000;stroke-opacity:1" d="M53,-116.9Q76.5 -106.95 94.7 -88.7Q112.8 -70.6 122.85 -47.05Q133.1 -22.7 133.15 4Q133.1 30.7 122.85 55.05Q112.8 78.6 94.7 96.75Q76.5 114.9 53 124.9Q28.6 135.2 1.95 135.2Q-24.75 135.2 -49.1 124.9Q-72.65 114.95 -90.75 96.75Q-108.95 78.6 -118.95 55.05Q-129.25 30.7 -129.2 4Q-129.25 -22.7 -118.95 -47.05Q-109 -70.6 -90.75 -88.7Q-72.65 -106.95 -49.1 -116.9Q-24.75 -127.2 1.95 -127.15Q28.6 -127.2 53 -116.9z" />
<path style="fill:#99CCFF;fill-opacity:1" d="M46.4,-109.9Q67.8 -100.85 84.3 -84.3Q100.8 -67.8 109.9 -46.4Q119.25 -24.25 119.25 0Q119.25 24.25 109.9 46.4Q100.8 67.8 84.3 84.3Q67.8 100.8 46.4 109.9Q24.25 119.25 0 119.25Q-24.25 119.25 -46.4 109.9Q-67.8 100.85 -84.3 84.3Q-100.8 67.8 -109.9 46.4Q-119.25 24.25 -119.25 0Q-119.25 -24.25 -109.9 -46.4Q-100.85 -67.8 -84.3 -84.3Q-67.8 -100.85 -46.4 -109.9Q-24.25 -119.25 0 -119.25Q24.25 -119.25 46.4 -109.9" />
<path style="fill:none;stroke-width:15;stroke-linecap:round;stroke-linejoin:round;stroke-miterlimit:3;stroke:#663399;stroke-opacity:1" d="M46.4,-109.9Q67.8 -100.85 84.3 -84.3Q100.8 -67.8 109.9 -46.4Q119.25 -24.25 119.25 0Q119.25 24.25 109.9 46.4Q100.8 67.8 84.3 84.3Q67.8 100.8 46.4 109.9Q24.25 119.25 0 119.25Q-24.25 119.25 -46.4 109.9Q-67.8 100.85 -84.3 84.3Q-100.8 67.8 -109.9 46.4Q-119.25 24.25 -119.25 0Q-119.25 -24.25 -109.9 -46.4Q-100.85 -67.8 -84.3 -84.3Q-67.8 -100.85 -46.4 -109.9Q-24.25 -119.25 0 -119.25Q24.25 -119.25 46.4 -109.9z" />
</g>
</svg>
