<?xml version="1.0" encoding="utf-8"?>
<svg version="1.1" id="Layer_1"
xmlns="http://www.w3.org/2000/svg"
xmlns:xlink="http://www.w3.org/1999/xlink"
xmlns:author="http://www.sothink.com"
width="245px" height="246px"
xml:space="preserve">
<g id="28" transform="matrix(1, 0, 0, 1, 121.7, 123.4)">
<path style="fill:#000000;fill-opacity:1" d="M84.8,-84.85Q119.95 -49.7 119.95 0Q119.95 49.7 84.8 84.8Q49.7 119.95 0 119.95Q-49.7 119.95 -84.85 84.8Q-119.95 49.7 -119.95 0Q-119.95 -49.7 -84.85 -84.85Q-49.7 -119.95 0 -119.95Q49.7 -119.95 84.8 -84.85" />
<path style="fill:#000000;fill-opacity:1" d="M3.55,-100.7Q-4.4 -89.6 -15.55 -98.45Q-17.55 -100 -19.15 -101.8L-19.45 -102.05Q-23.95 -99.45 -29.55 -98.45Q-32.8 -97.85 -35.9 -96.6Q-52.75 -89.95 -66.7 -75.85L-73.3 -69.15Q-90.75 -51.55 -94.9 -27.4Q-95.95 -21 -98.05 -14.75Q-100 -8.75 -98.9 -2.35Q-98.15 2.15 -99 6.1Q-98.6 8.8 -98.95 11.95Q-100.15 22.35 -97.8 32.6Q-96.35 38.95 -91.8 43.75Q-81.25 54.9 -73.65 68.1Q-70.1 74.25 -63.9 78.65Q-39.15 96.15 -8.85 98.5Q-6.5 98.7 -4.4 99.75Q-1.55 98.7 1 98.95Q5.15 98 10.45 98.85Q12.95 99.25 15.35 98.3Q29.85 92.8 45.5 89.25Q60.05 73.6 77 62.1Q81.4 59.1 84 54Q95.3 31.75 99.4 6.7Q100.8 -1.75 102.5 -10.15L103 -11.75L102.75 -12.05Q99.5 -16.25 99.15 -21.65Q98.3 -33.35 93.7 -43.45Q90.5 -44.3 87.05 -47.85Q84.6 -50.35 83.65 -53.75Q74.75 -63 67.65 -73.85Q62.45 -81.75 54.7 -85.45Q52.25 -86.6 50.1 -88.2Q38.05 -97.05 23.25 -99.05L3.55 -100.7M53.3,-109.85Q59.35 -106.5 65.45 -103.35Q71.85 -100.05 76.95 -95.35Q82.6 -92.9 86.7 -88.15Q88.9 -85.6 91.35 -83.2L93.6 -80.8L99.6 -69.55Q100.7 -67.5 102.1 -65.75Q114.95 -49.6 120.8 -30.25Q121.55 -23.85 121.3 -17.6Q121.25 -15.3 120.7 -13.3L119.9 -12.15Q123.5 -7.7 122.75 -0.3Q118.8 37.75 98.8 70.45Q89.55 84.25 74.9 92.55Q71.8 94.35 69 96.7Q61.55 103.05 53.85 108.25Q50.75 110.3 46.85 111.25Q34.9 114.25 23.3 118.3L16.25 120.4Q8.05 122.6 1.05 120.75Q-5.4 123.25 -13.75 119.4Q-16.3 118.2 -19.25 117.95Q-49.2 115.1 -73.1 96.4Q-81.4 89.9 -89.1 82.85Q-93.85 78.55 -96.4 72.7Q-98.3 68.35 -101.15 64.8Q-108.75 47.6 -114.65 29.8Q-116.4 24.55 -116.6 19.2Q-116.85 11.4 -121.1 7.9Q-121.85 5.05 -121.65 1.6Q-121.1 -7.15 -119.9 -15.65Q-118.85 -22.95 -116.55 -30.05Q-113.1 -40.55 -109.15 -51.1Q-106.7 -57.6 -103 -63.55Q-87 -89.3 -63.15 -106.8Q-44.05 -120.75 -20.6 -121.35L-18.2 -121.05Q-15.85 -121.8 -12.8 -120.95Q-6.8 -124 1.7 -123.25Q25.05 -121.25 46.65 -112.95Q50.05 -111.65 53.3 -109.85" />
</g>
</svg>
