<?xml version="1.0" encoding="utf-8"?>
<svg version="1.1" id="Layer_1"
xmlns="http://www.w3.org/2000/svg"
xmlns:xlink="http://www.w3.org/1999/xlink"
xmlns:author="http://www.sothink.com"
width="235px" height="263px"
xml:space="preserve">
<g id="68" transform="matrix(1, 0, 0, 1, 116.85, 130.2)">
<path style="fill:none;stroke-width:2;stroke-linecap:round;stroke-linejoin:round;stroke-miterlimit:3;stroke:#FF4040;stroke-opacity:1" d="M31,-58.5Q31.5 -52.5 35.5 -50" />
<path style="fill:#FFFF00;fill-opacity:1" d="M-4.25,-120.65Q37.75 -140.95 54.05 -112.95Q66.75 -107.95 53.75 -81.3L-13.95 -84.65Q-19.25 -90.3 -16.25 -99.95Q-13.25 -109.65 -9.25 -111.95Q-11.6 -118.3 -4.25 -120.65" />
<path style="fill:none;stroke-width:2;stroke-linecap:round;stroke-linejoin:round;stroke-miterlimit:3;stroke:#000000;stroke-opacity:1" d="M-4.25,-120.65Q37.75 -140.95 54.05 -112.95Q66.75 -107.95 53.75 -81.3L-13.95 -84.65Q-19.25 -90.3 -16.25 -99.95Q-13.25 -109.65 -9.25 -111.95Q-11.6 -118.3 -4.25 -120.65z" />
<path style="fill:#FFBFBF;fill-opacity:1" d="M47.75,-83.65Q56.4 -86.3 58.05 -79.95Q62.45 -63.7 47.75 -63.3L47.75 -83.65" />
<path style="fill:none;stroke-width:2;stroke-linecap:round;stroke-linejoin:round;stroke-miterlimit:3;stroke:#000000;stroke-opacity:1" d="M47.75,-83.65Q56.4 -86.3 58.05 -79.95Q62.45 -63.7 47.75 -63.3L47.75 -83.65z" />
<path style="fill:#000000;fill-opacity:1" d="M50.4,51.65Q71.75 92.65 73.05 104.3L-50.6 106.65Q-41.95 59.65 -34.95 52.3Q-27.95 45 50.4 51.65" />
<path style="fill:#000000;fill-opacity:1" d="M54.05,51.65Q49.4 65.65 51.4 109.3L-35.6 109.3Q-32.95 85.65 -35.6 51.3L54.05 51.65" />
<path style="fill:none;stroke-width:2;stroke-linecap:round;stroke-linejoin:round;stroke-miterlimit:3;stroke:#666666;stroke-opacity:1" d="M-35.6,51.3Q-32.95 85.65 -35.6 109.3L51.4 109.3Q49.4 65.65 54.05 51.65L-35.6 51.3z" />
<path style="fill:none;stroke-width:2;stroke-linecap:round;stroke-linejoin:round;stroke-miterlimit:3;stroke:#000000;stroke-opacity:1" d="M48.05,-74.3Q51.05 -76.3 54.4 -73.95" />
<path style="fill:#FFBFBF;fill-opacity:1" d="M23.5,-36.35Q26.75 -34.35 26.75 -31.5Q26.75 -28.7 23.5 -26.7Q20.3 -24.7 15.75 -24.7Q11.2 -24.7 7.95 -26.7Q4.75 -28.7 4.75 -31.5Q4.75 -34.35 7.95 -36.35Q11.2 -38.3 15.75 -38.3Q20.3 -38.3 23.5 -36.35" />
<path style="fill:#FFBFBF;fill-opacity:1" d="M10.75,-114.95L31.75 -115.3Q50.4 -115.65 50.05 -110.95L49.05 -98.95Q47.05 -78.3 49.75 -52.65Q51.9 -37.25 36.75 -34.3Q22.2 -31.6 1.05 -34.3Q-14.25 -36.35 -12.95 -47.3Q-14.6 -76.3 -6.6 -101.65Q-4.6 -109.65 0.05 -116.65Q2.75 -115.3 10.75 -114.95" />
<path style="fill:none;stroke-width:2;stroke-linecap:round;stroke-linejoin:round;stroke-miterlimit:3;stroke:#000000;stroke-opacity:1" d="M0.05,-116.65Q-4.6 -109.65 -6.6 -101.65Q-14.6 -76.3 -12.95 -47.3Q-14.25 -36.35 1.05 -34.3Q22.2 -31.6 36.75 -34.3Q51.9 -37.25 49.75 -52.65Q47.05 -78.3 49.05 -98.95L50.05 -110.95Q50.4 -115.65 31.75 -115.3L10.75 -114.95Q2.75 -115.3 0.05 -116.65z" />
<path style="fill:none;stroke-width:2;stroke-linecap:round;stroke-linejoin:round;stroke-miterlimit:3;stroke:#FF4040;stroke-opacity:1" d="M-4.25,-53.65Q6.75 -48.3 36.4 -52.65" />
<path style="fill:#FFBFBF;fill-opacity:1" d="M-12.6,-65.65Q-27.6 -64.65 -21.6 -81.3Q-16.6 -92.95 -10.6 -85.3L-12.6 -65.65" />
<path style="fill:none;stroke-width:2;stroke-linecap:round;stroke-linejoin:round;stroke-miterlimit:3;stroke:#000000;stroke-opacity:1" d="M-10.6,-85.3Q-16.6 -92.95 -21.6 -81.3Q-27.6 -64.65 -12.6 -65.65L-10.6 -85.3z" />
<path style="fill:none;stroke-width:2;stroke-linecap:round;stroke-linejoin:round;stroke-miterlimit:3;stroke:#000000;stroke-opacity:1" d="M-18.6,-78.65Q-14.95 -78.95 -12.25 -74.95" />
<path style="fill:#000000;fill-opacity:1" d="M32.75,-77.05Q32.75 -74 31.5 -71.8Q30.2 -69.65 28.4 -69.65Q26.6 -69.65 25.35 -71.8Q24.05 -74 24.05 -77.05Q24.05 -80.1 25.35 -82.3Q26.6 -84.45 28.4 -84.45Q30.2 -84.45 31.5 -82.3Q32.75 -80.1 32.75 -77.05" />
<path style="fill:none;stroke-width:1;stroke-linecap:round;stroke-linejoin:round;stroke-miterlimit:3;stroke:#000000;stroke-opacity:1" d="M32.75,-77.05Q32.75 -74 31.5 -71.8Q30.2 -69.65 28.4 -69.65Q26.6 -69.65 25.35 -71.8Q24.05 -74 24.05 -77.05Q24.05 -80.1 25.35 -82.3Q26.6 -84.45 28.4 -84.45Q30.2 -84.45 31.5 -82.3Q32.75 -80.1 32.75 -77.05z" />
<path style="fill:#000000;fill-opacity:1" d="M27.4,-84.15Q33.4 -86.9 34.75 -77.8L27.4 -84.15" />
<path style="fill:none;stroke-width:1;stroke-linecap:round;stroke-linejoin:round;stroke-miterlimit:3;stroke:#000000;stroke-opacity:1" d="M34.75,-77.8Q33.4 -86.9 27.4 -84.15" />
<path style="fill:#000000;fill-opacity:1" d="M2,-81.8Q3.25 -83.95 5.05 -83.95Q6.85 -83.95 8.15 -81.8Q9.4 -79.6 9.4 -76.55Q9.4 -73.5 8.15 -71.3Q6.85 -69.15 5.05 -69.15Q3.25 -69.15 2 -71.3Q0.75 -73.45 0.75 -76.55Q0.75 -79.65 2 -81.8" />
<path style="fill:none;stroke-width:1;stroke-linecap:round;stroke-linejoin:round;stroke-miterlimit:3;stroke:#000000;stroke-opacity:1" d="M0.75,-76.55Q0.75 -73.45 2 -71.3Q3.25 -69.15 5.05 -69.15Q6.85 -69.15 8.15 -71.3Q9.4 -73.5 9.4 -76.55Q9.4 -79.6 8.15 -81.8Q6.85 -83.95 5.05 -83.95Q3.25 -83.95 2 -81.8Q0.75 -79.65 0.75 -76.55z" />
<path style="fill:#000000;fill-opacity:1" d="M-1.25,-77.3Q0.05 -86.35 6.05 -83.65L-1.25 -77.3" />
<path style="fill:none;stroke-width:1;stroke-linecap:round;stroke-linejoin:round;stroke-miterlimit:3;stroke:#000000;stroke-opacity:1" d="M-1.25,-77.3Q0.05 -86.35 6.05 -83.65" />
<path style="fill:#FFBFBF;fill-opacity:1" d="M22.75,-59.95Q7.05 -59.65 4.05 -59.95Q3.4 -79.65 14.75 -85.95L22.75 -59.95" />
<path style="fill:none;stroke-width:2;stroke-linecap:round;stroke-linejoin:round;stroke-miterlimit:3;stroke:#000000;stroke-opacity:1" d="M14.75,-85.95Q3.4 -79.65 4.05 -59.95Q7.05 -59.65 22.75 -59.95" />
<path style="fill:#FFFF00;fill-opacity:1" d="M25.05,-87.65Q24.05 -91.3 29.05 -91.65Q34.05 -91.95 36.4 -88.95Q28.4 -88.65 25.05 -87.65" />
<path style="fill:none;stroke-width:1;stroke-linecap:round;stroke-linejoin:round;stroke-miterlimit:3;stroke:#000000;stroke-opacity:1" d="M25.05,-87.65Q24.05 -91.3 29.05 -91.65Q34.05 -91.95 36.4 -88.95Q28.4 -88.65 25.05 -87.65z" />
<path style="fill:#FFFF00;fill-opacity:1" d="M-1.6,-87.95Q-1.25 -92.95 4.75 -91.95Q10.75 -90.95 9.75 -86.95Q5.4 -89.95 -1.6 -87.95" />
<path style="fill:none;stroke-width:1;stroke-linecap:round;stroke-linejoin:round;stroke-miterlimit:3;stroke:#000000;stroke-opacity:1" d="M9.75,-86.95Q10.75 -90.95 4.75 -91.95Q-1.25 -92.95 -1.6 -87.95Q5.4 -89.95 9.75 -86.95z" />
<path style="fill:#FFFFFF;fill-opacity:1" d="M-0.25,-32L3.05 -36Q8.75 -33.7 16.75 -27Q19.4 -31 29.05 -34.7L32.05 -30.7L37.4 -31.35Q46.05 -21.7 23.05 69L9.05 53L-3.25 67L-9.95 56.65L-6.25 -30.35L-0.25 -32" />
<path style="fill:none;stroke-width:2;stroke-linecap:round;stroke-linejoin:round;stroke-miterlimit:3;stroke:#000000;stroke-opacity:1" d="M-6.25,-30.35L-9.95 56.65L-3.25 67L9.05 53L23.05 69Q46.05 -21.7 37.4 -31.35L32.05 -30.7L29.05 -34.7Q19.4 -31 16.75 -27Q8.75 -33.7 3.05 -36L-0.25 -32L-6.25 -30.35z" />
<path style="fill:none;stroke-width:2;stroke-linecap:round;stroke-linejoin:round;stroke-miterlimit:3;stroke:#000000;stroke-opacity:1" d="M15.05,-22Q11.4 2.3 16.4 20" />
<path style="fill:#FFFFFF;fill-opacity:1" d="M9.05,53L11.75 23Q15.8 18.95 18.85 14.1L9.05 53M18.85,14.1L27.75 -21.35Q27.75 -0.2 18.85 14.1" />
<path style="fill:none;stroke-width:2;stroke-linecap:round;stroke-linejoin:round;stroke-miterlimit:3;stroke:#000000;stroke-opacity:1" d="M27.75,-21.35Q27.75 -0.2 18.85 14.1Q15.8 18.95 11.75 23L9.05 53" />
<path style="fill:none;stroke-width:2;stroke-linecap:round;stroke-linejoin:round;stroke-miterlimit:3;stroke:#000000;stroke-opacity:1" d="M1.75,-17.35Q-0.25 1 11.75 23" />
<path style="fill:#FFFFFF;fill-opacity:1" d="M13.75,-21.35Q7.05 -17 2.05 -15.7Q-7.6 -21 0.4 -30.35Q13.4 -28.7 14.4 -24.35L13.75 -21.35" />
<path style="fill:none;stroke-width:2;stroke-linecap:round;stroke-linejoin:round;stroke-miterlimit:3;stroke:#000000;stroke-opacity:1" d="M14.4,-24.35Q13.4 -28.7 0.4 -30.35Q-7.6 -21 2.05 -15.7Q7.05 -17 13.75 -21.35L14.4 -24.35z" />
<path style="fill:#FFFFFF;fill-opacity:1" d="M19.05,-24Q23.05 -29.7 32.4 -28.35Q37.4 -24.7 31.4 -14.35L19.4 -20L19.05 -24" />
<path style="fill:none;stroke-width:2;stroke-linecap:round;stroke-linejoin:round;stroke-miterlimit:3;stroke:#000000;stroke-opacity:1" d="M19.05,-24Q23.05 -29.7 32.4 -28.35Q37.4 -24.7 31.4 -14.35L19.4 -20L19.05 -24z" />
<path style="fill:#FFFFFF;fill-opacity:1" d="M21.35,-21.75Q21.25 -20.7 19.75 -20.1L16.15 -19.7Q14.05 -19.95 12.7 -20.8Q11.3 -21.65 11.4 -22.7Q11.5 -23.7 13.05 -24.3L16.6 -24.7Q18.65 -24.5 20.05 -23.65Q21.45 -22.75 21.35 -21.75" />
<path style="fill:none;stroke-width:2;stroke-linecap:round;stroke-linejoin:round;stroke-miterlimit:3;stroke:#000000;stroke-opacity:1" d="M21.35,-21.75Q21.25 -20.7 19.75 -20.1L16.15 -19.7Q14.05 -19.95 12.7 -20.8Q11.3 -21.65 11.4 -22.7Q11.5 -23.7 13.05 -24.3L16.6 -24.7Q18.65 -24.5 20.05 -23.65Q21.45 -22.75 21.35 -21.75z" />
<path style="fill:#000000;fill-opacity:1" d="M60.05,-24Q65.4 -19.35 61.4 -10.35Q52.05 15.65 53.4 36.3Q53.85 43.25 56.25 49.85Q57.7 53.8 62 62.55Q66.7 72.15 69.45 79.05Q74 90.4 77.55 104L70.55 104.65Q55.05 80.65 49.4 52.65Q34.75 64.3 27.75 67Q20.75 52 19.4 43.65Q42.05 12 37.4 -31.35Q55.75 -29 60.05 -24" />
<path style="fill:none;stroke-width:2;stroke-linecap:round;stroke-linejoin:round;stroke-miterlimit:3;stroke:#666666;stroke-opacity:1" d="M37.4,-31.35Q42.05 12 19.4 43.65Q20.75 52 27.75 67Q34.75 64.3 49.4 52.65Q55.05 80.65 70.55 104.65L77.55 104Q74 90.4 69.45 79.05Q66.7 72.15 62 62.55Q57.7 53.8 56.25 49.85Q53.85 43.25 53.4 36.3Q52.05 15.65 61.4 -10.35Q65.4 -19.35 60.05 -24Q55.75 -29 37.4 -31.35z" />
<path style="fill:#000000;fill-opacity:1" d="M41.75,-27Q44.75 -19.35 47.75 -7.35L38.4 1.65L54.75 -3.7Q40.05 28.65 19.4 43.65Q39.75 -3.35 36.75 -34.35Q38.75 -34.7 41.75 -27" />
<path style="fill:none;stroke-width:2;stroke-linecap:round;stroke-linejoin:round;stroke-miterlimit:3;stroke:#666666;stroke-opacity:1" d="M41.75,-27Q44.75 -19.35 47.75 -7.35L38.4 1.65L54.75 -3.7Q40.05 28.65 19.4 43.65Q39.75 -3.35 36.75 -34.35Q38.75 -34.7 41.75 -27z" />
<path style="fill:#000000;fill-opacity:1" d="M-26.1,-24.65Q-19.45 -28.65 -4.95 -30.7Q-16.25 1 1.05 42.65Q-2.6 60 -13.25 68.3Q-24.6 61.3 -31.6 52.3Q-43.6 72.3 -43.25 107.3L-57.95 107.3Q-56.95 83.65 -39.95 52.65Q-28.25 39.3 -33.6 9.3Q-38.25 -9.7 -36.8 -16Q-36.1 -17.35 -26.1 -24.65" />
<path style="fill:none;stroke-width:2;stroke-linecap:round;stroke-linejoin:round;stroke-miterlimit:3;stroke:#666666;stroke-opacity:1" d="M-36.8,-16Q-38.25 -9.7 -33.6 9.3Q-28.25 39.3 -39.95 52.65Q-56.95 83.65 -57.95 107.3L-43.25 107.3Q-43.6 72.3 -31.6 52.3Q-24.6 61.3 -13.25 68.3Q-2.6 60 1.05 42.65Q-16.25 1 -4.95 -30.7Q-19.45 -28.65 -26.1 -24.65Q-36.1 -17.35 -36.8 -16z" />
<path style="fill:#000000;fill-opacity:1" d="M-29.45,8Q-36.45 12.5 -39.45 35.65Q-57.1 36 -54.8 18.35L-60.1 19.35Q-64.8 4.65 -48.95 -11Q-34.6 -25 -27.95 -21.5L-29.45 8" />
<path style="fill:none;stroke-width:2;stroke-linecap:round;stroke-linejoin:round;stroke-miterlimit:3;stroke:#666666;stroke-opacity:1" d="M-27.95,-21.5Q-34.6 -25 -48.95 -11Q-64.8 4.65 -60.1 19.35L-54.8 18.35Q-57.1 36 -39.45 35.65Q-36.45 12.5 -29.45 8" />
<path style="fill:#000000;fill-opacity:1" d="M-3.25,-33.35Q-12.6 4.3 1.05 42.65Q-17.6 26.3 -28.25 -7L-12.6 1.65L-20.6 -9Q-13.25 -32.35 -3.25 -33.35" />
<path style="fill:none;stroke-width:2;stroke-linecap:round;stroke-linejoin:round;stroke-miterlimit:3;stroke:#666666;stroke-opacity:1" d="M-3.25,-33.35Q-12.6 4.3 1.05 42.65Q-17.6 26.3 -28.25 -7L-12.6 1.65L-20.6 -9Q-13.25 -32.35 -3.25 -33.35z" />
<path style="fill:#000000;fill-opacity:1" d="M-61.8,26.65L-68.8 18Q-63.1 5.35 -50.45 6L-61.8 26.65" />
<path style="fill:none;stroke-width:1;stroke-linecap:round;stroke-linejoin:round;stroke-miterlimit:3;stroke:#666666;stroke-opacity:1" d="M-50.45,6Q-63.1 5.35 -68.8 18L-61.8 26.65" />
<path style="fill:none;stroke-width:2;stroke-linecap:round;stroke-linejoin:round;stroke-miterlimit:3;stroke:#666666;stroke-opacity:1" d="M-41.2,19.05Q-40.25 24 -43.05 28.2Q-45.9 32.45 -50.9 33.4Q-55.9 34.4 -60.15 31.5Q-64.35 28.7 -65.3 23.75Q-66.25 18.75 -63.45 14.5Q-60.6 10.3 -55.6 9.3Q-50.6 8.35 -46.35 11.2Q-42.15 14.05 -41.2 19.05z" />
<path style="fill:#000000;fill-opacity:1" d="M53.2,11.05L59.55 -20.8Q75.9 -17.5 84.3 3.4Q97.7 28.8 81.05 36.45Q64.4 44.15 53.2 11.05" />
<path style="fill:none;stroke-width:2;stroke-linecap:round;stroke-linejoin:round;stroke-miterlimit:3;stroke:#666666;stroke-opacity:1" d="M59.55,-20.8Q75.9 -17.5 84.3 3.4Q97.7 28.8 81.05 36.45Q64.4 44.15 53.2 11.05" />
<path style="fill:#FFFFFF;fill-opacity:1" d="M-60.7,14.8Q-59.9 9.05 -53.45 10.05Q-46.85 11 -46.7 17.7L-60.7 14.8" />
<path style="fill:none;stroke-width:1;stroke-linecap:round;stroke-linejoin:round;stroke-miterlimit:3;stroke:#000000;stroke-opacity:1" d="M-46.7,17.7Q-46.85 11 -53.45 10.05Q-59.9 9.05 -60.7 14.8" />
<path style="fill:#000000;fill-opacity:1" d="M-116.2,37.1Q-112.05 45.75 -67.1 36.7L-66.8 36.65Q-21.7 28.15 -21.1 18.6Q-17.55 22.8 -30.85 32.75L-5.35 107.15Q-20.45 125.5 -48.6 129.9Q-82.45 136.5 -97.5 125.1L-101.8 46.55Q-117.9 42.35 -116.2 37.1" />
<path style="fill:none;stroke-width:1;stroke-linecap:round;stroke-linejoin:round;stroke-miterlimit:3;stroke:#000000;stroke-opacity:1" d="M-101.8,46.55L-97.5 125.1Q-82.45 136.5 -48.6 129.9Q-20.45 125.5 -5.35 107.15L-30.85 32.75Q-17.55 22.8 -21.1 18.6Q-21.7 28.15 -66.8 36.65L-67.1 36.7Q-112.05 45.75 -116.2 37.1Q-117.9 42.35 -101.8 46.55z" />
<path style="fill:#333333;fill-opacity:1" d="M-115.7,37.15Q-116.35 33.85 -102.95 28.75Q-89.55 23.65 -70 19.85Q-50.35 16 -36.1 15.75Q-21.7 15.45 -21.05 18.75Q-20.4 22.1 -33.85 27.2Q-47.2 32.2 -66.85 36.05Q-86.4 39.85 -100.7 40.2Q-115.05 40.5 -115.7 37.15" />
<path style="fill:none;stroke-width:1;stroke-linecap:round;stroke-linejoin:round;stroke-miterlimit:3;stroke:#000000;stroke-opacity:1" d="M-115.7,37.15Q-116.35 33.85 -102.95 28.75Q-89.55 23.65 -70 19.85Q-50.35 16 -36.1 15.75Q-21.7 15.45 -21.05 18.75Q-20.4 22.1 -33.85 27.2Q-47.2 32.2 -66.85 36.05Q-86.4 39.85 -100.7 40.2Q-115.05 40.5 -115.7 37.15z" />
<path style="fill:#000000;fill-opacity:1" d="M-42.9,27.05Q-52.55 30.55 -66.65 33.3Q-80.75 36.05 -91 36.4Q-101.25 36.75 -101.7 34.45Q-102.15 32.15 -92.55 28.6Q-82.9 25 -68.8 22.25Q-54.75 19.55 -44.45 19.25Q-34.15 18.9 -33.7 21.2Q-33.3 23.45 -42.9 27.05" />
<path style="fill:none;stroke-width:1;stroke-linecap:round;stroke-linejoin:round;stroke-miterlimit:3;stroke:#000000;stroke-opacity:1" d="M-42.9,27.05Q-52.55 30.55 -66.65 33.3Q-80.75 36.05 -91 36.4Q-101.25 36.75 -101.7 34.45Q-102.15 32.15 -92.55 28.6Q-82.9 25 -68.8 22.25Q-54.75 19.55 -44.45 19.25Q-34.15 18.9 -33.7 21.2Q-33.3 23.45 -42.9 27.05z" />
<path style="fill:#FFFFFF;fill-opacity:1" d="M-55.65,13.45Q-47.7 16.25 -51.5 20.15Q-53.05 19.15 -60.35 19.65Q-67.5 17.2 -59.7 12.6L-55.65 13.45" />
<path style="fill:none;stroke-width:1;stroke-linecap:round;stroke-linejoin:round;stroke-miterlimit:3;stroke:#000000;stroke-opacity:1" d="M-55.65,13.45Q-47.7 16.25 -51.5 20.15Q-53.05 19.15 -60.35 19.65Q-67.5 17.2 -59.7 12.6" />
<path style="fill:none;stroke-width:6;stroke-linecap:round;stroke-linejoin:round;stroke-miterlimit:3;stroke:#666666;stroke-opacity:1" d="M-39.95,39.55L-14.7 106.55" />
<path style="fill:#000000;fill-opacity:1" d="M57.65,-0.5Q61.75 -3.5 67.55 -3.5Q73.35 -3.5 77.45 -0.5Q81.55 2.5 81.55 6.75Q81.55 11 77.45 14Q73.35 17 67.55 17Q61.75 17 57.65 14Q53.55 11 53.55 6.75Q53.55 2.5 57.65 -0.5" />
<path style="fill:none;stroke-width:2;stroke-linecap:round;stroke-linejoin:round;stroke-miterlimit:3;stroke:#666666;stroke-opacity:1" d="M57.65,-0.5Q61.75 -3.5 67.55 -3.5Q73.35 -3.5 77.45 -0.5Q81.55 2.5 81.55 6.75Q81.55 11 77.45 14Q73.35 17 67.55 17Q61.75 17 57.65 14Q53.55 11 53.55 6.75Q53.55 2.5 57.65 -0.5z" />
<path style="fill:#000000;fill-opacity:1" d="M58.65,2.75Q63.3 0.7 68.95 1.95Q74.6 3.2 77.95 7.05Q81.3 10.85 80.4 15Q79.45 19.15 74.8 21.2Q70.15 23.25 64.5 22Q58.85 20.75 55.5 16.9Q52.15 13.1 53.05 8.95Q54 4.8 58.65 2.75" />
<path style="fill:none;stroke-width:2;stroke-linecap:round;stroke-linejoin:round;stroke-miterlimit:3;stroke:#666666;stroke-opacity:1" d="M58.65,2.75Q63.3 0.7 68.95 1.95Q74.6 3.2 77.95 7.05Q81.3 10.85 80.4 15Q79.45 19.15 74.8 21.2Q70.15 23.25 64.5 22Q58.85 20.75 55.5 16.9Q52.15 13.1 53.05 8.95Q54 4.8 58.65 2.75z" />
<path style="fill:#FFFFFF;fill-opacity:1" d="M73.8,20.15Q60 22.2 57.1 15.4Q58.2 10.5 59.35 8.15L73.8 20.15" />
<path style="fill:none;stroke-width:2;stroke-linecap:round;stroke-linejoin:round;stroke-miterlimit:3;stroke:#FFFFFF;stroke-opacity:1" d="M59.35,8.15Q58.2 10.5 57.1 15.4Q60 22.2 73.8 20.15" />
<path style="fill:#007FFF;fill-opacity:1" d="M-3.95,7.5L99.8 -4.3L100.55 2.15L-3.25 13.95L-3.95 7.5" />
<path style="fill:none;stroke-width:1;stroke-linecap:round;stroke-linejoin:round;stroke-miterlimit:3;stroke:#1CFFF4;stroke-opacity:1" d="M-3.95,7.5L99.8 -4.3L100.55 2.15L-3.25 13.95L-3.95 7.5z" />
<path style="fill:#007FFF;fill-opacity:1" d="M-5.95,5.45Q-4.25 5.3 -4.1 6.95L-3.25 14.55Q-3.15 15.2 -3.6 15.8Q-4.05 16.35 -4.75 16.4Q-5.4 16.5 -5.95 16.05L-6.6 14.9L-7.4 7.3Q-7.55 5.65 -5.95 5.45" />
<path style="fill:none;stroke-width:1;stroke-linecap:round;stroke-linejoin:round;stroke-miterlimit:3;stroke:#1CFFF4;stroke-opacity:1" d="M-5.95,5.45Q-4.25 5.3 -4.1 6.95L-3.25 14.55Q-3.15 15.2 -3.6 15.8Q-4.05 16.35 -4.75 16.4Q-5.4 16.5 -5.95 16.05L-6.6 14.9L-7.4 7.3Q-7.55 5.65 -5.95 5.45z" />
<path style="fill:#FFFF00;fill-opacity:1" d="M-19.45,7.3Q-17.5 4.85 -14.35 4.5Q-11.2 4.15 -8.75 6.1Q-6.3 8.1 -5.95 11.25Q-5.6 14.35 -7.6 16.85Q-9.55 19.3 -12.7 19.65Q-15.8 20 -18.3 18Q-20.75 16.05 -21.1 12.9Q-21.45 9.75 -19.45 7.3" />
<path style="fill:none;stroke-width:1;stroke-linecap:round;stroke-linejoin:round;stroke-miterlimit:3;stroke:#1CFFF4;stroke-opacity:1" d="M-19.45,7.3Q-17.5 4.85 -14.35 4.5Q-11.2 4.15 -8.75 6.1Q-6.3 8.1 -5.95 11.25Q-5.6 14.35 -7.6 16.85Q-9.55 19.3 -12.7 19.65Q-15.8 20 -18.3 18Q-20.75 16.05 -21.1 12.9Q-21.45 9.75 -19.45 7.3z" />
<path style="fill:#007FFF;fill-opacity:1" d="M102.4,-6.35Q102.95 -5.9 103 -5.25L103.8 2.4Q104 4 102.35 4.2Q101.65 4.3 101.15 3.85Q100.6 3.4 100.5 2.75L99.65 -4.9Q99.6 -5.55 100.05 -6.1Q100.45 -6.6 101.15 -6.7Q101.85 -6.75 102.4 -6.35" />
<path style="fill:none;stroke-width:1;stroke-linecap:round;stroke-linejoin:round;stroke-miterlimit:3;stroke:#1CFFF4;stroke-opacity:1" d="M101.15,-6.7Q100.45 -6.6 100.05 -6.1Q99.6 -5.55 99.65 -4.9L100.5 2.75Q100.6 3.4 101.15 3.85Q101.65 4.3 102.35 4.2Q104 4 103.8 2.4L103 -5.25Q102.95 -5.9 102.4 -6.35Q101.85 -6.75 101.15 -6.7z" />
<path style="fill:#FF0000;fill-opacity:1" d="M114.75,-7.85Q117.2 -5.85 117.55 -2.75Q117.9 0.4 115.9 2.9Q113.95 5.35 110.8 5.7Q107.65 6.05 105.2 4.05Q102.75 2.05 102.4 -1.05Q102.05 -4.2 104.05 -6.65Q106 -9.1 109.15 -9.5Q112.3 -9.85 114.75 -7.85" />
<path style="fill:none;stroke-width:1;stroke-linecap:round;stroke-linejoin:round;stroke-miterlimit:3;stroke:#1CFFF4;stroke-opacity:1" d="M109.15,-9.5Q106 -9.1 104.05 -6.65Q102.05 -4.2 102.4 -1.05Q102.75 2.05 105.2 4.05Q107.65 6.05 110.8 5.7Q113.95 5.35 115.9 2.9Q117.9 0.4 117.55 -2.75Q117.2 -5.85 114.75 -7.85Q112.3 -9.85 109.15 -9.5z" />
<path style="fill:#FFFFFF;fill-opacity:1" d="M77.9,16.95L71.95 19.85Q57.3 17.85 60.1 7.1L67.8 7.05L77.9 16.95" />
<path style="fill:none;stroke-width:2;stroke-linecap:round;stroke-linejoin:round;stroke-miterlimit:3;stroke:#000000;stroke-opacity:1" d="M67.8,7.05L60.1 7.1Q57.3 17.85 71.95 19.85L77.9 16.95L67.8 7.05z" />
<path style="fill:#FFFFFF;fill-opacity:1" d="M69.95,-1.8L68.25 -1.85Q62.2 5.35 59 -0.15Q57.7 -0.45 61.85 -5.3Q66 -10.2 70.5 -5.75L75.5 -2.25L69.95 -1.8" />
<path style="fill:none;stroke-width:2;stroke-linecap:round;stroke-linejoin:round;stroke-miterlimit:3;stroke:#000000;stroke-opacity:1" d="M69.95,-1.8L68.25 -1.85Q62.2 5.35 59 -0.15Q57.7 -0.45 61.85 -5.3Q66 -10.2 70.5 -5.75L75.5 -2.25" />
<path style="fill:#FFFFFF;fill-opacity:1" d="M80.55,18.7Q80.05 23.2 74.15 21.7Q64.8 19.8 66.9 14.2L80.55 18.7" />
<path style="fill:none;stroke-width:1;stroke-linecap:round;stroke-linejoin:round;stroke-miterlimit:3;stroke:#000000;stroke-opacity:1" d="M66.9,14.2Q64.8 19.8 74.15 21.7Q80.05 23.2 80.55 18.7" />
<path style="fill:#FFFFFF;fill-opacity:1" d="M81.8,13.4Q84.1 18.1 81.5 19.1Q73.4 21.75 68.5 16.35Q63 10.65 67.15 10.3L81.8 13.4" />
<path style="fill:none;stroke-width:2;stroke-linecap:round;stroke-linejoin:round;stroke-miterlimit:3;stroke:#000000;stroke-opacity:1" d="M67.15,10.3Q63 10.65 68.5 16.35Q73.4 21.75 81.5 19.1Q84.1 18.1 81.8 13.4" />
<path style="fill:#FFFFFF;fill-opacity:1" d="M82.15,8.5Q87.35 14.05 81.15 15.7Q74.45 18.55 68.9 12.9Q62.15 5.9 67.95 5.9L82.15 8.5" />
<path style="fill:none;stroke-width:2;stroke-linecap:round;stroke-linejoin:round;stroke-miterlimit:3;stroke:#000000;stroke-opacity:1" d="M67.95,5.9Q62.15 5.9 68.9 12.9Q74.45 18.55 81.15 15.7Q87.35 14.05 82.15 8.5" />
<path style="fill:#FFFFFF;fill-opacity:1" d="M80.5,3.8Q84.55 5.4 83.45 8.05Q76 14.75 70.55 13.05Q67.8 11.75 59.35 8.15Q50.85 8.9 51.1 6.15Q53.3 -0.55 60.6 2.6Q68.7 5.45 73.55 6.5L80.5 3.8" />
<path style="fill:none;stroke-width:2;stroke-linecap:round;stroke-linejoin:round;stroke-miterlimit:3;stroke:#000000;stroke-opacity:1" d="M73.55,6.5Q68.7 5.45 60.6 2.6Q53.3 -0.55 51.1 6.15Q50.85 8.9 59.35 8.15Q67.8 11.75 70.55 13.05Q76 14.75 83.45 8.05Q84.55 5.4 80.5 3.8" />
</g>
</svg>
