<?xml version="1.0" encoding="utf-8"?>
<svg version="1.1" id="Layer_1"
xmlns="http://www.w3.org/2000/svg"
xmlns:xlink="http://www.w3.org/1999/xlink"
xmlns:author="http://www.sothink.com"
width="129px" height="177px"
xml:space="preserve">
<g id="49" transform="matrix(1, 0, 0, 1, 64.1, 88.1)">
<path style="fill:#FFFFFF;fill-opacity:1" d="M32.75,-85.8Q61.15 -82.8 62.45 -75.3L33.45 -75.3L6.25 -84.05Q12 -88 32.75 -85.8" />
<path style="fill:none;stroke-width:3;stroke-linecap:round;stroke-linejoin:round;stroke-miterlimit:3;stroke:#000000;stroke-opacity:1" d="M32.75,-85.8Q61.15 -82.8 62.45 -75.3L33.45 -75.3L6.25 -84.05Q12 -88 32.75 -85.8z" />
<path style="fill:#FFFFFF;fill-opacity:1" d="M-0.35,-56.9Q0.45 -67.7 8.05 -75.3L56.85 -71.7Q60.45 -63.7 60.85 -57.3Q61.25 -50.85 60.45 -42.85Q59.4 -32.2 56.45 -24.5Q51.7 -11.9 54.05 2.3L55.1 8.8L57.65 19.8Q60.05 28.8 56.45 41.9Q53.85 51.35 41.2 56.85Q36.95 58.65 32.1 59.8L26.85 60.7Q11.4 61.65 0.65 67.5Q-14.95 78.3 -35.55 85.5Q-54.85 90.3 -61.15 75.1Q-66.5 62.05 -52.3 49.25Q-47.4 44.85 -39.05 39.5L-26.35 31.5Q-16.6 25 -11.45 15.75Q-7.8 9.2 -5.55 -0.9Q-4.05 -7.7 -2.35 -28.9L-0.35 -56.9" />
<path style="fill:none;stroke-width:3;stroke-linecap:round;stroke-linejoin:round;stroke-miterlimit:3;stroke:#000000;stroke-opacity:1" d="M-2.35,-28.9Q-4.05 -7.7 -5.55 -0.9Q-7.8 9.2 -11.45 15.75Q-16.6 25 -26.35 31.5L-39.05 39.5Q-47.4 44.85 -52.3 49.25Q-66.5 62.05 -61.15 75.1Q-54.85 90.3 -35.55 85.5Q-14.95 78.3 0.65 67.5Q11.4 61.65 26.85 60.7L32.1 59.8Q36.95 58.65 41.2 56.85Q53.85 51.35 56.45 41.9Q60.05 28.8 57.65 19.8L55.1 8.8L54.05 2.3Q51.7 -11.9 56.45 -24.5Q59.4 -32.2 60.45 -42.85Q61.25 -50.85 60.85 -57.3Q60.45 -63.7 56.85 -71.7L8.05 -75.3Q0.45 -67.7 -0.35 -56.9L-2.35 -28.9z" />
<path style="fill:#FFFFFF;fill-opacity:1" d="M48.9,-67.1L31.25 -67.8Q26.6 -68.4 15.35 -71.1Q7.95 -72.7 5.85 -73.95Q2.7 -75.8 3.45 -79.9Q5.05 -88.7 13.85 -84.5Q23.45 -80.2 38.35 -79.2Q43.2 -78.9 49.55 -78.9L58.05 -78.9Q60.45 -78.85 61.6 -77.2Q62.65 -75.75 62.5 -73.6Q62.3 -71.55 61.2 -69.95Q59.95 -68.25 58.25 -68.1L48.9 -67.1" />
<path style="fill:none;stroke-width:3;stroke-linecap:round;stroke-linejoin:round;stroke-miterlimit:3;stroke:#000000;stroke-opacity:1" d="M58.25,-68.1Q59.95 -68.25 61.2 -69.95Q62.3 -71.55 62.5 -73.6Q62.65 -75.75 61.6 -77.2Q60.45 -78.85 58.05 -78.9L49.55 -78.9Q43.2 -78.9 38.35 -79.2Q23.45 -80.2 13.85 -84.5Q5.05 -88.7 3.45 -79.9Q2.7 -75.8 5.85 -73.95Q7.95 -72.7 15.35 -71.1Q26.6 -68.4 31.25 -67.8L48.9 -67.1L58.25 -68.1z" />
<path style="fill:#FFFFFF;fill-opacity:1" d="M-46.95,45.4L-24.15 81Q-42.55 71.4 -46.95 45.4" />
<path style="fill:none;stroke-width:3;stroke-linecap:round;stroke-linejoin:round;stroke-miterlimit:3;stroke:#000000;stroke-opacity:1" d="M-24.15,81Q-42.55 71.4 -46.95 45.4" />
<path style="fill:#FFFFFF;fill-opacity:1" d="M28.85,60.6Q33.05 31.8 26.45 21.6Q34.85 21 55.25 12L28.85 60.6" />
<path style="fill:none;stroke-width:3;stroke-linecap:round;stroke-linejoin:round;stroke-miterlimit:3;stroke:#000000;stroke-opacity:1" d="M28.85,60.6Q33.05 31.8 26.45 21.6Q34.85 21 55.25 12" />
<path style="fill:none;stroke-width:2;stroke-linecap:round;stroke-linejoin:round;stroke-miterlimit:3;stroke:#000000;stroke-opacity:1" d="M11.85,-84.7Q6.15 -81.4 7.85 -73.4" />
<path style="fill:none;stroke-width:2;stroke-linecap:round;stroke-linejoin:round;stroke-miterlimit:3;stroke:#000000;stroke-opacity:1" d="M15.75,-83.4Q10.25 -77.15 12.75 -71.9" />
<path style="fill:none;stroke-width:2;stroke-linecap:round;stroke-linejoin:round;stroke-miterlimit:3;stroke:#000000;stroke-opacity:1" d="M20,-81.9Q15.5 -76.4 17.25 -70.65" />
<path style="fill:none;stroke-width:2;stroke-linecap:round;stroke-linejoin:round;stroke-miterlimit:3;stroke:#000000;stroke-opacity:1" d="M24,-80.4Q20 -73.65 22 -69.4" />
<path style="fill:none;stroke-width:2;stroke-linecap:round;stroke-linejoin:round;stroke-miterlimit:3;stroke:#000000;stroke-opacity:1" d="M28.5,-79.4Q25.75 -72.9 26.25 -69.15" />
<path style="fill:none;stroke-width:2;stroke-linecap:round;stroke-linejoin:round;stroke-miterlimit:3;stroke:#000000;stroke-opacity:1" d="M33.5,-78.4L31.25 -67.8" />
<path style="fill:none;stroke-width:2;stroke-linecap:round;stroke-linejoin:round;stroke-miterlimit:3;stroke:#000000;stroke-opacity:1" d="M39,-78.65Q38.75 -69.15 37 -66.65" />
<path style="fill:none;stroke-width:2;stroke-linecap:round;stroke-linejoin:round;stroke-miterlimit:3;stroke:#000000;stroke-opacity:1" d="M44,-78.4Q44.75 -70.15 41.75 -66.9" />
<path style="fill:none;stroke-width:2;stroke-linecap:round;stroke-linejoin:round;stroke-miterlimit:3;stroke:#000000;stroke-opacity:1" d="M49.25,-78.15Q51 -72.4 48 -66.4" />
<path style="fill:none;stroke-width:2;stroke-linecap:round;stroke-linejoin:round;stroke-miterlimit:3;stroke:#000000;stroke-opacity:1" d="M54.5,-78.15Q56.25 -71.4 53 -67.15" />
<path style="fill:#FFFFFF;fill-opacity:1" d="M33.6,25.6Q47.25 23.3 56.9 17.6L33.9 59.95Q37.6 36.95 33.6 25.6" />
<path style="fill:none;stroke-width:2;stroke-linecap:round;stroke-linejoin:round;stroke-miterlimit:3;stroke:#000000;stroke-opacity:1" d="M35.65,37.1L35.7 41.15M34.95,30.95L35.5 35.05M34.3,25.5L33.6 25.6L34.55 28.9M40.25,24.2L36.3 25.1M34.6,55.35L34 59.45M35.25,49.3L34.8 53.3M35.65,43.2L35.45 47.25M51.6,20.35L47.9 21.85M56.9,17.6L53.4 19.5M46,22.55L42.25 23.7" />
<path style="fill:none;stroke-width:2;stroke-linecap:round;stroke-linejoin:round;stroke-miterlimit:3;stroke:#000000;stroke-opacity:1" d="M-50.5,50.15L-50.85 47.35M-49.35,56.15L-50.2 52.15M-47.55,61.85L-48.85 58.05M-45,67.2L-46.8 63.65M-41.65,72.1L-43.95 68.9M-33.05,80.15L-36.2 77.75M-28,83.1L-31.4 81.2M-37.65,76.45L-40.4 73.6" />
</g>
</svg>
