<?xml version="1.0" encoding="UTF-8"?>
<svg xmlns="http://www.w3.org/2000/svg" xmlns:xlink="http://www.w3.org/1999/xlink" width="160pt" height="88pt" viewBox="0 0 160 88" version="1.1">
<g id="surface1">
<path style=" stroke:none;fill-rule:nonzero;fill:rgb(0%,0%,0%);fill-opacity:1;" d="M 122.800781 45.199219 C 119.332031 47.066406 116.734375 48 115 48 L 51.800781 50.199219 L 30 50.398438 L 20.199219 49.398438 L 10.601562 50.199219 L 2.398438 51.199219 C -0.933594 50.800781 -0.800781 49.867188 2.800781 48.398438 C 8.933594 45.734375 16.535156 44.398438 25.601562 44.398438 L 48.800781 45 L 123.601562 42.398438 C 126.535156 42.398438 126.265625 43.332031 122.800781 45.199219 "/>
<path style=" stroke:none;fill-rule:nonzero;fill:rgb(0%,0%,0%);fill-opacity:1;" d="M 154.601562 46.199219 C 144.464844 50.867188 133.464844 56.867188 121.601562 64.199219 C 114.800781 68.332031 104.398438 75.132812 90.398438 84.601562 L 81.398438 85 C 78.199219 83.398438 78.332031 81.398438 81.800781 79 L 114.601562 57.601562 C 123.535156 52 132.066406 47.199219 140.199219 43.199219 L 113 28 L 80.199219 8.199219 C 77.265625 6.464844 77.667969 4.464844 81.398438 2.199219 C 85 -0.0664062 88.066406 -0.535156 90.601562 0.800781 L 123.199219 20.601562 L 156.800781 39 C 158.535156 39.800781 158.933594 41.132812 158 43 L 154.601562 46.199219 "/>
</g>
</svg>
