<?xml version="1.0" encoding="UTF-8"?>
<svg xmlns="http://www.w3.org/2000/svg" xmlns:xlink="http://www.w3.org/1999/xlink" width="276pt" height="348pt" viewBox="0 0 276 348" version="1.1">
<g id="surface1">
<path style=" stroke:none;fill-rule:nonzero;fill:rgb(100%,100%,100%);fill-opacity:1;" d="M 106.800781 180.199219 L 177.199219 180.199219 L 177.199219 338.800781 L 106.800781 338.800781 L 106.800781 180.199219 "/>
<path style=" stroke:none;fill-rule:nonzero;fill:rgb(0%,0%,0%);fill-opacity:1;" d="M 108.398438 177.800781 L 178.601562 177.800781 C 180.199219 177.800781 181 178.464844 181 179.800781 L 181 338.398438 C 181 340 179.734375 340.933594 177.199219 341.199219 L 175.800781 341.398438 L 105.398438 341.398438 C 103.800781 341.398438 103 340.667969 103 339.199219 L 103 180.601562 C 103 178.734375 104.800781 177.800781 108.398438 177.800781 M 110.800781 336.398438 L 173.199219 336.398438 L 173.199219 182.601562 L 110.800781 182.601562 L 110.800781 336.398438 "/>
<path style=" stroke:none;fill-rule:nonzero;fill:rgb(80%,80%,80%);fill-opacity:1;" d="M 102 185 L 172.398438 185 L 172.398438 343.800781 L 102 343.800781 L 102 185 "/>
<path style=" stroke:none;fill-rule:nonzero;fill:rgb(0%,0%,0%);fill-opacity:1;" d="M 103.601562 182.800781 L 173.800781 182.800781 C 175.398438 182.800781 176.199219 183.398438 176.199219 184.601562 L 176.199219 343.199219 C 176.199219 344.535156 174.933594 345.398438 172.398438 345.800781 L 172.199219 346 L 100.601562 346 C 99 346 98.199219 345.398438 98.199219 344.199219 L 98.199219 185.398438 C 98.199219 183.667969 100 182.800781 103.601562 182.800781 M 106 341.398438 L 168.398438 341.398438 L 168.398438 187.199219 L 106 187.199219 L 106 341.398438 "/>
<path style=" stroke:none;fill-rule:nonzero;fill:rgb(100%,100%,100%);fill-opacity:1;" d="M 137.199219 31.199219 C 166.398438 31.199219 191.332031 41.535156 212 62.199219 C 232.667969 82.867188 243 107.800781 243 137 C 243 166.332031 232.667969 191.332031 212 212 C 191.332031 232.667969 166.398438 243 137.199219 243 C 107.867188 243 82.867188 232.667969 62.199219 212 C 41.535156 191.332031 31.199219 166.332031 31.199219 137 C 31.199219 107.800781 41.535156 82.867188 62.199219 62.199219 C 82.867188 41.535156 107.867188 31.199219 137.199219 31.199219 "/>
<path style=" stroke:none;fill-rule:nonzero;fill:rgb(100%,100%,0%);fill-opacity:1;" d="M 6 97.398438 C 12.667969 75.132812 24.199219 55.933594 40.601562 39.800781 C 56.867188 23.535156 76.132812 12.132812 98.398438 5.601562 C 110.800781 1.867188 123.734375 0 137.199219 0 C 165.601562 0 191.464844 8 214.800781 24 C 233.464844 36.800781 248 53.199219 258.398438 73.199219 C 268.933594 93.199219 274.199219 114.464844 274.199219 137 L 274.199219 143.199219 C 273.132812 167.332031 266.066406 189.734375 253 210.398438 C 239.800781 230.933594 222.535156 246.867188 201.199219 258.199219 C 181.066406 268.867188 159.734375 274.199219 137.199219 274.199219 C 116.398438 274.199219 96.667969 269.734375 78 260.800781 C 59.464844 251.867188 43.601562 239.265625 30.398438 223 C 20.535156 210.734375 13 197.265625 7.800781 182.601562 C 2.601562 167.800781 0 152.601562 0 137 C 0 123.398438 2 110.199219 6 97.398438 "/>
<path style=" stroke:none;fill-rule:nonzero;fill:rgb(0%,0%,0%);fill-opacity:1;" d="M 137.199219 11.199219 C 163.066406 11.199219 186.800781 18.601562 208.398438 33.398438 C 225.464844 45.132812 238.800781 60.132812 248.398438 78.398438 C 258.132812 96.800781 263 116.332031 263 137 L 262.800781 142.601562 C 261.867188 164.734375 255.398438 185.265625 243.398438 204.199219 C 231.398438 223.132812 215.601562 237.800781 196 248.199219 C 177.734375 257.933594 158.132812 262.800781 137.199219 262.800781 C 118.132812 262.800781 100 258.667969 82.800781 250.398438 C 65.734375 242.265625 51.199219 230.734375 39.199219 215.800781 C 30.265625 204.734375 23.398438 192.398438 18.601562 178.800781 C 13.800781 165.199219 11.398438 151.265625 11.398438 137 C 11.398438 124.601562 13.199219 112.464844 16.800781 100.601562 C 22.933594 80.332031 33.464844 62.734375 48.398438 47.800781 C 63.464844 32.867188 81.199219 22.398438 101.601562 16.398438 C 113.464844 12.933594 125.332031 11.199219 137.199219 11.199219 "/>
<path style=" stroke:none;fill-rule:nonzero;fill:rgb(100%,100%,100%);fill-opacity:1;" d="M 25 103 C 30.734375 84.066406 40.601562 67.667969 54.601562 53.800781 C 68.601562 39.933594 85.066406 30.199219 104 24.601562 C 114.800781 21.398438 125.867188 19.800781 137.199219 19.800781 C 161.734375 19.800781 183.800781 26.667969 203.398438 40.398438 C 219.398438 51.332031 231.933594 65.332031 241 82.398438 C 249.933594 99.464844 254.398438 117.667969 254.398438 137 L 254.199219 142.398438 C 253.265625 163.066406 247.265625 182.132812 236.199219 199.601562 C 225 217.199219 210.265625 230.867188 192 240.601562 C 175.066406 249.667969 156.800781 254.199219 137.199219 254.199219 C 119.332031 254.199219 102.464844 250.398438 86.601562 242.800781 C 70.601562 235.199219 57 224.398438 45.800781 210.398438 C 37.535156 200.132812 31.132812 188.667969 26.601562 176 C 22.199219 163.332031 20 150.332031 20 137 C 20 125.132812 21.667969 113.800781 25 103 "/>
<path style=" stroke:none;fill-rule:nonzero;fill:rgb(92.54902%,10.980392%,14.117647%);fill-opacity:1;" d="M 90.199219 114.398438 C 72.867188 143.332031 61 173 54.601562 203.398438 C 39 183.933594 31.199219 161.800781 31.199219 137 C 31.199219 126.464844 32.734375 116.265625 35.800781 106.398438 C 46.464844 88 61.933594 74.398438 82.199219 65.601562 C 98.464844 58.667969 113.800781 55.933594 128.199219 57.398438 L 127.800781 59.601562 C 127.800781 61.867188 128.734375 64.066406 130.601562 66.199219 C 118.734375 73.132812 105.265625 89.199219 90.199219 114.398438 "/>
<path style=" stroke:none;fill-rule:nonzero;fill:rgb(100%,50.196078%,0%);fill-opacity:1;" d="M 82.199219 65.601562 C 61.933594 74.398438 46.464844 88 35.800781 106.398438 C 40.867188 89.464844 49.800781 74.667969 62.601562 62 C 75.265625 49.332031 90.132812 40.464844 107.199219 35.398438 C 114.800781 35.398438 121.265625 36.933594 126.601562 40 C 131.265625 42.667969 134.535156 46.132812 136.398438 50.398438 C 134.398438 50.535156 132.667969 51.265625 131.199219 52.601562 C 129.601562 53.933594 128.601562 55.535156 128.199219 57.398438 C 113.800781 55.933594 98.464844 58.667969 82.199219 65.601562 "/>
<path style=" stroke:none;fill-rule:nonzero;fill:rgb(92.54902%,10.980392%,14.117647%);fill-opacity:1;" d="M 126.601562 40 C 121.265625 36.933594 114.800781 35.398438 107.199219 35.398438 C 116.800781 32.601562 126.800781 31.199219 137.199219 31.199219 C 159.199219 31.199219 179.132812 37.398438 197 49.800781 C 187.800781 47.132812 177.601562 46.132812 166.398438 46.800781 C 155.734375 47.464844 148 49.332031 143.199219 52.398438 C 141.199219 50.933594 139.199219 50.199219 137.199219 50.199219 L 136.398438 50.398438 C 134.535156 46.132812 131.265625 42.667969 126.601562 40 "/>
<path style=" stroke:none;fill-rule:nonzero;fill:rgb(100%,50.196078%,0%);fill-opacity:1;" d="M 142.199219 67.398438 C 152.066406 80.867188 161.265625 100.667969 169.800781 126.800781 C 181 161.066406 186.601562 195.667969 186.601562 230.601562 C 171.132812 238.867188 154.667969 243 137.199219 243 C 120.800781 243 105.265625 239.398438 90.601562 232.199219 C 76.464844 225.265625 64.464844 215.667969 54.601562 203.398438 C 61 173 72.867188 143.332031 90.199219 114.398438 C 105.265625 89.199219 118.734375 73.132812 130.601562 66.199219 C 132.601562 67.933594 134.800781 68.800781 137.199219 68.800781 L 142.199219 67.398438 "/>
<path style=" stroke:none;fill-rule:nonzero;fill:rgb(92.54902%,10.980392%,14.117647%);fill-opacity:1;" d="M 199.398438 80.601562 C 220.734375 96.199219 235.265625 116.601562 243 141.800781 C 242.066406 160.867188 236.464844 178.398438 226.199219 194.398438 C 216.199219 209.867188 203 221.933594 186.601562 230.601562 C 186.601562 195.667969 181 161.066406 169.800781 126.800781 C 161.265625 100.667969 152.066406 80.867188 142.199219 67.398438 C 145 65.667969 146.398438 63.066406 146.398438 59.601562 C 163.867188 60.398438 181.535156 67.398438 199.398438 80.601562 "/>
<path style=" stroke:none;fill-rule:nonzero;fill:rgb(100%,50.196078%,0%);fill-opacity:1;" d="M 230.398438 87 C 238.800781 102.601562 243 119.265625 243 137 L 243 141.800781 C 235.265625 116.601562 220.734375 96.199219 199.398438 80.601562 C 181.535156 67.398438 163.867188 60.398438 146.398438 59.601562 C 146.398438 56.667969 145.332031 54.265625 143.199219 52.398438 C 148 49.332031 155.734375 47.464844 166.398438 46.800781 C 177.601562 46.132812 187.800781 47.132812 197 49.800781 C 211.132812 59.535156 222.265625 71.933594 230.398438 87 "/>
<path style=" stroke:none;fill-rule:nonzero;fill:rgb(76.078431%,15.294118%,17.647059%);fill-opacity:1;" d="M 137.199219 50.199219 C 139.199219 50.199219 141.199219 50.933594 143.199219 52.398438 C 145.332031 54.265625 146.398438 56.667969 146.398438 59.601562 C 146.398438 63.066406 145 65.667969 142.199219 67.398438 L 137.199219 68.800781 C 134.800781 68.800781 132.601562 67.933594 130.601562 66.199219 C 128.734375 64.066406 127.800781 61.867188 127.800781 59.601562 L 128.199219 57.398438 C 128.601562 55.535156 129.601562 53.933594 131.199219 52.601562 C 132.667969 51.265625 134.398438 50.535156 136.398438 50.398438 L 137.199219 50.199219 "/>
</g>
</svg>
