<?xml version="1.0" encoding="UTF-8"?>
<svg xmlns="http://www.w3.org/2000/svg" xmlns:xlink="http://www.w3.org/1999/xlink" width="312pt" height="360pt" viewBox="0 0 312 360" version="1.1">
<g id="surface1">
<path style=" stroke:none;fill-rule:nonzero;fill:rgb(100%,100%,100%);fill-opacity:1;" d="M 131.800781 191.199219 L 202 191.199219 L 202 349.800781 L 131.800781 349.800781 L 131.800781 191.199219 "/>
<path style=" stroke:none;fill-rule:nonzero;fill:rgb(0%,0%,0%);fill-opacity:1;" d="M 142.199219 348.199219 L 198.199219 348.199219 L 198.199219 192.398438 L 191.601562 192.800781 L 135.601562 192.800781 L 135.601562 348.800781 L 142.199219 348.199219 M 133.398438 189.398438 L 203.601562 189.398438 C 205.066406 189.398438 205.800781 189.667969 205.800781 190.199219 L 205.800781 348.800781 C 205.800781 349.867188 204.535156 350.734375 202 351.398438 L 198.800781 351.601562 L 130.199219 351.601562 L 127.800781 351 L 127.800781 192.199219 C 127.800781 191.265625 128.535156 190.535156 130 190 L 133.398438 189.398438 "/>
<path style=" stroke:none;fill-rule:nonzero;fill:rgb(80%,80%,80%);fill-opacity:1;" d="M 126.800781 196 L 197.199219 196 L 197.199219 354.800781 L 126.800781 354.800781 L 126.800781 196 "/>
<path style=" stroke:none;fill-rule:nonzero;fill:rgb(0%,0%,0%);fill-opacity:1;" d="M 130.800781 352.398438 L 193.199219 352.398438 L 193.199219 198.398438 L 130.800781 198.398438 L 130.800781 352.398438 M 125.199219 194.199219 L 128.398438 193.601562 L 198.601562 193.601562 C 200.199219 193.601562 201 194.265625 201 195.601562 L 201 354.199219 C 201 355.667969 199.734375 356.601562 197.199219 357 L 125.398438 357 C 123.800781 357 123 356.398438 123 355.199219 L 123 196.398438 C 123 195.464844 123.734375 194.734375 125.199219 194.199219 "/>
<path style=" stroke:none;fill-rule:nonzero;fill:rgb(100%,94.509804%,0%);fill-opacity:1;" d="M 101.800781 1.398438 C 125.800781 1.398438 148.667969 10.933594 170.398438 30 L 193.398438 52 L 212.800781 71 C 219.867188 77.398438 225.867188 82.066406 230.800781 85 C 234.535156 87.132812 238.199219 88.535156 241.800781 89.199219 L 254.601562 90.199219 L 281 90.398438 C 286.734375 90.667969 291.933594 92.332031 296.601562 95.398438 C 301.265625 98.601562 304.800781 102.734375 307.199219 107.800781 C 311.601562 117.265625 311.132812 129.601562 305.800781 144.800781 C 303.132812 152.398438 299.933594 159.066406 296.199219 164.800781 L 289 174.601562 C 277.132812 190.464844 267.601562 201.800781 260.398438 208.601562 C 247.867188 220.464844 234.066406 228.800781 219 233.601562 L 219.199219 241.601562 C 219.199219 249.199219 216.667969 255.734375 211.601562 261.199219 C 206.535156 266.535156 200.265625 269.464844 192.800781 270 L 190 270.199219 L 180.800781 272.800781 L 172 274.199219 L 162 272.398438 L 154.601562 273.601562 L 145.398438 276.199219 L 136.601562 277.601562 C 130.464844 277.601562 124.867188 275.800781 119.800781 272.199219 C 114.867188 268.601562 111.464844 263.867188 109.601562 258 C 108.265625 253.734375 107.933594 249.332031 108.601562 244.800781 C 109.265625 240.398438 110.933594 236.398438 113.601562 232.800781 L 115.398438 226.800781 C 95.398438 218.667969 79.066406 207.464844 66.398438 193.199219 C 59.464844 185.332031 53.601562 175.800781 48.800781 164.601562 C 46 157.800781 42.933594 148.398438 39.601562 136.398438 L 39.601562 136 L 34.800781 120.199219 C 19.199219 117 8.800781 108.933594 3.601562 96 C 0.535156 88.265625 0.734375 80.667969 4.199219 73.199219 C 7.667969 65.734375 13.464844 60.734375 21.601562 58.199219 L 26 57.199219 C 27.199219 51.734375 28.734375 47.398438 30.601562 44.199219 C 45.265625 18.867188 65.332031 4.800781 90.800781 2 L 101.800781 1.398438 "/>
<path style=" stroke:none;fill-rule:nonzero;fill:rgb(100%,100%,100%);fill-opacity:1;" d="M 159.601562 20 C 164.265625 23.464844 181 38.667969 209.800781 65.601562 C 218.867188 74.132812 227.199219 80.066406 234.800781 83.398438 C 243.199219 87.265625 253.199219 89.132812 264.800781 89 L 290 91.398438 C 298 93.800781 304.332031 99 309 107 L 309.199219 107.800781 C 311.734375 114.734375 312.464844 122.199219 311.398438 130.199219 C 310.464844 136.601562 308.199219 144 304.601562 152.398438 C 298.464844 166.933594 289.199219 181.199219 276.800781 195.199219 C 263.867188 209.734375 250.734375 220.332031 237.398438 227 C 232.464844 229 228.867188 230.667969 226.601562 232 C 222.867188 234.265625 221 237.332031 221 241.199219 C 221.132812 244 220.464844 247.601562 219 252 L 215 259.398438 L 208.800781 265.199219 C 203.601562 268.398438 197.601562 271 190.800781 273 C 183.332031 275.132812 176.867188 275.933594 171.398438 275.398438 L 168.199219 275.398438 L 180.601562 271.800781 L 190.199219 269.199219 C 200.601562 268.265625 207.933594 264.398438 212.199219 257.601562 C 215.800781 252 217.398438 244.199219 217 234.199219 C 217 233.535156 217.398438 233.066406 218.199219 232.800781 C 246.867188 222.667969 272.265625 200 294.398438 164.800781 C 300.132812 155.601562 304.066406 146.535156 306.199219 137.601562 C 308.734375 126.800781 308.398438 117.066406 305.199219 108.398438 L 305.199219 108.199219 C 299.464844 98.734375 290.332031 93.265625 277.800781 91.800781 L 243.398438 90.800781 C 235.398438 90 226.734375 85.800781 217.398438 78.199219 L 196.398438 57.601562 C 180 40.933594 168.332031 29.933594 161.398438 24.601562 C 146.867188 13.265625 132.535156 6.464844 118.398438 4.199219 C 98.132812 0.867188 79.535156 3.867188 62.601562 13.199219 C 44.867188 22.933594 33.332031 37.535156 28 57 L 26.199219 58.199219 C 6.464844 62.867188 -0.933594 73.464844 4 90 C 6 96.667969 9.734375 102.734375 15.199219 108.199219 C 20.933594 113.800781 27.066406 117.265625 33.601562 118.601562 C 36.667969 119.265625 38.933594 122.332031 40.398438 127.800781 L 43 140.601562 C 49 161.265625 57.867188 178.464844 69.601562 192.199219 C 81.734375 206.332031 97.535156 217.535156 117 225.800781 L 117.398438 226.601562 L 111 249.199219 C 110.066406 258 113 264.867188 119.800781 269.800781 C 126.066406 274.332031 133.199219 276.199219 141.199219 275.398438 L 162.398438 271.398438 C 164 271.132812 163.933594 271.601562 162.199219 272.800781 C 159.667969 274.667969 158.265625 275.800781 158 276.199219 L 145.601562 277.398438 C 135.464844 278.734375 127.132812 277.800781 120.601562 274.601562 C 117.800781 273.132812 115.132812 270.867188 112.601562 267.800781 C 109.933594 264.601562 108.332031 261.464844 107.800781 258.398438 L 108.601562 240.601562 C 109.265625 230.734375 109.132812 225.601562 108.199219 225.199219 C 83.933594 213.734375 65.734375 198.265625 53.601562 178.800781 C 49.464844 172.132812 45.800781 163.535156 42.601562 153 L 34.601562 125.800781 C 33.667969 123.265625 30.734375 120.867188 25.800781 118.601562 L 14.398438 113.398438 L 6.601562 106 C 4.199219 102.800781 2.535156 99.667969 1.601562 96.601562 C -0.535156 89.265625 -0.535156 82.199219 1.601562 75.398438 C 4 67.800781 8.601562 62.535156 15.398438 59.601562 C 19.800781 57.734375 23.667969 54.066406 27 48.601562 L 35.398438 34.199219 C 41.265625 26.601562 46.535156 21 51.199219 17.398438 C 64.667969 7.398438 79.800781 1.734375 96.601562 0.398438 C 117.933594 -1.464844 138.933594 5.066406 159.601562 20 M 158 276.199219 L 168.199219 275.398438 L 157.800781 276.199219 L 158 276.199219 "/>
<path style=" stroke:none;fill-rule:nonzero;fill:rgb(0%,0%,0%);fill-opacity:1;" d="M 101.800781 12.601562 C 122.867188 12.601562 143.265625 21.199219 163 38.398438 L 185.398438 60 C 203.265625 78.132812 216.464844 89.734375 225 94.800781 C 229.667969 97.464844 234.398438 99.332031 239.199219 100.398438 L 254.601562 101.601562 L 280.601562 101.601562 C 284.066406 101.867188 287.265625 102.933594 290.199219 104.800781 C 293.132812 106.800781 295.332031 109.398438 296.800781 112.601562 C 300 119.398438 299.398438 129 295 141.398438 L 287.199219 158.199219 L 279.800781 167.800781 C 267.667969 184.066406 257.800781 195.601562 250.199219 202.398438 C 237.535156 213.867188 223.265625 221.398438 207.398438 225 L 207.800781 241.800781 C 207.800781 246.332031 206.199219 250.265625 203 253.601562 C 199.933594 256.933594 196.132812 258.667969 191.601562 258.800781 L 189.601562 259 L 188.800781 258.800781 L 177.398438 262 L 172 263 C 168.667969 263 165.535156 262 162.601562 260 C 159.933594 261.464844 157.132812 262.199219 154.199219 262.199219 L 153.398438 262.199219 L 141.800781 265.398438 L 136.601562 266.199219 C 132.867188 266.199219 129.535156 265.132812 126.601562 263 C 123.667969 260.734375 121.601562 257.867188 120.398438 254.398438 C 119.464844 251.464844 119.332031 248.464844 120 245.398438 C 120.800781 242.332031 122.265625 239.667969 124.398438 237.398438 L 126 230.800781 C 128.265625 226.265625 131.800781 223.265625 136.601562 221.800781 C 110.601562 214.734375 90.066406 202.734375 75 185.800781 C 68.734375 178.734375 63.464844 170.132812 59.199219 160 C 56.800781 154 53.933594 145.066406 50.601562 133.199219 L 44 112.199219 L 43.601562 111.398438 L 40.199219 109.800781 L 37.199219 109.199219 C 32.265625 108.132812 28.398438 106.800781 25.601562 105.199219 C 20.265625 102.265625 16.398438 97.800781 14 91.800781 C 12.132812 87.265625 12.265625 82.667969 14.398438 78 C 16.535156 73.464844 20 70.464844 24.800781 69 L 35.199219 67.601562 L 35.601562 67.398438 L 35.800781 66 C 37.132812 58.398438 38.734375 52.933594 40.601562 49.601562 C 53.132812 28 70.332031 15.867188 92.199219 13.199219 L 101.800781 12.601562 "/>
<path style=" stroke:none;fill-rule:nonzero;fill:rgb(100%,100%,100%);fill-opacity:1;" d="M 157.398438 45 L 179.398438 66 L 200.199219 86.199219 C 207.933594 93.265625 214.800781 98.535156 220.800781 102 C 226.265625 105.199219 231.734375 107.398438 237.199219 108.601562 L 254.601562 110.199219 L 280.199219 110.199219 C 284.332031 110.464844 287.332031 112.464844 289.199219 116.199219 C 292.535156 123.265625 289.601562 135.535156 280.398438 153 L 273 162.800781 C 260.464844 179.601562 250.398438 191.265625 242.800781 197.800781 C 230.132812 208.734375 215.535156 215.464844 199 218 L 198.800781 223.601562 L 199.398438 241.800781 C 199.398438 244.066406 198.601562 246.066406 197 247.800781 C 195.265625 249.398438 193.199219 250.199219 190.800781 250.199219 L 189.601562 250.398438 L 188.199219 250.199219 L 174.800781 254 L 172 254.398438 C 168 254.398438 165.332031 252.464844 164 248.601562 L 163.800781 247.199219 L 161.199219 249.800781 C 159.464844 252.464844 157.132812 253.800781 154.199219 253.800781 L 152.800781 253.601562 L 139.199219 257.398438 L 136.601562 257.800781 C 132.601562 257.800781 129.933594 255.800781 128.601562 251.800781 C 127.933594 249.667969 128.066406 247.601562 129 245.601562 C 129.933594 243.601562 131.464844 242.199219 133.601562 241.398438 C 132.667969 238.867188 132.734375 236.601562 133.800781 234.601562 C 134.734375 232.464844 136.332031 231 138.601562 230.199219 L 145 230.398438 L 148.199219 232.199219 L 149.199219 216.199219 C 120 210.199219 97.332031 198.132812 81.199219 180 C 75.464844 173.601562 70.734375 165.734375 67 156.398438 C 64.601562 150.667969 61.867188 142.199219 58.800781 131 L 51.800781 109.199219 L 50.601562 105.601562 L 50.199219 105 L 43.398438 102 L 38.601562 100.800781 L 29.800781 98 C 26.199219 95.867188 23.535156 92.734375 21.800781 88.601562 C 20.867188 86.199219 20.933594 83.867188 22 81.601562 C 23.464844 79.199219 25.199219 77.734375 27.199219 77.199219 L 35.800781 76 L 42.601562 75.199219 L 44.199219 67.601562 C 45.132812 61.199219 46.398438 56.535156 48 53.601562 C 59.199219 34.398438 74.265625 23.800781 93.199219 21.800781 L 101.800781 21.199219 C 120.601562 21.199219 139.132812 29.132812 157.398438 45 M 182 219.199219 L 180.199219 219.398438 L 166 218.601562 L 165 241.199219 C 166.066406 239.601562 167.398438 238.535156 169 238 C 168.066406 235.734375 168.132812 233.464844 169.199219 231.199219 C 170.265625 229.066406 171.867188 227.601562 174 226.800781 L 180.601562 227.199219 L 182 228 L 182 219.199219 "/>
<path style=" stroke:none;fill-rule:nonzero;fill:rgb(98.039216%,68.627451%,23.137255%);fill-opacity:1;" d="M 151 247 L 144.601562 243.601562 C 141.535156 241.601562 139.398438 240.332031 138.199219 239.800781 C 137 239.132812 137.464844 238.265625 139.601562 237.199219 L 144.601562 236.398438 C 145.667969 236.933594 147.800781 238.199219 151 240.199219 L 157.398438 243.601562 C 158.066406 243.867188 158.265625 244.265625 158 244.800781 L 156.601562 246 L 151 247 "/>
<path style=" stroke:none;fill-rule:nonzero;fill:rgb(98.039216%,68.627451%,23.137255%);fill-opacity:1;" d="M 157.601562 243.601562 L 156.800781 246 L 154.398438 247.398438 L 137.398438 251.800781 L 134.601562 252 C 133.535156 251.601562 132.933594 251 132.800781 250.199219 C 132.265625 248.464844 133.332031 247.265625 136 246.601562 C 142.265625 244.601562 147.933594 243.066406 153 242 C 155.535156 241.332031 157.066406 241.867188 157.601562 243.601562 "/>
<path style=" stroke:none;fill-rule:nonzero;fill:rgb(98.039216%,68.627451%,23.137255%);fill-opacity:1;" d="M 174.398438 233.199219 L 179.800781 232.800781 L 185.800781 236.199219 L 192 239.398438 C 194.132812 240.199219 194.265625 241.398438 192.398438 243 C 190.667969 244.601562 189 245.066406 187.398438 244.398438 L 180.601562 240.800781 L 173.800781 237 C 173 236.601562 172.734375 236 173 235.199219 C 173.265625 234.398438 173.734375 233.734375 174.398438 233.199219 "/>
<path style=" stroke:none;fill-rule:nonzero;fill:rgb(98.039216%,68.627451%,23.137255%);fill-opacity:1;" d="M 192.800781 240.601562 C 193.332031 242.464844 192.332031 243.667969 189.800781 244.199219 C 184.734375 245.265625 179.066406 246.800781 172.800781 248.800781 C 170.398438 249.464844 169 248.867188 168.601562 247 C 168.066406 245.132812 169 243.800781 171.398438 243 L 188.398438 238.398438 C 190.800781 237.867188 192.265625 238.601562 192.800781 240.601562 "/>
<path style=" stroke:none;fill-rule:nonzero;fill:rgb(98.039216%,68.627451%,23.137255%);fill-opacity:1;" d="M 193.601562 203.601562 C 196.265625 203.332031 197.332031 203.734375 196.800781 204.800781 C 194.933594 209.332031 194 215.265625 194 222.601562 L 194.601562 240.800781 C 194.601562 242.132812 193.332031 243.066406 190.800781 243.601562 C 188.265625 244.265625 187 244 187 242.800781 L 186.199219 224 C 186.199219 216.667969 187.132812 210.601562 189 205.800781 C 189.535156 204.601562 191.066406 203.867188 193.601562 203.601562 "/>
<path style=" stroke:none;fill-rule:nonzero;fill:rgb(100%,94.901961%,18.823529%);fill-opacity:1;" d="M 151.800781 51.398438 L 183 81.800781 C 196.601562 95.132812 207.734375 104.332031 216.398438 109.398438 C 225.734375 114.867188 236 117.867188 247.199219 118.398438 L 279.800781 118.601562 C 284.199219 118.867188 282.132812 128.601562 273.601562 147.800781 C 256.398438 170.332031 245.398438 183.867188 240.601562 188.398438 C 227.265625 201.066406 211.667969 208.332031 193.800781 210.199219 C 175 212.199219 155.933594 210.199219 136.601562 204.199219 C 115.800781 197.667969 99.464844 187.734375 87.601562 174.398438 C 80.800781 166.667969 75.132812 155.667969 70.601562 141.398438 C 66.332031 125.398438 62.734375 113.601562 59.800781 106 L 56.199219 98.398438 L 47 94.199219 L 36.800781 91.601562 C 33.464844 90.667969 31.132812 88.601562 29.800781 85.398438 L 39.199219 84.199219 L 48 82.398438 C 49.601562 81.332031 50.933594 77.601562 52 71.199219 C 53.332031 63.867188 54.464844 59.398438 55.398438 57.800781 C 65 41.265625 77.867188 32.066406 94 30.199219 C 104.933594 28.867188 115.464844 30.265625 125.601562 34.398438 C 134 37.867188 142.734375 43.535156 151.800781 51.398438 "/>
<path style=" stroke:none;fill-rule:nonzero;fill:rgb(100%,72.156863%,0%);fill-opacity:1;" d="M 135.800781 37 C 145.933594 43 159.734375 55.066406 177.199219 73.199219 C 194 90.800781 208 102.535156 219.199219 108.398438 C 227.867188 112.933594 238.066406 115.667969 249.800781 116.601562 L 281.601562 117.398438 C 284.667969 117.535156 285.535156 120.535156 284.199219 126.398438 C 281.398438 137.734375 275.867188 149.332031 267.601562 161.199219 C 260 171.867188 251.199219 181.464844 241.199219 190 C 225.199219 203.601562 205.535156 210.933594 182.199219 212 C 168.066406 212.667969 153.933594 211.132812 139.800781 207.398438 C 124.867188 203.398438 112 197.464844 101.199219 189.601562 C 88.800781 180.667969 79.199219 168.199219 72.398438 152.199219 L 56.800781 106.800781 C 54.933594 101.734375 50.199219 98 42.601562 95.601562 C 34.332031 92.933594 29.066406 89.800781 26.800781 86.199219 C 26.667969 85.800781 27.132812 85.332031 28.199219 84.800781 L 30.199219 84.199219 L 41.601562 82 C 45.734375 80.535156 48.132812 77.800781 48.800781 73.800781 L 50.199219 65.800781 C 50.734375 62.464844 51.535156 59.933594 52.601562 58.199219 C 60.332031 46.199219 68.332031 38.265625 76.601562 34.398438 C 86.332031 30.265625 96.332031 28.332031 106.601562 28.601562 C 117.265625 29 127 31.800781 135.800781 37 M 147.199219 50.601562 L 162 64.398438 L 193.601562 95.398438 C 206.398438 106.464844 218.933594 113.867188 231.199219 117.601562 L 245.601562 119.800781 L 259.800781 119.800781 L 272.601562 119.398438 C 277.265625 120.066406 279.199219 122.734375 278.398438 127.398438 C 278.132812 130.199219 276.601562 135.066406 273.800781 142 C 268.066406 156.535156 258.199219 170.332031 244.199219 183.398438 C 229.535156 196.867188 215 205.132812 200.601562 208.199219 L 151.800781 206.800781 C 135.398438 202.933594 120.332031 196.535156 106.601562 187.601562 C 94.066406 179.464844 84.464844 167.132812 77.800781 150.601562 L 62.601562 105.199219 L 62.601562 105 L 60.398438 99.601562 L 56.199219 96 L 41.800781 90.601562 C 35.535156 87.800781 35.265625 86 41 85.199219 C 47.667969 84.132812 51.933594 80.800781 53.800781 75.199219 C 55.132812 67.601562 56.667969 61.601562 58.398438 57.199219 C 63.601562 43.867188 74 35.800781 89.601562 33 C 103.601562 30.464844 117.199219 32.464844 130.398438 39 C 135.601562 41.667969 141.199219 45.535156 147.199219 50.601562 "/>
<path style=" stroke:none;fill-rule:nonzero;fill:rgb(98.039216%,68.627451%,23.137255%);fill-opacity:1;" d="M 156.601562 245.199219 C 153.933594 245.601562 152.601562 244.933594 152.601562 243.199219 C 152.601562 226 154.066406 211 157 198.199219 C 157.265625 196.734375 158.734375 195.800781 161.398438 195.398438 C 163.933594 195.132812 165 195.800781 164.601562 197.398438 C 161.800781 210.332031 160.398438 225.332031 160.398438 242.398438 C 160.398438 243.867188 159.132812 244.800781 156.601562 245.199219 "/>
<path style=" stroke:none;fill-rule:nonzero;fill:rgb(100%,87.058824%,0%);fill-opacity:1;" d="M 154.199219 193.800781 L 161.800781 193.398438 L 166 195.601562 L 168.199219 196.800781 L 170.601562 197.398438 L 172.601562 198.398438 C 174.066406 198.667969 175 199.132812 175.398438 199.800781 C 176.199219 200.867188 176.199219 202.132812 175.398438 203.601562 L 172.800781 206.800781 L 170.199219 208.398438 L 167.398438 206.398438 L 165.398438 204 L 163.800781 204.199219 L 162.199219 204.199219 L 161.199219 203 L 160.199219 201.601562 C 159.667969 201.199219 159.132812 201 158.601562 201 L 156.800781 201.398438 L 150.199219 204.398438 C 147.132812 205.601562 145.464844 204.800781 145.199219 202 C 145.066406 199.867188 146.066406 198.066406 148.199219 196.601562 C 149.265625 195.800781 151.265625 194.867188 154.199219 193.800781 "/>
<path style=" stroke:none;fill-rule:nonzero;fill:rgb(100%,78.431373%,0%);fill-opacity:1;" d="M 107.800781 65.398438 C 107.800781 71.667969 103.398438 74.800781 94.601562 74.800781 C 85.800781 74.800781 81.398438 71.667969 81.398438 65.398438 C 81.398438 61.800781 82.667969 58.734375 85.199219 56.199219 C 87.734375 53.535156 90.867188 52.199219 94.601562 52.199219 C 98.332031 52.199219 101.464844 53.535156 104 56.199219 C 106.535156 58.734375 107.800781 61.800781 107.800781 65.398438 "/>
<path style=" stroke:none;fill-rule:nonzero;fill:rgb(100%,94.901961%,18.823529%);fill-opacity:1;" d="M 129.800781 109 C 142.601562 103.132812 155.933594 102.066406 169.800781 105.800781 C 177.800781 107.933594 186.132812 111.265625 194.800781 115.800781 C 206.667969 121.800781 212.398438 127.132812 212 131.800781 C 212.933594 132.066406 214.265625 133 216 134.601562 L 220 137.199219 L 215.398438 140.601562 C 220.199219 143.132812 224.265625 145.667969 227.601562 148.199219 L 226 151.398438 L 224.199219 154 C 230.734375 155.601562 235.867188 157.601562 239.601562 160 C 231.734375 166.667969 222.667969 171.667969 212.398438 175 C 201.867188 178.464844 191.667969 179.535156 181.800781 178.199219 C 165.667969 176.464844 152 173.332031 140.800781 168.800781 C 124.132812 162.132812 114.667969 152.933594 112.398438 141.199219 C 109.332031 126.398438 115.132812 115.667969 129.800781 109 "/>
<path style=" stroke:none;fill-rule:nonzero;fill:rgb(100%,72.156863%,0%);fill-opacity:1;" d="M 109 133.199219 C 109.398438 123.867188 113.464844 116.734375 121.199219 111.800781 C 128.800781 107 137.332031 103.933594 146.800781 102.601562 C 156.265625 101.265625 165.332031 102 174 104.800781 C 188 109.464844 198.265625 114.066406 204.800781 118.601562 L 213.601562 127.199219 C 216.933594 131.332031 219.800781 134.199219 222.199219 135.800781 C 223.265625 136.464844 223.132812 137.332031 221.800781 138.398438 C 220.332031 139.464844 221.132812 141.066406 224.199219 143.199219 L 229.800781 146.601562 L 230.199219 148.398438 C 229 150.933594 230 153.066406 233.199219 154.800781 L 242 158.398438 C 243.066406 159.066406 242.867188 159.933594 241.398438 161 C 223 175.398438 202.867188 181.800781 181 180.199219 L 180.199219 180.199219 L 146.800781 174 C 133.464844 170 123.667969 164.265625 117.398438 156.800781 C 111.535156 149.867188 108.734375 142 109 133.199219 M 115 136.398438 C 115.667969 147.601562 121.535156 156.199219 132.601562 162.199219 C 145.265625 169 162 173.734375 182.800781 176.398438 L 183 176.398438 C 198.199219 177.464844 211.464844 174.867188 222.800781 168.601562 C 229.066406 165.265625 232.132812 162.667969 232 160.800781 C 231.867188 159.066406 228.667969 157.398438 222.398438 155.800781 C 221.066406 155.535156 220.734375 154.867188 221.398438 153.800781 C 223.398438 151 223.199219 148.601562 220.800781 146.601562 L 213.199219 142.199219 C 211.867188 141.398438 212 140.535156 213.601562 139.601562 C 217.199219 136.933594 207.464844 128.199219 184.398438 113.398438 C 162.398438 104.464844 144.601562 103.464844 131 110.398438 C 119.667969 116.132812 114.332031 124.800781 115 136.398438 "/>
</g>
</svg>
