<?xml version="1.0" encoding="UTF-8"?>
<svg xmlns="http://www.w3.org/2000/svg" xmlns:xlink="http://www.w3.org/1999/xlink" width="264pt" height="364pt" viewBox="0 0 264 364" version="1.1">
<g id="surface1">
<path style=" stroke:none;fill-rule:nonzero;fill:rgb(100%,100%,100%);fill-opacity:1;" d="M 170.601562 353.800781 L 100.398438 353.800781 L 100.398438 195.199219 L 170.601562 195.199219 L 170.601562 353.800781 "/>
<path style=" stroke:none;fill-rule:nonzero;fill:rgb(0%,0%,0%);fill-opacity:1;" d="M 174.398438 194.800781 L 174.398438 353.398438 C 174.398438 355 173.132812 355.933594 170.601562 356.199219 L 98.800781 356.199219 C 97.199219 356.199219 96.398438 355.535156 96.398438 354.199219 L 96.398438 195.601562 C 96.398438 193.734375 98.199219 192.800781 101.800781 192.800781 L 172 192.800781 C 173.601562 192.800781 174.398438 193.464844 174.398438 194.800781 M 166.601562 197.601562 L 104.199219 197.601562 L 104.199219 351.398438 L 166.601562 351.398438 L 166.601562 197.601562 "/>
<path style=" stroke:none;fill-rule:nonzero;fill:rgb(80%,80%,80%);fill-opacity:1;" d="M 165.800781 358.800781 L 95.398438 358.800781 L 95.398438 200 L 165.800781 200 L 165.800781 358.800781 "/>
<path style=" stroke:none;fill-rule:nonzero;fill:rgb(0%,0%,0%);fill-opacity:1;" d="M 169.601562 199.601562 L 169.601562 358.398438 C 169.601562 359.867188 168.332031 360.800781 165.800781 361.199219 L 94 361.199219 C 92.398438 361.199219 91.601562 360.535156 91.601562 359.199219 L 91.601562 200.398438 C 91.601562 198.535156 93.332031 197.601562 96.800781 197.601562 L 167.199219 197.601562 C 168.800781 197.601562 169.601562 198.265625 169.601562 199.601562 M 161.800781 202.398438 L 99.398438 202.398438 L 99.398438 356.199219 L 161.800781 356.199219 L 161.800781 202.398438 "/>
<path style=" stroke:none;fill-rule:nonzero;fill:rgb(100%,100%,0%);fill-opacity:1;" d="M 187.199219 12.601562 C 193.464844 16.734375 197.867188 21.933594 200.398438 28.199219 C 203.066406 34.332031 203.464844 40.867188 201.601562 47.800781 L 201 49.601562 C 203.265625 54.132812 204.464844 58.933594 204.601562 64 L 204.601562 71.398438 L 205 76.199219 C 209 79.265625 212.199219 82.667969 214.601562 86.398438 C 222.734375 95.601562 225.464844 108.398438 222.800781 124.800781 C 225.867188 128 228.601562 131.800781 231 136.199219 C 236.464844 143.132812 239.199219 151.734375 239.199219 162 C 254.265625 175.066406 261.800781 190.199219 261.800781 207.398438 C 261.800781 229.933594 249.464844 248.601562 224.800781 263.398438 C 200 278.066406 168.667969 285.398438 130.800781 285.398438 C 92.933594 285.398438 61.667969 278.066406 37 263.398438 C 12.332031 248.734375 0 230.066406 0 207.398438 C 0 189.535156 7.867188 174.066406 23.601562 161 L 24.398438 156.398438 L 25.398438 153.601562 L 26.800781 147.800781 C 28 140.601562 31.199219 133.867188 36.398438 127.601562 L 36.601562 126.199219 L 36.398438 125.199219 C 34.667969 120 34.332031 114.265625 35.398438 108 C 36.464844 101.332031 39.398438 95.199219 44.199219 89.601562 L 44.398438 89.199219 C 46.535156 85.734375 49 82.800781 51.800781 80.398438 L 58.199219 74.800781 L 58.601562 73 C 58.601562 70.734375 58.933594 68.398438 59.601562 66 L 59.800781 61.601562 C 59.933594 59.199219 60.464844 56.535156 61.398438 53.601562 C 59.132812 43.734375 60.601562 34.734375 65.800781 26.601562 L 66.601562 25.199219 C 67.398438 18.800781 70 13.332031 74.398438 8.800781 C 78.667969 4.132812 84 1.332031 90.398438 0.398438 L 94.800781 0 C 99.601562 0 104.066406 1.132812 108.199219 3.398438 C 112.332031 5.667969 115.734375 8.734375 118.398438 12.601562 C 125.332031 17.132812 130.066406 23.066406 132.601562 30.398438 L 134.601562 26.398438 L 135.398438 25.199219 C 136.066406 18.933594 138.601562 13.535156 143 9 C 147.398438 4.199219 152.734375 1.332031 159 0.398438 L 163.601562 0 C 168.398438 0 172.867188 1.132812 177 3.398438 C 181.132812 5.667969 184.535156 8.734375 187.199219 12.601562 "/>
<path style=" stroke:none;fill-rule:nonzero;fill:rgb(0%,0%,0%);fill-opacity:1;" d="M 172.601562 14 C 175.398438 15.601562 177.464844 17.867188 178.800781 20.800781 C 183.867188 23.601562 187.398438 27.132812 189.398438 31.398438 C 191.535156 35.535156 191.933594 40.066406 190.601562 45 L 188.398438 50.199219 L 190.199219 53.601562 L 190.398438 53.800781 C 192.265625 56.734375 193.199219 60.132812 193.199219 64 L 193.199219 72.398438 L 193.601562 81.199219 L 193.601562 82 C 199.066406 85.199219 203.066406 89 205.601562 93.398438 C 209.734375 97.535156 212 103 212.398438 109.800781 C 212.667969 113.667969 212.265625 118.601562 211.199219 124.601562 L 210.601562 128.601562 L 210.601562 129 C 215.132812 132.601562 218.734375 137.066406 221.398438 142.398438 C 225.800781 147.332031 228 154.933594 228 165.199219 L 228 167.398438 C 242.933594 178.867188 250.398438 192.199219 250.398438 207.398438 C 250.398438 226.734375 239.132812 242.667969 216.601562 255.199219 C 194.066406 267.734375 165.464844 274 130.800781 274 C 96.132812 274 67.535156 267.734375 45 255.199219 C 22.464844 242.667969 11.199219 226.734375 11.199219 207.398438 C 11.199219 192.066406 18.933594 178.601562 34.398438 167 C 34.398438 164.464844 34.734375 161.867188 35.398438 159.199219 L 37 154.199219 L 37.800781 150.398438 C 38.867188 143.867188 42.066406 137.867188 47.398438 132.398438 L 48.398438 125.199219 L 48.398438 125 L 47.199219 122 C 46.265625 119.066406 46.066406 115 46.601562 109.800781 C 47.398438 105.398438 49.535156 101.066406 53 96.800781 L 53.601562 95.800781 C 56 92.464844 58.066406 90.066406 59.800781 88.601562 C 61.667969 86.332031 64.734375 83.933594 69 81.398438 L 69.800781 74.398438 L 70.800781 67.601562 L 71 62.601562 C 71.265625 59.667969 72.066406 56.933594 73.398438 54.398438 C 70.601562 46.398438 71.265625 39.132812 75.398438 32.601562 L 77.800781 29.398438 L 77.800781 28.398438 C 77.800781 24.265625 79.199219 20.601562 82 17.398438 C 84.667969 14.199219 88.066406 12.265625 92.199219 11.601562 L 94.800781 11.398438 C 101.867188 11.398438 107 14.535156 110.199219 20.800781 C 115.132812 23.464844 118.601562 26.933594 120.601562 31.199219 C 122.734375 35.464844 123.132812 40.066406 121.800781 45 L 119.601562 50.199219 L 121.601562 53.601562 L 121.601562 53.800781 C 123.464844 56.734375 124.398438 60.132812 124.398438 64 L 124.398438 69.398438 L 139.199219 69.601562 L 139.601562 67.800781 L 139.800781 62.601562 C 140.066406 59.667969 140.867188 56.933594 142.199219 54.398438 C 139.398438 46.398438 140.066406 39.132812 144.199219 32.601562 L 146.601562 29.398438 L 146.601562 28.398438 C 146.601562 24.265625 147.933594 20.601562 150.601562 17.398438 C 153.265625 14.199219 156.667969 12.265625 160.800781 11.601562 L 163.601562 11.398438 C 166.933594 11.398438 169.933594 12.265625 172.601562 14 "/>
<path style=" stroke:none;fill-rule:nonzero;fill:rgb(100%,100%,100%);fill-opacity:1;" d="M 155.199219 31.398438 L 155.199219 28.398438 C 155.199219 26.265625 155.867188 24.398438 157.199219 22.800781 C 158.535156 21.199219 160.199219 20.265625 162.199219 20 L 163.601562 19.800781 C 165.464844 19.800781 167.132812 20.332031 168.601562 21.398438 C 170.066406 22.601562 171.066406 24.066406 171.601562 25.800781 L 173.199219 27.601562 C 181.066406 31.066406 184.132812 36.132812 182.398438 42.800781 L 179 48.601562 L 178.398438 50.601562 L 179.199219 52.601562 L 182.601562 57.199219 L 182.800781 57.601562 C 184 59.601562 184.667969 61.800781 184.800781 64.199219 L 184.601562 66.199219 L 184.601562 66.800781 L 184.800781 68 L 184.800781 73.199219 L 185.199219 80.800781 L 185 85 C 185 86.464844 185.535156 87.398438 186.601562 87.800781 C 192.464844 90.867188 196.464844 94.332031 198.601562 98.199219 L 199 99 C 202.066406 101.800781 203.734375 105.800781 204 111 L 203 123.199219 L 202.199219 128.398438 L 202.199219 131.601562 C 202.066406 132.667969 202.398438 133.464844 203.199219 134 C 208.398438 137.867188 212 142.066406 214 146.601562 L 214.601562 147.601562 C 217.800781 150.667969 219.398438 156.535156 219.398438 165.199219 L 219.398438 167.601562 L 220 171.199219 L 221 172.800781 C 234.867188 182.800781 241.800781 194.332031 241.800781 207.398438 C 241.800781 224.066406 231.199219 237.933594 210 249 C 188.933594 260.066406 162.535156 265.601562 130.800781 265.601562 C 99.199219 265.601562 72.800781 260.066406 51.601562 249 C 30.398438 237.800781 19.800781 223.933594 19.800781 207.398438 C 19.800781 194.199219 27.066406 182.464844 41.601562 172.199219 L 42.800781 169.800781 L 43.601562 161.199219 L 44.199219 159.800781 L 45.398438 155.800781 L 45.398438 155.199219 L 46 152.800781 L 46 152.199219 C 46.800781 146.464844 49.800781 141.332031 55 136.800781 L 55.800781 134.800781 L 55.800781 134 L 56.601562 126.601562 L 56.800781 126 L 57 124.398438 L 56.800781 122.800781 L 55.398438 119.398438 C 54.601562 117 54.464844 114.265625 55 111.199219 C 55.535156 108.265625 57.066406 105.199219 59.601562 102 L 60.601562 101 L 61 100.199219 L 65.398438 94.800781 L 65.800781 94.601562 C 68.066406 92.066406 71.535156 89.601562 76.199219 87.199219 C 77.535156 86.800781 78.066406 85.734375 77.800781 84 L 77.601562 79.398438 L 78.398438 75 L 79.199219 69.800781 L 79.601562 63.199219 C 79.734375 61.066406 80.535156 59 82 57 C 82.800781 55.667969 82.933594 54.601562 82.398438 53.800781 C 81.199219 51.265625 80.535156 48.601562 80.398438 45.800781 C 80.265625 42.601562 81 39.734375 82.601562 37.199219 L 85.601562 33.601562 L 86.601562 31.398438 L 86.398438 28.398438 C 86.398438 26.265625 87.066406 24.398438 88.398438 22.800781 C 89.734375 21.199219 91.464844 20.265625 93.601562 20 L 94.800781 19.800781 C 98.933594 19.800781 101.667969 21.800781 103 25.800781 L 104.398438 27.601562 C 112.265625 31.199219 115.332031 36.265625 113.601562 42.800781 C 113.066406 44.933594 112 46.867188 110.398438 48.601562 L 109.601562 50.601562 L 110.601562 52.601562 L 113.800781 57.199219 L 114 57.601562 C 115.332031 60 116 62.199219 116 64.199219 L 115.800781 66.199219 L 115.800781 67 L 116 68 L 116 73.199219 L 116.398438 75.601562 C 116.398438 77.332031 117.332031 78.199219 119.199219 78.199219 L 144.199219 78.199219 C 145.800781 78.199219 146.734375 77.398438 147 75.800781 L 147.199219 74.800781 C 147.199219 72.800781 147.398438 71.132812 147.800781 69.800781 L 148 69.398438 L 148.199219 63.199219 C 148.464844 61.066406 149.332031 59 150.800781 57 C 151.601562 56.066406 151.734375 55 151.199219 53.800781 C 150 51.265625 149.332031 48.601562 149.199219 45.800781 C 149.066406 42.601562 149.800781 39.734375 151.398438 37.199219 L 154.398438 33.601562 L 155.199219 31.398438 "/>
<path style=" stroke:none;fill-rule:nonzero;fill:rgb(90.196078%,90.196078%,90.196078%);fill-opacity:1;" d="M 233.398438 207.398438 C 233.398438 221.132812 223.398438 232.800781 203.398438 242.398438 C 183.265625 252.132812 159.066406 257 130.800781 257 C 102.535156 257 78.332031 252.132812 58.199219 242.398438 C 38.199219 232.800781 28.199219 221.132812 28.199219 207.398438 C 28.199219 193.667969 38.199219 181.933594 58.199219 172.199219 C 78.332031 162.464844 102.535156 157.601562 130.800781 157.601562 C 159.066406 157.601562 183.265625 162.464844 203.398438 172.199219 C 223.398438 181.933594 233.398438 193.667969 233.398438 207.398438 "/>
<path style=" stroke:none;fill-rule:nonzero;fill:rgb(100%,100%,100%);fill-opacity:1;" d="M 44.398438 195.199219 C 47.867188 191.734375 51.933594 190 56.601562 190 L 59.601562 190.199219 C 56.535156 190.867188 54.066406 192.867188 52.199219 196.199219 C 50.199219 199.398438 49.199219 203.132812 49.199219 207.398438 C 49.199219 211.667969 50.199219 215.398438 52.199219 218.601562 C 54.199219 221.933594 56.667969 223.867188 59.601562 224.398438 L 56.601562 224.800781 C 51.933594 224.800781 47.867188 223.132812 44.398438 219.800781 C 41.066406 216.332031 39.398438 212.199219 39.398438 207.398438 C 39.398438 202.601562 41.066406 198.535156 44.398438 195.199219 "/>
<path style=" stroke:none;fill-rule:nonzero;fill:rgb(100%,100%,100%);fill-opacity:1;" d="M 222.398438 207.398438 C 222.398438 212.199219 220.734375 216.332031 217.398438 219.800781 C 213.933594 223.132812 209.800781 224.800781 205 224.800781 L 202 224.398438 C 205.066406 223.867188 207.535156 221.933594 209.398438 218.601562 C 211.398438 215.398438 212.398438 211.667969 212.398438 207.398438 C 212.398438 203.132812 211.398438 199.398438 209.398438 196.199219 C 207.535156 192.867188 205.066406 190.867188 202 190.199219 L 205 190 C 209.800781 190 213.933594 191.734375 217.398438 195.199219 C 220.734375 198.535156 222.398438 202.601562 222.398438 207.398438 "/>
<path style=" stroke:none;fill-rule:nonzero;fill:rgb(100%,100%,100%);fill-opacity:1;" d="M 166.601562 173.800781 C 165.132812 172.464844 161.066406 171.332031 154.398438 170.398438 L 130.800781 169 L 107.199219 170.398438 C 100.535156 171.332031 96.464844 172.464844 95 173.800781 L 94.601562 172.398438 C 94.601562 170.132812 98.132812 168.199219 105.199219 166.601562 L 130.800781 164.199219 L 156.398438 166.601562 C 163.464844 168.199219 167 170.132812 167 172.398438 L 166.601562 173.800781 "/>
<path style=" stroke:none;fill-rule:nonzero;fill:rgb(100%,100%,100%);fill-opacity:1;" d="M 156.398438 248 L 130.800781 250.398438 L 105.199219 248 C 98.132812 246.398438 94.601562 244.464844 94.601562 242.199219 L 95 241 C 96.601562 242.332031 100.667969 243.464844 107.199219 244.398438 L 130.800781 245.800781 L 154.398438 244.398438 C 161.066406 243.464844 165.132812 242.332031 166.601562 241 L 167 242.199219 C 167 244.464844 163.464844 246.398438 156.398438 248 "/>
<path style=" stroke:none;fill-rule:nonzero;fill:rgb(83.921569%,72.156863%,54.901961%);fill-opacity:1;" d="M 184.800781 228.800781 C 169.867188 234.667969 151.867188 237.601562 130.800781 237.601562 C 109.734375 237.601562 91.734375 234.667969 76.800781 228.800781 C 61.867188 222.800781 54.398438 215.667969 54.398438 207.398438 L 54.398438 155.199219 L 207.199219 155.199219 L 207.199219 207.398438 C 207.199219 215.667969 199.734375 222.800781 184.800781 228.800781 "/>
<path style=" stroke:none;fill-rule:nonzero;fill:rgb(100%,100%,100%);fill-opacity:1;" d="M 207.199219 194 C 207.199219 202.265625 199.734375 209.398438 184.800781 215.398438 C 169.867188 221.265625 151.867188 224.199219 130.800781 224.199219 C 109.734375 224.199219 91.734375 221.265625 76.800781 215.398438 C 61.867188 209.398438 54.398438 202.265625 54.398438 194 L 54.398438 181.398438 L 207.199219 181.398438 L 207.199219 194 "/>
<path style=" stroke:none;fill-rule:nonzero;fill:rgb(83.921569%,72.156863%,54.901961%);fill-opacity:1;" d="M 207.199219 190.199219 C 207.199219 198.601562 199.734375 205.734375 184.800781 211.601562 C 170 217.464844 152 220.398438 130.800781 220.398438 C 109.734375 220.398438 91.734375 217.464844 76.800781 211.601562 C 61.867188 205.734375 54.398438 198.601562 54.398438 190.199219 L 54.398438 177.601562 L 207.199219 177.601562 L 207.199219 190.199219 "/>
<path style=" stroke:none;fill-rule:nonzero;fill:rgb(100%,90.196078%,58.039216%);fill-opacity:1;" d="M 207.199219 155.199219 C 207.199219 161.734375 203.464844 167.199219 196 171.601562 C 191.464844 174.398438 184.933594 177 176.398438 179.398438 C 149.464844 187.265625 121.734375 187.933594 93.199219 181.398438 C 67.332031 175.398438 54.398438 166.667969 54.398438 155.199219 C 54.398438 146.800781 61.867188 139.667969 76.800781 133.800781 C 91.734375 127.933594 109.734375 125 130.800781 125 C 152 125 170 127.933594 184.800781 133.800781 C 199.734375 139.667969 207.199219 146.800781 207.199219 155.199219 "/>
<path style=" stroke:none;fill-rule:nonzero;fill:rgb(96.470588%,81.176471%,12.941176%);fill-opacity:1;" d="M 208.199219 155.199219 C 206.464844 167.734375 195.199219 176.601562 174.398438 181.800781 C 160.265625 185.398438 144.667969 186.867188 127.601562 186.199219 C 110.800781 185.398438 95.734375 183.199219 82.398438 179.601562 C 59.199219 173.464844 49.667969 164.464844 53.800781 152.601562 C 57.398438 142.066406 67.601562 134.464844 84.398438 129.800781 C 95.601562 126.601562 108.867188 124.867188 124.199219 124.601562 C 143.535156 124.199219 159.734375 125.398438 172.800781 128.199219 C 194.933594 133 206.734375 141.867188 208.199219 154.800781 L 208.199219 155.199219 M 183.800781 133.398438 C 174.601562 129.933594 163.535156 127.667969 150.601562 126.601562 C 127.535156 124.464844 108.132812 125.398438 92.398438 129.398438 C 82.398438 132.066406 75.132812 134.464844 70.601562 136.601562 C 61.265625 140.867188 56.265625 146.066406 55.601562 152.199219 C 54.398438 162.867188 61.800781 171.132812 77.800781 177 C 88.066406 180.734375 100.332031 183.132812 114.601562 184.199219 L 167.398438 182.601562 C 191.535156 178.332031 204.535156 169.199219 206.398438 155.199219 C 205.199219 145.867188 197.667969 138.601562 183.800781 133.398438 "/>
<path style=" stroke:none;fill-rule:nonzero;fill:rgb(83.921569%,72.156863%,54.901961%);fill-opacity:1;" d="M 192 150.800781 C 192 156.132812 186 160.667969 174 164.398438 C 162.132812 168.132812 147.734375 170 130.800781 170 C 113.867188 170 99.464844 168.132812 87.601562 164.398438 C 75.734375 160.667969 69.800781 156.132812 69.800781 150.800781 L 69.800781 105.398438 L 192 105.398438 L 192 150.800781 "/>
<path style=" stroke:none;fill-rule:nonzero;fill:rgb(100%,100%,100%);fill-opacity:1;" d="M 192 138 C 192 143.332031 186 147.867188 174 151.601562 C 162.132812 155.332031 147.734375 157.199219 130.800781 157.199219 C 113.867188 157.199219 99.464844 155.332031 87.601562 151.601562 C 75.734375 147.867188 69.800781 143.332031 69.800781 138 L 69.800781 126 L 192 126 L 192 138 "/>
<path style=" stroke:none;fill-rule:nonzero;fill:rgb(83.921569%,72.156863%,54.901961%);fill-opacity:1;" d="M 192 134.398438 C 192 139.734375 186 144.265625 174 148 C 162.132812 151.734375 147.734375 153.601562 130.800781 153.601562 C 113.867188 153.601562 99.464844 151.734375 87.601562 148 C 75.734375 144.265625 69.800781 139.734375 69.800781 134.398438 L 69.800781 122.398438 L 192 122.398438 L 192 134.398438 "/>
<path style=" stroke:none;fill-rule:nonzero;fill:rgb(100%,90.196078%,58.039216%);fill-opacity:1;" d="M 192 105.398438 C 192 117.265625 178.800781 123.867188 152.398438 125.199219 L 102 122.398438 L 83 117.800781 C 74.199219 114.601562 69.800781 110.464844 69.800781 105.398438 C 69.800781 100.199219 75.734375 95.734375 87.601562 92 C 99.601562 88.265625 114 86.398438 130.800781 86.398438 C 147.734375 86.398438 162.132812 88.265625 174 92 C 186 95.734375 192 100.199219 192 105.398438 "/>
<path style=" stroke:none;fill-rule:nonzero;fill:rgb(96.470588%,81.176471%,12.941176%);fill-opacity:1;" d="M 154.800781 87.398438 C 140.132812 85.933594 125.265625 86.132812 110.199219 88 C 97.800781 89.601562 88.933594 91.601562 83.601562 94 C 78.535156 96.132812 75.066406 99.332031 73.199219 103.601562 C 70.933594 108.535156 72.601562 112.332031 78.199219 115 C 84.332031 117.800781 92.464844 120.066406 102.601562 121.800781 L 153.199219 125.800781 C 177.199219 124.734375 189.800781 118.066406 191 105.800781 C 190.066406 100.601562 186.398438 96.464844 180 93.398438 L 183.601562 94.800781 C 188.933594 97.464844 192 100.933594 192.800781 105.199219 L 192.800781 105.601562 C 191.601562 119.199219 176 126 146 126 L 110.398438 125.199219 C 95.464844 123.867188 84.199219 120.800781 76.601562 116 C 66.199219 109.332031 66.265625 102.867188 76.800781 96.601562 C 84.800781 91.933594 93.867188 89 104 87.800781 C 126.933594 84.601562 146.933594 84.867188 164 88.601562 L 154.800781 87.398438 "/>
<path style=" stroke:none;fill-rule:nonzero;fill:rgb(76.078431%,15.294118%,17.647059%);fill-opacity:1;" d="M 106 62.199219 L 106 104.199219 L 105.601562 104.199219 L 103 107 C 100.066406 108.867188 96.800781 109.667969 93.199219 109.398438 C 89.199219 109 87.867188 106.800781 89.199219 102.800781 L 89.199219 62.199219 L 106 62.199219 "/>
<path style=" stroke:none;fill-rule:nonzero;fill:rgb(76.078431%,15.294118%,17.647059%);fill-opacity:1;" d="M 89.199219 61.800781 C 90 59.265625 92.066406 57.332031 95.398438 56 C 98.734375 54.667969 101.332031 55.066406 103.199219 57.199219 C 105.601562 59.867188 106.398438 62 105.601562 63.601562 L 103.601562 65 L 102.601562 65.398438 L 99.800781 66.199219 L 98.199219 65.601562 L 95.601562 65.398438 L 93.398438 66.199219 L 91 66.800781 L 88.800781 64.800781 L 89.199219 61.800781 "/>
<path style=" stroke:none;fill-rule:nonzero;fill:rgb(60%,15.294118%,17.647059%);fill-opacity:1;" d="M 90.800781 61.199219 L 94.800781 60.398438 L 96.199219 59.800781 L 97.398438 58 L 100.398438 57.800781 L 101.601562 58.199219 L 102.800781 58 C 104.265625 58 105.398438 59 106.199219 61 L 107.398438 64.199219 L 107.199219 66.199219 L 107.601562 74.601562 L 108 80.601562 L 107.800781 84.398438 C 107.398438 86.535156 106.601562 87.601562 105.398438 87.601562 L 105.398438 82.800781 L 105 79.199219 L 104.398438 77.601562 L 103.398438 75 L 103.800781 74 L 102.800781 72.398438 L 100.800781 70.601562 L 100.800781 68.398438 L 99.199219 67.199219 C 98.132812 66.667969 97.332031 67.132812 96.800781 68.601562 L 95.398438 71.601562 C 95 71.867188 94.535156 71.535156 94 70.601562 C 93.332031 69.800781 92.800781 69.464844 92.398438 69.601562 C 92 69.734375 91.800781 70.398438 91.800781 71.601562 L 92 74 L 91.800781 79.800781 C 91.800781 81.800781 91.332031 82.734375 90.398438 82.601562 L 90 80.199219 C 89.601562 79.535156 89.265625 79.734375 89 80.800781 L 89 83.800781 C 87.667969 84.066406 86.734375 83.601562 86.199219 82.398438 L 86.199219 80 L 86.800781 76 L 87.199219 72.800781 L 88 68.398438 L 88 64 L 88.800781 62.199219 C 88.933594 61.800781 89.601562 61.464844 90.800781 61.199219 "/>
<path style=" stroke:none;fill-rule:nonzero;fill:rgb(100%,100%,63.137255%);fill-opacity:1;" d="M 96.800781 51.800781 L 96.800781 47 C 96.800781 44.332031 97.132812 43.066406 97.800781 43.199219 L 98 49.199219 L 99.199219 56.398438 C 99.199219 59.734375 98.464844 60.601562 97 59 L 96.601562 55.601562 L 96.800781 51.800781 "/>
<path style=" stroke:none;fill-rule:nonzero;fill:rgb(96.470588%,57.254902%,12.941176%);fill-opacity:1;" d="M 95 32.398438 L 94.800781 28.398438 C 96 31.601562 97.464844 33.667969 99.199219 34.601562 L 103.601562 36.601562 C 105.199219 37.667969 105.800781 39 105.398438 40.601562 L 103.199219 43.800781 L 100.199219 46.601562 L 99.800781 51.199219 L 99 55.398438 C 98.066406 56.332031 96.667969 56.132812 94.800781 54.800781 L 91 51.398438 L 89 46.800781 C 88.601562 44.800781 88.800781 43.132812 89.601562 41.800781 L 94.601562 36 L 95 32.398438 "/>
<path style=" stroke:none;fill-rule:nonzero;fill:rgb(98.039216%,68.627451%,23.137255%);fill-opacity:1;" d="M 95.601562 40.800781 L 95.800781 38 L 97.398438 41 L 100 42.800781 L 99.800781 45.800781 L 98.199219 48 C 97.800781 49.199219 97.867188 51.332031 98.398438 54.398438 C 96.667969 53.464844 96 52.066406 96.398438 50.199219 L 97.199219 45.199219 L 96.398438 44.800781 L 95.800781 47.199219 L 94.601562 48.800781 C 94.199219 49.734375 94.265625 50.800781 94.800781 52 L 96.800781 54.601562 C 95.601562 54.464844 94.332031 53.933594 93 53 C 91.667969 52.066406 90.800781 51 90.398438 49.800781 C 89.867188 48.464844 90.265625 47.199219 91.601562 46 L 95 43.398438 L 95.601562 40.800781 "/>
<path style=" stroke:none;fill-rule:nonzero;fill:rgb(76.078431%,15.294118%,17.647059%);fill-opacity:1;" d="M 174.800781 62.199219 L 174.800781 104.199219 L 174.398438 104.199219 L 171.601562 107 C 168.800781 108.867188 165.601562 109.667969 162 109.398438 C 158 109 156.667969 106.800781 158 102.800781 L 158 62.199219 L 174.800781 62.199219 "/>
<path style=" stroke:none;fill-rule:nonzero;fill:rgb(76.078431%,15.294118%,17.647059%);fill-opacity:1;" d="M 159.800781 66.800781 L 157.601562 64.800781 L 158 61.800781 C 158.800781 59.265625 160.800781 57.332031 164 56 C 167.332031 54.667969 170 55.066406 172 57.199219 C 174.398438 59.867188 175.199219 62 174.398438 63.601562 L 172.398438 65 L 171.398438 65.398438 L 168.398438 66.199219 L 167 65.601562 L 164.398438 65.398438 L 162.199219 66.199219 L 159.800781 66.800781 "/>
<path style=" stroke:none;fill-rule:nonzero;fill:rgb(60%,15.294118%,17.647059%);fill-opacity:1;" d="M 156.800781 64 L 157.601562 62.199219 C 157.734375 61.800781 158.398438 61.464844 159.601562 61.199219 L 163.601562 60.398438 L 165 59.800781 L 166.199219 58 L 169 57.800781 L 170.398438 58.199219 L 171.601562 58 C 173.066406 58 174.199219 59 175 61 L 176.199219 64.199219 L 176 66.199219 L 176.199219 68.398438 L 176.398438 74.601562 L 176.601562 80.601562 L 176.601562 84.398438 C 176.199219 86.535156 175.398438 87.601562 174.199219 87.601562 L 174.199219 82.800781 L 173.800781 79.199219 L 173.199219 77.601562 L 172.199219 75 L 172.601562 74 L 171.601562 72.398438 L 169.601562 70.601562 L 169.601562 68.398438 L 168 67.199219 C 166.933594 66.667969 166.132812 67.132812 165.601562 68.601562 L 164.199219 71.601562 L 162.800781 70.601562 L 161.199219 69.601562 C 160.800781 69.734375 160.601562 70.398438 160.601562 71.601562 L 160.601562 79.800781 C 160.601562 81.800781 160.132812 82.734375 159.199219 82.601562 L 158.800781 80.199219 C 158.132812 79.132812 157.800781 79.332031 157.800781 80.800781 L 157.800781 83.800781 C 156.332031 84.066406 155.398438 83.601562 155 82.398438 L 155 80 L 155.601562 76 C 155.464844 74.535156 155.535156 73.464844 155.800781 72.800781 L 156.601562 68.398438 L 156.800781 64 "/>
<path style=" stroke:none;fill-rule:nonzero;fill:rgb(100%,100%,63.137255%);fill-opacity:1;" d="M 165.601562 51.800781 L 165.398438 47 C 165.398438 44.332031 165.734375 43.066406 166.398438 43.199219 L 166.800781 49.199219 L 168 56.398438 C 168 59.734375 167.265625 60.601562 165.800781 59 L 165.398438 55.601562 L 165.601562 51.800781 "/>
<path style=" stroke:none;fill-rule:nonzero;fill:rgb(96.470588%,57.254902%,12.941176%);fill-opacity:1;" d="M 163.398438 36 L 163.800781 32.398438 L 163.601562 28.398438 C 164.800781 31.601562 166.265625 33.667969 168 34.601562 L 172.398438 36.601562 C 174 37.667969 174.601562 39 174.199219 40.601562 L 171.800781 43.800781 L 169 46.601562 C 168.464844 47.398438 168.265625 48.933594 168.398438 51.199219 C 168.667969 53.332031 168.464844 54.734375 167.800781 55.398438 L 163.398438 54.800781 L 159.601562 51.398438 L 157.601562 46.800781 C 157.332031 44.800781 157.601562 43.132812 158.398438 41.800781 L 163.398438 36 "/>
<path style=" stroke:none;fill-rule:nonzero;fill:rgb(98.039216%,68.627451%,23.137255%);fill-opacity:1;" d="M 164.398438 40.800781 L 164.398438 38 L 166 41 C 166.667969 41.800781 167.601562 42.398438 168.800781 42.800781 L 168.601562 45.800781 L 167 48 C 166.601562 49.199219 166.667969 51.332031 167.199219 54.398438 C 165.464844 53.464844 164.800781 52.066406 165.199219 50.199219 L 166 45.199219 L 165.199219 44.800781 L 164.601562 47.199219 L 163.199219 48.800781 C 162.800781 49.734375 162.867188 50.800781 163.398438 52 L 165.601562 54.601562 C 164.398438 54.464844 163.132812 53.933594 161.800781 53 C 160.464844 52.066406 159.601562 51 159.199219 49.800781 C 158.667969 48.464844 159.066406 47.199219 160.398438 46 L 163.800781 43.398438 L 164.398438 40.800781 "/>
<path style=" stroke:none;fill-rule:nonzero;fill:rgb(100%,90.196078%,58.039216%);fill-opacity:1;" d="M 186.800781 110.601562 L 189.199219 107.199219 L 191.800781 104 C 194.734375 105.734375 195.933594 109.464844 195.398438 115.199219 L 193.601562 128.398438 C 193.601562 136.265625 192.933594 141.398438 191.601562 143.800781 C 190 142.066406 188.601562 141 187.398438 140.601562 L 186.800781 143.601562 C 186.132812 144.667969 185.265625 145.199219 184.199219 145.199219 C 183.535156 145.199219 182.265625 144.199219 180.398438 142.199219 C 178.398438 140.066406 176.867188 138.867188 175.800781 138.601562 C 173.800781 143.535156 171.933594 146.601562 170.199219 147.800781 L 167.398438 148.398438 L 164 146.398438 C 161.464844 145.464844 159 146.265625 156.601562 148.800781 C 153.800781 151.601562 151.464844 152.933594 149.601562 152.800781 C 148.667969 152.800781 147.464844 151.867188 146 150 C 144.535156 148.132812 143.199219 147.132812 142 147 C 141.066406 146.867188 139.933594 147.332031 138.601562 148.398438 L 135.199219 150.398438 C 133.199219 150.933594 131.199219 150.332031 129.199219 148.601562 C 126.800781 146.601562 124.800781 145.601562 123.199219 145.601562 L 118.800781 150.800781 L 112.601562 151.800781 L 107.199219 148.398438 C 105.332031 147.199219 103.464844 146.867188 101.601562 147.398438 L 95.398438 150.199219 C 93.667969 150.867188 92 150.199219 90.398438 148.199219 C 88.535156 145.933594 86.867188 145.199219 85.398438 146 C 83 147.332031 81.132812 147.933594 79.800781 147.800781 L 75.601562 138.800781 L 74.601562 135.199219 L 72 133.199219 C 73.464844 138.265625 73.199219 142 71.199219 144.398438 L 68.199219 146.601562 C 67 146.734375 66.066406 146.132812 65.398438 144.800781 C 64.734375 143.601562 64.398438 141.800781 64.398438 139.398438 L 64.398438 133.800781 L 65.601562 123.800781 L 64.800781 120 L 63.398438 116.800781 C 63 115.867188 63 114.464844 63.398438 112.601562 C 63.535156 111.265625 64 110.066406 64.800781 109 L 67.398438 106 L 69.199219 103.199219 L 71.398438 101 C 70.734375 101.398438 70.800781 102.867188 71.601562 105.398438 L 73.398438 109.800781 C 74.332031 110.734375 76.265625 111.464844 79.199219 112 L 91 112.800781 L 102.601562 114 L 123.800781 120.199219 C 132.464844 123 140.601562 123.667969 148.199219 122.199219 L 159.199219 120.199219 L 170.601562 119 C 174.734375 119 178.132812 118.066406 180.800781 116.199219 L 186.800781 110.601562 "/>
<path style=" stroke:none;fill-rule:nonzero;fill:rgb(96.470588%,81.176471%,12.941176%);fill-opacity:1;" d="M 191.800781 103.398438 L 192.601562 103.800781 C 196.066406 107.398438 197.464844 113.867188 196.800781 123.199219 C 196.265625 130.132812 194.867188 137 192.601562 143.800781 L 191.800781 144.398438 L 191 144.398438 L 187.800781 143.800781 L 185 145.398438 L 183.601562 145.601562 L 178 142.398438 C 176.265625 141.867188 174.734375 142.800781 173.398438 145.199219 L 170.601562 148.199219 L 163.199219 148.601562 C 160 148.332031 157.601562 148.867188 156 150.199219 C 153.199219 152.601562 150 153.398438 146.398438 152.601562 L 135 151 L 128.199219 149.398438 L 121.199219 149.601562 L 116.800781 152.199219 C 114.933594 153 113.265625 153 111.800781 152.199219 L 101.601562 151.398438 L 93.199219 151.199219 L 86.601562 148.199219 L 79.601562 148.398438 L 78.800781 148.199219 L 75 138 C 73.667969 134 73.332031 134.265625 74 138.800781 C 74.265625 140.800781 73.800781 142.464844 72.601562 143.800781 L 68.800781 146.800781 L 67.398438 147 C 65.265625 145.667969 63.933594 143.800781 63.398438 141.398438 C 63 139.800781 63 137.332031 63.398438 134 L 63.199219 123.199219 L 62.398438 112.800781 L 62.800781 112.199219 C 64.265625 108.601562 66.867188 104.800781 70.601562 100.800781 L 72.398438 101 C 71.464844 106.734375 75.199219 110.332031 83.601562 111.800781 L 103 113.398438 C 107.933594 114.066406 115.066406 116.132812 124.398438 119.601562 C 135.332031 122.667969 147.199219 122.867188 160 120.199219 C 173.867188 117.398438 184.199219 111.933594 191 103.800781 L 191.800781 103.398438 M 175.800781 138 L 176.601562 138.199219 L 181.601562 141.199219 C 184.535156 142.667969 186.132812 142.464844 186.398438 140.601562 L 187.199219 140 L 188.199219 140 C 190.464844 141.734375 192 139.398438 192.800781 133 L 193.800781 120 C 195.265625 109.867188 191.132812 108.734375 181.398438 116.601562 C 179.535156 118.199219 176.867188 119.132812 173.398438 119.398438 L 164.800781 120 L 141.601562 123.601562 L 125.199219 120.800781 L 109.199219 116.199219 L 94 114.199219 L 78.601562 112.601562 C 76.332031 112.199219 73.601562 110 70.398438 106 C 68.933594 104.265625 67 106.332031 64.601562 112.199219 L 65.601562 116.800781 L 66.601562 123.601562 L 65.398438 133.800781 L 71.199219 133.398438 C 71.066406 133 71.265625 132.734375 71.800781 132.601562 L 73 132.800781 L 80 140 C 82.535156 142.667969 85.199219 144.398438 88 145.199219 L 106 147.601562 C 115.464844 148.265625 120.933594 147.535156 122.398438 145.398438 C 122.667969 144.867188 123.132812 144.734375 123.800781 145 L 132.601562 147.199219 L 141.800781 146.601562 C 143 146.332031 144.933594 147.535156 147.601562 150.199219 C 149.734375 152.464844 152.066406 152.332031 154.601562 149.800781 C 157.265625 146.734375 159.332031 145.265625 160.800781 145.398438 L 169 145.601562 C 170.867188 144.933594 172.867188 142.601562 175 138.601562 L 175.800781 138 "/>
<path style=" stroke:none;fill-rule:nonzero;fill:rgb(100%,90.196078%,58.039216%);fill-opacity:1;" d="M 201 155.199219 C 202.867188 152.667969 204.667969 151.667969 206.398438 152.199219 C 208.800781 153 210.265625 155.265625 210.800781 159 L 211 167.800781 L 212.601562 177.398438 L 212.601562 189.601562 L 213.800781 194.199219 L 214.199219 198.800781 L 212.800781 203.601562 C 212.535156 205.601562 212.800781 207.132812 213.601562 208.199219 C 214.132812 208.867188 215.601562 209.667969 218 210.601562 C 220.132812 211.265625 221.398438 212.332031 221.800781 213.800781 C 222.066406 215.265625 221.464844 216.867188 220 218.601562 L 217.800781 220.398438 L 215.601562 221.398438 L 212 224.199219 L 209.601562 225.199219 L 207.199219 226.199219 L 204.601562 226 L 201.199219 226.199219 L 197.800781 227.398438 L 196 227.398438 L 193.601562 227.800781 C 192.535156 227.265625 192.332031 226.398438 193 225.199219 L 195.199219 223.601562 L 196.800781 220.800781 L 198.800781 219 L 199.601562 216.800781 L 200.601562 211.199219 C 200.867188 208.398438 200.601562 206.535156 199.800781 205.601562 C 198.332031 203.734375 194.800781 202.601562 189.199219 202.199219 C 187.066406 202.066406 184.734375 203.398438 182.199219 206.199219 C 179.535156 209.132812 177.332031 210.734375 175.601562 211 L 170.601562 209.800781 L 165.800781 208 C 163.398438 207.601562 160.535156 208.265625 157.199219 210 L 150 213.800781 L 142.199219 213.601562 C 135.535156 210.800781 130.199219 210.265625 126.199219 212 L 121.199219 214.800781 C 119.332031 215.601562 117.535156 215.601562 115.800781 214.800781 L 111.601562 212.398438 C 109.867188 211.199219 108.398438 210.398438 107.199219 210 C 105.867188 209.601562 104.398438 209.601562 102.800781 210 L 98.199219 211 L 93.398438 210.199219 C 91.132812 209.933594 89.667969 210.265625 89 211.199219 C 88.601562 211.867188 88.601562 213.066406 89 214.800781 L 89.398438 218.398438 L 87 220.800781 C 85.667969 221.734375 85.066406 222.535156 85.199219 223.199219 L 87.800781 225.398438 L 91 226.800781 L 100.800781 229 L 107.398438 230.199219 C 112.332031 232.066406 115.332031 233.867188 116.398438 235.601562 C 117.199219 237.066406 116.867188 238.199219 115.398438 239 L 111 239.601562 L 99.800781 238.601562 L 93.398438 238 C 91 236.265625 89.199219 235.265625 88 235 L 85.398438 234.800781 L 82.800781 234.601562 L 78.800781 233.199219 L 76.398438 233.199219 L 74.398438 231.800781 L 72.199219 228 C 71.535156 225.066406 71.867188 221.933594 73.199219 218.601562 C 74.132812 216.332031 74.265625 213.800781 73.601562 211 C 72.800781 206.464844 70.800781 202 67.601562 197.601562 L 63 193.601562 C 60.734375 192.535156 59.132812 193 58.199219 195 C 57.667969 196.199219 57.933594 198.464844 59 201.800781 C 59.535156 205.132812 59.464844 207.667969 58.800781 209.398438 C 57.601562 212.601562 56.199219 214 54.601562 213.601562 L 53.601562 210 L 52 209 L 50.199219 207.800781 C 48.734375 204.867188 49.132812 199 51.398438 190.199219 C 52.601562 186.601562 52.667969 181.332031 51.601562 174.398438 C 51.066406 169.734375 51.199219 166.066406 52 163.398438 L 53.800781 155.601562 L 57.199219 155.398438 L 60.199219 156.800781 C 65.132812 160.265625 70.933594 162.867188 77.601562 164.601562 C 81.464844 165.535156 86.132812 167.199219 91.601562 169.601562 L 98.398438 171.398438 L 105.601562 171.601562 L 133 174.800781 L 150.199219 174.398438 L 160.199219 171.398438 L 170.199219 169.199219 L 177 169.398438 L 183.398438 168.601562 C 187 167.398438 191.464844 164.667969 196.800781 160.398438 L 201 155.199219 "/>
<path style=" stroke:none;fill-rule:nonzero;fill:rgb(96.470588%,81.176471%,12.941176%);fill-opacity:1;" d="M 198 157.800781 C 200.132812 154.734375 201.800781 152.867188 203 152.199219 L 206.800781 151.601562 C 208.398438 151.867188 209.464844 152.601562 210 153.800781 C 212.132812 158.464844 213.398438 165.066406 213.800781 173.601562 L 214.601562 194 C 214.867188 196.535156 216.332031 200.332031 219 205.398438 C 221.535156 210.199219 222.667969 213.800781 222.398438 216.199219 C 222.132812 220.601562 218 223.800781 210 225.800781 L 193.800781 228.398438 L 192.800781 228.199219 C 191.734375 226.867188 191.667969 225.601562 192.601562 224.398438 L 195.800781 220.601562 L 196.199219 220.398438 C 202.734375 211.332031 198.332031 206.667969 183 206.398438 L 179.601562 209.800781 L 168.601562 210 L 157.601562 210.601562 L 150 214.398438 L 141.800781 214.199219 L 131.398438 215 L 115.601562 215.398438 L 115 215.398438 C 110.734375 212.867188 106.066406 211.464844 101 211.199219 C 94.601562 210.933594 91.066406 213.332031 90.398438 218.398438 L 86.800781 222 C 85.601562 223.199219 87.199219 224.535156 91.601562 226 L 108 229.601562 C 111.464844 230.933594 113.601562 231.867188 114.398438 232.398438 C 116.398438 233.867188 117.398438 235.800781 117.398438 238.199219 L 116.800781 238.800781 L 104.800781 240.601562 L 92.800781 238.601562 L 82.800781 236.398438 C 77.332031 235.066406 74.199219 233.667969 73.398438 232.199219 C 72.066406 229.667969 71.398438 227.464844 71.398438 225.601562 C 71.265625 224.265625 71.535156 222 72.199219 218.800781 C 73.398438 214.667969 73.066406 210.601562 71.199219 206.601562 C 69.867188 197.265625 66.132812 195.601562 60 201.601562 C 60.398438 204.933594 60.332031 207.398438 59.800781 209 C 59.132812 211.265625 57.601562 213 55.199219 214.199219 C 54.265625 214.734375 53.800781 214.601562 53.800781 213.800781 L 50.398438 209 C 48.933594 207.535156 48.265625 205.800781 48.398438 203.800781 L 50.199219 189.199219 C 50.867188 183.601562 51 178.734375 50.601562 174.601562 L 50.601562 174.398438 C 50.464844 171.867188 50.734375 168.734375 51.398438 165 L 52.800781 155.601562 C 52.800781 155.066406 53.132812 154.800781 53.800781 154.800781 L 57.601562 154.800781 L 61 156.199219 C 67.132812 159.933594 77.464844 164.199219 92 169 L 109.199219 171.601562 L 126.398438 173 C 138.398438 174.734375 150.667969 173.667969 163.199219 169.800781 L 181.800781 167 C 189 165.800781 194.398438 162.734375 198 157.800781 "/>
</g>
</svg>
