<?xml version="1.0" encoding="UTF-8"?>
<svg xmlns="http://www.w3.org/2000/svg" xmlns:xlink="http://www.w3.org/1999/xlink" width="236pt" height="352pt" viewBox="0 0 236 352" version="1.1">
<g id="surface1">
<path style=" stroke:none;fill-rule:nonzero;fill:rgb(0%,0%,0%);fill-opacity:1;" d="M 158.398438 130.800781 L 158.398438 136.601562 L 158 137.398438 L 156.601562 137.398438 L 158.398438 130.800781 "/>
<path style=" stroke:none;fill-rule:nonzero;fill:rgb(100%,100%,100%);fill-opacity:1;" d="M 159 343.398438 L 88.800781 343.398438 L 88.800781 224.800781 L 159 224.800781 L 159 343.398438 "/>
<path style=" stroke:none;fill-rule:nonzero;fill:rgb(0%,0%,0%);fill-opacity:1;" d="M 163 224.398438 L 163 343 L 161 345.601562 L 159.199219 346 L 88.398438 346 C 86 346 84.800781 345.265625 84.800781 343.800781 L 84.800781 225 C 84.800781 224.199219 85.332031 223.464844 86.398438 222.800781 L 89.199219 222 L 159.398438 222 C 161.800781 222 163 222.800781 163 224.398438 M 92.601562 340.800781 L 155.199219 340.800781 L 155.199219 227.398438 L 92.601562 227.398438 L 92.601562 340.800781 "/>
<path style=" stroke:none;fill-rule:nonzero;fill:rgb(80%,80%,80%);fill-opacity:1;" d="M 154.199219 348.199219 L 84 348.199219 L 84 229.601562 L 154.199219 229.601562 L 154.199219 348.199219 "/>
<path style=" stroke:none;fill-rule:nonzero;fill:rgb(0%,0%,0%);fill-opacity:1;" d="M 158 229 L 158 347.800781 C 158 349.132812 156.734375 350 154.199219 350.398438 L 153.800781 350.601562 L 82.398438 350.601562 C 80.800781 350.601562 80 350 80 348.800781 L 80 230 C 80 228.265625 81.800781 227.398438 85.398438 227.398438 L 155.601562 227.398438 C 157.199219 227.398438 158 227.933594 158 229 M 87.800781 346 L 150.398438 346 L 150.398438 231.800781 L 87.800781 231.800781 L 87.800781 346 "/>
<path style=" stroke:none;fill-rule:nonzero;fill:rgb(0%,0%,0%);fill-opacity:1;" d="M 230.601562 137.800781 L 230.800781 138.199219 L 234.601562 150.601562 C 235.265625 155.933594 234.199219 160.800781 231.398438 165.199219 L 229.398438 167.800781 L 229.398438 168.601562 C 229.265625 173.132812 228.332031 178.398438 226.601562 184.398438 L 226.398438 184.800781 C 229.734375 186.398438 231.398438 189 231.398438 192.601562 L 232 245.800781 C 232.535156 259.535156 232.535156 270.132812 232 277.601562 L 231.601562 285.398438 C 231.464844 287.535156 230.601562 289.332031 229 290.800781 C 227.398438 292.265625 225.535156 293.066406 223.398438 293.199219 L 215.800781 293.398438 L 162.800781 294.398438 L 134.800781 294.199219 L 132.601562 294 L 70.800781 294.398438 L 16.601562 293.398438 L 8.800781 293.199219 C 6.667969 293.066406 4.800781 292.265625 3.199219 290.800781 C 1.734375 289.199219 0.867188 287.332031 0.601562 285.199219 L 0.199219 277.601562 C -0.199219 270 0.464844 260.734375 2.199219 249.800781 L 3.800781 236.199219 L 3.800781 215 L 3.601562 192.601562 C 3.601562 190.332031 4.398438 188.332031 6 186.601562 C 7.464844 185 9.332031 184.132812 11.601562 184 L 10.800781 181.601562 C 9.464844 177.464844 8.933594 172.132812 9.199219 165.601562 C 6.800781 162.667969 5.332031 159.398438 4.800781 155.800781 L 4.800781 155.199219 C 4 148.667969 6.199219 141.199219 11.398438 132.800781 L 15 126.199219 L 15.601562 124.601562 L 16 124 L 18.398438 117.398438 L 22.601562 106.398438 L 28.398438 97.199219 L 36.398438 87.199219 C 39.199219 84.667969 42.667969 83.398438 46.800781 83.398438 L 51.398438 83.398438 C 54.601562 83.398438 56.933594 84.734375 58.398438 87.398438 L 61 91.199219 C 65.933594 98.800781 70.933594 109.332031 76 122.800781 C 75.332031 118.667969 75.132812 113.066406 75.398438 106 C 72.066406 102.398438 70 98.265625 69.199219 93.601562 L 69 92.800781 C 68.601562 88.398438 69.398438 83.535156 71.398438 78.199219 C 72.867188 74.464844 75.601562 69 79.601562 61.800781 L 79.800781 61.199219 L 83 55.199219 L 83.800781 53.800781 L 84 53.199219 L 88 42.601562 C 90 36.332031 91.867188 31.535156 93.601562 28.199219 L 101.199219 16.199219 C 105.601562 9.667969 108.800781 5.464844 110.800781 3.601562 C 113.464844 1.199219 117 0 121.398438 0 L 126 0 C 128.933594 0 131.265625 1.265625 133 3.800781 L 135.601562 7.601562 C 140.535156 15.199219 145.398438 24.667969 150.199219 36 L 161 65 L 163.601562 71.800781 L 163.800781 72.601562 C 166.464844 78.867188 168.066406 83.933594 168.601562 87.800781 C 169.535156 94.066406 168.398438 99.601562 165.199219 104.398438 L 161.398438 108.800781 L 161.398438 113 C 161.265625 117.535156 160.066406 124.199219 157.800781 133 L 156.601562 137.398438 L 158 137.398438 L 158.398438 136.601562 C 158.667969 133.933594 159.800781 131.867188 161.800781 130.398438 L 164.398438 125.601562 L 165 124 L 167.601562 117.398438 C 169.066406 112.734375 170.464844 109.066406 171.800781 106.398438 C 172.199219 105.332031 174.132812 102.265625 177.601562 97.199219 C 180.933594 92.132812 183.535156 88.800781 185.398438 87.199219 C 188.199219 84.667969 191.734375 83.398438 196 83.398438 L 200.601562 83.398438 C 203.535156 83.398438 205.867188 84.734375 207.601562 87.398438 L 210.199219 91.199219 C 213.933594 96.800781 217.535156 103.800781 221 112.199219 L 228.800781 133 L 230.601562 137.800781 "/>
<path style=" stroke:none;fill-rule:nonzero;fill:rgb(100%,100%,100%);fill-opacity:1;" d="M 221 136.398438 L 222.800781 141.398438 L 226 151 C 226.535156 154.601562 225.933594 157.800781 224.199219 160.601562 L 220.800781 164.199219 L 220.800781 168.601562 C 220.800781 171.398438 220 175.867188 218.398438 182 C 217.199219 186.265625 216.601562 189.535156 216.601562 191.800781 L 216.601562 192.601562 L 223 192.601562 L 223.398438 246.199219 C 224.199219 258.734375 224.265625 269 223.601562 277 L 223 284.601562 L 215.398438 285 L 162.800781 285.800781 L 70.800781 285.800781 L 16.800781 285 L 9.199219 284.800781 L 8.800781 277 C 8.398438 270.734375 9 262.066406 10.601562 251 L 12.199219 236.800781 L 12.398438 214.601562 L 12 192.601562 L 21.800781 192.601562 L 21.800781 190 L 19 179 C 17.933594 175.535156 17.535156 170.464844 17.800781 163.800781 L 17.800781 162.398438 C 15.265625 160.132812 13.734375 157.464844 13.199219 154.398438 L 13.199219 153.800781 C 12.667969 150.199219 13.800781 145.933594 16.601562 141 L 23 129.199219 L 23.398438 128 L 26.601562 120 L 30.199219 110.199219 L 35.398438 102 L 41.398438 94 C 42.867188 92.667969 44.667969 92 46.800781 92 L 51.398438 92 L 54 95.800781 C 59.199219 103.667969 65.066406 117.066406 71.601562 136 L 71.800781 136.398438 L 75.398438 145.800781 L 89.601562 145.800781 L 89.601562 142.398438 L 85.398438 126.398438 C 84.199219 122.265625 83.734375 115.464844 84 106 L 84.199219 102.199219 C 80.601562 99.800781 78.398438 96.464844 77.601562 92.199219 L 77.398438 92 L 77.398438 91.601562 C 77 88.535156 77.734375 84.734375 79.601562 80.199219 C 80.800781 77.265625 83.265625 72.535156 87 66 L 91 58.398438 L 91.398438 57.199219 L 96.199219 45.199219 C 98.066406 39.332031 99.734375 34.933594 101.199219 32 L 108.199219 20.800781 L 115.800781 10.398438 C 117.265625 9.066406 119.132812 8.398438 121.398438 8.398438 L 126 8.398438 L 128.398438 12.199219 C 135.734375 23.265625 143.867188 41.800781 152.800781 67.800781 L 153.199219 68.398438 L 156 75.800781 L 160.199219 88.199219 C 160.867188 92.601562 160.199219 96.464844 158.199219 99.800781 L 152.800781 104.601562 L 152.800781 112.800781 C 152.800781 116.933594 151.734375 122.933594 149.601562 130.800781 C 147.734375 136.933594 146.800781 141.800781 146.800781 145.398438 L 146.800781 145.800781 L 163.601562 145.800781 L 166.800781 138.601562 L 166.800781 137.199219 L 167.601562 137.199219 L 169.398438 134.199219 L 172 129.199219 L 172.199219 128.601562 L 172.601562 128 L 175.601562 120 L 179.398438 110.199219 L 184.601562 102 C 187.535156 97.601562 189.535156 94.933594 190.601562 94 C 191.933594 92.667969 193.734375 92 196 92 L 200.601562 92 L 203 95.800781 C 208.464844 104.199219 214.398438 117.601562 220.800781 136 L 221 136.398438 "/>
<path style=" stroke:none;fill-rule:nonzero;fill:rgb(80%,80%,80%);fill-opacity:1;" d="M 144.199219 80.398438 L 144.398438 112.601562 C 144.398438 116.464844 143.332031 121.933594 141.199219 129 C 139.332031 135.933594 138.398438 141.464844 138.398438 145.601562 L 138.601562 167.398438 C 138.867188 185.265625 138.601562 205.601562 137.800781 228.398438 L 137.800781 232.398438 L 137 236.398438 C 136.464844 237.867188 134.601562 238.667969 131.398438 238.800781 L 124.199219 238.800781 C 117 238.398438 111.667969 238.398438 108.199219 238.800781 C 103.398438 239.332031 100.734375 235.535156 100.199219 227.398438 L 100.398438 208.199219 L 98 167.601562 L 98 141.601562 C 97.601562 137.867188 96.132812 131.933594 93.601562 123.800781 C 92.535156 120.199219 92.132812 114.398438 92.398438 106.398438 L 92.601562 93.601562 L 92.398438 80.398438 L 99.800781 80.398438 L 99.800781 88.398438 L 107.199219 88.398438 L 107.199219 80.398438 L 114.601562 80.398438 L 114.601562 88.398438 L 122 88.398438 L 122 80.398438 L 129.398438 80.398438 L 129.398438 88.398438 L 136.800781 88.398438 L 136.800781 80.398438 L 144.199219 80.398438 "/>
<path style=" stroke:none;fill-rule:nonzero;fill:rgb(70.196078%,70.196078%,70.196078%);fill-opacity:1;" d="M 146.199219 80.199219 L 146.199219 99.800781 C 146.332031 106.332031 145.398438 115.800781 143.398438 128.199219 C 141.398438 140.601562 140.398438 150 140.398438 156.398438 L 140.398438 203.601562 L 141.199219 220.800781 C 141.332031 229.332031 140.464844 234.800781 138.601562 237.199219 C 136.464844 239.867188 132.464844 241.132812 126.601562 241 L 113.398438 240 L 103.800781 239.398438 C 100.867188 238.332031 99.199219 235.800781 98.800781 231.800781 L 97.601562 210 L 96.800781 188 L 96.601562 157.800781 C 96.464844 145.667969 95.199219 135.800781 92.800781 128.199219 C 90.933594 121.933594 90 114.066406 90 104.601562 L 90.398438 80.601562 C 90.398438 79.535156 91.132812 79 92.601562 79 L 100 79 C 101.199219 79 101.800781 79.398438 101.800781 80.199219 C 101.800781 84.332031 102.398438 86.464844 103.601562 86.601562 C 104.667969 86.867188 105.199219 84.867188 105.199219 80.601562 C 105.199219 79.535156 105.933594 79 107.398438 79 L 114.800781 79 C 116 79 116.601562 79.398438 116.601562 80.199219 C 116.601562 84.199219 117.199219 86.265625 118.398438 86.398438 C 119.464844 86.535156 120 84.601562 120 80.601562 C 120 79.535156 120.734375 79 122.199219 79 L 129.601562 79 C 130.800781 79 131.398438 79.398438 131.398438 80.199219 C 131.398438 84.332031 132 86.464844 133.199219 86.601562 C 134.265625 86.867188 134.800781 84.867188 134.800781 80.601562 C 134.800781 79.535156 135.535156 79 137 79 L 144.398438 79 C 145.601562 79 146.199219 79.398438 146.199219 80.199219 "/>
<path style=" stroke:none;fill-rule:nonzero;fill:rgb(92.54902%,10.980392%,14.117647%);fill-opacity:1;" d="M 152 90.800781 C 152.398438 96 148.066406 98.800781 139 99.199219 L 109 99.800781 C 94.601562 99.265625 86.933594 96.265625 86 90.800781 C 85.734375 88 87.535156 82.933594 91.398438 75.601562 L 99 61.199219 L 104 48.601562 C 106 42.601562 107.601562 38.332031 108.800781 35.800781 L 121.398438 17 C 125.933594 23.800781 130.398438 32.601562 134.800781 43.398438 L 145.199219 71.199219 L 152 90.800781 "/>
<path style=" stroke:none;fill-rule:nonzero;fill:rgb(76.078431%,15.294118%,17.647059%);fill-opacity:1;" d="M 147.398438 82.601562 L 136 51.601562 L 127.398438 34.199219 C 123 25 121.464844 19.398438 122.800781 17.398438 C 118.667969 23.265625 114.667969 30.332031 110.800781 38.601562 L 101 61 L 95.199219 71.398438 C 92.667969 75.800781 90.867188 79.332031 89.800781 82 C 85.933594 92.535156 92 98.066406 108 98.601562 L 132.398438 98.398438 L 142.800781 97.601562 C 147.332031 96.800781 149.667969 95.398438 149.800781 93.398438 C 149.933594 90.601562 149.132812 87 147.398438 82.601562 M 153.398438 87.601562 C 154.199219 92.535156 152.667969 96 148.800781 98 L 136.199219 100.199219 L 111.601562 101.398438 C 101.867188 101.398438 94 99.800781 88 96.601562 C 83.066406 93.933594 82.734375 88.132812 87 79.199219 L 97 61.800781 L 97 61.601562 L 106.800781 38.398438 C 110.535156 29.601562 114.800781 22.464844 119.601562 17 L 121.199219 16 L 123.199219 16.199219 C 130.132812 27.535156 136.332031 40.734375 141.800781 55.800781 L 148.199219 71.398438 C 151 77.933594 152.734375 83.332031 153.398438 87.601562 "/>
<path style=" stroke:none;fill-rule:nonzero;fill:rgb(60%,60%,60%);fill-opacity:1;" d="M 109 116.398438 L 108.601562 126.800781 L 107.601562 131.601562 L 105 132 L 103.199219 129.398438 L 102.800781 126.800781 L 102.800781 106 L 108.601562 106 L 109 116.398438 "/>
<path style=" stroke:none;fill-rule:nonzero;fill:rgb(60%,60%,60%);fill-opacity:1;" d="M 116.398438 106 L 122.199219 106 L 121.601562 128.800781 L 120.601562 132.601562 C 119.800781 133.667969 118.800781 133.933594 117.601562 133.398438 C 116.535156 133 115.933594 132.066406 115.800781 130.601562 L 116 126.398438 L 116.398438 106 "/>
<path style=" stroke:none;fill-rule:nonzero;fill:rgb(60%,60%,60%);fill-opacity:1;" d="M 130 110.398438 L 130.199219 106.601562 C 130.601562 105.800781 131.601562 105.464844 133.199219 105.601562 L 136.398438 106 L 136.601562 121.199219 L 136 130.601562 L 135.199219 132.398438 L 133.398438 132.601562 L 130.800781 131.601562 C 129.867188 130.535156 129.464844 128.066406 129.601562 124.199219 L 130 116.199219 L 130 110.398438 "/>
<path style=" stroke:none;fill-rule:nonzero;fill:rgb(70.196078%,70.196078%,70.196078%);fill-opacity:1;" d="M 115.601562 167 L 103 165.398438 L 101 165.199219 L 99.800781 164.398438 C 99.132812 163.332031 98.933594 161.933594 99.199219 160.199219 L 100 156 L 100 149.800781 C 99.734375 147.667969 99 145.734375 97.800781 144 C 100.332031 145.464844 102.464844 147.066406 104.199219 148.800781 L 108.199219 153 C 110.066406 155.132812 112.800781 156.332031 116.398438 156.601562 C 120 156.867188 123.332031 156.199219 126.398438 154.601562 L 132.398438 150 L 139 146.199219 L 138.199219 152.199219 L 137 154.398438 L 136.199219 156.398438 L 136.199219 160.398438 C 136.199219 162.535156 134.132812 164.265625 130 165.601562 L 115.601562 167 "/>
<path style=" stroke:none;fill-rule:nonzero;fill:rgb(80%,80%,80%);fill-opacity:1;" d="M 180.601562 145.601562 L 180.601562 151.398438 L 186 151.398438 L 186 145.601562 L 191.199219 145.601562 L 191.199219 151.398438 L 196.398438 151.398438 L 196.398438 145.601562 L 201.601562 145.601562 L 201.601562 151.398438 L 207 151.398438 L 207 145.601562 L 212.199219 145.601562 L 212.398438 168.398438 C 212.398438 171.199219 211.667969 175.132812 210.199219 180.199219 C 208.734375 185 208 188.933594 208 192 L 208.199219 207.398438 L 207.601562 218.601562 L 207.199219 224.398438 C 206.800781 225.332031 205.464844 225.867188 203.199219 226 L 198 226 L 189.199219 226.601562 C 185.464844 226.601562 183 225.464844 181.800781 223.199219 C 181.265625 222.265625 181.066406 221.066406 181.199219 219.601562 L 181.601562 216 L 180.398438 209.601562 L 179 203.199219 L 179.398438 189.199219 C 178.867188 185.066406 177.800781 180.800781 176.199219 176.398438 C 175.398438 173.867188 175.132812 169.734375 175.398438 164 L 175.398438 145.601562 L 180.601562 145.601562 "/>
<path style=" stroke:none;fill-rule:nonzero;fill:rgb(70.196078%,70.196078%,70.196078%);fill-opacity:1;" d="M 180.800781 144.199219 C 182 144.199219 182.601562 144.667969 182.601562 145.601562 C 182.601562 148.132812 182.867188 149.464844 183.398438 149.601562 L 184 145.800781 C 184 144.734375 184.667969 144.199219 186 144.199219 L 191.398438 144.199219 C 192.601562 144.199219 193.199219 144.667969 193.199219 145.601562 C 193.199219 148.132812 193.398438 149.464844 193.800781 149.601562 L 194.398438 145.800781 C 194.398438 144.734375 195.132812 144.199219 196.601562 144.199219 L 201.800781 144.199219 C 203 144.199219 203.601562 144.667969 203.601562 145.601562 C 203.601562 148.132812 203.867188 149.464844 204.398438 149.601562 L 205 145.800781 C 205 144.734375 205.734375 144.199219 207.199219 144.199219 L 212.398438 144.199219 C 213.601562 144.199219 214.199219 144.667969 214.199219 145.601562 L 214.199219 159.398438 C 214.332031 163.667969 213.667969 169.667969 212.199219 177.398438 C 210.734375 185.398438 210 191.398438 210 195.398438 L 209.800781 215.199219 C 209.398438 221.464844 207.867188 225.332031 205.199219 226.800781 L 190.800781 228 L 184.800781 227.601562 L 180 224.199219 C 179.464844 223.398438 179.132812 221.199219 179 217.601562 L 179 212.199219 L 177 203.199219 C 176.867188 194.800781 175.667969 184.734375 173.398438 173 C 172.734375 169.667969 172.535156 165.132812 172.800781 159.398438 L 173.398438 145.800781 C 173.398438 144.734375 174.132812 144.199219 175.601562 144.199219 L 180.800781 144.199219 M 209.601562 147.398438 L 209 151.199219 C 209 152.265625 208.265625 152.800781 206.800781 152.800781 L 201.601562 152.800781 C 200.398438 152.800781 199.800781 152.332031 199.800781 151.398438 L 199.199219 147 C 198.667969 146.867188 198.398438 148.265625 198.398438 151.199219 C 198.398438 152.265625 197.667969 152.800781 196.199219 152.800781 L 191 152.800781 C 189.800781 152.800781 189.199219 152.332031 189.199219 151.398438 L 188.601562 147 C 188.066406 146.867188 187.800781 148.265625 187.800781 151.199219 C 187.800781 152.265625 187.132812 152.800781 185.800781 152.800781 L 180.398438 152.800781 C 179.199219 152.800781 178.601562 152.332031 178.601562 151.398438 L 178.398438 149 C 178.398438 147.800781 178.667969 147.199219 179.199219 147.199219 C 177.332031 147.199219 176.464844 148 176.601562 149.601562 L 177.398438 154.800781 L 177.398438 166.800781 C 177.535156 171.332031 178.066406 175.265625 179 178.601562 L 181.398438 205.199219 C 183 218.933594 186.265625 225.535156 191.199219 225 L 201.398438 224.601562 C 203.933594 224.464844 205.398438 223.332031 205.800781 221.199219 L 205.800781 215.398438 L 206.199219 204 C 206.199219 198.933594 206.867188 191.535156 208.199219 181.800781 C 209.667969 172.199219 210.332031 164.867188 210.199219 159.800781 L 210.199219 147.199219 C 210.199219 146.265625 210 146.332031 209.601562 147.398438 "/>
<path style=" stroke:none;fill-rule:nonzero;fill:rgb(92.54902%,10.980392%,14.117647%);fill-opacity:1;" d="M 183.601562 123.199219 L 187 114 L 191.800781 106.601562 L 196 100.601562 C 200.535156 107.535156 206.132812 120.398438 212.800781 139.199219 L 217.601562 153 C 217.867188 156.734375 214.800781 158.734375 208.398438 159 L 187.199219 159.398438 C 176.933594 159 171.464844 156.867188 170.800781 153 C 170.535156 151 171.800781 147.464844 174.601562 142.398438 L 180 132.199219 L 183.601562 123.199219 "/>
<path style=" stroke:none;fill-rule:nonzero;fill:rgb(76.078431%,15.294118%,17.647059%);fill-opacity:1;" d="M 219.601562 152.398438 C 219.464844 155.734375 217.601562 157.867188 214 158.800781 L 204.398438 159.800781 L 188.398438 160.800781 C 181.734375 160.933594 176.601562 160 173 158 C 168.734375 155.601562 167.933594 151.464844 170.601562 145.601562 L 178.199219 132.601562 L 178.199219 132.398438 L 178.398438 132.199219 L 185 116 C 187.800781 109.734375 190.867188 104.601562 194.199219 100.601562 C 194.601562 100.199219 195.199219 99.933594 196 99.800781 L 197.800781 100 C 202.601562 107.734375 207.464844 118.265625 212.398438 131.601562 L 216.800781 141.800781 C 218.800781 146.332031 219.734375 149.867188 219.601562 152.398438 M 175 144.199219 C 172.066406 150.332031 172.132812 154.199219 175.199219 155.800781 C 178.800781 157.667969 183.535156 158.667969 189.398438 158.800781 L 204.199219 158.199219 C 213.265625 157.933594 216.800781 155.066406 214.800781 149.601562 L 209.800781 136.199219 C 204.601562 122.066406 199.800781 111.132812 195.398438 103.398438 C 193 106.734375 190.800781 110.800781 188.800781 115.601562 L 182 131.800781 L 175 144.199219 "/>
<path style=" stroke:none;fill-rule:nonzero;fill:rgb(60%,60%,60%);fill-opacity:1;" d="M 182.800781 163.800781 L 186.800781 163.800781 L 187.199219 171.199219 L 187 178.601562 L 186.199219 182 C 184.867188 183.199219 183.800781 182.667969 183 180.398438 L 182.800781 178.601562 L 182.800781 163.800781 "/>
<path style=" stroke:none;fill-rule:nonzero;fill:rgb(60%,60%,60%);fill-opacity:1;" d="M 192.398438 163.800781 L 196.398438 163.800781 L 196.199219 180 L 195.398438 182.601562 C 194.867188 183.398438 194.199219 183.667969 193.398438 183.398438 C 192.601562 183.132812 192.132812 182.398438 192 181.199219 L 192.199219 178.398438 L 192.398438 163.800781 "/>
<path style=" stroke:none;fill-rule:nonzero;fill:rgb(60%,60%,60%);fill-opacity:1;" d="M 206.800781 163.800781 L 206.800781 174.601562 L 206.398438 181.199219 C 206.132812 182.265625 205.464844 182.734375 204.398438 182.601562 L 202.601562 182 C 201.933594 181.199219 201.667969 179.398438 201.800781 176.601562 L 202 171 L 202.199219 164.199219 C 202.601562 163.667969 203.332031 163.464844 204.398438 163.601562 L 206.800781 163.800781 "/>
<path style=" stroke:none;fill-rule:nonzero;fill:rgb(70.196078%,70.196078%,70.196078%);fill-opacity:1;" d="M 209.601562 191.398438 L 207.199219 203.398438 L 206.601562 206 L 202.800781 208.199219 C 200.800781 208.867188 199.734375 208.464844 199.601562 207 C 199.199219 204.464844 199.199219 201.867188 199.601562 199.199219 C 199.867188 196.265625 201.398438 193.332031 204.199219 190.398438 L 207.800781 185.800781 L 208.601562 181.601562 L 209.199219 179.601562 L 210.199219 178.601562 L 209.800781 181.398438 L 209.601562 191.398438 "/>
<path style=" stroke:none;fill-rule:nonzero;fill:rgb(80%,80%,80%);fill-opacity:1;" d="M 63 145.601562 L 63.199219 168.398438 L 61 180.199219 C 59.667969 185 59 188.933594 59 192 L 59.199219 207.398438 L 58.601562 218.601562 L 58 224.398438 C 57.601562 225.332031 56.265625 225.867188 54 226 L 48.800781 226 L 40 226.601562 C 36.265625 226.601562 33.800781 225.464844 32.601562 223.199219 C 32.066406 222.265625 31.867188 221.066406 32 219.601562 L 32.398438 216 L 31.199219 209.601562 L 29.800781 203.199219 L 30.199219 189.199219 C 29.933594 186 28.867188 181.734375 27 176.398438 C 26.332031 174.265625 26.132812 170.132812 26.398438 164 L 26.199219 145.601562 L 31.601562 145.601562 L 31.601562 151.398438 L 36.800781 151.398438 L 36.800781 145.601562 L 42 145.601562 L 42 151.398438 L 47.398438 151.398438 L 47.398438 145.601562 L 52.601562 145.601562 L 52.601562 151.398438 L 57.800781 151.398438 L 57.800781 145.601562 L 63 145.601562 "/>
<path style=" stroke:none;fill-rule:nonzero;fill:rgb(70.196078%,70.196078%,70.196078%);fill-opacity:1;" d="M 54.601562 145.601562 C 54.601562 148.132812 54.800781 149.464844 55.199219 149.601562 L 55.800781 145.800781 C 55.800781 144.734375 56.535156 144.199219 58 144.199219 L 63.199219 144.199219 C 64.398438 144.199219 65 144.667969 65 145.601562 L 65 159.398438 C 65.132812 163.535156 64.464844 169.535156 63 177.398438 C 61.667969 185.398438 61 191.398438 61 195.398438 L 60.601562 215.199219 C 60.332031 221.464844 58.800781 225.332031 56 226.800781 L 41.800781 228 L 35.800781 227.601562 C 33.667969 227.066406 32 225.933594 30.800781 224.199219 C 30.265625 223.398438 29.933594 221.199219 29.800781 217.601562 L 29.800781 212.199219 L 27.800781 203.199219 C 27.800781 194.800781 26.667969 184.734375 24.398438 173 C 23.734375 169.667969 23.535156 165.132812 23.800781 159.398438 L 24.199219 145.800781 C 24.199219 144.734375 24.933594 144.199219 26.398438 144.199219 L 31.601562 144.199219 C 32.800781 144.199219 33.398438 144.667969 33.398438 145.601562 C 33.398438 148.132812 33.667969 149.464844 34.199219 149.601562 L 34.800781 145.800781 C 34.800781 144.734375 35.535156 144.199219 37 144.199219 L 42.199219 144.199219 C 43.398438 144.199219 44 144.667969 44 145.601562 C 44 148.132812 44.265625 149.464844 44.800781 149.601562 L 45.398438 145.800781 C 45.398438 144.734375 46.066406 144.199219 47.398438 144.199219 L 52.800781 144.199219 C 54 144.199219 54.601562 144.667969 54.601562 145.601562 M 60.601562 147.398438 L 59.800781 151.199219 C 59.800781 152.265625 59.066406 152.800781 57.601562 152.800781 L 52.398438 152.800781 C 51.199219 152.800781 50.601562 152.332031 50.601562 151.398438 L 50 147 C 49.464844 146.867188 49.199219 148.265625 49.199219 151.199219 C 49.199219 152.265625 48.535156 152.800781 47.199219 152.800781 L 41.800781 152.800781 C 40.601562 152.800781 40 152.332031 40 151.398438 L 39.398438 147 C 39 146.867188 38.800781 148.265625 38.800781 151.199219 C 38.800781 152.265625 38.066406 152.800781 36.601562 152.800781 L 31.398438 152.800781 C 30.199219 152.800781 29.601562 152.332031 29.601562 151.398438 L 29.398438 149 C 29.265625 147.800781 29.464844 147.199219 30 147.199219 C 28.265625 147.199219 27.464844 148 27.601562 149.601562 L 28.398438 154.800781 L 28.199219 166.800781 C 28.332031 171.332031 28.867188 175.265625 29.800781 178.601562 C 30.601562 181.132812 31.464844 190 32.398438 205.199219 C 34 218.933594 37.199219 225.535156 42 225 L 52.199219 224.601562 C 54.734375 224.464844 56.199219 223.332031 56.601562 221.199219 L 56.800781 215.398438 L 57.199219 204 C 57.199219 198.933594 57.867188 191.535156 59.199219 181.800781 C 60.667969 172.199219 61.332031 164.867188 61.199219 159.800781 L 61.199219 147.199219 C 61.199219 146.265625 61 146.332031 60.601562 147.398438 "/>
<path style=" stroke:none;fill-rule:nonzero;fill:rgb(92.54902%,10.980392%,14.117647%);fill-opacity:1;" d="M 63.800781 139.199219 L 68.601562 153 C 68.867188 156.734375 65.800781 158.734375 59.398438 159 L 38 159.398438 C 27.734375 159 22.265625 156.867188 21.601562 153 C 21.332031 151 22.601562 147.464844 25.398438 142.398438 L 31 132.199219 L 34.398438 123.199219 L 37.800781 114 L 46.800781 100.601562 C 50 105.398438 53.199219 111.667969 56.398438 119.398438 L 63.800781 139.199219 "/>
<path style=" stroke:none;fill-rule:nonzero;fill:rgb(76.078431%,15.294118%,17.647059%);fill-opacity:1;" d="M 65.601562 149.601562 L 60.601562 136.199219 C 55.800781 122.867188 51.066406 112.066406 46.398438 103.800781 C 43.867188 107.132812 41.535156 111.265625 39.398438 116.199219 L 32.800781 132.398438 L 25.601562 145.601562 C 22.933594 151.734375 23.933594 155.398438 28.601562 156.601562 L 41.398438 158 L 54.398438 157.601562 C 63.734375 157.199219 67.464844 154.535156 65.601562 149.601562 M 66.398438 139.199219 L 70.199219 150.601562 C 70.867188 155 69.265625 157.867188 65.398438 159.199219 L 54 160.601562 L 37.199219 161.199219 C 30.265625 160.933594 25 159.398438 21.398438 156.601562 C 18.734375 154.332031 18.933594 150.132812 22 144 L 29 131.800781 L 36 115.398438 C 38.800781 109.132812 41.867188 104 45.199219 100 C 45.601562 99.601562 46.132812 99.332031 46.800781 99.199219 L 48.601562 99.800781 C 53.667969 107.667969 58.066406 117.066406 61.800781 128 L 66.398438 139.199219 "/>
<path style=" stroke:none;fill-rule:nonzero;fill:rgb(60%,60%,60%);fill-opacity:1;" d="M 37.800781 163.800781 L 38 171.199219 L 37.800781 178.601562 C 37.800781 180.464844 37.535156 181.601562 37 182 L 35.199219 182.398438 L 34 180.398438 L 33.601562 178.601562 L 33.601562 163.800781 L 37.800781 163.800781 "/>
<path style=" stroke:none;fill-rule:nonzero;fill:rgb(60%,60%,60%);fill-opacity:1;" d="M 43.398438 163.800781 L 47.398438 163.800781 L 47 180 L 46.199219 182.601562 C 45.667969 183.398438 45 183.667969 44.199219 183.398438 C 43.398438 183 43 182.265625 43 181.199219 L 43 178.398438 L 43.398438 163.800781 "/>
<path style=" stroke:none;fill-rule:nonzero;fill:rgb(60%,60%,60%);fill-opacity:1;" d="M 57.601562 163.800781 L 57.800781 174.601562 L 57.199219 181.199219 L 56.601562 182.601562 L 55.398438 182.601562 L 53.398438 182 C 52.734375 181.199219 52.464844 179.398438 52.601562 176.601562 L 53 171 L 53 164.199219 L 55.199219 163.601562 L 57.601562 163.800781 "/>
<path style=" stroke:none;fill-rule:nonzero;fill:rgb(70.196078%,70.196078%,70.196078%);fill-opacity:1;" d="M 30.800781 179 C 30.933594 181.132812 31.535156 183.601562 32.601562 186.398438 L 35.398438 193.800781 C 36.734375 197.132812 37.800781 202.199219 38.601562 209 L 38.800781 221 C 35.867188 221.667969 33.800781 218.265625 32.601562 210.800781 C 31.800781 206.265625 31.398438 201.398438 31.398438 196.199219 C 31.398438 193.535156 30.867188 190.332031 29.800781 186.601562 L 27 177 C 24.601562 169.800781 24.667969 166.132812 27.199219 166 L 29.800781 171.601562 L 30.800781 179 "/>
<path style=" stroke:none;fill-rule:nonzero;fill:rgb(80%,80%,80%);fill-opacity:1;" d="M 67.800781 154.398438 L 75.199219 154.398438 L 75.199219 162.800781 L 82.800781 162.800781 L 82.800781 154.398438 L 90.398438 154.398438 L 90.398438 162.800781 L 98 162.800781 L 98 154.398438 L 105.601562 154.398438 L 105.601562 162.800781 L 113.199219 162.800781 L 113 154.398438 L 120.800781 154.398438 L 120.800781 162.800781 L 128.199219 162.800781 L 128.199219 154.398438 L 135.800781 154.398438 L 135.800781 162.800781 L 143.398438 162.800781 L 143.398438 154.398438 L 151 154.398438 L 151 162.800781 L 158.601562 162.800781 L 158.601562 154.398438 L 166.199219 154.398438 L 166.199219 175 L 166.601562 193 L 166.398438 211.199219 C 150.535156 212 133.800781 212.066406 116.199219 211.398438 C 100.734375 212.199219 84 212.132812 66 211.199219 L 66.601562 196.398438 L 67.800781 181.601562 L 67.800781 154.398438 "/>
<path style=" stroke:none;fill-rule:nonzero;fill:rgb(70.196078%,70.196078%,70.196078%);fill-opacity:1;" d="M 85.199219 157.800781 L 84.800781 162.199219 C 84.800781 163 83.734375 163.398438 81.601562 163.398438 L 74 163.398438 L 73.398438 163.199219 L 73.601562 158.601562 C 73.601562 156.199219 73.066406 155 72 155 C 69.601562 155 68.535156 157.398438 68.800781 162.199219 L 69.800781 174.199219 L 68.800781 188.800781 L 68 203.199219 C 68 207.734375 70.800781 210.398438 76.398438 211.199219 L 146.199219 211.199219 L 160.199219 209.601562 C 163.265625 208 164.734375 203.867188 164.601562 197.199219 L 164.199219 159 C 164.199219 157 163.601562 155.734375 162.398438 155.199219 C 161.066406 154.667969 160.398438 154.667969 160.398438 155.199219 L 160.398438 162.199219 C 160.398438 163 159.332031 163.398438 157.199219 163.398438 L 149.601562 163.398438 L 149 163.199219 L 149 157 C 148.464844 155.667969 146.867188 155 144.199219 155 C 145.132812 155 145.601562 155.933594 145.601562 157.800781 L 145.199219 162.199219 C 145.199219 163 144.132812 163.398438 142 163.398438 L 134.398438 163.398438 L 133.800781 163.199219 L 133.800781 157 C 133.398438 155.667969 131.800781 155 129 155 C 129.933594 155 130.398438 155.933594 130.398438 157.800781 L 130.199219 162.199219 C 130.199219 163 129.132812 163.398438 127 163.398438 L 119.601562 163.398438 L 118.800781 163.199219 L 119.398438 158 C 119.398438 156 118.734375 155 117.398438 155 C 114.199219 155 112.734375 155.332031 113 156 L 115 162.199219 C 115 163 113.933594 163.398438 111.800781 163.398438 L 104.398438 163.398438 L 103.800781 163.199219 L 103.800781 157 C 103.265625 155.667969 101.667969 155 99 155 C 99.933594 155 100.398438 155.933594 100.398438 157.800781 L 100 162.199219 C 100 163 98.933594 163.398438 96.800781 163.398438 L 89.199219 163.398438 L 88.601562 163.199219 L 88.601562 157 C 88.066406 155.667969 86.464844 155 83.800781 155 C 84.734375 155 85.199219 155.933594 85.199219 157.800781 M 91.800781 153.601562 L 92.398438 153.800781 C 92.398438 158.066406 93.066406 160.535156 94.398438 161.199219 C 95.601562 161.734375 96.199219 159.601562 96.199219 154.800781 C 96.199219 154 97.265625 153.601562 99.398438 153.601562 L 107 153.601562 L 107.601562 153.800781 C 107.601562 157.933594 108.199219 160.398438 109.398438 161.199219 C 110.601562 161.867188 111.132812 159.734375 111 154.800781 C 111 154 112.066406 153.601562 114.199219 153.601562 L 122 153.601562 L 122.800781 153.800781 C 122.800781 158.199219 123.398438 160.667969 124.601562 161.199219 C 125.667969 161.867188 126.199219 159.734375 126.199219 154.800781 C 126.199219 154 127.265625 153.601562 129.398438 153.601562 L 137 153.601562 L 137.601562 153.800781 C 137.601562 158.066406 138.265625 160.535156 139.601562 161.199219 C 140.800781 161.734375 141.398438 159.601562 141.398438 154.800781 C 141.398438 154 142.464844 153.601562 144.601562 153.601562 L 152.199219 153.601562 L 152.800781 153.800781 C 152.800781 158.066406 153.464844 160.535156 154.800781 161.199219 C 156 162 156.601562 159.867188 156.601562 154.800781 C 156.601562 154 157.667969 153.601562 159.800781 153.601562 L 167.398438 153.601562 L 168 153.800781 L 168 174.398438 L 168.398438 210.601562 C 168.398438 211.535156 167.332031 212 165.199219 212 C 131.734375 213.464844 98.265625 213.464844 64.800781 212 L 64 211.800781 L 65 183.398438 L 65.800781 154.800781 C 65.800781 154 66.867188 153.601562 69 153.601562 L 76.601562 153.601562 L 77.199219 153.800781 C 77.199219 158.199219 77.867188 160.667969 79.199219 161.199219 C 80.398438 161.867188 81 159.734375 81 154.800781 C 81 154 82.066406 153.601562 84.199219 153.601562 L 91.800781 153.601562 "/>
<path style=" stroke:none;fill-rule:nonzero;fill:rgb(80%,80%,80%);fill-opacity:1;" d="M 214.398438 228.398438 L 215.199219 252.398438 L 215.199219 276.398438 C 184.398438 277.601562 151.398438 277.734375 116.199219 276.800781 C 80.734375 277.734375 47.734375 277.601562 17.199219 276.398438 C 16.933594 271.199219 17.332031 264.734375 18.398438 257 L 20.800781 237.398438 L 21 219.199219 L 20.601562 201 L 35.398438 201 L 35.398438 212.199219 L 50.398438 212.199219 L 50.398438 201 L 65.398438 201 L 65.398438 212.199219 L 80.398438 212.199219 L 80.398438 201 L 95.398438 201 L 95.398438 212.199219 L 110 212.199219 L 109.800781 201 L 125.199219 201 L 125.199219 212.199219 L 139.800781 212.199219 L 139.800781 201 L 154.601562 201 L 154.601562 212.199219 L 169.601562 212.199219 L 169.601562 201 L 184.601562 201 L 184.601562 212.199219 L 199.601562 212.199219 L 199.601562 201 L 214.398438 201 L 214.398438 228.398438 "/>
<path style=" stroke:none;fill-rule:nonzero;fill:rgb(70.196078%,70.196078%,70.196078%);fill-opacity:1;" d="M 216.398438 227.800781 L 217 252 L 217 276 C 217 276.800781 215.933594 277.199219 213.800781 277.199219 C 151 279.332031 85.066406 279.332031 16 277.199219 L 15.199219 277 C 15.199219 268.867188 15.800781 256.332031 17 239.398438 L 18.601562 201.601562 C 18.601562 200.800781 19.667969 200.398438 21.800781 200.398438 L 36.800781 200.398438 L 37.398438 200.601562 C 37.398438 205.667969 37.601562 208.601562 38 209.398438 C 38.933594 210.734375 41.734375 211.398438 46.398438 211.398438 C 48.132812 211.398438 49 210.199219 49 207.800781 L 48.601562 201.601562 C 48.601562 200.800781 49.667969 200.398438 51.800781 200.398438 L 66.601562 200.398438 L 67.398438 200.601562 L 67.199219 208.601562 C 67.734375 210.464844 70.066406 211.398438 74.199219 211.398438 C 77 211.398438 78.535156 210.464844 78.800781 208.601562 L 78.398438 201.601562 C 78.398438 200.800781 79.464844 200.398438 81.601562 200.398438 L 96.601562 200.398438 L 97.199219 200.601562 L 97.199219 210.398438 L 106.800781 211.398438 C 108 208.066406 108.332031 204.800781 107.800781 201.601562 C 107.800781 200.800781 108.867188 200.398438 111 200.398438 L 126.398438 200.398438 L 127.199219 200.601562 L 127 208.398438 C 127.535156 210.398438 129.667969 211.398438 133.398438 211.398438 C 136.332031 211.398438 137.933594 210.535156 138.199219 208.800781 L 137.800781 201.601562 C 137.800781 200.800781 138.867188 200.398438 141 200.398438 L 156 200.398438 L 156.601562 200.601562 L 156.398438 208.601562 C 156.933594 210.464844 159.265625 211.398438 163.398438 211.398438 C 166.199219 211.398438 167.734375 210.464844 168 208.601562 L 167.601562 201.601562 C 167.601562 200.800781 168.667969 200.398438 170.800781 200.398438 L 185.800781 200.398438 L 186.398438 200.601562 C 186.398438 205.667969 186.734375 208.601562 187.398438 209.398438 C 188.332031 210.734375 191.265625 211.398438 196.199219 211.398438 C 197.398438 211.398438 198 210.066406 198 207.398438 L 197.601562 201.601562 C 197.601562 200.800781 198.667969 200.398438 200.800781 200.398438 L 215.800781 200.398438 L 216.398438 200.601562 L 216.398438 227.800781 M 33.601562 212.601562 L 33.601562 204.199219 C 32.933594 202.601562 30.667969 201.800781 26.800781 201.800781 L 21.398438 202 L 22.601562 208.199219 L 23 229.199219 L 19.601562 255.199219 C 18.667969 268.933594 20.800781 275.867188 26 276 L 71.601562 276.601562 L 170.800781 276.601562 L 194.800781 277.199219 C 207.199219 276.800781 213.464844 274.398438 213.601562 270 L 212.601562 228.800781 L 212.601562 202.800781 C 212.601562 202 210.601562 201.601562 206.601562 201.601562 L 199.601562 201.800781 C 201.066406 201.800781 201.800781 203 201.800781 205.398438 L 201.398438 211.601562 C 201.398438 212.535156 200.332031 213 198.199219 213 L 183.398438 213 L 182.601562 212.601562 L 182.601562 204.199219 C 182.066406 202.601562 179.800781 201.800781 175.800781 201.800781 C 172.332031 201.800781 170.601562 202.265625 170.601562 203.199219 L 171.601562 211.601562 C 171.601562 212.535156 170.535156 213 168.398438 213 L 153.398438 213 L 152.800781 212.601562 L 152.800781 204.199219 C 152.132812 202.601562 149.867188 201.800781 146 201.800781 C 142.535156 201.800781 140.734375 202.265625 140.601562 203.199219 L 141.601562 211.601562 C 141.601562 212.535156 140.535156 213 138.398438 213 L 124 213 L 123.199219 212.601562 L 123.800781 205.199219 C 123.667969 202.933594 122.332031 201.800781 119.800781 201.800781 L 110.800781 202.601562 C 110.535156 203.265625 110.933594 206.265625 112 211.601562 C 112 212.535156 110.933594 213 108.800781 213 L 94 213 L 93.398438 212.601562 L 93.398438 204.199219 C 92.734375 202.601562 90.464844 201.800781 86.601562 201.800781 C 83.132812 201.800781 81.332031 202.265625 81.199219 203.199219 L 82.199219 211.601562 C 82.199219 212.535156 81.132812 213 79 213 L 64.199219 213 L 63.398438 212.601562 L 63.398438 204.199219 C 62.867188 202.601562 60.601562 201.800781 56.601562 201.800781 C 53.132812 201.800781 51.398438 202.265625 51.398438 203.199219 L 52.398438 211.601562 C 52.398438 212.535156 51.332031 213 49.199219 213 L 34.199219 213 L 33.601562 212.601562 "/>
<path style=" stroke:none;fill-rule:nonzero;fill:rgb(80%,80%,80%);fill-opacity:1;" d="M 153.800781 277.199219 L 89.199219 277.199219 L 88.601562 269.800781 L 88.601562 262.601562 C 88.601562 253 89.667969 245.734375 91.800781 240.800781 C 95.132812 232.535156 99.667969 226.933594 105.398438 224 C 111.265625 221.066406 117.398438 219.667969 123.800781 219.800781 C 130.464844 220.066406 136.398438 222.066406 141.601562 225.800781 C 145.734375 228.867188 148.535156 233.601562 150 240 L 152 256.800781 L 153.800781 277.199219 "/>
<path style=" stroke:none;fill-rule:nonzero;fill:rgb(70.196078%,70.196078%,70.196078%);fill-opacity:1;" d="M 148.199219 230.199219 C 151.265625 235.800781 153.265625 243.398438 154.199219 253 L 155.601562 276.800781 C 155.734375 277.332031 154.933594 277.667969 153.199219 277.800781 L 152.398438 278 L 88 278 L 87.398438 277.800781 C 85.800781 263.132812 86.800781 250.933594 90.398438 241.199219 C 95.199219 228.398438 104.066406 221.199219 117 219.601562 L 134.398438 220.398438 C 140.933594 222.132812 145.535156 225.398438 148.199219 230.199219 M 147.199219 237.199219 C 142.667969 225.601562 133.601562 220.265625 120 221.199219 C 106.535156 222.132812 97.734375 228.535156 93.601562 240.398438 C 91.332031 247.066406 90.332031 256.734375 90.601562 269.398438 C 90.734375 273.535156 92.867188 275.933594 97 276.601562 L 108.601562 276.199219 L 151.800781 276.601562 L 150.800781 257.199219 C 150.265625 248.800781 149.066406 242.132812 147.199219 237.199219 "/>
<path style=" stroke:none;fill-rule:nonzero;fill:rgb(70.196078%,70.196078%,70.196078%);fill-opacity:1;" d="M 153.800781 277.199219 L 123.199219 276.800781 L 123.601562 219.800781 C 130.535156 220.066406 136.535156 222.066406 141.601562 225.800781 C 145.734375 228.867188 148.535156 233.601562 150 240 L 152 256.800781 L 153.800781 277.199219 "/>
<path style=" stroke:none;fill-rule:nonzero;fill:rgb(60%,60%,60%);fill-opacity:1;" d="M 147.199219 239.398438 C 143.867188 229.132812 136.667969 223.199219 125.601562 221.601562 L 125.199219 261.398438 L 125.199219 271.199219 C 125.734375 274 128 275.464844 132 275.601562 L 151.601562 275.800781 L 151.199219 272.199219 L 147.199219 239.398438 M 153.601562 278.800781 L 123 278.398438 C 121.800781 278.398438 121.199219 277.933594 121.199219 277 L 121.601562 220 L 122.601562 218.601562 L 124.199219 218.398438 C 137.535156 219.464844 146.199219 225.601562 150.199219 236.800781 C 151.398438 240.265625 153 251.734375 155 271.199219 L 155.601562 276.800781 C 155.867188 278.132812 155.199219 278.800781 153.601562 278.800781 "/>
<path style=" stroke:none;fill-rule:nonzero;fill:rgb(70.196078%,70.196078%,70.196078%);fill-opacity:1;" d="M 123.601562 219.800781 L 123.199219 276.800781 L 89.199219 277.199219 L 88.601562 269.800781 L 88.601562 262.601562 C 88.601562 253 89.667969 245.734375 91.800781 240.800781 C 95.132812 232.535156 99.667969 226.933594 105.398438 224 C 111.398438 221.066406 117.464844 219.667969 123.601562 219.800781 "/>
<path style=" stroke:none;fill-rule:nonzero;fill:rgb(60%,60%,60%);fill-opacity:1;" d="M 125.398438 219.601562 L 125.199219 276.601562 C 125.199219 277.535156 124.265625 278 122.398438 278 L 88.601562 278.398438 C 87.800781 278.398438 87.398438 278.199219 87.398438 277.800781 C 85.535156 261.265625 87.132812 247.933594 92.199219 237.800781 C 98.199219 225.398438 108.933594 219 124.398438 218.601562 L 125.398438 219.601562 M 97.800781 232.398438 C 93.265625 239.867188 90.933594 247.398438 90.800781 255 L 90.398438 268.800781 C 91.066406 273.734375 93.933594 276.132812 99 276 L 121.199219 275.800781 L 121.601562 222.601562 C 121.601562 220.332031 117.933594 220.867188 110.601562 224.199219 C 103.398438 227.535156 99.132812 230.265625 97.800781 232.398438 "/>
<path style=" stroke:none;fill-rule:nonzero;fill:rgb(70.196078%,70.196078%,70.196078%);fill-opacity:1;" d="M 215.199219 267.601562 L 214.398438 273 C 213.734375 274.199219 212.066406 275.199219 209.398438 276 L 204.800781 275.601562 C 204.265625 274.800781 204.265625 273.601562 204.800781 272 L 205.800781 268.398438 L 206.398438 213.800781 L 207.199219 204.800781 L 207.398438 202.398438 C 207.800781 201.464844 208.734375 201.066406 210.199219 201.199219 L 213.398438 201.800781 L 212.800781 211 L 213.601562 215.199219 L 214.199219 220.800781 L 214 226.199219 L 214.398438 236.601562 L 214 247 C 213.734375 249.132812 213.933594 254.066406 214.601562 261.800781 L 215.199219 267.601562 "/>
<path style=" stroke:none;fill-rule:nonzero;fill:rgb(70.196078%,70.196078%,70.196078%);fill-opacity:1;" d="M 27 213 C 27.535156 215.933594 27.398438 219.535156 26.601562 223.800781 L 24.800781 234.601562 C 24 241.933594 24.332031 247.800781 25.800781 252.199219 L 28.199219 260.601562 L 28.398438 269.398438 L 25.398438 275.398438 C 24.199219 277.132812 22.867188 277.398438 21.398438 276.199219 C 19.132812 274.332031 17.800781 271.667969 17.398438 268.199219 L 17.398438 258.800781 L 18.800781 233 L 18.800781 213.199219 L 19 209.398438 C 19.535156 207.800781 20.265625 206.734375 21.199219 206.199219 C 22.132812 205.667969 23.066406 206 24 207.199219 C 25.601562 208.800781 26.601562 210.734375 27 213 "/>
</g>
</svg>
