<?xml version="1.0" encoding="UTF-8"?>
<svg xmlns="http://www.w3.org/2000/svg" xmlns:xlink="http://www.w3.org/1999/xlink" width="260pt" height="364pt" viewBox="0 0 260 364" version="1.1">
<g id="surface1">
<path style=" stroke:none;fill-rule:nonzero;fill:rgb(0%,0%,0%);fill-opacity:1;" d="M 169.601562 142.199219 L 169.601562 148 L 169.199219 148.800781 L 167.800781 148.800781 L 169.601562 142.199219 "/>
<path style=" stroke:none;fill-rule:nonzero;fill:rgb(100%,100%,100%);fill-opacity:1;" d="M 170.199219 354.800781 L 100 354.800781 L 100 236.199219 L 170.199219 236.199219 L 170.199219 354.800781 "/>
<path style=" stroke:none;fill-rule:nonzero;fill:rgb(0%,0%,0%);fill-opacity:1;" d="M 174.199219 235.800781 L 174.199219 354.398438 L 172.199219 357 L 170.398438 357.398438 L 99.601562 357.398438 C 97.199219 357.398438 96 356.667969 96 355.199219 L 96 236.398438 C 96 235.601562 96.535156 234.867188 97.601562 234.199219 L 100.398438 233.398438 L 170.601562 233.398438 C 173 233.398438 174.199219 234.199219 174.199219 235.800781 M 103.800781 352.199219 L 166.398438 352.199219 L 166.398438 238.800781 L 103.800781 238.800781 L 103.800781 352.199219 "/>
<path style=" stroke:none;fill-rule:nonzero;fill:rgb(80%,80%,80%);fill-opacity:1;" d="M 165.398438 359.601562 L 95.199219 359.601562 L 95.199219 241 L 165.398438 241 L 165.398438 359.601562 "/>
<path style=" stroke:none;fill-rule:nonzero;fill:rgb(0%,0%,0%);fill-opacity:1;" d="M 169.199219 240.398438 L 169.199219 359.199219 C 169.199219 360.535156 167.933594 361.398438 165.398438 361.800781 L 165 362 L 93.601562 362 C 92 362 91.199219 361.398438 91.199219 360.199219 L 91.199219 241.398438 C 91.199219 239.667969 93 238.800781 96.601562 238.800781 L 166.800781 238.800781 C 168.398438 238.800781 169.199219 239.332031 169.199219 240.398438 M 99 357.398438 L 161.601562 357.398438 L 161.601562 243.199219 L 99 243.199219 L 99 357.398438 "/>
<path style=" stroke:none;fill-rule:nonzero;fill:rgb(100%,100%,0%);fill-opacity:1;" d="M 230.800781 96.398438 C 234.800781 102.398438 238.667969 109.800781 242.398438 118.601562 L 250.601562 140.601562 L 252 144.199219 L 252.199219 145 L 252.398438 145.199219 C 254.933594 151.601562 256.464844 156.933594 257 161.199219 C 257.933594 169.066406 256.265625 176.265625 252 182.800781 L 251.800781 183.398438 L 250.398438 192.398438 C 252.800781 196.132812 254 200 254 204 L 254.398438 255.601562 L 254.601562 256.800781 C 255.132812 271.066406 255.132812 282.132812 254.601562 290 L 254 297.601562 C 253.734375 302.667969 251.800781 306.933594 248.199219 310.398438 C 244.464844 314 240.066406 315.867188 235 316 L 227.398438 316.199219 L 174 317.199219 L 127.601562 316.398438 L 102 317 L 101.398438 317 L 102.601562 316.800781 L 100.601562 317 L 82.199219 317.199219 L 27.398438 316.199219 L 19.800781 316 C 14.601562 315.867188 10.199219 314 6.601562 310.398438 C 2.867188 306.800781 0.867188 302.464844 0.601562 297.398438 L 0.199219 289.601562 C -0.332031 281.601562 0.332031 271.601562 2.199219 259.601562 L 3.601562 246.800781 L 3.601562 227 L 3.398438 204 C 3.398438 198.265625 5.464844 193.464844 9.601562 189.601562 L 9 180.398438 C 7 177.066406 5.601562 173.332031 4.800781 169.199219 L 4.800781 168 C 4 162.265625 4.667969 156.535156 6.800781 150.800781 C 7.867188 147.734375 9.867188 143.601562 12.800781 138.398438 L 15.601562 133.601562 L 15.800781 133 L 17 130.398438 L 17.199219 130 L 18.800781 125.199219 L 23.601562 112.800781 C 24.535156 110.933594 26.734375 107.398438 30.199219 102.199219 C 34.464844 95.933594 38 91.667969 40.800781 89.398438 C 45.601562 85.398438 51.332031 83.398438 58 83.398438 L 62.601562 83.398438 C 65.933594 83.398438 69 84.199219 71.800781 85.800781 C 73.535156 81.132812 76.601562 75.066406 81 67.601562 L 81.199219 67 L 83.800781 62.398438 L 85 59.601562 L 85.199219 59.199219 L 88.398438 50.601562 C 91.066406 43.132812 93.132812 37.800781 94.601562 34.601562 C 95.398438 32.734375 98.199219 28.265625 103 21.199219 C 108.066406 13.601562 112.132812 8.535156 115.199219 6 C 119.867188 2 125.667969 0 132.601562 0 L 137.199219 0 C 144.265625 0 149.734375 3 153.601562 9 L 156.199219 12.800781 C 161.535156 20.933594 166.667969 30.933594 171.601562 42.800781 L 182.800781 72.601562 L 185 78.398438 L 185.601562 79.601562 L 189.398438 89.800781 C 194.066406 85.535156 200 83.398438 207.199219 83.398438 L 211.800781 83.398438 C 218.867188 83.398438 224.332031 86.332031 228.199219 92.199219 L 230.800781 96.398438 "/>
<path style=" stroke:none;fill-rule:nonzero;fill:rgb(0%,0%,0%);fill-opacity:1;" d="M 241.800781 149.199219 L 242 149.601562 C 244.132812 154.667969 245.398438 158.800781 245.800781 162 C 246.464844 167.332031 245.398438 172.199219 242.601562 176.601562 L 240.601562 179.199219 L 240.601562 180 C 240.464844 184.535156 239.535156 189.800781 237.800781 195.800781 L 237.601562 196.199219 C 240.933594 197.800781 242.601562 200.398438 242.601562 204 L 243.199219 257.199219 C 243.734375 270.933594 243.734375 281.535156 243.199219 289 L 242.800781 296.800781 C 242.667969 298.933594 241.800781 300.734375 240.199219 302.199219 C 238.601562 303.667969 236.734375 304.464844 234.601562 304.601562 L 227 304.800781 L 174 305.800781 L 146 305.601562 L 143.800781 305.398438 L 82 305.800781 L 27.800781 304.800781 L 20 304.601562 C 17.867188 304.464844 16 303.667969 14.398438 302.199219 C 12.933594 300.601562 12.066406 298.734375 11.800781 296.601562 L 11.398438 289 C 11 281.398438 11.667969 272.132812 13.398438 261.199219 L 15 247.601562 L 15 226.398438 L 14.800781 204 C 14.800781 201.734375 15.601562 199.734375 17.199219 198 C 18.667969 196.398438 20.535156 195.535156 22.800781 195.398438 L 22 193 C 20.667969 188.867188 20.132812 183.535156 20.398438 177 C 18 174.066406 16.535156 170.800781 16 167.199219 L 16 166.601562 C 15.199219 160.066406 17.398438 152.601562 22.601562 144.199219 L 26.199219 137.601562 L 26.800781 136 L 27.199219 135.398438 L 29.601562 128.800781 L 33.800781 117.800781 L 39.601562 108.601562 L 47.601562 98.601562 C 50.398438 96.066406 53.867188 94.800781 58 94.800781 L 62.601562 94.800781 C 65.800781 94.800781 68.132812 96.132812 69.601562 98.800781 L 72.199219 102.601562 C 77.132812 110.199219 82.132812 120.734375 87.199219 134.199219 C 86.535156 130.066406 86.332031 124.464844 86.601562 117.398438 C 83.265625 113.800781 81.199219 109.667969 80.398438 105 L 80.199219 104.199219 C 79.800781 99.800781 80.601562 94.933594 82.601562 89.601562 C 84.066406 85.867188 86.800781 80.398438 90.800781 73.199219 L 91 72.601562 L 94.199219 66.601562 L 95 65.199219 L 95.199219 64.601562 L 99.199219 54 C 101.199219 47.734375 103.066406 42.933594 104.800781 39.601562 L 112.398438 27.601562 C 116.800781 21.066406 120 16.867188 122 15 C 124.667969 12.601562 128.199219 11.398438 132.601562 11.398438 L 137.199219 11.398438 C 140.132812 11.398438 142.464844 12.667969 144.199219 15.199219 L 146.800781 19 C 151.734375 26.601562 156.601562 36.066406 161.398438 47.398438 L 172.199219 76.398438 L 174.800781 83.199219 L 175 84 C 177.667969 90.265625 179.265625 95.332031 179.800781 99.199219 C 180.734375 105.464844 179.601562 111 176.398438 115.800781 L 172.601562 120.199219 L 172.601562 124.398438 C 172.464844 128.933594 171.265625 135.601562 169 144.398438 L 167.800781 148.800781 L 169.199219 148.800781 L 169.601562 148 C 169.867188 145.332031 171 143.265625 173 141.800781 L 175.601562 137 L 176.199219 135.398438 L 178.800781 128.800781 C 180.265625 124.132812 181.667969 120.464844 183 117.800781 L 188.800781 108.601562 L 196.601562 98.601562 C 199.398438 96.066406 202.933594 94.800781 207.199219 94.800781 L 211.800781 94.800781 C 214.734375 94.800781 217.066406 96.132812 218.800781 98.800781 L 221.398438 102.601562 C 225.132812 108.199219 228.734375 115.199219 232.199219 123.601562 L 240 144.398438 L 241.800781 149.199219 "/>
<path style=" stroke:none;fill-rule:nonzero;fill:rgb(100%,100%,100%);fill-opacity:1;" d="M 232.199219 147.800781 L 234 152.800781 L 237.199219 162.398438 C 237.734375 166 237.132812 169.199219 235.398438 172 L 232 175.601562 L 232 180 C 232 182.800781 231.199219 187.265625 229.601562 193.398438 C 228.398438 197.667969 227.800781 200.933594 227.800781 203.199219 L 227.800781 204 L 234.199219 204 L 234.601562 257.601562 C 235.398438 270.132812 235.464844 280.398438 234.800781 288.398438 L 234.199219 296 L 226.601562 296.398438 L 174 297.199219 L 82 297.199219 L 28 296.398438 L 20.398438 296.199219 L 20 288.398438 C 19.601562 282.132812 20.199219 273.464844 21.800781 262.398438 L 23.398438 248.199219 L 23.601562 226 L 23.199219 204 L 33 204 L 33 201.398438 L 30.199219 190.398438 C 29.132812 186.933594 28.734375 181.867188 29 175.199219 L 29 173.800781 C 26.464844 171.535156 24.933594 168.867188 24.398438 165.800781 L 24.398438 165.199219 C 23.867188 161.601562 25 157.332031 27.800781 152.398438 L 34.199219 140.601562 L 34.601562 139.398438 L 37.800781 131.398438 L 41.398438 121.601562 L 46.601562 113.398438 L 52.601562 105.398438 C 54.066406 104.066406 55.867188 103.398438 58 103.398438 L 62.601562 103.398438 L 65.199219 107.199219 C 70.398438 115.066406 76.265625 128.464844 82.800781 147.398438 L 83 147.800781 L 86.601562 157.199219 L 100.800781 157.199219 L 100.800781 153.800781 L 96.601562 137.800781 C 95.398438 133.667969 94.933594 126.867188 95.199219 117.398438 L 95.398438 113.601562 C 91.800781 111.199219 89.601562 107.867188 88.800781 103.601562 L 88.601562 103.398438 L 88.601562 103 C 88.199219 99.933594 88.933594 96.132812 90.800781 91.601562 L 98.199219 77.398438 L 102.199219 69.800781 L 102.601562 68.601562 C 104.199219 65.800781 105.800781 61.800781 107.398438 56.601562 C 109.265625 50.734375 110.933594 46.332031 112.398438 43.398438 L 119.398438 32.199219 L 127 21.800781 C 128.464844 20.464844 130.332031 19.800781 132.601562 19.800781 L 137.199219 19.800781 L 139.601562 23.601562 C 146.933594 34.667969 155.066406 53.199219 164 79.199219 L 164.398438 79.800781 L 167.199219 87.199219 L 171.398438 99.601562 C 172.066406 104 171.398438 107.867188 169.398438 111.199219 L 164 116 L 164 124.199219 C 164 128.332031 162.933594 134.332031 160.800781 142.199219 C 158.933594 148.332031 158 153.199219 158 156.800781 L 158 157.199219 L 174.800781 157.199219 L 178 150 L 178 148.601562 L 178.800781 148.601562 L 180.601562 145.601562 L 183.199219 140.601562 L 183.398438 140 L 183.800781 139.398438 L 186.800781 131.398438 L 190.601562 121.601562 L 195.800781 113.398438 L 201.800781 105.398438 C 203.132812 104.066406 204.933594 103.398438 207.199219 103.398438 L 211.800781 103.398438 L 214.199219 107.199219 C 219.667969 115.601562 225.601562 129 232 147.398438 L 232.199219 147.800781 "/>
<path style=" stroke:none;fill-rule:nonzero;fill:rgb(80%,80%,80%);fill-opacity:1;" d="M 155.398438 91.800781 L 155.601562 124 C 155.601562 127.867188 154.535156 133.332031 152.398438 140.398438 C 150.535156 147.332031 149.601562 152.867188 149.601562 157 L 149.800781 178.800781 C 150.066406 196.667969 149.800781 217 149 239.800781 L 149 243.800781 L 148.199219 247.800781 C 147.667969 249.265625 145.800781 250.066406 142.601562 250.199219 L 135.398438 250.199219 C 128.199219 249.800781 122.867188 249.800781 119.398438 250.199219 C 114.601562 250.734375 111.933594 246.933594 111.398438 238.800781 L 111.601562 219.601562 L 109.199219 179 L 109.199219 153 C 108.800781 149.265625 107.332031 143.332031 104.800781 135.199219 C 103.734375 131.601562 103.332031 125.800781 103.601562 117.800781 L 103.800781 105 L 103.601562 91.800781 L 111 91.800781 L 111 99.800781 L 118.398438 99.800781 L 118.398438 91.800781 L 125.800781 91.800781 L 125.800781 99.800781 L 133.199219 99.800781 L 133.199219 91.800781 L 140.601562 91.800781 L 140.601562 99.800781 L 148 99.800781 L 148 91.800781 L 155.398438 91.800781 "/>
<path style=" stroke:none;fill-rule:nonzero;fill:rgb(70.196078%,70.196078%,70.196078%);fill-opacity:1;" d="M 157.398438 91.601562 L 157.398438 111.199219 C 157.535156 117.734375 156.601562 127.199219 154.601562 139.601562 C 152.601562 152 151.601562 161.398438 151.601562 167.800781 L 151.601562 215 L 152.398438 232.199219 C 152.535156 240.734375 151.667969 246.199219 149.800781 248.601562 C 147.667969 251.265625 143.667969 252.535156 137.800781 252.398438 L 124.601562 251.398438 L 115 250.800781 C 112.066406 249.734375 110.398438 247.199219 110 243.199219 L 108.800781 221.398438 L 108 199.398438 L 107.800781 169.199219 C 107.667969 157.066406 106.398438 147.199219 104 139.601562 C 102.132812 133.332031 101.199219 125.464844 101.199219 116 L 101.601562 92 C 101.601562 90.933594 102.332031 90.398438 103.800781 90.398438 L 111.199219 90.398438 C 112.398438 90.398438 113 90.800781 113 91.601562 C 113 95.734375 113.601562 97.867188 114.800781 98 C 115.867188 98.265625 116.398438 96.265625 116.398438 92 C 116.398438 90.933594 117.132812 90.398438 118.601562 90.398438 L 126 90.398438 C 127.199219 90.398438 127.800781 90.800781 127.800781 91.601562 C 127.800781 95.601562 128.398438 97.667969 129.601562 97.800781 C 130.667969 97.933594 131.199219 96 131.199219 92 C 131.199219 90.933594 131.933594 90.398438 133.398438 90.398438 L 140.800781 90.398438 C 142 90.398438 142.601562 90.800781 142.601562 91.601562 C 142.601562 95.734375 143.199219 97.867188 144.398438 98 C 145.464844 98.265625 146 96.265625 146 92 C 146 90.933594 146.734375 90.398438 148.199219 90.398438 L 155.601562 90.398438 C 156.800781 90.398438 157.398438 90.800781 157.398438 91.601562 "/>
<path style=" stroke:none;fill-rule:nonzero;fill:rgb(92.54902%,10.980392%,14.117647%);fill-opacity:1;" d="M 163.199219 102.199219 C 163.601562 107.398438 159.265625 110.199219 150.199219 110.601562 L 120.199219 111.199219 C 105.800781 110.667969 98.132812 107.667969 97.199219 102.199219 C 96.933594 99.398438 98.734375 94.332031 102.601562 87 L 110.199219 72.601562 L 115.199219 60 L 120 47.199219 L 132.601562 28.398438 C 137.132812 35.199219 141.601562 44 146 54.800781 L 156.398438 82.601562 L 163.199219 102.199219 "/>
<path style=" stroke:none;fill-rule:nonzero;fill:rgb(76.078431%,15.294118%,17.647059%);fill-opacity:1;" d="M 164.601562 99 C 165.398438 103.933594 163.867188 107.398438 160 109.398438 L 147.398438 111.601562 L 122.800781 112.800781 C 113.066406 112.800781 105.199219 111.199219 99.199219 108 C 94.265625 105.332031 93.933594 99.535156 98.199219 90.601562 L 108.199219 73.199219 L 108.199219 73 L 118 49.800781 C 121.734375 41 126 33.867188 130.800781 28.398438 C 131.066406 28 131.601562 27.667969 132.398438 27.398438 L 134.398438 27.601562 C 141.332031 38.933594 147.535156 52.132812 153 67.199219 L 159.398438 82.800781 C 162.199219 89.332031 163.933594 94.734375 164.601562 99 M 158.601562 94 L 147.199219 63 L 138.601562 45.601562 C 134.199219 36.398438 132.667969 30.800781 134 28.800781 C 129.867188 34.667969 125.867188 41.734375 122 50 L 112.199219 72.398438 L 106.398438 82.800781 C 103.867188 87.199219 102.066406 90.734375 101 93.398438 C 97.132812 103.933594 103.199219 109.464844 119.199219 110 L 143.601562 109.800781 L 154 109 C 158.535156 108.199219 160.867188 106.800781 161 104.800781 C 161.132812 102 160.332031 98.398438 158.601562 94 "/>
<path style=" stroke:none;fill-rule:nonzero;fill:rgb(60%,60%,60%);fill-opacity:1;" d="M 120.199219 127.800781 L 119.800781 138.199219 L 118.800781 143 L 116.199219 143.398438 C 115.398438 143 114.800781 142.132812 114.398438 140.800781 L 114 138.199219 L 114 117.398438 L 119.800781 117.398438 L 120.199219 127.800781 "/>
<path style=" stroke:none;fill-rule:nonzero;fill:rgb(60%,60%,60%);fill-opacity:1;" d="M 127.601562 117.398438 L 133.398438 117.398438 L 132.800781 140.199219 L 131.800781 144 C 131 145.066406 130 145.332031 128.800781 144.800781 C 127.734375 144.398438 127.132812 143.464844 127 142 L 127.199219 137.800781 L 127.601562 117.398438 "/>
<path style=" stroke:none;fill-rule:nonzero;fill:rgb(60%,60%,60%);fill-opacity:1;" d="M 141.199219 121.800781 L 141.398438 118 C 141.800781 117.199219 142.800781 116.867188 144.398438 117 L 147.601562 117.398438 L 147.800781 132.601562 L 147.199219 142 L 146.398438 143.800781 L 144.601562 144 L 142 143 C 141.066406 141.933594 140.667969 139.464844 140.800781 135.601562 L 141.199219 127.601562 L 141.199219 121.800781 "/>
<path style=" stroke:none;fill-rule:nonzero;fill:rgb(70.196078%,70.196078%,70.196078%);fill-opacity:1;" d="M 126.800781 178.398438 L 114.199219 176.800781 L 112.199219 176.601562 L 111 175.800781 C 110.332031 174.734375 110.132812 173.332031 110.398438 171.601562 L 111.199219 167.398438 L 111.199219 161.199219 C 110.933594 159.066406 110.199219 157.132812 109 155.398438 L 115.398438 160.199219 L 119.398438 164.398438 C 121.265625 166.535156 124 167.734375 127.601562 168 C 131.199219 168.265625 134.535156 167.601562 137.601562 166 L 143.601562 161.398438 L 150.199219 157.601562 L 149.398438 163.601562 L 148.199219 165.800781 C 147.535156 166.601562 147.265625 167.265625 147.398438 167.800781 L 147.398438 171.800781 C 147.398438 173.933594 145.332031 175.667969 141.199219 177 L 126.800781 178.398438 "/>
<path style=" stroke:none;fill-rule:nonzero;fill:rgb(80%,80%,80%);fill-opacity:1;" d="M 191.800781 157 L 191.800781 162.800781 L 197.199219 162.800781 L 197.199219 157 L 202.398438 157 L 202.398438 162.800781 L 207.601562 162.800781 L 207.601562 157 L 212.800781 157 L 212.800781 162.800781 L 218.199219 162.800781 L 218.199219 157 L 223.398438 157 L 223.601562 179.800781 C 223.601562 182.601562 222.867188 186.535156 221.398438 191.601562 C 219.933594 196.398438 219.199219 200.332031 219.199219 203.398438 L 219.398438 218.800781 L 218.800781 230 L 218.398438 235.800781 C 218 236.734375 216.667969 237.265625 214.398438 237.398438 L 209.199219 237.398438 L 200.398438 238 C 196.667969 238 194.199219 236.867188 193 234.601562 C 192.464844 233.667969 192.265625 232.464844 192.398438 231 L 192.800781 227.398438 L 191.601562 221 L 190.199219 214.601562 L 190.398438 207.601562 L 190.601562 200.601562 C 190.066406 196.464844 189 192.199219 187.398438 187.800781 C 186.601562 185.265625 186.332031 181.132812 186.601562 175.398438 L 186.601562 157 L 191.800781 157 "/>
<path style=" stroke:none;fill-rule:nonzero;fill:rgb(70.196078%,70.196078%,70.196078%);fill-opacity:1;" d="M 192 155.601562 C 193.199219 155.601562 193.800781 156.066406 193.800781 157 C 193.800781 159.535156 194.066406 160.867188 194.601562 161 L 195.199219 157.199219 C 195.199219 156.132812 195.867188 155.601562 197.199219 155.601562 L 202.601562 155.601562 C 203.800781 155.601562 204.398438 156.066406 204.398438 157 C 204.398438 159.535156 204.601562 160.867188 205 161 L 205.601562 157.199219 C 205.601562 156.132812 206.332031 155.601562 207.800781 155.601562 L 213 155.601562 C 214.199219 155.601562 214.800781 156.066406 214.800781 157 C 214.800781 159.535156 215.066406 160.867188 215.601562 161 L 216.199219 157.199219 C 216.199219 156.132812 216.933594 155.601562 218.398438 155.601562 L 223.601562 155.601562 C 224.800781 155.601562 225.398438 156.066406 225.398438 157 L 225.398438 170.800781 C 225.535156 175.066406 224.867188 181.066406 223.398438 188.800781 C 221.933594 196.800781 221.199219 202.800781 221.199219 206.800781 L 221 226.601562 C 220.601562 232.867188 219.066406 236.734375 216.398438 238.199219 L 202 239.398438 L 196 239 L 191.199219 235.601562 C 190.667969 234.800781 190.332031 232.601562 190.199219 229 L 190.199219 223.601562 L 188.199219 214.601562 C 188.066406 206.199219 186.867188 196.132812 184.601562 184.398438 C 183.933594 181.066406 183.734375 176.535156 184 170.800781 L 184.601562 157.199219 C 184.601562 156.132812 185.332031 155.601562 186.800781 155.601562 L 192 155.601562 M 218 164.199219 L 212.800781 164.199219 C 211.601562 164.199219 211 163.734375 211 162.800781 L 210.398438 158.398438 C 209.867188 158.265625 209.601562 159.667969 209.601562 162.601562 C 209.601562 163.667969 208.867188 164.199219 207.398438 164.199219 L 202.199219 164.199219 C 201 164.199219 200.398438 163.734375 200.398438 162.800781 L 199.800781 158.398438 C 199.265625 158.265625 199 159.667969 199 162.601562 C 199 163.667969 198.332031 164.199219 197 164.199219 L 191.601562 164.199219 C 190.398438 164.199219 189.800781 163.734375 189.800781 162.800781 L 189.601562 160.398438 C 189.601562 159.199219 189.867188 158.601562 190.398438 158.601562 C 188.535156 158.601562 187.667969 159.398438 187.800781 161 L 188.601562 166.199219 L 188.601562 178.199219 C 188.734375 182.734375 189.265625 186.667969 190.199219 190 L 192.601562 216.601562 C 194.199219 230.332031 197.464844 236.933594 202.398438 236.398438 L 212.601562 236 C 215.132812 235.867188 216.601562 234.734375 217 232.601562 L 217 226.800781 L 217.398438 215.398438 C 217.398438 210.332031 218.066406 202.933594 219.398438 193.199219 C 220.867188 183.601562 221.535156 176.265625 221.398438 171.199219 L 221.398438 158.601562 C 221.398438 157.667969 221.199219 157.734375 220.800781 158.800781 C 220.398438 160 220.199219 161.265625 220.199219 162.601562 C 220.199219 163.667969 219.464844 164.199219 218 164.199219 "/>
<path style=" stroke:none;fill-rule:nonzero;fill:rgb(92.54902%,10.980392%,14.117647%);fill-opacity:1;" d="M 194.800781 134.601562 L 198.199219 125.398438 L 203 118 L 207.199219 112 C 211.734375 118.933594 217.332031 131.800781 224 150.601562 L 228.800781 164.398438 C 229.066406 168.132812 226 170.132812 219.601562 170.398438 L 198.398438 170.800781 C 188.132812 170.398438 182.667969 168.265625 182 164.398438 C 181.734375 162.398438 183 158.867188 185.800781 153.800781 L 191.199219 143.601562 L 194.800781 134.601562 "/>
<path style=" stroke:none;fill-rule:nonzero;fill:rgb(76.078431%,15.294118%,17.647059%);fill-opacity:1;" d="M 230.800781 163.800781 C 230.667969 167.132812 228.800781 169.265625 225.199219 170.199219 L 215.601562 171.199219 L 199.601562 172.199219 C 192.933594 172.332031 187.800781 171.398438 184.199219 169.398438 C 179.933594 167 179.132812 162.867188 181.800781 157 L 189.398438 144 L 189.398438 143.800781 L 189.601562 143.601562 C 192.398438 136.398438 194.601562 131 196.199219 127.398438 C 199 121.132812 202.066406 116 205.398438 112 L 207.199219 111.199219 L 209 111.398438 C 213.800781 119.132812 218.667969 129.667969 223.601562 143 L 228 153.199219 C 230 157.734375 230.933594 161.265625 230.800781 163.800781 M 186.199219 155.601562 C 183.265625 161.734375 183.332031 165.601562 186.398438 167.199219 C 190 169.066406 194.734375 170.066406 200.601562 170.199219 L 215.398438 169.601562 C 224.464844 169.332031 228 166.464844 226 161 L 221 147.601562 C 215.800781 133.464844 211 122.535156 206.601562 114.800781 C 204.199219 118.132812 202 122.199219 200 127 L 193.199219 143.199219 L 186.199219 155.601562 "/>
<path style=" stroke:none;fill-rule:nonzero;fill:rgb(60%,60%,60%);fill-opacity:1;" d="M 194 175.199219 L 198 175.199219 L 198.398438 182.601562 L 198.199219 190 L 197.398438 193.398438 C 196.066406 194.601562 195 194.066406 194.199219 191.800781 L 194 190 L 194 175.199219 "/>
<path style=" stroke:none;fill-rule:nonzero;fill:rgb(60%,60%,60%);fill-opacity:1;" d="M 203.601562 175.199219 L 207.601562 175.199219 L 207.398438 191.398438 L 206.601562 194 C 206.066406 194.800781 205.398438 195.066406 204.601562 194.800781 C 203.800781 194.535156 203.332031 193.800781 203.199219 192.601562 L 203.398438 189.800781 L 203.601562 175.199219 "/>
<path style=" stroke:none;fill-rule:nonzero;fill:rgb(60%,60%,60%);fill-opacity:1;" d="M 215.601562 175 L 218 175.199219 L 218 186 L 217.601562 192.601562 C 217.332031 193.667969 216.667969 194.132812 215.601562 194 L 213.800781 193.398438 C 213.132812 192.601562 212.867188 190.800781 213 188 L 213.199219 182.398438 L 213.398438 175.601562 L 215.601562 175 "/>
<path style=" stroke:none;fill-rule:nonzero;fill:rgb(70.196078%,70.196078%,70.196078%);fill-opacity:1;" d="M 220.800781 202.800781 L 218.398438 214.800781 L 217.800781 217.398438 L 214 219.601562 C 212 220.265625 210.933594 219.867188 210.800781 218.398438 C 210.398438 215.867188 210.398438 213.265625 210.800781 210.601562 C 211.066406 207.667969 212.601562 204.734375 215.398438 201.800781 L 219 197.199219 L 219.800781 193 L 220.398438 191 L 221.398438 190 L 221 192.800781 L 220.800781 202.800781 "/>
<path style=" stroke:none;fill-rule:nonzero;fill:rgb(80%,80%,80%);fill-opacity:1;" d="M 74.199219 157 L 74.398438 179.800781 L 72.199219 191.601562 C 70.867188 196.398438 70.199219 200.332031 70.199219 203.398438 L 70.398438 218.800781 L 69.800781 230 L 69.199219 235.800781 C 68.800781 236.734375 67.464844 237.265625 65.199219 237.398438 L 60 237.398438 L 51.199219 238 C 47.464844 238 45 236.867188 43.800781 234.601562 C 43.265625 233.667969 43.066406 232.464844 43.199219 231 L 43.601562 227.398438 L 42.398438 221 L 41 214.601562 L 41.398438 200.601562 C 41.132812 197.398438 40.066406 193.132812 38.199219 187.800781 C 37.535156 185.667969 37.332031 181.535156 37.601562 175.398438 L 37.398438 157 L 42.800781 157 L 42.800781 162.800781 L 48 162.800781 L 48 157 L 53.199219 157 L 53.199219 162.800781 L 58.601562 162.800781 L 58.601562 157 L 63.800781 157 L 63.800781 162.800781 L 69 162.800781 L 69 157 L 74.199219 157 "/>
<path style=" stroke:none;fill-rule:nonzero;fill:rgb(70.196078%,70.196078%,70.196078%);fill-opacity:1;" d="M 65.800781 157 C 65.800781 159.535156 66 160.867188 66.398438 161 L 67 157.199219 C 67 156.132812 67.734375 155.601562 69.199219 155.601562 L 74.398438 155.601562 C 75.601562 155.601562 76.199219 156.066406 76.199219 157 L 76.199219 170.800781 C 76.332031 174.933594 75.667969 180.933594 74.199219 188.800781 C 72.867188 196.800781 72.199219 202.800781 72.199219 206.800781 L 71.800781 226.601562 C 71.535156 232.867188 70 236.734375 67.199219 238.199219 L 53 239.398438 L 47 239 C 44.867188 238.464844 43.199219 237.332031 42 235.601562 C 41.464844 234.800781 41.132812 232.601562 41 229 L 41 223.601562 L 39 214.601562 C 39 206.199219 37.867188 196.132812 35.601562 184.398438 C 34.933594 181.066406 34.734375 176.535156 35 170.800781 L 35.398438 157.199219 C 35.398438 156.132812 36.132812 155.601562 37.601562 155.601562 L 42.800781 155.601562 C 44 155.601562 44.601562 156.066406 44.601562 157 C 44.601562 159.535156 44.867188 160.867188 45.398438 161 L 46 157.199219 C 46 156.132812 46.734375 155.601562 48.199219 155.601562 L 53.398438 155.601562 C 54.601562 155.601562 55.199219 156.066406 55.199219 157 C 55.199219 159.535156 55.464844 160.867188 56 161 L 56.601562 157.199219 C 56.601562 156.132812 57.265625 155.601562 58.601562 155.601562 L 64 155.601562 C 65.199219 155.601562 65.800781 156.066406 65.800781 157 M 71.800781 158.800781 L 71 162.601562 C 71 163.667969 70.265625 164.199219 68.800781 164.199219 L 63.601562 164.199219 C 62.398438 164.199219 61.800781 163.734375 61.800781 162.800781 L 61.199219 158.398438 C 60.667969 158.265625 60.398438 159.667969 60.398438 162.601562 L 58.398438 164.199219 L 53 164.199219 C 51.800781 164.199219 51.199219 163.734375 51.199219 162.800781 L 50.601562 158.398438 C 50.199219 158.265625 50 159.667969 50 162.601562 C 50 163.667969 49.265625 164.199219 47.800781 164.199219 L 42.601562 164.199219 C 41.398438 164.199219 40.800781 163.734375 40.800781 162.800781 L 40.601562 160.398438 C 40.464844 159.199219 40.667969 158.601562 41.199219 158.601562 C 39.464844 158.601562 38.667969 159.398438 38.800781 161 L 39.601562 166.199219 L 39.398438 178.199219 C 39.535156 182.734375 40.066406 186.667969 41 190 C 41.800781 192.535156 42.667969 201.398438 43.601562 216.601562 C 45.199219 230.332031 48.398438 236.933594 53.199219 236.398438 L 63.398438 236 C 65.933594 235.867188 67.398438 234.734375 67.800781 232.601562 L 68 226.800781 L 68.398438 215.398438 C 68.398438 210.332031 69.066406 202.933594 70.398438 193.199219 C 71.867188 183.601562 72.535156 176.265625 72.398438 171.199219 L 72.398438 158.601562 C 72.398438 157.667969 72.199219 157.734375 71.800781 158.800781 "/>
<path style=" stroke:none;fill-rule:nonzero;fill:rgb(92.54902%,10.980392%,14.117647%);fill-opacity:1;" d="M 75 150.601562 L 79.800781 164.398438 C 80.066406 168.132812 77 170.132812 70.601562 170.398438 L 49.199219 170.800781 C 38.933594 170.398438 33.464844 168.265625 32.800781 164.398438 C 32.535156 162.398438 33.800781 158.867188 36.601562 153.800781 L 42.199219 143.601562 L 45.601562 134.601562 L 49 125.398438 L 58 112 C 61.199219 116.800781 64.398438 123.066406 67.601562 130.800781 L 75 150.601562 "/>
<path style=" stroke:none;fill-rule:nonzero;fill:rgb(76.078431%,15.294118%,17.647059%);fill-opacity:1;" d="M 77.601562 150.601562 C 79.601562 155.265625 80.867188 159.066406 81.398438 162 C 82.066406 166.398438 80.464844 169.265625 76.601562 170.601562 L 65.199219 172 L 48.398438 172.601562 C 41.464844 172.332031 36.199219 170.800781 32.601562 168 C 29.933594 165.734375 30.132812 161.535156 33.199219 155.398438 L 40.199219 143.199219 L 47.199219 126.800781 C 50 120.535156 53.066406 115.398438 56.398438 111.398438 C 56.800781 111 57.332031 110.734375 58 110.601562 L 59.800781 111.199219 C 64.867188 119.066406 69.265625 128.464844 73 139.398438 L 77.601562 150.601562 M 76.800781 161 L 71.800781 147.601562 C 67 134.265625 62.265625 123.464844 57.601562 115.199219 C 55.066406 118.535156 52.734375 122.667969 50.601562 127.601562 L 44 143.800781 L 36.800781 157 C 34.132812 163.132812 35.132812 166.800781 39.800781 168 L 52.601562 169.398438 L 65.601562 169 C 74.933594 168.601562 78.667969 165.933594 76.800781 161 "/>
<path style=" stroke:none;fill-rule:nonzero;fill:rgb(60%,60%,60%);fill-opacity:1;" d="M 49 175.199219 L 49.199219 182.601562 L 49 190 C 49 191.867188 48.734375 193 48.199219 193.398438 L 46.398438 193.800781 L 45.199219 191.800781 L 44.800781 190 L 44.800781 175.199219 L 49 175.199219 "/>
<path style=" stroke:none;fill-rule:nonzero;fill:rgb(60%,60%,60%);fill-opacity:1;" d="M 54.601562 175.199219 L 58.601562 175.199219 L 58.199219 191.398438 L 57.398438 194 C 56.867188 194.800781 56.199219 195.066406 55.398438 194.800781 C 54.601562 194.398438 54.199219 193.667969 54.199219 192.601562 L 54.199219 189.800781 L 54.601562 175.199219 "/>
<path style=" stroke:none;fill-rule:nonzero;fill:rgb(60%,60%,60%);fill-opacity:1;" d="M 68.800781 175.199219 L 69 186 L 68.398438 192.601562 L 67.800781 194 L 66.601562 194 L 64.601562 193.398438 C 63.933594 192.601562 63.667969 190.800781 63.800781 188 L 64.199219 182.398438 L 64.199219 175.601562 C 64.601562 175.066406 65.332031 174.867188 66.398438 175 L 68.800781 175.199219 "/>
<path style=" stroke:none;fill-rule:nonzero;fill:rgb(70.196078%,70.196078%,70.196078%);fill-opacity:1;" d="M 42 190.398438 C 42.132812 192.535156 42.734375 195 43.800781 197.800781 L 46.601562 205.199219 C 47.933594 208.535156 49 213.601562 49.800781 220.398438 L 50 232.398438 C 47.066406 233.066406 45 229.667969 43.800781 222.199219 C 43 217.667969 42.601562 212.800781 42.601562 207.601562 C 42.601562 204.933594 42.066406 201.734375 41 198 L 38.199219 188.398438 C 35.800781 181.199219 35.867188 177.535156 38.398438 177.398438 L 41 183 L 42 190.398438 "/>
<path style=" stroke:none;fill-rule:nonzero;fill:rgb(80%,80%,80%);fill-opacity:1;" d="M 79 165.800781 L 86.398438 165.800781 L 86.398438 174.199219 L 94 174.199219 L 94 165.800781 L 101.601562 165.800781 L 101.601562 174.199219 L 109.199219 174.199219 L 109.199219 165.800781 L 116.800781 165.800781 L 116.800781 174.199219 L 124.398438 174.199219 L 124.199219 165.800781 L 132 165.800781 L 132 174.199219 L 139.398438 174.199219 L 139.398438 165.800781 L 147 165.800781 L 147 174.199219 L 154.601562 174.199219 L 154.601562 165.800781 L 162.199219 165.800781 L 162.199219 174.199219 L 169.800781 174.199219 L 169.800781 165.800781 L 177.398438 165.800781 L 177.398438 186.398438 L 177.800781 204.398438 L 177.601562 222.601562 C 161.734375 223.398438 145 223.464844 127.398438 222.800781 C 111.933594 223.601562 95.199219 223.535156 77.199219 222.601562 L 77.800781 207.800781 L 79 193 L 79 165.800781 "/>
<path style=" stroke:none;fill-rule:nonzero;fill:rgb(70.196078%,70.196078%,70.196078%);fill-opacity:1;" d="M 103 165 L 103.601562 165.199219 C 103.601562 169.464844 104.265625 171.933594 105.601562 172.601562 C 106.800781 173.132812 107.398438 171 107.398438 166.199219 C 107.398438 165.398438 108.464844 165 110.601562 165 L 118.199219 165 L 118.800781 165.199219 C 118.800781 169.332031 119.398438 171.800781 120.601562 172.601562 C 121.800781 173.265625 122.332031 171.132812 122.199219 166.199219 C 122.199219 165.398438 123.265625 165 125.398438 165 L 133.199219 165 L 134 165.199219 C 134 169.601562 134.601562 172.066406 135.800781 172.601562 C 136.867188 173.265625 137.398438 171.132812 137.398438 166.199219 C 137.398438 165.398438 138.464844 165 140.601562 165 L 148.199219 165 L 148.800781 165.199219 C 148.800781 169.464844 149.464844 171.933594 150.800781 172.601562 C 152 173.132812 152.601562 171 152.601562 166.199219 C 152.601562 165.398438 153.667969 165 155.800781 165 L 163.398438 165 L 164 165.199219 C 164 169.464844 164.667969 171.933594 166 172.601562 C 167.199219 173.398438 167.800781 171.265625 167.800781 166.199219 C 167.800781 165.398438 168.867188 165 171 165 L 178.601562 165 L 179.199219 165.199219 L 179.199219 185.800781 L 179.601562 222 C 179.601562 222.933594 178.535156 223.398438 176.398438 223.398438 C 142.933594 224.867188 109.464844 224.867188 76 223.398438 L 75.199219 223.199219 L 76.199219 194.800781 L 77 166.199219 C 77 165.398438 78.066406 165 80.199219 165 L 87.800781 165 L 88.398438 165.199219 C 88.398438 169.601562 89.066406 172.066406 90.398438 172.601562 C 91.601562 173.265625 92.199219 171.132812 92.199219 166.199219 C 92.199219 165.398438 93.265625 165 95.398438 165 L 103 165 M 96.398438 169.199219 L 96 173.601562 C 96 174.398438 94.933594 174.800781 92.800781 174.800781 L 85.199219 174.800781 L 84.601562 174.601562 L 84.800781 170 C 84.800781 167.601562 84.265625 166.398438 83.199219 166.398438 C 80.800781 166.398438 79.734375 168.800781 80 173.601562 L 81 185.601562 L 80 200.199219 L 79.199219 214.601562 C 79.199219 219.132812 82 221.800781 87.601562 222.601562 L 157.398438 222.601562 L 171.398438 221 C 174.464844 219.398438 175.933594 215.265625 175.800781 208.601562 L 175.398438 170.398438 C 175.398438 168.398438 174.800781 167.132812 173.601562 166.601562 C 172.265625 166.066406 171.601562 166.066406 171.601562 166.601562 L 171.601562 173.601562 C 171.601562 174.398438 170.535156 174.800781 168.398438 174.800781 L 160.800781 174.800781 L 160.199219 174.601562 L 160.199219 168.398438 C 159.667969 167.066406 158.066406 166.398438 155.398438 166.398438 C 156.332031 166.398438 156.800781 167.332031 156.800781 169.199219 L 156.398438 173.601562 C 156.398438 174.398438 155.332031 174.800781 153.199219 174.800781 L 145.601562 174.800781 L 145 174.601562 L 145 168.398438 C 144.601562 167.066406 143 166.398438 140.199219 166.398438 C 141.132812 166.398438 141.601562 167.332031 141.601562 169.199219 L 141.398438 173.601562 C 141.398438 174.398438 140.332031 174.800781 138.199219 174.800781 L 130.800781 174.800781 L 130 174.601562 L 130.601562 169.398438 C 130.601562 167.398438 129.933594 166.398438 128.601562 166.398438 C 125.398438 166.398438 123.933594 166.734375 124.199219 167.398438 L 126.199219 173.601562 C 126.199219 174.398438 125.132812 174.800781 123 174.800781 L 115.601562 174.800781 L 115 174.601562 L 115 168.398438 C 114.464844 167.066406 112.867188 166.398438 110.199219 166.398438 C 111.132812 166.398438 111.601562 167.332031 111.601562 169.199219 L 111.199219 173.601562 C 111.199219 174.398438 110.132812 174.800781 108 174.800781 L 100.398438 174.800781 L 99.800781 174.601562 L 99.800781 168.398438 C 99.265625 167.066406 97.667969 166.398438 95 166.398438 C 95.933594 166.398438 96.398438 167.332031 96.398438 169.199219 "/>
<path style=" stroke:none;fill-rule:nonzero;fill:rgb(80%,80%,80%);fill-opacity:1;" d="M 225.601562 239.800781 L 226.398438 263.800781 L 226.398438 287.800781 C 195.601562 289 162.601562 289.132812 127.398438 288.199219 C 91.933594 289.132812 58.933594 289 28.398438 287.800781 C 28.132812 282.601562 28.535156 276.132812 29.601562 268.398438 L 32 248.800781 L 32.199219 230.601562 L 31.800781 212.398438 L 46.601562 212.398438 L 46.601562 223.601562 L 61.601562 223.601562 L 61.601562 212.398438 L 76.601562 212.398438 L 76.601562 223.601562 L 91.601562 223.601562 L 91.601562 212.398438 L 106.601562 212.398438 L 106.601562 223.601562 L 121.199219 223.601562 L 121 212.398438 L 136.398438 212.398438 L 136.398438 223.601562 L 151 223.601562 L 151 212.398438 L 165.800781 212.398438 L 165.800781 223.601562 L 180.800781 223.601562 L 180.800781 212.398438 L 195.800781 212.398438 L 195.800781 223.601562 L 210.800781 223.601562 L 210.800781 212.398438 L 225.601562 212.398438 L 225.601562 239.800781 "/>
<path style=" stroke:none;fill-rule:nonzero;fill:rgb(70.196078%,70.196078%,70.196078%);fill-opacity:1;" d="M 227.601562 239.199219 L 228.199219 263.398438 L 228.199219 287.398438 C 228.199219 288.199219 227.132812 288.601562 225 288.601562 C 162.199219 290.734375 96.265625 290.734375 27.199219 288.601562 L 26.398438 288.398438 C 26.398438 280.265625 27 267.734375 28.199219 250.800781 L 29.800781 213 C 29.800781 212.199219 30.867188 211.800781 33 211.800781 L 48 211.800781 L 48.601562 212 C 48.601562 217.066406 48.800781 220 49.199219 220.800781 C 50.132812 222.132812 52.933594 222.800781 57.601562 222.800781 C 59.332031 222.800781 60.199219 221.601562 60.199219 219.199219 L 59.800781 213 C 59.800781 212.199219 60.867188 211.800781 63 211.800781 L 77.800781 211.800781 L 78.601562 212 L 78.398438 220 C 78.933594 221.867188 81.265625 222.800781 85.398438 222.800781 C 88.199219 222.800781 89.734375 221.867188 90 220 L 89.601562 213 C 89.601562 212.199219 90.667969 211.800781 92.800781 211.800781 L 107.800781 211.800781 L 108.398438 212 L 108.398438 221.800781 L 118 222.800781 C 119.199219 219.464844 119.535156 216.199219 119 213 C 119 212.199219 120.066406 211.800781 122.199219 211.800781 L 137.601562 211.800781 L 138.398438 212 L 138.199219 219.800781 C 138.734375 221.800781 140.867188 222.800781 144.601562 222.800781 C 147.535156 222.800781 149.132812 221.933594 149.398438 220.199219 L 149 213 C 149 212.199219 150.066406 211.800781 152.199219 211.800781 L 167.199219 211.800781 L 167.800781 212 L 167.601562 220 C 168.132812 221.867188 170.464844 222.800781 174.601562 222.800781 C 177.398438 222.800781 178.933594 221.867188 179.199219 220 L 178.800781 213 C 178.800781 212.199219 179.867188 211.800781 182 211.800781 L 197 211.800781 L 197.601562 212 C 197.601562 217.066406 197.933594 220 198.601562 220.800781 C 199.535156 222.132812 202.464844 222.800781 207.398438 222.800781 C 208.601562 222.800781 209.199219 221.464844 209.199219 218.800781 L 208.800781 213 C 208.800781 212.199219 209.867188 211.800781 212 211.800781 L 227 211.800781 L 227.601562 212 L 227.601562 239.199219 M 44.800781 224 L 44.800781 215.601562 C 44.132812 214 41.867188 213.199219 38 213.199219 L 32.601562 213.398438 L 33.800781 219.601562 L 34.199219 240.601562 L 30.800781 266.601562 C 29.867188 280.332031 32 287.265625 37.199219 287.398438 L 82.800781 288 L 182 288 L 206 288.601562 C 218.398438 288.199219 224.667969 285.800781 224.800781 281.398438 L 223.800781 240.199219 L 223.800781 214.199219 C 223.800781 213.398438 221.800781 213 217.800781 213 L 210.800781 213.199219 C 212.265625 213.199219 213 214.398438 213 216.800781 L 212.601562 223 C 212.601562 223.933594 211.535156 224.398438 209.398438 224.398438 L 194.601562 224.398438 L 193.800781 224 L 193.800781 215.601562 C 193.265625 214 191 213.199219 187 213.199219 C 183.535156 213.199219 181.800781 213.667969 181.800781 214.601562 L 182.800781 223 C 182.800781 223.933594 181.734375 224.398438 179.601562 224.398438 L 164.601562 224.398438 L 164 224 L 164 215.601562 C 163.332031 214 161.066406 213.199219 157.199219 213.199219 C 153.734375 213.199219 151.933594 213.667969 151.800781 214.601562 L 152.800781 223 C 152.800781 223.933594 151.734375 224.398438 149.601562 224.398438 L 135.199219 224.398438 L 134.398438 224 L 135 216.601562 C 134.867188 214.332031 133.535156 213.199219 131 213.199219 L 122 214 C 121.734375 214.667969 122.132812 217.667969 123.199219 223 C 123.199219 223.933594 122.132812 224.398438 120 224.398438 L 105.199219 224.398438 L 104.601562 224 L 104.601562 215.601562 C 103.933594 214 101.667969 213.199219 97.800781 213.199219 C 94.332031 213.199219 92.535156 213.667969 92.398438 214.601562 L 93.398438 223 C 93.398438 223.933594 92.332031 224.398438 90.199219 224.398438 L 75.398438 224.398438 L 74.601562 224 L 74.601562 215.601562 C 74.066406 214 71.800781 213.199219 67.800781 213.199219 C 64.332031 213.199219 62.601562 213.667969 62.601562 214.601562 L 63.601562 223 C 63.601562 223.933594 62.535156 224.398438 60.398438 224.398438 L 45.398438 224.398438 L 44.800781 224 "/>
<path style=" stroke:none;fill-rule:nonzero;fill:rgb(80%,80%,80%);fill-opacity:1;" d="M 165 288.601562 L 100.398438 288.601562 L 99.800781 281.199219 L 99.800781 274 C 99.800781 264.398438 100.867188 257.132812 103 252.199219 C 106.332031 243.933594 110.867188 238.332031 116.601562 235.398438 C 122.464844 232.464844 128.601562 231.066406 135 231.199219 C 141.667969 231.464844 147.601562 233.464844 152.800781 237.199219 C 156.933594 240.265625 159.734375 245 161.199219 251.398438 L 163.199219 268.199219 L 165 288.601562 "/>
<path style=" stroke:none;fill-rule:nonzero;fill:rgb(70.196078%,70.196078%,70.196078%);fill-opacity:1;" d="M 162 268.601562 C 161.464844 260.199219 160.265625 253.535156 158.398438 248.601562 C 153.867188 237 144.800781 231.667969 131.199219 232.601562 C 117.734375 233.535156 108.933594 239.933594 104.800781 251.800781 C 102.535156 258.464844 101.535156 268.132812 101.800781 280.800781 C 101.933594 284.933594 104.066406 287.332031 108.199219 288 L 119.800781 287.601562 L 163 288 L 162 268.601562 M 159.398438 241.601562 C 162.464844 247.199219 164.464844 254.800781 165.398438 264.398438 L 166.800781 288.199219 C 166.933594 288.734375 166.132812 289.066406 164.398438 289.199219 L 163.601562 289.398438 L 99.199219 289.398438 L 98.601562 289.199219 C 97 274.535156 98 262.332031 101.601562 252.601562 C 106.398438 239.800781 115.265625 232.601562 128.199219 231 L 145.601562 231.800781 C 152.132812 233.535156 156.734375 236.800781 159.398438 241.601562 "/>
<path style=" stroke:none;fill-rule:nonzero;fill:rgb(70.196078%,70.196078%,70.196078%);fill-opacity:1;" d="M 165 288.601562 L 134.398438 288.199219 L 134.800781 231.199219 C 141.734375 231.464844 147.734375 233.464844 152.800781 237.199219 C 156.933594 240.265625 159.734375 245 161.199219 251.398438 L 163.199219 268.199219 L 165 288.601562 "/>
<path style=" stroke:none;fill-rule:nonzero;fill:rgb(60%,60%,60%);fill-opacity:1;" d="M 166.800781 288.199219 C 167.066406 289.535156 166.398438 290.199219 164.800781 290.199219 L 134.199219 289.800781 C 133 289.800781 132.398438 289.332031 132.398438 288.398438 L 132.800781 231.398438 L 133.800781 230 L 135.398438 229.800781 C 148.734375 230.867188 157.398438 237 161.398438 248.199219 C 162.601562 251.667969 164.199219 263.132812 166.199219 282.601562 L 166.800781 288.199219 M 158.398438 250.800781 C 155.066406 240.535156 147.867188 234.601562 136.800781 233 L 136.398438 272.800781 L 136.398438 282.601562 C 136.933594 285.398438 139.199219 286.867188 143.199219 287 L 162.800781 287.199219 L 162.398438 283.601562 L 158.398438 250.800781 "/>
<path style=" stroke:none;fill-rule:nonzero;fill:rgb(70.196078%,70.196078%,70.196078%);fill-opacity:1;" d="M 134.800781 231.199219 L 134.398438 288.199219 L 100.398438 288.601562 L 99.800781 281.199219 L 99.800781 274 C 99.800781 264.398438 100.867188 257.132812 103 252.199219 C 106.332031 243.933594 110.867188 238.332031 116.601562 235.398438 C 122.601562 232.464844 128.667969 231.066406 134.800781 231.199219 "/>
<path style=" stroke:none;fill-rule:nonzero;fill:rgb(60%,60%,60%);fill-opacity:1;" d="M 109 243.800781 C 104.464844 251.265625 102.132812 258.800781 102 266.398438 L 101.601562 280.199219 C 102.265625 285.132812 105.132812 287.535156 110.199219 287.398438 L 132.398438 287.199219 L 132.800781 234 C 132.800781 231.734375 129.132812 232.265625 121.800781 235.601562 C 114.601562 238.933594 110.332031 241.667969 109 243.800781 M 136.601562 231 L 136.398438 288 C 136.398438 288.933594 135.464844 289.398438 133.601562 289.398438 L 99.800781 289.800781 C 99 289.800781 98.601562 289.601562 98.601562 289.199219 C 96.734375 272.667969 98.332031 259.332031 103.398438 249.199219 C 109.398438 236.800781 120.132812 230.398438 135.601562 230 L 136.601562 231 "/>
<path style=" stroke:none;fill-rule:nonzero;fill:rgb(70.196078%,70.196078%,70.196078%);fill-opacity:1;" d="M 226.398438 279 L 225.601562 284.398438 C 224.933594 285.601562 223.265625 286.601562 220.601562 287.398438 L 216 287 C 215.464844 286.199219 215.464844 285 216 283.398438 L 217 279.800781 L 217.601562 225.199219 L 218.398438 216.199219 L 218.601562 213.800781 C 219 212.867188 219.933594 212.464844 221.398438 212.601562 L 224.601562 213.199219 L 224 222.398438 L 224.800781 226.601562 L 225.398438 232.199219 L 225.199219 237.601562 L 225.601562 248 L 225.199219 258.398438 C 224.933594 260.535156 225.132812 265.464844 225.800781 273.199219 L 226.398438 279 "/>
<path style=" stroke:none;fill-rule:nonzero;fill:rgb(70.196078%,70.196078%,70.196078%);fill-opacity:1;" d="M 38.199219 224.398438 C 38.734375 227.332031 38.601562 230.933594 37.800781 235.199219 L 36 246 C 35.199219 253.332031 35.535156 259.199219 37 263.601562 L 39.398438 272 L 39.601562 280.800781 L 36.601562 286.800781 C 35.398438 288.535156 34.066406 288.800781 32.601562 287.601562 C 30.332031 285.734375 29 283.066406 28.601562 279.601562 L 28.601562 270.199219 L 30 244.398438 L 30 224.601562 L 30.199219 220.800781 C 30.734375 219.199219 31.464844 218.132812 32.398438 217.601562 C 33.332031 217.066406 34.265625 217.398438 35.199219 218.601562 C 36.800781 220.199219 37.800781 222.132812 38.199219 224.398438 "/>
</g>
</svg>
