<?xml version="1.0" encoding="UTF-8"?>
<svg xmlns="http://www.w3.org/2000/svg" xmlns:xlink="http://www.w3.org/1999/xlink" width="304pt" height="324pt" viewBox="0 0 304 324" version="1.1">
<g id="surface1">
<path style=" stroke:none;fill-rule:nonzero;fill:rgb(80%,80%,80%);fill-opacity:1;" d="M 105.199219 197.800781 L 175.800781 197.800781 L 175.800781 316.398438 L 105.199219 316.398438 L 105.199219 197.800781 "/>
<path style=" stroke:none;fill-rule:nonzero;fill:rgb(0%,0%,0%);fill-opacity:1;" d="M 109.199219 313.601562 L 171.800781 313.601562 L 171.800781 200.601562 L 109.199219 200.601562 L 109.199219 313.601562 M 103 195.800781 L 105.601562 195 L 176.199219 195 C 178.464844 195 179.601562 195.800781 179.601562 197.398438 L 179.601562 316.199219 C 179.601562 317.535156 178.867188 318.464844 177.398438 319 L 175.800781 319.199219 L 105 319.199219 C 102.601562 319.199219 101.398438 318.398438 101.398438 316.800781 L 101.398438 198 L 103 195.800781 "/>
<path style=" stroke:none;fill-rule:nonzero;fill:rgb(80%,80%,80%);fill-opacity:1;" d="M 100.398438 202.601562 L 170.800781 202.601562 L 170.800781 321.398438 L 100.398438 321.398438 L 100.398438 202.601562 "/>
<path style=" stroke:none;fill-rule:nonzero;fill:rgb(0%,0%,0%);fill-opacity:1;" d="M 104.199219 319 L 167 319 L 167 204.800781 L 104.199219 204.800781 L 104.199219 319 M 98.800781 201 L 102 200.398438 L 172.398438 200.398438 C 174 200.398438 174.800781 201 174.800781 202.199219 L 174.800781 320.800781 C 174.800781 322.132812 173.535156 323 171 323.398438 L 170.800781 323.601562 L 99 323.601562 C 97.398438 323.601562 96.601562 323 96.601562 321.800781 L 96.601562 203 C 96.601562 202.199219 97.332031 201.535156 98.800781 201 "/>
<path style=" stroke:none;fill-rule:nonzero;fill:rgb(100%,94.509804%,0%);fill-opacity:1;" d="M 177 30.199219 C 178.867188 36.734375 179.535156 44.066406 179 52.199219 L 179.800781 52.800781 L 182 53.800781 L 186.398438 56.800781 C 193.601562 62.132812 199.667969 67.800781 204.601562 73.800781 C 210.199219 74.867188 215.464844 76.332031 220.398438 78.199219 L 232.199219 83.800781 L 245.199219 92.800781 C 256.667969 96.398438 266.199219 103.800781 273.800781 115 C 277.132812 120.066406 279.933594 125.800781 282.199219 132.199219 L 283.398438 135.601562 L 285.601562 137.601562 C 292.265625 143.867188 296.933594 149.867188 299.601562 155.601562 L 301 159.199219 C 302.601562 163.867188 303.398438 168.800781 303.398438 174 C 303.398438 182.398438 301.132812 189.734375 296.601562 196 C 291.800781 202.800781 285.332031 207.066406 277.199219 208.800781 L 277.398438 212.398438 C 278.066406 220.535156 277.132812 228.332031 274.601562 235.800781 C 272.199219 243.265625 268.464844 249.734375 263.398438 255.199219 C 253.667969 265.601562 241.535156 270.800781 227 270.800781 L 212.601562 269 C 200.066406 265.667969 191.464844 257.867188 186.800781 245.601562 L 176.199219 245.199219 C 176.199219 255.734375 173.867188 264.066406 169.199219 270.199219 C 162.132812 279.132812 151 283.601562 135.800781 283.601562 L 115.398438 282.199219 L 114.398438 282 L 113.601562 282 L 111.398438 281.800781 C 104.601562 281.398438 98.734375 278.933594 93.800781 274.398438 L 82.199219 277.601562 L 69.601562 278.398438 C 52.800781 278.398438 40.265625 274.734375 32 267.398438 C 23.867188 260.199219 18.535156 248.332031 16 231.800781 C 15.066406 225.132812 15.265625 218.332031 16.601562 211.398438 L 21 195.601562 L 22.601562 191.398438 C 15.132812 182.867188 10.132812 172.734375 7.601562 161 C 5.734375 152.332031 5.667969 143.601562 7.398438 134.800781 L 9.398438 127.398438 L 10 125.398438 L 14.601562 115.601562 L 14.398438 102.601562 C 10 100.199219 6.464844 96.667969 3.800781 92 C 1.398438 87.734375 0.132812 83.199219 0 78.398438 C 0 73.601562 1.132812 69.066406 3.398438 64.800781 C 7.800781 56.667969 14.800781 49.867188 24.398438 44.398438 C 29.867188 41.332031 37.464844 38.265625 47.199219 35.199219 L 51.398438 33.800781 L 51.800781 33.601562 C 57.535156 31.332031 62.933594 30.066406 68 29.800781 C 71.867188 19.398438 77.132812 11.535156 83.800781 6.199219 C 89 2.066406 94.867188 0 101.398438 0 C 107.398438 0 112.933594 1.800781 118 5.398438 L 124.601562 11.398438 C 126.332031 9.933594 128.398438 8.667969 130.800781 7.601562 C 134.667969 5.867188 139 5 143.800781 5 C 151.667969 5 158.800781 7.601562 165.199219 12.800781 C 170.933594 17.601562 174.867188 23.398438 177 30.199219 "/>
<path style=" stroke:none;fill-rule:nonzero;fill:rgb(0%,0%,0%);fill-opacity:1;" d="M 179.601562 65.800781 C 187.199219 71.398438 193.464844 77.535156 198.398438 84.199219 C 204.132812 85 210.132812 86.535156 216.398438 88.800781 C 220.800781 90.800781 224.199219 92.464844 226.601562 93.800781 L 238.800781 102.199219 L 239.199219 102.398438 L 239.800781 103 C 249.667969 105.667969 257.933594 111.800781 264.601562 121.398438 L 271.601562 136.199219 L 273.800781 141.800781 L 277.800781 145.800781 C 283.398438 151.132812 287.265625 156 289.398438 160.398438 L 290.199219 162.601562 C 293.667969 173 292.734375 181.933594 287.398438 189.398438 C 283.265625 195.265625 277.667969 198.199219 270.601562 198.199219 L 265.601562 197.601562 L 266 213.398438 C 267.066406 227 263.398438 238.332031 255 247.398438 C 247.535156 255.535156 238.199219 259.601562 227 259.601562 L 215.398438 258 C 204.199219 255.066406 197.601562 247.066406 195.601562 234 L 189.398438 234.398438 L 181.199219 234 L 175.800781 233.800781 L 164.398438 233.199219 L 164.398438 233.800781 L 164.601562 235.800781 L 164.601562 251.199219 C 164.066406 256.132812 162.601562 260.132812 160.199219 263.199219 C 155.535156 269.199219 147.398438 272.199219 135.800781 272.199219 L 116.800781 270.800781 L 115.601562 270.800781 L 112 270.398438 C 108.398438 270.265625 105.199219 269.066406 102.398438 266.800781 C 99.601562 264.667969 97.667969 262 96.601562 258.800781 C 93.132812 262.535156 87.734375 265.066406 80.398438 266.398438 L 69.601562 267 C 55.601562 267 45.601562 264.265625 39.601562 258.800781 C 33.464844 253.601562 29.332031 244 27.199219 230 C 26.398438 224.667969 26.601562 219.066406 27.800781 213.199219 C 28.464844 210 29.800781 205.398438 31.800781 199.398438 L 34.800781 187.800781 C 26.667969 180.199219 21.332031 170.535156 18.800781 158.800781 C 17.199219 151.734375 17.066406 144.464844 18.398438 137 L 20.199219 131 L 20.800781 129.199219 L 24.601562 120.800781 L 25 120.199219 L 25.601562 119 L 26 118.398438 L 25.800781 106.398438 C 25.535156 102.398438 25.601562 98.601562 26 95 C 20.535156 94.199219 16.398438 91.332031 13.601562 86.398438 C 10.667969 81.066406 10.601562 75.601562 13.398438 70 C 16.867188 63.601562 22.601562 58.265625 30.601562 54 C 35 51.601562 41.667969 48.933594 50.601562 46 L 55.800781 44.199219 C 62.199219 42.066406 67.199219 41 70.800781 41 L 76.199219 41.398438 L 76.199219 41.199219 C 77.933594 35.332031 79.601562 30.800781 81.199219 27.601562 C 83.734375 22.398438 86.933594 18.265625 90.800781 15.199219 C 94 12.667969 97.535156 11.398438 101.398438 11.398438 C 104.867188 11.398438 108.199219 12.464844 111.398438 14.601562 C 118.199219 19.667969 121.601562 27.535156 121.601562 38.199219 L 123 35.398438 L 123 35.199219 C 124.464844 26.800781 128.601562 21.066406 135.398438 18 C 138.066406 16.800781 140.867188 16.199219 143.800781 16.199219 C 149 16.199219 153.800781 18.066406 158.199219 21.800781 C 162.066406 25.132812 164.667969 29 166 33.398438 C 167.734375 39 168.132812 46.933594 167.199219 57.199219 L 167.199219 57.800781 L 167 59.800781 L 168 60 L 171.601562 61.398438 L 172.398438 61.601562 L 174.800781 62.800781 L 179.601562 65.800781 "/>
<path style=" stroke:none;fill-rule:nonzero;fill:rgb(100%,100%,100%);fill-opacity:1;" d="M 162.800781 67.601562 L 165.601562 68.199219 L 167.601562 69 L 168.601562 69.199219 L 168.800781 69.398438 L 174.601562 72.601562 C 182.867188 78.867188 189.199219 85.398438 193.601562 92.199219 C 200 92.734375 206.535156 94.265625 213.199219 96.800781 L 222.398438 101.199219 L 233.398438 108.601562 L 235.800781 110.800781 C 244.199219 112.535156 251.464844 117.667969 257.601562 126.199219 C 259.734375 129.535156 261.734375 133.867188 263.601562 139.199219 L 266.601562 146.199219 L 272 152 C 276.667969 156.398438 279.867188 160.398438 281.601562 164 L 282 165 C 284.667969 172.867188 284.199219 179.332031 280.601562 184.398438 C 278.199219 187.867188 274.867188 189.601562 270.601562 189.601562 C 267.667969 189.601562 264.535156 188.464844 261.199219 186.199219 L 257.199219 182.398438 L 257.199219 187.601562 C 256.933594 199.464844 257.066406 208.265625 257.601562 214 C 258.398438 225.332031 255.464844 234.535156 248.800781 241.601562 C 242.933594 247.867188 235.667969 251 227 251 L 217.601562 249.800781 C 212.535156 248.464844 208.867188 245.667969 206.601562 241.398438 C 205.398438 239.265625 204.398438 235.867188 203.601562 231.199219 L 203.601562 230.398438 L 201.800781 224.800781 L 201.800781 224.398438 L 189.398438 225.800781 L 175.800781 225.398438 C 168.332031 225.398438 162.199219 224.535156 157.398438 222.800781 L 155.199219 222 L 156.199219 237.199219 L 156.199219 249.800781 C 155.933594 253.398438 155.066406 256.132812 153.601562 258 C 150.535156 261.867188 144.601562 263.800781 135.800781 263.800781 L 117.601562 262.398438 L 112.398438 262 C 110.132812 261.867188 108.265625 261 106.800781 259.398438 C 105.332031 257.800781 104.535156 255.933594 104.398438 253.800781 L 104.800781 241.601562 C 105.332031 234.132812 105.132812 228.867188 104.199219 225.800781 L 101.199219 221.800781 C 99.734375 220.601562 98.332031 220 97 220 L 96 220 L 96 231.398438 C 96.132812 237.933594 95.535156 243 94.199219 246.601562 C 91.800781 253.132812 86.800781 256.933594 79.199219 258 L 69.601562 258.601562 C 58.132812 258.601562 50 256.535156 45.199219 252.398438 C 42.398438 250 40 245.734375 38 239.601562 C 36.800781 235.867188 36 232.265625 35.601562 228.800781 C 34.933594 224.265625 35.132812 219.535156 36.199219 214.601562 C 36.734375 211.800781 37.933594 207.667969 39.800781 202.199219 C 42.199219 195.667969 43.398438 190.535156 43.398438 186.800781 L 42.199219 182.800781 C 34.332031 176.398438 29.265625 167.800781 27 157 C 25.800781 150.867188 25.734375 144.667969 26.800781 138.398438 L 29.601562 130 L 32.199219 125 L 34 121.199219 L 34.398438 113.800781 L 34.199219 106 C 33.933594 98.535156 34.464844 92.800781 35.800781 88.800781 L 36.601562 86.800781 L 28 86.601562 C 24.800781 86.332031 22.464844 84.867188 21 82.199219 C 19.535156 79.535156 19.535156 76.800781 21 74 C 23.667969 68.933594 28.464844 64.601562 35.398438 61 C 39.132812 59 45.066406 56.667969 53.199219 54 L 58.601562 52.199219 C 63.535156 50.332031 67.601562 49.398438 70.800781 49.398438 L 78 51 L 81 53.199219 L 82.199219 49.800781 L 84.398438 43.601562 L 88.601562 31.800781 C 90.601562 27.398438 93.066406 24.066406 96 21.800781 C 97.601562 20.601562 99.398438 20 101.398438 20 C 103.535156 20 105.199219 20.535156 106.398438 21.601562 C 109.867188 24 112 27.800781 112.800781 33 L 112.800781 45.800781 L 111.601562 64.199219 L 118 66.199219 L 127 47 L 131.398438 37.398438 L 131.398438 36.800781 C 132.332031 31.199219 134.800781 27.535156 138.800781 25.800781 L 143.800781 24.800781 C 147 24.800781 150 26 152.800781 28.398438 C 155.332031 30.535156 157.066406 33.066406 158 36 C 159.332031 40.535156 159.601562 47.398438 158.800781 56.601562 L 158.199219 64 L 158.398438 66.800781 L 158.398438 67.199219 L 162 67.601562 L 162.800781 67.601562 "/>
<path style=" stroke:none;fill-rule:nonzero;fill:rgb(94.901961%,94.901961%,94.901961%);fill-opacity:1;" d="M 215 120 L 235.199219 119.199219 C 241.066406 120.667969 246.199219 124.601562 250.601562 131 L 255.199219 141 C 256.933594 145.800781 258.332031 149.066406 259.398438 150.800781 L 267 159.199219 L 274 167.800781 C 275.464844 172.332031 275.464844 176 274 178.800781 C 272.535156 181.867188 269.867188 182 266 179.199219 C 263.867188 177.867188 261.800781 174.535156 259.800781 169.199219 L 255.601562 157.398438 L 248.398438 142.601562 C 245.464844 137.398438 241.667969 133.667969 237 131.398438 C 234.199219 130.066406 232.132812 129.398438 230.800781 129.398438 C 229.464844 129.265625 227.332031 129.867188 224.398438 131.199219 L 218 135 L 211.199219 135.398438 L 215 120 "/>
<path style=" stroke:none;fill-rule:nonzero;fill:rgb(70.196078%,70.196078%,70.196078%);fill-opacity:1;" d="M 215.199219 118.800781 C 236.132812 115.199219 249.667969 121.265625 255.800781 137 L 260 147 C 261.734375 150.464844 263.800781 153.332031 266.199219 155.601562 L 271.800781 160.800781 L 276 167.199219 C 277.867188 174.398438 277.199219 179 274 181 C 269.199219 184.332031 264.867188 182.535156 261 175.601562 L 254.601562 160 C 250.066406 149.601562 246.398438 142.535156 243.601562 138.800781 C 237.199219 130.535156 230.464844 128.667969 223.398438 133.199219 L 217 136.800781 L 210 136.601562 C 208.933594 136.199219 208.867188 135.601562 209.800781 134.800781 C 210.601562 134.132812 211.398438 133.933594 212.199219 134.199219 C 213.667969 134.601562 216.667969 133.800781 221.199219 131.800781 C 226.398438 129.535156 229.667969 128.332031 231 128.199219 C 234.199219 127.800781 238.535156 129.800781 244 134.199219 C 247.734375 137 251.066406 141.601562 254 148 L 260.199219 164.199219 L 262.601562 171 L 266.199219 177 C 270.199219 180.601562 272.265625 180 272.398438 175.199219 C 272.535156 170.667969 271.867188 167.398438 270.398438 165.398438 L 262.398438 157.398438 C 259.199219 154.066406 257.066406 151 256 148.199219 L 250 134.199219 C 247.332031 128.867188 244 125.132812 240 123 C 236.265625 121 232.132812 120 227.601562 120 L 214.800781 121.398438 C 213.464844 121.535156 212.933594 121.199219 213.199219 120.398438 L 215.199219 118.800781 "/>
<path style=" stroke:none;fill-rule:nonzero;fill:rgb(94.901961%,94.901961%,94.901961%);fill-opacity:1;" d="M 169.398438 79.601562 C 178.734375 86.398438 185.132812 93.332031 188.601562 100.398438 C 195.800781 100.535156 203 102 210.199219 104.800781 C 218.199219 107.867188 225.332031 112.398438 231.601562 118.398438 C 238.398438 124.933594 242.734375 131.800781 244.601562 139 C 247.398438 148.601562 248.800781 161.132812 248.800781 176.601562 L 249 214.601562 C 249.800781 223.667969 247.464844 230.933594 242 236.398438 C 236.265625 242.132812 228.800781 243.867188 219.601562 241.601562 C 216.800781 240.800781 214.867188 239.132812 213.800781 236.601562 C 213.132812 235.398438 212.535156 232.933594 212 229.199219 L 209.199219 220.398438 C 207.867188 216.800781 207.265625 213.867188 207.398438 211.601562 C 204.464844 214.933594 199.535156 216.800781 192.601562 217.199219 L 175.800781 216.800781 L 160.199219 214.800781 C 156.867188 213.066406 154.464844 212 153 211.601562 C 150.464844 210.800781 148.601562 211.601562 147.398438 214 C 146.601562 215.464844 146.398438 218.535156 146.800781 223.199219 L 147.398438 233 L 148 243 C 148.132812 248.332031 147.734375 251.601562 146.800781 252.800781 C 145.199219 254.933594 139.867188 255.734375 130.800781 255.199219 L 112.800781 253.398438 L 113.601562 238.398438 C 113.867188 232.265625 113.464844 227.332031 112.398438 223.601562 C 111.066406 219.066406 108.132812 215.601562 103.601562 213.199219 L 90 213.601562 C 88.800781 214.535156 88 216.332031 87.601562 219 L 87.398438 225.601562 L 87.199219 240.601562 C 86.265625 245.800781 83.199219 248.800781 78 249.601562 C 73.464844 250.132812 68.734375 250.199219 63.800781 249.800781 C 57.398438 249.265625 53.066406 248 50.800781 246 C 48.132812 243.734375 45.867188 237.601562 44 227.601562 C 43.199219 222.265625 44.265625 215.332031 47.199219 206.800781 C 50.398438 197.601562 52 190.867188 52 186.601562 C 51.867188 183.398438 50.601562 179.867188 48.199219 176 L 41.601562 166.601562 C 34.933594 155 33.332031 144.398438 36.800781 134.800781 C 37.199219 133.601562 38.066406 131.800781 39.398438 129.398438 L 42 124 L 43 117.199219 L 42.800781 110.199219 L 42.601562 100.800781 C 42.601562 97.066406 43 93.933594 43.800781 91.398438 C 44.601562 89.132812 46.066406 86.601562 48.199219 83.800781 C 50.464844 80.734375 52.535156 78.800781 54.398438 78 L 49 77.601562 L 43.398438 78.199219 L 28.398438 78 C 30.667969 73.867188 35.332031 70.199219 42.398438 67 L 59.601562 61 L 66.800781 58.601562 C 70 57.800781 72.464844 57.800781 74.199219 58.601562 C 75.535156 59.265625 76.601562 60.601562 77.398438 62.601562 L 78.800781 67.398438 L 81 69.800781 L 82.601562 72 L 93.199219 72.800781 L 104.199219 71.398438 L 115.398438 74.199219 L 126.800781 77.601562 L 136.398438 79.800781 L 140.800781 79.199219 L 145 77.601562 L 153.398438 76 C 160.066406 75.332031 165.398438 76.535156 169.398438 79.601562 M 166.199219 99.800781 L 169 100.601562 L 176.601562 99.601562 L 181 100 L 173.199219 95.800781 C 167.066406 92.601562 162.132812 91.734375 158.398438 93.199219 L 164.199219 97.601562 L 166.199219 99.800781 "/>
<path style=" stroke:none;fill-rule:nonzero;fill:rgb(70.196078%,70.196078%,70.196078%);fill-opacity:1;" d="M 184.601562 99 L 181.800781 95 L 176.199219 87.398438 C 171 82.734375 164.734375 80 157.398438 79.199219 L 136.199219 80.601562 L 130.601562 80 L 125.199219 78.398438 C 112.667969 75.332031 100.867188 73.867188 89.800781 74 L 85 74 C 82.734375 73.867188 81.265625 73.332031 80.601562 72.398438 C 73.535156 62.535156 64.066406 59.734375 52.199219 64 C 48.199219 65.332031 45.398438 67.933594 43.800781 71.800781 C 42.199219 75.667969 44.199219 77.332031 49.800781 76.800781 L 55.601562 77.199219 C 56.398438 77.199219 56.464844 77.535156 55.800781 78.199219 C 49.667969 82.601562 46.265625 88.535156 45.601562 96 L 45 117 C 44.199219 122.066406 42.199219 129.132812 39 138.199219 C 36.867188 146.332031 37.398438 153.667969 40.601562 160.199219 L 49.398438 175.398438 C 52.464844 181 53.800781 186.535156 53.398438 192 L 48.398438 209.199219 C 45.867188 216.132812 45.066406 222.066406 46 227 C 47.332031 234.464844 49.265625 239.734375 51.800781 242.800781 C 55.132812 246.933594 60.332031 249.066406 67.398438 249.199219 C 76.464844 249.332031 81.933594 246.667969 83.800781 241.199219 L 85.601562 221.800781 C 86.265625 215 89.535156 211.332031 95.398438 210.800781 C 103.535156 210.265625 109.199219 213.332031 112.398438 220 C 114.933594 225.199219 115.867188 232.199219 115.199219 241 C 114.800781 247.132812 116 251 118.800781 252.601562 L 132 254.199219 C 138.800781 254.464844 143.066406 252.535156 144.800781 248.398438 C 145.601562 246.265625 145.867188 241.265625 145.601562 233.398438 C 144.667969 227.667969 144.265625 223.332031 144.398438 220.398438 C 144.398438 214.933594 146.535156 211.667969 150.800781 210.601562 C 152.535156 210.066406 154.667969 210.535156 157.199219 212 C 163.332031 214.800781 171.535156 216.398438 181.800781 216.800781 C 193.132812 217.199219 201.132812 215.535156 205.800781 211.800781 C 206.066406 211.535156 206.667969 211.199219 207.601562 210.800781 L 209.398438 211 L 211.398438 224 C 212.601562 229.867188 214 233.933594 215.601562 236.199219 C 221.199219 243.933594 227.734375 245.464844 235.199219 240.800781 C 241.734375 236.800781 245.464844 231.464844 246.398438 224.800781 C 247.199219 219.066406 247.332031 213.535156 246.800781 208.199219 L 246.601562 173.800781 C 246.332031 160.332031 245.066406 148.867188 242.800781 139.398438 L 245 139.601562 L 246.800781 138.800781 C 249.199219 149.199219 250.601562 161.601562 251 176 L 251 214 C 251 227.199219 245.933594 236.332031 235.800781 241.398438 C 229.398438 244.601562 222.132812 244.199219 214 240.199219 C 211.066406 238.734375 209.332031 233.398438 208.800781 224.199219 C 208.398438 217 205.601562 214.464844 200.398438 216.601562 C 196.132812 218.464844 190.132812 219.199219 182.398438 218.800781 L 164.199219 217 L 158.398438 215.601562 C 152.800781 212.933594 149.601562 213.933594 148.800781 218.601562 C 148.398438 221.132812 148.535156 224.667969 149.199219 229.199219 L 149.800781 246.601562 C 149.265625 253.398438 144.066406 256.800781 134.199219 256.800781 L 111.601562 254.199219 L 111 254 L 112.199219 238.800781 C 112.601562 232.265625 112 227.332031 110.398438 224 C 107.332031 217.199219 103 214.667969 97.398438 216.398438 C 91.800781 218.132812 89.132812 222.464844 89.398438 229.398438 L 89.199219 240 C 88.535156 244.132812 86.667969 246.933594 83.601562 248.398438 C 77.199219 251.464844 69.933594 252.398438 61.800781 251.199219 C 52.734375 250 47.199219 246.265625 45.199219 240 C 42.933594 232.933594 42.332031 226 43.398438 219.199219 L 48.199219 198.601562 C 50.066406 190.734375 48.265625 181.265625 42.800781 170.199219 C 36.535156 157.800781 33.398438 148.332031 33.398438 141.800781 C 33.398438 138.199219 34.667969 133.199219 37.199219 126.800781 C 39.867188 120.535156 41.132812 115.199219 41 110.800781 L 40.601562 101.398438 C 40.464844 97.265625 40.933594 94.066406 42 91.800781 C 44.933594 85.800781 47.535156 81.933594 49.800781 80.199219 L 39.199219 80 L 27.199219 78.800781 L 26.601562 78.398438 C 32.734375 69.867188 45.199219 63.265625 64 58.601562 L 70 57.199219 L 76 58 L 84.800781 69 C 87.601562 71.535156 92.800781 72.132812 100.398438 70.800781 L 111.601562 72 L 122.800781 75.398438 L 138.199219 77 L 153.601562 75.398438 C 162 74.066406 170 76.734375 177.601562 83.398438 C 182.535156 87.667969 186.601562 92.933594 189.800781 99.199219 L 191.199219 102 L 192.398438 105 L 191 106.199219 L 188.800781 106.199219 L 180 100.800781 L 167.398438 100.199219 C 164.734375 99.800781 161.132812 97.734375 156.601562 94 L 157.398438 93 L 158.800781 92.601562 L 164.800781 92 L 170.601562 93.199219 C 175.265625 95.332031 179.199219 97.265625 182.398438 99 L 184.601562 99 M 176.800781 99.199219 C 172 96.398438 166.933594 94.535156 161.601562 93.601562 L 167.199219 97.601562 C 169.464844 98.933594 171.601562 99.535156 173.601562 99.398438 L 176.800781 99.199219 "/>
<path style=" stroke:none;fill-rule:nonzero;fill:rgb(80%,80%,80%);fill-opacity:1;" d="M 171.199219 147.800781 L 170 142 C 169.464844 139.734375 169.734375 137.933594 170.800781 136.601562 C 173.066406 133.398438 176.332031 132.265625 180.601562 133.199219 C 185.132812 134.132812 189.265625 136.734375 193 141 C 196.734375 145.398438 198.332031 149.464844 197.800781 153.199219 L 194.800781 162.601562 C 194 165.535156 194.800781 168.464844 197.199219 171.398438 L 204.199219 177.398438 C 207 179.667969 208.867188 182 209.800781 184.398438 C 212.734375 191.601562 211.933594 197.464844 207.398438 202 C 202.867188 206.398438 196.933594 207.464844 189.601562 205.199219 L 180.398438 201.398438 L 170.398438 200.199219 C 168.667969 200.601562 166.667969 201.734375 164.398438 203.601562 L 158.800781 207 C 154.132812 208.464844 149.464844 206.398438 144.800781 200.800781 C 140.933594 196.398438 138.199219 191.535156 136.601562 186.199219 C 134.066406 177.535156 137.734375 171.332031 147.601562 167.601562 C 151.601562 166.132812 157.132812 164.464844 164.199219 162.601562 C 169.132812 160.199219 171.464844 155.265625 171.199219 147.800781 "/>
<path style=" stroke:none;fill-rule:nonzero;fill:rgb(94.901961%,94.901961%,94.901961%);fill-opacity:1;" d="M 152 169.199219 L 147 179.199219 L 143.199219 183.398438 C 142 184.601562 140.535156 185.398438 138.800781 185.800781 L 137 186.199219 L 134.199219 186.800781 L 131.800781 187.398438 L 126 188.601562 L 154.800781 92.601562 C 159.332031 96.734375 163 101.667969 165.800781 107.398438 C 169 114.066406 169.933594 120 168.601562 125.199219 C 167.800781 128.265625 165.464844 131.867188 161.601562 136 C 157.464844 140.265625 154.933594 143.667969 154 146.199219 C 153.066406 148.601562 152.800781 152.398438 153.199219 157.601562 C 153.601562 162.667969 153.199219 166.535156 152 169.199219 "/>
<path style=" stroke:none;fill-rule:nonzero;fill:rgb(70.196078%,70.196078%,70.196078%);fill-opacity:1;" d="M 154.398438 92.199219 L 156.601562 92 C 161.667969 97.066406 165.535156 102.066406 168.199219 107 C 171.933594 113.933594 172.667969 119.867188 170.398438 124.800781 L 164.601562 133.199219 C 161.535156 136.535156 159.464844 139.265625 158.398438 141.398438 C 156.265625 145 155.332031 148.667969 155.601562 152.398438 L 155.199219 163 C 153.066406 172.066406 149.667969 178.464844 145 182.199219 C 141.398438 185 134.933594 187.332031 125.601562 189.199219 L 124.398438 189 C 124.800781 188.464844 125.398438 188.132812 126.199219 188 L 138.800781 184.398438 C 142.667969 182.535156 145.667969 179.265625 147.800781 174.601562 C 149.132812 171.800781 149.800781 167 149.800781 160.199219 C 149.800781 153.667969 150.535156 149.066406 152 146.398438 L 161.800781 134.398438 C 165.933594 129.199219 167.734375 124.601562 167.199219 120.601562 C 166 110.734375 161.265625 101.667969 153 93.398438 L 154.398438 92.199219 "/>
<path style=" stroke:none;fill-rule:nonzero;fill:rgb(100%,0%,0%);fill-opacity:1;" d="M 71.398438 174.398438 L 76.199219 174 L 92.601562 178 L 101 181.398438 L 104.199219 182.199219 C 105.265625 182.601562 105.734375 183.332031 105.601562 184.398438 C 105.464844 186 104.132812 187.398438 101.601562 188.601562 L 95.800781 190.800781 L 91.601562 192.601562 C 89.867188 193.132812 88.398438 193.132812 87.199219 192.601562 C 85.332031 191.933594 82.265625 189.464844 78 185.199219 L 73.800781 182.199219 L 70.199219 178.398438 C 69.398438 176.535156 69.800781 175.199219 71.398438 174.398438 "/>
<path style=" stroke:none;fill-rule:nonzero;fill:rgb(80%,80%,80%);fill-opacity:1;" d="M 120 116.398438 C 120 118.132812 119.332031 119.667969 118 121 L 113.398438 122.800781 C 111.667969 122.800781 110.199219 122.199219 109 121 C 107.667969 119.667969 107 118.132812 107 116.398438 C 107 114.667969 107.667969 113.132812 109 111.800781 C 110.199219 110.601562 111.667969 110 113.398438 110 C 115.265625 110 116.800781 110.601562 118 111.800781 C 119.332031 113.132812 120 114.667969 120 116.398438 "/>
<path style=" stroke:none;fill-rule:nonzero;fill:rgb(80%,80%,80%);fill-opacity:1;" d="M 100.601562 113.199219 C 100.601562 115.066406 100 116.601562 98.800781 117.800781 C 97.464844 119.132812 95.933594 119.800781 94.199219 119.800781 C 92.464844 119.800781 90.933594 119.132812 89.601562 117.800781 C 88.265625 116.601562 87.601562 115.066406 87.601562 113.199219 C 87.601562 111.464844 88.265625 109.933594 89.601562 108.601562 C 90.800781 107.398438 92.332031 106.800781 94.199219 106.800781 C 96.066406 106.800781 97.601562 107.398438 98.800781 108.601562 C 100 109.933594 100.601562 111.464844 100.601562 113.199219 "/>
<path style=" stroke:none;fill-rule:nonzero;fill:rgb(80%,80%,80%);fill-opacity:1;" d="M 86 80.398438 C 87.066406 83.332031 85.332031 86.066406 80.800781 88.601562 L 70.601562 93.398438 C 67.132812 95.535156 64.398438 100.265625 62.398438 107.601562 L 61.601562 121.601562 C 60.933594 124.535156 59.601562 127.265625 57.601562 129.800781 L 50.398438 135.601562 L 42.800781 137.398438 L 39.601562 135.601562 L 37.601562 133 L 42 124 L 43 117.199219 L 42.800781 110.199219 L 42.601562 100.800781 C 42.601562 97.066406 43 93.933594 43.800781 91.398438 C 44.601562 89.132812 46.066406 86.601562 48.199219 83.800781 C 50.464844 80.734375 52.535156 78.800781 54.398438 78 L 49 77.601562 L 43.398438 78.199219 L 34 78.199219 L 40.800781 74 C 42.667969 72.933594 45.132812 71.800781 48.199219 70.601562 C 53.667969 69 58 68.398438 61.199219 68.800781 L 66.199219 69.800781 L 71.199219 70 L 74.398438 68.398438 C 77.867188 67.199219 79.933594 68.066406 80.601562 71 C 81 72.867188 81.601562 74.265625 82.398438 75.199219 L 84.199219 77.199219 L 86 80.398438 "/>
<path style=" stroke:none;fill-rule:nonzero;fill:rgb(70.196078%,70.196078%,70.196078%);fill-opacity:1;" d="M 228.398438 113.601562 C 236.933594 120.265625 243 128.535156 246.601562 138.398438 L 244.398438 138 L 242.800781 139.398438 C 237.734375 125.800781 228.332031 115.464844 214.601562 108.398438 C 207 104.535156 199.066406 102.132812 190.800781 101.199219 L 192.398438 105 C 192.800781 105.800781 191.667969 106.265625 189 106.398438 C 186.867188 104.933594 182.867188 103.066406 177 100.800781 L 172.398438 101.199219 L 164 99.800781 L 156.601562 94 C 156.332031 93.734375 157.066406 93.132812 158.800781 92.199219 C 164.535156 91.398438 169.867188 92.332031 174.800781 95 L 181.601562 98.601562 L 185.398438 98.601562 L 189.601562 98.800781 L 200.199219 100.398438 C 211.265625 103.199219 220.667969 107.601562 228.398438 113.601562 M 166.800781 97.398438 C 169.066406 98.734375 171.132812 99.332031 173 99.199219 C 167.933594 97.199219 164.265625 95.398438 162 93.800781 L 166.800781 97.398438 "/>
<path style=" stroke:none;fill-rule:nonzero;fill:rgb(94.901961%,94.901961%,94.901961%);fill-opacity:1;" d="M 35.199219 140 C 36.398438 133.332031 40.800781 128.867188 48.398438 126.601562 L 68.199219 125.800781 C 71.535156 126.332031 77.933594 129.535156 87.398438 135.398438 C 97.398438 141.535156 101.398438 145.464844 99.398438 147.199219 C 105.535156 142.265625 110.601562 139.332031 114.601562 138.398438 C 119.933594 137.199219 125.734375 138.199219 132 141.398438 C 137.464844 144.199219 142.398438 148.933594 146.800781 155.601562 C 151.867188 163.066406 153.265625 169.398438 151 174.601562 C 149.667969 177.800781 145.734375 181.066406 139.199219 184.398438 C 133.332031 187.332031 128.398438 188.933594 124.398438 189.199219 C 113.601562 189.734375 104.933594 188.332031 98.398438 185 L 89.398438 178.199219 C 86.734375 176.066406 83.464844 175.601562 79.601562 176.800781 L 69.601562 181.398438 L 58.199219 181.601562 C 52.332031 180.265625 47.332031 177.066406 43.199219 172 C 39.332031 167.332031 36.734375 161.734375 35.398438 155.199219 C 34.332031 149.867188 34.265625 144.800781 35.199219 140 "/>
<path style=" stroke:none;fill-rule:nonzero;fill:rgb(70.196078%,70.196078%,70.196078%);fill-opacity:1;" d="M 79 129 L 90.199219 134.800781 C 94.734375 137.332031 98 139.933594 100 142.601562 L 102.199219 144.800781 C 103.132812 143.199219 104.734375 141.867188 107 140.800781 C 118.867188 135.464844 128.933594 136.132812 137.199219 142.800781 C 144 148.132812 148.867188 154.132812 151.800781 160.800781 C 155.800781 169.464844 154.265625 176.066406 147.199219 180.601562 C 136.535156 187.535156 125 190.601562 112.601562 189.800781 C 104.332031 189.132812 96.464844 185.867188 89 180 C 85.398438 177.199219 81.535156 176.667969 77.398438 178.398438 L 67 182.601562 C 58.601562 183.667969 51.332031 181.535156 45.199219 176.199219 C 39.867188 171.398438 35.933594 164.601562 33.398438 155.800781 C 32.199219 146.464844 33.734375 139.066406 38 133.601562 C 40.667969 125.601562 47.066406 122.398438 57.199219 124 C 53.332031 124.265625 49.601562 125.332031 46 127.199219 C 42.667969 128.933594 40 131.066406 38 133.601562 C 36.265625 138.667969 36.066406 145.734375 37.398438 154.800781 C 40.332031 165.464844 45.265625 172.535156 52.199219 176 C 59 179.199219 68.132812 179.265625 79.601562 176.199219 L 89.800781 176.398438 L 99 183.199219 C 102.601562 185.332031 106.199219 186.667969 109.800781 187.199219 C 119.933594 188.667969 129.601562 187.332031 138.800781 183.199219 C 149.601562 178.398438 152.800781 171.464844 148.398438 162.398438 C 143.199219 152 136.667969 145.199219 128.800781 142 C 119.734375 138.398438 110.398438 140.199219 100.800781 147.398438 L 98.800781 147.800781 L 97.398438 147.601562 C 98.199219 146.132812 95.066406 142.867188 88 137.800781 C 80.398438 132.332031 72.734375 128.332031 65 125.800781 L 57.199219 124 C 64 123.332031 71.265625 125 79 129 "/>
<path style=" stroke:none;fill-rule:nonzero;fill:rgb(80%,80%,80%);fill-opacity:1;" d="M 69.800781 167.800781 C 65.132812 166.199219 62.867188 163.734375 63 160.398438 C 63.132812 156.800781 65.332031 154.800781 69.601562 154.398438 C 73.601562 153.867188 76.933594 154.734375 79.601562 157 C 82.535156 159.535156 82.667969 162.601562 80 166.199219 C 77.867188 169 74.464844 169.535156 69.800781 167.800781 "/>
<path style=" stroke:none;fill-rule:nonzero;fill:rgb(80%,80%,80%);fill-opacity:1;" d="M 105.199219 168.601562 C 105.464844 166.867188 106.535156 165.398438 108.398438 164.199219 C 110.265625 163 112.398438 162.535156 114.800781 162.800781 C 117.199219 163.066406 119.066406 164.066406 120.398438 165.800781 C 122 167.398438 122.867188 169.066406 123 170.800781 C 123.132812 172.800781 122.265625 174.398438 120.398438 175.601562 L 117.398438 176.601562 L 112.601562 176.199219 C 110.066406 175.667969 108.199219 174.867188 107 173.800781 C 105.398438 172.332031 104.800781 170.601562 105.199219 168.601562 "/>
<path style=" stroke:none;fill-rule:nonzero;fill:rgb(94.901961%,94.901961%,94.901961%);fill-opacity:1;" d="M 150.800781 51.199219 L 149.800781 64 C 149.800781 72.398438 149.535156 77.734375 149 80 C 148.601562 81.734375 148.667969 83.464844 149.199219 85.199219 C 149.601562 87.066406 150.535156 88.199219 152 88.601562 L 116 80 C 118.535156 80.132812 121.601562 77.132812 125.199219 71 L 131.199219 57.199219 C 135.464844 49.601562 138.199219 43.867188 139.398438 40 L 140.199219 36.398438 C 140.601562 34.933594 141.265625 34 142.199219 33.601562 C 143.667969 32.933594 145.265625 33.265625 147 34.601562 C 148.464844 35.667969 149.398438 36.933594 149.800781 38.398438 C 150.734375 41.464844 151.066406 45.734375 150.800781 51.199219 "/>
<path style=" stroke:none;fill-rule:nonzero;fill:rgb(70.196078%,70.196078%,70.196078%);fill-opacity:1;" d="M 153.601562 89.199219 L 151 89.601562 L 147.800781 86.800781 L 147 82.398438 L 147.199219 73.601562 L 147.800781 64.601562 L 148.800781 48.398438 L 147.800781 39 C 143.535156 35.933594 141.398438 36.199219 141.398438 39.800781 C 136.332031 52.734375 131.265625 63.601562 126.199219 72.398438 C 123.398438 77.199219 120.066406 80 116.199219 80.800781 L 114.199219 80.398438 C 114.066406 79.867188 114.601562 79.464844 115.800781 79.199219 C 118.601562 78.667969 121.199219 76.132812 123.601562 71.601562 L 127.800781 61 L 133.199219 50.800781 C 135.464844 46.667969 136.933594 43.199219 137.601562 40.398438 C 138.132812 37.464844 138.867188 35.464844 139.800781 34.398438 C 140.867188 33.332031 142.734375 32.667969 145.398438 32.398438 C 151.535156 31.867188 153.867188 40.332031 152.398438 57.800781 C 150.800781 76.601562 151.398438 86.667969 154.199219 88 C 154.867188 88.265625 154.667969 88.667969 153.601562 89.199219 "/>
<path style=" stroke:none;fill-rule:nonzero;fill:rgb(100%,100%,100%);fill-opacity:1;" d="M 169.398438 79.601562 C 180.867188 88 187.933594 96.601562 190.601562 105.398438 L 173.199219 95.800781 C 167.066406 92.601562 162.132812 91.734375 158.398438 93.199219 L 149.601562 76.601562 L 161 76 C 164.066406 76.398438 166.867188 77.601562 169.398438 79.601562 "/>
<path style=" stroke:none;fill-rule:nonzero;fill:rgb(70.196078%,70.196078%,70.196078%);fill-opacity:1;" d="M 168.800781 77.199219 C 174 79.734375 178.800781 83.667969 183.199219 89 C 187.332031 93.933594 190.398438 99.199219 192.398438 104.800781 L 192.398438 105 L 191 106.398438 L 188.800781 106.199219 C 174.667969 96.464844 164.667969 92.464844 158.800781 94.199219 L 156.800781 93.800781 C 156.667969 93.132812 157.132812 92.667969 158.199219 92.398438 C 163.132812 90.933594 169.132812 91.800781 176.199219 95 L 186.601562 100.800781 C 182.601562 92.933594 176.265625 86.066406 167.601562 80.199219 C 164.933594 78.464844 161.933594 77.464844 158.601562 77.199219 L 148.800781 77.601562 C 147.601562 77.734375 147.398438 77.398438 148.199219 76.601562 C 148.867188 75.933594 149.601562 75.601562 150.398438 75.601562 L 159.800781 75.199219 C 163.132812 75.199219 166.132812 75.867188 168.800781 77.199219 "/>
<path style=" stroke:none;fill-rule:nonzero;fill:rgb(94.901961%,94.901961%,94.901961%);fill-opacity:1;" d="M 74.398438 73.398438 C 79.199219 72.199219 82.734375 69.601562 85 65.601562 L 90.199219 53 L 94.398438 39.800781 C 96.398438 34.332031 98.734375 30.535156 101.398438 28.398438 C 103.535156 29.867188 104.601562 33.132812 104.601562 38.199219 L 104.199219 49.398438 L 103.199219 64.601562 C 103.066406 71.132812 104.734375 75.535156 108.199219 77.800781 L 74.398438 73.398438 "/>
<path style=" stroke:none;fill-rule:nonzero;fill:rgb(70.196078%,70.196078%,70.196078%);fill-opacity:1;" d="M 103.199219 27.601562 C 107.066406 31.601562 107.933594 39.867188 105.800781 52.398438 C 103.667969 64.667969 105 72.734375 109.800781 76.601562 C 110.601562 77.265625 110.464844 77.933594 109.398438 78.601562 L 106.800781 78.800781 C 104 76.535156 102.265625 73.332031 101.601562 69.199219 C 101.066406 66.535156 101.066406 62.734375 101.601562 57.800781 L 103.199219 42.800781 C 103.332031 37.734375 102.667969 33.933594 101.199219 31.398438 C 98.265625 35.535156 95.066406 43.132812 91.601562 54.199219 C 88.132812 65.535156 82.464844 72.332031 74.601562 74.601562 L 72.601562 74 C 72.332031 73.066406 72.800781 72.398438 74 72 C 80.667969 70 85.667969 63.398438 89 52.199219 C 93.132812 38.867188 96.734375 30.734375 99.800781 27.800781 L 103.199219 27.601562 "/>
<path style=" stroke:none;fill-rule:nonzero;fill:rgb(80%,80%,80%);fill-opacity:1;" d="M 212.398438 133.601562 C 208.132812 120.933594 208.398438 111.734375 213.199219 106 C 220.667969 109.332031 227.199219 113.867188 232.800781 119.601562 C 238.800781 125.734375 242.734375 132.199219 244.601562 139 C 247.132812 147.535156 248.535156 159.332031 248.800781 174.398438 C 239.867188 170.933594 232.332031 165.601562 226.199219 158.398438 C 220.601562 152.398438 216 144.132812 212.398438 133.601562 "/>
</g>
</svg>
