<?xml version="1.0" encoding="UTF-8"?>
<svg xmlns="http://www.w3.org/2000/svg" xmlns:xlink="http://www.w3.org/1999/xlink" width="324pt" height="364pt" viewBox="0 0 324 364" version="1.1">
<g id="surface1">
<path style=" stroke:none;fill-rule:nonzero;fill:rgb(100%,100%,100%);fill-opacity:1;" d="M 198.601562 200.800781 L 198.601562 352.800781 L 128.398438 352.800781 L 128.398438 200.800781 L 198.601562 200.800781 "/>
<path style=" stroke:none;fill-rule:nonzero;fill:rgb(0%,0%,0%);fill-opacity:1;" d="M 196 203 C 195.332031 201.800781 194.933594 201.800781 194.800781 203 L 196 203 M 132.199219 203 L 132.199219 350.601562 L 194.800781 350.601562 L 194.800781 203 L 132.199219 203 M 126.601562 199.398438 L 129.800781 198.601562 L 200.199219 198.601562 C 201.800781 198.601562 202.601562 199 202.601562 199.800781 L 202.601562 351.601562 C 202.601562 353.199219 201.332031 354.265625 198.800781 354.800781 L 195.601562 355 L 126.800781 355 C 125.332031 355 124.601562 354.601562 124.601562 353.800781 L 124.601562 202 C 124.601562 200.933594 125.265625 200.066406 126.601562 199.398438 "/>
<path style=" stroke:none;fill-rule:nonzero;fill:rgb(80%,80%,80%);fill-opacity:1;" d="M 193.800781 207 L 193.800781 359 L 123.601562 359 L 123.601562 207 L 193.800781 207 "/>
<path style=" stroke:none;fill-rule:nonzero;fill:rgb(0%,0%,0%);fill-opacity:1;" d="M 121.800781 206 L 125.199219 205.398438 L 195.398438 205.398438 C 196.867188 205.398438 197.601562 205.601562 197.601562 206 L 197.601562 358 C 197.601562 359.199219 196.332031 360.066406 193.800781 360.601562 L 121.800781 360.601562 L 119.601562 360 L 119.601562 208.199219 C 119.601562 207.265625 120.332031 206.535156 121.800781 206 M 127.398438 208.800781 L 127.398438 357.199219 L 190 357.199219 L 190 210.199219 L 190.199219 208.800781 L 127.398438 208.800781 "/>
<path style=" stroke:none;fill-rule:nonzero;fill:rgb(100%,100%,72.156863%);fill-opacity:1;" d="M 212.800781 231.800781 C 211.066406 243 210 252.464844 209.601562 260.199219 L 210 270.601562 L 209.601562 281 C 198.933594 280.464844 190.867188 279.265625 185.398438 277.398438 C 187.933594 270.332031 189.332031 258 189.601562 240.398438 C 189.734375 224 191.734375 211.800781 195.601562 203.800781 C 197.199219 200.601562 200.332031 199.132812 205 199.398438 L 217.398438 202 L 217.199219 203.800781 L 212.800781 231.800781 "/>
<path style=" stroke:none;fill-rule:nonzero;fill:rgb(92.156863%,81.960784%,5.882353%);fill-opacity:1;" d="M 218.199219 203.601562 C 215.265625 221.066406 213.265625 234.199219 212.199219 243 C 211.667969 247.535156 211.332031 253.867188 211.199219 262 L 210.601562 280.800781 C 210.601562 281.199219 210.066406 281.398438 209 281.398438 C 199.800781 281 191.667969 279.800781 184.601562 277.800781 L 184.398438 277.601562 C 186.265625 271.464844 187.464844 264.132812 188 255.601562 L 188.800781 233 L 189.800781 217.800781 C 190.601562 211.667969 192.199219 207 194.601562 203.800781 C 197.265625 200.464844 200.933594 198.867188 205.601562 199 L 218.199219 201.601562 L 218.398438 201.800781 L 218.199219 203.601562 M 206.199219 200 L 194.601562 208.199219 L 192 217.800781 C 191.199219 223.265625 190.667969 231.535156 190.398438 242.601562 L 190 258 L 188 270.601562 C 188 275.667969 190.535156 278.535156 195.601562 279.199219 L 205.601562 280.199219 C 208.535156 275.667969 209.535156 270.800781 208.601562 265.601562 L 209.601562 248.800781 C 210.800781 238.800781 213 223.867188 216.199219 204 C 213.667969 201.066406 210.332031 199.734375 206.199219 200 "/>
<path style=" stroke:none;fill-rule:nonzero;fill:rgb(45.882353%,30.196078%,14.117647%);fill-opacity:1;" d="M 188.199219 271.398438 L 209.398438 274.398438 C 211.535156 281.199219 212 285.265625 210.800781 286.601562 L 206.601562 287.398438 L 201.800781 286.800781 L 190.601562 287.800781 L 179.800781 286.800781 L 188.199219 271.398438 "/>
<path style=" stroke:none;fill-rule:nonzero;fill:rgb(38.039216%,22.352941%,9.019608%);fill-opacity:1;" d="M 188.601562 270.800781 L 209.601562 273.800781 C 210 273.800781 210.199219 273.933594 210.199219 274.199219 L 212.398438 281.601562 C 212.933594 285.199219 212.066406 287.265625 209.800781 287.800781 C 208.464844 288.332031 206.734375 288.332031 204.601562 287.800781 L 194.398438 288 L 186.800781 288.601562 L 179.199219 287.398438 C 178.667969 287.398438 178.535156 287.199219 178.800781 286.800781 L 187.398438 271.398438 C 187.667969 270.734375 188.066406 270.535156 188.601562 270.800781 M 188.601562 272.800781 L 181 286.398438 L 189.199219 287.199219 L 198.199219 286.199219 L 205.398438 286.398438 C 208.867188 286.398438 210.535156 285.667969 210.398438 284.199219 L 208.601562 275.199219 L 207.601562 275 L 188.800781 272.398438 L 188.601562 272.800781 "/>
<path style=" stroke:none;fill-rule:nonzero;fill:rgb(100%,100%,72.156863%);fill-opacity:1;" d="M 227 151.601562 C 227.535156 142 232.867188 140.066406 243 145.800781 C 252.464844 151.265625 258.464844 157.132812 261 163.398438 L 268 174.398438 C 271.601562 180 273.265625 183.265625 273 184.199219 C 273.398438 191 271.332031 191.265625 266.800781 185 C 263.601562 180.332031 261.132812 175.933594 259.398438 171.800781 C 258.066406 168.332031 256.132812 165.332031 253.601562 162.800781 C 250.667969 159.464844 247.601562 157.601562 244.398438 157.199219 L 233 159 C 228.734375 159.265625 226.734375 156.800781 227 151.601562 "/>
<path style=" stroke:none;fill-rule:nonzero;fill:rgb(92.156863%,81.960784%,5.882353%);fill-opacity:1;" d="M 232.398438 142.199219 C 237.199219 141 242.933594 143.132812 249.601562 148.601562 C 255.332031 153.132812 259.398438 157.933594 261.800781 163 L 262.199219 163.398438 L 268.800781 173 C 272 177.398438 273.734375 180.933594 274 183.601562 C 274 188.667969 272.933594 190.867188 270.800781 190.199219 C 268.800781 189.398438 266.800781 187.398438 264.800781 184.199219 L 260.601562 176.199219 C 256.867188 169.132812 254 164.667969 252 162.800781 C 248 158.933594 243.066406 157.667969 237.199219 159 L 230 159.398438 C 227.734375 158.734375 226.398438 157 226 154.199219 C 225.601562 151.535156 225.933594 149.066406 227 146.800781 C 228.199219 144.398438 230 142.867188 232.398438 142.199219 M 260 163.398438 C 257.601562 158.601562 252.132812 153.464844 243.601562 148 C 234.132812 141.601562 229 142.132812 228.199219 149.601562 C 227.667969 154.398438 229.132812 157 232.601562 157.398438 L 243.199219 156.398438 C 247.066406 156.132812 250.535156 157.800781 253.601562 161.398438 C 255.867188 163.933594 258.535156 168.132812 261.601562 174 C 264.535156 180 267.132812 184.265625 269.398438 186.800781 L 272 187 C 272.398438 185.667969 272.332031 184.332031 271.800781 183 L 267.601562 175.800781 L 260.199219 164 L 260 163.601562 L 260 163.398438 "/>
<path style=" stroke:none;fill-rule:nonzero;fill:rgb(97.647059%,92.54902%,13.72549%);fill-opacity:1;" d="M 148.398438 48.199219 C 150.667969 48.734375 153.066406 50.332031 155.601562 53 C 158 55.535156 159.601562 58 160.398438 60.398438 C 161.199219 62.398438 161.601562 66.734375 161.601562 73.398438 L 161.800781 89.800781 L 161.601562 96 L 158.800781 106.199219 C 157.734375 110.199219 158 113.535156 159.601562 116.199219 C 160.800781 118.066406 164.800781 120.398438 171.601562 123.199219 C 178.933594 126.132812 183.199219 128.132812 184.398438 129.199219 C 190.265625 134.535156 192.734375 139.601562 191.800781 144.398438 C 188.734375 143.332031 186.800781 144.199219 186 147 L 183.601562 154.398438 C 181.734375 156.800781 179.398438 158.132812 176.601562 158.398438 L 167.601562 158.398438 L 151.199219 158.199219 C 144.667969 157.667969 139.464844 156.132812 135.601562 153.601562 C 133.464844 152.265625 131.667969 150.398438 130.199219 148 L 126.398438 141 L 119.800781 135.199219 C 116.601562 132.933594 114.398438 131 113.199219 129.398438 C 111.199219 126.734375 110.265625 123.734375 110.398438 120.398438 C 110.398438 118 111 114.734375 112.199219 110.601562 L 114.601562 103.800781 L 116.199219 96.800781 C 116.464844 92 115.332031 85.667969 112.800781 77.800781 L 111.199219 72.398438 C 110.398438 70.398438 109.332031 68.867188 108 67.800781 C 103.867188 64.332031 98.535156 63.535156 92 65.398438 L 76 71.601562 L 71.601562 61 C 69.734375 56.199219 69.332031 52.601562 70.398438 50.199219 C 73.867188 42.464844 82.800781 36.398438 97.199219 32 L 113.398438 28.601562 L 123.398438 29.199219 C 126.066406 30.132812 128.867188 32 131.800781 34.800781 C 134.066406 36.800781 135.464844 39.132812 136 41.800781 L 136.800781 50 L 142.398438 48.601562 L 148.398438 48.199219 "/>
<path style=" stroke:none;fill-rule:nonzero;fill:rgb(97.647059%,81.960784%,13.72549%);fill-opacity:1;" d="M 165.800781 89 L 163.601562 100.199219 C 162.265625 105.800781 161.734375 109.132812 162 110.199219 C 163.199219 113.800781 165.199219 116.535156 168 118.398438 L 177.398438 122.601562 C 183.265625 125 187.535156 127.535156 190.199219 130.199219 C 193.535156 133.535156 195.398438 137.933594 195.800781 143.398438 C 195.933594 144.332031 194.933594 145.066406 192.800781 145.601562 L 189 145.800781 C 191.667969 146.199219 190.667969 148.535156 186 152.800781 C 181.464844 157.066406 178.132812 159.398438 176 159.800781 L 156.199219 161 C 147.800781 160.734375 141.332031 159.464844 136.800781 157.199219 C 133.066406 155.464844 129.464844 152.199219 126 147.398438 C 122.132812 141.933594 118.867188 138.332031 116.199219 136.601562 C 109.132812 131.265625 105.867188 126.199219 106.398438 121.398438 C 106.933594 117.265625 108.332031 111.265625 110.601562 103.398438 C 112.199219 96.332031 112.265625 90.199219 110.800781 85 C 108.132812 76.066406 106 70.800781 104.398438 69.199219 C 100.535156 65.464844 93.464844 65.800781 83.199219 70.199219 L 77.398438 72.398438 L 74.800781 73.199219 L 72.199219 72.601562 L 67 56.398438 C 66.601562 51.601562 68.800781 46.800781 73.601562 42 C 78.265625 37.332031 86 33.601562 96.800781 30.800781 C 124.667969 23.066406 139.265625 28.800781 140.601562 48 C 151 46.535156 158 49.667969 161.601562 57.398438 C 164.132812 62.601562 165.535156 73.066406 165.800781 88.800781 L 165.800781 89 M 156.601562 63.398438 C 154.066406 52.734375 147.535156 48.601562 137 51 L 134.800781 51.398438 L 133 51 C 132.464844 40.066406 127.265625 33.464844 117.398438 31.199219 C 108.734375 29.332031 99.265625 31.066406 89 36.398438 C 79 41.601562 73.933594 46.933594 73.800781 52.398438 L 79.398438 69 L 93.398438 63.601562 C 102.734375 61.066406 108.933594 62.132812 112 66.800781 C 114.800781 70.933594 117 75.601562 118.601562 80.800781 C 120.464844 86.933594 120.933594 92.066406 120 96.199219 C 116.933594 105.535156 115.265625 112.332031 115 116.601562 C 114.332031 123.535156 117.199219 129.265625 123.601562 133.800781 L 134.800781 146.800781 C 138.933594 152.132812 143.601562 155.199219 148.800781 156 L 167.601562 157.601562 C 175.332031 157.066406 180.066406 154.199219 181.800781 149 C 182.867188 146.066406 184.867188 144.199219 187.800781 143.398438 C 186.601562 136.199219 182.867188 131.332031 176.601562 128.800781 C 165.933594 124.265625 159.800781 121.199219 158.199219 119.601562 C 155.132812 116.535156 154.132812 111.933594 155.199219 105.800781 L 158 90.800781 C 157.734375 75.332031 157.265625 66.199219 156.601562 63.398438 "/>
<path style=" stroke:none;fill-rule:nonzero;fill:rgb(100%,100%,72.156863%);fill-opacity:1;" d="M 131.398438 45.800781 C 135 43.132812 137.332031 41.867188 138.398438 42 C 140.667969 42.398438 142.132812 44.332031 142.800781 47.800781 C 143.464844 51 143.332031 53.667969 142.398438 55.800781 L 137.398438 61.601562 C 135.265625 63.601562 134.601562 65.734375 135.398438 68 L 138.199219 78.199219 C 138.332031 82.867188 137.734375 88.734375 136.398438 95.800781 L 133.398438 113.398438 C 132.867188 120.066406 133.066406 124.933594 134 128 L 140.800781 143.398438 C 141.601562 145 142.535156 145.933594 143.601562 146.199219 L 147.800781 146.398438 L 154 147 L 160 146.800781 L 168 143.800781 C 171.332031 142.464844 174.066406 141.601562 176.199219 141.199219 L 185.199219 140 L 194.199219 138.199219 L 210.398438 136.398438 C 216.398438 136.535156 221.800781 137.464844 226.601562 139.199219 C 234.066406 141.867188 240.066406 145.535156 244.601562 150.199219 C 248.734375 154.601562 250.800781 159.464844 250.800781 164.800781 C 250.667969 168.398438 249.734375 174.199219 248 182.199219 L 243.199219 199.601562 L 237.800781 210.800781 C 235.398438 215.464844 234.132812 219.398438 234 222.601562 L 233.800781 247.199219 L 233 271.800781 L 232.601562 277.398438 C 232.332031 279.933594 231.667969 281.332031 230.601562 281.601562 L 226.601562 281.601562 L 219.800781 281.199219 L 214.398438 280.199219 L 212.800781 278.398438 L 211.800781 273.800781 C 210.464844 263.800781 209.535156 250.464844 209 233.800781 L 208.398438 221.800781 L 206 210 C 199.464844 214.535156 188.066406 215.800781 171.800781 213.800781 L 135.199219 209.800781 C 134.933594 209.800781 134.867188 213.265625 135 220.199219 L 135.199219 232 L 134.398438 237.601562 L 133.601562 243.398438 L 134.398438 247.199219 L 133.800781 251.800781 C 133.535156 253 133.464844 254.667969 133.601562 256.800781 L 133.800781 261.800781 L 133.398438 272 L 133.601562 276.601562 C 133.066406 277.535156 132.132812 278 130.800781 278 L 127.199219 277.601562 L 121 277.601562 L 113.800781 278.800781 C 113.667969 275.066406 114.066406 269.667969 115 262.601562 L 115.601562 254.601562 C 115.734375 251.265625 115.398438 248.667969 114.601562 246.800781 L 111.800781 242.398438 L 111.800781 240 L 113.199219 238 C 114.132812 236.132812 114.933594 230.933594 115.601562 222.398438 C 116.265625 213.464844 116 208.933594 114.800781 208.800781 L 107 207 C 105.800781 207 105.332031 209.535156 105.601562 214.601562 C 106 219.535156 105.332031 224.933594 103.601562 230.800781 L 98 246.398438 L 96.398438 259.601562 C 95.601562 266.265625 94.132812 270.132812 92 271.199219 L 84.199219 271.601562 L 76.199219 270.601562 L 77 258.601562 C 77.398438 253.667969 78.199219 249.800781 79.398438 247 L 81.601562 242 C 82.132812 240.265625 82 238.535156 81.199219 236.800781 C 80.265625 234.398438 79.933594 232.535156 80.199219 231.199219 C 80.332031 230.132812 81.132812 228.332031 82.601562 225.800781 C 84.066406 223.265625 84.867188 220.464844 85 217.398438 L 84.800781 208.601562 L 84 191 C 83.734375 182.601562 84.199219 176.933594 85.398438 174 L 90 162.199219 C 91.734375 157.398438 93.667969 153.535156 95.800781 150.601562 L 99 144.800781 C 100.066406 141.734375 99.667969 140 97.800781 139.601562 L 80.199219 136.601562 L 72.398438 133.601562 L 64.601562 131 L 58.800781 132 L 52.398438 131.800781 C 51.601562 131.800781 50.199219 132.265625 48.199219 133.199219 L 44 134 C 41.867188 133.464844 39.800781 131.464844 37.800781 128 C 35.800781 124.265625 35.332031 121.199219 36.398438 118.800781 C 32.535156 118.535156 30 116 28.800781 111.199219 C 27.734375 106.535156 28.132812 102.933594 30 100.398438 C 30.667969 99.464844 32.464844 98.867188 35.398438 98.601562 L 41.398438 97.398438 C 42.867188 96.464844 45 95.667969 47.800781 95 L 54.601562 93.199219 C 59 91.734375 62.265625 88.800781 64.398438 84.398438 C 65.199219 82.667969 65.332031 80.464844 64.800781 77.800781 C 64.132812 74.464844 63.933594 72.066406 64.199219 70.601562 C 64.734375 67.535156 66.800781 64.867188 70.398438 62.601562 L 80 58.199219 C 83.464844 56.464844 87.132812 55.398438 91 55 L 108.800781 53.601562 L 117 53.601562 L 124.601562 52.199219 L 131.398438 45.800781 "/>
<path style=" stroke:none;fill-rule:nonzero;fill:rgb(92.156863%,81.960784%,5.882353%);fill-opacity:1;" d="M 142.601562 44.199219 C 146.464844 47.398438 146.667969 51.398438 143.199219 56.199219 C 141.066406 59.132812 139.800781 62.667969 139.398438 66.800781 L 139.199219 78.199219 L 137.601562 92.199219 L 135.398438 106.199219 C 133 123.667969 135.132812 135.933594 141.800781 143 C 145.265625 146.734375 150.734375 147.800781 158.199219 146.199219 L 176.199219 140.601562 C 205.933594 132.066406 228.933594 135.132812 245.199219 149.800781 L 245.398438 149.800781 L 245.800781 150.199219 C 249.933594 155.800781 251.734375 162.464844 251.199219 170.199219 C 250.933594 174.601562 249.332031 181.867188 246.398438 192 L 239.800781 207.199219 C 236.734375 213.601562 235.132812 218.734375 235 222.601562 L 234.800781 257.800781 C 235.734375 274.066406 234.332031 282.199219 230.601562 282.199219 L 217.800781 282.199219 C 213.800781 281.398438 211.464844 278.734375 210.800781 274.199219 C 209.464844 263.800781 208.601562 252.601562 208.199219 240.601562 C 207.800781 220.066406 205.933594 210.734375 202.601562 212.601562 C 197.535156 215.398438 190.535156 216.535156 181.601562 216 L 160.199219 213 L 150 210.800781 L 171 213.601562 C 185.667969 215.464844 197.199219 214.066406 205.601562 209.398438 L 207 209.601562 C 208.464844 216.132812 209.398438 224.535156 209.800781 234.800781 L 211.398438 260.199219 L 212 269.398438 C 212.265625 273.132812 212.867188 276.066406 213.800781 278.199219 C 220.066406 282.066406 226.066406 281.066406 231.800781 275.199219 L 233 250.800781 L 232.800781 233.601562 C 232.800781 227.066406 233.265625 221.398438 234.199219 216.601562 C 234.734375 214.464844 236 211.601562 238 208 L 242.199219 199.398438 C 245.933594 187.398438 248.132812 179.132812 248.800781 174.601562 C 250.132812 164.867188 248.464844 156.933594 243.800781 150.800781 C 234.199219 142.132812 221.667969 137.667969 206.199219 137.398438 C 193 137.132812 179.535156 139.800781 165.800781 145.398438 L 154.199219 148.199219 C 148.734375 148.867188 144.933594 148.398438 142.800781 146.800781 C 139.464844 144.535156 136.667969 140.199219 134.398438 133.800781 C 132.398438 127.933594 131.601562 122.800781 132 118.398438 C 132.265625 115.332031 133.199219 109.867188 134.800781 102 L 137 85.398438 C 137.132812 82.464844 136.734375 78.867188 135.800781 74.601562 C 134.867188 69.933594 134.398438 66.535156 134.398438 64.398438 C 134.398438 62.265625 135.800781 61.132812 138.601562 61 C 141.398438 60.867188 142.601562 58 142.199219 52.398438 C 141.667969 44.800781 138.933594 42.464844 134 45.398438 L 125 52.601562 C 122.867188 53.667969 120.199219 54.199219 117 54.199219 L 108.800781 54.199219 L 92.601562 55.800781 C 86.464844 56.734375 81.199219 58.265625 76.800781 60.398438 C 71.601562 62.800781 68.332031 68.132812 67 76.398438 C 65.535156 84.667969 62.867188 89.800781 59 91.800781 C 53.667969 94.601562 47.867188 96.734375 41.601562 98.199219 C 36.265625 99.535156 32.601562 102.464844 30.601562 107 C 28.332031 112.066406 30.398438 115.800781 36.800781 118.199219 C 37.464844 118.199219 37.601562 118.398438 37.199219 118.800781 C 36.132812 127.066406 39.199219 131.332031 46.398438 131.601562 L 65 130.398438 C 75.265625 131.601562 86.398438 134.464844 98.398438 139 C 101.601562 140.066406 101.535156 143.199219 98.199219 148.398438 C 89.132812 163.332031 84.734375 175.867188 85 186 L 86.601562 203.199219 C 87.265625 210.800781 86.933594 216.464844 85.601562 220.199219 C 84.535156 223.132812 83.867188 226.734375 83.601562 231 L 82.601562 242 C 82.199219 245.867188 81.800781 247.734375 81.398438 247.601562 L 80.199219 245.199219 C 79.398438 242.667969 78.601562 247.066406 77.800781 258.398438 C 76.601562 262.933594 77.332031 266.867188 80 270.199219 C 86.535156 272.464844 91.601562 269.667969 95.199219 261.800781 L 96.601562 249.199219 C 97.265625 245.601562 98.933594 240.398438 101.601562 233.601562 C 102.800781 230 103.464844 226 103.601562 221.601562 L 104.601562 210 C 104.867188 207.601562 106.332031 206.199219 109 205.800781 C 111.535156 205.265625 113.800781 206.132812 115.800781 208.398438 C 118.601562 211.601562 118.734375 217.800781 116.199219 227 C 113.667969 236.601562 113.398438 243.066406 115.398438 246.398438 C 116.066406 247.464844 116.132812 253.535156 115.601562 264.601562 C 115.066406 273.667969 116.800781 277.800781 120.800781 277 C 126.535156 275.667969 129.933594 274.398438 131 273.199219 C 132.332031 271.734375 132.933594 268 132.800781 262 L 133.601562 246.199219 L 134.199219 230.601562 L 133.601562 220.199219 C 133.332031 215.933594 133.535156 212.464844 134.199219 209.800781 L 135.199219 209 L 144.199219 210.199219 C 138.464844 209.800781 135.667969 211.800781 135.800781 216.199219 C 136.464844 223.398438 136.601562 228.601562 136.199219 231.800781 L 135 254.199219 L 134.398438 276.601562 L 134 277.199219 C 131.464844 278.398438 128.132812 279.066406 124 279.199219 L 113.601562 279.601562 L 112.800781 279 L 113.398438 261 C 113.265625 254.867188 112.398438 248.800781 110.800781 242.800781 C 110.535156 241.601562 110.800781 240.066406 111.601562 238.199219 L 113.199219 234 L 115.199219 220.398438 C 115.601562 213.332031 114.199219 209.535156 111 209 C 107.800781 208.464844 106.199219 209.667969 106.199219 212.601562 C 106.867188 216.601562 107 219.535156 106.601562 221.398438 L 102 237 C 99.734375 243.667969 98.398438 248.933594 98 252.800781 C 97.464844 259.867188 96.398438 265.332031 94.800781 269.199219 C 93.734375 271.867188 90.800781 273.066406 86 272.800781 L 75.800781 271.199219 L 75.199219 270.601562 C 75.867188 257 77.332031 243.398438 79.601562 229.800781 L 82.398438 217.601562 L 83.800781 205.199219 L 83 186.199219 C 83.132812 179.933594 84.667969 173.332031 87.601562 166.398438 C 89.199219 162.535156 92.066406 156.464844 96.199219 148.199219 C 100.199219 139.933594 84.265625 135.132812 48.398438 133.800781 L 41 133.199219 L 36 126.398438 L 31.398438 119 C 29.265625 115.535156 28.066406 113 27.800781 111.398438 C 27.398438 107.800781 27.398438 105.132812 27.800781 103.398438 C 28.464844 101.265625 30.132812 99.535156 32.800781 98.199219 C 37.332031 96.066406 44.199219 93.464844 53.398438 90.398438 C 60.199219 86.667969 63.464844 80.066406 63.199219 70.601562 C 63.066406 66.066406 68.535156 61.734375 79.601562 57.601562 C 83.066406 56.265625 91.933594 55 106.199219 53.800781 C 117.535156 52.867188 125.667969 50.066406 130.601562 45.398438 C 134.867188 41.535156 138.867188 41.132812 142.601562 44.199219 "/>
<path style=" stroke:none;fill-rule:nonzero;fill:rgb(0%,0%,0%);fill-opacity:1;" d="M 104.199219 80 C 104.199219 82.265625 103.398438 84.265625 101.800781 86 C 100.199219 87.601562 98.199219 88.398438 95.800781 88.398438 C 93.535156 88.398438 91.535156 87.601562 89.800781 86 C 88.199219 84.265625 87.398438 82.265625 87.398438 80 C 87.398438 77.734375 88.199219 75.734375 89.800781 74 C 91.535156 72.398438 93.535156 71.601562 95.800781 71.601562 C 98.199219 71.601562 100.199219 72.398438 101.800781 74 C 103.398438 75.734375 104.199219 77.734375 104.199219 80 "/>
<path style=" stroke:none;fill-rule:nonzero;fill:rgb(100%,100%,72.156863%);fill-opacity:1;" d="M 35 118.601562 C 37.667969 117.398438 41.265625 116.398438 45.800781 115.601562 L 56.800781 113.199219 L 74.398438 111.398438 L 35 118.601562 "/>
<path style=" stroke:none;fill-rule:nonzero;fill:rgb(92.156863%,81.960784%,5.882353%);fill-opacity:1;" d="M 34.199219 119 L 34.601562 118.199219 C 46.867188 113.265625 60.265625 110.800781 74.800781 110.800781 C 75.734375 110.800781 75.535156 111.199219 74.199219 112 C 59.535156 112.265625 46.667969 114.667969 35.601562 119.199219 L 34.199219 119 "/>
<path style=" stroke:none;fill-rule:nonzero;fill:rgb(45.882353%,30.196078%,14.117647%);fill-opacity:1;" d="M 67.199219 93 C 71.199219 98.734375 74.066406 104.265625 75.800781 109.601562 C 78.199219 117.332031 78.734375 125.867188 77.398438 135.199219 L 63.601562 132.199219 C 65.464844 127.667969 66.265625 121.398438 66 113.398438 C 65.867188 110.464844 64.601562 107.066406 62.199219 103.199219 L 56 94 L 61.199219 88.601562 C 62.535156 88.332031 63.734375 88.667969 64.800781 89.601562 L 67.199219 93 "/>
<path style=" stroke:none;fill-rule:nonzero;fill:rgb(38.039216%,22.352941%,9.019608%);fill-opacity:1;" d="M 61.199219 89.601562 L 58 92.800781 C 57.464844 93.464844 57.800781 94.734375 59 96.601562 L 61.601562 100.199219 C 66.265625 107.800781 67.867188 115.800781 66.398438 124.199219 L 65.199219 128.800781 C 64.800781 130.398438 64.933594 131.265625 65.601562 131.398438 L 74.199219 133.199219 L 77.601562 133.398438 L 77 128.601562 C 77.132812 122.464844 76.398438 116.199219 74.800781 109.800781 C 72.398438 102.734375 69.199219 96.734375 65.199219 91.800781 C 63.734375 89.933594 62.398438 89.199219 61.199219 89.601562 M 55.199219 93.800781 C 58.800781 86.601562 63.132812 86.132812 68.199219 92.398438 C 71.265625 96.398438 74.132812 102 76.800781 109.199219 L 76.800781 109.601562 C 78.933594 117.464844 79.464844 125.933594 78.398438 135 L 77.800781 135.800781 L 76.800781 135.800781 C 75.199219 134.867188 73 134.132812 70.199219 133.601562 L 63.398438 132.800781 L 62.800781 132.800781 L 62.601562 132 C 65.667969 123.199219 66.332031 116.199219 64.601562 111 C 63.535156 107.800781 60.398438 102.265625 55.199219 94.398438 L 55.199219 93.800781 "/>
<path style=" stroke:none;fill-rule:nonzero;fill:rgb(45.882353%,30.196078%,14.117647%);fill-opacity:1;" d="M 111.199219 289.398438 L 113 279.601562 L 114 274.199219 C 114.667969 272.332031 115.867188 271.332031 117.601562 271.199219 L 124.199219 270.398438 L 130.199219 270.199219 L 133 269.199219 C 133.800781 269.464844 134.332031 271.066406 134.601562 274 L 134.800781 279.601562 L 135.601562 284 C 135.867188 286 135.667969 287.398438 135 288.199219 L 131.601562 288.800781 L 126.800781 289.199219 L 125.601562 289.398438 L 119 289.199219 L 111.199219 289.398438 "/>
<path style=" stroke:none;fill-rule:nonzero;fill:rgb(38.039216%,22.352941%,9.019608%);fill-opacity:1;" d="M 113 290.199219 L 110.398438 289.800781 L 110.199219 289.398438 L 111.601562 279.398438 C 112.265625 275.132812 113.734375 272.332031 116 271 L 126 270 L 129.800781 269.199219 L 134 269 C 135.066406 269.535156 135.734375 271.601562 136 275.199219 L 136.398438 282.601562 C 136.933594 285.933594 136.265625 288 134.398438 288.800781 L 126.800781 289.800781 L 126.601562 289.800781 L 121.199219 290 L 115.601562 290 L 113 290.199219 M 113.398438 284 L 112 288.800781 L 127 288.601562 L 127.398438 288.601562 L 132 288.199219 C 133.734375 288.332031 134.667969 287.601562 134.800781 286 L 134.199219 282 L 133.800781 276.199219 L 133.398438 272.601562 C 133.132812 270.734375 132.535156 269.933594 131.601562 270.199219 L 125.398438 271 C 119.398438 271 116 271.800781 115.199219 273.398438 L 114 278.398438 L 113.398438 284 "/>
<path style=" stroke:none;fill-rule:nonzero;fill:rgb(97.647059%,92.54902%,13.72549%);fill-opacity:1;" d="M 265.601562 180.199219 C 265.734375 174.734375 267.601562 172.464844 271.199219 173.398438 C 273.066406 173.800781 276.332031 175.734375 281 179.199219 L 285.601562 183.601562 L 288.601562 188.199219 L 290.398438 189.800781 L 292.199219 191.800781 L 288.398438 190.601562 L 290 192.800781 L 291.398438 194.800781 L 288.800781 194 L 284.800781 192.601562 L 286.800781 196.199219 L 289 201 L 282.601562 198.601562 L 285.199219 205.601562 L 281.398438 204 L 283.601562 209.199219 L 285.398438 212.398438 L 280.199219 207.601562 L 275 202.800781 C 268.734375 196.132812 265.601562 189.199219 265.601562 182 L 265.601562 180.199219 "/>
<path style="fill:none;stroke-width:1;stroke-linecap:butt;stroke-linejoin:miter;stroke:rgb(97.647059%,81.960784%,13.72549%);stroke-opacity:1;stroke-miterlimit:4;" d="M 66.750391 45.9 C 66.750391 47.699805 67.533594 49.433203 69.1 51.100195 L 70.399805 52.300391 L 71.699609 53.499609 L 71.250391 52.699805 L 70.699609 51.4 L 71.649805 51.800391 L 71.000391 50.050391 L 72.6 50.65 L 72.050195 49.449805 L 71.550195 48.550391 L 72.550195 48.9 L 73.199609 49.100195 L 72.85 48.600195 L 72.449609 48.050391 L 73.399805 48.350195 L 72.949609 47.850195 L 72.500391 47.449805 L 71.750391 46.300391 L 70.6 45.199805 C 69.433008 44.333594 68.616602 43.850195 68.149805 43.749609 C 67.250391 43.516211 66.783594 44.083594 66.750391 45.449805 Z M 66.750391 45.9 " transform="matrix(4,0,0,4,-1.4,-1.6)"/>
<path style=" stroke:none;fill-rule:nonzero;fill:rgb(92.156863%,81.960784%,5.882353%);fill-opacity:1;" d="M 135 53.199219 L 135.601562 53.398438 C 135.332031 58.332031 134.867188 61.398438 134.199219 62.601562 L 132.398438 63 L 133.601562 54.398438 C 130.933594 55.199219 129 56.132812 127.800781 57.199219 L 126.601562 57.601562 L 126 57.199219 C 127.734375 55.734375 130.464844 54.464844 134.199219 53.398438 L 135 53.199219 "/>
<path style=" stroke:none;fill-rule:nonzero;fill:rgb(45.882353%,30.196078%,14.117647%);fill-opacity:1;" d="M 93 287.800781 C 76.734375 288.867188 66.132812 286.601562 61.199219 281 L 65.800781 276.398438 L 70 271.398438 L 75.398438 266.800781 L 93.800781 269.800781 C 94.066406 277.398438 93.800781 283.398438 93 287.800781 "/>
<path style=" stroke:none;fill-rule:nonzero;fill:rgb(38.039216%,22.352941%,9.019608%);fill-opacity:1;" d="M 94.800781 269.601562 C 95.066406 276.265625 94.734375 282.265625 93.800781 287.601562 L 92.601562 288 L 92.199219 288.199219 C 76.332031 289.132812 65.734375 286.867188 60.398438 281.398438 L 60.398438 281 L 67.800781 273 L 74.199219 267.199219 L 76.398438 266.398438 L 94.601562 269.398438 L 94.800781 269.601562 M 91.398438 270 L 75.800781 267.398438 L 74.199219 268.601562 C 70.867188 271.398438 68.535156 273.734375 67.199219 275.601562 L 63.601562 279.800781 C 62.535156 280.601562 62.601562 281.464844 63.800781 282.398438 L 66.398438 284 C 72.800781 286.933594 81.398438 288.132812 92.199219 287.601562 L 92.800781 273.800781 L 93 271 L 91.398438 270 "/>
<path style=" stroke:none;fill-rule:nonzero;fill:rgb(45.882353%,30.196078%,14.117647%);fill-opacity:1;" d="M 209.601562 292.199219 C 204.132812 291.265625 201.535156 290.535156 201.800781 290 L 206.601562 284 L 211.800781 278.601562 C 213.265625 277.535156 215 276.933594 217 276.800781 L 222.800781 276.601562 L 227 276.398438 L 230.800781 277.199219 L 232.199219 278.800781 L 232.199219 280.800781 L 233 286.199219 L 234 291.601562 L 229.199219 290.800781 L 225.398438 291.800781 L 212.601562 292.800781 L 209.601562 292.199219 "/>
<path style=" stroke:none;fill-rule:nonzero;fill:rgb(38.039216%,22.352941%,9.019608%);fill-opacity:1;" d="M 201 289.800781 L 205.800781 283.800781 L 211.199219 278.199219 C 213.601562 276.734375 216.933594 276 221.199219 276 L 227.398438 275.800781 C 229.667969 275.933594 231.464844 276.601562 232.800781 277.800781 C 233.601562 278.464844 233.867188 280.601562 233.601562 284.199219 L 235 291.398438 L 234.398438 292.199219 L 233.398438 292.199219 C 231.535156 291.667969 229.132812 291.667969 226.199219 292.199219 L 218.800781 293.199219 L 209 292.800781 L 204.800781 292.199219 C 202.667969 291.800781 201.398438 291.199219 201 290.398438 L 201 289.800781 M 210 291.601562 L 210.199219 291.601562 L 229.199219 290.199219 L 232.800781 290.601562 L 231.199219 281 C 230.933594 277.933594 226.667969 276.667969 218.398438 277.199219 C 215.332031 277.332031 212.535156 278.667969 210 281.199219 L 204 288.800781 C 203.332031 289.601562 204.066406 290.265625 206.199219 290.800781 L 210 291.601562 "/>
<path style=" stroke:none;fill-rule:nonzero;fill:rgb(100%,94.509804%,0%);fill-opacity:1;" d="M 155.800781 19.199219 L 159.398438 22 C 166.332031 24.535156 172.535156 29.066406 178 35.601562 C 182.132812 40.398438 185.132812 45.332031 187 50.398438 C 189 55.601562 190 62.667969 190 71.601562 L 189.800781 98.800781 L 189.601562 99.800781 C 195.464844 102.332031 200.066406 105.132812 203.398438 108.199219 L 209.199219 108 C 218.800781 108 227.800781 109.464844 236.199219 112.398438 L 244.199219 115.800781 C 252.199219 118.066406 260.265625 122.464844 268.398438 129 C 275.867188 135.265625 281.464844 141.800781 285.199219 148.601562 L 297.800781 156.398438 L 307.398438 165.601562 L 310.398438 169.398438 C 314.800781 173.535156 317.800781 178.332031 319.398438 183.800781 C 321 189.398438 320.867188 195 319 200.601562 L 316.601562 207.601562 L 313.601562 215 C 312.800781 224.332031 308.464844 231.398438 300.601562 236.199219 C 296.066406 239.132812 291 240.601562 285.398438 240.601562 C 276.601562 240.601562 269.398438 237.265625 263.800781 230.601562 L 262.199219 229.199219 L 262.199219 242.800781 L 261.199219 274.398438 L 261.199219 274.800781 L 260.800781 280.601562 L 261.398438 284.199219 C 262.734375 288.867188 262.800781 293.535156 261.601562 298.199219 C 260.535156 303 258.332031 307.132812 255 310.601562 C 249.535156 316.867188 242.535156 320 234 320 L 230.398438 319.800781 L 230.199219 319.800781 L 213.601562 321 L 212.398438 321 L 204.398438 320.199219 C 197.464844 318.601562 192.800781 317.265625 190.398438 316.199219 L 186.199219 316.398438 C 179.535156 316.398438 173.464844 315.132812 168 312.601562 C 163.867188 310.734375 160.535156 308.132812 158 304.800781 L 156.601562 306.601562 C 150.734375 313.667969 142.867188 317.199219 133 317.199219 L 130.601562 317.199219 L 129.601562 317.398438 L 112.199219 317.800781 C 107.800781 317.800781 103.667969 317 99.800781 315.398438 L 94.398438 316.199219 L 87.199219 316.398438 C 65.332031 316.398438 49.535156 310.800781 39.800781 299.601562 C 34.199219 292.933594 32 285.265625 33.199219 276.601562 C 34.265625 269.535156 37.667969 263.667969 43.398438 259 L 49 252.199219 C 49.800781 247.132812 50.933594 242.601562 52.398438 238.601562 C 50.800781 230.867188 52.132812 222.867188 56.398438 214.601562 L 56.199219 199.601562 C 55.667969 191.066406 55.535156 184.464844 55.800781 179.800781 C 56.066406 173.535156 57.132812 168.132812 59 163.601562 L 60.398438 160.199219 L 60 160.199219 L 56.800781 160.398438 L 56.398438 160.398438 L 45 162.398438 L 37.199219 161.398438 C 30.667969 159.800781 24.867188 156.332031 19.800781 151 C 16.601562 147.535156 13.933594 143.601562 11.800781 139.199219 L 10 134.800781 C 6.933594 131.332031 4.535156 127.265625 2.800781 122.601562 C 0.398438 115.933594 -0.464844 109.132812 0.199219 102.199219 C 0.867188 95.265625 3.066406 89.199219 6.800781 84 C 12.398438 76 20.800781 71.464844 32 70.398438 L 35.800781 69 L 36.199219 66 C 37 61.199219 38.734375 56.601562 41.398438 52.199219 C 41.667969 47.265625 42.667969 42.734375 44.398438 38.601562 C 51.332031 23.265625 66.066406 12 88.601562 4.800781 C 95 2.800781 102.132812 1.332031 110 0.398438 L 117.398438 0 C 130.066406 0 141.332031 4.734375 151.199219 14.199219 L 155.800781 19.199219 "/>
<path style=" stroke:none;fill-rule:nonzero;fill:rgb(0%,0%,0%);fill-opacity:1;" d="M 148 27.601562 L 153.398438 32 C 158.734375 33.464844 163.734375 36.734375 168.398438 41.800781 C 172.132812 45.933594 174.800781 50.132812 176.398438 54.398438 C 177.867188 58.265625 178.601562 63.933594 178.601562 71.398438 L 178.601562 97.601562 L 176.601562 106.800781 L 179.800781 108 C 187.933594 111.332031 193.332031 114.199219 196 116.601562 L 199.199219 120 L 209.199219 119.199219 C 217.734375 119.199219 225.464844 120.535156 232.398438 123.199219 L 240.199219 126.601562 C 247.265625 128.199219 254.601562 132.265625 262.199219 138.800781 C 269.398438 144.933594 274.199219 150.933594 276.601562 156.800781 L 277 157.601562 C 280.464844 158.667969 285.199219 161.265625 291.199219 165.398438 C 294.265625 167.933594 296.800781 170.398438 298.800781 172.800781 L 301.601562 176.800781 C 305.066406 179.601562 307.332031 183 308.398438 187 C 309.464844 190.734375 309.398438 194.265625 308.199219 197.601562 L 305.800781 203.601562 C 305.398438 206.535156 304.265625 209.132812 302.398438 211.398438 C 302.667969 218.199219 300.066406 223.265625 294.601562 226.601562 C 291.667969 228.464844 288.601562 229.398438 285.398438 229.398438 C 280.332031 229.398438 275.933594 227.332031 272.199219 223.199219 L 269.199219 220.398438 L 262.601562 214.398438 L 257.800781 208.800781 L 254.199219 216 L 251 223.398438 L 250.800781 242.800781 C 251.066406 255.066406 250.800781 265.332031 250 273.601562 L 250 274.398438 L 249.199219 281 L 249.601562 282.398438 L 250.199219 286 L 250.199219 286.601562 C 252.066406 292.734375 250.867188 298.199219 246.601562 303 C 243.265625 306.734375 239.066406 308.601562 234 308.601562 L 230.199219 308.199219 L 228.398438 308.601562 L 213.601562 309.800781 L 212.398438 309.800781 L 206.398438 309 C 199.601562 307.667969 195.066406 306.199219 192.800781 304.601562 L 186.199219 305 C 181 305 176.464844 304.066406 172.601562 302.199219 C 167.933594 300.066406 164.867188 296.535156 163.398438 291.601562 C 161.933594 286.667969 162.601562 282 165.398438 277.601562 L 170.199219 269.398438 C 171.667969 264.332031 172.398438 255.535156 172.398438 243 L 172.800781 231 L 158.398438 229 L 157.398438 229 L 152 228.199219 L 152.199219 230.199219 L 152.199219 231.398438 L 151 241.398438 L 150.800781 242.398438 L 151.199219 245 L 150.800781 253.800781 L 150.601562 254.601562 L 150.601562 267 L 151.800781 277.601562 L 151.800781 278.199219 C 153.535156 287.132812 152.265625 294.132812 148 299.199219 C 144.265625 303.734375 139.265625 306 133 306 L 131.199219 305.800781 L 129 306 L 128 306.199219 L 123.800781 306.601562 L 119.601562 306.199219 L 112.199219 306.398438 C 107.800781 306.398438 104 305.199219 100.800781 302.800781 C 98.933594 303.867188 96.601562 304.535156 93.800781 304.800781 L 87.199219 305 C 68.800781 305 55.867188 300.734375 48.398438 292.199219 C 44.933594 288.332031 43.601562 283.734375 44.398438 278.398438 C 45.199219 273.464844 47.601562 269.667969 51.601562 267 L 52.398438 265.800781 L 59 258.601562 L 59.800781 257.800781 C 60.601562 250.464844 62 244.601562 64 240.199219 L 64.199219 239.601562 C 63 235.332031 62.800781 231.265625 63.601562 227.398438 C 64.132812 224.734375 65.464844 221.535156 67.601562 217.800781 L 67.800781 214 L 67.398438 199 C 66.464844 184.066406 67.199219 173.601562 69.601562 167.601562 L 75.398438 153 L 66.601562 149.800781 L 60.398438 148.800781 L 56.800781 149 L 54.398438 149 C 51.464844 150.332031 48.332031 151 45 151 L 40 150.398438 C 35.332031 149.332031 31.132812 146.734375 27.398438 142.601562 C 25 139.933594 23.199219 137.132812 22 134.199219 L 20 128.800781 C 17.066406 126.265625 14.867188 122.867188 13.398438 118.601562 C 11.667969 113.800781 11 108.867188 11.398438 103.800781 C 11.933594 98.601562 13.464844 94.199219 16 90.601562 C 20 85 26.332031 82 35 81.601562 C 38.332031 80 42 78.800781 46 78 L 47.398438 77.601562 C 46.867188 74.265625 46.867188 71 47.398438 67.800781 C 48.199219 63.265625 50 59.199219 52.800781 55.601562 C 52.398438 51.066406 53.066406 46.933594 54.800781 43.199219 C 60.535156 30.800781 72.933594 21.667969 92 15.800781 C 97.601562 13.933594 104 12.601562 111.199219 11.800781 L 117.398438 11.398438 C 127 11.398438 135.734375 15.066406 143.601562 22.398438 L 148 27.601562 "/>
<path style=" stroke:none;fill-rule:nonzero;fill:rgb(100%,100%,100%);fill-opacity:1;" d="M 142.199219 34.199219 C 144.867188 35.265625 147 37.066406 148.601562 39.601562 L 150.199219 39.800781 C 154.199219 40.734375 158.066406 43.199219 161.800781 47.199219 C 164.867188 50.535156 167.066406 53.933594 168.398438 57.398438 C 169.734375 61 170.265625 65.601562 170 71.199219 L 170 96.800781 L 167.800781 105.800781 C 166.867188 109 166.535156 110.867188 166.800781 111.398438 C 168.265625 112.601562 171.601562 114.132812 176.800781 116 C 183.332031 118.535156 187.800781 120.867188 190.199219 123 L 195.800781 129.199219 L 209.199219 127.800781 C 216.667969 127.800781 223.398438 128.933594 229.398438 131.199219 C 232.066406 132 234.734375 133.132812 237.398438 134.601562 C 243.398438 135.800781 249.800781 139.265625 256.601562 145 C 262.867188 150.464844 266.933594 155.535156 268.800781 160.199219 L 271.800781 165 C 275.398438 165.398438 280.132812 167.867188 286 172.398438 L 292.199219 178.199219 L 294.800781 182 L 295 182.601562 C 297.800781 184.601562 299.601562 186.867188 300.398438 189.398438 C 300.933594 191.800781 300.734375 193.800781 299.800781 195.398438 L 298.199219 199.601562 L 297.398438 200.601562 C 297.667969 202.867188 297.066406 204.800781 295.601562 206.398438 L 293.398438 208.398438 L 293.199219 208.800781 C 294.132812 210.667969 294.265625 212.667969 293.601562 214.800781 C 293.066406 216.800781 291.867188 218.398438 290 219.601562 L 285.398438 220.800781 C 282.867188 220.800781 280.667969 219.800781 278.800781 217.800781 L 274.398438 213.800781 L 268.800781 208.601562 C 262 201.398438 258.199219 193.867188 257.398438 186 L 256.199219 184 L 251.199219 202.199219 L 246.601562 212.199219 C 243.933594 217.535156 242.535156 221.132812 242.398438 223 L 242.398438 243 L 241.398438 272.800781 L 241.398438 274 L 240.601562 280.601562 L 242 288.800781 C 243.066406 292 242.535156 294.867188 240.398438 297.398438 C 238.800781 299.265625 236.667969 300.199219 234 300.199219 L 232 300 L 230.398438 299.398438 L 230 299.398438 L 227 300.199219 L 213.601562 301.199219 L 212.398438 301.199219 L 208 300.601562 C 201.199219 299.398438 197 297.800781 195.398438 295.800781 L 194.800781 295.800781 L 186.199219 296.601562 L 176.199219 294.601562 C 173.800781 293.535156 172.265625 291.734375 171.601562 289.199219 C 170.800781 286.667969 171.132812 284.332031 172.601562 282.199219 L 178 272.800781 C 180 266.398438 181 256.464844 181 243 L 181.800781 223.199219 L 159.601562 220.601562 L 158.601562 220.601562 L 143.398438 218.601562 L 143.601562 231.800781 L 142.601562 239.601562 L 142 243 L 142.199219 243.199219 L 142.800781 246.199219 L 142.398438 252.199219 L 142.199219 253.199219 L 142.199219 257.398438 L 142 268.199219 L 143.199219 277.800781 L 143.601562 280 C 144.800781 286.132812 144.066406 290.734375 141.398438 293.800781 C 139.265625 296.199219 136.464844 297.398438 133 297.398438 L 131.601562 297.398438 L 128 297.601562 L 126.800781 297.800781 L 123.800781 298 L 120.398438 297.800781 L 118.800781 297.601562 L 117.199219 297.800781 L 112.199219 298 C 108.332031 298 105.601562 296.667969 104 294 C 102.265625 291.464844 102.066406 288.800781 103.398438 286 L 106.800781 258.800781 C 107.199219 254 107.132812 251.132812 106.601562 250.199219 L 106.398438 250 L 106 249.398438 L 105.398438 254.800781 C 104.867188 262.265625 103.867188 267.734375 102.398438 271.199219 L 101.199219 289.398438 C 100.933594 291.265625 100.066406 292.867188 98.601562 294.199219 C 97.132812 295.535156 95.398438 296.265625 93.398438 296.398438 L 87.199219 296.601562 C 71.464844 296.601562 60.667969 293.265625 54.800781 286.601562 C 53.066406 284.464844 52.398438 282.132812 52.800781 279.601562 C 53.199219 276.933594 54.535156 275 56.800781 273.800781 L 59.398438 270.800781 C 60.867188 268.667969 62.535156 266.734375 64.398438 265 L 68 262 C 68.535156 254.132812 69.734375 248 71.601562 243.601562 L 73.398438 240 C 71.800781 236.398438 71.265625 233.132812 71.800781 230.199219 C 72.066406 228.066406 73.132812 225.265625 75 221.800781 C 75.933594 220.066406 76.332031 217.398438 76.199219 213.800781 L 76.199219 208.398438 L 76 198.601562 C 75.066406 185 75.535156 175.734375 77.398438 170.800781 L 79.800781 165 C 83 156.464844 85.800781 150.332031 88.199219 146.601562 L 78.398438 145 C 76 144.464844 73 143.332031 69.398438 141.601562 L 64.199219 140.601562 L 63.601562 140.601562 L 60.800781 140.199219 L 60 140.398438 L 56.800781 140.601562 L 52.800781 140.398438 L 52 140.800781 L 45 142.601562 L 42 142.199219 C 37.199219 141 33.066406 137.132812 29.601562 130.601562 L 27.601562 124.199219 C 24.800781 122.199219 22.734375 119.332031 21.398438 115.601562 C 20.066406 112.132812 19.535156 108.535156 19.800781 104.800781 C 20.199219 101.066406 21.265625 98 23 95.601562 C 24.464844 93.464844 26.535156 91.933594 29.199219 91 L 35.601562 90 L 37.601562 89.800781 C 39.601562 88.601562 43.066406 87.398438 48 86.199219 L 51.800781 85.199219 L 52.601562 84.800781 L 56 81.800781 L 56.601562 81 L 56.199219 78.601562 C 55.535156 74.734375 55.398438 71.601562 55.800781 69.199219 C 56.464844 65.066406 58.464844 61.464844 61.800781 58.398438 C 60.867188 53.867188 61.132812 50 62.601562 46.800781 C 67.132812 36.800781 77.800781 29.132812 94.601562 23.800781 L 112.398438 20.199219 L 117.398438 19.800781 C 124.867188 19.800781 131.601562 22.734375 137.601562 28.601562 L 142.199219 34.199219 "/>
<path style=" stroke:none;fill-rule:nonzero;fill:rgb(100%,100%,72.156863%);fill-opacity:1;" d="M 212.800781 231.800781 C 211.066406 243 210 252.464844 209.601562 260.199219 L 210 270.601562 L 209.601562 281 C 198.933594 280.464844 190.867188 279.265625 185.398438 277.398438 C 187.933594 270.332031 189.332031 258 189.601562 240.398438 C 189.734375 224 191.734375 211.800781 195.601562 203.800781 C 197.199219 200.601562 200.332031 199.132812 205 199.398438 L 217.398438 202 L 217.199219 203.800781 L 212.800781 231.800781 "/>
<path style=" stroke:none;fill-rule:nonzero;fill:rgb(92.156863%,81.960784%,5.882353%);fill-opacity:1;" d="M 218.199219 203.601562 C 215.265625 221.066406 213.265625 234.199219 212.199219 243 C 211.667969 247.535156 211.332031 253.867188 211.199219 262 L 210.601562 280.800781 C 210.601562 281.199219 210.066406 281.398438 209 281.398438 C 199.800781 281 191.667969 279.800781 184.601562 277.800781 L 184.398438 277.601562 C 186.265625 271.464844 187.464844 264.132812 188 255.601562 L 188.800781 233 L 189.800781 217.800781 C 190.601562 211.667969 192.199219 207 194.601562 203.800781 C 197.265625 200.464844 200.933594 198.867188 205.601562 199 L 218.199219 201.601562 L 218.398438 201.800781 L 218.199219 203.601562 M 206.199219 200 L 194.601562 208.199219 L 192 217.800781 C 191.199219 223.265625 190.667969 231.535156 190.398438 242.601562 L 190 258 L 188 270.601562 C 188 275.667969 190.535156 278.535156 195.601562 279.199219 L 205.601562 280.199219 C 208.535156 275.667969 209.535156 270.800781 208.601562 265.601562 L 209.601562 248.800781 C 210.800781 238.800781 213 223.867188 216.199219 204 C 213.667969 201.066406 210.332031 199.734375 206.199219 200 "/>
<path style=" stroke:none;fill-rule:nonzero;fill:rgb(45.882353%,30.196078%,14.117647%);fill-opacity:1;" d="M 188.199219 271.398438 L 209.398438 274.398438 C 211.535156 281.199219 212 285.265625 210.800781 286.601562 L 206.601562 287.398438 L 201.800781 286.800781 L 190.601562 287.800781 L 179.800781 286.800781 L 188.199219 271.398438 "/>
<path style=" stroke:none;fill-rule:nonzero;fill:rgb(38.039216%,22.352941%,9.019608%);fill-opacity:1;" d="M 188.601562 270.800781 L 209.601562 273.800781 C 210 273.800781 210.199219 273.933594 210.199219 274.199219 L 212.398438 281.601562 C 212.933594 285.199219 212.066406 287.265625 209.800781 287.800781 C 208.464844 288.332031 206.734375 288.332031 204.601562 287.800781 L 194.398438 288 L 186.800781 288.601562 L 179.199219 287.398438 C 178.667969 287.398438 178.535156 287.199219 178.800781 286.800781 L 187.398438 271.398438 C 187.667969 270.734375 188.066406 270.535156 188.601562 270.800781 M 188.601562 272.800781 L 181 286.398438 L 189.199219 287.199219 L 198.199219 286.199219 L 205.398438 286.398438 C 208.867188 286.398438 210.535156 285.667969 210.398438 284.199219 L 208.601562 275.199219 L 207.601562 275 L 188.800781 272.398438 L 188.601562 272.800781 "/>
<path style=" stroke:none;fill-rule:nonzero;fill:rgb(100%,100%,72.156863%);fill-opacity:1;" d="M 227 151.601562 C 227.535156 142 232.867188 140.066406 243 145.800781 C 252.464844 151.265625 258.464844 157.132812 261 163.398438 L 268 174.398438 C 271.601562 180 273.265625 183.265625 273 184.199219 C 273.398438 191 271.332031 191.265625 266.800781 185 C 263.601562 180.332031 261.132812 175.933594 259.398438 171.800781 C 258.066406 168.332031 256.132812 165.332031 253.601562 162.800781 C 250.667969 159.464844 247.601562 157.601562 244.398438 157.199219 L 233 159 C 228.734375 159.265625 226.734375 156.800781 227 151.601562 "/>
<path style=" stroke:none;fill-rule:nonzero;fill:rgb(92.156863%,81.960784%,5.882353%);fill-opacity:1;" d="M 232.398438 142.199219 C 237.199219 141 242.933594 143.132812 249.601562 148.601562 C 255.332031 153.132812 259.398438 157.933594 261.800781 163 L 262.199219 163.398438 L 268.800781 173 C 272 177.398438 273.734375 180.933594 274 183.601562 C 274 188.667969 272.933594 190.867188 270.800781 190.199219 C 268.800781 189.398438 266.800781 187.398438 264.800781 184.199219 L 260.601562 176.199219 C 256.867188 169.132812 254 164.667969 252 162.800781 C 248 158.933594 243.066406 157.667969 237.199219 159 L 230 159.398438 C 227.734375 158.734375 226.398438 157 226 154.199219 C 225.601562 151.535156 225.933594 149.066406 227 146.800781 C 228.199219 144.398438 230 142.867188 232.398438 142.199219 M 260 163.398438 C 257.601562 158.601562 252.132812 153.464844 243.601562 148 C 234.132812 141.601562 229 142.132812 228.199219 149.601562 C 227.667969 154.398438 229.132812 157 232.601562 157.398438 L 243.199219 156.398438 C 247.066406 156.132812 250.535156 157.800781 253.601562 161.398438 C 255.867188 163.933594 258.535156 168.132812 261.601562 174 C 264.535156 180 267.132812 184.265625 269.398438 186.800781 L 272 187 C 272.398438 185.667969 272.332031 184.332031 271.800781 183 L 267.601562 175.800781 L 260.199219 164 L 260 163.601562 L 260 163.398438 "/>
<path style=" stroke:none;fill-rule:nonzero;fill:rgb(97.647059%,92.54902%,13.72549%);fill-opacity:1;" d="M 148.398438 48.199219 C 150.667969 48.734375 153.066406 50.332031 155.601562 53 C 158 55.535156 159.601562 58 160.398438 60.398438 C 161.199219 62.398438 161.601562 66.734375 161.601562 73.398438 L 161.800781 89.800781 L 161.601562 96 L 158.800781 106.199219 C 157.734375 110.199219 158 113.535156 159.601562 116.199219 C 160.800781 118.066406 164.800781 120.398438 171.601562 123.199219 C 178.933594 126.132812 183.199219 128.132812 184.398438 129.199219 C 190.265625 134.535156 192.734375 139.601562 191.800781 144.398438 C 188.734375 143.332031 186.800781 144.199219 186 147 L 183.601562 154.398438 C 181.734375 156.800781 179.398438 158.132812 176.601562 158.398438 L 167.601562 158.398438 L 151.199219 158.199219 C 144.667969 157.667969 139.464844 156.132812 135.601562 153.601562 C 133.464844 152.265625 131.667969 150.398438 130.199219 148 L 126.398438 141 L 119.800781 135.199219 C 116.601562 132.933594 114.398438 131 113.199219 129.398438 C 111.199219 126.734375 110.265625 123.734375 110.398438 120.398438 C 110.398438 118 111 114.734375 112.199219 110.601562 L 114.601562 103.800781 L 116.199219 96.800781 C 116.464844 92 115.332031 85.667969 112.800781 77.800781 L 111.199219 72.398438 C 110.398438 70.398438 109.332031 68.867188 108 67.800781 C 103.867188 64.332031 98.535156 63.535156 92 65.398438 L 76 71.601562 L 71.601562 61 C 69.734375 56.199219 69.332031 52.601562 70.398438 50.199219 C 73.867188 42.464844 82.800781 36.398438 97.199219 32 L 113.398438 28.601562 L 123.398438 29.199219 C 126.066406 30.132812 128.867188 32 131.800781 34.800781 C 134.066406 36.800781 135.464844 39.132812 136 41.800781 L 136.800781 50 L 142.398438 48.601562 L 148.398438 48.199219 "/>
<path style=" stroke:none;fill-rule:nonzero;fill:rgb(97.647059%,81.960784%,13.72549%);fill-opacity:1;" d="M 165.800781 89 L 163.601562 100.199219 C 162.265625 105.800781 161.734375 109.132812 162 110.199219 C 163.199219 113.800781 165.199219 116.535156 168 118.398438 L 177.398438 122.601562 C 183.265625 125 187.535156 127.535156 190.199219 130.199219 C 193.535156 133.535156 195.398438 137.933594 195.800781 143.398438 C 195.933594 144.332031 194.933594 145.066406 192.800781 145.601562 L 189 145.800781 C 191.667969 146.199219 190.667969 148.535156 186 152.800781 C 181.464844 157.066406 178.132812 159.398438 176 159.800781 L 156.199219 161 C 147.800781 160.734375 141.332031 159.464844 136.800781 157.199219 C 133.066406 155.464844 129.464844 152.199219 126 147.398438 C 122.132812 141.933594 118.867188 138.332031 116.199219 136.601562 C 109.132812 131.265625 105.867188 126.199219 106.398438 121.398438 C 106.933594 117.265625 108.332031 111.265625 110.601562 103.398438 C 112.199219 96.332031 112.265625 90.199219 110.800781 85 C 108.132812 76.066406 106 70.800781 104.398438 69.199219 C 100.535156 65.464844 93.464844 65.800781 83.199219 70.199219 L 77.398438 72.398438 L 74.800781 73.199219 L 72.199219 72.601562 L 67 56.398438 C 66.601562 51.601562 68.800781 46.800781 73.601562 42 C 78.265625 37.332031 86 33.601562 96.800781 30.800781 C 124.667969 23.066406 139.265625 28.800781 140.601562 48 C 151 46.535156 158 49.667969 161.601562 57.398438 C 164.132812 62.601562 165.535156 73.066406 165.800781 88.800781 L 165.800781 89 M 156.601562 63.398438 C 154.066406 52.734375 147.535156 48.601562 137 51 L 134.800781 51.398438 L 133 51 C 132.464844 40.066406 127.265625 33.464844 117.398438 31.199219 C 108.734375 29.332031 99.265625 31.066406 89 36.398438 C 79 41.601562 73.933594 46.933594 73.800781 52.398438 L 79.398438 69 L 93.398438 63.601562 C 102.734375 61.066406 108.933594 62.132812 112 66.800781 C 114.800781 70.933594 117 75.601562 118.601562 80.800781 C 120.464844 86.933594 120.933594 92.066406 120 96.199219 C 116.933594 105.535156 115.265625 112.332031 115 116.601562 C 114.332031 123.535156 117.199219 129.265625 123.601562 133.800781 L 134.800781 146.800781 C 138.933594 152.132812 143.601562 155.199219 148.800781 156 L 167.601562 157.601562 C 175.332031 157.066406 180.066406 154.199219 181.800781 149 C 182.867188 146.066406 184.867188 144.199219 187.800781 143.398438 C 186.601562 136.199219 182.867188 131.332031 176.601562 128.800781 C 165.933594 124.265625 159.800781 121.199219 158.199219 119.601562 C 155.132812 116.535156 154.132812 111.933594 155.199219 105.800781 L 158 90.800781 C 157.734375 75.332031 157.265625 66.199219 156.601562 63.398438 "/>
<path style=" stroke:none;fill-rule:nonzero;fill:rgb(100%,100%,72.156863%);fill-opacity:1;" d="M 131.398438 45.800781 C 135 43.132812 137.332031 41.867188 138.398438 42 C 140.667969 42.398438 142.132812 44.332031 142.800781 47.800781 C 143.464844 51 143.332031 53.667969 142.398438 55.800781 L 137.398438 61.601562 C 135.265625 63.601562 134.601562 65.734375 135.398438 68 L 138.199219 78.199219 C 138.332031 82.867188 137.734375 88.734375 136.398438 95.800781 L 133.398438 113.398438 C 132.867188 120.066406 133.066406 124.933594 134 128 L 140.800781 143.398438 C 141.601562 145 142.535156 145.933594 143.601562 146.199219 L 147.800781 146.398438 L 154 147 L 160 146.800781 L 168 143.800781 C 171.332031 142.464844 174.066406 141.601562 176.199219 141.199219 L 185.199219 140 L 194.199219 138.199219 L 210.398438 136.398438 C 216.398438 136.535156 221.800781 137.464844 226.601562 139.199219 C 234.066406 141.867188 240.066406 145.535156 244.601562 150.199219 C 248.734375 154.601562 250.800781 159.464844 250.800781 164.800781 C 250.667969 168.398438 249.734375 174.199219 248 182.199219 L 243.199219 199.601562 L 237.800781 210.800781 C 235.398438 215.464844 234.132812 219.398438 234 222.601562 L 233.800781 247.199219 L 233 271.800781 L 232.601562 277.398438 C 232.332031 279.933594 231.667969 281.332031 230.601562 281.601562 L 226.601562 281.601562 L 219.800781 281.199219 L 214.398438 280.199219 L 212.800781 278.398438 L 211.800781 273.800781 C 210.464844 263.800781 209.535156 250.464844 209 233.800781 L 208.398438 221.800781 L 206 210 C 199.464844 214.535156 188.066406 215.800781 171.800781 213.800781 L 135.199219 209.800781 C 134.933594 209.800781 134.867188 213.265625 135 220.199219 L 135.199219 232 L 134.398438 237.601562 L 133.601562 243.398438 L 134.398438 247.199219 L 133.800781 251.800781 C 133.535156 253 133.464844 254.667969 133.601562 256.800781 L 133.800781 261.800781 L 133.398438 272 L 133.601562 276.601562 C 133.066406 277.535156 132.132812 278 130.800781 278 L 127.199219 277.601562 L 121 277.601562 L 113.800781 278.800781 C 113.667969 275.066406 114.066406 269.667969 115 262.601562 L 115.601562 254.601562 C 115.734375 251.265625 115.398438 248.667969 114.601562 246.800781 L 111.800781 242.398438 L 111.800781 240 L 113.199219 238 C 114.132812 236.132812 114.933594 230.933594 115.601562 222.398438 C 116.265625 213.464844 116 208.933594 114.800781 208.800781 L 107 207 C 105.800781 207 105.332031 209.535156 105.601562 214.601562 C 106 219.535156 105.332031 224.933594 103.601562 230.800781 L 98 246.398438 L 96.398438 259.601562 C 95.601562 266.265625 94.132812 270.132812 92 271.199219 L 84.199219 271.601562 L 76.199219 270.601562 L 77 258.601562 C 77.398438 253.667969 78.199219 249.800781 79.398438 247 L 81.601562 242 C 82.132812 240.265625 82 238.535156 81.199219 236.800781 C 80.265625 234.398438 79.933594 232.535156 80.199219 231.199219 C 80.332031 230.132812 81.132812 228.332031 82.601562 225.800781 C 84.066406 223.265625 84.867188 220.464844 85 217.398438 L 84.800781 208.601562 L 84 191 C 83.734375 182.601562 84.199219 176.933594 85.398438 174 L 90 162.199219 C 91.734375 157.398438 93.667969 153.535156 95.800781 150.601562 L 99 144.800781 C 100.066406 141.734375 99.667969 140 97.800781 139.601562 L 80.199219 136.601562 L 72.398438 133.601562 L 64.601562 131 L 58.800781 132 L 52.398438 131.800781 C 51.601562 131.800781 50.199219 132.265625 48.199219 133.199219 L 44 134 C 41.867188 133.464844 39.800781 131.464844 37.800781 128 C 35.800781 124.265625 35.332031 121.199219 36.398438 118.800781 C 32.535156 118.535156 30 116 28.800781 111.199219 C 27.734375 106.535156 28.132812 102.933594 30 100.398438 C 30.667969 99.464844 32.464844 98.867188 35.398438 98.601562 L 41.398438 97.398438 C 42.867188 96.464844 45 95.667969 47.800781 95 L 54.601562 93.199219 C 59 91.734375 62.265625 88.800781 64.398438 84.398438 C 65.199219 82.667969 65.332031 80.464844 64.800781 77.800781 C 64.132812 74.464844 63.933594 72.066406 64.199219 70.601562 C 64.734375 67.535156 66.800781 64.867188 70.398438 62.601562 L 80 58.199219 C 83.464844 56.464844 87.132812 55.398438 91 55 L 108.800781 53.601562 L 117 53.601562 L 124.601562 52.199219 L 131.398438 45.800781 "/>
<path style=" stroke:none;fill-rule:nonzero;fill:rgb(92.156863%,81.960784%,5.882353%);fill-opacity:1;" d="M 142.601562 44.199219 C 146.464844 47.398438 146.667969 51.398438 143.199219 56.199219 C 141.066406 59.132812 139.800781 62.667969 139.398438 66.800781 L 139.199219 78.199219 L 137.601562 92.199219 L 135.398438 106.199219 C 133 123.667969 135.132812 135.933594 141.800781 143 C 145.265625 146.734375 150.734375 147.800781 158.199219 146.199219 L 176.199219 140.601562 C 205.933594 132.066406 228.933594 135.132812 245.199219 149.800781 L 245.398438 149.800781 L 245.800781 150.199219 C 249.933594 155.800781 251.734375 162.464844 251.199219 170.199219 C 250.933594 174.601562 249.332031 181.867188 246.398438 192 L 239.800781 207.199219 C 236.734375 213.601562 235.132812 218.734375 235 222.601562 L 234.800781 257.800781 C 235.734375 274.066406 234.332031 282.199219 230.601562 282.199219 L 217.800781 282.199219 C 213.800781 281.398438 211.464844 278.734375 210.800781 274.199219 C 209.464844 263.800781 208.601562 252.601562 208.199219 240.601562 C 207.800781 220.066406 205.933594 210.734375 202.601562 212.601562 C 197.535156 215.398438 190.535156 216.535156 181.601562 216 L 160.199219 213 L 150 210.800781 L 171 213.601562 C 185.667969 215.464844 197.199219 214.066406 205.601562 209.398438 L 207 209.601562 C 208.464844 216.132812 209.398438 224.535156 209.800781 234.800781 L 211.398438 260.199219 L 212 269.398438 C 212.265625 273.132812 212.867188 276.066406 213.800781 278.199219 C 220.066406 282.066406 226.066406 281.066406 231.800781 275.199219 L 233 250.800781 L 232.800781 233.601562 C 232.800781 227.066406 233.265625 221.398438 234.199219 216.601562 C 234.734375 214.464844 236 211.601562 238 208 L 242.199219 199.398438 C 245.933594 187.398438 248.132812 179.132812 248.800781 174.601562 C 250.132812 164.867188 248.464844 156.933594 243.800781 150.800781 C 234.199219 142.132812 221.667969 137.667969 206.199219 137.398438 C 193 137.132812 179.535156 139.800781 165.800781 145.398438 L 154.199219 148.199219 C 148.734375 148.867188 144.933594 148.398438 142.800781 146.800781 C 139.464844 144.535156 136.667969 140.199219 134.398438 133.800781 C 132.398438 127.933594 131.601562 122.800781 132 118.398438 C 132.265625 115.332031 133.199219 109.867188 134.800781 102 L 137 85.398438 C 137.132812 82.464844 136.734375 78.867188 135.800781 74.601562 C 134.867188 69.933594 134.398438 66.535156 134.398438 64.398438 C 134.398438 62.265625 135.800781 61.132812 138.601562 61 C 141.398438 60.867188 142.601562 58 142.199219 52.398438 C 141.667969 44.800781 138.933594 42.464844 134 45.398438 L 125 52.601562 C 122.867188 53.667969 120.199219 54.199219 117 54.199219 L 108.800781 54.199219 L 92.601562 55.800781 C 86.464844 56.734375 81.199219 58.265625 76.800781 60.398438 C 71.601562 62.800781 68.332031 68.132812 67 76.398438 C 65.535156 84.667969 62.867188 89.800781 59 91.800781 C 53.667969 94.601562 47.867188 96.734375 41.601562 98.199219 C 36.265625 99.535156 32.601562 102.464844 30.601562 107 C 28.332031 112.066406 30.398438 115.800781 36.800781 118.199219 C 37.464844 118.199219 37.601562 118.398438 37.199219 118.800781 C 36.132812 127.066406 39.199219 131.332031 46.398438 131.601562 L 65 130.398438 C 75.265625 131.601562 86.398438 134.464844 98.398438 139 C 101.601562 140.066406 101.535156 143.199219 98.199219 148.398438 C 89.132812 163.332031 84.734375 175.867188 85 186 L 86.601562 203.199219 C 87.265625 210.800781 86.933594 216.464844 85.601562 220.199219 C 84.535156 223.132812 83.867188 226.734375 83.601562 231 L 82.601562 242 C 82.199219 245.867188 81.800781 247.734375 81.398438 247.601562 L 80.199219 245.199219 C 79.398438 242.667969 78.601562 247.066406 77.800781 258.398438 C 76.601562 262.933594 77.332031 266.867188 80 270.199219 C 86.535156 272.464844 91.601562 269.667969 95.199219 261.800781 L 96.601562 249.199219 C 97.265625 245.601562 98.933594 240.398438 101.601562 233.601562 C 102.800781 230 103.464844 226 103.601562 221.601562 L 104.601562 210 C 104.867188 207.601562 106.332031 206.199219 109 205.800781 C 111.535156 205.265625 113.800781 206.132812 115.800781 208.398438 C 118.601562 211.601562 118.734375 217.800781 116.199219 227 C 113.667969 236.601562 113.398438 243.066406 115.398438 246.398438 C 116.066406 247.464844 116.132812 253.535156 115.601562 264.601562 C 115.066406 273.667969 116.800781 277.800781 120.800781 277 C 126.535156 275.667969 129.933594 274.398438 131 273.199219 C 132.332031 271.734375 132.933594 268 132.800781 262 L 133.601562 246.199219 L 134.199219 230.601562 L 133.601562 220.199219 C 133.332031 215.933594 133.535156 212.464844 134.199219 209.800781 L 135.199219 209 L 144.199219 210.199219 C 138.464844 209.800781 135.667969 211.800781 135.800781 216.199219 C 136.464844 223.398438 136.601562 228.601562 136.199219 231.800781 L 135 254.199219 L 134.398438 276.601562 L 134 277.199219 C 131.464844 278.398438 128.132812 279.066406 124 279.199219 L 113.601562 279.601562 L 112.800781 279 L 113.398438 261 C 113.265625 254.867188 112.398438 248.800781 110.800781 242.800781 C 110.535156 241.601562 110.800781 240.066406 111.601562 238.199219 L 113.199219 234 L 115.199219 220.398438 C 115.601562 213.332031 114.199219 209.535156 111 209 C 107.800781 208.464844 106.199219 209.667969 106.199219 212.601562 C 106.867188 216.601562 107 219.535156 106.601562 221.398438 L 102 237 C 99.734375 243.667969 98.398438 248.933594 98 252.800781 C 97.464844 259.867188 96.398438 265.332031 94.800781 269.199219 C 93.734375 271.867188 90.800781 273.066406 86 272.800781 L 75.800781 271.199219 L 75.199219 270.601562 C 75.867188 257 77.332031 243.398438 79.601562 229.800781 L 82.398438 217.601562 L 83.800781 205.199219 L 83 186.199219 C 83.132812 179.933594 84.667969 173.332031 87.601562 166.398438 C 89.199219 162.535156 92.066406 156.464844 96.199219 148.199219 C 100.199219 139.933594 84.265625 135.132812 48.398438 133.800781 L 41 133.199219 L 36 126.398438 L 31.398438 119 C 29.265625 115.535156 28.066406 113 27.800781 111.398438 C 27.398438 107.800781 27.398438 105.132812 27.800781 103.398438 C 28.464844 101.265625 30.132812 99.535156 32.800781 98.199219 C 37.332031 96.066406 44.199219 93.464844 53.398438 90.398438 C 60.199219 86.667969 63.464844 80.066406 63.199219 70.601562 C 63.066406 66.066406 68.535156 61.734375 79.601562 57.601562 C 83.066406 56.265625 91.933594 55 106.199219 53.800781 C 117.535156 52.867188 125.667969 50.066406 130.601562 45.398438 C 134.867188 41.535156 138.867188 41.132812 142.601562 44.199219 "/>
<path style=" stroke:none;fill-rule:nonzero;fill:rgb(0%,0%,0%);fill-opacity:1;" d="M 104.199219 80 C 104.199219 82.265625 103.398438 84.265625 101.800781 86 C 100.199219 87.601562 98.199219 88.398438 95.800781 88.398438 C 93.535156 88.398438 91.535156 87.601562 89.800781 86 C 88.199219 84.265625 87.398438 82.265625 87.398438 80 C 87.398438 77.734375 88.199219 75.734375 89.800781 74 C 91.535156 72.398438 93.535156 71.601562 95.800781 71.601562 C 98.199219 71.601562 100.199219 72.398438 101.800781 74 C 103.398438 75.734375 104.199219 77.734375 104.199219 80 "/>
<path style=" stroke:none;fill-rule:nonzero;fill:rgb(100%,100%,72.156863%);fill-opacity:1;" d="M 35 118.601562 C 37.667969 117.398438 41.265625 116.398438 45.800781 115.601562 L 56.800781 113.199219 L 74.398438 111.398438 L 35 118.601562 "/>
<path style=" stroke:none;fill-rule:nonzero;fill:rgb(92.156863%,81.960784%,5.882353%);fill-opacity:1;" d="M 34.199219 119 L 34.601562 118.199219 C 46.867188 113.265625 60.265625 110.800781 74.800781 110.800781 C 75.734375 110.800781 75.535156 111.199219 74.199219 112 C 59.535156 112.265625 46.667969 114.667969 35.601562 119.199219 L 34.199219 119 "/>
<path style=" stroke:none;fill-rule:nonzero;fill:rgb(45.882353%,30.196078%,14.117647%);fill-opacity:1;" d="M 67.199219 93 C 71.199219 98.734375 74.066406 104.265625 75.800781 109.601562 C 78.199219 117.332031 78.734375 125.867188 77.398438 135.199219 L 63.601562 132.199219 C 65.464844 127.667969 66.265625 121.398438 66 113.398438 C 65.867188 110.464844 64.601562 107.066406 62.199219 103.199219 L 56 94 L 61.199219 88.601562 C 62.535156 88.332031 63.734375 88.667969 64.800781 89.601562 L 67.199219 93 "/>
<path style=" stroke:none;fill-rule:nonzero;fill:rgb(38.039216%,22.352941%,9.019608%);fill-opacity:1;" d="M 61.199219 89.601562 L 58 92.800781 C 57.464844 93.464844 57.800781 94.734375 59 96.601562 L 61.601562 100.199219 C 66.265625 107.800781 67.867188 115.800781 66.398438 124.199219 L 65.199219 128.800781 C 64.800781 130.398438 64.933594 131.265625 65.601562 131.398438 L 74.199219 133.199219 L 77.601562 133.398438 L 77 128.601562 C 77.132812 122.464844 76.398438 116.199219 74.800781 109.800781 C 72.398438 102.734375 69.199219 96.734375 65.199219 91.800781 C 63.734375 89.933594 62.398438 89.199219 61.199219 89.601562 M 55.199219 93.800781 C 58.800781 86.601562 63.132812 86.132812 68.199219 92.398438 C 71.265625 96.398438 74.132812 102 76.800781 109.199219 L 76.800781 109.601562 C 78.933594 117.464844 79.464844 125.933594 78.398438 135 L 77.800781 135.800781 L 76.800781 135.800781 C 75.199219 134.867188 73 134.132812 70.199219 133.601562 L 63.398438 132.800781 L 62.800781 132.800781 L 62.601562 132 C 65.667969 123.199219 66.332031 116.199219 64.601562 111 C 63.535156 107.800781 60.398438 102.265625 55.199219 94.398438 L 55.199219 93.800781 "/>
<path style=" stroke:none;fill-rule:nonzero;fill:rgb(45.882353%,30.196078%,14.117647%);fill-opacity:1;" d="M 111.199219 289.398438 L 113 279.601562 L 114 274.199219 C 114.667969 272.332031 115.867188 271.332031 117.601562 271.199219 L 124.199219 270.398438 L 130.199219 270.199219 L 133 269.199219 C 133.800781 269.464844 134.332031 271.066406 134.601562 274 L 134.800781 279.601562 L 135.601562 284 C 135.867188 286 135.667969 287.398438 135 288.199219 L 131.601562 288.800781 L 126.800781 289.199219 L 125.601562 289.398438 L 119 289.199219 L 111.199219 289.398438 "/>
<path style=" stroke:none;fill-rule:nonzero;fill:rgb(38.039216%,22.352941%,9.019608%);fill-opacity:1;" d="M 113 290.199219 L 110.398438 289.800781 L 110.199219 289.398438 L 111.601562 279.398438 C 112.265625 275.132812 113.734375 272.332031 116 271 L 126 270 L 129.800781 269.199219 L 134 269 C 135.066406 269.535156 135.734375 271.601562 136 275.199219 L 136.398438 282.601562 C 136.933594 285.933594 136.265625 288 134.398438 288.800781 L 126.800781 289.800781 L 126.601562 289.800781 L 121.199219 290 L 115.601562 290 L 113 290.199219 M 113.398438 284 L 112 288.800781 L 127 288.601562 L 127.398438 288.601562 L 132 288.199219 C 133.734375 288.332031 134.667969 287.601562 134.800781 286 L 134.199219 282 L 133.800781 276.199219 L 133.398438 272.601562 C 133.132812 270.734375 132.535156 269.933594 131.601562 270.199219 L 125.398438 271 C 119.398438 271 116 271.800781 115.199219 273.398438 L 114 278.398438 L 113.398438 284 "/>
<path style=" stroke:none;fill-rule:nonzero;fill:rgb(97.647059%,92.54902%,13.72549%);fill-opacity:1;" d="M 265.601562 180.199219 C 265.734375 174.734375 267.601562 172.464844 271.199219 173.398438 C 273.066406 173.800781 276.332031 175.734375 281 179.199219 L 285.601562 183.601562 L 288.601562 188.199219 L 290.398438 189.800781 L 292.199219 191.800781 L 288.398438 190.601562 L 290 192.800781 L 291.398438 194.800781 L 288.800781 194 L 284.800781 192.601562 L 286.800781 196.199219 L 289 201 L 282.601562 198.601562 L 285.199219 205.601562 L 281.398438 204 L 283.601562 209.199219 L 285.398438 212.398438 L 280.199219 207.601562 L 275 202.800781 C 268.734375 196.132812 265.601562 189.199219 265.601562 182 L 265.601562 180.199219 "/>
<path style="fill:none;stroke-width:1;stroke-linecap:butt;stroke-linejoin:miter;stroke:rgb(97.647059%,81.960784%,13.72549%);stroke-opacity:1;stroke-miterlimit:4;" d="M 66.750391 45.9 C 66.750391 47.699805 67.533594 49.433203 69.1 51.100195 L 70.399805 52.300391 L 71.699609 53.499609 L 71.250391 52.699805 L 70.699609 51.4 L 71.649805 51.800391 L 71.000391 50.050391 L 72.6 50.65 L 72.050195 49.449805 L 71.550195 48.550391 L 72.550195 48.9 L 73.199609 49.100195 L 72.85 48.600195 L 72.449609 48.050391 L 73.399805 48.350195 L 72.949609 47.850195 L 72.500391 47.449805 L 71.750391 46.300391 L 70.6 45.199805 C 69.433008 44.333594 68.616602 43.850195 68.149805 43.749609 C 67.250391 43.516211 66.783594 44.083594 66.750391 45.449805 Z M 66.750391 45.9 " transform="matrix(4,0,0,4,-1.4,-1.6)"/>
<path style=" stroke:none;fill-rule:nonzero;fill:rgb(92.156863%,81.960784%,5.882353%);fill-opacity:1;" d="M 135 53.199219 L 135.601562 53.398438 C 135.332031 58.332031 134.867188 61.398438 134.199219 62.601562 L 132.398438 63 L 133.601562 54.398438 C 130.933594 55.199219 129 56.132812 127.800781 57.199219 L 126.601562 57.601562 L 126 57.199219 C 127.734375 55.734375 130.464844 54.464844 134.199219 53.398438 L 135 53.199219 "/>
<path style=" stroke:none;fill-rule:nonzero;fill:rgb(45.882353%,30.196078%,14.117647%);fill-opacity:1;" d="M 93 287.800781 C 76.734375 288.867188 66.132812 286.601562 61.199219 281 L 65.800781 276.398438 L 70 271.398438 L 75.398438 266.800781 L 93.800781 269.800781 C 94.066406 277.398438 93.800781 283.398438 93 287.800781 "/>
<path style=" stroke:none;fill-rule:nonzero;fill:rgb(38.039216%,22.352941%,9.019608%);fill-opacity:1;" d="M 94.800781 269.601562 C 95.066406 276.265625 94.734375 282.265625 93.800781 287.601562 L 92.601562 288 L 92.199219 288.199219 C 76.332031 289.132812 65.734375 286.867188 60.398438 281.398438 L 60.398438 281 L 67.800781 273 L 74.199219 267.199219 L 76.398438 266.398438 L 94.601562 269.398438 L 94.800781 269.601562 M 91.398438 270 L 75.800781 267.398438 L 74.199219 268.601562 C 70.867188 271.398438 68.535156 273.734375 67.199219 275.601562 L 63.601562 279.800781 C 62.535156 280.601562 62.601562 281.464844 63.800781 282.398438 L 66.398438 284 C 72.800781 286.933594 81.398438 288.132812 92.199219 287.601562 L 92.800781 273.800781 L 93 271 L 91.398438 270 "/>
<path style=" stroke:none;fill-rule:nonzero;fill:rgb(45.882353%,30.196078%,14.117647%);fill-opacity:1;" d="M 209.601562 292.199219 C 204.132812 291.265625 201.535156 290.535156 201.800781 290 L 206.601562 284 L 211.800781 278.601562 C 213.265625 277.535156 215 276.933594 217 276.800781 L 222.800781 276.601562 L 227 276.398438 L 230.800781 277.199219 L 232.199219 278.800781 L 232.199219 280.800781 L 233 286.199219 L 234 291.601562 L 229.199219 290.800781 L 225.398438 291.800781 L 212.601562 292.800781 L 209.601562 292.199219 "/>
<path style=" stroke:none;fill-rule:nonzero;fill:rgb(38.039216%,22.352941%,9.019608%);fill-opacity:1;" d="M 201 289.800781 L 205.800781 283.800781 L 211.199219 278.199219 C 213.601562 276.734375 216.933594 276 221.199219 276 L 227.398438 275.800781 C 229.667969 275.933594 231.464844 276.601562 232.800781 277.800781 C 233.601562 278.464844 233.867188 280.601562 233.601562 284.199219 L 235 291.398438 L 234.398438 292.199219 L 233.398438 292.199219 C 231.535156 291.667969 229.132812 291.667969 226.199219 292.199219 L 218.800781 293.199219 L 209 292.800781 L 204.800781 292.199219 C 202.667969 291.800781 201.398438 291.199219 201 290.398438 L 201 289.800781 M 210 291.601562 L 210.199219 291.601562 L 229.199219 290.199219 L 232.800781 290.601562 L 231.199219 281 C 230.933594 277.933594 226.667969 276.667969 218.398438 277.199219 C 215.332031 277.332031 212.535156 278.667969 210 281.199219 L 204 288.800781 C 203.332031 289.601562 204.066406 290.265625 206.199219 290.800781 L 210 291.601562 "/>
</g>
</svg>
