<?xml version="1.0" encoding="UTF-8"?>
<svg xmlns="http://www.w3.org/2000/svg" xmlns:xlink="http://www.w3.org/1999/xlink" width="96pt" height="96pt" viewBox="0 0 96 96" version="1.1">
<g id="surface1">
<path style=" stroke:none;fill-rule:nonzero;fill:rgb(0%,0%,0%);fill-opacity:1;" d="M 80.601562 13.800781 C 89.667969 23 94.199219 34.132812 94.199219 47.199219 C 94.199219 60.265625 89.667969 71.332031 80.601562 80.398438 C 71.265625 89.601562 60.066406 94.199219 47 94.199219 C 34.199219 94.199219 23.132812 89.601562 13.800781 80.398438 C 4.601562 71.332031 0 60.265625 0 47.199219 C 0 34.265625 4.601562 23.132812 13.800781 13.800781 C 23.132812 4.601562 34.199219 0 47 0 C 60.066406 0 71.265625 4.601562 80.601562 13.800781 "/>
<path style=" stroke:none;fill-rule:nonzero;fill:rgb(100%,100%,100%);fill-opacity:1;" d="M 88.601562 47.199219 C 88.601562 58.667969 84.535156 68.398438 76.398438 76.398438 C 68.398438 84.535156 58.601562 88.601562 47 88.601562 C 35.667969 88.601562 26 84.535156 18 76.398438 C 9.867188 68.398438 5.800781 58.667969 5.800781 47.199219 C 5.800781 35.734375 9.867188 26 18 18 C 26 9.867188 35.667969 5.800781 47 5.800781 C 58.601562 5.800781 68.398438 9.867188 76.398438 18 C 84.535156 26 88.601562 35.734375 88.601562 47.199219 "/>
<path style=" stroke:none;fill-rule:nonzero;fill:rgb(0%,0%,0%);fill-opacity:1;" d="M 76.601562 48 C 75.933594 54.132812 74.199219 59.199219 71.398438 63.199219 C 68.601562 67.199219 65.464844 69.199219 62 69.199219 L 61.199219 69.199219 L 58 68 L 36.601562 58.398438 L 36.199219 59.601562 L 34.199219 62.199219 L 34.398438 64.398438 L 34.800781 65.199219 L 35 69.601562 C 34.199219 70.933594 32.933594 71.601562 31.199219 71.601562 L 29.398438 71.601562 C 24.464844 71.601562 21.332031 70.535156 20 68.398438 C 19.199219 66.800781 19.398438 65.199219 20.601562 63.601562 L 21.398438 60.398438 L 21.398438 59.199219 L 22.800781 52.199219 L 20.398438 51 L 18.800781 50.601562 C 16.667969 50.464844 14.867188 49.332031 13.398438 47.199219 C 12.066406 45.199219 11.398438 42.933594 11.398438 40.398438 C 11.398438 37.867188 12.132812 35.535156 13.601562 33.398438 C 15.332031 31.132812 17.332031 30 19.601562 30 L 65.601562 23.800781 L 66.398438 23.800781 C 70.132812 24.332031 72.933594 26.867188 74.800781 31.398438 C 76.667969 35.933594 77.265625 41.464844 76.601562 48 "/>
<path style=" stroke:none;fill-rule:nonzero;fill:rgb(0%,100%,0%);fill-opacity:1;" d="M 32.601562 49.800781 L 31.601562 58.199219 L 31.601562 65 L 32.601562 67.398438 L 31 68.601562 L 26.398438 68.398438 C 24.265625 68.265625 23.066406 67.734375 22.800781 66.800781 C 22.535156 66.535156 22.667969 65.933594 23.199219 65 L 24.398438 59.601562 L 26.199219 48.800781 L 32.601562 49.800781 "/>
<path style=" stroke:none;fill-rule:nonzero;fill:rgb(0%,85.882353%,0%);fill-opacity:1;" d="M 26.199219 48.199219 L 27 48.800781 L 25.199219 60.601562 L 24 65 C 23.199219 66.199219 23.535156 67.066406 25 67.601562 L 28.199219 68.199219 L 31.601562 67.398438 L 31 66 L 30.601562 62.199219 L 31.800781 50 C 31.933594 49.464844 32.265625 49.199219 32.800781 49.199219 L 33.601562 49.800781 L 32.398438 59.601562 C 32.265625 60.933594 32.601562 63.535156 33.398438 67.398438 C 33.667969 68.734375 32 69.398438 28.398438 69.398438 C 24 69 21.800781 67.800781 21.800781 65.800781 L 22.398438 63.800781 L 23.199219 62 L 25.199219 49 L 26.199219 48.199219 "/>
<path style=" stroke:none;fill-rule:nonzero;fill:rgb(0%,100%,0%);fill-opacity:1;" d="M 29.398438 57.800781 L 31 58.199219 C 32.066406 57.535156 32.601562 56 32.601562 53.601562 L 34.398438 54.398438 L 33.601562 58.601562 L 31.601562 60.398438 L 29.199219 59.800781 L 29.398438 57.800781 "/>
<path style=" stroke:none;fill-rule:nonzero;fill:rgb(0%,85.882353%,0%);fill-opacity:1;" d="M 32.199219 53.199219 L 33 53.199219 L 35 54 L 35.199219 54.398438 C 34.933594 57.199219 34.332031 59.066406 33.398438 60 L 28.199219 60.199219 L 28.800781 59.601562 L 29.800781 59.398438 C 31.667969 61.132812 32.867188 59.667969 33.398438 55 L 33.601562 54.800781 L 33.199219 54.800781 L 32.398438 57.601562 C 31.464844 58.933594 30.199219 59.199219 28.601562 58.398438 C 28.199219 58.265625 28.265625 58 28.800781 57.601562 L 30 57.398438 L 31 57.199219 L 31.398438 55.398438 L 31.601562 53.800781 L 32.199219 53.199219 "/>
<path style=" stroke:none;fill-rule:nonzero;fill:rgb(81.176471%,100%,78.823529%);fill-opacity:1;" d="M 29.398438 57 L 30 53.800781 L 30.800781 51.199219 L 32.199219 51.398438 L 31.800781 53.800781 L 30.398438 56.199219 L 29.398438 57 "/>
<path style=" stroke:none;fill-rule:nonzero;fill:rgb(0%,58.039216%,0%);fill-opacity:1;" d="M 19 47.601562 C 17.667969 47.601562 16.535156 46.867188 15.601562 45.398438 C 14.800781 43.933594 14.398438 42.265625 14.398438 40.398438 C 14.398438 38.667969 14.933594 37 16 35.398438 C 17.199219 33.800781 18.398438 33 19.601562 33 L 19 47.601562 "/>
<path style=" stroke:none;fill-rule:nonzero;fill:rgb(0%,45.098039%,0%);fill-opacity:1;" d="M 20.398438 33 L 19.601562 33.601562 C 16.667969 34 15.132812 36.265625 15 40.398438 C 15 44.535156 16.398438 46.800781 19.199219 47.199219 L 19.601562 47.601562 L 18.601562 48.199219 C 14.734375 47.667969 13 45.066406 13.398438 40.398438 C 13.800781 35.464844 15.867188 32.800781 19.601562 32.398438 L 20.398438 33 "/>
<path style=" stroke:none;fill-rule:nonzero;fill:rgb(0%,58.039216%,0%);fill-opacity:1;" d="M 72.601562 47.398438 C 72.066406 52.199219 70.734375 56.199219 68.601562 59.398438 C 66.464844 62.601562 64.199219 64.066406 61.800781 63.800781 C 59.535156 63.667969 57.734375 61.800781 56.398438 58.199219 C 55.066406 54.464844 54.667969 50.265625 55.199219 45.601562 C 55.867188 40.800781 57.199219 36.800781 59.199219 33.601562 C 61.332031 30.398438 63.601562 28.933594 66 29.199219 C 68.398438 29.464844 70.199219 31.332031 71.398438 34.800781 C 72.734375 38.398438 73.132812 42.601562 72.601562 47.398438 "/>
<path style=" stroke:none;fill-rule:nonzero;fill:rgb(0%,45.098039%,0%);fill-opacity:1;" d="M 62.800781 64.199219 C 59.066406 64.867188 56.535156 62.601562 55.199219 57.398438 C 54 53.398438 53.734375 49.535156 54.398438 45.800781 C 55.867188 35.535156 59.332031 29.867188 64.800781 28.800781 C 68.667969 28.132812 71.265625 30.398438 72.601562 35.601562 C 73.535156 39.066406 73.800781 43 73.398438 47.398438 C 71.667969 57.535156 68.132812 63.132812 62.800781 64.199219 M 60 33.601562 C 57.867188 37.332031 56.535156 41.199219 56 45.199219 C 55.464844 52.667969 56.332031 57.867188 58.601562 60.800781 C 61.667969 64.800781 64.667969 64.398438 67.601562 59.601562 C 69.601562 56.132812 70.933594 52.199219 71.601562 47.800781 C 72.265625 40.199219 71.464844 35 69.199219 32.199219 C 66.132812 28.332031 63.066406 28.800781 60 33.601562 "/>
<path style=" stroke:none;fill-rule:nonzero;fill:rgb(0%,100%,0%);fill-opacity:1;" d="M 48.601562 47.601562 L 48.601562 44.398438 L 49.800781 38.601562 L 58.398438 41.398438 C 61.867188 42.734375 63.734375 44.332031 64 46.199219 C 64.535156 49.535156 62.265625 51.199219 57.199219 51.199219 L 46.800781 50.398438 L 48.601562 47.601562 "/>
<path style=" stroke:none;fill-rule:nonzero;fill:rgb(0%,85.882353%,0%);fill-opacity:1;" d="M 63.199219 46.800781 C 63.066406 45.066406 62.066406 43.734375 60.199219 42.800781 C 56.601562 41.199219 53.332031 40.066406 50.398438 39.398438 L 49.398438 46.800781 L 48.199219 50 L 53.800781 50.601562 L 60.398438 50.398438 C 62.398438 49.867188 63.332031 48.667969 63.199219 46.800781 M 63.199219 50.398438 L 54.800781 51.800781 L 46.398438 50.800781 L 45.800781 50.601562 L 46.199219 50 L 47.601562 47.398438 L 47.601562 44.601562 L 48.800781 38.800781 C 49.199219 38.265625 49.667969 38 50.199219 38 C 57.265625 39.199219 61.933594 41.265625 64.199219 44.199219 C 65 45.132812 65.265625 46.265625 65 47.601562 L 63.199219 50.398438 "/>
<path style=" stroke:none;fill-rule:nonzero;fill:rgb(0%,100%,0%);fill-opacity:1;" d="M 66.601562 47.398438 C 66.601562 49.535156 65.601562 50.601562 63.601562 50.601562 C 62.800781 50.601562 62.132812 50.265625 61.601562 49.601562 L 60.601562 47.398438 C 60.601562 46.464844 60.933594 45.734375 61.601562 45.199219 C 62.132812 44.535156 62.800781 44.199219 63.601562 44.199219 C 65.601562 44.199219 66.601562 45.265625 66.601562 47.398438 "/>
<path style=" stroke:none;fill-rule:nonzero;fill:rgb(0%,85.882353%,0%);fill-opacity:1;" d="M 66 47.398438 L 64 45 C 63.332031 44.867188 62.667969 45.066406 62 45.601562 L 61.601562 47.601562 C 61.867188 49.066406 62.601562 49.800781 63.800781 49.800781 C 65.132812 49.800781 65.867188 49.066406 66 47.601562 L 66 47.398438 M 67.601562 47.398438 C 67.332031 49.667969 65.933594 50.800781 63.398438 50.800781 C 60.867188 50.933594 59.667969 49.800781 59.800781 47.398438 C 59.933594 45.265625 61.199219 44.132812 63.601562 44 C 66 43.734375 67.332031 44.734375 67.601562 47 L 67.601562 47.398438 "/>
<path style=" stroke:none;fill-rule:nonzero;fill:rgb(0%,100%,0%);fill-opacity:1;" d="M 57.800781 33 C 55.800781 36.464844 54.535156 40.601562 54 45.398438 C 53.601562 49.933594 53.867188 54.066406 54.800781 57.800781 C 55.734375 61.667969 57.199219 64.199219 59.199219 65.398438 L 21.199219 48.199219 C 20.132812 48.199219 19.066406 47.398438 18 45.800781 C 17.199219 44.066406 16.800781 42.265625 16.800781 40.398438 C 16.800781 38.535156 17.332031 36.734375 18.398438 35 C 19.332031 33.398438 20.398438 32.601562 21.601562 32.601562 L 64.398438 26.800781 C 62 27.464844 59.800781 29.535156 57.800781 33 "/>
<path style=" stroke:none;fill-rule:nonzero;fill:rgb(0%,85.882353%,0%);fill-opacity:1;" d="M 61.601562 27.601562 L 21.199219 33 C 18.265625 33.398438 17.132812 35.734375 17.800781 40 C 18.199219 44.265625 19.601562 46.933594 22 48 L 56 63.398438 L 54.601562 60.601562 C 53.265625 56.332031 52.800781 51.332031 53.199219 45.601562 C 54.535156 35.734375 57.464844 29.734375 62 27.601562 L 61.601562 27.601562 M 64.800781 26.601562 C 65.734375 26.601562 65.667969 26.734375 64.601562 27 C 59.535156 29 56.332031 35.066406 55 45.199219 C 54.199219 54.800781 55.867188 61.464844 60 65.199219 L 58.398438 65.601562 L 20.398438 48.601562 C 17.601562 47.265625 16.132812 44.933594 16 41.601562 C 16 38.535156 17 35.800781 19 33.398438 C 20.332031 32.066406 23.265625 31.199219 27.800781 30.800781 L 37.199219 30.199219 L 64.800781 26.601562 "/>
<path style=" stroke:none;fill-rule:nonzero;fill:rgb(0%,100%,0%);fill-opacity:1;" d="M 72.601562 33.398438 C 73.933594 37.398438 74.332031 42.132812 73.800781 47.601562 C 73.132812 53.066406 71.601562 57.667969 69.199219 61.398438 C 66.800781 65 64.265625 66.667969 61.601562 66.398438 C 58.933594 66 56.800781 63.734375 55.199219 59.601562 C 53.867188 55.601562 53.464844 50.867188 54 45.398438 C 54.667969 39.933594 56.132812 35.398438 58.398438 31.800781 C 60.800781 28.199219 63.398438 26.464844 66.199219 26.601562 C 68.867188 27 71 29.265625 72.601562 33.398438 M 66 29.199219 C 63.601562 28.933594 61.332031 30.398438 59.199219 33.601562 C 57.199219 36.800781 55.867188 40.800781 55.199219 45.601562 C 54.667969 50.265625 55.066406 54.464844 56.398438 58.199219 C 57.734375 61.800781 59.535156 63.667969 61.800781 63.800781 C 64.199219 64.066406 66.464844 62.601562 68.601562 59.398438 C 70.734375 56.199219 72.066406 52.199219 72.601562 47.398438 C 73.132812 42.601562 72.734375 38.398438 71.398438 34.800781 C 70.199219 31.332031 68.398438 29.464844 66 29.199219 "/>
<path style=" stroke:none;fill-rule:nonzero;fill:rgb(0%,85.882353%,0%);fill-opacity:1;" d="M 66.601562 26.398438 L 67 26.601562 C 74.066406 28.601562 76.667969 36.132812 74.800781 49.199219 C 72.800781 62.800781 68.199219 68.667969 61 66.800781 C 53.800781 64.800781 51 57.601562 52.601562 45.199219 C 54.332031 33.066406 58.800781 26.800781 66 26.398438 L 66.601562 26.398438 M 57.199219 35.398438 C 55.601562 39.265625 54.734375 43.398438 54.601562 47.800781 C 54.601562 53.132812 55.132812 57 56.199219 59.398438 C 57.265625 62.199219 58.535156 64.132812 60 65.199219 C 62.265625 67.066406 64.667969 66.332031 67.199219 63 C 70.800781 58.199219 72.867188 51.734375 73.398438 43.601562 C 74.066406 34.265625 71.464844 28.800781 65.601562 27.199219 C 62 27.464844 59.199219 30.199219 57.199219 35.398438 "/>
<path style=" stroke:none;fill-rule:nonzero;fill:rgb(0%,85.882353%,0%);fill-opacity:1;" d="M 59.601562 34.398438 C 57.601562 38 56.398438 41.667969 56 45.398438 C 55.464844 53.800781 56.601562 59.265625 59.398438 61.800781 C 62.734375 64.734375 65.667969 63.734375 68.199219 58.800781 C 69.933594 55.601562 71.066406 51.867188 71.601562 47.601562 C 72.265625 39.199219 71.132812 33.800781 68.199219 31.398438 C 65 28.464844 62.132812 29.464844 59.601562 34.398438 M 72.800781 35.800781 C 73.601562 39 73.800781 42.867188 73.398438 47.398438 C 71.535156 58.601562 67.933594 64.265625 62.601562 64.398438 C 58.867188 64.535156 56.398438 62.132812 55.199219 57.199219 C 54 53.601562 53.734375 49.734375 54.398438 45.601562 C 54.933594 41.601562 55.867188 38.132812 57.199219 35.199219 C 59.199219 30.933594 61.800781 28.734375 65 28.601562 C 68.867188 28.464844 71.464844 30.867188 72.800781 35.800781 "/>
<path style=" stroke:none;fill-rule:nonzero;fill:rgb(81.176471%,100%,78.823529%);fill-opacity:1;" d="M 49.800781 30.199219 C 52.332031 29.800781 53.535156 30.066406 53.398438 31 C 53.398438 31.800781 52.265625 32.199219 50 32.199219 L 38.398438 33.199219 L 30 34.601562 L 26.199219 35.398438 L 22.601562 35.601562 L 21.199219 35 L 22.199219 33.800781 L 28.199219 33.398438 L 35.601562 32.199219 L 42.601562 31 L 49.800781 30.199219 "/>
<path style=" stroke:none;fill-rule:nonzero;fill:rgb(81.176471%,100%,78.823529%);fill-opacity:1;" d="M 30.601562 65.199219 L 31 66.398438 L 31.199219 67.398438 L 30.199219 68 L 28.800781 68.199219 C 26 68.199219 24.535156 67.398438 24.398438 65.800781 L 24.800781 64.398438 C 25.464844 64.265625 25.800781 64.933594 25.800781 66.398438 L 27.800781 67.398438 L 29.199219 67.398438 C 29.867188 67.398438 30.265625 67.199219 30.398438 66.800781 L 30.398438 65.199219 L 30.601562 65.199219 "/>
<path style=" stroke:none;fill-rule:nonzero;fill:rgb(0%,0%,0%);fill-opacity:1;" d="M 80.800781 39 L 73.398438 40.601562 C 71.800781 40.464844 70.601562 39.667969 69.800781 38.199219 C 69.265625 36.867188 69.332031 35.667969 70 34.601562 C 71.066406 32.734375 73.464844 31.667969 77.199219 31.398438 L 77.601562 31.398438 L 79.601562 31.199219 L 81.199219 31.398438 C 83.066406 32.066406 84 33.199219 84 34.800781 C 84 36.667969 82.933594 38.066406 80.800781 39 "/>
<path style=" stroke:none;fill-rule:nonzero;fill:rgb(85.098039%,87.843137%,12.941176%);fill-opacity:1;" d="M 79.398438 34 L 80.199219 34.199219 L 80.800781 35.199219 L 79.398438 36.199219 L 75.800781 37.601562 L 72.601562 37.199219 C 71.933594 35.601562 73.601562 34.601562 77.601562 34.199219 L 79.398438 34 "/>
<path style=" stroke:none;fill-rule:nonzero;fill:rgb(0%,0%,0%);fill-opacity:1;" d="M 81 55 L 78 54.601562 L 77.601562 54.398438 L 76.800781 54.398438 L 71 53 C 68.601562 51.933594 67.464844 50.332031 67.601562 48.199219 L 68.601562 45.800781 C 69.535156 44.734375 71.332031 44.199219 74 44.199219 C 80.132812 44.867188 83.933594 46.332031 85.398438 48.601562 C 86.464844 50.332031 86.601562 51.867188 85.800781 53.199219 C 84.734375 54.535156 83.132812 55.132812 81 55 "/>
<path style=" stroke:none;fill-rule:nonzero;fill:rgb(85.098039%,87.843137%,12.941176%);fill-opacity:1;" d="M 83 50 C 84.199219 52.132812 82.535156 52.667969 78 51.601562 C 72.933594 51.066406 70.398438 49.933594 70.398438 48.199219 C 70.398438 47.132812 72.332031 46.867188 76.199219 47.398438 C 80.199219 48.066406 82.464844 48.933594 83 50 "/>
<path style=" stroke:none;fill-rule:nonzero;fill:rgb(0%,0%,0%);fill-opacity:1;" d="M 73.199219 66.800781 L 70.199219 65.800781 C 67.800781 64.464844 66.199219 62.933594 65.398438 61.199219 C 64.867188 59.867188 65 58.601562 65.800781 57.398438 C 66.464844 56.332031 67.601562 55.800781 69.199219 55.800781 L 69.601562 56 C 71.066406 56.265625 73.066406 57.398438 75.601562 59.398438 C 77.464844 61.132812 78 62.867188 77.199219 64.601562 C 76.535156 66.332031 75.199219 67.066406 73.199219 66.800781 "/>
<path style=" stroke:none;fill-rule:nonzero;fill:rgb(85.098039%,87.843137%,12.941176%);fill-opacity:1;" d="M 71.800781 63.601562 L 68 60.199219 C 67.601562 59.132812 68 58.667969 69.199219 58.800781 C 70.398438 58.933594 71.867188 59.933594 73.601562 61.800781 C 74.667969 62.601562 74.933594 63.199219 74.398438 63.601562 C 73.734375 64.132812 72.867188 64.132812 71.800781 63.601562 "/>
</g>
</svg>
