<?xml version="1.0" encoding="UTF-8"?>
<svg xmlns="http://www.w3.org/2000/svg" xmlns:xlink="http://www.w3.org/1999/xlink" width="140pt" height="220pt" viewBox="0 0 140 220" version="1.1">
<defs>
<linearGradient id="linear0" gradientUnits="userSpaceOnUse" x1="-819.200012" y1="0" x2="819.200012" y2="0" gradientTransform="matrix(0.0292358,0.00744628,0.00744628,-0.0292358,108.799999,108.400002)">
<stop offset="0" style="stop-color:rgb(100%,47.058824%,0%);stop-opacity:1;"/>
<stop offset="1" style="stop-color:rgb(100%,23.529412%,0%);stop-opacity:1;"/>
</linearGradient>
<linearGradient id="linear1" gradientUnits="userSpaceOnUse" x1="-819.200012" y1="0" x2="819.200012" y2="0" gradientTransform="matrix(0.0292358,0.00744628,0.00744628,-0.0292358,108.799999,110)">
<stop offset="0" style="stop-color:rgb(100%,23.529412%,0%);stop-opacity:1;"/>
<stop offset="1" style="stop-color:rgb(100%,0%,0%);stop-opacity:1;"/>
</linearGradient>
<linearGradient id="linear2" gradientUnits="userSpaceOnUse" x1="-819.200012" y1="0" x2="819.200012" y2="0" gradientTransform="matrix(0.0283814,-0.038208,-0.038208,-0.0283814,68.600002,88.800003)">
<stop offset="0" style="stop-color:rgb(100%,47.058824%,0%);stop-opacity:1;"/>
<stop offset="1" style="stop-color:rgb(100%,0%,0%);stop-opacity:1;"/>
</linearGradient>
<linearGradient id="linear3" gradientUnits="userSpaceOnUse" x1="-819.200012" y1="0" x2="819.200012" y2="0" gradientTransform="matrix(0.0297852,-0.0332642,-0.0332642,-0.0297852,70.200001,91)">
<stop offset="0" style="stop-color:rgb(100%,47.058824%,0%);stop-opacity:1;"/>
<stop offset="1" style="stop-color:rgb(100%,0%,0%);stop-opacity:1;"/>
</linearGradient>
<linearGradient id="linear4" gradientUnits="userSpaceOnUse" x1="-819.200012" y1="0" x2="819.200012" y2="0" gradientTransform="matrix(0.0315552,-0.0292969,-0.0292969,-0.0315552,70.400002,94.199997)">
<stop offset="0" style="stop-color:rgb(100%,47.058824%,0%);stop-opacity:1;"/>
<stop offset="1" style="stop-color:rgb(100%,0%,0%);stop-opacity:1;"/>
</linearGradient>
<linearGradient id="linear5" gradientUnits="userSpaceOnUse" x1="-819.200012" y1="0" x2="819.200012" y2="0" gradientTransform="matrix(0.0324707,-0.0252686,-0.0252075,-0.0325317,69.600002,96.599998)">
<stop offset="0" style="stop-color:rgb(100%,47.058824%,0%);stop-opacity:1;"/>
<stop offset="1" style="stop-color:rgb(100%,0%,0%);stop-opacity:1;"/>
</linearGradient>
<linearGradient id="linear6" gradientUnits="userSpaceOnUse" x1="-819.200012" y1="0" x2="819.200012" y2="0" gradientTransform="matrix(0.032898,-0.0209961,-0.0209961,-0.032898,67.400002,97.199997)">
<stop offset="0" style="stop-color:rgb(100%,47.058824%,0%);stop-opacity:1;"/>
<stop offset="1" style="stop-color:rgb(100%,0%,0%);stop-opacity:1;"/>
</linearGradient>
<linearGradient id="linear7" gradientUnits="userSpaceOnUse" x1="-819.200012" y1="0" x2="819.200012" y2="0" gradientTransform="matrix(0.0325317,-0.0168457,-0.0167847,-0.0325317,65.400002,97.599998)">
<stop offset="0" style="stop-color:rgb(100%,47.058824%,0%);stop-opacity:1;"/>
<stop offset="1" style="stop-color:rgb(100%,0%,0%);stop-opacity:1;"/>
</linearGradient>
<linearGradient id="linear8" gradientUnits="userSpaceOnUse" x1="-819.200012" y1="0" x2="819.200012" y2="0" gradientTransform="matrix(0.0315552,-0.0128174,-0.0128174,-0.0316162,63.600002,97.599998)">
<stop offset="0" style="stop-color:rgb(100%,47.058824%,0%);stop-opacity:1;"/>
<stop offset="1" style="stop-color:rgb(100%,0%,0%);stop-opacity:1;"/>
</linearGradient>
<linearGradient id="linear9" gradientUnits="userSpaceOnUse" x1="-819.200012" y1="0" x2="819.200012" y2="0" gradientTransform="matrix(0.0300293,-0.00909424,-0.00909424,-0.0300293,61.799999,97.400002)">
<stop offset="0" style="stop-color:rgb(100%,47.058824%,0%);stop-opacity:1;"/>
<stop offset="1" style="stop-color:rgb(100%,0%,0%);stop-opacity:1;"/>
</linearGradient>
<linearGradient id="linear10" gradientUnits="userSpaceOnUse" x1="-819.200012" y1="0" x2="819.200012" y2="0" gradientTransform="matrix(0.0279541,-0.00573732,-0.00573732,-0.0279541,60.200001,96.800003)">
<stop offset="0" style="stop-color:rgb(100%,47.058824%,0%);stop-opacity:1;"/>
<stop offset="1" style="stop-color:rgb(100%,0%,0%);stop-opacity:1;"/>
</linearGradient>
<linearGradient id="linear11" gradientUnits="userSpaceOnUse" x1="-819.200012" y1="0" x2="819.200012" y2="0" gradientTransform="matrix(0.0255127,-0.00292969,-0.00292969,-0.0255127,58.799999,96.199997)">
<stop offset="0" style="stop-color:rgb(100%,47.058824%,0%);stop-opacity:1;"/>
<stop offset="1" style="stop-color:rgb(100%,0%,0%);stop-opacity:1;"/>
</linearGradient>
<linearGradient id="linear12" gradientUnits="userSpaceOnUse" x1="-819.200012" y1="0" x2="819.200012" y2="0" gradientTransform="matrix(0.0228272,-0.00048828,-0.00048828,-0.0228272,57.799999,95.400002)">
<stop offset="0" style="stop-color:rgb(100%,47.058824%,0%);stop-opacity:1;"/>
<stop offset="1" style="stop-color:rgb(100%,0%,0%);stop-opacity:1;"/>
</linearGradient>
<linearGradient id="linear13" gradientUnits="userSpaceOnUse" x1="-819.200012" y1="0" x2="819.200012" y2="0" gradientTransform="matrix(0.0216675,0.00146484,0.00146484,-0.0217285,58.600002,94.599998)">
<stop offset="0" style="stop-color:rgb(100%,47.058824%,0%);stop-opacity:1;"/>
<stop offset="1" style="stop-color:rgb(100%,0%,0%);stop-opacity:1;"/>
</linearGradient>
<linearGradient id="linear14" gradientUnits="userSpaceOnUse" x1="-819.200012" y1="0" x2="819.200012" y2="0" gradientTransform="matrix(0.020752,0.0032959,0.0032959,-0.020813,60.200001,94.199997)">
<stop offset="0" style="stop-color:rgb(100%,47.058824%,0%);stop-opacity:1;"/>
<stop offset="1" style="stop-color:rgb(100%,0%,0%);stop-opacity:1;"/>
</linearGradient>
<linearGradient id="linear15" gradientUnits="userSpaceOnUse" x1="-819.200012" y1="0" x2="819.200012" y2="0" gradientTransform="matrix(0.0194092,0.00494384,0.00494384,-0.0194702,61.400002,94.199997)">
<stop offset="0" style="stop-color:rgb(100%,47.058824%,0%);stop-opacity:1;"/>
<stop offset="1" style="stop-color:rgb(100%,0%,0%);stop-opacity:1;"/>
</linearGradient>
<linearGradient id="linear16" gradientUnits="userSpaceOnUse" x1="-819.200012" y1="0" x2="819.200012" y2="0" gradientTransform="matrix(-0.0373535,0.0343628,0.0343018,0.0373535,70,164.399994)">
<stop offset="0" style="stop-color:rgb(100%,47.058824%,0%);stop-opacity:1;"/>
<stop offset="1" style="stop-color:rgb(100%,23.529412%,0%);stop-opacity:1;"/>
</linearGradient>
<linearGradient id="linear17" gradientUnits="userSpaceOnUse" x1="-819.200012" y1="0" x2="819.200012" y2="0" gradientTransform="matrix(-0.044922,0.0349121,0.0349121,0.044922,88.000004,155.399994)">
<stop offset="0" style="stop-color:rgb(100%,23.529412%,0%);stop-opacity:1;"/>
<stop offset="1" style="stop-color:rgb(100%,0%,0%);stop-opacity:1;"/>
</linearGradient>
<linearGradient id="linear18" gradientUnits="userSpaceOnUse" x1="-819.200012" y1="0" x2="819.200012" y2="0" gradientTransform="matrix(-0.0101318,0.00933836,0.00927736,0.0101318,28.000001,183.399994)">
<stop offset="0" style="stop-color:rgb(100%,47.058824%,0%);stop-opacity:1;"/>
<stop offset="1" style="stop-color:rgb(100%,23.529412%,0%);stop-opacity:1;"/>
</linearGradient>
</defs>
<g id="surface1">
<path style="fill:none;stroke-width:3;stroke-linecap:butt;stroke-linejoin:miter;stroke:rgb(0%,0%,0%);stroke-opacity:1;stroke-miterlimit:4;" d="M 1.499804 25 L 13.249804 34.599609 L 14.049609 34.950195 L 14.95 34.799805 L 15.60039 34.200195 L 15.85039 33.349609 L 15.85039 27.400391 C 17.116992 27.400391 18.566211 27.650391 20.2 28.150391 C 22.299609 28.783203 23.416797 29.566406 23.549609 30.5 C 23.45 31.400391 22.900195 32.25 21.900195 33.049805 C 20.133594 34.483398 17.116992 35.700195 12.85039 36.700195 C 9.216601 37.533203 6.016406 37.950195 3.249804 37.950195 L 3.249804 52.049805 L 3.749804 52.75 C 8.749804 52.75 13.133594 51.866211 16.900195 50.099609 C 20.2 48.566406 22.900195 46.450195 24.999804 43.75 C 26.799609 41.416992 28.033008 38.866211 28.7 36.099609 C 29.266406 33.566406 29.283008 31.349609 28.749804 29.450195 C 28.283008 27.75 27.583789 26.299805 26.650195 25.099609 L 26.150195 24.400391 C 24.95 22.833008 23.333789 21.599609 21.299609 20.700195 C 19.999804 20.133789 18.183398 19.599609 15.85039 19.099609 L 15.85039 14.25 L 15.60039 13.400391 L 14.95 12.799805 L 14.049609 12.650391 C 13.749804 12.683594 13.483203 12.799805 13.249804 13 L 1.499804 22.549805 C 1.133594 22.883789 0.95 23.299805 0.95 23.799805 C 0.95 24.299805 1.133594 24.700195 1.499804 25 Z M 1.499804 25 " transform="matrix(4,0,0,4,16.200001,0)"/>
<path style=" stroke:none;fill-rule:nonzero;fill:url(#linear0);" d="M 97.601562 111.199219 C 90.933594 109.066406 84.933594 108 79.601562 108 L 79.601562 76.398438 C 88.933594 78.398438 96.199219 80.535156 101.398438 82.800781 C 109.535156 86.398438 116 91.332031 120.800781 97.601562 C 123.066406 101.601562 121.933594 107.667969 117.398438 115.800781 C 113.398438 123.265625 108.867188 128.734375 103.800781 132.199219 C 108.199219 128.601562 110.398438 124.933594 110.398438 121.199219 C 110.398438 117.199219 106.132812 113.867188 97.601562 111.199219 "/>
<path style=" stroke:none;fill-rule:nonzero;fill:url(#linear1);" d="M 97.601562 112.601562 C 90.933594 110.601562 84.933594 109.601562 79.601562 109.601562 L 79.601562 78 C 88.800781 79.867188 96.066406 82 101.398438 84.398438 C 109.535156 87.867188 116 92.734375 120.800781 99 C 123.066406 103 121.933594 109.132812 117.398438 117.398438 C 113.398438 124.867188 108.867188 130.265625 103.800781 133.601562 C 108.199219 130.132812 110.398438 126.535156 110.398438 122.800781 C 110.398438 118.667969 106.132812 115.265625 97.601562 112.601562 "/>
<path style=" stroke:none;fill-rule:nonzero;fill:url(#linear2);" d="M 72.398438 50.601562 L 76 51.199219 L 78.601562 53.601562 L 79.601562 57 L 79.601562 133.398438 L 78.601562 136.800781 L 76 139.199219 L 72.398438 139.800781 L 69.199219 138.398438 L 22.199219 100 C 20.734375 98.800781 20 97.199219 20 95.199219 C 20 93.199219 20.734375 91.535156 22.199219 90.199219 L 69.199219 52 C 70.132812 51.199219 71.199219 50.734375 72.398438 50.601562 "/>
<path style=" stroke:none;fill-rule:nonzero;fill:url(#linear3);" d="M 71.800781 52.398438 L 75.199219 53 L 77.800781 55.199219 L 78.601562 58.601562 L 78.601562 131.800781 L 77.800781 135 L 75.199219 137.398438 L 71.800781 138 L 68.800781 136.601562 L 23.800781 100 C 22.332031 98.667969 21.601562 97.066406 21.601562 95.199219 C 21.601562 93.332031 22.332031 91.734375 23.800781 90.398438 L 68.800781 53.800781 C 69.601562 53 70.601562 52.535156 71.800781 52.398438 "/>
<path style=" stroke:none;fill-rule:nonzero;fill:url(#linear4);" d="M 71.199219 54.398438 L 74.398438 54.800781 L 76.800781 57 L 77.800781 60.199219 L 77.800781 130.199219 L 76.800781 133.398438 L 74.398438 135.601562 L 71.199219 136 C 70.132812 135.867188 69.132812 135.464844 68.199219 134.800781 L 25.199219 99.800781 C 23.867188 98.601562 23.199219 97.066406 23.199219 95.199219 C 23.199219 93.332031 23.867188 91.800781 25.199219 90.601562 L 68.199219 55.601562 C 69.132812 54.800781 70.132812 54.398438 71.199219 54.398438 "/>
<path style=" stroke:none;fill-rule:nonzero;fill:url(#linear5);" d="M 70.601562 56.199219 L 73.800781 56.601562 L 76 58.800781 L 76.800781 61.601562 L 76.800781 128.601562 L 76 131.601562 L 73.800781 133.601562 L 70.601562 134.199219 C 69.535156 134.066406 68.601562 133.667969 67.800781 133 L 26.800781 99.398438 C 25.332031 98.332031 24.601562 96.933594 24.601562 95.199219 C 24.601562 93.464844 25.332031 92 26.800781 90.800781 L 67.800781 57.398438 C 68.601562 56.734375 69.535156 56.332031 70.601562 56.199219 "/>
<path style=" stroke:none;fill-rule:nonzero;fill:url(#linear6);" d="M 70 58 L 73 58.398438 L 75.199219 60.398438 L 76 63.199219 L 76 127 L 75.199219 130 L 73 132 L 70 132.398438 C 69.066406 132.265625 68.199219 131.867188 67.398438 131.199219 L 28.199219 99.199219 C 26.867188 98.132812 26.199219 96.800781 26.199219 95.199219 C 26.199219 93.464844 26.867188 92.066406 28.199219 91 L 67.398438 59.199219 C 68.199219 58.535156 69.066406 58.132812 70 58 "/>
<path style=" stroke:none;fill-rule:nonzero;fill:url(#linear7);" d="M 69.398438 59.800781 L 72.199219 60.199219 L 74.398438 62.199219 L 75.199219 64.800781 L 75.199219 125.601562 L 74.398438 128.199219 L 72.199219 130 L 69.398438 130.601562 L 66.800781 129.398438 L 29.800781 99 C 28.464844 98.066406 27.800781 96.800781 27.800781 95.199219 C 27.800781 93.601562 28.464844 92.265625 29.800781 91.199219 L 66.800781 61 L 69.398438 59.800781 "/>
<path style=" stroke:none;fill-rule:nonzero;fill:url(#linear8);" d="M 68.800781 61.601562 L 71.398438 62 L 73.398438 63.800781 L 74.199219 66.398438 L 74.199219 124 L 73.398438 126.601562 L 71.398438 128.199219 L 68.800781 128.800781 C 67.867188 128.667969 67.066406 128.265625 66.398438 127.601562 L 31.199219 98.800781 C 30 97.867188 29.398438 96.667969 29.398438 95.199219 C 29.398438 93.734375 30 92.464844 31.199219 91.398438 L 66.398438 62.800781 L 68.800781 61.601562 "/>
<path style=" stroke:none;fill-rule:nonzero;fill:url(#linear9);" d="M 68.199219 63.601562 L 70.800781 64 L 72.601562 65.601562 L 73.398438 68 L 73.398438 122.398438 L 72.601562 124.800781 L 70.800781 126.398438 L 68.199219 126.800781 L 66 125.800781 L 32.601562 98.601562 C 31.535156 97.667969 31 96.535156 31 95.199219 C 31 93.734375 31.535156 92.535156 32.601562 91.601562 L 66 64.398438 L 68.199219 63.601562 "/>
<path style=" stroke:none;fill-rule:nonzero;fill:url(#linear10);" d="M 67.601562 65.398438 L 70 65.800781 L 71.800781 67.398438 L 72.398438 69.601562 L 72.398438 120.800781 L 71.800781 123 L 70 124.601562 L 67.601562 125 L 65.398438 124 L 34.199219 98.398438 C 33.132812 97.601562 32.601562 96.535156 32.601562 95.199219 C 32.601562 93.867188 33.132812 92.734375 34.199219 91.800781 L 65.398438 66.199219 L 67.601562 65.398438 "/>
<path style=" stroke:none;fill-rule:nonzero;fill:url(#linear11);" d="M 67 67.199219 L 69.199219 67.601562 L 71 69 L 71.601562 71.199219 L 71.601562 119.199219 L 71 121.398438 L 69.199219 122.800781 L 67 123.199219 L 65 122.199219 L 35.601562 98.199219 C 34.667969 97.398438 34.199219 96.398438 34.199219 95.199219 C 34.199219 93.867188 34.667969 92.800781 35.601562 92 L 65 68 L 67 67.199219 "/>
<path style=" stroke:none;fill-rule:nonzero;fill:url(#linear12);" d="M 66.601562 69 L 68.601562 69.398438 L 70.199219 70.800781 L 70.601562 72.800781 L 70.601562 117.601562 L 70.199219 119.601562 L 68.601562 121 L 66.601562 121.398438 L 64.601562 120.601562 L 37 98 C 36.199219 97.332031 35.800781 96.398438 35.800781 95.199219 C 35.800781 94 36.199219 93 37 92.199219 L 64.601562 69.800781 C 65.132812 69.398438 65.800781 69.132812 66.601562 69 "/>
<path style=" stroke:none;fill-rule:nonzero;fill:url(#linear13);" d="M 65.800781 70.800781 L 67.800781 71.199219 L 69.199219 72.398438 L 69.800781 74.199219 L 69.800781 116 L 69.199219 118 L 67.800781 119.199219 L 65.800781 119.398438 L 64.199219 118.800781 L 38.601562 97.800781 C 37.667969 97.132812 37.199219 96.265625 37.199219 95.199219 C 37.199219 94 37.667969 93.066406 38.601562 92.398438 L 64.199219 71.601562 C 64.601562 71.199219 65.132812 70.933594 65.800781 70.800781 "/>
<path style=" stroke:none;fill-rule:nonzero;fill:url(#linear14);" d="M 65.199219 72.601562 L 67 73 L 68.398438 74.199219 L 68.800781 75.800781 L 68.800781 114.398438 L 68.398438 116.199219 L 67 117.398438 L 65.199219 117.601562 L 63.601562 117 L 40 97.601562 C 39.199219 96.933594 38.800781 96.132812 38.800781 95.199219 C 38.800781 94.132812 39.199219 93.265625 40 92.601562 L 63.601562 73.398438 L 65.199219 72.601562 "/>
<path style=" stroke:none;fill-rule:nonzero;fill:url(#linear15);" d="M 66.398438 74.800781 L 67.601562 75.800781 L 68 77.398438 L 68 113 L 67.601562 114.398438 L 66.398438 115.601562 L 63.199219 115.199219 L 41.398438 97.398438 L 40.398438 95.199219 C 40.398438 94.265625 40.734375 93.464844 41.398438 92.800781 L 63.199219 75.199219 L 66.398438 74.800781 "/>
<path style=" stroke:none;fill-rule:nonzero;fill:url(#linear16);" d="M 120.800781 97.601562 C 124.535156 102.398438 127.332031 108.199219 129.199219 115 C 131.464844 122.601562 131.398438 131.464844 129 141.601562 C 126.464844 152.667969 121.535156 162.867188 114.199219 172.199219 C 105.800781 183 95.066406 191.464844 82 197.601562 C 66.800781 204.667969 49.199219 208.199219 29.199219 208.199219 L 29.199219 151.800781 C 40.265625 151.800781 53.066406 150.132812 67.601562 146.800781 C 84.667969 142.800781 96.734375 137.933594 103.800781 132.199219 C 108.867188 128.734375 113.398438 123.265625 117.398438 115.800781 C 121.933594 107.667969 123.066406 101.601562 120.800781 97.601562 "/>
<path style=" stroke:none;fill-rule:nonzero;fill:url(#linear17);" d="M 122.800781 100.398438 C 126.535156 105.199219 129.332031 111 131.199219 117.800781 C 133.332031 125.398438 133.265625 134.265625 131 144.398438 C 128.332031 155.464844 123.398438 165.667969 116.199219 175 C 107.800781 185.800781 97 194.265625 83.800781 200.398438 C 68.734375 207.464844 51.199219 211 31.199219 211 L 31.199219 154.601562 L 69.601562 149.601562 C 86.667969 145.601562 98.734375 140.734375 105.800781 135 C 110.867188 131.535156 115.398438 126.066406 119.398438 118.601562 C 123.800781 110.464844 124.933594 104.398438 122.800781 100.398438 "/>
<path style=" stroke:none;fill-rule:nonzero;fill:url(#linear18);" d="M 31.199219 154.601562 L 31.199219 211 L 29.199219 208.199219 L 29.199219 151.800781 L 31.199219 154.601562 "/>
<path style=" stroke:none;fill-rule:nonzero;fill:rgb(0%,0%,0%);fill-opacity:1;" d="M 44 12.199219 L 47.601562 13.800781 L 50 17.601562 C 50.667969 19.601562 50.398438 21.667969 49.199219 23.800781 C 47.867188 26.464844 45.265625 28.265625 41.398438 29.199219 L 25.398438 33 L 23.398438 33 L 22.199219 31.601562 L 22.199219 30.601562 L 23.398438 29.199219 L 23.800781 27.800781 L 23.398438 23.800781 L 21 12.398438 L 19.800781 9.398438 C 19.667969 9 19.066406 8.667969 18 8.398438 L 16.199219 7 L 16.601562 5.199219 L 18.601562 4.199219 L 33.199219 0.601562 L 37.800781 0 L 41.199219 0.601562 C 42.800781 1.667969 43.800781 3.066406 44.199219 4.800781 L 44.398438 7.800781 L 43.199219 10.398438 L 42.800781 11.601562 C 43.066406 12 43.464844 12.199219 44 12.199219 M 39 21.199219 C 38.199219 18.132812 36.601562 16.867188 34.199219 17.398438 L 33 18.199219 L 33 19.601562 L 34.800781 25.199219 L 36.601562 25.601562 C 38.867188 25.199219 39.667969 23.734375 39 21.199219 M 31.199219 12 L 31.800781 13.398438 L 32.800781 13.601562 L 34.800781 12 L 34.800781 8.800781 L 33.398438 6 L 31 5.398438 C 30.464844 5.535156 30.132812 5.800781 30 6.199219 L 30 7.601562 L 31.199219 12 "/>
<path style=" stroke:none;fill-rule:nonzero;fill:rgb(0%,0%,0%);fill-opacity:1;" d="M 76.199219 22.601562 L 74.199219 24.601562 L 71 25.800781 C 69.398438 25.800781 68.132812 25.332031 67.199219 24.398438 L 66.398438 24 L 65.398438 24.601562 C 63.667969 25.800781 62.066406 26.398438 60.601562 26.398438 L 56 25.601562 L 54 23.601562 L 53.199219 21 C 53.066406 19.667969 53.535156 18.332031 54.601562 17 C 56.199219 15.132812 58.933594 14 62.800781 13.601562 L 64.398438 13.199219 L 64.601562 12.199219 L 64 8.800781 C 63.464844 8.132812 62.933594 7.867188 62.398438 8 L 61.199219 8.398438 L 60 10 C 58.933594 11.867188 57.667969 12.800781 56.199219 12.800781 L 54.601562 12.398438 L 53.800781 10.800781 L 54.398438 8.601562 L 56.601562 6.800781 C 58.867188 5.332031 61.535156 4.464844 64.601562 4.199219 C 67.132812 3.933594 69.265625 4.398438 71 5.601562 L 73 7.800781 L 73.800781 11.199219 L 74 14.398438 L 74.800781 18.800781 L 75.199219 19.398438 L 76.199219 19.601562 L 77 20.398438 L 76.199219 22.601562 M 64 16.601562 C 63.332031 16.601562 62.800781 16.933594 62.398438 17.601562 C 62 18 61.800781 18.601562 61.800781 19.398438 L 62.398438 21 L 63.800781 21.601562 C 65 21.601562 65.464844 20.601562 65.199219 18.601562 L 64.800781 17 L 64 16.601562 "/>
<path style=" stroke:none;fill-rule:nonzero;fill:rgb(0%,0%,0%);fill-opacity:1;" d="M 101.398438 11.398438 L 100 14.398438 L 97 15.199219 C 95.800781 15.199219 94.933594 14.734375 94.398438 13.800781 L 93.601562 11.601562 C 93.464844 10.535156 92.800781 9.867188 91.601562 9.601562 L 89.601562 10.601562 C 88.933594 11.265625 88.601562 12.066406 88.601562 13 C 88.464844 14.601562 88.933594 16.199219 90 17.800781 C 91.199219 19 92.464844 19.601562 93.800781 19.601562 L 95.601562 19.601562 L 98.199219 18.800781 L 99.398438 19.601562 L 99.800781 21.199219 L 99 23.199219 L 96.800781 25 L 90 26.199219 C 87.066406 26.066406 84.601562 25 82.601562 23 C 80.066406 20.734375 78.933594 17.933594 79.199219 14.601562 C 79.601562 11.398438 81.066406 8.800781 83.601562 6.800781 C 86 5.066406 88.933594 4.265625 92.398438 4.398438 C 95.066406 4.667969 97.265625 5.464844 99 6.800781 C 100.867188 8 101.667969 9.535156 101.398438 11.398438 "/>
<path style=" stroke:none;fill-rule:nonzero;fill:rgb(0%,0%,0%);fill-opacity:1;" d="M 117.800781 11 L 117.398438 13.601562 L 118 14.601562 L 120 14.199219 C 121.066406 13.933594 121.601562 13.667969 121.601562 13.398438 L 121.398438 12.398438 L 121.199219 11.601562 C 121.601562 10.132812 123.667969 9.800781 127.398438 10.601562 C 129.265625 11 130.734375 11.601562 131.800781 12.398438 L 132.800781 13.398438 L 132.800781 14.800781 L 131.601562 15.800781 L 130.398438 15.800781 L 127.601562 16.398438 C 126.535156 16.800781 125.933594 17.132812 125.800781 17.398438 L 129.199219 25.601562 L 130.398438 27.601562 L 131.601562 29 L 132.601562 31.398438 L 131.398438 32.800781 L 128.601562 32.800781 L 121.800781 31.199219 L 120 29.800781 L 116.398438 22 L 116 21.398438 L 115.601562 21.800781 L 115.199219 23.199219 L 115 24.601562 L 115.800781 25.800781 L 116 27.199219 L 114 29 L 108.800781 28.398438 L 103.398438 26.601562 L 102.398438 25.601562 L 102.199219 24 C 102.464844 23.464844 102.867188 23.132812 103.398438 23 L 104.601562 22.398438 L 105 21.800781 L 107.800781 12.800781 L 109.398438 5.199219 L 108.398438 4.199219 C 107.199219 3.800781 106.734375 3.199219 107 2.398438 L 108.199219 1 L 110.800781 0.398438 C 114.933594 0 117.800781 0 119.398438 0.398438 C 120.199219 0.667969 120.535156 1.066406 120.398438 1.601562 L 117.800781 11 "/>
</g>
</svg>
